<svg width="256" height="256" viewBox="0 0 256 256" fill="none" xmlns="http://www.w3.org/2000/svg">
<path d="M103.417 114.255L104.401 112.747C104.635 112.403 104.941 112.115 105.299 111.903L123.329 101.554L121.957 99.1783L104.053 109.515C103.69 109.726 103.392 110.031 103.19 110.399L102.9 110.94L102.179 112.091L103.417 114.255Z" fill="white"/>
<path d="M179.403 62.0122L168.383 68.375L170.37 71.8167L181.391 65.4539L179.403 62.0122Z" fill="white"/>
<path d="M120.928 95.8096L124.016 101.157L128.108 98.7947L127.132 97.1055L123.286 96.5559C122.921 96.5498 122.564 96.4511 122.249 96.2689C121.933 96.0868 121.668 95.8272 121.48 95.5147L120.928 95.8096Z" fill="white"/>
<path d="M121.439 93.0448L121.494 93.0135C121.705 92.6395 122.012 92.3289 122.384 92.1142L128.192 88.7607L128.972 86.3352C128.906 86.3059 128.839 86.2803 128.771 86.2585C128.359 86.1531 127.922 86.2111 127.552 86.4205L120.957 90.2277C120.596 90.4395 120.333 90.7855 120.226 91.1903C120.119 91.5951 120.177 92.0257 120.386 92.3883C120.489 92.5806 120.64 92.7425 120.825 92.8577C121.01 92.9729 121.222 93.0375 121.439 93.0448Z" fill="white"/>
<path d="M122.45 93.0634C122.241 93.275 122.089 93.5367 122.01 93.8235C121.896 94.2347 121.939 94.6735 122.13 95.0547C122.262 95.2688 122.442 95.4481 122.658 95.5775C122.873 95.7069 123.116 95.7827 123.367 95.7983L128.078 96.5109L134.184 92.9853L132.14 89.4442L131.045 92.1363C130.83 92.708 130.432 93.1922 129.912 93.5128C129.702 93.6451 129.465 93.7283 129.218 93.7561C128.971 93.7838 128.721 93.7555 128.487 93.6731C128.137 93.5317 127.848 93.2732 127.667 92.9419C127.503 92.6222 127.406 92.2726 127.381 91.9142C127.356 91.5557 127.405 91.196 127.524 90.8569L127.839 89.88L122.798 92.7902C122.671 92.8668 122.555 92.9586 122.45 93.0634Z" fill="white"/>
<path d="M162.636 69.9592L160.866 70.9814L163.739 75.9588L165.51 74.9366L162.636 69.9592Z" fill="white"/>
<path d="M167.714 68.7611L164.065 70.8682L166.052 74.3099L169.701 72.2029L167.714 68.7611Z" fill="white"/>
<path d="M171.198 74.7953L167.549 76.9023L171.278 83.3612L174.927 81.2542L171.198 74.7953Z" fill="white"/>
<path d="M132.923 87.3791L132.426 88.6053C132.544 88.7354 132.649 88.8761 132.741 89.0256L134.827 92.639L138.495 90.5215L135.256 84.9118L133.16 86.1218C133.175 86.5432 133.101 86.963 132.945 87.3544L132.923 87.3791Z" fill="white"/>
<path d="M128.253 91.0982C128.169 91.3344 128.133 91.5851 128.147 91.8355C128.161 92.0858 128.225 92.3308 128.336 92.556C128.426 92.7226 128.573 92.8514 128.75 92.919C129.291 93.1249 129.995 92.634 130.311 91.8252L132.251 87.0916C132.459 86.6053 132.475 86.0582 132.295 85.5609C132.2 85.3476 132.026 85.1801 131.809 85.0947L131.451 84.9759C131.327 84.9425 131.196 84.9354 131.069 84.9551C130.941 84.9748 130.819 85.0209 130.71 85.0905C130.4 85.303 130.153 85.5956 129.995 85.9372C129.946 86.0269 129.908 86.1216 129.881 86.2198L128.253 91.0982ZM130.752 85.789C130.889 85.7104 131.045 85.674 131.202 85.6846C131.359 85.6951 131.509 85.7521 131.633 85.8482C131.758 85.9444 131.851 86.0753 131.901 86.2245C131.95 86.3736 131.955 86.5342 131.913 86.6858C131.871 86.8374 131.785 86.9732 131.666 87.0758C131.547 87.1785 131.4 87.2435 131.244 87.2625C131.088 87.2815 130.93 87.2536 130.79 87.1824C130.65 87.1113 130.534 87 130.457 86.8628C130.405 86.7697 130.372 86.6669 130.36 86.5607C130.348 86.4545 130.358 86.3471 130.389 86.2448C130.42 86.1426 130.472 86.0476 130.54 85.9657C130.609 85.8838 130.693 85.8166 130.788 85.7681L130.752 85.789Z" fill="white"/>
<path d="M99.9687 109.826L63.5568 130.956L61.9103 138.327L76.707 129.784L82.0696 126.555L83.0145 123.456C83.2813 122.573 83.8749 121.826 84.6742 121.366L101.196 111.827L99.9687 109.826Z" fill="white"/>
<path d="M120.241 96.2066L102.319 106.554C101.966 106.756 101.674 107.05 101.473 107.404L100.486 109.178L101.738 111.346L102.52 110.052C102.786 109.559 103.184 109.151 103.669 108.87L121.573 98.5334L120.241 96.2066Z" fill="white"/>
<path d="M102.827 114.776L101.497 112.472L84.9836 122.006C84.3544 122.367 83.8878 122.955 83.6803 123.65L82.9624 126.016L99.2311 116.225C99.4448 116.082 99.7064 116.028 99.9593 116.076C100.212 116.124 100.436 116.269 100.583 116.481C100.614 116.535 100.64 116.58 100.666 116.625L102.827 114.776Z" fill="white"/>
<path d="M77.9061 130.067C77.7549 130.13 77.3579 130.335 77.2272 130.435C76.7407 130.794 76.4036 131.32 76.2803 131.912C76.1569 132.504 76.2559 133.121 76.5583 133.645C76.8608 134.169 77.3455 134.563 77.92 134.752C78.4946 134.942 79.1187 134.913 79.6732 134.671L79.9171 134.53C80.1787 134.377 80.4105 134.178 80.6015 133.943C80.9335 133.528 81.1226 133.018 81.1406 132.487C81.1586 131.956 81.0045 131.434 80.7013 130.998C80.3982 130.562 79.9622 130.236 79.4584 130.068C78.9547 129.9 78.4102 129.9 77.9061 130.067Z" fill="white"/>
<path d="M139.205 90.1234L140.533 89.3567C140.503 89.1365 140.541 88.9125 140.642 88.7145C140.743 88.5165 140.901 88.3538 141.097 88.248L147.267 84.6859C147.456 84.5695 147.676 84.5135 147.898 84.5252C148.12 84.5369 148.333 84.6158 148.509 84.7515L153.27 82.003C153.24 81.7827 153.278 81.5587 153.379 81.3607C153.48 81.1627 153.639 81 153.834 80.8943L160.004 77.3321C160.193 77.2157 160.413 77.1597 160.635 77.1714C160.857 77.1831 161.07 77.2621 161.246 77.3977L163.188 76.2764L160.252 71.1906C160.169 71.0522 160.035 70.952 159.879 70.9115C159.722 70.8711 159.556 70.8937 159.417 70.9744L135.966 84.5137L139.205 90.1234Z" fill="white"/>
<path d="M98.0126 118.893L99.9098 117.255C99.9312 117.237 99.9488 117.215 99.9615 117.19C99.9741 117.165 99.9816 117.137 99.9834 117.109C99.9852 117.081 99.9813 117.053 99.972 117.027C99.9627 117 99.9481 116.976 99.9291 116.955C99.9146 116.93 99.895 116.908 99.8714 116.89C99.8478 116.873 99.8209 116.861 99.7923 116.855C99.7637 116.849 99.7342 116.848 99.7055 116.854C99.6769 116.86 99.6498 116.872 99.6261 116.889L79.1767 129.202C79.9896 129.316 80.7267 129.74 81.234 130.386C81.7413 131.031 81.9795 131.848 81.8988 132.665L98.0126 118.893Z" fill="white"/>
<path d="M78.2686 150.743L82.1374 169.419C82.1632 169.543 82.2371 169.652 82.3428 169.722C82.4486 169.792 82.5777 169.817 82.7019 169.792L88.5037 168.429C86.4516 162.58 83.8973 150.312 83.418 147.855L78.3843 150.568C78.3505 150.584 78.3218 150.608 78.3013 150.639C78.2809 150.67 78.2695 150.706 78.2686 150.743Z" fill="white"/>
<path d="M135.386 108.335C135.794 108.535 136.245 108.633 136.699 108.621C137.153 108.608 137.598 108.485 137.994 108.263L138.202 108.143C139.612 107.329 140.736 106.1 141.421 104.623L142.587 102.094C142.981 101.252 143.619 100.548 144.419 100.073L157.402 92.3728C158.777 91.5552 160.261 90.9374 161.811 90.538L162.865 90.2784C163.547 90.101 164.201 89.829 164.807 89.4702L168.285 87.4622C168.525 87.3239 168.7 87.0961 168.771 86.8289C168.843 86.5616 168.805 86.2769 168.667 86.0373L163.843 77.6814L161.91 78.7976C161.949 79.0212 161.918 79.2515 161.82 79.4566C161.723 79.6617 161.564 79.8314 161.366 79.9424L155.196 83.5045C155.001 83.6191 154.775 83.6708 154.549 83.6526C154.323 83.6344 154.108 83.5472 153.933 83.4028L149.2 86.1357C149.239 86.3593 149.208 86.5896 149.11 86.7947C149.013 86.9998 148.854 87.1696 148.656 87.2805L142.486 90.8427C142.291 90.9572 142.065 91.0089 141.839 90.9907C141.613 90.9725 141.398 90.8853 141.223 90.7409L129.227 97.667L135.386 108.335Z" fill="white"/>
<path d="M92.8152 139.743C92.2268 139.407 91.7309 138.931 91.3719 138.356C91.0128 137.782 90.8018 137.127 90.7576 136.451C90.868 135.558 91.1512 134.695 91.5912 133.91L86.7312 136.716C87.6706 138.185 88.8759 139.466 90.2853 140.493C90.941 141.009 91.7479 141.295 92.582 141.307C93.416 141.32 94.2311 141.058 94.9019 140.562C94.9096 140.549 94.9137 140.535 94.9138 140.52C94.914 140.505 94.9101 140.49 94.9026 140.477C94.8952 140.464 94.8844 140.454 94.8714 140.446C94.8585 140.439 94.8438 140.435 94.8289 140.436C94.1154 140.354 93.4283 140.117 92.8152 139.743Z" fill="white"/>
<path d="M186.244 67.06L172.279 75.123L175.601 80.8773L189.567 72.8143L186.244 67.06Z" fill="white"/>
<path d="M166.282 76.2727L164.511 77.2949L169.424 85.8044L171.195 84.7822L166.282 76.2727Z" fill="white"/>
<path d="M221.748 55.7889L217.32 48.1196L209.587 52.584L213.916 60.0817C213.993 60.1083 214.074 60.1183 214.155 60.1111C214.236 60.1038 214.315 60.0794 214.386 60.0395L221.748 55.7889Z" fill="white"/>
<path d="M222.009 46.4355L224.648 51.0064L231.45 47.0792C227.496 48.1577 224.768 44.9147 224.768 44.9147L222.009 46.4355Z" fill="white"/>
<path d="M200.118 66.7228L212.674 59.4733L209.545 54.0533L197.124 61.2245C197.084 61.2589 197.038 61.2854 196.988 61.3027L200.118 66.7228Z" fill="white"/>
<path d="M220.892 46.0443L218.507 47.4211L218.512 47.4302L217.988 47.7327L222.416 55.402L225.325 53.7227L220.892 46.0443Z" fill="white"/>
<path d="M186.403 64.0175L187.044 65.1286L192.32 62.0828C191.603 62.0455 190.917 61.7787 190.363 61.3217L188.041 59.3862C187.421 59.0173 186.715 58.8194 185.993 58.8126C185.272 58.8058 184.562 58.9904 183.935 59.3475L180.06 61.585L182.042 65.0176L184.671 63.5C184.818 63.418 184.98 63.3664 185.147 63.3481C185.315 63.3298 185.484 63.3452 185.646 63.3935C185.807 63.4417 185.957 63.5218 186.087 63.6289C186.217 63.7361 186.325 63.8682 186.403 64.0175Z" fill="white"/>
<path d="M195.877 60.9211L186.653 66.2461L190.732 73.3102L199.955 67.9853L195.877 60.9211Z" fill="white"/>
<path d="M210.33 47.5905L210.405 50.9553C210.414 51.1302 210.393 51.3052 210.343 51.4731L213.053 49.9085C212.901 49.8491 212.771 49.7422 212.684 49.6035L211.803 48.0769C211.699 47.8972 211.671 47.6836 211.725 47.4832C211.778 47.2828 211.91 47.1119 212.089 47.0082L213.616 46.1268C213.796 46.0231 214.009 45.9949 214.209 46.0486C214.41 46.1023 214.581 46.2335 214.685 46.4131L215.566 47.9398C215.643 48.0844 215.67 48.2499 215.646 48.4117L217.335 47.4364L211.426 37.2015L207.081 39.7102L209.063 43.1429C209.853 44.4951 210.288 46.0249 210.33 47.5905Z" fill="white"/>
<path d="M98.9397 129.823C98.7753 129.528 98.7308 129.181 98.8156 128.854C98.9004 128.527 99.1079 128.245 99.395 128.067L132.976 107.27L128.481 99.4829L105.703 112.561C105.334 112.776 105.019 113.073 104.783 113.43L103.826 114.922L93.3708 123.933L80.9608 134.711C80.8744 134.801 80.7809 134.883 80.6811 134.957L80.5546 135.03L80.3107 135.171C79.9429 135.385 79.5365 135.524 79.1147 135.581C78.693 135.637 78.2642 135.61 77.853 135.5C77.4418 135.391 77.0563 135.201 76.7185 134.943C76.3807 134.684 76.0973 134.361 75.8846 133.993C75.6515 133.591 75.5088 133.143 75.4666 132.681C75.4243 132.219 75.4834 131.753 75.6397 131.315L62.4506 138.846C62.2248 138.976 62.4031 139.223 62.5544 139.485L67.7124 148.419L69.7178 147.261L70.2394 148.164C70.4638 148.551 70.7621 148.891 71.1172 149.163L71.2882 147.185C71.3577 146.401 71.6153 145.644 72.0391 144.98C72.4629 144.316 73.0405 143.764 73.723 143.371L82.9551 138.04C83.1324 137.938 83.3431 137.91 83.5408 137.963C83.7386 138.016 83.9072 138.146 84.0095 138.323L88.1401 145.477C88.1705 145.527 88.2171 145.564 88.2719 145.583C88.3267 145.602 88.3864 145.601 88.4408 145.581C88.6535 145.533 88.8731 145.525 89.0888 145.556L90.8751 145.729C91.6646 145.81 92.4594 145.638 93.1448 145.238L100.372 141.065C101.216 140.692 101.941 140.094 102.469 139.337C102.768 138.681 102.855 137.949 102.717 137.242C102.592 136.516 102.343 135.816 101.981 135.174L98.9397 129.823ZM106.332 117.594L110.605 115.127C111.044 114.874 111.565 114.805 112.054 114.936C112.543 115.067 112.96 115.387 113.213 115.826C113.466 116.264 113.534 116.785 113.403 117.274C113.272 117.763 112.952 118.18 112.514 118.433L108.241 120.9C107.803 121.153 107.282 121.222 106.793 121.091C106.304 120.96 105.887 120.64 105.634 120.201C105.381 119.763 105.312 119.242 105.443 118.753C105.574 118.264 105.894 117.847 106.332 117.594ZM85.695 132.147C85.8901 132.034 86.1143 131.982 86.3391 131.997C86.564 132.012 86.7792 132.093 86.9577 132.231C87.1361 132.368 87.2696 132.556 87.3413 132.77C87.413 132.983 87.4196 133.213 87.3603 133.431C87.301 133.648 87.1784 133.843 87.0082 133.99C86.8379 134.138 86.6277 134.232 86.4041 134.259C86.1805 134.287 85.9537 134.248 85.7524 134.147C85.5511 134.046 85.3845 133.887 85.2736 133.691C85.1967 133.558 85.1478 133.411 85.1297 133.259C85.1116 133.106 85.1248 132.952 85.1685 132.805C85.2122 132.658 85.2854 132.521 85.3837 132.404C85.482 132.286 85.6033 132.19 85.7402 132.12L85.695 132.147ZM100.616 139.695L92.7011 144.386C91.9819 144.737 91.1678 144.843 90.3827 144.689L89.0433 144.33C88.8563 144.281 88.6814 144.194 88.5296 144.074C88.3777 143.955 88.252 143.805 88.1604 143.635L84.8805 137.808C84.8273 137.716 84.793 137.614 84.7794 137.509C84.7659 137.403 84.7734 137.296 84.8016 137.193C84.8298 137.091 84.8781 136.995 84.9437 136.911C85.0092 136.827 85.0908 136.758 85.1836 136.706L96.8547 129.967C97.0264 129.874 97.2265 129.849 97.4159 129.896C97.5086 129.922 97.5949 129.966 97.6694 130.027C97.7439 130.087 97.8048 130.163 97.8483 130.249L101.13 136.099C101.746 137.333 101.7 139.07 100.662 139.669L100.616 139.695Z" fill="white"/>
<path d="M83.7076 139.364L74.5068 144.749C74.0379 145.017 73.6418 145.395 73.3532 145.852C73.0645 146.308 72.892 146.828 72.8507 147.367L72.6291 149.904C73.816 150.29 75.2743 150.918 75.7385 151.722C76.3643 152.806 78.5412 164.003 79.6238 169.738C79.7968 170.628 80.3125 171.416 81.06 171.93C81.8075 172.445 82.7271 172.645 83.6209 172.488L90.1936 171.356C90.6665 171.269 91.1132 171.075 91.499 170.788C91.8848 170.502 92.1993 170.13 92.4181 169.702C92.6369 169.274 92.7542 168.801 92.7608 168.32C92.7674 167.839 92.6632 167.364 92.4562 166.93C91.9443 165.876 90.6079 164.167 90.1281 163.336C88.7773 160.996 89.6843 158.666 88.855 157.229C87.6792 154.729 86.9442 152.044 86.6823 149.294C86.7822 148.405 87.0321 147.54 87.4213 146.735C87.4822 146.598 87.5093 146.448 87.5003 146.298C87.4913 146.148 87.4465 146.003 87.3696 145.874L83.7076 139.364ZM84.0754 147.282C84.1423 147.773 87.0245 161.924 89.1921 168.14C89.2271 168.242 89.2397 168.351 89.2293 168.459C89.2188 168.567 89.1855 168.671 89.1315 168.765C89.0727 168.889 88.9757 168.992 88.8546 169.057C88.7998 169.101 88.7389 169.136 88.674 169.162L82.8489 170.525C82.5248 170.591 82.188 170.527 81.9106 170.347C81.6333 170.167 81.4376 169.886 81.3658 169.563L77.532 150.927C77.489 150.725 77.5108 150.515 77.5943 150.326C77.6778 150.137 77.8187 149.98 77.997 149.876L83.3973 146.963C83.4643 146.927 83.5391 146.909 83.6149 146.909C83.6908 146.909 83.7654 146.928 83.832 146.965L84.0149 147.052L84.0754 147.282Z" fill="white"/>
<path d="M107.91 120.201L112.173 117.739C112.434 117.588 112.625 117.34 112.703 117.049C112.781 116.757 112.74 116.447 112.589 116.186C112.439 115.925 112.19 115.734 111.899 115.656C111.608 115.578 111.298 115.619 111.036 115.77L106.773 118.231C106.511 118.382 106.321 118.63 106.243 118.922C106.165 119.213 106.206 119.523 106.356 119.784C106.507 120.046 106.756 120.236 107.047 120.314C107.338 120.392 107.648 120.351 107.91 120.201Z" fill="white"/>
<path d="M63.794 129.929L99.5916 109.153L100.778 107.034C101.049 106.565 101.438 106.175 101.906 105.901L121.075 94.8341C120.985 94.5476 120.98 94.2413 121.059 93.9518L97.1388 107.762C96.8648 107.915 96.5417 107.955 96.2388 107.872L95.8294 107.747C95.6769 107.705 95.5174 107.693 95.3603 107.713C95.2031 107.733 95.0515 107.784 94.9144 107.863C94.7772 107.942 94.6573 108.048 94.5615 108.174C94.4658 108.3 94.3963 108.444 94.357 108.598L94.2553 109.006C94.2186 109.159 94.1509 109.304 94.0565 109.431C93.9621 109.558 93.8429 109.665 93.7061 109.744L85.829 114.292C85.6901 114.371 85.537 114.421 85.3785 114.44C85.2201 114.459 85.0594 114.447 84.9057 114.404L84.4963 114.279C84.3438 114.236 84.1843 114.224 84.0272 114.244C83.87 114.264 83.7184 114.315 83.5813 114.394C83.4441 114.473 83.3242 114.579 83.2284 114.705C83.1327 114.831 83.0632 114.975 83.0239 115.129L82.9274 115.546C82.888 115.7 82.8184 115.846 82.7226 115.973C82.6268 116.101 82.5067 116.208 82.3692 116.29L74.4379 120.869C74.3006 120.947 74.1488 120.997 73.9917 121.016C73.8345 121.034 73.6753 121.02 73.5237 120.975L73.091 120.851C72.7868 120.77 72.4628 120.813 72.1902 120.971C71.9176 121.128 71.7185 121.387 71.6366 121.691L71.512 122.185C71.4732 122.333 71.4054 122.472 71.3125 122.594C71.2195 122.716 71.1033 122.818 70.9705 122.895L66.8693 125.262C65.8395 125.857 64.6867 126.426 64.376 127.557L63.794 129.929Z" fill="white"/>
<path d="M120.577 125.075C120.533 125.024 120.471 124.992 120.404 124.983C120.337 124.975 120.269 124.993 120.214 125.032C120.17 125.053 120.13 125.083 120.098 125.12C120.065 125.158 120.041 125.201 120.026 125.249C120.011 125.327 120.028 125.409 120.073 125.475C127.425 133.913 138.64 139.193 152.876 140.839C152.953 140.852 153.032 140.838 153.1 140.799C153.167 140.76 153.219 140.698 153.246 140.625C153.258 140.592 153.262 140.557 153.259 140.523C153.256 140.488 153.245 140.455 153.228 140.425C153.21 140.395 153.187 140.369 153.158 140.349C153.13 140.329 153.098 140.315 153.064 140.309C136.651 137.499 128.003 133.411 120.577 125.075Z" fill="white"/>
<path d="M116.998 127.347C116.953 127.297 116.891 127.266 116.825 127.258C116.758 127.25 116.691 127.266 116.636 127.303C116.591 127.326 116.552 127.358 116.521 127.397C116.489 127.436 116.466 127.481 116.453 127.529C116.443 127.566 116.442 127.604 116.451 127.641C116.46 127.678 116.478 127.712 116.503 127.741C128.535 141.571 151.385 144.349 152.332 144.465C152.409 144.481 152.489 144.468 152.557 144.428C152.625 144.389 152.677 144.326 152.702 144.252C152.714 144.219 152.718 144.184 152.715 144.149C152.712 144.115 152.701 144.081 152.684 144.051C152.666 144.021 152.643 143.995 152.614 143.975C152.586 143.955 152.554 143.942 152.52 143.935C136.192 141.149 124.434 135.7 116.998 127.347Z" fill="white"/>
<path d="M112.992 129.816C112.945 129.769 112.884 129.739 112.818 129.731C112.752 129.723 112.686 129.738 112.629 129.773C112.584 129.793 112.544 129.823 112.512 129.861C112.479 129.898 112.455 129.942 112.441 129.99C112.429 130.028 112.427 130.069 112.436 130.109C112.444 130.148 112.462 130.185 112.488 130.216C123.276 142.644 146.362 147.623 151.796 148.232C151.873 148.245 151.952 148.231 152.02 148.192C152.088 148.153 152.139 148.091 152.166 148.018C152.178 147.984 152.182 147.948 152.178 147.913C152.175 147.878 152.164 147.844 152.146 147.813C152.128 147.782 152.104 147.755 152.075 147.735C152.046 147.714 152.013 147.7 151.979 147.693C135.323 144.879 120.374 138.117 112.992 129.816Z" fill="white"/>
<path d="M119.601 117.148L103.59 127.344C123.013 151.577 153.042 154.27 157.608 154.272C157.786 154.271 157.958 154.202 158.088 154.08C158.219 153.958 158.298 153.791 158.311 153.612L159.783 136.635C159.794 136.537 159.784 136.437 159.756 136.342C159.727 136.247 159.679 136.159 159.615 136.083C159.551 136.008 159.472 135.946 159.383 135.901C159.294 135.857 159.198 135.831 159.099 135.826C134.564 134.032 122.662 121.198 119.601 117.148ZM152.849 148.094C152.809 148.242 152.74 148.379 152.646 148.5C152.552 148.62 152.435 148.721 152.302 148.795C152.088 148.918 151.842 148.972 151.596 148.95C146.137 148.319 122.842 143.269 111.886 130.696C111.797 130.589 111.735 130.463 111.705 130.327C111.675 130.192 111.678 130.051 111.713 129.917C111.751 129.767 111.82 129.626 111.915 129.503C112.009 129.38 112.128 129.277 112.263 129.202C112.463 129.077 112.699 129.024 112.934 129.05C113.168 129.077 113.386 129.182 113.553 129.349C120.834 137.538 135.643 144.225 152.088 147.028C152.212 147.039 152.332 147.077 152.439 147.139C152.547 147.201 152.64 147.286 152.712 147.387C152.784 147.488 152.834 147.604 152.857 147.726C152.881 147.848 152.878 147.973 152.849 148.094ZM153.417 144.321C153.376 144.468 153.306 144.605 153.211 144.723C153.116 144.842 152.998 144.941 152.865 145.014C152.653 145.141 152.405 145.195 152.159 145.168C151.204 145.057 128.082 142.206 115.883 128.232C115.794 128.123 115.732 127.995 115.701 127.859C115.67 127.722 115.671 127.58 115.705 127.444C115.789 127.144 115.989 126.89 116.26 126.737C116.46 126.613 116.697 126.559 116.931 126.586C117.165 126.612 117.383 126.718 117.55 126.884C124.886 135.127 136.523 140.513 152.642 143.251C152.767 143.262 152.888 143.3 152.996 143.362C153.105 143.424 153.199 143.509 153.273 143.61C153.346 143.711 153.397 143.827 153.422 143.95C153.447 144.073 153.445 144.2 153.417 144.321ZM153.955 140.686C153.882 140.952 153.717 141.183 153.489 141.338C153.262 141.494 152.986 141.564 152.712 141.536C138.294 139.888 126.97 134.502 119.48 125.951C119.39 125.844 119.326 125.717 119.293 125.581C119.261 125.445 119.261 125.303 119.293 125.167C119.331 125.017 119.4 124.876 119.495 124.753C119.589 124.63 119.708 124.528 119.843 124.452C120.045 124.327 120.283 124.274 120.518 124.303C120.753 124.331 120.972 124.439 121.138 124.608C128.458 132.823 136.991 136.858 153.195 139.619C153.32 139.629 153.44 139.666 153.549 139.728C153.657 139.789 153.751 139.874 153.824 139.976C153.896 140.077 153.946 140.194 153.968 140.316C153.991 140.439 153.987 140.565 153.955 140.686Z" fill="white"/>
<path d="M4.36949 173.764L18.4512 198.154C18.6194 198.448 18.8703 198.687 19.1727 198.84C19.4751 198.993 19.8158 199.053 20.1525 199.015L4.68348 172.222C4.44837 172.393 4.28585 172.647 4.22777 172.932C4.16969 173.217 4.22023 173.514 4.36949 173.764Z" fill="white"/>
<path d="M41.9343 161.953L21.6995 173.636C21.4599 173.774 21.2851 174.002 21.2135 174.269C21.1419 174.536 21.1794 174.821 21.3177 175.061C21.456 175.3 21.6838 175.475 21.9511 175.547C22.2183 175.618 22.503 175.581 22.7426 175.442L42.9774 163.76C43.217 163.621 43.3918 163.394 43.4634 163.126C43.535 162.859 43.4975 162.574 43.3592 162.335C43.2209 162.095 42.993 161.921 42.7258 161.849C42.4586 161.777 42.1739 161.815 41.9343 161.953Z" fill="white"/>
<path d="M56.2939 143.014L52.3446 148.691C51.7735 149.518 50.9849 150.171 50.0659 150.579C49.147 150.986 48.1334 151.132 47.137 150.999L43.4293 150.502C42.8417 150.421 42.2438 150.538 41.7294 150.833L5.71326 171.627L21.2553 198.546C21.311 198.526 21.363 198.496 21.4088 198.458L66.9639 149.417L61.2687 139.552L57.9895 141.445C57.3152 141.836 56.736 142.372 56.2939 143.014ZM43.4988 164.662L23.264 176.345C22.7848 176.622 22.2154 176.697 21.681 176.553C21.1465 176.41 20.6909 176.061 20.4142 175.581C20.1376 175.102 20.0626 174.533 20.2058 173.998C20.349 173.464 20.6987 173.008 21.1778 172.732L41.4126 161.049C41.8918 160.772 42.4612 160.697 42.9957 160.841C43.5301 160.984 43.9858 161.333 44.2624 161.813C44.5391 162.292 44.614 162.861 44.4708 163.396C44.3276 163.93 43.978 164.386 43.4988 164.662Z" fill="white"/>
</svg>
