<svg width="256" height="256" viewBox="0 0 256 256" fill="none" xmlns="http://www.w3.org/2000/svg">
  <path
    d="M110.306 111.122L111.239 109.7C111.46 109.369 111.754 109.093 112.098 108.894L129.201 99.0195L127.899 96.7642L110.93 106.561C110.586 106.758 110.303 107.046 110.11 107.393L109.826 107.914L109.156 109.006L110.306 111.122Z"
    fill="white" />
  <path d="M182.526 61.4779L172.055 67.5234L173.941 70.7901L184.412 64.7445L182.526 61.4779Z" fill="white" />
  <path
    d="M126.927 93.6133L129.862 98.6967L133.738 96.4594L132.808 94.8484L129.151 94.3225C128.81 94.3066 128.479 94.2069 128.187 94.0322C127.895 93.8575 127.65 93.6132 127.475 93.3211L126.927 93.6133Z"
    fill="white" />
  <path
    d="M127.461 91.0028L127.505 90.977C127.708 90.6248 128.001 90.3325 128.353 90.1298L133.875 86.9416L134.616 84.6285L134.422 84.5614C134.046 84.4619 133.647 84.509 133.305 84.6933L127.04 88.3103C126.698 88.5137 126.45 88.843 126.348 89.2273C126.247 89.6117 126.3 90.0206 126.496 90.3662C126.587 90.5475 126.724 90.7017 126.893 90.8134C127.063 90.9252 127.258 90.9905 127.461 91.0028Z"
    fill="white" />
  <path
    d="M128.395 90.988C128.198 91.1926 128.056 91.4431 127.98 91.7167C127.872 92.0949 127.906 92.4999 128.076 92.8545C128.201 93.0577 128.372 93.2279 128.576 93.3511C128.78 93.4742 129.011 93.5465 129.249 93.562L133.734 94.2419L139.534 90.8936L137.596 87.5374L136.555 90.0955C136.35 90.6399 135.969 91.0999 135.471 91.4013C135.273 91.5269 135.048 91.6052 134.814 91.6305C134.581 91.6558 134.344 91.6272 134.123 91.5471C133.796 91.4232 133.524 91.1867 133.356 90.8801C133.202 90.5762 133.111 90.2441 133.089 89.904C133.067 89.5638 133.114 89.2227 133.228 88.9015L133.524 87.967L128.709 90.7469C128.595 90.8143 128.49 90.8952 128.395 90.988Z"
    fill="white" />
  <path d="M166.598 69.0276L164.915 69.999L167.644 74.7245L169.326 73.7531L166.598 69.0276Z" fill="white" />
  <path d="M171.419 67.8907L167.947 69.8955L169.833 73.1622L173.305 71.1573L171.419 67.8907Z" fill="white" />
  <path d="M174.731 73.628L171.259 75.6328L174.803 81.7723L178.276 79.7675L174.731 73.628Z" fill="white" />
  <path
    d="M138.381 85.5694L137.873 86.7573C137.988 86.8739 138.088 87.0048 138.17 87.1469L140.164 90.6015L143.655 88.5864L140.554 83.2165L138.568 84.3636C138.574 84.7633 138.504 85.1606 138.36 85.5336L138.381 85.5694Z"
    fill="white" />
  <path
    d="M133.913 89.1155C133.831 89.3403 133.796 89.579 133.809 89.8176C133.822 90.0562 133.882 90.2899 133.987 90.5047C134.073 90.6622 134.211 90.7848 134.378 90.8516C134.894 91.0429 135.561 90.5861 135.867 89.8131L137.703 85.3045C137.899 84.8382 137.913 84.3148 137.74 83.8392C137.647 83.6369 137.482 83.4767 137.277 83.39L136.942 83.2851C136.823 83.2539 136.698 83.2477 136.575 83.267C136.453 83.2863 136.336 83.3306 136.232 83.3973C135.915 83.595 135.666 83.8845 135.517 84.2272C135.474 84.3129 135.438 84.4018 135.408 84.493L133.913 89.1155ZM136.282 84.0841C136.409 84.0105 136.556 83.9764 136.703 83.986C136.85 83.9956 136.99 84.0486 137.107 84.1382C137.224 84.2278 137.311 84.35 137.359 84.4893C137.406 84.6287 137.411 84.7789 137.373 84.9211C137.335 85.0632 137.255 85.1909 137.145 85.2879C137.034 85.3849 136.897 85.447 136.751 85.4662C136.605 85.4854 136.457 85.4609 136.325 85.3958C136.193 85.3307 136.083 85.228 136.01 85.1005C135.914 84.929 135.889 84.7268 135.939 84.537C135.99 84.3472 136.113 84.1847 136.282 84.0841Z"
    fill="white" />
  <path
    d="M107.03 106.916L72.4231 127.003L70.8482 134.01L84.9351 125.877L90.0026 122.832L90.9292 119.911C91.1831 119.073 91.7464 118.364 92.5047 117.927L108.212 108.859L107.03 106.916Z"
    fill="white" />
  <path
    d="M126.328 93.9603L109.323 103.778C108.99 103.971 108.714 104.25 108.525 104.585L107.573 106.244L108.767 108.312L109.507 107.073C109.764 106.612 110.141 106.229 110.598 105.965L127.603 96.1478L126.328 93.9603Z"
    fill="white" />
  <path
    d="M109.748 111.623L108.497 109.457L92.7818 118.531C92.185 118.875 91.7392 119.43 91.5325 120.087L90.8515 122.318L106.312 113.01C106.515 112.883 106.759 112.84 106.993 112.89C107.226 112.94 107.432 113.079 107.565 113.277C107.601 113.32 107.629 113.368 107.647 113.421L109.748 111.623Z"
    fill="white" />
  <path
    d="M86.0541 126.161C85.9124 126.225 85.5344 126.419 85.4084 126.51C84.9344 126.847 84.603 127.348 84.4791 127.917C84.3552 128.485 84.4477 129.078 84.7384 129.582C85.0291 130.086 85.4972 130.463 86.0511 130.639C86.605 130.816 87.205 130.78 87.7336 130.538L87.9663 130.403C88.4755 130.118 88.8592 129.651 89.0417 129.097C89.2243 128.542 89.1924 127.939 88.9525 127.407C88.7125 126.874 88.2819 126.451 87.7454 126.221C87.2089 125.99 86.6055 125.969 86.0541 126.161Z"
    fill="white" />
  <path
    d="M144.326 88.1983L145.579 87.4749C145.549 87.2683 145.582 87.0575 145.674 86.8702C145.766 86.6828 145.913 86.5277 146.095 86.4254L151.957 83.0409C152.136 82.9372 152.342 82.8897 152.548 82.9046C152.755 82.9194 152.952 82.9959 153.115 83.1242L157.634 80.5148C157.604 80.31 157.637 80.1009 157.727 79.9147C157.817 79.7285 157.962 79.5737 158.141 79.4704L164.012 76.0808C164.191 75.9771 164.397 75.9296 164.604 75.9445C164.81 75.9593 165.007 76.0358 165.17 76.164L167.013 75.0996L164.223 70.2668C164.147 70.1338 164.02 70.0368 163.872 69.9971C163.724 69.9574 163.566 69.9782 163.433 70.0549L141.246 82.8643L144.326 88.1983Z"
    fill="white" />
  <path
    d="M105.173 115.541L106.968 113.979C106.989 113.963 107.007 113.942 107.02 113.918C107.033 113.894 107.041 113.868 107.044 113.841C107.046 113.813 107.042 113.786 107.034 113.76C107.025 113.735 107.011 113.711 106.992 113.691C106.961 113.647 106.914 113.616 106.861 113.605C106.808 113.593 106.753 113.602 106.706 113.629L87.2234 125.355C87.6751 125.425 88.1057 125.594 88.4844 125.85C88.8632 126.106 89.1807 126.442 89.4142 126.835C89.7358 127.385 89.8746 128.024 89.8107 128.658L105.173 115.541Z"
    fill="white" />
  <path
    d="M86.4005 145.818L90.1004 163.491C90.1229 163.609 90.1915 163.714 90.291 163.782C90.3906 163.85 90.513 163.875 90.6314 163.853L96.1553 162.549C94.1567 157.02 91.7743 145.329 91.3102 142.996L86.534 145.574C86.4854 145.591 86.4447 145.625 86.42 145.67C86.3954 145.716 86.3884 145.768 86.4005 145.818Z"
    fill="white" />
  <path
    d="M140.684 105.516C141.074 105.698 141.502 105.784 141.932 105.766C142.362 105.748 142.782 105.627 143.155 105.414L143.352 105.3C144.689 104.522 145.755 103.353 146.406 101.95L147.517 99.5545C147.885 98.7447 148.497 98.0702 149.267 97.6252L161.601 90.3011C162.911 89.5324 164.32 88.9477 165.789 88.5635L166.829 88.2974C167.464 88.1315 168.073 87.88 168.64 87.5497L171.952 85.6379C172.189 85.5008 172.362 85.2751 172.433 85.0104C172.504 84.7456 172.467 84.4635 172.33 84.2262L167.757 76.3057L165.923 77.3649C165.962 77.5748 165.936 77.7919 165.847 77.9862C165.759 78.1806 165.612 78.3427 165.427 78.4503L159.556 81.8399C159.371 81.946 159.157 81.992 158.945 81.9716C158.732 81.9512 158.531 81.8654 158.369 81.726L153.894 84.3096C153.934 84.5194 153.908 84.7365 153.819 84.9309C153.73 85.1252 153.584 85.2873 153.399 85.3949L147.537 88.7794C147.349 88.9022 147.126 88.9605 146.902 88.9456C146.679 88.9306 146.466 88.8432 146.296 88.6965L134.804 95.3311L140.684 105.516Z"
    fill="white" />
  <path
    d="M100.232 135.363C99.6742 135.044 99.204 134.592 98.8642 134.046C98.5243 133.501 98.3254 132.88 98.2854 132.238C98.3843 131.39 98.648 130.569 99.0616 129.821L94.4525 132.482C95.3411 133.885 96.4874 135.106 97.8308 136.081C98.4543 136.572 99.2224 136.845 100.016 136.857C100.81 136.869 101.586 136.619 102.224 136.146C102.231 136.133 102.236 136.119 102.236 136.104C102.236 136.089 102.232 136.075 102.225 136.062C102.217 136.049 102.207 136.039 102.194 136.031C102.181 136.024 102.166 136.02 102.152 136.021C101.471 135.945 100.816 135.72 100.232 135.363Z"
    fill="white" />
  <path d="M189.027 66.2688L175.754 73.9316L178.911 79.3999L192.184 71.7371L189.027 66.2688Z" fill="white" />
  <path d="M170.06 75.0237L168.377 75.9951L173.049 84.0857L174.731 83.1143L170.06 75.0237Z" fill="white" />
  <path
    d="M222.775 55.5665L218.564 48.2724L211.216 52.5146L215.35 59.6744C215.422 59.7024 215.5 59.7141 215.577 59.7086C215.655 59.7032 215.73 59.6808 215.797 59.643L222.775 55.5665Z"
    fill="white" />
  <path
    d="M223.024 46.6758L225.53 51.0164L231.992 47.2857C228.218 48.2716 225.625 45.1863 225.625 45.1863L223.024 46.6758Z"
    fill="white" />
  <path d="M202.213 65.9586L214.152 59.0656L211.18 53.9195L199.376 60.735L199.242 60.8125L202.213 65.9586Z"
    fill="white" />
  <path
    d="M221.955 46.2911L219.691 47.5983L219.696 47.6073L219.194 47.8966L223.406 55.1907L226.171 53.594L221.955 46.2911Z"
    fill="white" />
  <path
    d="M189.187 63.3843L189.797 64.4404L194.808 61.5468C194.126 61.5083 193.474 61.254 192.945 60.8206L190.702 59.0014C190.112 58.6623 189.444 58.4842 188.763 58.4852C188.083 58.4862 187.415 58.6662 186.827 59.0072L183.148 61.1309L185.034 64.3975L187.531 62.9559C187.668 62.8739 187.819 62.82 187.977 62.7972C188.134 62.7744 188.295 62.7831 188.449 62.823C188.603 62.8629 188.748 62.9331 188.874 63.0295C189.001 63.1258 189.107 63.2465 189.187 63.3843Z"
    fill="white" />
  <path d="M198.186 60.4316L189.424 65.4902L193.3 72.2025L202.062 67.1439L198.186 60.4316Z" fill="white" />
  <path
    d="M211.922 47.7637L211.994 50.9679C211.993 51.1359 211.974 51.3032 211.936 51.4668L214.54 49.9632C214.394 49.9053 214.27 49.8004 214.189 49.6648L213.352 48.2149C213.253 48.044 213.227 47.8409 213.278 47.6503C213.329 47.4597 213.454 47.2972 213.624 47.1985L215.065 46.3666C215.236 46.2679 215.439 46.2412 215.63 46.2923C215.821 46.3433 215.983 46.4681 216.082 46.639L216.919 48.0888C216.996 48.2266 217.025 48.3861 217.002 48.5422L218.613 47.6121L212.991 37.8748L208.856 40.262L210.737 43.5197C211.479 44.8135 211.887 46.2724 211.922 47.7637Z"
    fill="white" />
  <path
    d="M77.9695 139.648L75.1191 141.448L76.3643 143.605L78.2706 142.505L78.7873 143.4C78.9988 143.769 79.2828 144.092 79.6222 144.35L79.7421 142.49C79.8302 141.44 80.2739 140.452 80.9999 139.688C80.8502 139.751 80.6951 139.801 80.5365 139.836C79.678 139.977 78.7983 139.912 77.9695 139.648Z"
    fill="white" />
  <path
    d="M72.2926 136.553L74.7034 135.066C74.7375 133.982 75.0772 132.93 75.6833 132.03L71.3696 134.521C71.1548 134.645 71.3263 134.88 71.471 135.13L72.2926 136.553Z"
    fill="white" />
  <path
    d="M112.474 109.524C112.122 109.726 111.823 110.009 111.602 110.349L110.696 111.756L100.742 120.331L88.9743 130.538C88.7839 130.705 88.5811 130.858 88.3675 130.995C87.6554 131.406 86.8092 131.518 86.015 131.305C85.2207 131.092 84.5436 130.573 84.1325 129.86C83.9078 129.485 83.7679 129.064 83.7225 128.629C83.6772 128.193 83.7275 127.753 83.87 127.339L78.9476 130.181C79.8899 130.066 80.8453 130.228 81.6975 130.646C82.5497 131.064 83.2621 131.72 83.7481 132.536C84.234 133.351 84.4726 134.29 84.4348 135.239C84.3969 136.187 84.0843 137.104 83.5349 137.878L83.3464 138.13L90.8552 133.795C90.9394 133.747 91.0324 133.715 91.1288 133.703C91.2253 133.69 91.3232 133.697 91.417 133.723C91.5107 133.749 91.5984 133.793 91.6749 133.853C91.7514 133.913 91.8152 133.988 91.8626 134.073L95.7897 140.875C95.8197 140.92 95.8636 140.954 95.9149 140.972C95.9661 140.99 96.0218 140.99 96.0734 140.973C96.2767 140.929 96.4863 140.921 96.6924 140.95C97.1297 140.984 97.8003 141.05 98.4084 141.153C99.1469 141.23 99.8911 141.072 100.534 140.701L107.354 136.764C108.163 136.417 108.857 135.847 109.353 135.12C109.636 134.499 109.719 133.804 109.59 133.134C109.468 132.439 109.228 131.771 108.879 131.158L106.054 126.058C105.9 125.777 105.86 125.448 105.94 125.138C106.02 124.828 106.215 124.56 106.486 124.389L138.383 104.505L134.11 97.104L112.474 109.524ZM93.5319 128.097C93.7799 127.954 94.0747 127.915 94.3514 127.989C94.628 128.063 94.8639 128.244 95.0071 128.492C95.1503 128.74 95.1891 129.035 95.115 129.312C95.0409 129.589 94.8599 129.824 94.6118 129.968C94.3638 130.111 94.069 130.15 93.7923 130.076C93.5157 130.001 93.2798 129.82 93.1366 129.572C92.9934 129.324 92.9546 129.03 93.0287 128.753C93.1029 128.476 93.2838 128.24 93.5319 128.097ZM108.208 131.855C108.742 133.05 108.672 134.726 107.723 135.274L100.189 139.731C99.5024 140.066 98.7262 140.171 97.9753 140.03L96.7047 139.69C96.5317 139.645 96.3692 139.566 96.2268 139.458C96.0844 139.349 95.9649 139.214 95.8752 139.059L92.76 133.519C92.6586 133.343 92.6311 133.134 92.6836 132.939C92.7361 132.743 92.8643 132.576 93.0399 132.474L104.138 126.067C104.217 126.02 104.306 125.99 104.397 125.979C104.489 125.967 104.582 125.973 104.671 125.998C104.845 126.047 104.993 126.163 105.083 126.32L108.208 131.855ZM119.015 115.067L114.934 117.423C114.521 117.622 114.048 117.657 113.61 117.522C113.171 117.386 112.8 117.09 112.571 116.693C112.342 116.296 112.271 115.827 112.373 115.38C112.475 114.932 112.742 114.54 113.121 114.282L117.175 111.941C117.382 111.8 117.615 111.703 117.861 111.656C118.107 111.609 118.36 111.614 118.605 111.67C118.849 111.725 119.079 111.831 119.28 111.979C119.482 112.128 119.65 112.317 119.776 112.534C119.901 112.751 119.98 112.991 120.008 113.24C120.036 113.489 120.012 113.74 119.938 113.98C119.864 114.219 119.742 114.44 119.579 114.63C119.415 114.82 119.214 114.974 118.989 115.082L119.015 115.067Z"
    fill="white" />
  <path
    d="M80.9066 134.277C81.0639 134.545 81.138 134.854 81.1194 135.165C81.1009 135.475 80.9905 135.773 80.8023 136.021C80.6142 136.269 80.3567 136.455 80.0625 136.556C79.7683 136.658 79.4507 136.669 79.1499 136.59C78.8491 136.51 78.5787 136.343 78.373 136.11C78.1673 135.876 78.0355 135.587 77.9944 135.279C77.9533 134.97 78.0047 134.657 78.142 134.378C78.2794 134.098 78.4966 133.866 78.766 133.711C78.9435 133.607 79.1399 133.539 79.3438 133.511C79.5477 133.483 79.7551 133.496 79.9541 133.548C80.153 133.601 80.3396 133.692 80.5031 133.817C80.6666 133.942 80.8037 134.099 80.9066 134.277Z"
    fill="white" />
  <path
    d="M91.5528 135.003L82.813 140.121C82.3675 140.376 81.9908 140.736 81.7152 141.17C81.4396 141.603 81.2734 142.097 81.2308 142.609L81.0236 145.02C82.1753 145.277 83.2202 145.882 84.0167 146.752C84.6109 147.782 86.69 158.431 87.7116 163.879C87.8762 164.718 88.3624 165.46 89.0663 165.945C89.7702 166.43 90.636 166.621 91.4789 166.477L97.7769 165.419C98.2295 165.34 98.6576 165.157 99.0275 164.884C99.3973 164.612 99.6988 164.257 99.9082 163.848C100.118 163.439 100.229 162.987 100.234 162.528C100.239 162.068 100.137 161.614 99.9359 161.201C99.4546 160.202 98.1809 158.574 97.7262 157.787C96.4448 155.567 97.3027 153.354 96.5121 151.984C95.4137 149.591 94.7395 147.024 94.5197 144.4C94.6104 143.555 94.8461 142.733 95.2165 141.969C95.2758 141.838 95.3027 141.696 95.2949 141.553C95.2871 141.41 95.2449 141.271 95.1718 141.147L91.5528 135.003ZM91.9312 142.541C91.996 143.005 94.7284 156.439 96.8174 162.393C96.8795 162.594 96.8593 162.812 96.7611 162.998C96.703 163.112 96.6118 163.206 96.4996 163.268C96.4457 163.312 96.3853 163.347 96.3206 163.372L90.736 164.591C90.5832 164.624 90.4254 164.626 90.2718 164.598C90.1181 164.57 89.9715 164.511 89.8404 164.426C89.7093 164.341 89.5962 164.231 89.5077 164.102C89.4192 163.974 89.3569 163.829 89.3245 163.676L85.6732 145.963C85.6358 145.771 85.659 145.571 85.7394 145.392C85.8198 145.213 85.9536 145.064 86.1225 144.964L91.2528 142.193C91.3175 142.161 91.3887 142.144 91.4609 142.144C91.5331 142.144 91.6044 142.16 91.6694 142.191L91.8416 142.283L91.9312 142.541Z"
    fill="white" />
  <path
    d="M114.576 116.783L118.631 114.442C118.879 114.299 119.06 114.063 119.134 113.786C119.208 113.51 119.169 113.215 119.026 112.967C118.883 112.719 118.647 112.538 118.37 112.464C118.094 112.389 117.799 112.428 117.551 112.571L113.497 114.912C113.248 115.055 113.067 115.291 112.993 115.568C112.919 115.845 112.958 116.139 113.101 116.387C113.244 116.635 113.48 116.816 113.757 116.891C114.034 116.965 114.328 116.926 114.576 116.783Z"
    fill="white" />
  <path
    d="M72.6379 126.032L106.663 106.28L107.869 104.236C108.12 103.784 108.49 103.409 108.939 103.153L127.16 92.6325C127.05 92.358 127.048 92.052 127.155 91.7762L104.333 104.952C104.207 105.028 104.065 105.077 103.918 105.093C103.772 105.11 103.623 105.095 103.483 105.05L103.082 104.935C102.937 104.894 102.786 104.883 102.637 104.902C102.488 104.92 102.344 104.969 102.214 105.044C102.084 105.119 101.97 105.219 101.88 105.339C101.789 105.459 101.723 105.595 101.686 105.741L101.589 106.131C101.557 106.279 101.494 106.418 101.403 106.539C101.312 106.66 101.195 106.759 101.061 106.829L93.5526 111.165C93.4227 111.241 93.2787 111.29 93.1294 111.308C92.98 111.327 92.8285 111.315 92.684 111.272L92.2887 111.166C92.1441 111.123 91.9921 111.109 91.842 111.127C91.692 111.144 91.547 111.192 91.4162 111.267C91.2854 111.343 91.1714 111.444 91.0814 111.566C90.9913 111.687 90.927 111.825 90.8925 111.973L90.7956 112.363C90.7587 112.508 90.693 112.645 90.6024 112.765C90.5118 112.885 90.3981 112.986 90.268 113.061L82.7502 117.401C82.6229 117.48 82.4801 117.529 82.3317 117.547C82.1833 117.565 82.0328 117.55 81.8906 117.504L81.4812 117.394C81.3384 117.353 81.1889 117.341 81.0414 117.36C80.894 117.378 80.7517 117.425 80.6231 117.499C80.4945 117.574 80.3821 117.673 80.2927 117.792C80.2034 117.91 80.1388 118.046 80.1029 118.19L79.9781 118.656C79.8997 118.939 79.7129 119.18 79.4581 119.326L75.5292 121.594C74.5447 122.163 73.4525 122.71 73.2008 123.762L72.6379 126.032Z"
    fill="white" />
  <path
    d="M126.655 121.396C126.61 121.35 126.552 121.321 126.488 121.312C126.425 121.303 126.36 121.316 126.305 121.348C126.263 121.369 126.225 121.398 126.195 121.434C126.165 121.47 126.142 121.512 126.128 121.557C126.12 121.594 126.12 121.632 126.128 121.668C126.137 121.704 126.154 121.738 126.177 121.767C133.191 129.782 143.818 134.816 157.343 136.375C157.418 136.39 157.496 136.378 157.562 136.34C157.628 136.301 157.677 136.24 157.701 136.168C157.713 136.136 157.718 136.103 157.715 136.069C157.712 136.036 157.702 136.003 157.685 135.974C157.669 135.945 157.645 135.92 157.618 135.901C157.59 135.882 157.559 135.869 157.526 135.864C141.854 133.253 133.638 129.357 126.655 121.396Z"
    fill="white" />
  <path
    d="M123.22 123.57C123.175 123.527 123.117 123.5 123.055 123.493C122.992 123.486 122.93 123.499 122.875 123.53C122.789 123.577 122.723 123.654 122.689 123.745C122.681 123.782 122.681 123.82 122.69 123.856C122.699 123.892 122.715 123.926 122.739 123.955C134.176 137.089 155.888 139.745 156.797 139.852C156.87 139.866 156.945 139.853 157.009 139.816C157.073 139.779 157.122 139.72 157.146 139.651C157.158 139.619 157.163 139.585 157.16 139.552C157.157 139.519 157.147 139.486 157.13 139.457C157.114 139.428 157.09 139.403 157.063 139.384C157.035 139.365 157.004 139.352 156.971 139.346C141.454 136.694 130.276 131.513 123.22 123.57Z"
    fill="white" />
  <path
    d="M119.404 125.929C119.362 125.881 119.305 125.85 119.243 125.84C119.18 125.83 119.116 125.842 119.062 125.875C119.018 125.898 118.98 125.93 118.949 125.968C118.917 126.007 118.895 126.051 118.881 126.099C118.871 126.133 118.87 126.17 118.878 126.205C118.886 126.24 118.902 126.273 118.926 126.3C129.2 138.101 151.142 142.83 156.267 143.439C156.34 143.453 156.415 143.44 156.479 143.403C156.543 143.366 156.592 143.308 156.616 143.238C156.626 143.206 156.63 143.173 156.626 143.14C156.623 143.107 156.612 143.076 156.596 143.047C156.579 143.018 156.557 142.994 156.53 142.974C156.503 142.954 156.473 142.941 156.441 142.934C140.625 140.239 126.423 133.809 119.404 125.929Z"
    fill="white" />
  <path
    d="M125.686 113.889L110.465 123.572C128.927 146.599 157.463 149.169 161.815 149.163C161.984 149.162 162.147 149.097 162.27 148.982C162.394 148.866 162.469 148.708 162.481 148.539L163.917 132.424C163.923 132.334 163.912 132.244 163.884 132.159C163.855 132.073 163.81 131.994 163.751 131.926C163.692 131.859 163.62 131.803 163.539 131.763C163.458 131.723 163.37 131.7 163.28 131.694C139.927 129.915 128.623 117.778 125.686 113.889ZM157.291 143.29C157.212 143.573 157.026 143.814 156.771 143.96C156.569 144.077 156.336 144.128 156.104 144.107C150.92 143.52 128.764 138.71 118.356 126.76C118.269 126.659 118.207 126.538 118.178 126.407C118.148 126.276 118.151 126.14 118.186 126.011C118.221 125.869 118.285 125.736 118.374 125.62C118.464 125.505 118.577 125.41 118.706 125.341C118.9 125.218 119.129 125.163 119.357 125.184C119.586 125.206 119.801 125.303 119.968 125.46C126.863 133.269 140.966 139.589 156.599 142.258C156.716 142.273 156.828 142.313 156.928 142.375C157.028 142.437 157.113 142.52 157.179 142.617C157.244 142.715 157.288 142.826 157.307 142.942C157.327 143.058 157.321 143.177 157.291 143.29ZM157.826 139.712C157.752 139.962 157.594 140.178 157.378 140.325C157.162 140.471 156.902 140.538 156.643 140.514C155.724 140.412 133.77 137.729 122.169 124.416C122.085 124.312 122.025 124.191 121.996 124.061C121.966 123.931 121.968 123.796 121.999 123.666C122.036 123.523 122.101 123.388 122.191 123.271C122.281 123.153 122.394 123.055 122.523 122.982C122.718 122.859 122.949 122.804 123.179 122.828C123.408 122.851 123.624 122.95 123.79 123.11C130.711 130.963 141.805 136.062 157.138 138.665C157.255 138.682 157.367 138.724 157.467 138.787C157.567 138.851 157.652 138.935 157.717 139.034C157.782 139.133 157.826 139.244 157.844 139.361C157.863 139.478 157.857 139.597 157.826 139.712ZM158.345 136.25C158.311 136.39 158.248 136.522 158.16 136.636C158.072 136.751 157.961 136.846 157.834 136.915C157.635 137.038 157.399 137.089 157.167 137.061C143.456 135.491 132.658 130.388 125.572 122.248C125.486 122.147 125.425 122.027 125.394 121.898C125.363 121.768 125.362 121.634 125.393 121.504C125.43 121.361 125.495 121.226 125.585 121.108C125.675 120.991 125.788 120.893 125.917 120.82C126.113 120.697 126.346 120.643 126.577 120.668C126.807 120.693 127.023 120.794 127.189 120.957C134.139 128.758 142.238 132.554 157.653 135.217C157.77 135.232 157.882 135.272 157.982 135.334C158.082 135.396 158.168 135.479 158.233 135.577C158.299 135.674 158.342 135.785 158.362 135.901C158.381 136.017 158.375 136.136 158.345 136.25Z"
    fill="white" />
  <path
    d="M80.9066 134.277C81.0639 134.545 81.138 134.854 81.1194 135.165C81.1009 135.475 80.9905 135.773 80.8023 136.021C80.6142 136.269 80.3567 136.455 80.0625 136.556C79.7683 136.658 79.4507 136.669 79.1499 136.59C78.8491 136.51 78.5787 136.343 78.373 136.11C78.1673 135.876 78.0355 135.587 77.9944 135.279C77.9533 134.97 78.0047 134.657 78.142 134.378C78.2794 134.098 78.4966 133.866 78.766 133.711C78.9435 133.607 79.1399 133.539 79.3438 133.511C79.5477 133.483 79.7551 133.496 79.9541 133.548C80.153 133.601 80.3396 133.692 80.5031 133.817C80.6666 133.942 80.8037 134.099 80.9066 134.277Z"
    fill="white" />
  <path
    d="M14.4479 173.995C14.12 174.106 13.773 174.15 13.4277 174.123C13.0825 174.097 12.7461 174.002 12.4386 173.842C11.0866 173.111 9.97729 172.002 9.2468 170.649C7.29878 167.275 5.26598 167.888 3.51873 167.859C3.48735 167.858 3.45648 167.867 3.43078 167.885C3.40507 167.903 3.38591 167.929 3.37621 167.959C3.3665 167.988 3.36677 168.021 3.37696 168.05C3.38716 168.08 3.40674 168.106 3.43274 168.123C5.77958 169.811 8.31854 172.617 12.8798 180.807C18.8174 191.484 19.1956 198.712 19.1956 198.712C23.5661 198.014 20.2681 187.961 18.1697 183.934C17.5231 182.754 17.0393 181.492 16.7315 180.182C16.6582 179.842 16.6689 179.49 16.7626 179.155C16.8562 178.82 17.03 178.513 17.269 178.261C17.6857 177.872 17.9452 177.344 17.9982 176.777C18.0512 176.21 17.894 175.642 17.5565 175.183C17.2711 174.642 16.7982 174.222 16.2261 174.003C15.6541 173.785 15.0221 173.782 14.4479 173.995ZM15.9107 178.079C15.626 178.245 15.2982 178.324 14.9688 178.304C14.6395 178.284 14.3235 178.166 14.0611 177.966C13.7988 177.766 13.6018 177.492 13.4952 177.18C13.3887 176.868 13.3774 176.531 13.4628 176.212C13.5482 175.894 13.7264 175.607 13.9748 175.39C14.2232 175.173 14.5306 175.035 14.8579 174.993C15.1851 174.951 15.5175 175.007 15.8127 175.154C16.108 175.301 16.3528 175.533 16.516 175.82C16.7325 176.2 16.7903 176.651 16.677 177.074C16.5638 177.496 16.2884 177.857 15.9107 178.079Z"
    fill="white" />
  <path
    d="M15.4044 177.201C15.7009 177.03 15.8025 176.651 15.6313 176.354C15.4601 176.058 15.0809 175.956 14.7843 176.127C14.4877 176.299 14.3861 176.678 14.5573 176.974C14.7286 177.271 15.1078 177.373 15.4044 177.201Z"
    fill="white" />
  <path
    d="M77.5503 131.584C76.8688 131.985 76.3202 132.577 75.9726 133.287C75.625 133.996 75.4938 134.793 75.5954 135.577L16.7346 172.83C17.5567 173.152 18.2462 173.742 18.6917 174.504C18.9595 174.974 19.1292 175.493 19.1908 176.03L75.2188 140.257L77.8366 138.591C78.42 138.872 79.0636 139.007 79.711 138.983C80.3584 138.958 80.99 138.776 81.5507 138.451C82.4607 137.916 83.1239 137.045 83.397 136.026C83.6702 135.006 83.5315 133.92 83.0108 133.002C82.4494 132.118 81.5735 131.48 80.56 131.217C79.5464 130.954 78.4708 131.085 77.5503 131.584ZM80.8521 137.303C80.4072 137.558 79.8968 137.675 79.3854 137.639C78.8741 137.604 78.3846 137.418 77.9789 137.105C77.5732 136.791 77.2694 136.365 77.1058 135.879C76.9423 135.393 76.9263 134.87 77.0599 134.375C77.1936 133.88 77.4709 133.436 77.8568 133.099C78.2426 132.761 78.7198 132.546 79.2281 132.479C79.7364 132.413 80.2529 132.499 80.7125 132.726C81.1721 132.953 81.5542 133.311 81.8105 133.755C81.9817 134.051 82.0925 134.379 82.1365 134.718C82.1805 135.058 82.1569 135.402 82.067 135.733C81.9771 136.063 81.8226 136.372 81.6126 136.643C81.4025 136.913 81.141 137.139 80.8432 137.308L80.8521 137.303Z"
    fill="white" />
</svg>