<svg width="256" height="256" viewBox="0 0 256 256" fill="none" xmlns="http://www.w3.org/2000/svg">
<path d="M147.389 98.9966L139.974 103.278L141.588 106.074L140.417 110.446L113.878 125.768L113.079 128.159L92.1816 140.224C92.6533 140.638 93.0808 141.1 93.457 141.602L117.403 128.322L121.726 129.315C121.959 128.7 123.935 126.949 125.48 127.397C125.953 127.506 126.398 127.709 126.789 127.995C127.181 128.28 127.51 128.642 127.758 129.058L128.628 123.106L121.22 127.382L115.925 125.763L151.146 105.428L147.389 98.9966Z" fill="white"/>
<path d="M152.781 100.255L150.247 101.719L151.663 104.171L154.197 102.708L152.781 100.255Z" fill="white"/>
<path d="M87.8042 137.759C88.1263 136.299 88.0991 134.783 87.7247 133.336L84.5444 135.172C84.8142 135.769 84.9866 136.405 85.0551 137.057C85.9893 137.215 86.9087 137.45 87.8042 137.759Z" fill="white"/>
<path d="M154.669 103.526L152.135 104.989L153.551 107.442L156.085 105.979L154.669 103.526Z" fill="white"/>
<path d="M150.893 96.985L148.358 98.4482L149.774 100.901L152.309 99.4377L150.893 96.985Z" fill="white"/>
<path d="M89.3271 107.393C89.2407 107.317 89.1329 107.27 89.0186 107.258C88.9043 107.246 88.789 107.269 88.6886 107.325L85.4919 109.171C85.4258 109.209 85.3678 109.26 85.3216 109.321C85.2753 109.382 85.2416 109.451 85.2224 109.525C85.2032 109.599 85.1989 109.676 85.2098 109.752C85.2207 109.828 85.2466 109.9 85.2859 109.966L86.1922 111.536L90.885 108.826L89.3271 107.393Z" fill="white"/>
<path d="M100.869 101.536C100.719 101.275 100.471 101.086 100.181 101.008C99.8907 100.93 99.5815 100.971 99.3213 101.121L96.2308 102.905C95.9706 103.055 95.7808 103.303 95.703 103.593C95.6252 103.883 95.666 104.193 95.8162 104.453L96.477 105.597L101.53 102.68L100.869 101.536Z" fill="white"/>
<path d="M128.819 121.72L129.048 121.588L147.305 111.048L146.394 109.47L118.678 125.472L121.069 126.195L128.819 121.72Z" fill="white"/>
<path d="M112.119 127.383L112.914 124.984L139.411 109.686L140.341 106.217L138.953 103.813L88.6753 132.754C89.1565 134.512 89.1949 136.363 88.7871 138.14C89.6166 138.5 91.2495 139.421 91.2495 139.421L112.119 127.383Z" fill="white"/>
<path d="M151.675 106.421L147.358 108.913L148.265 110.483L152.581 107.991L151.675 106.421Z" fill="white"/>
<path d="M118.496 90.7918C118.419 90.6587 118.293 90.5612 118.145 90.5202C117.997 90.4793 117.838 90.4982 117.704 90.5728L114.499 92.4232C114.401 92.4809 114.323 92.5683 114.278 92.6729C114.233 92.7775 114.222 92.8938 114.247 93.0051L114.701 95.0757L119.402 92.3615L118.496 90.7918Z" fill="white"/>
<path d="M91.4265 153.643C92.397 153.071 93.4053 152.565 94.4443 152.13C95.4626 151.711 96.5182 151.39 97.597 151.171C96.6623 149.269 93.0925 143.067 92.905 142.761C91.8948 141.011 88.1978 139.101 87.4929 138.843C86.6857 138.575 85.8632 138.354 85.0298 138.183C84.9718 138.537 84.8612 138.88 84.7018 139.201C84.2361 140.086 83.5123 140.808 82.6267 141.271C82.2343 141.496 81.8244 141.689 81.4009 141.848C82.1772 142.135 82.9261 142.49 83.6387 142.911C84.927 143.806 86.0822 144.878 87.0697 146.097C87.5134 146.865 87.9335 147.593 88.3347 148.288L89.9019 151.002C90.5092 151.96 90.9781 152.866 91.4265 153.643Z" fill="white"/>
<path d="M219.671 56.0764L219.199 55.2588C219.051 54.9996 218.852 54.7727 218.614 54.5915C218.377 54.4104 218.105 54.2786 217.816 54.204L216.389 53.8287C215.818 53.687 215.215 53.7702 214.703 54.061L201.074 61.9297L200.431 64.3283L203.821 65.271L219.671 56.0764Z" fill="white"/>
<path d="M200.836 65.5775L198.956 66.6632L198.097 65.1752L195.824 66.4874L196.683 67.9754L195.081 68.9006L194.221 67.4126L191.949 68.7248L192.808 70.2128L191.205 71.138L190.346 69.65L188.073 70.9622L188.932 72.4502L187.338 73.3707L186.479 71.8827L184.206 73.1949L185.065 74.6829L183.463 75.6081L182.604 74.1201L180.331 75.4323L181.19 76.9203L179.588 77.8455L178.729 76.3575L176.456 77.6697L177.315 79.1577L175.721 80.0781L174.861 78.5902L172.589 79.9024L173.448 81.3904L171.845 82.3155L170.986 80.8276L168.713 82.1398L169.572 83.6278L167.97 84.5529L167.111 83.065L164.838 84.3772L165.697 85.8652L164.103 86.7856L163.244 85.2976L160.971 86.6099L161.83 88.0978L160.228 89.023L159.368 87.535L157.096 88.8473L157.955 90.3352L156.352 91.2604L155.493 89.7724L153.22 91.0846L154.079 92.5726L152.485 93.4931L151.626 92.0051L133.247 102.616L133.955 103.843L134.649 105.044L202.445 66.0224L200.836 65.5775Z" fill="white"/>
<path d="M97.6444 115.323C96.9286 115.23 96.2044 115.414 95.6198 115.838L95.3827 115.974L91.4271 109.123L86.4563 111.993L91.0397 119.932C91.1811 120.177 91.4141 120.356 91.6874 120.429C91.9607 120.502 92.2519 120.464 92.4969 120.322L99.34 116.371C98.9206 115.828 98.318 115.455 97.6444 115.323Z" fill="white"/>
<path d="M122.555 97.8232L124.945 98.4706C125.355 98.2061 125.795 97.9922 126.256 97.8336L122.523 91.3666L121.018 92.2352L120.473 94.2177L122.555 97.8232Z" fill="white"/>
<path d="M103.4 119.325L110.897 114.996L108.122 110.189L100.615 114.501L103.4 119.325Z" fill="white"/>
<path d="M109.671 111.137L111.649 114.562L126.578 105.943L121.175 104.495L109.671 111.137Z" fill="white"/>
<path d="M208.19 70.7612L206.399 71.7949L207.636 73.937L209.426 72.9032L208.19 70.7612Z" fill="white"/>
<path d="M210.577 69.3833L208.786 70.417L210.023 72.559L211.813 71.5253L210.577 69.3833Z" fill="white"/>
<path d="M212.964 68.0044L211.174 69.0381L212.411 71.1801L214.201 70.1464L212.964 68.0044Z" fill="white"/>
<path d="M205.811 72.1352L204.02 73.1689L205.257 75.311L207.047 74.2772L205.811 72.1352Z" fill="white"/>
<path d="M215.352 66.6264L213.561 67.6602L214.798 69.8022L216.588 68.7685L215.352 66.6264Z" fill="white"/>
<path d="M203.423 73.5131L201.633 74.5469L202.87 76.6889L204.66 75.6552L203.423 73.5131Z" fill="white"/>
<path d="M222.852 61.1518L225.07 64.9944L228.144 63.2196L225.907 59.3443L222.852 61.1518Z" fill="white"/>
<path d="M217.739 65.2485L215.948 66.2822L217.185 68.4243L218.975 67.3905L217.739 65.2485Z" fill="white"/>
<path d="M220.126 63.8696L218.336 64.9033L219.572 67.0454L221.363 66.0116L220.126 63.8696Z" fill="white"/>
<path d="M222.514 62.4917L220.723 63.5254L221.96 65.6674L223.75 64.6337L222.514 62.4917Z" fill="white"/>
<path d="M83.6994 138.711C83.9204 138.138 84.0011 137.521 83.9351 136.91C83.869 136.3 83.658 135.714 83.3196 135.202L83.0506 134.736L83.5166 134.467L84.7747 133.795L83.0943 130.884L80.6089 132.319C80.6089 132.319 78.7541 137.565 79.0606 138.304C79.4988 139.216 80.0053 140.093 80.5758 140.928C81.8588 140.608 82.9741 139.816 83.6994 138.711Z" fill="white"/>
<path d="M26.9599 176.964L24.3845 178.451C24.1502 178.588 23.9552 178.783 23.818 179.018L22.4429 181.828C22.3728 181.961 22.3271 182.106 22.3078 182.255C22.151 183.588 23.5567 185.306 24.1812 185.915L26.0716 187.604L38.67 209.425C38.8553 209.746 39.1604 209.98 39.5184 210.076C39.8763 210.172 40.2577 210.121 40.5786 209.936L45.0425 207.359L46.3784 206.01L41.9734 202.874L26.9599 176.964Z" fill="white"/>
<path d="M132.894 103.42L102.74 120.731L102.5 121.524L90.241 128.329L83.5112 130.645L85.1916 133.555L134.017 105.366L132.894 103.42Z" fill="white"/>
<path d="M128.49 131.798L129.601 131.156C130.251 127.108 132.59 125.703 132.713 125.632L150.699 115.247L149.142 112.549L156.393 108.363L155.841 107.406L129.842 122.416L128.49 131.798Z" fill="white"/>
<path d="M117.583 149.857C118.623 151.262 126.261 147.027 127.338 145.097C128.415 143.167 126.607 138.978 124.376 137.399L126.183 136.356L125.343 134.901L113.079 141.981C113.079 141.981 117.437 149.603 117.583 149.857ZM116.553 143.486C117.217 144.849 118.365 145.916 119.774 146.477C121.782 147.236 123.358 145.302 122.67 145.546C121.983 145.79 120.925 145.998 119.549 144.143C119.187 143.7 118.944 143.171 118.843 142.607C118.743 142.043 118.788 141.462 118.975 140.921C119.085 140.43 119.339 139.983 119.706 139.638C120.764 138.657 123.248 136.917 125.267 139.697C127.073 142.165 126.886 144.05 126.324 144.756C125.442 145.853 121.517 147.76 119.865 148.561C119.673 148.681 119.458 148.758 119.234 148.788C119.01 148.817 118.782 148.798 118.565 148.732C118.349 148.665 118.15 148.553 117.981 148.403C117.812 148.252 117.677 148.067 117.586 147.86L115.375 144.144L116.553 143.486Z" fill="white"/>
<path d="M159.198 96.2456L158.11 96.8734L153.622 99.4648L157.058 105.417L162.634 102.198L161.945 101.004L168.79 97.1502L166 92.3184L159.198 96.2456Z" fill="white"/>
<path d="M170.367 97.6352L172.154 99.0124C172.351 99.0533 172.556 99.0168 172.727 98.9104L174.51 97.8814C174.601 97.8279 174.68 97.754 174.738 97.6654C174.797 97.5768 174.834 97.4759 174.847 97.3705C174.798 96.6565 174.685 95.9484 174.508 95.2549L171.11 89.3684L166.973 91.7568L170.367 97.6352Z" fill="white"/>
<path d="M136.33 140.167L140.186 146.847C140.286 147.005 140.444 147.118 140.626 147.161C140.808 147.205 141 147.176 141.161 147.08L159.147 136.695C159.412 136.543 159.605 136.291 159.684 135.996C159.763 135.701 159.721 135.387 159.569 135.122L157.723 131.925L140.031 142.14C139.893 142.218 139.736 142.256 139.578 142.249C139.419 142.243 139.266 142.191 139.136 142.101L136.33 140.167Z" fill="white"/>
<path d="M187.78 79.743L172.075 88.8105L174.841 93.6015L199.019 79.4786L196.324 74.8103L190.552 78.1428L187.78 79.743Z" fill="white"/>
<path d="M79.4042 158.197C79.227 158.299 79.0843 158.452 78.9945 158.636C78.9046 158.82 78.8717 159.026 78.8999 159.229C78.928 159.432 79.016 159.622 79.1526 159.774C79.2892 159.927 79.4682 160.035 79.6667 160.085C79.8651 160.135 80.074 160.125 80.2667 160.056C80.4594 159.987 80.627 159.862 80.7483 159.697C80.8695 159.532 80.9388 159.335 80.9472 159.13C80.9557 158.926 80.9029 158.723 80.7957 158.549C80.6554 158.32 80.4314 158.156 80.1715 158.09C79.9116 158.024 79.6363 158.063 79.4042 158.197Z" fill="white"/>
<path d="M97.464 174.75C97.6092 174.668 97.7268 174.545 97.8019 174.396C97.8771 174.248 97.9063 174.08 97.886 173.915C97.8656 173.75 97.7966 173.594 97.6877 173.468C97.5787 173.342 97.4348 173.251 97.2741 173.207C97.1135 173.163 96.9434 173.168 96.7854 173.221C96.6274 173.274 96.4887 173.372 96.387 173.504C96.2852 173.636 96.2249 173.795 96.2138 173.961C96.2026 174.128 96.2411 174.293 96.3244 174.438C96.3783 174.533 96.4506 174.617 96.5372 174.685C96.6238 174.753 96.723 174.803 96.829 174.832C96.935 174.861 97.0457 174.868 97.1547 174.854C97.2637 174.84 97.3688 174.805 97.464 174.75Z" fill="white"/>
<path d="M93.1922 173.412C93.1131 173.698 93.1098 174.001 93.1827 174.289C93.2557 174.578 93.4022 174.842 93.6081 175.057L96.3138 177.855C96.6119 178.143 97.0095 178.304 97.4235 178.305L112.49 178.327C112.795 178.328 113.097 178.259 113.371 178.127C113.646 177.995 113.887 177.802 114.077 177.563L114.746 176.72L117.344 177.105C117.565 177.137 117.79 177.081 117.971 176.951C118.152 176.82 118.274 176.624 118.313 176.404L118.918 173.09C118.93 173.05 118.934 173.008 118.93 172.967C118.925 172.925 118.912 172.885 118.891 172.849C118.87 172.813 118.842 172.782 118.809 172.757C118.775 172.732 118.737 172.715 118.696 172.705L94.2957 170.376C94.2262 170.366 94.1553 170.379 94.0944 170.415C94.0336 170.45 93.9864 170.504 93.9605 170.57L93.1922 173.412ZM98.1721 173.371C98.3009 173.594 98.3607 173.85 98.3438 174.107C98.327 174.364 98.2342 174.611 98.0774 174.815C97.9205 175.02 97.7066 175.173 97.4626 175.256C97.2186 175.338 96.9555 175.347 96.7066 175.28C96.4577 175.214 96.2342 175.075 96.0643 174.881C95.8944 174.687 95.7858 174.448 95.7522 174.192C95.7185 173.937 95.7614 173.677 95.8754 173.446C95.9893 173.215 96.1693 173.023 96.3924 172.894C96.6917 172.721 97.0473 172.674 97.381 172.764C97.7147 172.853 97.9993 173.071 98.1721 173.371Z" fill="white"/>
<path d="M53.4383 171.073C53.2969 171.178 53.199 171.331 53.1633 171.504C53.1276 171.676 53.1565 171.856 53.2445 172.008C53.3325 172.161 53.4735 172.275 53.6407 172.331C53.8079 172.386 53.9895 172.378 54.1511 172.308C54.2439 172.267 54.3271 172.208 54.3954 172.133C54.4636 172.059 54.5153 171.971 54.5471 171.874C54.5788 171.778 54.5899 171.677 54.5796 171.576C54.5692 171.476 54.5378 171.378 54.4872 171.291C54.4366 171.203 54.3681 171.127 54.2861 171.068C54.2041 171.009 54.1105 170.967 54.0115 170.947C53.9124 170.926 53.8102 170.927 53.7114 170.949C53.6126 170.97 53.5195 171.013 53.4383 171.073Z" fill="white"/>
<path d="M56.3589 163.01L53.7981 162.766L37.9782 171.899L35.1354 172.243L27.949 176.393L33.8682 186.645L57.4714 173.018L56.3589 163.01ZM54.4814 172.88C54.2372 173.021 53.9567 173.086 53.6754 173.068C53.394 173.049 53.1245 172.948 52.9008 172.776C52.6771 172.605 52.5094 172.37 52.4187 172.104C52.3281 171.837 52.3187 171.549 52.3916 171.276C52.4646 171.004 52.6167 170.759 52.8287 170.574C53.0407 170.388 53.303 170.269 53.5825 170.232C53.8621 170.195 54.1462 170.242 54.3991 170.367C54.6519 170.491 54.8622 170.688 55.0031 170.933C55.1922 171.26 55.2434 171.649 55.1455 172.014C55.0477 172.379 54.8088 172.691 54.4814 172.88Z" fill="white"/>
<path d="M129.195 101.337C129.065 101.115 128.876 100.934 128.649 100.814C128.422 100.694 128.166 100.64 127.91 100.657C127.654 100.675 127.408 100.764 127.199 100.914C126.991 101.064 126.829 101.269 126.731 101.506L129.351 102.174C129.389 101.885 129.335 101.592 129.195 101.337Z" fill="white"/>
<path d="M128.69 103.219C128.919 103.086 129.105 102.888 129.223 102.65L126.644 101.959C126.624 102.222 126.681 102.484 126.807 102.715C126.992 103.03 127.293 103.259 127.645 103.353C127.998 103.448 128.373 103.4 128.69 103.219Z" fill="white"/>
<path d="M99.7045 116.172L100.522 115.7L99.6865 114.253L108.585 109.18L109.393 110.579L121.325 103.624L128.268 105.491L132.65 102.961L130.569 99.3554C130.273 98.8473 129.789 98.4765 129.221 98.3239C128.817 98.2091 128.393 98.1756 127.976 98.2253C127.177 98.3352 126.416 98.6393 125.762 99.111L125.533 99.2432L122.193 98.3482L119.672 93.9824L120.042 92.6025L91.8523 108.878L95.5671 115.312C96.2107 114.895 96.9858 114.731 97.7431 114.852C98.5422 115.024 99.2445 115.496 99.7045 116.172ZM126.167 101.701C126.217 101.434 126.323 101.181 126.479 100.959C126.635 100.738 126.837 100.552 127.071 100.415C127.394 100.229 127.766 100.142 128.139 100.167C128.511 100.191 128.868 100.325 129.165 100.553C129.461 100.78 129.683 101.09 129.803 101.444C129.923 101.797 129.936 102.179 129.839 102.539C129.742 102.9 129.541 103.224 129.26 103.47C128.979 103.716 128.632 103.874 128.262 103.923C127.891 103.971 127.515 103.909 127.18 103.744C126.845 103.579 126.567 103.318 126.38 102.995C126.157 102.603 126.081 102.144 126.167 101.701Z" fill="white"/>
<path d="M152.365 133.972L144.496 120.343L133.369 126.767C132.511 127.441 131.903 128.383 131.643 129.443C131.475 129.971 131.419 130.529 131.478 131.08C131.537 131.631 131.711 132.164 131.987 132.645L135.726 139.12L138.889 141.218C139.019 141.304 139.172 141.352 139.328 141.356C139.484 141.36 139.639 141.32 139.774 141.241L152.365 133.972Z" fill="white"/>
<path d="M152.773 133.736L157.27 131.14L149.401 117.511L144.913 120.103L152.773 133.736Z" fill="white"/>
<path d="M123.584 128.493C123.184 128.679 122.84 128.966 122.585 129.325C122.33 129.684 122.173 130.104 122.129 130.542L117.55 129.502L94.0713 142.534C96.2711 146.136 97.8475 149.074 98.8737 151.022C99.786 150.927 100.707 151.076 101.543 151.454C103.22 152.47 106.474 154.33 101.017 165.383L100.478 169.925L114.636 171.299C114.362 171.109 114.895 160.892 114.895 160.892L116.123 159.507C116.295 159.313 116.405 159.073 116.439 158.816C116.474 158.559 116.431 158.298 116.316 158.066L115.258 156.006C115.258 156.006 115.79 152.058 116.688 150.384L111.59 141.554L126.249 133.091C126.554 132.951 126.825 132.748 127.044 132.495C127.263 132.242 127.425 131.945 127.52 131.624C127.614 131.303 127.639 130.965 127.592 130.633C127.545 130.302 127.427 129.984 127.247 129.702C127.087 129.381 126.865 129.095 126.594 128.861C126.323 128.626 126.008 128.448 125.667 128.335C125.327 128.223 124.967 128.179 124.61 128.206C124.252 128.233 123.903 128.33 123.584 128.493Z" fill="white"/>
<path d="M194.183 71.9906L194.044 72.0709L194.175 73.6745C194.179 73.7589 194.161 73.8429 194.122 73.9176C194.082 73.9923 194.023 74.0548 193.95 74.0982C193.874 74.1401 193.787 74.1599 193.7 74.1555C193.561 74.1351 193.433 74.0657 193.34 73.9597C193.246 73.8537 193.194 73.7181 193.192 73.577L193.129 72.5995L191.592 73.4869L191.722 75.0906C191.727 75.1749 191.708 75.259 191.669 75.3337C191.629 75.4084 191.57 75.4709 191.498 75.5143C191.421 75.5562 191.335 75.576 191.247 75.5716C191.108 75.5511 190.98 75.4817 190.887 75.3758C190.794 75.2698 190.741 75.1341 190.739 74.9931L190.676 74.0156L189.139 74.903L189.269 76.5066C189.274 76.591 189.256 76.6751 189.216 76.7498C189.177 76.8245 189.118 76.8869 189.045 76.9304C188.968 76.9722 188.882 76.9921 188.795 76.9877C188.655 76.9672 188.527 76.8978 188.434 76.7918C188.341 76.6859 188.289 76.5502 188.286 76.4091L188.232 75.427L186.686 76.3191L186.816 77.9227C186.821 78.0071 186.803 78.0912 186.764 78.1659C186.724 78.2406 186.665 78.303 186.592 78.3464C186.516 78.3883 186.429 78.4081 186.342 78.4037C186.202 78.3833 186.075 78.3139 185.981 78.2079C185.888 78.1019 185.836 77.9663 185.834 77.8252L185.779 76.843L184.234 77.7352L184.364 79.3388C184.369 79.4231 184.35 79.5072 184.311 79.5819C184.271 79.6566 184.212 79.7191 184.14 79.7625C184.063 79.8044 183.976 79.8242 183.889 79.8198C183.75 79.7994 183.622 79.73 183.529 79.624C183.436 79.518 183.383 79.3824 183.381 79.2413L183.326 78.2591L181.781 79.1512L181.911 80.7549C181.916 80.8392 181.898 80.9233 181.858 80.998C181.819 81.0727 181.759 81.1352 181.687 81.1786C181.61 81.2205 181.524 81.2403 181.437 81.2359C181.297 81.2154 181.169 81.146 181.076 81.04C180.983 80.9341 180.93 80.7984 180.928 80.6574L180.873 79.6752L179.328 80.5673L179.458 82.1709C179.463 82.2553 179.445 82.3394 179.405 82.4141C179.366 82.4888 179.307 82.5512 179.234 82.5947C179.158 82.6365 179.071 82.6564 178.984 82.652C178.844 82.6315 178.716 82.5621 178.623 82.4561C178.53 82.3501 178.478 82.2145 178.475 82.0734L178.421 81.0912L176.875 81.9834L177.006 83.587C177.01 83.6714 176.992 83.7555 176.953 83.8302C176.913 83.9049 176.854 83.9673 176.781 84.0107C176.705 84.0526 176.618 84.0724 176.531 84.068C176.392 84.0476 176.264 83.9782 176.171 83.8722C176.077 83.7662 176.025 83.6306 176.023 83.4895L175.968 82.5073L174.423 83.3994L174.553 85.0031C174.558 85.0874 174.539 85.1715 174.5 85.2462C174.46 85.3209 174.401 85.3834 174.329 85.4268C174.252 85.4687 174.166 85.4885 174.078 85.4841C173.939 85.4637 173.811 85.3942 173.718 85.2883C173.625 85.1823 173.572 85.0467 173.57 84.9056L173.515 83.9234L171.97 84.8155L172.1 86.4192C172.105 86.5035 172.087 86.5876 172.047 86.6623C172.008 86.737 171.949 86.7995 171.876 86.8429C171.8 86.8847 171.713 86.9046 171.626 86.9002C171.486 86.8797 171.358 86.8103 171.265 86.7043C171.172 86.5984 171.12 86.4627 171.117 86.3217L171.071 85.3347L169.517 86.2316L169.647 87.8352C169.652 87.9196 169.634 88.0037 169.595 88.0784C169.555 88.1531 169.496 88.2155 169.423 88.2589C169.347 88.3008 169.26 88.3207 169.173 88.3163C169.033 88.2958 168.906 88.2264 168.812 88.1204C168.719 88.0144 168.667 87.8788 168.665 87.7377L168.618 86.7508L167.065 87.6477L167.195 89.2513C167.2 89.3357 167.181 89.4198 167.142 89.4945C167.102 89.5692 167.043 89.6316 166.971 89.675C166.894 89.7169 166.807 89.7367 166.72 89.7323C166.581 89.7119 166.453 89.6425 166.36 89.5365C166.267 89.4305 166.214 89.2949 166.212 89.1538L166.165 88.1669L164.612 89.0637L164.742 90.6674C164.747 90.7517 164.729 90.8358 164.689 90.9105C164.65 90.9852 164.59 91.0477 164.518 91.0911C164.441 91.133 164.355 91.1528 164.268 91.1484C164.128 91.128 164 91.0585 163.907 90.9526C163.814 90.8466 163.762 90.711 163.759 90.5699L163.713 89.583L162.159 90.4798L162.289 92.0835C162.294 92.1678 162.276 92.2519 162.236 92.3266C162.197 92.4013 162.138 92.4637 162.065 92.5072C161.989 92.549 161.902 92.5689 161.815 92.5645C161.675 92.544 161.547 92.4746 161.454 92.3686C161.361 92.2627 161.309 92.127 161.306 91.986L161.26 90.999L159.707 91.8959L159.837 93.4995C159.842 93.5839 159.823 93.668 159.784 93.7427C159.744 93.8174 159.685 93.8798 159.612 93.9232C159.536 93.9651 159.449 93.985 159.362 93.9806C159.223 93.9601 159.095 93.8907 159.002 93.7847C158.909 93.6787 158.856 93.5431 158.854 93.402L158.815 92.4104L157.254 93.312L157.384 94.9156C157.389 95 157.371 95.0841 157.331 95.1588C157.291 95.2334 157.232 95.2959 157.16 95.3393C157.083 95.3812 156.997 95.401 156.909 95.3966C156.77 95.3762 156.642 95.3068 156.549 95.2008C156.456 95.0948 156.403 94.9592 156.401 94.8181L156.363 93.8265L151.866 96.4226L153.06 98.4911L196.735 73.2755L202.12 82.7351L208.661 78.9589L208.137 77.9203L220.908 70.5473L221.431 71.5859L224.571 69.7733C225.112 69.5078 225.53 69.0447 225.739 68.4796C225.948 67.9145 225.933 67.2906 225.695 66.7367L224.85 65.2733L202.392 78.2398L200.031 74.1519L222.588 61.1288L220.181 56.9592L194.174 71.9743L194.183 71.9906Z" fill="white"/>
<path d="M81.6333 149.105C82.1255 148.821 82.2941 148.191 82.0099 147.699C81.7258 147.207 81.0965 147.038 80.6043 147.322C80.1121 147.607 79.9435 148.236 80.2276 148.728C80.5118 149.22 81.1411 149.389 81.6333 149.105Z" fill="white"/>
<path d="M86.1189 146.679C84.6375 144.264 81.8593 143.077 79.9775 142.518C78.3028 146.679 72.755 156.989 57.4781 162.91L58.6581 173.62L34.4253 187.611L42.681 201.91L46.9886 204.971L62.2231 189.537C62.2231 189.537 58.6282 179.534 77.049 163.841L80.1145 163.826L90.4345 154.173C89.4061 152.259 87.979 149.693 86.1189 146.679ZM80.7874 160.593C80.4909 160.764 80.1505 160.843 79.8088 160.822C79.4672 160.8 79.1396 160.678 78.8672 160.47C78.5947 160.263 78.3896 159.98 78.2777 159.656C78.1657 159.333 78.1518 158.984 78.2377 158.652C78.3236 158.321 78.5055 158.022 78.7606 157.794C79.0157 157.566 79.3326 157.418 79.6714 157.369C80.0102 157.32 80.356 157.372 80.6651 157.519C80.9743 157.666 81.2331 157.902 81.4091 158.195C81.5263 158.393 81.6032 158.613 81.6354 158.84C81.6676 159.068 81.6545 159.3 81.5967 159.523C81.5389 159.746 81.4377 159.955 81.2988 160.139C81.1599 160.322 80.9861 160.476 80.7874 160.593ZM81.9907 149.706C81.6932 149.877 81.3514 149.957 81.0086 149.935C80.6658 149.912 80.3373 149.788 80.0648 149.579C79.7922 149.37 79.5878 149.085 79.4773 148.76C79.3669 148.434 79.3554 148.083 79.4443 147.752C79.5333 147.42 79.7186 147.122 79.9769 146.895C80.2352 146.669 80.5549 146.524 80.8955 146.479C81.2361 146.434 81.5824 146.491 81.8905 146.643C82.1986 146.795 82.4548 147.035 82.6265 147.333C82.8569 147.732 82.9193 148.206 82.8001 148.651C82.6808 149.096 82.3897 149.475 81.9907 149.706Z" fill="white"/>
</svg>
