<svg width="256" height="256" viewBox="0 0 256 256" fill="none" xmlns="http://www.w3.org/2000/svg">
<path d="M87.7129 165.324L88.5261 153.892C88.5749 153.298 89.1518 152.356 89.7586 152.332L93.966 152.134C94.6067 152.113 95.5809 152.933 95.6024 153.573L95.8804 165.311C95.9146 166.162 95.2395 166.878 94.385 166.925L89.328 166.971C88.3893 167.023 87.6375 166.249 87.7129 165.324Z" fill="white"/>
<path d="M158.4 144.748C157.531 144.412 156.065 143.342 155.246 142.999C155.213 143.301 155.134 143.597 154.972 143.864L145.142 160.436C145.077 160.55 144.971 160.611 144.884 160.705C146.632 161.546 148.004 162.169 148.802 162.514C149.24 162.707 149.756 162.507 149.967 162.081L158.886 145.948C159.115 145.478 158.884 144.926 158.395 144.74L158.4 144.748Z" fill="white"/>
<path d="M99.1577 147.155C99.1577 147.155 100.285 148.202 102.044 148.515L113.824 141.713L114.278 139.634L116.038 138.552C115.134 135.46 112.392 132.275 111.731 131.525L95.566 140.934L99.153 147.147L99.1577 147.155ZM104.823 143.318C104.823 143.318 97.9455 140.681 103.334 137.571L109.157 134.1C109.157 134.1 111.691 136.207 112.08 140.576L101.45 146.713C101.45 146.713 98.5009 144.867 97.7878 141.502C97.6743 140.947 97.9966 140.336 98.7726 140.247C98.7726 140.247 100.844 144.929 104.823 143.318Z" fill="white"/>
<path d="M121.787 105.07L102.136 116.415C101.716 116.657 101.573 117.193 101.815 117.613L103.79 121.034C104.032 121.453 104.568 121.597 104.987 121.354L124.638 110.009C125.058 109.767 125.201 109.231 124.959 108.811L122.984 105.391C122.742 104.971 122.206 104.828 121.787 105.07Z" fill="white"/>
<path d="M189.644 74.1435C189.197 72.747 188.074 69.8791 185.789 67.6933L178.727 71.7705C179.772 73.3549 181.581 76.1859 182.565 78.2301L189.644 74.1435Z" fill="white"/>
<path d="M167.23 77.7441C167.23 77.7441 171.136 81.8134 171.511 84.6122L176.483 81.7417C176.483 81.7417 174.951 76.2037 172.096 74.9349L167.23 77.7441Z" fill="white"/>
<path d="M74.8964 125.175L72.4553 126.584C72.0553 126.815 71.8057 127.231 71.7867 127.688L71.7633 128.214L75.429 126.097L74.8964 125.175Z" fill="white"/>
<path d="M71.735 129.504L71.7376 129.829L73.6059 128.728L73.9359 129.3L75.9606 128.131L77.1231 128.712L78.0516 130.32L90.7713 122.976C90.7713 122.976 91.9847 122.646 92.1346 120.85L90.7818 118.507L71.735 129.504Z" fill="white"/>
<path d="M170.343 84.775C170.075 82.7849 167.388 79.6012 166.374 78.5428L166.18 78.339L132.732 97.6504L136.776 104.655L170.404 85.2401L170.343 84.775Z" fill="white"/>
<path d="M91.8022 117.918L93.3388 120.579L93.3053 120.936C93.1507 122.723 92.1815 123.533 91.6181 123.859C91.4793 123.939 91.3603 123.997 91.2611 124.032L77.6189 131.908L76.2803 129.59L75.9885 129.443L73.4984 130.88L73.1685 130.309L69.9273 132.18L75.7815 142.32L100.568 128.01L100.999 126.324L131.614 108.648L125.67 98.3532L91.7974 117.91L91.8022 117.918ZM100.982 124.842L96.0749 127.675L93.2845 122.842L98.1912 120.009L100.982 124.842ZM125.343 107.12C126.258 108.703 125.691 110.739 124.091 111.663L106.71 121.698C105.11 122.622 103.064 122.095 102.149 120.511L101.447 119.294C100.537 117.719 101.099 115.675 102.699 114.751L120.08 104.716C121.68 103.792 123.727 104.319 124.641 105.903L125.343 107.12Z" fill="white"/>
<path d="M97.8195 121.345L94.6355 123.184L96.4455 126.319L99.6295 124.48L97.8195 121.345Z" fill="white"/>
<path d="M108.355 123.416L112.163 130.013L112.236 130.101C113.028 130.983 115.566 134.002 116.632 137.131L132.955 122.831L132.998 122.773C134.265 120.725 131.764 120.786 131.764 120.786C129.018 117.821 130.294 115.506 130.294 115.506L134.245 113.225L132.19 109.666L108.351 123.429L108.355 123.416ZM120.647 132.169C119.558 132.96 118.019 134.066 116.832 134.687L116.768 134.614C120.118 131.592 126.912 125.58 130.325 122.63L130.388 122.702C127.627 126.386 124.283 129.416 120.647 132.169Z" fill="white"/>
<path d="M102.011 127.078L101.58 128.764L76.1083 143.47L78.0597 146.85C79.9793 145.97 81.5567 145.724 82.834 145.824C82.9976 145.523 83.1937 145.203 83.3244 145.128C83.5856 144.977 85.301 144.988 86.3227 145.193L111.264 130.793L107.342 124L102.011 127.078ZM110.156 130.213L107.356 131.83L104.924 127.617L107.724 126L110.156 130.213Z" fill="white"/>
<path d="M108.976 130.035L107.792 130.719L105.793 128.085L107.695 126.987L108.976 130.035Z" fill="white"/>
<path d="M39.2441 165.537C39.2441 165.537 39.2532 165.478 39.2519 165.457C39.2116 165.066 38.8525 164.784 38.454 164.829C38.2191 164.856 38.0338 165.006 37.9224 165.19L39.2441 165.537Z" fill="white"/>
<path d="M37.8212 165.543C37.8212 165.543 37.8121 165.603 37.8134 165.624C37.8584 166.022 38.2127 166.297 38.6113 166.251C38.8462 166.225 39.0314 166.074 39.1429 165.89L37.8212 165.543Z" fill="white"/>
<path d="M214.042 58.5772C212.499 59.4681 211.35 59.1189 210.932 58.4134C210.776 58.1439 210.72 57.839 210.793 57.5136C211.004 56.5971 212.059 55.9341 212.377 55.7503L219.145 51.8427L218.636 50.961C218.477 50.7045 218.142 50.6148 217.873 50.7703L208.631 56.1061C208.946 57.2739 209.898 59.413 211.392 61.2281L211.822 61.7091L220.982 56.4205C221.334 56.2179 221.446 55.7719 221.243 55.4208L220.81 54.6697L214.025 58.5867L214.042 58.5772Z" fill="white"/>
<path d="M219.521 52.3985L212.769 56.2966C212.511 56.4346 211.305 57.1743 211.236 57.7148C211.219 57.8552 211.248 57.9802 211.333 58.1271C211.531 58.47 212.425 58.7373 213.707 57.9973L220.132 54.2877L220.492 54.0803L219.521 52.3985Z" fill="white"/>
<path d="M207.83 57.3193L205.046 58.9267L204.046 57.1959L189.985 65.2705C192.308 66.9556 193.688 70.0996 194.563 72.37L198.035 70.4088L204.003 66.9632L204.687 68.147C204.998 68.6858 205.68 68.8687 206.219 68.5576L207.428 67.86C207.966 67.5489 208.149 66.8664 207.838 66.3276L206.872 64.6539L207.745 64.1496L207.43 63.6026L210.41 61.8821C209.2 60.371 208.316 58.6712 207.821 57.3241L207.83 57.3193ZM206.435 67.5733C206.035 67.8042 205.532 67.6697 205.302 67.2696C205.071 66.8696 205.205 66.3674 205.605 66.1364C206.005 65.9054 206.512 66.0482 206.738 66.44C206.965 66.8319 206.827 67.347 206.435 67.5733Z" fill="white"/>
<path d="M29.143 164.315C29.1449 164.488 29.1761 164.655 29.2703 164.818C29.5531 165.308 30.1841 165.477 30.674 165.195C30.8373 165.1 30.9512 164.958 31.0394 164.809L29.1558 164.318L29.143 164.315Z" fill="white"/>
<path d="M31.1647 164.291C31.1628 164.118 31.1317 163.951 31.0374 163.788C30.7546 163.298 30.1236 163.129 29.6337 163.411C29.4705 163.506 29.3565 163.648 29.2683 163.797L31.1519 164.288L31.1647 164.291Z" fill="white"/>
<path d="M33.1936 174.931C33.1936 174.931 33.2029 174.947 33.2089 174.976C33.2461 175.04 33.1936 174.931 33.1936 174.931Z" fill="white"/>
<path d="M33.1936 174.931C33.1936 174.931 33.2029 174.947 33.2089 174.976C33.2461 175.04 33.1936 174.931 33.1936 174.931Z" fill="white"/>
<path d="M36.9857 153.595L37.0306 153.71C38.2312 156.544 41.6995 162.608 42.7364 164.404C43.2361 165.269 43.2339 166.359 42.7374 167.233C41.9043 168.694 40.1833 170.842 38.6752 172.736C37.8426 173.782 37.0449 174.776 36.5301 175.487C36.0896 176.101 35.6589 176.523 35.218 176.778C34.6792 177.089 34.096 177.154 33.5805 176.94C32.8063 176.636 32.4345 175.86 32.277 175.417C32.0756 175.087 31.3981 173.933 28.8053 169.366C25.7729 164.02 24.7933 161.701 24.4817 160.803L23.7061 161.251L23.7848 161.575C24.13 162.965 24.9556 164.546 25.5473 165.609C29.6045 172.9 37.3406 186.035 37.3971 186.133C37.4537 186.231 38.0329 187.366 39.0919 188.333L39.3643 188.579L63.0728 174.891C63.1871 174.825 63.2778 174.718 63.3381 174.596L74.1968 149.266C75.3469 148.374 76.3778 147.746 77.3553 147.214L74.843 142.863L74.8674 142.849L70.0455 134.497L36.9809 153.586L36.9857 153.595ZM60.5874 167.4C56.8881 168.534 57.1761 172.275 57.1761 172.275L38.5456 183.032C38.1374 183.267 37.6141 183.134 37.3832 182.734L35.79 179.975C35.625 179.689 35.6456 179.329 35.8444 179.051L40.0553 173.354L41.1491 171.873C61.7838 146.168 66.5826 153.009 66.5826 153.009L60.5792 167.404L60.5874 167.4Z" fill="white"/>
<path d="M33.209 174.976L33.1936 174.931C33.1936 174.931 33.2549 175.037 33.209 174.976C33.3087 175.299 33.9908 177.235 35.6828 174.887C37.1564 172.839 40.5859 168.899 41.832 166.721C42.1487 166.157 42.1586 165.477 41.8381 164.921C40.6267 162.823 37.2844 156.959 36.0791 154.117L25.3923 160.287C25.5857 160.905 26.3985 163.048 29.6996 168.86C32.5281 173.834 33.116 174.834 33.2172 174.971L33.209 174.976ZM36.8325 165.754C36.7582 165.079 37.0943 164.416 37.6903 164.072C37.8944 163.954 38.1139 163.882 38.3441 163.847C39.2872 163.727 40.1379 164.39 40.2402 165.321C40.3146 165.997 39.9784 166.659 39.3825 167.003C39.1784 167.121 38.9588 167.193 38.7239 167.22C37.789 167.335 36.9383 166.673 36.8278 165.746L36.8325 165.754ZM29.1288 162.517C30.1166 161.946 31.3787 162.284 31.949 163.272C32.5193 164.26 32.1812 165.522 31.1933 166.093C30.2055 166.663 28.9435 166.325 28.3731 165.337C27.8028 164.349 28.1409 163.087 29.1288 162.517Z" fill="white"/>
<path d="M97.9706 147.362L97.8496 147.246L94.6585 141.719L86.5026 146.428L86.0579 146.337C85.5616 146.231 84.909 146.194 84.4062 146.191C86.4007 146.911 87.2774 148.43 87.2774 148.43L86.826 153.927L85.4708 170.471C85.4608 170.586 85.522 170.692 85.6182 170.745C93.7633 175.426 102.646 169.035 102.649 169.022C99.0945 165.806 101.376 163.008 101.934 162.164C102.023 162.036 102 161.864 101.9 161.747C99.1324 158.556 101.125 156.143 101.653 155.512C101.724 155.427 101.708 155.306 101.627 155.222C98.3615 152.187 98.8814 149.448 98.8814 149.448L100.228 148.67C98.8945 148.189 98.0645 147.449 97.953 147.35L97.9706 147.362ZM93.9146 167.392L89.6996 167.464C88.727 167.513 87.5636 167.271 87.1465 166.303C87.0673 166.11 87.0547 165.899 87.076 165.691L88.0809 153.725C88.1488 152.956 88.5889 152.266 89.2665 151.875C89.6094 151.677 89.9913 151.566 90.3876 151.555L93.8693 151.438C95.1506 151.395 96.2203 152.4 96.2622 153.66L96.6518 165.006C96.6867 166.009 96.2513 166.707 95.3614 167.221C94.9859 167.438 94.3565 167.366 93.9227 167.387L93.9146 167.392ZM101.436 168.22C100.816 169.504 98.8738 170.08 97.7784 169.069L101.436 168.22ZM97.6507 162.721L101.308 161.872C100.688 163.155 98.7462 163.732 97.6507 162.721ZM97.3684 156.047L101.026 155.199C100.406 156.482 98.4639 157.059 97.3684 156.047Z" fill="white"/>
<path d="M129.282 127.706L125.297 131.193C125.529 131.462 125.719 131.678 125.824 131.803C132.172 139.611 140.526 146.294 150.04 149.782L152.052 146.367C145.15 143.33 139.032 138.579 133.737 133.254C132.114 131.535 130.421 129.791 129.282 127.706Z" fill="white"/>
<path d="M130.839 128.308C136.617 135.488 144.082 141.725 152.6 145.429L154.416 142.334C137.679 132.142 136.224 126.625 134.204 123.372L129.883 127.162C130.285 127.67 130.671 128.111 130.834 128.3L130.839 128.308Z" fill="white"/>
<path d="M128.75 136.721C127.281 135.174 125.747 133.611 124.611 131.795L121.301 134.697C121.659 135.165 121.995 135.559 122.141 135.736C128.626 144.14 137.143 151.426 146.779 155.333L149.495 150.705C141.605 147.804 134.666 142.612 128.75 136.721Z" fill="white"/>
<path d="M125.089 140.881C123.505 139.118 121.86 137.324 120.691 135.224L117.481 138.035C128.92 151.928 143.819 160.068 143.949 160.123L146.233 156.236C138.216 152.983 131.124 147.281 125.084 140.873L125.089 140.881Z" fill="white"/>
<path d="M36.0607 186.948C36.023 186.882 28.1926 173.584 24.1873 166.382C23.4529 165.054 22.666 163.483 22.3147 162.064L18.9266 164.02L19.0052 164.345C19.3505 165.735 20.1761 167.316 20.7678 168.378C24.825 175.669 32.561 188.805 32.6176 188.903C32.6742 189.001 33.2533 190.136 34.3124 191.103L34.5847 191.348L37.9647 189.397C36.7671 188.303 36.1031 187.021 36.0688 186.943L36.0607 186.948ZM34.5414 188.445C33.7495 188.902 32.7321 188.63 32.2749 187.838C31.8177 187.046 32.0903 186.029 32.8822 185.571C33.6741 185.114 34.6915 185.387 35.1487 186.179C35.6059 186.971 35.3333 187.988 34.5414 188.445Z" fill="white"/>
<path d="M34.0226 187.547C34.3202 187.375 34.4221 186.995 34.2503 186.697C34.0785 186.399 33.698 186.297 33.4004 186.469C33.1028 186.641 33.0009 187.022 33.1727 187.319C33.3445 187.617 33.725 187.719 34.0226 187.547Z" fill="white"/>
<path d="M32.0192 189.281C31.9815 189.215 24.2083 175.884 20.1458 168.715C19.3951 167.396 18.5592 165.854 18.0283 164.539L14.877 166.358C14.5341 166.556 14.5865 167.288 14.9965 167.998L28.9783 192.8C29.4025 193.534 30.0289 193.978 30.38 193.776L33.7354 191.838C32.7583 190.617 32.0698 189.349 32.0274 189.276L32.0192 189.281ZM30.353 190.863C29.5611 191.32 28.5437 191.048 28.0865 190.256C27.6293 189.464 27.9019 188.446 28.6938 187.989C29.4857 187.532 30.5031 187.805 30.9603 188.597C31.4175 189.388 31.1449 190.406 30.353 190.863Z" fill="white"/>
<path d="M29.8346 189.965C30.1322 189.793 30.2341 189.412 30.0623 189.115C29.8905 188.817 29.51 188.715 29.2124 188.887C28.9148 189.059 28.8129 189.439 28.9847 189.737C29.1565 190.035 29.537 190.137 29.8346 189.965Z" fill="white"/>
<path d="M196.973 44.9627L192.188 47.7248L189.485 61.5755L126.711 97.8178L135.808 113.575L137.121 113.85L192.49 81.8833C192.49 81.8833 192.531 81.8597 192.555 81.8456L192.362 80.9449L195.815 78.9511C195.815 78.9511 194.163 73.4499 191.505 68.8453C190.652 67.3676 189.392 66.1466 188.184 64.9605L203.403 56.1195L196.964 44.9674L196.973 44.9627ZM144.369 106.531L141.74 108.049C141.74 108.049 140.891 107.973 141.174 107.069L143.746 105.584C143.746 105.584 144.649 105.716 144.361 106.536L144.369 106.531ZM151.667 102.317L149.039 103.835C149.039 103.835 148.189 103.759 148.473 102.855L151.045 101.371C151.045 101.371 151.948 101.502 151.659 102.322L151.667 102.317ZM158.966 98.1034L156.337 99.6211C156.337 99.6211 155.488 99.5454 155.772 98.6414L158.343 97.1566C158.343 97.1566 159.247 97.2883 158.958 98.1081L158.966 98.1034ZM166.265 93.8894L163.636 95.4072C163.636 95.4072 162.787 95.3315 163.07 94.4275L165.642 92.9428C165.642 92.9428 166.545 93.0744 166.257 93.8942L166.265 93.8894ZM173.564 89.6755L170.935 91.1933C170.935 91.1933 170.085 91.1176 170.369 90.2136L172.941 88.7288C172.941 88.7288 173.844 88.8605 173.555 89.6803L173.564 89.6755ZM180.862 85.4616L178.233 86.9794C178.233 86.9794 177.384 86.9037 177.668 85.9997L180.239 84.5149C180.239 84.5149 181.143 84.6466 180.854 85.4664L180.862 85.4616ZM188.161 81.2477L185.532 82.7655C185.532 82.7655 184.683 82.6898 184.966 81.7858L187.538 80.301C187.538 80.301 188.441 80.4327 188.153 81.2525L188.161 81.2477ZM191.245 75.5594L136.774 107.008L131.419 97.7337C131.259 97.4562 131.36 97.1037 131.638 96.9435L171.854 73.7246L172.026 73.6256L172.156 73.6812C172.321 73.6839 172.451 73.7395 172.564 73.8594L172.572 73.8547C174.945 74.9117 176.602 78.0263 177.408 79.8363C177.565 80.2028 177.697 80.5834 177.801 80.97L181.491 78.8395C180.54 76.4384 177.061 71.3932 177.061 71.3932L185.928 66.2743C189.675 69.1832 191.253 75.5547 191.253 75.5547L191.245 75.5594ZM196.146 57.0113C196.146 57.0113 192.329 60.4122 192.926 57.4115L193.775 50.662L196.945 49.0062C196.945 49.0062 197.348 49.7422 196.141 57.0031L196.146 57.0113Z" fill="white"/>
<path d="M179.342 62.8052L180.106 64.1278L87.5568 117.408L86.0581 116.434L79.0691 118.771L76.6276 114.825L73.8682 113.816L72.1538 114.806L77.3292 123.771L76.0719 124.496L76.6046 125.419L186.142 62.1774L184.714 59.7037L179.342 62.8052ZM75.4732 117.124C74.9507 117.426 74.281 117.247 73.9794 116.724C73.6777 116.202 73.8571 115.532 74.3796 115.23C74.9021 114.929 75.5718 115.108 75.8735 115.631C76.1751 116.153 75.9957 116.823 75.4732 117.124Z" fill="white"/>
<path d="M75.5363 116.14C75.5266 116.048 75.5086 115.96 75.4568 115.87C75.2871 115.576 74.9089 115.468 74.6069 115.643C74.5252 115.69 74.4577 115.761 74.4031 115.836L75.5235 116.137L75.5363 116.14Z" fill="white"/>
<path d="M74.3079 116.218C74.3176 116.31 74.3356 116.398 74.3874 116.488C74.5571 116.782 74.9353 116.89 75.2373 116.715C75.319 116.668 75.3865 116.597 75.4411 116.522L74.3208 116.221L74.3079 116.218Z" fill="white"/>
</svg>
