<svg width="256" height="256" viewBox="0 0 256 256" fill="none" xmlns="http://www.w3.org/2000/svg">
<path d="M70.9416 157.389C72.1177 156.66 73.2322 155.837 74.2739 154.927C75.0006 154.283 75.4838 153.41 75.6424 152.453C75.8011 151.495 75.6254 150.513 75.1451 149.67L74.3911 148.364L70.469 146.332L68.6654 148.05C68.5342 148.169 68.4436 148.327 68.4062 148.5C68.3689 148.674 68.3865 148.855 68.4568 149.018C69.2319 150.739 69.4826 152.65 69.1777 154.512L70.9416 157.389Z" fill="white"/>
<path d="M79.3895 161.069L75.7387 154.746C75.5232 155.071 75.2679 155.369 74.9785 155.631C73.8795 156.593 72.7039 157.463 71.4634 158.233L75.6865 165.131L76.6454 162.447L79.3895 161.069Z" fill="white"/>
<path d="M68.4213 155.167L63.3191 158.651L70.014 169.632L75.2362 166.296L68.4213 155.167Z" fill="white"/>
<path d="M100.901 146.839C100.809 146.646 100.678 146.474 100.517 146.334C100.355 146.194 100.167 146.089 99.9628 146.025C99.7588 145.962 99.5439 145.941 99.3315 145.965C99.1192 145.989 98.914 146.056 98.729 146.163C98.5439 146.27 98.383 146.414 98.2563 146.586C98.1297 146.758 98.04 146.954 97.993 147.163C97.946 147.371 97.9427 147.587 97.9833 147.797C98.0238 148.007 98.1074 148.206 98.2287 148.382C98.429 148.724 98.7534 148.977 99.1348 149.087C99.5161 149.197 99.9253 149.157 100.278 148.974C100.461 148.877 100.623 148.745 100.755 148.584C100.886 148.423 100.984 148.238 101.042 148.039C101.1 147.839 101.117 147.63 101.093 147.424C101.069 147.218 101.003 147.019 100.901 146.839Z" fill="white"/>
<path d="M76.6123 150.862C76.7726 151.827 76.6629 152.818 76.2952 153.725L80.2635 160.598L83.4262 159.013L82.295 152.014L76.6123 150.862Z" fill="white"/>
<path d="M137.545 113.127L135.922 114.064L136.328 114.769L137.952 113.831L137.545 113.127Z" fill="white"/>
<path d="M193.264 75.0699L197.31 72.7335L194.046 67.0803L192.049 66.5379L188.51 68.5816L187.849 71.048L189.605 74.0894L193.264 75.0699Z" fill="white"/>
<path d="M81.8323 146.232L124.489 121.604L127.356 116.49L126.309 114.677L79.0299 141.974L77.6115 144.259L81.8323 146.232Z" fill="white"/>
<path d="M145.25 103.375L148.722 109.389L189.446 85.8772L185.973 79.8631L145.25 103.375ZM151.24 103.353C151.214 103.412 151.17 103.462 151.115 103.494C151.059 103.526 150.994 103.54 150.93 103.532L148.749 103.027C148.719 103.022 148.691 103.01 148.666 102.993C148.642 102.975 148.621 102.953 148.606 102.926C148.591 102.9 148.582 102.871 148.579 102.841C148.576 102.811 148.58 102.781 148.59 102.752C148.597 102.721 148.611 102.691 148.631 102.665C148.65 102.638 148.675 102.617 148.703 102.6C148.731 102.584 148.762 102.574 148.795 102.57C148.827 102.566 148.86 102.569 148.891 102.579L151.076 103.07C151.132 103.088 151.178 103.126 151.208 103.177C151.237 103.228 151.247 103.287 151.235 103.345L151.24 103.353ZM153.177 105.797C153.151 105.814 153.122 105.825 153.091 105.831C153.06 105.836 153.028 105.835 152.998 105.828C152.967 105.822 152.938 105.809 152.913 105.791C152.887 105.773 152.865 105.75 152.849 105.723L151.772 103.859C151.739 103.802 151.73 103.734 151.747 103.671C151.764 103.607 151.806 103.553 151.863 103.52C151.92 103.487 151.988 103.478 152.051 103.496C152.115 103.513 152.169 103.554 152.202 103.611L153.278 105.475C153.299 105.53 153.298 105.591 153.277 105.645C153.256 105.7 153.215 105.745 153.163 105.771L153.177 105.797ZM152.967 100.592L152.305 102.738C152.281 102.798 152.237 102.848 152.18 102.879C152.127 102.91 152.065 102.921 152.004 102.912C151.974 102.906 151.945 102.893 151.92 102.875C151.895 102.857 151.874 102.834 151.858 102.807C151.843 102.78 151.833 102.75 151.83 102.72C151.827 102.689 151.831 102.658 151.841 102.628L152.499 100.495C152.518 100.431 152.56 100.377 152.618 100.344C152.676 100.311 152.744 100.301 152.808 100.317C152.837 100.323 152.863 100.335 152.887 100.352C152.91 100.369 152.93 100.391 152.944 100.416C152.959 100.441 152.968 100.469 152.971 100.498C152.974 100.526 152.971 100.555 152.962 100.583L152.967 100.592ZM157.978 101.135L157.355 103.351C157.347 103.382 157.332 103.412 157.311 103.438C157.29 103.464 157.265 103.485 157.235 103.5C157.208 103.516 157.179 103.527 157.147 103.531C157.116 103.535 157.085 103.533 157.055 103.524C157.024 103.518 156.995 103.506 156.97 103.488C156.945 103.469 156.924 103.446 156.909 103.419C156.893 103.393 156.884 103.363 156.881 103.332C156.877 103.301 156.881 103.27 156.891 103.241L157.549 101.108C157.57 101.045 157.613 100.992 157.67 100.959C157.727 100.926 157.794 100.916 157.859 100.929C157.904 100.95 157.942 100.984 157.967 101.027C157.992 101.07 158.003 101.12 157.998 101.17L157.978 101.135ZM157.937 100.231C157.91 100.248 157.881 100.259 157.85 100.265C157.819 100.27 157.788 100.269 157.757 100.263C157.727 100.256 157.698 100.243 157.672 100.225C157.647 100.207 157.625 100.184 157.608 100.158L156.532 98.2932C156.499 98.2362 156.49 98.1685 156.507 98.105C156.524 98.0415 156.565 97.9873 156.622 97.9544C156.679 97.9215 156.747 97.9126 156.811 97.9296C156.874 97.9466 156.928 97.9882 156.961 98.0452L158.038 99.9095C158.059 99.9372 158.073 99.9692 158.081 100.003C158.088 100.037 158.088 100.072 158.08 100.106C158.073 100.14 158.057 100.172 158.036 100.2C158.015 100.227 157.988 100.25 157.957 100.266L157.937 100.231ZM161.228 101.011C161.22 101.043 161.205 101.073 161.184 101.099C161.163 101.124 161.138 101.146 161.108 101.161C161.09 101.19 161.067 101.215 161.039 101.235C161.011 101.255 160.98 101.27 160.946 101.277L158.77 100.781C158.74 100.775 158.711 100.763 158.686 100.744C158.661 100.726 158.64 100.703 158.624 100.676C158.609 100.65 158.599 100.62 158.596 100.589C158.593 100.558 158.596 100.527 158.606 100.498C158.626 100.436 158.667 100.385 158.723 100.353C158.779 100.321 158.844 100.31 158.907 100.324L161.092 100.815C161.123 100.819 161.152 100.83 161.179 100.847C161.205 100.863 161.227 100.885 161.244 100.911C161.262 100.937 161.273 100.966 161.278 100.997C161.283 101.027 161.281 101.059 161.273 101.089L161.228 101.011ZM163.263 96.4002C163.237 96.4594 163.194 96.5089 163.138 96.5411C163.082 96.5733 163.017 96.5865 162.953 96.5788L160.772 96.0741C160.742 96.0687 160.714 96.0569 160.689 96.0395C160.665 96.0221 160.644 95.9995 160.629 95.9734C160.614 95.9472 160.605 95.9181 160.602 95.888C160.599 95.858 160.603 95.8277 160.613 95.7992C160.621 95.7675 160.634 95.7377 160.654 95.7116C160.673 95.6855 160.698 95.6636 160.726 95.6473C160.754 95.6311 160.785 95.6207 160.818 95.617C160.85 95.6133 160.883 95.6162 160.914 95.6256L163.099 96.1167C163.157 96.1341 163.207 96.1731 163.237 96.2259C163.268 96.2786 163.277 96.341 163.263 96.4002ZM165.201 98.844C165.174 98.8608 165.145 98.8722 165.114 98.8776C165.083 98.883 165.051 98.8822 165.021 98.8754C164.99 98.8686 164.961 98.8558 164.936 98.8378C164.91 98.8197 164.888 98.7969 164.872 98.7704L163.795 96.9061C163.762 96.8491 163.754 96.7814 163.771 96.7178C163.788 96.6543 163.829 96.6001 163.886 96.5673C163.943 96.5344 164.011 96.5255 164.074 96.5425C164.138 96.5595 164.192 96.6011 164.225 96.658L165.301 98.5224C165.325 98.5777 165.326 98.6399 165.306 98.6963C165.285 98.7528 165.244 98.7994 165.191 98.8268L165.201 98.844ZM164.99 93.6386L164.328 95.7851C164.304 95.8452 164.26 95.895 164.203 95.926C164.15 95.9567 164.088 95.9683 164.027 95.9588C163.997 95.9526 163.968 95.9401 163.943 95.922C163.918 95.904 163.897 95.8808 163.882 95.8539C163.866 95.8271 163.856 95.7973 163.853 95.7665C163.85 95.7357 163.854 95.7046 163.864 95.6752L164.522 93.5423C164.541 93.4784 164.583 93.4241 164.641 93.3908C164.699 93.3575 164.767 93.3478 164.832 93.3637C164.861 93.3691 164.89 93.381 164.914 93.3984C164.939 93.4158 164.959 93.4383 164.975 93.4645C164.99 93.4906 164.999 93.5197 165.002 93.5498C165.004 93.5799 165.001 93.6102 164.99 93.6386ZM170.001 94.1824L169.383 96.4062C169.375 96.438 169.36 96.4678 169.339 96.4935C169.318 96.5192 169.293 96.5404 169.263 96.5556C169.237 96.5719 169.207 96.5824 169.176 96.5866C169.144 96.5907 169.113 96.5884 169.083 96.5798C169.052 96.5737 169.024 96.5612 168.998 96.5431C168.973 96.525 168.952 96.5018 168.937 96.475C168.921 96.4482 168.912 96.4184 168.909 96.3876C168.906 96.3567 168.909 96.3256 168.919 96.2963L169.578 94.1633C169.598 94.1007 169.641 94.0479 169.698 94.015C169.755 93.982 169.822 93.9713 169.887 93.9848C169.932 94.0053 169.97 94.0395 169.995 94.0827C170.02 94.1258 170.031 94.1757 170.026 94.2253L170.001 94.1824ZM169.96 93.2781C169.934 93.2949 169.904 93.3063 169.873 93.3117C169.842 93.3171 169.811 93.3163 169.78 93.3095C169.75 93.3027 169.721 93.2899 169.695 93.2719C169.67 93.2538 169.648 93.231 169.631 93.2045L168.555 91.3402C168.522 91.2832 168.513 91.2155 168.53 91.152C168.547 91.0884 168.589 91.0343 168.646 91.0014C168.703 90.9685 168.77 90.9596 168.834 90.9766C168.897 90.9936 168.951 91.0352 168.984 91.0921L170.061 92.9565C170.084 92.984 170.1 93.0164 170.109 93.0511C170.117 93.0858 170.118 93.122 170.111 93.1571C170.103 93.1921 170.088 93.225 170.066 93.2534C170.045 93.2818 170.017 93.3049 169.985 93.3211L169.96 93.2781ZM173.251 94.0584C173.243 94.0902 173.228 94.12 173.207 94.1457C173.187 94.1714 173.161 94.1926 173.132 94.2078C173.115 94.2381 173.093 94.2647 173.066 94.2862C173.039 94.3076 173.008 94.3235 172.975 94.3328L170.798 93.8367C170.768 93.8306 170.739 93.8181 170.714 93.8C170.689 93.7819 170.668 93.7587 170.652 93.7319C170.637 93.7051 170.627 93.6753 170.624 93.6445C170.621 93.6137 170.625 93.5826 170.634 93.5532C170.654 93.492 170.696 93.4403 170.751 93.4082C170.807 93.3761 170.872 93.3659 170.935 93.3796L173.12 93.8707C173.151 93.8749 173.18 93.8856 173.207 93.9022C173.233 93.9187 173.255 93.9407 173.273 93.9665C173.29 93.9924 173.301 94.0217 173.306 94.0523C173.311 94.083 173.309 94.1143 173.301 94.1443L173.251 94.0584ZM175.286 89.4472C175.261 89.5064 175.217 89.5558 175.161 89.588C175.105 89.6202 175.041 89.6335 174.977 89.6258L172.795 89.1211C172.765 89.1157 172.737 89.1039 172.713 89.0865C172.688 89.0691 172.667 89.0465 172.652 89.0203C172.637 88.9942 172.628 88.9651 172.625 88.935C172.622 88.9049 172.626 88.8746 172.636 88.8462C172.644 88.8145 172.658 88.7847 172.677 88.7586C172.696 88.7324 172.721 88.7106 172.749 88.6943C172.777 88.678 172.809 88.6677 172.841 88.664C172.873 88.6602 172.906 88.6632 172.937 88.6726L175.122 89.1637C175.152 89.1717 175.181 89.1857 175.206 89.2047C175.231 89.2238 175.252 89.2476 175.267 89.2747C175.283 89.3018 175.293 89.3318 175.297 89.3629C175.301 89.394 175.299 89.4255 175.291 89.4558L175.286 89.4472ZM177.224 91.891C177.197 91.9078 177.168 91.9192 177.137 91.9246C177.106 91.9299 177.075 91.9292 177.044 91.9224C177.014 91.9155 176.985 91.9027 176.959 91.8847C176.933 91.8667 176.912 91.8438 176.895 91.8174L175.819 89.953C175.786 89.896 175.777 89.8283 175.794 89.7648C175.811 89.7013 175.852 89.6471 175.909 89.6142C175.966 89.5813 176.034 89.5724 176.097 89.5894C176.161 89.6065 176.215 89.648 176.248 89.705L177.324 91.5694C177.351 91.6251 177.354 91.6888 177.335 91.7472C177.315 91.8055 177.274 91.854 177.219 91.8824L177.224 91.891ZM177.014 86.6856L176.351 88.8321C176.327 88.8922 176.283 88.942 176.226 88.9729C176.173 89.0037 176.111 89.0153 176.051 89.0057C176.02 88.9996 175.991 88.9871 175.966 88.969C175.941 88.9509 175.92 88.9277 175.905 88.9009C175.889 88.8741 175.88 88.8443 175.877 88.8135C175.873 88.7827 175.877 88.7515 175.887 88.7222L176.546 86.5892C176.564 86.5253 176.607 86.471 176.664 86.4378C176.722 86.4045 176.79 86.3948 176.855 86.4107C176.886 86.4152 176.916 86.4267 176.942 86.4444C176.968 86.462 176.99 86.4854 177.005 86.5127C177.021 86.54 177.031 86.5705 177.033 86.6019C177.035 86.6334 177.03 86.6649 177.019 86.6942L177.014 86.6856ZM182.024 87.2293L181.411 89.4617C181.403 89.4936 181.388 89.5233 181.367 89.5491C181.347 89.5748 181.321 89.5959 181.292 89.6112C181.265 89.6274 181.235 89.638 181.204 89.6421C181.173 89.6463 181.141 89.644 181.111 89.6354C181.08 89.6292 181.052 89.6167 181.027 89.5986C181.001 89.5806 180.98 89.5574 180.965 89.5305C180.949 89.5037 180.94 89.4739 180.937 89.4431C180.934 89.4123 180.937 89.3812 180.947 89.3518L181.606 87.2189C181.626 87.1563 181.669 87.1035 181.726 87.0705C181.783 87.0376 181.851 87.0268 181.915 87.0403C181.96 87.0608 181.998 87.0951 182.023 87.1382C182.048 87.1814 182.059 87.2313 182.054 87.2809L182.024 87.2293ZM181.983 86.3251C181.957 86.3419 181.927 86.3533 181.897 86.3587C181.866 86.3641 181.834 86.3633 181.804 86.3565C181.773 86.3496 181.744 86.3368 181.718 86.3188C181.693 86.3008 181.671 86.2779 181.654 86.2515L180.578 84.3871C180.545 84.3302 180.536 84.2625 180.553 84.1989C180.57 84.1354 180.612 84.0812 180.669 84.0483C180.726 84.0154 180.793 84.0065 180.857 84.0235C180.92 84.0406 180.975 84.0821 181.008 84.1391L182.084 86.0035C182.109 86.0308 182.127 86.0634 182.137 86.0988C182.147 86.1343 182.148 86.1715 182.141 86.2077C182.134 86.2439 182.119 86.2779 182.097 86.3072C182.075 86.3366 182.046 86.3603 182.013 86.3766L181.983 86.3251ZM185.275 87.1053C185.266 87.1372 185.251 87.1669 185.23 87.1926C185.21 87.2184 185.184 87.2395 185.155 87.2548C185.14 87.2861 185.118 87.3141 185.092 87.3371C185.066 87.36 185.036 87.3775 185.003 87.3883L182.826 86.8923C182.796 86.8862 182.767 86.8736 182.742 86.8556C182.717 86.8375 182.696 86.8143 182.68 86.7875C182.665 86.7607 182.655 86.7308 182.652 86.7C182.649 86.6692 182.653 86.6381 182.663 86.6088C182.682 86.5476 182.724 86.4959 182.779 86.4638C182.835 86.4317 182.9 86.4215 182.963 86.4352L185.148 86.9262C185.179 86.9305 185.209 86.9412 185.235 86.9577C185.261 86.9743 185.284 86.9962 185.301 87.0221C185.318 87.048 185.329 87.0772 185.334 87.1079C185.339 87.1385 185.337 87.1699 185.329 87.1998L185.275 87.1053Z" fill="white"/>
<path d="M83.302 151.833L84.0259 156.341L97.2827 148.687C97.0891 148.259 97.0186 147.785 97.0793 147.319C97.1399 146.853 97.3292 146.413 97.626 146.048C97.9227 145.684 98.3152 145.409 98.7593 145.255C99.2034 145.101 99.6816 145.074 100.14 145.177C100.599 145.279 101.02 145.508 101.356 145.836C101.692 146.165 101.93 146.581 102.043 147.037C102.156 147.493 102.14 147.972 101.996 148.42C101.853 148.867 101.587 149.266 101.229 149.571L101.502 150.043L112.533 143.674L112.805 142.795C112.348 142.948 111.861 142.987 111.385 142.91C110.91 142.832 110.46 142.641 110.075 142.351C109.689 142.062 109.38 141.683 109.174 141.247C108.967 140.812 108.87 140.333 108.889 139.851C108.909 139.37 109.045 138.9 109.286 138.483C109.528 138.066 109.866 137.713 110.274 137.456C110.681 137.199 111.145 137.044 111.625 137.006C112.106 136.967 112.588 137.046 113.031 137.235L114.984 133.335L83.302 151.833Z" fill="white"/>
<path d="M136.201 110.799L134.577 111.736L135.004 112.475L136.628 111.538L136.201 110.799Z" fill="white"/>
<path d="M135.469 115.265L132.925 110.858L127.168 114.181L128.498 116.483L126.173 120.632L135.469 115.265Z" fill="white"/>
<path d="M136.876 111.967L135.252 112.904L135.679 113.643L137.302 112.706L136.876 111.967Z" fill="white"/>
<path d="M135.407 109.424L133.784 110.361L134.329 111.306L135.953 110.369L135.407 109.424Z" fill="white"/>
<path d="M154.659 113.385C154.793 113.284 154.886 113.138 154.919 112.974C154.953 112.81 154.925 112.64 154.841 112.495C154.758 112.35 154.624 112.241 154.465 112.188C154.306 112.135 154.134 112.142 153.98 112.208C153.846 112.308 153.754 112.454 153.72 112.618C153.687 112.782 153.714 112.952 153.798 113.097C153.882 113.242 154.016 113.351 154.174 113.404C154.333 113.457 154.506 113.45 154.659 113.385Z" fill="white"/>
<path d="M110.842 138.224C110.502 138.42 110.228 138.713 110.054 139.065C109.881 139.416 109.816 139.812 109.867 140.201C109.918 140.59 110.083 140.955 110.342 141.25C110.601 141.545 110.941 141.757 111.32 141.859C111.699 141.96 112.1 141.947 112.472 141.821C112.843 141.695 113.169 141.461 113.408 141.15C113.647 140.839 113.788 140.463 113.814 140.072C113.839 139.68 113.748 139.29 113.552 138.95C113.289 138.494 112.856 138.162 112.347 138.026C111.839 137.889 111.298 137.961 110.842 138.224Z" fill="white"/>
<path d="M159.385 110.656C159.504 110.589 159.6 110.489 159.662 110.368C159.723 110.246 159.747 110.109 159.73 109.974C159.714 109.839 159.657 109.711 159.567 109.609C159.478 109.506 159.36 109.432 159.228 109.397C159.097 109.362 158.958 109.367 158.829 109.411C158.7 109.455 158.587 109.537 158.505 109.645C158.423 109.754 158.375 109.885 158.368 110.021C158.36 110.157 158.393 110.292 158.463 110.409C158.554 110.562 158.702 110.673 158.874 110.719C159.046 110.765 159.229 110.743 159.385 110.656Z" fill="white"/>
<path d="M154.317 118.485L163.245 133.95L168.795 130.746C168.906 130.68 169.002 130.592 169.075 130.486C169.149 130.38 169.198 130.26 169.221 130.134L170.05 125.141L163.24 113.345L154.322 118.494L154.317 118.485Z" fill="white"/>
<path d="M162.362 106.051L160.833 106.934L161.666 108.377L163.195 107.494L162.362 106.051Z" fill="white"/>
<path d="M213.602 68.2538L201.325 75.3421L203.235 78.6498L194.918 83.4514L192.11 78.5886L187.385 81.3168L190.376 86.4975L148.793 110.505L140.081 115.535L142.393 119.539L151.208 114.45L149.864 112.121L159.898 106.328L160.337 106.075L202.237 81.8831L201.409 80.4484L215.834 72.12L213.602 68.2538Z" fill="white"/>
<path d="M158.644 113.123L156.427 114.402L157.419 116.121L159.636 114.841L158.644 113.123Z" fill="white"/>
<path d="M153.318 115.625L161.635 110.824C161.693 110.79 161.735 110.736 161.754 110.672C161.772 110.608 161.765 110.539 161.734 110.48L159.973 107.43L151.219 112.484L152.979 115.534C153.012 115.591 153.066 115.633 153.13 115.65C153.194 115.667 153.261 115.658 153.318 115.625ZM158.457 109.05C158.659 108.931 158.891 108.875 159.124 108.889C159.358 108.902 159.582 108.985 159.769 109.126C159.955 109.267 160.095 109.461 160.172 109.682C160.248 109.903 160.257 110.142 160.198 110.368C160.138 110.594 160.013 110.797 159.837 110.952C159.662 111.107 159.444 111.206 159.213 111.237C158.981 111.268 158.745 111.23 158.535 111.127C158.325 111.023 158.151 110.86 158.034 110.657C157.878 110.388 157.835 110.068 157.914 109.766C157.994 109.465 158.189 109.208 158.457 109.05ZM153.732 111.778C153.933 111.659 154.166 111.603 154.399 111.617C154.633 111.63 154.857 111.713 155.043 111.854C155.23 111.995 155.37 112.189 155.446 112.41C155.523 112.631 155.532 112.87 155.472 113.096C155.413 113.322 155.287 113.526 155.112 113.68C154.936 113.835 154.719 113.934 154.487 113.965C154.255 113.996 154.02 113.958 153.81 113.855C153.6 113.751 153.425 113.588 153.308 113.386C153.23 113.252 153.179 113.105 153.157 112.952C153.136 112.799 153.146 112.643 153.185 112.494C153.224 112.344 153.293 112.204 153.387 112.081C153.481 111.958 153.598 111.855 153.732 111.778Z" fill="white"/>
<path d="M168.522 102.494L166.898 103.432L167.732 104.875L169.355 103.938L168.522 102.494Z" fill="white"/>
<path d="M166.469 103.68L164.845 104.617L165.678 106.061L167.302 105.123L166.469 103.68Z" fill="white"/>
<path d="M155.981 114.661L154.348 115.604L155.34 117.322L156.973 116.379L155.981 114.661Z" fill="white"/>
<path d="M170.584 101.304L168.96 102.241L169.794 103.685L171.417 102.747L170.584 101.304Z" fill="white"/>
<path d="M160.809 111.873L159.091 112.865L160.083 114.584L161.801 113.591L160.809 111.873Z" fill="white"/>
<path d="M164.415 104.865L162.792 105.803L163.625 107.246L165.249 106.309L164.415 104.865Z" fill="white"/>
<path d="M138.44 114.696L81.8817 147.35L77.0851 145.113L75.3112 147.993L75.9957 149.179C76.108 149.382 76.2067 149.593 76.2914 149.81L82.574 151.108L115.806 131.704L140.146 117.651L138.44 114.696Z" fill="white"/>
<path d="M38.768 205.611L26.3728 191.186L27.0131 188.525L24.4659 185.482C23.3731 185.673 22.3398 186.116 21.4481 186.776C20.5564 187.436 19.831 188.294 19.3294 189.284L22.1503 193.555L22.3553 193.711L24.8211 194.51C24.9367 194.543 25.0425 194.604 25.1295 194.687C26.9125 196.327 34.2629 205.566 36.7796 208.397C37.8287 209.633 39.0059 210.755 40.2916 211.742C42.0533 210.937 43.4475 209.498 44.1965 207.712C43.8006 206.876 43.3165 206.084 42.7525 205.35L38.768 205.611Z" fill="white"/>
<path d="M74.5637 147.313L78.0236 141.718L74.3967 138.829L70.9559 139.04L68.9239 141.989L70.908 145.426L74.5637 147.313Z" fill="white"/>
<path d="M27.4781 187.684L64.5996 162.654L62.4998 159.216L60.5737 160.523L61.1838 161.579L25.4097 185.212L27.4781 187.684Z" fill="white"/>
<path d="M91.1561 122.738L92.2816 122.089L87.9512 114.588C87.7233 114.556 87.4911 114.578 87.2727 114.65C87.0543 114.722 86.8555 114.844 86.6918 115.006L91.1561 122.738Z" fill="white"/>
<path d="M130.29 130.203L144.576 154.947L147.846 152.039C147.919 151.976 147.967 151.89 147.983 151.795C147.999 151.7 147.982 151.602 147.935 151.518L136.303 131.371L130.29 130.203Z" fill="white"/>
<path d="M86.3465 115.4C85.9858 115.972 85.7388 116.609 85.619 117.275L89.3938 123.813L90.7512 123.029L86.3465 115.4Z" fill="white"/>
<path d="M196.104 80.4068C196.221 80.3392 196.316 80.2382 196.376 80.1168C196.436 79.9954 196.458 79.8589 196.441 79.7247C196.423 79.5905 196.366 79.4645 196.277 79.3627C196.187 79.2609 196.07 79.1879 195.939 79.1528C195.808 79.1178 195.67 79.1223 195.542 79.1658C195.414 79.2093 195.301 79.2899 195.219 79.3973C195.136 79.5047 195.088 79.6342 195.079 79.7693C195.07 79.9044 195.101 80.039 195.169 80.1563C195.26 80.3135 195.409 80.4282 195.585 80.4752C195.76 80.5222 195.947 80.4976 196.104 80.4068Z" fill="white"/>
<path d="M122.552 142.277L123.875 141.513L126.172 145.491L124.849 146.255L127.513 150.868L128.836 150.105L131.132 154.082L129.809 154.846L131.977 158.601L133.3 157.837L135.597 161.815L134.273 162.579L134.854 163.584L143.816 155.615L129.133 130.184L118.961 136.057L122.552 142.277Z" fill="white"/>
<path d="M133.118 158.514L132.225 159.03L134.02 162.14L134.914 161.625L133.118 158.514Z" fill="white"/>
<path d="M128.654 150.782L127.761 151.298L129.556 154.408L130.45 153.892L128.654 150.782Z" fill="white"/>
<path d="M123.694 142.191L122.8 142.707L124.596 145.817L125.489 145.301L123.694 142.191Z" fill="white"/>
<path d="M88.0156 174.085L87.023 176.949C86.9644 177.111 86.9446 177.284 86.965 177.455C86.9853 177.625 87.0455 177.789 87.1405 177.932C87.2355 178.076 87.3628 178.195 87.5121 178.28C87.6615 178.366 87.8287 178.415 88.0005 178.424L101.808 179.204C102.011 179.215 102.212 179.156 102.377 179.036C102.541 178.916 102.659 178.742 102.711 178.545L103.034 177.339L102.146 175.801L88.0156 174.085Z" fill="white"/>
<path d="M101.004 151.144L100.349 150.01C99.7776 150.2 99.1573 150.18 98.599 149.955C98.316 149.843 98.0572 149.677 97.8363 149.467L84.1758 157.354L84.3732 158.569L88.0663 156.712L91.0145 158.068L92.7109 161.007L88.3584 173.131L101.872 174.711L103.894 159.007L105.174 158.267L101.004 151.144Z" fill="white"/>
<path d="M101.793 150.528L104.849 155.82C104.991 156.066 105.18 156.281 105.405 156.454C105.631 156.627 105.888 156.753 106.163 156.826C106.69 156.968 107.251 156.906 107.734 156.651C109.78 155.551 111.914 154.307 113.104 153.551C113.498 153.332 113.835 153.025 114.09 152.653C114.345 152.281 114.509 151.856 114.571 151.41C114.886 148.502 112.262 145.663 111.069 145.126L101.793 150.528ZM113.304 151.694C113.173 152.091 112.948 152.45 112.646 152.738C110.941 153.935 109.115 154.947 107.196 155.759C106.762 155.834 106.315 155.763 105.926 155.556C105.537 155.349 105.228 155.019 105.048 154.617L103.798 152.452L104.597 151.99C105.857 154.173 107.451 154.157 107.873 154.154C108.295 154.151 109.615 153.698 109.656 153.273C109.651 153.047 107.842 153.702 106.831 151.594C106.61 151.109 106.53 150.572 106.6 150.044C106.67 149.515 106.886 149.017 107.225 148.606C109.51 146.393 111.212 146.762 111.682 147.041C112.385 147.541 112.932 148.229 113.264 149.026C113.454 149.444 113.556 149.897 113.563 150.356C113.57 150.815 113.482 151.271 113.304 151.694Z" fill="white"/>
<path d="M118.713 137.632C118.674 138.674 118.633 139.477 118.559 140.103L133.28 164.985L134.09 164.266L118.713 137.632Z" fill="white"/>
<path d="M169.701 131.322L163.687 134.794L164.228 135.731C164.29 135.838 164.391 135.916 164.511 135.948C164.63 135.98 164.758 135.963 164.865 135.901L172.992 131.209C173.102 131.146 173.181 131.042 173.214 130.92C173.247 130.798 173.23 130.668 173.167 130.558L170.721 126.323L170.1 130.702C170.08 130.828 170.035 130.948 169.966 131.055C169.898 131.161 169.807 131.252 169.701 131.322Z" fill="white"/>
<path d="M231.063 57.0499L213.975 66.916L217.085 72.3029L234.174 62.4368C234.174 62.4368 234.112 60.0093 231.063 57.0499Z" fill="white"/>
<path d="M171.005 101.061L171.838 102.504L172.998 101.834L185.59 98.665L191.003 95.54C191.264 95.3896 191.454 95.1423 191.533 94.8521C191.612 94.5618 191.574 94.252 191.426 93.9901L189.382 90.4504L171.005 101.061Z" fill="white"/>
<path d="M140.622 118.476L116.566 132.365L113.927 137.715C114.143 137.913 114.329 138.141 114.479 138.393C114.706 138.79 114.839 139.235 114.866 139.692C114.893 140.149 114.815 140.606 114.637 141.028L117.663 139.602C117.744 138.513 117.808 137.135 117.845 135.831L117.846 135.555L129.29 128.948L136.517 130.354L138.075 128.767L135.164 123.724L141.59 120.014L140.622 118.476Z" fill="white"/>
<path d="M110.017 105.148C109.726 105.313 109.403 105.411 109.07 105.435C108.737 105.459 108.402 105.408 108.091 105.286L106.665 106.109L110.514 112.776L113.444 111.085L110.017 105.148Z" fill="white"/>
<path d="M108.067 104.727L108.176 104.778C108.467 104.91 108.787 104.962 109.105 104.93C109.422 104.898 109.725 104.782 109.983 104.594L110.198 104.47L113.874 110.837L114.458 110.499L110.152 103.042C110.024 102.822 109.825 102.654 109.587 102.564C109.35 102.474 109.088 102.468 108.847 102.547C107.473 102.985 107.749 104.177 107.981 104.777L108.067 104.727Z" fill="white"/>
<path d="M65.1199 163.476L46.1332 176.225C46.1119 176.235 46.0945 176.252 46.0839 176.274C46.0733 176.295 46.0699 176.319 46.0744 176.343C46.0788 176.366 46.0908 176.387 46.1084 176.403C46.1261 176.419 46.1485 176.429 46.1723 176.431C46.8383 176.585 47.4293 176.967 47.8422 177.512C48.2551 178.056 48.4635 178.729 48.4312 179.411L41.3769 198.8L37.1464 198.814L27.9809 188.435L27.3987 190.879L39.1779 204.594L42.4009 204.383C43.3645 201.627 49.9526 182.542 51.046 180.766C52.1394 178.989 66.1178 170.918 68.725 169.482L65.1199 163.476Z" fill="white"/>
<path d="M95.4608 109.004C95.3104 108.743 95.0631 108.553 94.7729 108.474C94.4826 108.395 94.1728 108.433 93.9109 108.581L88.2022 111.809C88.0614 111.893 87.9595 112.029 87.9183 112.188C87.8771 112.347 87.9 112.515 87.982 112.657L93.359 121.971C93.3964 122.038 93.4471 122.098 93.508 122.145C93.5689 122.193 93.6387 122.227 93.7133 122.247C93.7879 122.267 93.8658 122.272 93.9423 122.261C94.0188 122.251 94.0923 122.225 94.1586 122.185L96.315 120.94C96.6297 120.761 96.8872 120.496 97.0576 120.177C97.228 119.858 97.3044 119.496 97.2779 119.135L97.2254 118.41C97.2055 118.127 97.2652 117.844 97.3979 117.593C97.5305 117.342 97.7307 117.134 97.9759 116.991L99.5481 116.083L97.5739 112.664L95.4608 109.004Z" fill="white"/>
<path d="M102.447 106.62L96.6392 110.053L97.9934 112.399L103.836 109.026L102.447 106.62Z" fill="white"/>
<path d="M103.645 107.703L104.265 108.777L107.559 114.482L109.664 113.267L105.75 106.488L103.645 107.703Z" fill="white"/>
<path d="M193.331 75.6033L189.632 74.612L187.123 76.0604L187.222 78.6724L185.395 78.3064L184.403 76.5881L180.803 78.6665L181.331 80.4927L179.312 81.6583L178.255 79.8284L176.228 80.999L177.264 82.7946L175.924 83.5684L174.887 81.7728L172.825 82.9633L173.852 84.7417L172.478 85.5354L171.451 83.7569L169.423 84.9276L170.415 86.6459L169.049 87.4346L168.057 85.7163L166.021 86.8919L167.013 88.6102L165.656 89.3939L164.664 87.6756L162.636 88.8462L163.628 90.5645L162.253 91.3582L161.261 89.6399L159.234 90.8105L160.226 92.5288L158.86 93.3175L157.868 91.5992L155.84 92.7698L156.802 94.4366L155.428 95.2302L154.465 93.5635L152.438 94.7341L153.39 96.3837L152.024 97.1724L151.072 95.5228L149.036 96.6984L149.973 98.3222L148.607 99.1109L147.67 97.4871L145.676 98.6379L146.604 100.245L145.238 101.033L144.31 99.4266L142.24 100.622L143.157 102.211L141.791 103L140.874 101.411L138.846 102.581L139.749 104.145L138.03 105.137L136.576 104.224L120.991 113.222C120.642 113.481 120.409 113.866 120.342 114.295C120.275 114.724 120.378 115.162 120.63 115.515L118.981 116.468L117.904 114.603L115.877 115.774L116.953 117.638L115.587 118.427L114.511 116.563L112.475 117.738L113.551 119.602L112.185 120.391L111.109 118.527L109.081 119.697L110.157 121.562L108.783 122.355L107.706 120.491L105.679 121.662L106.755 123.526L104.96 124.563L103.417 121.891C103.101 120.114 110.331 115.058 110.331 115.058L109.885 114.285L98.991 120.574C98.1452 124.625 92.0534 126.951 92.0534 126.951C93.482 129.425 90.1391 133.119 90.1391 133.119L89.8728 133.273L88.8262 131.46L86.8072 132.626L87.8786 134.482L86.5039 135.275L85.4325 133.42L83.4049 134.59L84.4763 136.446L83.8921 136.783L82.033 135.726L77.2304 138.499C77.2304 138.499 76.1777 139.473 78.5037 141.2L135.792 108.125L139.606 114.732L148.327 109.697L144.602 103.245L186.155 79.1853L187.147 80.9036L192.302 77.9274L195.109 82.7902L202.567 78.4847L199.02 72.3417L193.331 75.6033ZM196.352 80.8355C196.151 80.9542 195.918 81.0103 195.685 80.9967C195.451 80.9831 195.227 80.9005 195.041 80.7593C194.854 80.618 194.714 80.4246 194.637 80.2035C194.561 79.9824 194.552 79.7436 194.612 79.5174C194.671 79.2912 194.797 79.0878 194.972 78.933C195.147 78.7783 195.365 78.679 195.597 78.648C195.829 78.617 196.064 78.6555 196.274 78.7588C196.484 78.862 196.659 79.0253 196.776 79.2278C196.931 79.4975 196.974 79.8178 196.895 80.1189C196.816 80.42 196.62 80.6776 196.352 80.8355Z" fill="white"/>
<path d="M132.934 105.159L131.352 103.987C131.28 103.931 131.193 103.897 131.101 103.89C131.01 103.884 130.918 103.905 130.839 103.952L122.892 108.54C122.892 108.54 120.301 109.727 120.983 112.059L132.934 105.159Z" fill="white"/>
<path d="M99.8108 116.538L98.3159 117.402C98.1281 117.524 97.9749 117.692 97.8709 117.891C97.7668 118.089 97.7155 118.311 97.7217 118.535L97.807 119.734L100.694 118.068L99.8108 116.538Z" fill="white"/>
<path d="M98.2415 112.828L100.176 116.179L100.185 116.174L101.296 118.098L107.129 114.73L104.084 109.455L98.2415 112.828Z" fill="white"/>
</svg>
