<svg width="256" height="256" viewBox="0 0 256 256" fill="none" xmlns="http://www.w3.org/2000/svg">
<path d="M116.244 95.2049L138.35 92.3015C138.456 92.2887 138.552 92.2346 138.617 92.1512C138.683 92.0678 138.713 91.9618 138.701 91.8564L137.982 86.0991C137.978 86.0428 137.962 85.988 137.934 85.9385C137.907 85.8891 137.869 85.8461 137.824 85.8127C137.778 85.7792 137.726 85.7559 137.67 85.7445C137.615 85.7331 137.558 85.7339 137.503 85.7466C130.95 87.1338 117.527 88.7449 116.009 88.926C115.917 88.9404 115.835 88.9881 115.777 89.0598C113.728 91.2477 115.382 94.1128 115.903 95.0154C115.936 95.0762 115.986 95.1263 116.046 95.1598C116.106 95.1934 116.175 95.209 116.244 95.2049Z" fill="white"/>
<path d="M126.584 109.959L127.024 110.721L137.648 104.587L136.592 102.757L129.777 106.691L130.393 107.76L126.584 109.959Z" fill="white"/>
<path d="M139.766 89.916C139.919 89.7256 140.112 89.5717 140.332 89.4656C140.551 89.3594 140.792 89.3038 141.036 89.3027C141.28 89.3016 141.521 89.3551 141.741 89.4593C141.962 89.5634 142.156 89.7157 142.31 89.9047C142.406 90.0703 144.61 97.5976 144.61 97.5976L147.02 96.2064L144.449 87.5659C144.341 87.1782 144.099 86.8413 143.766 86.6151C143.434 86.3888 143.031 86.2877 142.631 86.3298L138.578 86.9587L139.003 90.7544L139.766 89.916Z" fill="white"/>
<path d="M108.526 118.783L102 107.48L99.2429 109.072L105.994 120.765C106.764 120.32 107.455 119.854 107.917 119.544C108.378 119.234 108.501 119.008 108.526 118.783Z" fill="white"/>
<path d="M75.4966 148.242L73.309 141.987L67.999 142.734L66.1806 146.411L68.877 151.082L71.6983 151.838L75.4966 148.242Z" fill="white"/>
<path d="M38.2099 210.126L23.6568 184.919L24.9062 180.256L29.6014 177.545C28.942 177.344 28.2669 177.198 27.5833 177.109C26.2582 178.221 24.809 179.177 23.2646 179.956C20.5548 181.344 21.8736 184.259 21.8736 184.259L35.9199 208.588C36.9956 210.451 37.8207 210.35 38.2099 210.126Z" fill="white"/>
<path d="M79.8209 150.417L125.647 123.959L128.592 118.637L126.703 115.366L75.4452 144.96L76.5564 148.415L79.8209 150.417Z" fill="white"/>
<path d="M103.408 106.668L102.414 107.241L106.277 113.932L106.696 112.42C106.446 111.968 103.691 107.177 103.408 106.668Z" fill="white"/>
<path d="M137.814 111.491L135.761 112.677L136 113.091L138.053 111.905L137.814 111.491Z" fill="white"/>
<path d="M145.67 128.75L143.696 125.33L141.201 124.661L140.058 122.682L136.622 124.666L138.529 127.97L136.277 129.271L140.848 137.187L143.34 135.748L145.67 128.75Z" fill="white"/>
<path d="M180.278 133.368L182.494 132.387L183.301 133.345C183.386 133.445 183.498 133.518 183.624 133.555C183.749 133.592 183.882 133.592 184.008 133.556L188.573 132.168C188.715 132.125 188.843 132.046 188.946 131.938C189.048 131.831 189.121 131.699 189.157 131.555L189.435 130.544C189.516 130.232 189.472 129.901 189.311 129.622L186.873 125.399C186.746 125.182 186.54 125.024 186.298 124.958L184.156 124.384L186.517 128.474C186.59 128.607 186.63 128.754 186.635 128.905C186.639 129.056 186.608 129.206 186.544 129.342C186.465 129.505 186.338 129.639 186.181 129.728C186.074 129.794 185.954 129.833 185.829 129.844L178.22 130.759L179.606 133.16C179.674 133.27 179.78 133.352 179.903 133.39C180.027 133.428 180.16 133.421 180.278 133.368Z" fill="white"/>
<path d="M136.715 109.586L134.661 110.771L135.048 111.442L137.102 110.257L136.715 109.586Z" fill="white"/>
<path d="M231.425 68.0108C231.387 66.6861 231.02 65.3917 230.357 64.244C229.694 63.0962 228.757 62.1313 227.629 61.4359L210.239 71.4758C210.189 72.2885 213.196 77.6299 214.061 77.9807L231.425 68.0108Z" fill="white"/>
<path d="M139.727 114.804L137.673 115.989L138.003 116.561L140.057 115.375L139.727 114.804Z" fill="white"/>
<path d="M202.849 89.5988C202.34 89.3385 201.891 88.9742 201.531 88.5294C201.172 88.0846 200.91 87.5692 200.762 87.0166L156.874 112.355L157.83 114.012L165.548 109.556L166.577 107.858L173.963 103.593L175.187 105.713L179.096 103.456L178.264 102.015L179.58 101.255C180.454 101.361 181.29 101.679 182.013 102.18L202.989 90.0702L202.849 89.5988Z" fill="white"/>
<path d="M139.249 113.975L137.195 115.161L137.434 115.575L139.488 114.39L139.249 113.975Z" fill="white"/>
<path d="M138.77 113.147L136.717 114.333L136.956 114.747L139.009 113.561L138.77 113.147Z" fill="white"/>
<path d="M135.694 125.202L116.963 136.017L114.497 144.749L117.992 142.732L119.52 137.864L137.125 127.699L135.694 125.202Z" fill="white"/>
<path d="M137.336 110.663L135.283 111.849L135.522 112.263L137.575 111.077L137.336 110.663Z" fill="white"/>
<path d="M122.017 148.059L140.019 137.665L135.458 129.765L120.329 138.5L119.01 142.85L122.017 148.059Z" fill="white"/>
<path d="M136.177 123.82L139.58 121.855L139.571 121.838L142.742 120.007L140.548 116.206L133.968 119.994L136.177 123.82Z" fill="white"/>
<path d="M138.292 112.319L136.239 113.505L136.478 113.919L138.531 112.733L138.292 112.319Z" fill="white"/>
<path d="M113.457 145.339L116.145 135.384L135.191 124.388L132.504 119.734L137.58 116.804L134.234 111.007L127.493 114.899L129.621 118.584L126.357 124.653L79.8434 151.507L76.0005 149.078L72.2874 152.591L76.6284 160.109L88.9751 152.981L90.8444 156.219C90.9409 156.109 91.0557 156.017 91.1836 155.946C91.3815 155.833 91.6019 155.766 91.8289 155.748C92.0559 155.73 92.2841 155.763 92.4972 155.843C92.7102 155.924 92.9029 156.05 93.0615 156.213C93.2201 156.377 93.3407 156.573 93.4147 156.789L113.457 145.339Z" fill="white"/>
<path d="M199.604 73.3649L204.092 70.7737C203.81 70.2851 202.791 68.6541 201.893 66.9645C200.137 63.6942 200.399 63.7642 196.728 65.9166C193.358 67.8624 193.806 67.2614 196.179 71.2572C196.185 71.2868 197.91 73.1839 199.604 73.3649Z" fill="white"/>
<path d="M209.84 73.4619L207.557 74.8241L209.814 78.7327L212.116 77.4036L209.84 73.4619Z" fill="white"/>
<path d="M142.594 117.819L143.645 119.641L145.623 120.177L153.233 115.784L153.991 112.928L209.853 80.6759L208.658 78.6057L202.298 82.2775C202.078 82.4043 201.818 82.4386 201.573 82.373C201.328 82.3074 201.119 82.1471 200.992 81.9275L198.31 77.282L193.847 79.8589L196.682 84.7694C196.772 84.9253 196.796 85.1106 196.749 85.2845C196.703 85.4584 196.589 85.6067 196.433 85.6968L142.964 116.567L142.594 117.819Z" fill="white"/>
<path d="M29.282 193.705L39.4271 211.277C41.0159 213.054 42.3521 212.404 42.3521 212.404L60.5361 201.254C60.8993 201.029 61.1983 200.715 61.404 200.34C61.6097 199.966 61.7152 199.545 61.7103 199.118L61.437 181.434L55.2513 185.005L52.7221 184.334L42.5947 190.181L37.8195 188.776L29.282 193.705ZM41.1435 193.481L43.0048 206.65C43.0329 206.831 43.0048 207.017 42.9244 207.182C42.8439 207.346 42.7149 207.483 42.5547 207.572L40.4845 208.767C40.272 208.89 40.0204 208.927 39.7817 208.87C39.5429 208.812 39.3355 208.665 39.2022 208.459L32.3321 196.559C32.2053 196.34 32.1709 196.079 32.2365 195.834C32.3022 195.589 32.4624 195.38 32.6821 195.253L37.8575 192.265C38.0696 192.147 38.3188 192.113 38.5545 192.172L40.4484 192.679C40.6285 192.73 40.7899 192.832 40.9126 192.973C41.0352 193.114 41.1139 193.288 41.1387 193.473L41.1435 193.481Z" fill="white"/>
<path d="M42.5296 189.667L52.6487 183.825L55.191 184.499L61.4264 180.899L61.337 175.198L38.3164 188.489L42.5296 189.667ZM58.1015 178.391C58.3407 178.253 58.6153 178.189 58.8909 178.207C59.1664 178.225 59.4304 178.325 59.6494 178.493C59.8685 178.661 60.0327 178.89 60.1215 179.151C60.2102 179.413 60.2195 179.695 60.148 179.962C60.0766 180.228 59.9276 180.468 59.72 180.65C59.5124 180.832 59.2555 180.948 58.9818 180.984C58.708 181.02 58.4297 180.974 58.1821 180.852C57.9345 180.73 57.7286 180.537 57.5906 180.298C57.4968 180.138 57.436 179.961 57.4117 179.778C57.3875 179.594 57.4004 179.407 57.4496 179.229C57.4987 179.05 57.5832 178.883 57.6981 178.737C57.8129 178.592 57.9557 178.471 58.1181 178.382L58.1015 178.391Z" fill="white"/>
<path d="M59.2703 180.378C59.4341 180.284 59.5662 180.143 59.6498 179.973C59.7335 179.803 59.7649 179.613 59.7403 179.425C59.7156 179.238 59.6358 179.062 59.5112 178.92C59.3865 178.778 59.2224 178.676 59.0397 178.627C58.8571 178.578 58.664 178.584 58.4849 178.645C58.3058 178.706 58.1488 178.818 58.0337 178.968C57.9185 179.118 57.8505 179.299 57.8381 179.488C57.8257 179.676 57.8696 179.864 57.9642 180.028C58.091 180.248 58.2998 180.408 58.5448 180.474C58.7897 180.539 59.0507 180.505 59.2703 180.378Z" fill="white"/>
<path d="M91.2601 156.786C91.1407 156.944 91.08 157.138 91.0882 157.335C91.0963 157.533 91.173 157.721 91.3049 157.868C91.4368 158.015 91.6159 158.112 91.8112 158.141C92.0066 158.171 92.2062 158.131 92.3757 158.03C92.5338 157.939 92.6576 157.798 92.728 157.63C92.7984 157.462 92.8115 157.275 92.7653 157.098C92.7384 157.023 92.6979 156.952 92.6458 156.891C92.5338 156.697 92.3498 156.555 92.1337 156.496C91.9176 156.437 91.6869 156.465 91.4916 156.575C91.4016 156.63 91.323 156.702 91.2601 156.786Z" fill="white"/>
<path d="M148.946 98.4723L149.477 99.3915L149.055 99.6353L147.274 96.5892L144.666 98.0952L144.093 98.9778L137.245 102.932L138.153 104.505L140.192 105.359L186.446 78.8204L185.581 77.3215L184.14 78.1534L184.623 78.9898L183.505 79.6352L183.022 78.7988L181.655 79.5877L182.138 80.424L181.02 81.0695L180.538 80.2331L179.171 81.022L179.654 81.8583L179.646 81.8631L179.675 81.9128L178.557 82.5582L178.045 81.6722L176.687 82.4562L177.17 83.2926L177.137 83.3117L177.17 83.3697L176.052 84.0151L175.536 83.1208L174.675 83.618L174.137 83.9288L174.653 84.8231L173.543 85.4637L173.027 84.5694L171.627 85.3774L172.144 86.2717L171.026 86.9171L170.51 86.0228L169.11 86.8308L169.631 87.7334L168.522 88.374L168 87.4714L166.601 88.2794L167.122 89.182L166.013 89.8226L165.491 88.92L164.092 89.728L164.613 90.6306L163.495 91.276L162.974 90.3734L161.575 91.1814L162.1 92.0923L160.991 92.7329L160.465 91.822L159.066 92.63L159.591 93.5409L158.474 94.1863L157.948 93.2754L156.548 94.0834L157.074 94.9943L155.964 95.635L155.439 94.7241L154.039 95.532L154.565 96.4429L153.452 97.0966L152.921 96.1775L151.522 96.9854L152.052 97.9046L150.943 98.5452L150.412 97.6261L148.946 98.4723Z" fill="white"/>
<path d="M141.916 116.664L142.119 115.906L150.988 110.786L146.938 103.772C146.848 103.616 146.824 103.431 146.87 103.257C146.917 103.083 147.031 102.934 147.187 102.844L191.497 77.2617C191.575 77.2172 191.66 77.1882 191.748 77.1766C191.837 77.165 191.926 77.1708 192.012 77.1939C192.099 77.217 192.179 77.2568 192.25 77.3111C192.321 77.3654 192.38 77.433 192.425 77.5102L193.295 79.0173L198.586 75.9623L201.268 80.6079C201.395 80.8275 201.604 80.9877 201.849 81.0534C202.094 81.119 202.355 81.0846 202.574 80.9578L208.106 77.7642L204.473 71.4708L199.475 74.2897C198.342 74.0532 197.294 73.5135 196.443 72.7281L191.474 75.5967L190.356 73.659L186.927 75.6383C186.767 75.7327 186.643 75.8782 186.575 76.0516C186.507 76.225 186.499 76.4163 186.552 76.5947L187.269 78.8307L140.169 105.892L137.809 104.902L122.075 113.986L122.682 115.038L121.581 115.674L120.974 114.622L119.591 115.42L120.198 116.472L119.097 117.108L118.49 116.056L117.107 116.855L117.714 117.906L116.613 118.542L116.005 117.491L114.622 118.289L115.23 119.341L114.128 119.976L113.521 118.925L112.138 119.723L112.745 120.775L111.644 121.411L111.037 120.359L109.654 121.158L110.261 122.209L109.16 122.845L108.553 121.793L107.17 122.592L107.777 123.643L106.676 124.279L106.068 123.228L104.686 124.026L105.379 125.227L90.0842 134.057L89.3814 132.84L87.9985 133.638L88.6343 134.74L87.533 135.375L86.8971 134.274L85.5142 135.073L86.1501 136.174L85.0488 136.81L84.4129 135.708L83.03 136.507L83.6659 137.608L82.5645 138.244L81.9287 137.143L74.3352 141.527L75.1362 144.023L137.068 108.267L141.916 116.664ZM201.684 78.2482C201.773 78.1398 201.88 78.0478 202.001 77.9764C202.236 77.8407 202.516 77.804 202.778 77.8742C203.04 77.9444 203.263 78.1159 203.399 78.3509C203.45 78.4411 203.488 78.5384 203.511 78.6398C203.563 78.878 203.529 79.1272 203.414 79.3423C203.298 79.5575 203.11 79.7244 202.883 79.813C202.656 79.9016 202.404 79.9061 202.174 79.8256C201.944 79.7451 201.75 79.5849 201.627 79.374C201.527 79.2007 201.48 79.0024 201.49 78.8028C201.5 78.6032 201.567 78.4107 201.684 78.2482Z" fill="white"/>
<path d="M202.79 79.3433C202.893 79.2837 202.972 79.1919 203.017 79.0823C203.061 78.9727 203.068 78.8514 203.037 78.7373C203.024 78.6869 202.998 78.641 202.96 78.6048C202.888 78.4797 202.769 78.3883 202.629 78.3509C202.49 78.3135 202.341 78.3331 202.216 78.4054C202.152 78.4392 202.095 78.4858 202.05 78.5424C202.005 78.599 201.972 78.6642 201.954 78.7341C201.935 78.804 201.931 78.877 201.942 78.9485C201.952 79.02 201.978 79.0886 202.016 79.1499C202.052 79.2154 202.102 79.2728 202.161 79.3184C202.22 79.364 202.288 79.397 202.361 79.4151C202.434 79.4333 202.509 79.4362 202.583 79.4239C202.657 79.4115 202.728 79.3841 202.79 79.3433Z" fill="white"/>
<path d="M147.905 103.534L151.811 110.3L195.65 84.9894L191.744 78.224L147.905 103.534ZM156.241 102.674C156.234 102.704 156.221 102.731 156.203 102.755C156.184 102.779 156.161 102.799 156.134 102.813C156.107 102.83 156.077 102.842 156.046 102.846C156.014 102.851 155.982 102.85 155.951 102.841L153.783 102.26C153.724 102.242 153.674 102.201 153.643 102.148C153.612 102.094 153.603 102.031 153.616 101.97C153.624 101.939 153.638 101.91 153.657 101.884C153.676 101.859 153.7 101.837 153.728 101.821C153.756 101.805 153.787 101.795 153.819 101.791C153.851 101.787 153.883 101.789 153.914 101.798L156.074 102.384C156.105 102.39 156.134 102.401 156.161 102.418C156.187 102.436 156.209 102.458 156.227 102.484C156.244 102.511 156.256 102.54 156.261 102.571C156.266 102.602 156.265 102.634 156.258 102.664L156.241 102.674ZM158.237 105.232C158.182 105.263 158.117 105.272 158.055 105.255C157.994 105.239 157.942 105.199 157.91 105.144L156.792 103.206C156.76 103.152 156.751 103.086 156.768 103.025C156.784 102.964 156.824 102.912 156.879 102.88C156.934 102.848 156.999 102.84 157.06 102.856C157.122 102.872 157.174 102.912 157.206 102.967L158.324 104.905C158.355 104.957 158.364 105.019 158.351 105.077C158.338 105.136 158.303 105.188 158.253 105.222L158.237 105.232ZM157.867 99.9247L157.286 102.093C157.278 102.124 157.263 102.152 157.243 102.177C157.223 102.202 157.198 102.222 157.17 102.237C157.144 102.253 157.116 102.263 157.086 102.267C157.056 102.271 157.025 102.269 156.996 102.26C156.966 102.253 156.937 102.24 156.912 102.221C156.886 102.202 156.865 102.179 156.85 102.152C156.834 102.124 156.824 102.094 156.82 102.063C156.817 102.032 156.82 102 156.829 101.97L157.401 99.807C157.409 99.7758 157.423 99.7465 157.442 99.7208C157.462 99.6951 157.486 99.6736 157.514 99.6576C157.542 99.6415 157.573 99.6312 157.604 99.6273C157.636 99.6234 157.669 99.626 157.7 99.6348C157.755 99.6518 157.802 99.6873 157.834 99.7354C157.866 99.7835 157.88 99.8412 157.874 99.8986L157.867 99.9247ZM162.827 100.694L162.254 102.857C162.246 102.888 162.231 102.916 162.211 102.941C162.191 102.966 162.167 102.986 162.138 103.001C162.083 103.034 162.018 103.044 161.956 103.029C161.897 103.01 161.847 102.97 161.816 102.917C161.785 102.863 161.775 102.8 161.788 102.739L162.369 100.571C162.374 100.537 162.385 100.504 162.403 100.475C162.421 100.446 162.445 100.421 162.473 100.402C162.501 100.383 162.533 100.37 162.567 100.364C162.601 100.358 162.636 100.36 162.669 100.369C162.702 100.378 162.733 100.394 162.759 100.415C162.785 100.437 162.807 100.464 162.822 100.495C162.837 100.526 162.845 100.56 162.846 100.594C162.847 100.628 162.84 100.662 162.827 100.694ZM162.767 99.7676C162.712 99.7993 162.647 99.8079 162.585 99.7915C162.524 99.7751 162.472 99.7351 162.44 99.6802L161.321 97.7424C161.29 97.6875 161.281 97.6223 161.298 97.5611C161.314 97.4998 161.354 97.4476 161.409 97.4159C161.464 97.3842 161.529 97.3756 161.59 97.392C161.652 97.4084 161.704 97.4485 161.736 97.5034L162.854 99.4411C162.879 99.4925 162.884 99.5511 162.87 99.6062C162.855 99.6613 162.821 99.7093 162.774 99.7415L162.767 99.7676ZM166.03 100.677C166.011 100.738 165.97 100.79 165.914 100.821C165.888 100.838 165.857 100.849 165.826 100.854C165.795 100.859 165.763 100.857 165.732 100.849L163.572 100.263C163.519 100.241 163.476 100.2 163.451 100.148C163.426 100.096 163.42 100.037 163.435 99.9817C163.45 99.9261 163.484 99.8778 163.532 99.8455C163.58 99.8133 163.637 99.7993 163.694 99.8062L165.863 100.387C165.918 100.404 165.965 100.44 165.997 100.488C166.029 100.536 166.043 100.594 166.037 100.651L166.03 100.677ZM167.844 95.9973C167.837 96.0268 167.824 96.0546 167.805 96.0786C167.787 96.1026 167.763 96.1224 167.737 96.1365C167.71 96.1536 167.68 96.1649 167.648 96.1697C167.617 96.1745 167.585 96.1728 167.554 96.1646L165.386 95.5836C165.327 95.5648 165.277 95.5247 165.246 95.4711C165.215 95.4175 165.205 95.3542 165.218 95.2938C165.226 95.2626 165.24 95.2333 165.26 95.2076C165.279 95.1819 165.303 95.1604 165.331 95.1444C165.359 95.1283 165.39 95.118 165.421 95.1141C165.453 95.1102 165.486 95.1128 165.517 95.1217L167.677 95.7074C167.734 95.7207 167.784 95.7554 167.816 95.8045C167.849 95.8535 167.861 95.9132 167.851 95.9711L167.844 95.9973ZM169.839 98.5549C169.785 98.5866 169.719 98.5952 169.658 98.5788C169.597 98.5624 169.545 98.5223 169.513 98.4674L168.394 96.5297C168.363 96.4748 168.354 96.4095 168.37 96.3483C168.387 96.2871 168.427 96.2348 168.482 96.2031C168.537 96.1715 168.602 96.1629 168.663 96.1793C168.724 96.1957 168.777 96.2357 168.808 96.2906L169.927 98.2284C169.952 98.2798 169.957 98.3383 169.942 98.3934C169.928 98.4485 169.894 98.4965 169.846 98.5288L169.839 98.5549ZM169.47 93.248L168.889 95.4162C168.88 95.4469 168.866 95.4756 168.846 95.5004C168.826 95.5251 168.801 95.5455 168.773 95.5602C168.747 95.5759 168.718 95.586 168.688 95.59C168.658 95.5941 168.628 95.5918 168.599 95.5835C168.568 95.5764 168.539 95.563 168.514 95.5444C168.489 95.5257 168.468 95.502 168.452 95.4748C168.437 95.4477 168.427 95.4176 168.423 95.3864C168.419 95.3553 168.422 95.3237 168.431 95.2937L169.004 93.1302C169.012 93.0991 169.026 93.0698 169.045 93.0441C169.064 93.0184 169.089 92.9969 169.117 92.9808C169.144 92.9648 169.175 92.9545 169.207 92.9506C169.239 92.9467 169.271 92.9492 169.302 92.9581C169.353 92.9761 169.396 93.0099 169.426 93.0544C169.455 93.0989 169.47 93.1518 169.467 93.2053L169.47 93.248ZM174.429 94.0169L173.857 96.1804C173.848 96.2111 173.834 96.2398 173.814 96.2646C173.794 96.2893 173.769 96.3097 173.741 96.3244C173.686 96.3569 173.621 96.3669 173.558 96.3525C173.5 96.3337 173.45 96.2936 173.419 96.24C173.388 96.1864 173.378 96.1232 173.391 96.0627L173.972 93.8944C173.976 93.8604 173.988 93.8277 174.005 93.7985C174.023 93.7693 174.047 93.7442 174.076 93.725C174.104 93.7058 174.136 93.693 174.17 93.6873C174.204 93.6816 174.238 93.6833 174.271 93.6921C174.304 93.701 174.335 93.7169 174.362 93.7387C174.388 93.7605 174.409 93.7877 174.424 93.8185C174.439 93.8493 174.448 93.883 174.448 93.9172C174.449 93.9514 174.443 93.9854 174.429 94.0169ZM174.369 93.0909C174.315 93.1226 174.249 93.1312 174.188 93.1148C174.127 93.0984 174.075 93.0583 174.043 93.0034L172.924 91.0657C172.892 91.0108 172.884 90.9456 172.9 90.8843C172.917 90.8231 172.957 90.7709 173.012 90.7392C173.067 90.7075 173.132 90.6989 173.193 90.7153C173.254 90.7317 173.306 90.7718 173.338 90.8267L174.457 92.7644C174.476 92.8149 174.478 92.8705 174.462 92.9221C174.445 92.9736 174.412 93.0181 174.367 93.0483L174.369 93.0909ZM177.633 94.0003C177.614 94.0614 177.573 94.1129 177.517 94.1443C177.49 94.1614 177.46 94.1727 177.429 94.1775C177.397 94.1824 177.365 94.1806 177.335 94.1724L175.175 93.5867C175.122 93.5641 175.079 93.5231 175.054 93.4714C175.028 93.4196 175.023 93.3605 175.038 93.305C175.052 93.2494 175.087 93.201 175.135 93.1688C175.182 93.1366 175.24 93.1226 175.297 93.1295L177.465 93.7105C177.516 93.7285 177.559 93.7622 177.589 93.8067C177.618 93.8513 177.633 93.9042 177.63 93.9576L177.633 94.0003ZM179.447 89.3205C179.44 89.3501 179.427 89.3779 179.408 89.4019C179.39 89.4259 179.366 89.4457 179.339 89.4598C179.312 89.4768 179.282 89.4882 179.251 89.493C179.22 89.4978 179.187 89.4961 179.157 89.4879L176.988 88.9069C176.93 88.8881 176.88 88.8479 176.849 88.7943C176.818 88.7407 176.808 88.6775 176.821 88.6171C176.829 88.5859 176.843 88.5566 176.862 88.5309C176.882 88.5052 176.906 88.4837 176.934 88.4677C176.961 88.4516 176.992 88.4413 177.024 88.4374C177.056 88.4335 177.088 88.4361 177.119 88.4449L179.279 89.0307C179.332 89.0457 179.377 89.0788 179.407 89.124C179.437 89.1693 179.45 89.2238 179.444 89.2778L179.447 89.3205ZM181.442 91.8782C181.387 91.9099 181.322 91.9185 181.261 91.9021C181.2 91.8856 181.147 91.8456 181.116 91.7907L179.997 89.853C179.965 89.7981 179.957 89.7328 179.973 89.6716C179.989 89.6103 180.029 89.5581 180.084 89.5264C180.139 89.4947 180.205 89.4861 180.266 89.5026C180.327 89.519 180.379 89.559 180.411 89.6139L181.53 91.5516C181.549 91.6022 181.551 91.6577 181.534 91.7093C181.518 91.7609 181.484 91.8053 181.44 91.8355L181.442 91.8782ZM181.072 86.5712L180.491 88.7395C180.483 88.7702 180.468 88.7988 180.449 88.8236C180.429 88.8484 180.404 88.8688 180.376 88.8835C180.35 88.8992 180.321 88.9093 180.291 88.9133C180.261 88.9173 180.23 88.9151 180.201 88.9068C180.171 88.8997 180.142 88.8863 180.117 88.8676C180.092 88.8489 180.071 88.8253 180.055 88.7981C180.039 88.771 180.029 88.7409 180.026 88.7097C180.022 88.6786 180.025 88.647 180.034 88.617L180.607 86.4535C180.615 86.4223 180.628 86.393 180.648 86.3674C180.667 86.3417 180.691 86.3202 180.719 86.3041C180.747 86.288 180.778 86.2778 180.81 86.2739C180.842 86.27 180.874 86.2725 180.905 86.2814C180.951 86.3 180.99 86.3319 181.018 86.373C181.045 86.4141 181.06 86.4625 181.06 86.512L181.072 86.5712ZM186.032 87.3402L185.459 89.5037C185.451 89.5344 185.436 89.563 185.417 89.5878C185.397 89.6126 185.372 89.633 185.344 89.6477C185.289 89.6802 185.223 89.6902 185.161 89.6758C185.102 89.657 185.052 89.6169 185.021 89.5633C184.99 89.5097 184.981 89.4464 184.994 89.386L185.575 87.2177C185.579 87.1837 185.59 87.151 185.608 87.1218C185.626 87.0925 185.65 87.0675 185.678 87.0483C185.707 87.0291 185.739 87.0162 185.773 87.0106C185.806 87.0049 185.841 87.0066 185.874 87.0154C185.907 87.0243 185.938 87.0402 185.964 87.062C185.991 87.0838 186.012 87.111 186.027 87.1418C186.042 87.1726 186.05 87.2062 186.051 87.2405C186.052 87.2747 186.045 87.3087 186.032 87.3402ZM185.972 86.4142C185.917 86.4459 185.852 86.4545 185.791 86.4381C185.729 86.4217 185.677 86.3816 185.646 86.3267L184.527 84.389C184.495 84.3341 184.487 84.2689 184.503 84.2076C184.519 84.1464 184.559 84.0942 184.614 84.0625C184.669 84.0308 184.734 84.0222 184.796 84.0386C184.857 84.055 184.909 84.0951 184.941 84.15L186.06 86.0877C186.074 86.137 186.072 86.1897 186.054 86.2378C186.036 86.286 186.003 86.327 185.96 86.355L185.972 86.4142ZM189.235 87.3236C189.217 87.3847 189.175 87.4362 189.12 87.4676C189.093 87.4847 189.063 87.496 189.031 87.5008C189 87.5057 188.968 87.5039 188.937 87.4957L186.777 86.9099C186.724 86.8873 186.681 86.8464 186.656 86.7947C186.631 86.7429 186.625 86.6838 186.64 86.6282C186.655 86.5727 186.69 86.5243 186.737 86.4921C186.785 86.4599 186.843 86.4459 186.9 86.4528L189.068 87.0338C189.114 87.0524 189.153 87.0843 189.181 87.1253C189.208 87.1664 189.223 87.2148 189.223 87.2643L189.235 87.3236Z" fill="white"/>
<path d="M174.8 106.611L173.772 104.83L167.205 108.622L166.325 110.234L166.732 110.938L166.217 112.858L167.245 114.638L169.213 115.158L177.962 130.312L185.771 129.381C185.844 129.379 185.916 129.359 185.98 129.322C186.044 129.285 186.097 129.233 186.135 129.17C186.17 129.105 186.187 129.031 186.185 128.957C186.183 128.883 186.161 128.81 186.123 128.747L181.992 121.592L178.167 114.968C178.926 112.84 178.362 111.786 177.215 111.101C176.327 110.576 174.13 110.232 174.21 108.42C174.227 107.772 174.432 107.144 174.8 106.611ZM183.592 128.342C183.421 128.441 183.217 128.468 183.026 128.416C182.835 128.365 182.672 128.24 182.574 128.069C182.5 127.941 182.466 127.794 182.475 127.647C182.485 127.5 182.538 127.359 182.628 127.242C182.718 127.125 182.84 127.037 182.98 126.99C183.119 126.942 183.27 126.937 183.412 126.976C183.555 127.014 183.683 127.093 183.78 127.204C183.877 127.315 183.94 127.452 183.959 127.599C183.978 127.745 183.954 127.894 183.888 128.026C183.823 128.158 183.72 128.268 183.592 128.342Z" fill="white"/>
<path d="M90.4732 132.761L103.962 124.896L102.992 123.215L89.4692 131.022L90.4732 132.761Z" fill="white"/>
<path d="M155.375 157.263L132.297 170.588L132.851 171.548L155.93 158.224L155.375 157.263Z" fill="white"/>
<path d="M143.528 136.744L122.098 149.117L121.398 151.729L132.064 170.204L140.701 165.217L131.091 148.573L137.716 144.748L147.311 161.368L155.111 156.864L143.528 136.744ZM133.998 166.382C134.085 166.533 134.125 166.707 134.114 166.881C134.102 167.055 134.039 167.221 133.932 167.359C133.826 167.498 133.681 167.601 133.515 167.656C133.35 167.712 133.172 167.717 133.004 167.67C132.835 167.624 132.685 167.529 132.571 167.397C132.457 167.266 132.384 167.103 132.363 166.93C132.342 166.757 132.372 166.581 132.451 166.425C132.529 166.27 132.652 166.141 132.804 166.055C133.006 165.942 133.245 165.912 133.468 165.974C133.692 166.035 133.882 166.182 133.998 166.382ZM150.965 156.586C150.892 156.485 150.841 156.37 150.815 156.248C150.789 156.127 150.789 156.001 150.815 155.879C150.841 155.757 150.893 155.642 150.966 155.541C151.039 155.441 151.133 155.356 151.24 155.294C151.348 155.232 151.468 155.193 151.592 155.18C151.716 155.167 151.841 155.18 151.959 155.218C152.078 155.257 152.187 155.32 152.28 155.403C152.372 155.486 152.446 155.588 152.497 155.702C152.587 155.902 152.599 156.129 152.531 156.338C152.463 156.548 152.32 156.724 152.13 156.834C151.939 156.944 151.715 156.98 151.5 156.934C151.285 156.888 151.094 156.764 150.965 156.586Z" fill="white"/>
<path d="M137.579 145.39L131.732 148.766L141.079 164.955L146.925 161.579L137.579 145.39Z" fill="white"/>
<path d="M203.905 92.6327L203.321 90.9714L182.793 102.823C183.247 103.281 183.613 103.818 183.873 104.408L185.886 103.246L185.441 102.476L186.542 101.84L186.987 102.61L188.37 101.812L187.935 101.058L189.036 100.422L189.471 101.176L190.854 100.377L190.429 99.6404L191.53 99.0045L191.955 99.7415L193.338 98.9431L192.918 98.2144L194.019 97.5785L194.435 98.299L195.818 97.5005L195.407 96.7884L196.508 96.1525L196.914 96.8564L198.297 96.058L197.896 95.3624L198.997 94.7265L199.394 95.4138L200.777 94.6154L200.385 93.9364L201.486 93.3005L201.873 93.9713L203.905 92.6327Z" fill="white"/>
<path d="M88.8407 115.553C88.8407 115.553 88.1354 114.58 88.0449 114.5C87.5211 114.051 86.619 114.153 85.3062 114.977C83.9934 115.801 83.2588 115.982 83.4656 117.144C83.6407 117.609 83.8911 118.043 84.2067 118.427C84.6557 119.128 89.4701 116.548 88.8407 115.553Z" fill="white"/>
<path d="M82.6306 128.28C82.9227 129.437 83.1316 131.061 84.3173 132.33C84.5044 132.52 84.8331 132.573 85.3892 132.274C85.4969 132.212 104.51 121.235 105.412 120.714L98.8289 109.312C96.0962 110.889 91.3762 113.614 89.7697 114.542C89.3805 114.767 89.1817 114.881 89.228 115.153C89.6067 116.038 88.8266 116.886 87.3185 117.812C85.505 118.859 84.4109 119.259 83.7516 118.48C83.6817 118.399 83.5859 118.343 83.4803 118.324C83.3746 118.305 83.2655 118.322 83.1712 118.374C82.5418 118.737 81.2832 119.464 80.4965 119.918C80.1941 120.124 79.9432 120.396 79.7632 120.715C79.5832 121.033 79.479 121.389 79.4586 121.754C79.4767 123.697 79.5668 125.556 81.7398 126.929C82.2014 127.246 82.5209 127.731 82.6306 128.28ZM99.2747 113.813C99.3278 113.901 99.3533 114.003 99.348 114.106C99.3427 114.209 99.3067 114.308 99.2448 114.39C99.1829 114.472 99.0979 114.534 99.0005 114.567C98.9032 114.601 98.7981 114.605 98.6987 114.578C98.5993 114.551 98.5101 114.496 98.4426 114.418C98.375 114.34 98.3323 114.244 98.3198 114.142C98.3073 114.04 98.3256 113.936 98.3724 113.844C98.4192 113.753 98.4923 113.677 98.5824 113.627C98.6994 113.563 98.8369 113.546 98.966 113.58C99.0951 113.615 99.2057 113.698 99.2747 113.813ZM96.9102 112.318C96.999 112.267 97.1011 112.243 97.2034 112.25C97.3057 112.257 97.4036 112.295 97.4846 112.357C97.5656 112.42 97.6262 112.506 97.6584 112.603C97.6907 112.7 97.6933 112.805 97.6658 112.904C97.6383 113.003 97.5821 113.091 97.5042 113.158C97.4264 113.224 97.3304 113.266 97.2286 113.278C97.1268 113.29 97.0237 113.272 96.9325 113.225C96.8413 113.178 96.7661 113.105 96.7165 113.015C96.6828 112.957 96.661 112.893 96.6526 112.826C96.6441 112.759 96.649 112.691 96.667 112.626C96.6851 112.561 96.7159 112.501 96.7576 112.448C96.7994 112.395 96.8513 112.351 96.9102 112.318ZM96.7039 114.447C96.792 114.394 96.8941 114.368 96.9969 114.374C97.0997 114.379 97.1985 114.415 97.2807 114.477C97.363 114.539 97.4248 114.624 97.4584 114.721C97.4919 114.818 97.4956 114.924 97.4689 115.023C97.4423 115.122 97.3865 115.212 97.3088 115.279C97.2312 115.347 97.135 115.389 97.0329 115.402C96.9307 115.414 96.8271 115.396 96.7355 115.349C96.6438 115.302 96.5682 115.229 96.5184 115.139C96.4855 115.08 96.4647 115.015 96.4571 114.947C96.4495 114.88 96.4552 114.812 96.474 114.746C96.4928 114.681 96.5242 114.62 96.5665 114.567C96.6087 114.514 96.6611 114.47 96.7204 114.437L96.7039 114.447Z" fill="white"/>
<path d="M103.579 184.607L101.543 181.366L101.538 181.491L97.7146 178.465C97.6381 178.332 97.6381 178.332 98.3887 172.709L98.4186 172.493L101.467 172.61L101.513 171.811L98.4702 171.569L99.3879 164.591L103.69 162.041C104.235 161.417 104.661 161.58 104.661 161.58C105.404 161.763 106.184 161.737 106.914 161.505C108.744 160.449 113.138 158.077 113.364 157.781C117.856 151.754 111.029 149.49 111.029 149.49L112.586 148.592L112.547 147.3L92.7328 158.629C92.5555 158.735 92.3588 158.803 92.1545 158.831C91.9502 158.859 91.7424 158.846 91.5433 158.792C91.3443 158.738 91.1581 158.644 90.9959 158.517C90.8337 158.39 90.6987 158.231 90.5989 158.051L88.4666 154.357L76.2608 161.404L72.0201 154.059L30.5499 178.002C30.4303 177.905 30.3003 177.82 30.1621 177.751L25.3096 180.553L24.1616 184.837L29.0334 193.275L83.2358 161.705L89.2339 161.787L91.9685 166.523L91.9488 166.623C91.7061 167.503 91.3933 168.644 91.0312 169.891C89.9954 173.661 88.7059 177.356 87.1713 180.952L86.4354 185.606L102.646 187.542L103.579 184.607ZM102.139 157.041L103.721 156.128C103.78 156.385 103.868 156.634 103.984 156.87C104.772 158.369 105.112 158.825 106.604 158.979C107.194 158.913 107.751 158.676 108.208 158.296C107.826 157.942 106.18 158.208 105.604 155.813C105.408 154.734 105.557 153.62 106.03 152.631C106.16 152.36 106.369 152.135 106.629 151.986L109.114 150.552C109.396 150.387 109.727 150.325 110.05 150.376C110.678 150.453 111.28 150.671 111.811 151.015C112.342 151.359 112.788 151.818 113.116 152.36C113.433 152.926 113.592 153.566 113.578 154.215C113.565 154.863 113.378 155.496 113.038 156.048C112.807 156.679 112.363 157.209 111.782 157.546L107.576 159.975C106.996 160.364 106.329 160.601 105.634 160.665C105.197 160.617 104.777 160.472 104.405 160.24C104.032 160.008 103.716 159.695 103.48 159.325C102.901 158.379 102.139 157.041 102.139 157.041Z" fill="white"/>
<path d="M98.0939 178.146L101.121 180.539L101.3 178.536C101.309 176.466 101.354 174.651 101.442 173.044L98.8026 172.967L98.0939 178.146Z" fill="white"/>
<path d="M99.8245 164.869L99.0126 171.112L101.556 171.311C101.888 166.626 102.505 164.139 103.138 162.901L99.8245 164.869Z" fill="white"/>
</svg>
