<svg width="256" height="256" viewBox="0 0 256 256" fill="none" xmlns="http://www.w3.org/2000/svg">
<path d="M112.932 114.346L113.376 116.515C113.503 117.135 113.27 117.731 112.75 118.031L103.917 123.131C103.657 123.281 103.584 123.554 103.734 123.814C103.884 124.074 104.157 124.147 104.417 123.997L126.76 111.097C127.366 110.747 127.499 109.977 127.199 109.458L126.449 108.159C126.099 107.553 125.316 107.196 124.71 107.546L112.932 114.346Z" fill="white"/>
<path d="M109.036 133.8L90.5898 144.45C90.4166 144.55 90.2934 144.736 90.3067 144.96C90.3201 145.183 90.4201 145.356 90.6067 145.479L96.9878 149.532L104.003 145.482C105.388 144.682 107.603 143.518 107.113 142.069C106.723 140.793 106.729 139.404 106.849 138.411C106.909 137.915 107.055 137.368 107.338 136.859C107.411 136.585 107.534 136.399 107.744 136.162L109.036 133.8ZM103.393 145.025L98.7163 147.725C97.1574 148.625 95.1584 148.163 94.2584 146.604C93.3584 145.045 93.9574 143.083 95.5163 142.183L100.193 139.483C101.752 138.583 103.751 139.045 104.651 140.604C105.551 142.163 104.952 144.125 103.393 145.025Z" fill="white"/>
<path d="M206.993 73.6658L208.378 72.8658L206.778 70.0945L205.393 70.8945L206.993 73.6658Z" fill="white"/>
<path d="M173.738 87.6676L172.266 88.5176L176.716 96.2252L178.188 95.3752L173.738 87.6676Z" fill="white"/>
<path d="M204.481 75.115L206.126 74.165L204.526 71.3938L202.881 72.3438L204.481 75.115Z" fill="white"/>
<path d="M209.203 68.6939L207.73 69.5439L209.33 72.3152L210.803 71.4652L209.203 68.6939Z" fill="white"/>
<path d="M201.364 71.7178L181.879 82.9678L184.629 87.7309L204.114 76.4809L201.364 71.7178Z" fill="white"/>
<path d="M181.013 83.4682L174.691 87.1182L177.441 91.8813L183.763 88.2313L181.013 83.4682Z" fill="white"/>
<path d="M133.16 110.981L132.457 111.964L136.707 119.325L137.66 118.775L133.16 110.981Z" fill="white"/>
<path d="M165.684 89.3166L136.152 106.367L133.861 109.999L138.611 118.226L146.232 113.826L143.082 108.37L143.948 107.87L147.098 113.326L148.917 112.276L145.767 106.82L146.633 106.32L149.783 111.776L151.602 110.726L148.452 105.27L149.318 104.77L152.468 110.226L154.286 109.176L151.136 103.72L152.002 103.22L155.152 108.676L156.971 107.626L153.821 102.17L154.687 101.67L157.837 107.126L159.656 106.076L156.506 100.62L157.372 100.12L160.522 105.576L162.34 104.526L159.19 99.0699L160.056 98.5699L163.206 104.026L165.025 102.976L161.875 97.5199L162.741 97.0199L165.891 102.476L175.85 96.7259L171.4 89.0183L165.684 89.3166Z" fill="white"/>
<path d="M123.542 104.524L123.892 105.131L122.939 105.681L122.589 105.074L120.684 106.174L121.034 106.781L120.081 107.331L119.731 106.724L117.826 107.824L118.176 108.431L117.223 108.981L116.873 108.374L114.882 109.524L115.232 110.131L114.366 110.631L114.016 110.024L112.024 111.174L112.374 111.781L111.508 112.281L111.158 111.674L109.216 112.911L109.516 113.431L108.65 113.931L108.35 113.411L106.358 114.561L106.658 115.081L105.792 115.581L105.492 115.061L103.5 116.211L103.8 116.731L102.934 117.231L102.634 116.711L100.642 117.861L100.942 118.381L100.076 118.881L99.7762 118.361L98.0441 119.361L99.0941 121.18L127.24 104.93L126.14 103.024L123.542 104.524Z" fill="white"/>
<path d="M215.586 48.1502L214.374 48.8502C214.201 48.9502 214.078 49.1368 214.091 49.36L214.105 52.5849C214.155 52.6715 214.155 52.6715 214.119 52.8081L214.919 54.1937C214.969 54.2803 215.055 54.2303 215.055 54.2303L222.503 49.9303C222.503 49.9303 222.503 49.9303 222.453 49.8437L220.377 48.8483L215.896 48.0868C215.81 48.1368 215.673 48.1002 215.586 48.1502ZM221.301 50.0473L215.238 53.5473L214.638 52.5081L219.971 49.5447" fill="white"/>
<path d="M95.2185 120.068L89.5893 123.318L87.7635 122.756C87.4903 122.683 87.1805 122.746 87.0073 122.846L86.3145 123.246C85.968 123.446 85.7216 123.819 85.835 124.216L86.286 127.997C86.1262 128.32 86.4494 128.48 86.6226 128.38L96.6685 122.58L95.2185 120.068ZM88.6573 125.704C88.7073 125.79 88.6707 125.927 88.5841 125.977L87.8913 126.377C87.8047 126.427 87.6681 126.39 87.6181 126.304L86.6681 124.658C86.6181 124.572 86.6547 124.435 86.7413 124.385L87.4341 123.985C87.5207 123.935 87.6573 123.972 87.7073 124.058L88.6573 125.704Z" fill="white"/>
<path d="M98.0946 141.849L96.1028 142.999C96.4662 143.828 98.1028 146.463 100.354 145.163C101.134 144.713 97.5661 145.733 98.0946 141.849Z" fill="white"/>
<path d="M212.219 71.9174L222.438 66.0174C221.904 63.0926 220.311 61.9337 219.428 61.4043L209.555 67.1043L212.305 71.8674L212.219 71.9174Z" fill="white"/>
<path d="M225.196 55.9956L224.846 55.3894L228.57 53.2394C228.83 53.0894 228.903 52.8162 228.753 52.5564L226.803 49.1789C226.653 48.9191 226.38 48.8459 226.12 48.9959L221.79 51.4959L221.617 51.5959L129.905 104.546L128.605 105.296L131.905 111.012L135.478 105.6L165.443 88.3002L170.986 88.1019L180.599 82.5519L179.899 81.3394L215.839 60.5894L216.189 61.1956L219.307 59.3956L220.007 60.6081C220.94 61.2241 222.646 62.7794 223.217 65.5676L229.712 61.8176C230.838 61.1676 231.204 59.8016 230.554 58.6758L229.904 57.5499C229.254 56.4241 227.888 56.0581 226.762 56.7081L223.211 58.7581L222.511 57.5456L225.196 55.9956Z" fill="white"/>
<path d="M126.269 106.646C126.728 106.843 127.152 107.176 127.402 107.609L128.702 109.86C129.052 110.467 128.782 111.2 128.262 111.5L105.14 124.85C104.533 125.2 103.591 125.167 103.154 124.61C102.481 123.844 102.637 122.715 103.503 122.215L111.73 117.465C112.25 117.165 112.483 116.569 112.356 115.949L112.016 114.76L99.6317 121.91L99.0255 122.26L97.2934 123.26L87.0743 129.16C86.5547 129.46 86.0851 129.846 85.7521 130.27L80.7069 136.531C81.5337 138.363 83.8203 142.124 88.2916 143.468C88.4014 143.058 88.6246 143.045 88.971 142.845L111.055 130.095L124.132 122.545C125.084 121.995 126 121.581 127.053 121.205L130.657 120.048C130.967 119.984 131.227 119.834 131.487 119.684L134.927 118.044L127.827 105.746L126.269 106.646ZM128.678 118.419C127.725 118.969 126.409 118.69 125.809 117.65C125.259 116.698 125.539 115.382 126.578 114.782C127.53 114.232 128.846 114.511 129.446 115.55C129.91 116.553 129.63 117.869 128.678 118.419Z" fill="white"/>
<path d="M126.781 115.934C126.484 116.221 126.338 116.767 126.588 117.2C126.888 117.72 127.571 117.903 128.091 117.603L126.781 115.934Z" fill="white"/>
<path d="M127.164 115.598L128.424 117.18C128.67 116.807 128.693 116.447 128.443 116.014C128.193 115.581 127.647 115.434 127.164 115.598Z" fill="white"/>
<path d="M88.6024 146.406C88.2792 146.247 88.0792 145.9 87.9292 145.64C83.2847 144.396 80.5517 140.662 79.3883 138.447L77.267 141.173C76.601 142.019 75.7984 142.829 74.9458 143.552L19.44 185.414C18.8838 185.85 18.7508 186.62 19.1508 187.313L34.3989 207.723C34.9855 208.539 36.1515 208.559 36.7309 207.762L74.3274 157.881C74.5372 157.645 74.747 157.408 74.9568 157.171C78.2209 154.825 82.186 156.693 82.8833 160.101L87.2104 179.195C87.3372 179.815 88.0702 180.084 88.5898 179.784L99.1053 173.598C99.5383 173.348 99.4981 172.678 98.9517 172.532L97.5357 172.079C96.0331 171.677 95.9857 169.395 95.4955 167.946L92.8828 155.02C92.5292 153.608 94.3077 151.888 95.0469 150.769L88.6024 146.406ZM93.9635 169.292C93.7403 169.305 93.4804 169.455 93.2572 169.469C91.6716 169.922 89.9494 170.339 88.3637 170.793C87.7441 170.92 87.4673 170.04 88.1235 169.777C88.3467 169.763 88.6065 169.613 88.8297 169.6C90.4154 169.146 92.1376 168.729 93.7233 168.276C94.3429 168.149 94.5331 169.079 93.9635 169.292ZM93.2063 166.38C92.9831 166.394 92.7233 166.544 92.5001 166.557C90.9144 167.011 89.1922 167.428 87.6065 167.881C86.9869 168.008 86.7101 167.129 87.3663 166.865C87.5895 166.852 87.8494 166.702 88.0726 166.689C89.6582 166.235 91.3804 165.818 92.9661 165.364C93.4991 165.288 93.8259 166.254 93.2063 166.38ZM92.4125 163.606C92.1893 163.619 91.9295 163.769 91.7063 163.782C90.1206 164.236 88.3984 164.653 86.8127 165.107C86.1931 165.233 85.9163 164.354 86.5726 164.091C86.7958 164.077 87.0556 163.927 87.2788 163.914C88.8644 163.46 90.5867 163.043 92.1723 162.59C92.7919 162.463 93.0321 163.479 92.4125 163.606ZM91.7053 160.781C91.4821 160.794 91.2223 160.944 90.9991 160.958C89.4135 161.411 87.6912 161.828 86.1056 162.282C85.486 162.408 85.2092 161.529 85.8654 161.266C86.0886 161.252 86.3484 161.102 86.5716 161.089C88.1572 160.635 89.8795 160.218 91.4651 159.765C92.0847 159.638 92.2749 160.567 91.7053 160.781ZM90.8615 157.919C90.6383 157.933 90.3785 158.083 90.1553 158.096C88.5697 158.55 86.8474 158.967 85.2618 159.42C84.6422 159.547 84.3654 158.668 85.0216 158.404C85.2448 158.391 85.5046 158.241 85.7278 158.227C87.3135 157.774 89.0357 157.357 90.6213 156.903C91.241 156.776 91.4811 157.792 90.8615 157.919Z" fill="white"/>
</svg>
