<svg width="256" height="256" viewBox="0 0 256 256" fill="none" xmlns="http://www.w3.org/2000/svg">
<path d="M164.797 68.2691L164.404 67.8979L164.527 67.6404L167.305 62.8601L164.882 64.2592L162.194 68.4284L102.686 102.785L105.259 107.241L186.75 60.1923L184.759 56.7439L164.797 68.2691ZM121.309 96.4061L111.272 102.201L110.263 100.453L120.3 94.6586L121.309 96.4061ZM135.871 87.9984L125.835 93.793L124.826 92.0455L134.862 86.2509L135.871 87.9984ZM150.043 79.8161L140.007 85.6107L138.998 83.8632L149.034 78.0686L150.043 79.8161ZM164.414 71.5195L154.377 77.314L153.368 75.5665L163.405 69.772L164.414 71.5195ZM178.586 63.3372L168.549 69.1317L167.54 67.3842L177.577 61.5897L178.586 63.3372Z" fill="white"/>
<path d="M100.993 122.185L82.7959 132.691L88.688 142.897L106.862 132.404L105.645 130.404L94.9445 136.582C94.4019 136.821 93.7913 136.856 93.225 136.68C92.6586 136.505 92.1746 136.131 91.8617 135.628C91.5402 135.074 91.3797 134.441 91.3982 133.8C91.4167 133.16 91.6135 132.537 91.9666 132.002C92.1235 131.743 92.3439 131.527 92.607 131.376L102.83 125.474L100.993 122.185ZM89.563 135.937L87.6932 137.017C87.2971 137.246 87.2823 137.301 87.1056 136.968C87.0216 136.822 87.4117 136.745 87.2156 136.19C87.2156 136.19 87.0811 135.957 87.0038 135.823C86.8944 135.705 86.813 135.564 86.7656 135.411C86.7182 135.257 86.706 135.095 86.7299 134.936C86.7538 134.777 86.8133 134.626 86.9038 134.493C86.9943 134.36 87.1135 134.249 87.2527 134.169C87.3919 134.089 87.5474 134.041 87.7076 134.029C87.8679 134.017 88.0288 134.041 88.1783 134.1C88.3279 134.158 88.4623 134.25 88.5716 134.368C88.6809 134.486 88.7622 134.627 88.8095 134.78C88.8862 134.9 88.9706 135.015 89.0621 135.124C89.4688 135.572 89.6983 135.23 89.8084 135.407C89.9185 135.585 90.0425 135.692 89.563 135.937Z" fill="white"/>
<path d="M85.3998 153.128C82.9016 154.182 80.0369 152.543 77.1 150.604C74.3764 148.806 70.9471 145.893 67.0403 146.121C65.6891 146.202 61.6811 148.61 59.7682 150.126C59.1342 150.609 58.6464 151.259 58.3591 152.003C57.2292 155.118 60.4692 157.286 61.0848 158.755C61.6969 160.186 61.9785 161.735 61.9084 163.289C61.3467 174.114 65.4859 188.803 72.9115 201.665C74.7208 204.799 78.0333 203.205 79.4102 202.348C80.0388 201.968 80.6895 201.626 81.3587 201.324C89.9807 197.316 94.7217 192.964 93.7094 191.21C91.6378 187.622 86.5742 184.744 86.4872 182.239C86.4319 180.516 87.564 177.889 87.486 177.041C87.4118 176.399 87.2296 175.775 86.9472 175.193C86.4409 174.144 85.8278 173.15 85.1177 172.226C84.8077 171.839 84.6366 171.359 84.632 170.863C84.6273 170.368 84.7894 169.884 85.0922 169.492C86.7504 167.346 85.8297 165.563 85.8297 165.563C85.7088 165.129 85.6805 164.673 85.7466 164.227C85.8128 163.781 85.9719 163.354 86.2137 162.973C86.4392 162.594 86.7558 162.278 87.1348 162.053L93.0325 158.546C93.3119 158.374 93.5128 158.099 93.5923 157.781C93.6054 157.722 93.5952 157.661 93.564 157.611C93.3016 157.156 93.0494 156.719 92.8572 156.279C90.8514 152.482 87.6922 152.162 85.3998 153.128Z" fill="white"/>
<path d="M59.2854 134.747C60.9435 134.534 62.6282 134.694 64.2164 135.216C64.4269 135.28 64.6208 135.389 64.7839 135.537C64.947 135.684 65.0753 135.866 65.1596 136.07C66.0889 138.298 67.2103 138.707 67.9385 138.69C68.2755 137.929 69.4339 132.025 68.7397 129.195C67.1728 130.1 67.2055 131.448 66.7742 132.194C65.7845 131.63 64.6155 131.47 63.511 131.748C61.198 132.221 59.3504 133.622 58.9617 134.374C58.9391 134.422 58.9309 134.475 58.938 134.526C58.9451 134.578 58.9672 134.627 59.0015 134.667C59.0359 134.706 59.0811 134.735 59.1315 134.749C59.1819 134.763 59.2354 134.762 59.2854 134.747Z" fill="white"/>
<path d="M85.5926 123.411C85.8376 123.728 86.1796 123.955 86.5663 124.059C86.953 124.163 87.363 124.136 87.7334 123.985L98.437 117.758L96.8295 114.974L86.1057 121.165C85.5873 121.465 84.7958 122.085 85.5926 123.411Z" fill="white"/>
<path d="M92.5174 135.405C92.7616 135.722 93.1036 135.951 93.4906 136.054C93.8776 136.158 94.2879 136.131 94.6582 135.978L105.315 129.779L103.714 127.006L93.0372 133.171C92.5087 133.452 91.7206 134.078 92.5174 135.405Z" fill="white"/>
<path d="M176.115 54.5266L168.531 58.9053L169.597 60.7518L177.181 56.3731L176.115 54.5266Z" fill="white"/>
<path d="M184.283 56.2426L182.106 54.3151L177.522 56.9619L177.519 56.956L169.935 61.3347L169.938 61.3406L168.476 62.1847L165.696 66.9741L184.283 56.2426Z" fill="white"/>
<path d="M119.617 106.283L100.004 117.606L101.104 119.511L120.716 108.188L119.617 106.283Z" fill="white"/>
<path d="M124.801 104.556C124.654 104.305 124.413 104.122 124.132 104.047C123.85 103.973 123.55 104.013 123.298 104.158L120.176 105.961L121.269 107.854L124.35 106.075C124.481 106.007 124.597 105.913 124.691 105.799C124.785 105.685 124.855 105.553 124.897 105.411C124.939 105.27 124.953 105.121 124.936 104.974C124.92 104.827 124.874 104.685 124.801 104.556Z" fill="white"/>
<path d="M94.788 111.438L76.5908 121.944L82.4593 132.109L100.633 121.616L98.75 118.354L88.0844 124.512C87.547 124.715 86.9594 124.744 86.4047 124.594C85.8501 124.445 85.3565 124.124 84.9939 123.679C84.6299 123.19 84.4057 122.611 84.3454 122.004C84.2851 121.397 84.3909 120.785 84.6515 120.234C84.7975 119.947 85.024 119.708 85.3034 119.547L95.9281 113.413L94.788 111.438ZM83.4715 125.226L81.6017 126.305C81.2056 126.534 81.1707 126.554 81.0142 126.256C80.9301 126.111 81.3202 126.033 81.1242 125.478C81.1242 125.478 80.9863 125.239 80.9123 125.111C80.803 124.993 80.7215 124.853 80.6741 124.699C80.6267 124.545 80.6145 124.383 80.6385 124.224C80.6624 124.065 80.7218 123.914 80.8123 123.781C80.9028 123.648 81.0221 123.538 81.1613 123.457C81.3004 123.377 81.4559 123.329 81.6162 123.317C81.7764 123.305 81.9373 123.329 82.0869 123.388C82.2365 123.447 82.3709 123.538 82.4802 123.656C82.5894 123.774 82.6707 123.915 82.718 124.069C82.7951 124.188 82.8795 124.303 82.9707 124.412C83.3773 124.861 83.6035 124.513 83.717 124.696C83.8304 124.879 83.9476 124.974 83.4715 125.226Z" fill="white"/>
<path d="M85.3204 141.921L86.2583 141.379L76.6904 124.807L75.7526 125.349C75.5614 125.461 75.4223 125.645 75.3658 125.859C75.3092 126.073 75.3397 126.302 75.4507 126.494L84.1946 141.639C84.31 141.821 84.4914 141.953 84.7011 142.005C84.9107 142.058 85.1325 142.027 85.3204 141.921Z" fill="white"/>
<path d="M66.7806 121.364C66.6914 121.21 66.5445 121.097 66.3722 121.051C66.1999 121.004 66.0163 121.029 65.8618 121.118C65.7073 121.207 65.5946 121.354 65.5484 121.526C65.5022 121.699 65.5264 121.882 65.6156 122.037C65.7048 122.191 65.8517 122.304 66.024 122.35C66.1963 122.396 66.3799 122.372 66.5344 122.283C66.6889 122.194 66.8016 122.047 66.8478 121.874C66.894 121.702 66.8698 121.518 66.7806 121.364Z" fill="white"/>
<path d="M111.488 117.897L111.476 117.904L103.001 122.797L104.615 125.593L113.096 120.696L112.145 119.048L112.15 119.044L188.714 74.8405L188.267 73.5685L111.488 117.897Z" fill="white"/>
<path d="M67.3533 124.225L69.4037 123.041L68.5529 121.568L76.1778 117.166C75.651 116.9 75.0755 116.746 74.4868 116.712C73.898 116.678 73.3086 116.765 72.7547 116.967L68.0947 119.658L67.2775 118.242L62.6699 120.902L65.2796 125.423L67.3417 124.232C67.3417 124.232 67.3475 124.229 67.3533 124.225ZM64.9966 122.363C64.8635 122.132 64.8018 121.868 64.8192 121.602C64.8366 121.337 64.9323 121.082 65.0943 120.871C65.2563 120.66 65.4772 120.502 65.7291 120.416C65.9811 120.331 66.2527 120.322 66.5097 120.391C66.7667 120.46 66.9975 120.603 67.1729 120.803C67.3484 121.003 67.4605 121.251 67.4953 121.515C67.53 121.778 67.4857 122.047 67.368 122.285C67.2504 122.524 67.0646 122.722 66.8342 122.855C66.5292 123.031 66.1674 123.081 65.8263 122.993C65.4852 122.905 65.1922 122.688 65.01 122.386L64.9966 122.363Z" fill="white"/>
<path d="M101.055 151.135C103.77 150.227 104.498 148.945 104.737 148.31C104.976 147.675 101.839 149.882 98.9356 148.149C96.0322 146.416 97.5123 143.262 97.5123 143.262L96.6917 141.841C96.128 142.089 91.7013 144.147 90.8054 146.793C90.674 147.181 90.6301 147.593 90.6769 147.999C90.7237 148.406 90.8601 148.797 91.0762 149.145L92.8936 148.096C92.8936 148.096 97.8533 152.207 101.055 151.135Z" fill="white"/>
<path d="M105.012 108.161L102.096 103.111L98.6604 104.962L69.4715 121.814L70.3223 123.288L67.806 124.741C68.7479 125.91 69.3035 127.342 69.396 128.84C70.1466 131.607 69.1782 137.261 68.6501 138.754C67.3339 143.886 62.2226 146.387 60.2945 147.5C59.9182 147.739 59.6102 148.071 59.4004 148.465C59.1906 148.858 59.0862 149.299 59.0973 149.745C61.6878 148.07 64.5374 145.944 66.9752 145.39C70.7123 144.545 74.9363 148.297 77.4808 149.973C80.258 151.81 82.9346 153.379 85.1272 152.455C87.6869 151.373 91.2149 151.713 93.4403 155.904C93.5512 156.096 93.6689 156.3 93.7766 156.486C94.308 156.304 95.548 156.73 95.548 156.73C96.7325 157.034 97.989 156.866 99.0515 156.26L106.42 152.006C107.215 151.56 107.899 150.941 108.422 150.195C108.944 149.448 109.291 148.593 109.437 147.693L109.874 143.488C109.964 142.788 109.826 142.078 109.482 141.462L106.956 137.087C106.84 136.894 106.765 136.679 106.735 136.455C106.706 136.231 106.724 136.004 106.787 135.787C106.85 135.57 106.958 135.369 107.102 135.196C107.247 135.023 107.426 134.882 107.628 134.781L115.271 130.369L115.313 130.267L113.471 121.28L104.961 126.193L108.462 132.257L87.8592 144.152L86.5947 141.962L85.5054 142.591C85.1964 142.769 84.8292 142.817 84.4846 142.725C84.14 142.633 83.8462 142.407 83.6678 142.098L74.7658 126.68C74.5874 126.371 74.5391 126.003 74.6314 125.659C74.7237 125.314 74.9492 125.02 75.2582 124.842L76.3474 124.213L75.0897 122.035L95.6926 110.139L99.6745 117.036L123.266 103.416C123.409 103.332 123.568 103.281 123.733 103.265C123.898 103.248 124.065 103.268 124.221 103.322C126.006 103.993 125.949 105.952 124.72 106.661L101.42 120.114L102.613 122.26L188.112 72.8971L187.103 60.8045L105.012 108.161ZM90.5044 149.514C90.3396 149.228 89.7771 147.689 90.125 146.758C91.1976 143.894 95.5566 141.611 96.3576 141.249L103.097 137.358C103.361 137.206 103.675 137.164 103.97 137.243C104.264 137.322 104.516 137.515 104.668 137.779L107.254 142.259C107.555 142.773 107.716 143.358 107.721 143.954C107.741 145.442 107.583 148.29 106.213 149.656C104.295 151.54 99.45 153.56 98.4015 154.166C97.353 154.771 92.8627 154.164 90.5044 149.514Z" fill="white"/>
</svg>
