<svg width="256" height="256" viewBox="0 0 256 256" fill="none" xmlns="http://www.w3.org/2000/svg">
<path d="M134.021 95.3799C134.021 95.3799 121.286 102.37 119.189 103.92C117.065 105.485 111.605 112.038 111.605 112.038L109.08 113.495L111.985 118.527L114.588 117.024C114.588 117.024 127.698 112.201 138.306 105.656C139.478 104.933 139.887 103.376 139.199 102.184L135.551 95.8639C135.242 95.3293 134.581 95.115 134.021 95.3799Z" fill="white"/>
<path d="M81.8554 129.272L76.123 132.581C76.123 132.581 72.1347 133.143 70.8115 133.685C69.705 134.136 62.5295 138.408 60.227 139.784C59.8238 140.017 59.7005 140.532 59.9333 140.935L63.5283 147.04C63.923 147.724 64.7889 147.949 65.4777 147.563C68.2326 146.019 74.5464 142.198 75.2617 141.575C76.1708 140.781 78.9417 137.463 78.9417 137.463L83.7358 134.31L84.4818 133.821L81.8554 129.272Z" fill="white"/>
<path d="M98.814 118.546L97.5009 117.142C97.1616 116.777 96.6126 116.697 96.1831 116.945L92.2075 119.228C91.7692 119.481 91.5607 120.011 91.721 120.491L92.3116 122.324L98.8328 118.559L98.814 118.546Z" fill="white"/>
<path d="M112.941 120.183L113.463 121.085L114.891 120.261C114.891 120.261 114.033 119.786 112.941 120.183Z" fill="white"/>
<path d="M85.6904 135.916L86.2117 136.819L84.783 137.644C84.783 137.644 84.8012 136.663 85.6904 135.916Z" fill="white"/>
<path d="M100.441 118.67L99.5034 119.212L91.573 123.673L87.2522 126.25L90.329 131.579L106.906 121.892L103.869 116.633L100.433 118.675L100.441 118.67ZM98.9399 126.292C97.5726 127.081 95.8167 126.611 95.0273 125.244C94.2378 123.876 94.7083 122.12 96.0757 121.331C97.443 120.541 99.1988 121.012 99.9883 122.379C100.778 123.747 100.307 125.503 98.9399 126.292Z" fill="white"/>
<path d="M96.5963 122.234C95.7285 122.735 95.4322 123.841 95.9332 124.709C96.4342 125.576 97.5402 125.873 98.408 125.372C99.2757 124.871 99.5721 123.765 99.0711 122.897C98.5701 122.029 97.464 121.733 96.5963 122.234Z" fill="white"/>
<path d="M87.2301 142.671L87.2038 142.686L91.2673 149.724L91.6442 149.507C93.0011 148.618 94.476 147.732 96.0776 146.842L105.738 141.066L117.635 133.858L121.623 131.556L121.233 130.881L117.373 124.134L87.2301 142.671Z" fill="white"/>
<path d="M180.367 90.6985C180.367 90.6985 180.319 90.656 180.295 90.6348C180.126 90.4636 179.903 90.3001 179.657 90.138L179.406 90.0261L176.494 89.7202L118.284 123.608L122.124 130.32L180.903 93.2872C180.961 93.125 180.984 92.983 181.021 92.8448C181.105 92.341 181.094 91.4937 180.372 90.7073L180.367 90.6985ZM124.483 124.587L121.844 126.17C121.844 126.17 121.004 126.152 121.31 125.286L123.897 123.734C123.897 123.734 124.781 123.808 124.483 124.587ZM131.81 120.194L129.17 121.776C129.17 121.776 128.33 121.758 128.637 120.892L131.223 119.34C131.223 119.34 132.107 119.414 131.81 120.194ZM139.137 115.8L136.497 117.382C136.497 117.382 135.657 117.365 135.964 116.498L138.55 114.946C138.55 114.946 139.434 115.02 139.137 115.8ZM146.463 111.406L143.824 112.988C143.824 112.988 142.984 112.971 143.29 112.104L145.877 110.553C145.877 110.553 146.761 110.626 146.463 111.406ZM153.79 107.012L151.151 108.595C151.151 108.595 150.311 108.577 150.617 107.711L153.204 106.159C153.204 106.159 154.088 106.233 153.79 107.012ZM161.112 102.61L158.473 104.192C158.473 104.192 157.633 104.174 157.939 103.308L160.526 101.756C160.526 101.756 161.41 101.83 161.112 102.61ZM168.439 98.216L165.8 99.7983C165.8 99.7983 164.96 99.7807 165.266 98.9143L167.853 97.3625C167.853 97.3625 168.737 97.4364 168.439 98.216Z" fill="white"/>
<path d="M80.3925 159.754C80.3925 159.754 83.199 157.105 85.079 159.795C85.079 159.795 87.6341 163.006 93.0125 158.861C98.3858 154.706 96.5463 150.954 96.0659 150.202C95.5856 149.451 94.871 148.274 96.4238 147.401C97.9678 146.533 84.9164 153.157 80.4063 159.758L80.3925 159.754ZM95.7853 153.987C94.553 157.48 88.9668 161.185 86.7331 159.704C86.7331 159.704 83.3201 158.368 85.2752 155.661C85.2752 155.661 86.7879 154.799 86.6076 155.196C86.3141 155.821 87.7024 159.157 90.4611 157.903C90.4611 157.903 87.169 157.221 87.5252 154.619C87.5252 154.619 87.5905 154.044 88.472 153.547L88.8955 152.519L93.551 149.551C93.551 149.551 97.0125 150.486 95.7853 153.987Z" fill="white"/>
<path d="M71.1401 177.553L75.2255 176.795C75.7322 176.701 76.0565 176.21 75.9538 175.709C75.4111 173.089 74.2181 165.375 77.3296 159.348C77.7529 158.542 78.0038 157.661 78.1492 156.759C78.3363 155.646 78.4859 154.286 78.2968 153.554C78.2968 153.554 77.9488 152.364 74.2477 156.803C74.2477 156.803 70.1817 162.189 69.9807 168.359C69.8383 172.485 69.9613 175.289 70.0504 176.698C70.0931 177.258 70.602 177.653 71.154 177.557L71.1401 177.553Z" fill="white"/>
<path d="M20.6138 184.041C20.5011 183.826 20.4022 183.614 20.3033 183.402C19.2013 184.004 18.2307 184.529 17.4493 184.957C16.1632 185.664 16.7067 186.788 17.3528 188.109C20.0261 193.59 27.0626 206.87 33.8465 209.674C33.8465 209.674 34.2589 210.955 37.8055 208.171C37.8055 208.171 37.8268 208.147 37.8692 208.099C30.8379 203.592 23.4577 189.797 20.5999 184.038L20.6138 184.041Z" fill="white"/>
<path d="M70.2605 182.888C71.5836 182.872 75.6523 182.592 79.5263 180.051C79.7404 179.916 79.7993 179.613 79.664 179.399C79.5375 179.18 79.3415 178.861 79.1327 178.479C75.016 181.51 70.5447 181.579 69.2904 181.532C69.426 181.827 69.5617 182.123 69.6774 182.465C69.7652 182.718 69.9931 182.891 70.2605 182.888Z" fill="white"/>
<path d="M120.027 143.123C118.276 141.061 116.843 138.721 115.693 136.264L112.193 138.379C113.776 140.655 115.309 142.926 116.991 145.11L120.022 143.114L120.027 143.123Z" fill="white"/>
<path d="M118.052 134.843L116.214 135.951C117.753 138.171 119.225 140.418 120.729 142.658L121.261 142.305C121.828 141.931 121.995 141.168 121.621 140.601C120.707 139.2 119.071 136.65 118.06 134.838L118.052 134.843Z" fill="white"/>
<path d="M107.905 151.114L116.293 145.582C114.373 143.593 112.856 141.208 111.685 138.694L106.281 141.966L102.998 143.931C104.593 146.329 106.187 148.787 107.891 151.11L107.905 151.114Z" fill="white"/>
<path d="M101.091 145.081C102.68 147.529 104.316 149.998 106.135 152.278L107.422 151.43C105.47 149.285 103.896 146.781 102.601 144.174L101.091 145.081Z" fill="white"/>
<path d="M100.544 145.408L97.9659 146.955C98.9206 148.507 100.471 151.82 101.972 153.571C102.435 154.11 103.234 154.198 103.819 153.813L105.402 152.771C103.375 150.657 101.766 148.092 100.549 145.417L100.544 145.408Z" fill="white"/>
<path d="M104.69 116.275L108.966 123.682L112.648 121.556L108.371 114.15C108.235 113.913 107.945 113.835 107.708 113.972L104.868 115.612C104.631 115.748 104.554 116.039 104.69 116.275ZM108.196 118.096C107.766 118.344 107.213 118.196 106.965 117.767C106.717 117.337 106.865 116.784 107.295 116.536C107.724 116.288 108.277 116.436 108.525 116.866C108.773 117.295 108.625 117.848 108.196 118.096Z" fill="white"/>
<path d="M82.8665 128.898L87.1274 136.278L90.8087 134.153L86.5478 126.773C86.4061 126.527 86.0881 126.442 85.8427 126.584L83.0466 128.198C82.8012 128.34 82.716 128.658 82.8577 128.903L82.8665 128.898ZM86.3619 130.701C85.9324 130.949 85.3794 130.801 85.1314 130.372C84.8835 129.942 85.0316 129.389 85.4611 129.141C85.8906 128.893 86.4436 129.042 86.6916 129.471C86.9396 129.9 86.7914 130.454 86.3619 130.701Z" fill="white"/>
<path d="M86.5409 145.604L86.3856 145.963C85.9405 146.933 84.978 148.423 85.3911 149.564C85.5449 149.709 85.6811 149.864 85.7874 150.048C86.3997 151.109 86.0367 152.463 84.9761 153.076C83.9155 153.688 82.5606 153.325 81.9483 152.264C81.336 151.204 81.699 149.849 82.7596 149.237C82.9349 149.135 83.1217 149.074 83.3135 149.022C83.3334 148.976 83.4369 148.811 83.4586 148.342C83.522 147.359 83.6691 145.428 83.6863 145.336C83.7159 145.225 83.7714 144.714 83.6392 144.627L81.7891 145.835L80.2054 146.796C79.936 146.917 79.6616 147.028 79.3959 147.135C77.3325 148.642 72.4997 152.963 68.6451 162.399C68.6451 162.399 65.1675 166.861 61.4339 166.831C61.4339 166.831 55.429 165.6 54.2849 165.501C53.706 165.45 43.9459 170.629 34.3177 175.814C29.5299 178.391 24.7836 180.979 21.2182 182.921C21.3221 183.142 21.4261 183.362 21.5438 183.586C24.4269 189.39 31.7464 203.079 38.5858 207.335C40.0011 205.758 43.2989 202.078 47.0183 197.792C51.6319 192.463 56.9017 186.207 60.0421 181.869C60.0421 181.869 65.515 175.823 68.69 180.371L69.1411 180.484C69.6736 180.516 73.4706 180.696 77.2571 178.51C77.7655 178.217 78.2398 177.884 78.7127 177.529C77.1802 174.207 75.2912 167.514 79.8093 159.915C81.7818 156.591 85.2727 153.711 90.4271 150.291L86.9758 144.313C86.8849 144.763 86.7364 145.234 86.576 145.584L86.5409 145.604ZM79.3269 152.785C79.3935 153.365 79.3631 154.143 79.2726 154.978C79.1234 156.42 78.8524 157.873 78.1815 159.161C74.9004 165.461 76.1728 173.515 76.6632 175.943C76.7865 176.561 76.6254 177.052 76.082 177.365C75.933 177.451 75.7776 177.506 75.612 177.543L71.2606 178.326C70.8392 178.406 70.4069 178.305 70.0781 178.039C69.7405 177.778 69.6406 177.625 69.6199 177.205C69.5409 175.813 69.4246 172.818 69.5857 168.401C69.8402 161.838 74.0859 156.196 74.2668 155.963C75.668 154.301 76.7227 153.213 77.471 152.687C77.9103 152.375 78.5959 151.863 78.9419 152.037C79.1848 152.154 79.2709 152.607 79.3407 152.788L79.3269 152.785Z" fill="white"/>
<path d="M79.6336 145.888L81.3876 144.816L83.2283 143.754C83.1169 143.561 82.9803 143.324 82.8386 143.079C82.7576 142.939 82.3703 142.227 82.3703 142.227C82.0906 141.723 81.8514 141.288 81.5084 140.937L81.4264 140.856C81.3408 140.788 81.2676 140.702 81.2032 140.611L80.7386 140.879L78.629 144.411C78.629 144.411 78.1109 144.768 77.8729 145.186C77.635 145.604 78.3429 146.142 78.3429 146.142C78.8198 146.381 79.6248 145.893 79.6248 145.893L79.6336 145.888Z" fill="white"/>
<path d="M84.6154 140.043C84.1238 139.03 83.1426 139.152 83.1426 139.152C81.5183 139.739 82.1199 140.093 82.1199 140.093L82.2548 140.226C82.8198 140.799 83.1228 141.466 83.5138 142.163C83.7162 142.514 83.9227 142.932 84.0985 143.217C84.5637 143.941 84.2677 145.129 84.2677 145.129C84.2677 145.129 83.8496 147.38 83.7811 148.355C83.7127 149.329 83.1769 149.393 83.1769 149.393C83.1769 149.393 82.9011 149.482 82.8185 149.542C82.8185 149.542 82.8185 149.542 82.801 149.552C81.9859 150.023 81.7043 151.073 82.1749 151.888C82.6456 152.704 83.8852 153.11 84.7091 152.634C85.533 152.158 85.8058 151.113 85.3351 150.298C85.2289 150.114 85.0926 149.959 84.9351 149.827C84.7549 149.394 84.8219 148.923 84.8773 148.412C85.0111 147.166 85.5927 145.825 85.8983 145.099C86.1419 144.549 86.3618 143.756 86.3245 143.287C86.2914 142.885 85.8955 142.787 85.8955 142.787C85.8955 142.787 85.0982 141.062 84.6066 140.048L84.6154 140.043Z" fill="white"/>
<path d="M78.1201 146.586C77.5559 146.176 77.1049 145.536 77.4449 144.931C77.6791 144.527 78.0718 144.195 78.2582 144.052L79.1692 142.533L77.1736 144.339C77.1736 144.339 75.8449 144.791 76.3666 146.079C76.3666 146.079 76.7463 147.04 77.6465 146.778C77.8734 146.705 78.0426 146.654 78.1717 146.615C78.1579 146.611 78.1353 146.612 78.1164 146.6L78.1201 146.586Z" fill="white"/>
<path d="M230.904 55.4426L115.416 120.927L114.137 121.666L115.513 124.05L116.86 123.226L176.28 88.6392L179.2 88.9401L232.574 58.335C232.942 58.1225 233.077 57.6474 232.864 57.2792L231.968 55.7278C231.756 55.3597 231.286 55.2337 230.918 55.4463L230.904 55.4426Z" fill="white"/>
<path d="M109.617 124.264L111.064 126.77L114.764 124.494L113.377 122.093L109.617 124.264Z" fill="white"/>
<path d="M109.066 124.582L85.6698 138.043L84.1973 138.894C84.5156 139.06 84.832 139.345 85.0651 139.83C85.3958 140.504 85.9073 141.471 86.1785 142.062L86.6694 141.779L110.515 127.111L109.053 124.578L109.066 124.582ZM93.2516 135.933L92.6697 134.925L108.999 125.498L109.581 126.506L93.2516 135.933Z" fill="white"/>
</svg>
