<svg width="256" height="256" viewBox="0 0 256 256" fill="none" xmlns="http://www.w3.org/2000/svg">
<path d="M108.641 114.25C109.329 113.853 109.543 112.24 110.317 111.793C111.176 111.297 114.4 110.925 116.806 109.536C119.213 108.146 120.373 105.987 121.232 105.491C122.092 104.995 123.302 105.9 124.202 106.068C124.559 106.092 124.988 105.843 125.074 105.794L125.934 105.298L121.766 98.0778L120.906 98.574C120.648 98.7229 120.354 99.0073 120.281 99.2785C120.014 100.006 119.836 101.484 119.148 101.881C118.289 102.377 115.852 102.523 113.531 103.863C111.297 105.153 108.92 107.786 108.319 108.133C107.459 108.63 106.312 108.032 105.452 108.528C104.593 109.024 108.04 114.597 108.641 114.25Z" fill="white"/>
<path d="M76.6146 142.939L60.714 152.12C61.111 152.807 62.0175 154.576 62.9966 156.073L78.8973 146.893L76.6146 142.939Z" fill="white"/>
<path d="M76.1187 142.08L75.1263 140.361L63.695 146.961L62.7025 145.242C62.3588 145.441 62.015 145.639 61.7208 145.923C61.2184 146.443 61.0864 147.207 61.4337 147.808C61.93 148.668 62.1417 149.233 62.5751 149.785L76.0691 141.994L76.1187 142.08Z" fill="white"/>
<path d="M189.034 88.3488L186.602 84.1373L180.328 87.7598L182.76 91.9713L189.034 88.3488Z" fill="white"/>
<path d="M124.272 99.8399L125.662 102.246L126.693 101.651C126.865 101.552 127.222 101.575 127.371 101.833L132.581 110.857C132.78 111.201 133.2 111.532 133.521 111.69L135.247 112.298L138.509 117.749L143.58 114.821L140.652 109.75C140.404 109.321 139.713 108.917 138.962 109.007C138.347 109.133 136.403 109.338 135.209 109.455C134.545 109.494 133.903 109.177 133.556 108.576L127.701 98.4336C127.552 98.1757 127.145 98.0667 126.887 98.2156L124.223 99.7539L124.272 99.8399Z" fill="white"/>
<path d="M174.221 87.5035L174.817 88.5349L173.098 89.5274L172.502 88.496L170.096 89.8854L170.691 90.9168L168.972 91.9093L168.377 90.8779L165.97 92.2673L166.566 93.2987L164.847 94.2912L164.251 93.2598L161.845 94.6492L162.44 95.6806L160.721 96.6731L160.126 95.6417L157.719 97.0311L158.315 98.0625L156.596 99.055L156 98.0236L153.594 99.413L154.189 100.444L152.47 101.437L151.875 100.405L149.468 101.795L150.063 102.826L148.344 103.819L147.749 102.787L145.342 104.177L145.938 105.208L144.219 106.201L143.623 105.169L140.701 106.856L144.77 113.904L181.9 92.4672L177.831 85.4194L174.221 87.5035ZM146.207 110.439C145.864 110.637 145.321 110.492 145.123 110.148C144.924 109.804 145.07 109.262 145.413 109.064C145.757 108.865 146.3 109.01 146.498 109.354C146.697 109.698 146.551 110.24 146.207 110.439ZM149.645 108.454C149.302 108.652 148.759 108.507 148.561 108.163C148.362 107.819 148.508 107.277 148.851 107.079C149.195 106.88 149.737 107.025 149.936 107.369C150.134 107.713 149.989 108.255 149.645 108.454ZM153.083 106.469C152.74 106.667 152.197 106.522 151.999 106.178C151.8 105.835 151.946 105.292 152.289 105.094C152.633 104.895 153.175 105.041 153.374 105.384C153.572 105.728 153.427 106.27 153.083 106.469ZM156.521 104.484C156.178 104.683 155.635 104.537 155.437 104.193C155.238 103.85 155.384 103.307 155.727 103.109C156.071 102.91 156.613 103.056 156.812 103.399C157.01 103.743 156.865 104.286 156.521 104.484ZM159.959 102.499C159.615 102.698 159.073 102.552 158.875 102.208C158.676 101.865 158.822 101.322 159.165 101.124C159.509 100.925 160.051 101.071 160.25 101.415C160.448 101.758 160.303 102.301 159.959 102.499ZM163.397 100.514C163.053 100.713 162.511 100.567 162.313 100.224C162.114 99.8798 162.26 99.3375 162.603 99.139C162.947 98.9405 163.489 99.0858 163.688 99.4296C163.886 99.7734 163.741 100.316 163.397 100.514ZM166.835 98.5293C166.491 98.7278 165.949 98.5825 165.751 98.2387C165.552 97.8949 165.697 97.3526 166.041 97.1541C166.385 96.9556 166.927 97.1009 167.126 97.4447C167.324 97.7885 167.179 98.3308 166.835 98.5293ZM170.273 96.5444C169.929 96.7429 169.387 96.5976 169.189 96.2538C168.99 95.91 169.135 95.3677 169.479 95.1692C169.823 94.9707 170.365 95.116 170.564 95.4598C170.762 95.8036 170.617 96.3459 170.273 96.5444ZM173.711 94.5595C173.367 94.7579 172.825 94.6126 172.627 94.2688C172.428 93.925 172.573 93.3828 172.917 93.1843C173.261 92.9858 173.803 93.1311 174.002 93.4749C174.2 93.8187 174.055 94.361 173.711 94.5595ZM177.149 92.5745C176.805 92.773 176.263 92.6277 176.065 92.2839C175.866 91.9401 176.011 91.3978 176.355 91.1993C176.699 91.0009 177.241 91.1462 177.44 91.49C177.638 91.8338 177.493 92.376 177.149 92.5745Z" fill="white"/>
<path d="M222.416 63.0015L219.838 64.4902L222.716 69.4753L225.294 67.9866L222.416 63.0015Z" fill="white"/>
<path d="M213.567 68.9127L196.205 78.9365L198.438 82.8042L215.8 72.7804L213.567 68.9127Z" fill="white"/>
<path d="M225.684 61.1162L228.562 66.1013L234.492 62.6773L231.614 57.6922L225.684 61.1162ZM232.413 62.8466L229.834 64.3353C229.576 64.4841 229.305 64.4115 229.156 64.1536C229.007 63.8958 229.08 63.6246 229.338 63.4758L231.916 61.9871C232.174 61.8382 232.445 61.9109 232.594 62.1687C232.743 62.4266 232.67 62.6977 232.413 62.8466ZM231.122 60.6119L228.544 62.1006C228.286 62.2495 228.015 62.1768 227.866 61.919C227.717 61.6611 227.79 61.39 228.048 61.2411L230.626 59.7524C230.884 59.6035 231.155 59.6762 231.304 59.934C231.453 60.1919 231.38 60.463 231.122 60.6119Z" fill="white"/>
<path d="M225.221 62.2992L223.674 63.1924L225.808 66.8882L227.355 65.995L225.221 62.2992Z" fill="white"/>
<path d="M141.584 125.256C140.897 125.653 140.679 126.467 141.076 127.154C141.473 127.842 142.286 128.06 142.974 127.663C143.661 127.266 143.879 126.453 143.482 125.765C143.085 125.077 142.272 124.859 141.584 125.256Z" fill="white"/>
<path d="M198.606 87.0624L196.286 88.4022L198.221 91.7542C198.909 91.3572 200.542 90.4144 200.542 90.4144C200.542 90.4144 202.684 90.5526 202.694 89.974C202.836 88.6315 201.013 85.6729 200.014 85.3327C199.508 85.0518 198.606 87.0624 198.606 87.0624Z" fill="white"/>
<path d="M190.063 89.9316L187.312 91.5195L190.935 97.7938L193.685 96.2059L190.063 89.9316Z" fill="white"/>
<path d="M186.006 91.2431L183.256 92.8311L187.821 100.738L190.522 99.0645L186.006 91.2431Z" fill="white"/>
<path d="M105.578 142.49C105.063 142.788 104.881 143.466 105.179 143.982C105.476 144.497 106.154 144.679 106.67 144.381C107.186 144.083 107.367 143.406 107.07 142.89C106.772 142.374 106.094 142.193 105.578 142.49Z" fill="white"/>
<path d="M194.226 79.2776L190.96 81.1633L190.265 79.96L186.52 82.0078L190.837 89.4854L194.533 87.3516L193.887 86.2343L197.325 84.2494L197.58 83.3004L195.347 79.4326L194.226 79.2776Z" fill="white"/>
<path d="M195.028 88.2109L191.332 90.3447L194.012 94.986L197.707 92.8522L195.028 88.2109Z" fill="white"/>
<path d="M219.128 65.2438L214.229 68.0723L216.859 72.6276L221.758 69.7991L219.128 65.2438Z" fill="white"/>
<path d="M21.9511 179.658C20.4695 178.679 19.1962 177.466 17.0076 178.042C14.0321 178.843 14.0658 180.887 14.959 182.434C15.9019 184.067 20.5441 184.366 22.6539 185.44C24.357 186.405 31.5611 195.31 33.9757 198.5C34.4587 199.138 35.3084 199.22 35.9464 198.737C36.2902 198.539 36.6703 198.205 37.1001 197.957L21.9511 179.658Z" fill="white"/>
<path d="M59.4564 154.107C59.4564 154.107 56.4005 161.716 55.1777 163.568C53.9054 165.334 47.189 171.962 42.5672 173.485C37.9817 174.871 23.1939 179.627 23.1939 179.627L38.0088 197.546C43.5919 193.521 54.7946 185.334 55.1747 185C55.6771 184.481 53.9429 179.294 55.9985 176.502C58.0542 173.711 65.1854 171.771 66.7821 170.964C67.8631 170.455 68.9042 169.28 69.6149 168.526C63.5751 161.241 59.4564 154.107 59.4564 154.107ZM40.573 192.857C40.6227 192.943 40.6227 192.943 40.573 192.857C40.3152 193.006 40.044 192.933 39.8588 192.811L32.4829 184.005C32.334 183.748 32.3207 183.526 32.5289 183.291C32.7868 183.142 33.0083 183.129 33.2431 183.337L40.6191 192.143C40.8539 192.351 40.8309 192.708 40.573 192.857ZM42.2424 191.779C41.9846 191.928 41.7134 191.855 41.5282 191.733L34.6351 183.565C34.4863 183.307 34.473 183.086 34.6812 182.851C34.9391 182.702 35.1606 182.689 35.3954 182.897L42.2885 191.065C42.4737 191.187 42.4506 191.544 42.2424 191.779ZM43.8621 190.614C43.6043 190.763 43.3331 190.691 43.148 190.568L36.923 183.161C36.7741 182.903 36.7609 182.681 36.9691 182.447C37.2269 182.298 37.4484 182.284 37.6833 182.493L43.9082 189.9C44.143 190.108 44.0704 190.38 43.8621 190.614ZM45.4819 189.45C45.224 189.599 44.9529 189.526 44.7677 189.404L39.2109 182.757C39.062 182.499 39.0487 182.277 39.2569 182.043C39.5148 181.894 39.7363 181.88 39.9711 182.089L45.4783 188.65C45.7628 188.944 45.6901 189.215 45.4819 189.45Z" fill="white"/>
<path d="M92.0989 161.618C92.0989 161.618 92.1848 161.569 92.1352 161.483C90.5021 162.426 89.8411 163.266 89.5239 163.907C90.6156 165.798 93.8888 165.513 94.8343 164.967C94.8343 164.967 94.8706 164.831 94.7847 164.881C91.7427 164.574 91.4777 163.123 92.0989 161.618Z" fill="white"/>
<path d="M75.8621 167.44C76.0606 167.784 76.5435 168.422 76.8279 168.716C77.2976 169.132 79.9656 168.394 80.9084 170.027C81.7024 171.402 81.3507 178.138 81.1496 179.973C81.1266 180.33 81.1895 180.637 81.4243 180.846L84.5506 186.26C84.7491 186.604 85.4136 186.564 85.6715 186.415L92.0317 182.743C93.0631 182.148 89.703 179.504 89.5506 178.446C89.4478 177.474 89.8782 169.089 89.8782 169.089C89.8782 169.089 91.5778 169.254 92.6721 168.965C94.4176 168.416 96.8242 167.027 97.6208 166.223C99.0421 164.715 100.252 162.641 99.2094 160.836L96.2321 155.679L75.8621 167.44ZM97.075 165.277C94.7083 167.332 91.8187 168.083 89.732 166.652C87.6948 165.307 88.7457 163.554 88.7457 163.554C89.4528 162 91.4756 160.145 94.7719 159.502C98.3392 158.932 100.08 162.741 97.075 165.277Z" fill="white"/>
<path d="M156.018 110.161L153.783 111.451L156.959 116.952L159.194 115.662L156.018 110.161Z" fill="white"/>
<path d="M152.278 110.83L138.096 119.018L134.722 113.174C134.523 112.83 134.166 112.807 133.908 112.956L131.158 114.543L130.463 113.34C130.215 112.91 129.844 112.666 129.352 112.607L126.445 112.336C126.174 112.264 125.867 112.327 125.609 112.475L111.943 120.366C111.943 120.366 110.967 119.668 109.678 120.413L106.24 122.397L107.729 124.976L120.707 117.483L122.99 121.437L127.287 118.955L133.54 129.785L138.353 127.006C138.353 127.006 139.918 130.114 142.391 129.832C144.728 129.514 146.222 127.734 146.909 124.358L156.879 118.602L152.363 110.781L152.278 110.83ZM143.369 128.35C142.252 128.995 140.896 128.632 140.251 127.515C139.606 126.397 139.969 125.042 141.087 124.397C142.204 123.751 143.56 124.115 144.205 125.232C144.85 126.349 144.487 127.705 143.369 128.35Z" fill="white"/>
<path d="M174.453 98.0281L172.734 99.0205L174.868 102.716L176.587 101.724L174.453 98.0281Z" fill="white"/>
<path d="M171.789 99.5661L170.07 100.559L172.204 104.254L173.923 103.262L171.789 99.5661Z" fill="white"/>
<path d="M166.631 102.544L164.912 103.536L167.046 107.232L168.765 106.239L166.631 102.544Z" fill="white"/>
<path d="M163.967 104.082L162.248 105.074L164.382 108.77L166.101 107.778L163.967 104.082Z" fill="white"/>
<path d="M169.209 101.054L167.49 102.047L169.624 105.743L171.343 104.75L169.209 101.054Z" fill="white"/>
<path d="M182.446 93.4132L180.555 94.5049L182.688 98.2007L184.579 97.109L182.446 93.4132Z" fill="white"/>
<path d="M177.031 96.5388L175.312 97.5312L177.446 101.227L179.165 100.235L177.031 96.5388Z" fill="white"/>
<path d="M161.389 105.571L159.756 106.514L161.89 110.209L163.523 109.267L161.389 105.571Z" fill="white"/>
<path d="M179.696 95.0007L177.977 95.9932L180.11 99.689L181.829 98.6965L179.696 95.0007Z" fill="white"/>
<path d="M161.477 111.479L158.897 107.01L156.232 108.548L160.748 116.369L186.963 101.234L185.027 97.8822L161.477 111.479Z" fill="white"/>
<path d="M107.279 126.382L105.344 123.03L103.367 124.171L103.764 124.859L103.162 125.206L102.765 124.518L101.648 125.164L102.045 125.851L101.443 126.199L101.046 125.511L99.9291 126.156L100.326 126.844L99.7244 127.191L99.3274 126.503L98.2101 127.148L98.6071 127.836L98.0054 128.183L97.6084 127.496L96.4911 128.141L96.8881 128.829L96.2864 129.176L95.8895 128.488L94.7721 129.133L95.1691 129.821L94.5675 130.168L94.1705 129.481L93.0531 130.126L93.4501 130.813L92.8485 131.161L92.4515 130.473L91.3341 131.118L91.7311 131.806L91.1295 132.153L90.7325 131.466L89.6152 132.111L90.0121 132.798L89.4105 133.146L89.0135 132.458L87.8962 133.103L88.2931 133.791L87.6915 134.138L87.2945 133.451L86.1772 134.096L86.5742 134.783L85.9725 135.131L85.5755 134.443L84.4582 135.088L84.8552 135.776L84.2535 136.123L83.8566 135.435L82.7392 136.081L83.1362 136.768L82.5345 137.116L82.1376 136.428L81.0202 137.073L81.4172 137.761L80.8156 138.108L80.4186 137.42L76.0352 139.951L79.7569 146.397L122.044 121.983L120.258 118.889L107.279 126.382Z" fill="white"/>
<path d="M63.4941 156.933C65.1184 159.547 67.6456 163.131 71.3832 167.62C72.2923 167.209 131.105 132.91 131.105 132.91L131.478 130.976L132.509 130.38L126.753 120.41L63.4941 156.933ZM73.6834 164.458C73.2537 164.706 72.7973 164.511 72.5989 164.167C72.4004 163.824 72.5457 163.281 72.8895 163.083C73.3192 162.835 73.7756 163.03 73.974 163.373C74.1725 163.717 74.1132 164.21 73.6834 164.458ZM73.7808 158.672C73.351 158.92 72.8947 158.725 72.6962 158.381C72.4977 158.037 72.643 157.495 72.9868 157.297C73.4165 157.048 73.8729 157.243 74.0714 157.587C74.2699 157.931 74.2105 158.424 73.7808 158.672ZM79.6999 160.984C79.2701 161.232 78.8138 161.038 78.6153 160.694C78.4168 160.35 78.5621 159.808 78.9059 159.609C79.2497 159.411 79.792 159.556 79.9905 159.9C80.189 160.244 80.0437 160.786 79.6999 160.984ZM79.7972 155.198C79.3675 155.446 78.9111 155.251 78.7126 154.908C78.5142 154.564 78.6595 154.021 79.0033 153.823C79.3471 153.624 79.8893 153.77 80.0878 154.114C80.2863 154.457 80.141 155 79.7972 155.198ZM85.6304 157.56C85.2006 157.808 84.7443 157.614 84.5458 157.27C84.3473 156.926 84.4926 156.384 84.8364 156.185C85.1802 155.987 85.7225 156.132 85.921 156.476C86.1195 156.82 86.0601 157.312 85.6304 157.56ZM85.7277 151.774C85.298 152.022 84.8416 151.827 84.6431 151.484C84.4447 151.14 84.59 150.597 84.9338 150.399C85.2776 150.201 85.8198 150.346 86.0183 150.69C86.2168 151.033 86.1575 151.526 85.7277 151.774ZM91.6468 154.087C91.2171 154.335 90.7608 154.14 90.5623 153.796C90.3638 153.452 90.5091 152.91 90.8529 152.712C91.2826 152.463 91.739 152.658 91.9375 153.002C92.1359 153.346 91.9906 153.888 91.6468 154.087ZM91.7442 148.301C91.3144 148.549 90.8581 148.354 90.6596 148.01C90.4611 147.666 90.6064 147.124 90.9502 146.925C91.38 146.677 91.8363 146.872 92.0348 147.216C92.2333 147.56 92.088 148.102 91.7442 148.301ZM97.5773 150.663C97.1476 150.911 96.6913 150.716 96.4928 150.372C96.2943 150.028 96.4396 149.486 96.7834 149.288C97.1272 149.089 97.6695 149.234 97.868 149.578C98.0665 149.922 98.0071 150.415 97.5773 150.663ZM97.6747 144.877C97.2449 145.125 96.7886 144.93 96.5901 144.586C96.3916 144.242 96.5369 143.7 96.8807 143.501C97.2245 143.303 97.7668 143.448 97.9653 143.792C98.1638 144.136 98.1044 144.628 97.6747 144.877ZM107.167 145.241C106.136 145.836 104.916 145.509 104.32 144.478C103.725 143.446 104.052 142.226 105.083 141.631C106.115 141.035 107.335 141.362 107.93 142.394C108.526 143.425 108.199 144.645 107.167 145.241ZM111.513 136.887C111.169 137.086 110.676 137.026 110.428 136.597C110.229 136.253 110.289 135.76 110.719 135.512C111.062 135.314 111.555 135.373 111.803 135.803C112.002 136.147 111.856 136.689 111.513 136.887ZM116.572 139.696C116.142 139.944 115.686 139.749 115.488 139.405C115.289 139.062 115.434 138.519 115.778 138.321C116.208 138.073 116.664 138.268 116.863 138.612C117.061 138.955 117.002 139.448 116.572 139.696ZM117.529 133.414C117.185 133.612 116.693 133.553 116.444 133.123C116.246 132.779 116.305 132.287 116.735 132.039C117.079 131.84 117.571 131.899 117.82 132.329C118.018 132.673 117.873 133.215 117.529 133.414ZM122.589 136.223C122.159 136.471 121.703 136.276 121.504 135.932C121.306 135.588 121.451 135.046 121.795 134.847C122.138 134.649 122.681 134.794 122.879 135.138C123.078 135.482 122.932 136.024 122.589 136.223ZM123.545 129.94C123.202 130.139 122.709 130.079 122.461 129.65C122.262 129.306 122.322 128.813 122.751 128.565C123.095 128.366 123.588 128.426 123.836 128.856C124.035 129.199 123.889 129.742 123.545 129.94ZM128.519 132.799C128.089 133.047 127.633 132.852 127.435 132.508C127.236 132.164 127.381 131.622 127.725 131.423C128.069 131.225 128.611 131.37 128.81 131.714C129.008 132.058 128.949 132.55 128.519 132.799Z" fill="white"/>
</svg>
