<svg width="256" height="256" viewBox="0 0 256 256" fill="none" xmlns="http://www.w3.org/2000/svg">
<path d="M155.983 84.1744C155.675 83.6407 154.763 83.3964 154.23 83.7045L152.006 84.9882L152.725 86.2334L150.858 87.3117L150.139 86.0665L147.782 87.4273L148.501 88.6724L146.633 89.7507L145.914 88.5056L143.557 89.8663L144.276 91.1115L142.408 92.1898L141.689 90.9447L139.333 92.3054L140.052 93.5506L138.184 94.6289L137.465 93.3837L135.108 94.7445L135.827 95.9896L133.959 97.0679L133.24 95.8228L130.883 97.1835L131.602 98.4287L129.735 99.507L129.016 98.2619L126.437 99.751L135.962 116.249L163.488 100.357C164.155 99.9715 164.514 99.0528 164.103 98.3413L155.939 84.2L155.983 84.1744ZM141.439 99.0345L146.597 96.0563L147.137 96.9902L141.978 99.9684L141.439 99.0345ZM132.849 103.875L138.097 100.845L138.559 101.646L133.312 104.676L132.849 103.875ZM158.851 95.9189C159.133 96.4081 158.964 97.0394 158.475 97.3218L137.308 109.543C136.818 109.825 136.187 109.656 135.905 109.167L135.751 108.9C135.468 108.411 135.637 107.78 136.127 107.497L157.338 95.2506C157.828 94.9681 158.459 95.1373 158.741 95.6265L158.895 95.8933L158.851 95.9189ZM150.718 94.5667L150.211 93.7919L155.725 90.6083L156.232 91.3831L150.718 94.5667Z" fill="white"/>
<path fill-rule="evenodd" clip-rule="evenodd" d="M87.7771 118.75L123.886 97.9025L120.523 92.077C120.24 91.5878 119.654 91.393 119.139 91.6309C115.357 93.3993 85.1426 107.82 75.4377 112.474C73.8299 113.284 73.1189 115.236 73.7951 116.921C74.2522 118.021 74.5879 119.013 74.2766 119.192L73.6985 119.526C73.2538 119.783 73.0777 120.3 73.1754 120.777L74.7476 126.273L87.7771 118.75ZM88.1661 110.284L116.42 96.1651C117.113 95.8245 118.177 95.9216 118.543 96.6588L119.031 97.5037C119.327 98.2221 119.057 99.0895 118.294 99.4114L91.6949 114.65C91.2245 114.862 90.7216 114.915 90.2118 114.854C89.6319 114.774 89.134 114.528 88.7626 114.09L88.3656 113.608C88.1157 113.277 87.9103 112.922 87.864 112.533C87.6311 111.719 87.7677 110.929 88.1661 110.284ZM78.3136 113.245C79.4698 112.577 80.8983 112.998 81.5402 114.109C82.2077 115.265 81.7873 116.694 80.6756 117.336C79.5194 118.003 78.0909 117.583 77.449 116.471C76.8071 115.36 77.2018 113.887 78.3136 113.245Z" fill="white"/>
<path fill-rule="evenodd" clip-rule="evenodd" d="M91.5513 125.288C91.2845 125.442 90.9337 125.348 90.7797 125.081L87.8271 119.967L124.425 98.8368L127.686 104.484L91.577 125.332L91.5513 125.288Z" fill="white"/>
<path fill-rule="evenodd" clip-rule="evenodd" d="M96.8613 144.753L85.6995 151.197C92.8478 154.541 86.755 177.981 85.4156 183.261C85.2652 183.822 85.6246 184.444 86.1858 184.595L86.2559 184.614C92.3566 185.835 100.974 181.453 102.841 180.374C103.064 180.246 103.33 180.092 103.221 179.799C102.822 178.903 101.559 178.565 101.123 177.809C100.243 176.182 100.739 174.473 102.134 173.193C102.439 172.899 102.411 172.44 102.142 172.18C102.117 172.136 102.117 172.136 102.047 172.117C101.1 171.3 100.503 170.162 100.383 168.927C100.256 167.578 100.727 166.238 101.704 165.259C101.964 164.99 101.962 164.577 101.693 164.317C101.098 163.593 100.699 162.697 100.618 161.736C100.433 160.182 101.101 158.67 102.377 157.696C102.374 156.868 102.657 156.23 103.145 155.534L96.8613 144.753ZM92.2548 182.988L87.5226 181.57L88.6745 172.782L88.5385 180.865L92.2548 182.988Z" fill="white"/>
<path fill-rule="evenodd" clip-rule="evenodd" d="M101.205 124.753L76.8358 138.823C76.6135 138.951 76.4938 139.258 76.5777 139.506L76.6034 139.55L78.2209 142.352C78.3493 142.574 78.6555 142.694 78.9036 142.61L78.948 142.584L103.317 128.515C103.54 128.386 103.659 128.08 103.575 127.832L103.55 127.787L101.932 124.986C101.823 124.693 101.472 124.599 101.205 124.753Z" fill="white"/>
<path d="M78.8023 147.056C79.2026 146.825 79.6936 146.957 79.9246 147.357C80.1557 147.757 80.0241 148.248 79.6239 148.479C79.2237 148.71 78.7327 148.579 78.5016 148.178C78.2705 147.778 78.4021 147.287 78.8023 147.056Z" fill="white"/>
<path fill-rule="evenodd" clip-rule="evenodd" d="M115.204 137.601C114.382 136.178 112.558 135.69 111.135 136.511L97.7945 144.214L103.989 155.045C104.256 154.891 119.953 145.828 119.953 145.828L115.204 137.601ZM116.984 142.74C117.806 144.163 117.317 145.986 115.894 146.808L106.645 152.148C105.222 152.97 103.398 152.481 102.576 151.058L100.471 147.412C99.6494 145.989 100.138 144.165 101.561 143.343L110.766 138.029C112.189 137.207 114.013 137.696 114.835 139.119L116.984 142.74Z" fill="white"/>
<path d="M130.012 127.511C130.901 126.997 132.093 127.317 132.607 128.206C133.12 129.096 132.801 130.288 131.911 130.802C131.022 131.315 129.83 130.996 129.316 130.106C128.777 129.172 129.122 128.024 130.012 127.511Z" fill="white"/>
<path d="M154.901 151.622C153.782 150.607 152.644 149.664 151.595 148.668L137.788 163.162C139.33 164.703 140.531 165.551 141.253 166.083C141.688 166.425 142.305 166.365 142.673 165.975L154.953 153.252C155.391 152.88 155.42 152.212 155.074 151.818C155.023 151.729 154.927 151.666 154.901 151.622Z" fill="white"/>
<path d="M104.803 143.31C104.745 143.106 104.558 142.68 104.353 142.325L101.507 143.968C102.126 145.863 103.763 148.595 109.748 146.74C110.378 143.826 106.423 148.067 104.803 143.31Z" fill="white"/>
<path fill-rule="evenodd" clip-rule="evenodd" d="M108.335 129.709L111.467 135.134C113.082 134.439 114.983 135.061 115.881 136.618L120.708 144.978C120.818 145.27 120.977 145.238 121.129 145.091L137.802 130.425C135.666 127.033 133.841 123.462 132.398 119.73C132.23 119.234 132.425 118.647 132.869 118.39L134.959 117.183L133.753 115.093L108.361 129.753L108.335 129.709ZM132.213 131.22C131.012 131.914 129.539 131.519 128.872 130.363C128.204 129.207 128.599 127.734 129.755 127.066C130.911 126.398 132.384 126.793 133.052 127.949C133.764 129.08 133.369 130.553 132.213 131.22Z" fill="white"/>
<path d="M164.844 84.6322L163.377 85.4795L166.509 90.9047L167.977 90.0575L164.844 84.6322Z" fill="white"/>
<path d="M162.887 85.7611L161.42 86.6084L164.552 92.0337L166.02 91.1864L162.887 85.7611Z" fill="white"/>
<path d="M173.382 79.7023L173.338 79.7279L165.289 84.375L168.421 89.8003L176.47 85.1532C177.004 84.8451 177.173 84.2138 176.865 83.6802L174.837 80.1671C174.573 79.6078 173.942 79.4386 173.382 79.7023ZM170.289 82.9706C170.109 82.6594 170.222 82.2385 170.533 82.0588L172.935 80.6724C173.246 80.4926 173.667 80.6054 173.846 80.9167C174.026 81.228 173.913 81.6488 173.602 81.8286L171.201 83.215C170.89 83.3947 170.494 83.3264 170.289 82.9706C170.315 83.0151 170.315 83.0151 170.289 82.9706ZM175.271 84.7191L172.87 86.1055C172.558 86.2852 172.137 86.1724 171.958 85.8611C171.778 85.5499 171.891 85.129 172.202 84.9493L174.603 83.5629C174.915 83.3831 175.336 83.4959 175.515 83.8072C175.721 84.163 175.582 84.5393 175.271 84.7191Z" fill="white"/>
<path d="M160.975 86.8655L159.33 87.8154L162.462 93.2407L164.108 92.2907L160.975 86.8655Z" fill="white"/>
<path fill-rule="evenodd" clip-rule="evenodd" d="M70.6052 138.508L67.6702 140.202C67.1366 140.51 67.0187 141.23 67.3268 141.764C67.6606 142.342 71.3064 148.657 71.3064 148.657C71.6145 149.19 72.2458 149.36 72.7794 149.051L75.7144 147.357L70.6052 138.508Z" fill="white"/>
<path fill-rule="evenodd" clip-rule="evenodd" d="M91.8345 125.777C91.3009 126.085 90.6696 125.916 90.3615 125.382L87.3833 120.224L72.0413 129.082C71.5077 129.39 71.3386 130.021 71.6467 130.555L73.2641 133.356C73.5722 133.89 73.4031 134.521 72.8694 134.829L71.0017 135.907C70.5126 136.19 70.2733 136.802 70.5557 137.292C70.5557 137.292 70.5557 137.292 70.5814 137.336L70.607 137.38L78.7715 151.522C79.0777 151.641 79.4216 151.621 79.7329 151.441C80.6667 150.902 80.6667 150.902 80.6667 150.902C83.2647 149.343 83.1588 149.878 84.3582 150.312C84.5943 150.413 84.868 150.374 85.1348 150.22L111.016 135.277L107.653 129.452L133.534 114.509L127.988 104.904L91.8345 125.777ZM73.6464 130.527L86.0089 123.389L75.2084 130.87L74.9558 132.794L73.6464 130.527ZM79.8809 148.925C79.2138 149.31 78.3721 149.084 78.0127 148.462C77.6532 147.839 77.8788 146.997 78.5013 146.638C79.1684 146.253 79.9656 146.504 80.3251 147.126C80.729 147.723 80.5035 148.565 79.8809 148.925ZM104.083 127.48C104.392 128.014 104.222 128.645 103.689 128.953L79.2751 143.049C78.7415 143.357 78.1102 143.188 77.8021 142.654L76.1846 139.852C75.8765 139.319 76.0457 138.687 76.5793 138.379L100.949 124.31C101.482 124.002 102.113 124.171 102.422 124.704L104.039 127.506L104.083 127.48ZM125.287 112.036L108.211 121.895C107.544 122.28 106.747 122.029 106.388 121.407C106.002 120.74 106.254 119.942 106.876 119.583L123.952 109.724C124.619 109.339 125.417 109.59 125.776 110.213C126.136 110.835 125.955 111.651 125.287 112.036Z" fill="white"/>
<path d="M138.139 131.831L121.96 145.915C122.133 146.112 130.815 157.76 137.143 162.764L150.924 148.225C143.078 139.77 141.685 137.254 138.139 131.831ZM138.715 156.757C138.696 156.827 138.607 156.878 138.562 156.904C138.385 157.007 138.2 156.995 138.008 156.868C132.367 152.951 128.434 146.447 128.28 146.18C128.125 145.913 128.201 145.632 128.467 145.478C128.69 145.35 129.015 145.4 129.169 145.666C129.195 145.711 133.153 152.26 138.603 156.051C138.795 156.177 138.86 156.495 138.715 156.757ZM142.265 153.047C142.246 153.117 142.157 153.169 142.113 153.194C141.935 153.297 141.75 153.285 141.558 153.159C135.917 149.241 132.341 142.945 132.187 142.679C132.033 142.412 132.153 142.105 132.375 141.977C132.642 141.823 132.948 141.943 133.077 142.165C133.102 142.209 136.722 148.48 142.128 152.296C142.371 152.512 142.436 152.83 142.265 153.047ZM145.803 149.522C145.784 149.592 145.695 149.643 145.651 149.669C145.473 149.772 145.288 149.76 145.097 149.633C139.455 145.716 136.249 139.444 136.121 139.222C135.967 138.955 136.086 138.649 136.379 138.539C136.646 138.385 136.952 138.505 137.061 138.797C137.087 138.842 140.268 145.069 145.717 148.86C145.909 148.987 145.974 149.305 145.803 149.522Z" fill="white"/>
</svg>
