<svg width="256" height="256" viewBox="0 0 256 256" fill="none" xmlns="http://www.w3.org/2000/svg">
<path d="M83.071 137.395L78.3457 140.123L79.9826 142.958L84.7079 140.23L83.071 137.395Z" fill="white"/>
<path d="M71.9228 148.642L71.9167 150.02L163.724 97.1298L163.674 97.0439C162.55 96.0891 161.483 96.8198 160.244 97.6498L158.439 98.6914L157.563 98.1662L157.58 99.1875L156.807 99.6339L155.931 99.1087L155.948 100.13L155.175 100.576L154.299 100.051L154.316 101.072L153.542 101.519L152.666 100.994L152.683 102.015L151.91 102.461L151.034 101.936L151.051 102.957L150.278 103.404L149.402 102.879L149.418 103.9L148.645 104.346L147.769 103.821L147.786 104.842L147.013 105.289L146.137 104.763L146.154 105.785L145.38 106.231L144.504 105.706L144.521 106.727L143.748 107.174L142.872 106.648L142.889 107.67L142.116 108.116L141.24 107.591L141.256 108.612L140.483 109.058L139.607 108.533L139.624 109.555L138.851 110.001L137.975 109.476L137.992 110.497L137.218 110.943L136.342 110.418L136.359 111.439L135.586 111.886L134.71 111.361L134.727 112.382L133.954 112.828L133.078 112.303L133.094 113.324L132.321 113.771L131.445 113.246L131.462 114.267L130.689 114.713L129.813 114.188L129.83 115.209L129.056 115.656L128.18 115.131L128.197 116.152L127.424 116.598L126.548 116.073L126.565 117.094L125.792 117.541L124.916 117.015L124.933 118.037L124.159 118.483L123.283 117.958L123.3 118.979L122.527 119.426L121.651 118.9L121.668 119.922L120.895 120.368L120.019 119.843L120.035 120.864L119.262 121.31L118.386 120.785L118.403 121.807L117.63 122.253L116.754 121.728L116.771 122.749L115.997 123.195L115.121 122.67L115.138 123.691L114.365 124.138L113.489 123.613L113.506 124.634L112.733 125.08L111.857 124.555L111.873 125.576L111.1 126.023L110.224 125.498L110.241 126.519L109.468 126.965L108.592 126.44L108.609 127.461L107.835 127.908L106.959 127.382L106.976 128.404L106.203 128.85L105.327 128.325L105.344 129.346L104.571 129.793L103.695 129.267L103.711 130.289L102.938 130.735L102.062 130.21L102.079 131.231L71.9228 148.642Z" fill="white"/>
<path d="M91.8381 136.114L96.4775 133.435L94.8406 130.6L90.2012 133.278L91.8381 136.114Z" fill="white"/>
<path d="M90.4245 150.332C90.2526 150.431 88.6566 151.238 88.925 153.489L93.9349 162.166L95.8251 161.075L114.942 143.393L117.645 139.542L117.438 134.621L90.4245 150.332ZM164.527 97.9264L22.6309 179.735C21.4281 180.43 21.9144 181.867 21.9144 181.867C22.4539 184.191 23.1023 186.107 23.5089 186.216C24.1997 186.619 25.0093 186.037 25.353 185.839C25.8684 185.541 73.7197 157.112 73.7197 157.112L74.6469 152.568L111.075 131.536L110.634 137.518L167.533 104.324C168.392 103.828 168.633 102.658 168.137 101.799C168.223 101.749 164.527 97.9264 164.527 97.9264ZM132.34 123.726L130.622 124.718C130.278 124.916 129.786 124.857 129.538 124.428C129.34 124.084 129.399 123.591 129.828 123.343L131.547 122.351C131.89 122.153 132.383 122.212 132.631 122.642C132.743 123.035 132.684 123.528 132.34 123.726ZM130.604 120.719L128.886 121.711C128.542 121.909 128.05 121.85 127.802 121.42C127.603 121.077 127.663 120.584 128.092 120.336L129.811 119.344C130.154 119.146 130.647 119.205 130.895 119.635C131.057 120.114 130.948 120.521 130.604 120.719ZM136.636 121.246L134.918 122.238C134.574 122.436 134.082 122.377 133.834 121.947C133.635 121.604 133.695 121.111 134.124 120.863L135.843 119.871C136.186 119.673 136.679 119.732 136.927 120.162C137.039 120.555 136.98 121.047 136.636 121.246ZM134.9 118.239L133.182 119.231C132.838 119.429 132.346 119.37 132.098 118.94C131.899 118.597 131.959 118.104 132.388 117.856L134.106 116.864C134.45 116.666 134.943 116.725 135.191 117.155C135.353 117.634 135.244 118.04 134.9 118.239ZM140.932 118.766L139.214 119.758C138.87 119.956 138.378 119.897 138.129 119.467C137.931 119.124 137.99 118.631 138.42 118.383L140.138 117.391C140.482 117.193 140.974 117.252 141.222 117.681C141.335 118.075 141.276 118.567 140.932 118.766ZM139.196 115.759L137.478 116.751C137.134 116.949 136.641 116.89 136.393 116.46C136.195 116.117 136.254 115.624 136.684 115.376L138.402 114.384C138.746 114.186 139.238 114.245 139.486 114.674C139.648 115.154 139.539 115.56 139.196 115.759ZM145.228 116.285L143.509 117.278C143.166 117.476 142.673 117.417 142.425 116.987C142.227 116.643 142.286 116.151 142.716 115.903L144.434 114.911C144.778 114.712 145.27 114.772 145.518 115.201C145.631 115.595 145.571 116.087 145.228 116.285ZM143.492 113.278L141.773 114.271C141.43 114.469 140.937 114.41 140.689 113.98C140.491 113.636 140.55 113.144 140.98 112.896L142.698 111.904C143.042 111.705 143.534 111.765 143.782 112.194C143.944 112.673 143.835 113.08 143.492 113.278ZM149.523 113.805L147.805 114.797C147.462 114.996 146.969 114.936 146.721 114.507C146.523 114.163 146.582 113.671 147.012 113.423L148.73 112.431C149.073 112.232 149.566 112.292 149.814 112.721C149.926 113.114 149.867 113.607 149.523 113.805ZM147.787 110.798L146.069 111.79C145.725 111.989 145.233 111.929 144.985 111.5C144.786 111.156 144.846 110.664 145.275 110.416L146.994 109.424C147.337 109.225 147.83 109.285 148.078 109.714C148.24 110.193 148.131 110.6 147.787 110.798ZM153.819 111.325L152.101 112.317C151.757 112.516 151.265 112.456 151.017 112.027C150.818 111.683 150.878 111.191 151.307 110.943L153.026 109.951C153.369 109.752 153.862 109.811 154.11 110.241C154.222 110.634 154.163 111.127 153.819 111.325ZM152.083 108.318L150.365 109.31C150.021 109.509 149.529 109.449 149.281 109.02C149.082 108.676 149.142 108.184 149.571 107.936L151.289 106.943C151.633 106.745 152.126 106.804 152.374 107.234C152.536 107.713 152.427 108.12 152.083 108.318ZM158.115 108.845L156.397 109.837C156.053 110.035 155.561 109.976 155.313 109.547C155.114 109.203 155.173 108.71 155.603 108.462L157.321 107.47C157.665 107.272 158.157 107.331 158.405 107.761C158.518 108.154 158.459 108.647 158.115 108.845ZM156.379 105.838L154.661 106.83C154.317 107.028 153.824 106.969 153.576 106.54C153.378 106.196 153.437 105.703 153.867 105.455L155.585 104.463C155.929 104.265 156.421 104.324 156.669 104.754C156.831 105.233 156.723 105.64 156.379 105.838ZM162.411 106.365L160.692 107.357C160.349 107.555 159.856 107.496 159.608 107.066C159.41 106.723 159.469 106.23 159.899 105.982L161.617 104.99C161.961 104.792 162.453 104.851 162.701 105.281C162.814 105.674 162.754 106.166 162.411 106.365ZM160.675 103.358L158.956 104.35C158.613 104.548 158.12 104.489 157.872 104.059C157.674 103.716 157.733 103.223 158.163 102.975L159.881 101.983C160.225 101.785 160.717 101.844 160.965 102.274C161.127 102.753 161.018 103.159 160.675 103.358Z" fill="white"/>
<path d="M169.175 99.8251C178.111 94.6664 219.522 70.7577 219.522 70.7577L217.538 67.3211L166.418 96.835L169.175 99.8251Z" fill="white"/>
<path d="M220.458 65.6347L218.396 66.8252L220.381 70.2618L222.443 69.0713L220.458 65.6347Z" fill="white"/>
<path d="M230.038 58.6156L217.666 65.7584C217.716 65.8443 217.679 65.9798 217.643 66.1154L220.822 64.2801L223.748 69.349L220.484 71.234C220.669 71.3562 220.768 71.528 220.768 71.528L233.226 64.3356C233.226 64.3356 234.375 62.7554 233.185 60.6934C232.08 58.5819 230.038 58.6156 230.038 58.6156ZM226.983 66.2214C227.181 66.5651 227.122 67.0576 226.693 67.3056L225.49 68C225.146 68.1984 224.654 68.1391 224.406 67.7095L222.769 64.8743C222.57 64.5307 222.715 63.9886 223.059 63.7902L224.262 63.0957C224.606 62.8973 225.098 62.9567 225.346 63.3862L226.983 66.2214ZM231.107 63.8405C231.305 64.1842 231.246 64.6766 230.816 64.9246L229.614 65.6191C229.27 65.8175 228.778 65.7582 228.529 65.3286L226.893 62.4934C226.694 62.1497 226.754 61.6573 227.183 61.4092L228.386 60.7148C228.73 60.5164 229.222 60.5757 229.47 61.0053L231.107 63.8405Z" fill="white"/>
<path d="M23.1701 187.215C22.3074 186.911 21.5465 184.601 21.1062 182.449C19.302 183.491 16.6156 185.386 17.6573 187.19C18.947 189.424 22.5502 191.696 24.405 193.718C26.3456 195.691 27.4113 200.116 28.1226 202.34C28.8339 204.564 33.9888 201.588 33.9888 201.588L25.4571 186.811C24.8556 187.158 24.0328 187.518 23.1701 187.215Z" fill="white"/>
<path d="M82.3184 161.886L85.1457 166.783C89.1581 166.987 91.1899 164.553 92.1182 162.986L89.2412 158.003L82.368 161.972L82.3184 161.886ZM91.0969 163.003C91.0969 163.003 88.7383 166.656 85.4362 165.699L83.5017 162.348L88.9144 159.223L91.0969 163.003Z" fill="white"/>
<path d="M76.4268 165.173C76.9193 165.232 77.3391 165.562 77.5872 165.992L77.8352 166.422C78.0336 166.765 78.0965 167.073 78.0735 167.43L76.8984 182.656C76.8754 183.013 77.2094 183.393 77.553 183.195L85.382 181.08C85.7753 180.968 85.4909 180.674 85.3917 180.502C85.1074 180.208 84.7867 180.049 84.7106 179.521C84.5812 178.106 84.2561 174.17 84.9991 172.481C85.2799 171.975 85.2799 171.975 85.0319 171.545C84.8335 171.202 84.5855 170.772 84.4101 170.072C84.1355 169.199 84.0557 167.871 84.2869 167.279L80.9635 161.523L88.6959 157.058L87.7038 155.34L72.1531 164.318L76.4268 165.173ZM82.8237 170.3C83.2799 170.495 83.6138 170.875 83.5545 171.367L83.5272 179.058C83.5042 179.415 83.3093 179.871 82.9657 180.07L82.8798 180.119L79.8098 181.548C79.4662 181.747 79.0596 181.638 78.739 181.479C78.3687 181.235 78.1703 180.891 78.2793 180.484L78.8379 170.539C78.8609 170.182 79.0195 169.862 79.2772 169.713C79.535 169.564 79.9282 169.452 80.1993 169.524L82.8237 170.3Z" fill="white"/>
<path d="M79.3504 180.554C79.4 180.64 79.4 180.64 79.5355 180.676L82.6054 179.247C82.6054 179.247 82.6913 179.198 82.6417 179.112L82.6194 171.335L82.5698 171.249L80.1668 170.46C80.0313 170.424 79.9453 170.473 79.909 170.609L79.3504 180.554Z" fill="white"/>
<path d="M85.6396 161.686L86.7565 161.041C86.7565 161.041 86.9753 163.206 89.3154 163.688C89.3154 163.688 88.1622 164.468 87.0515 163.735C85.8911 162.916 85.6396 161.686 85.6396 161.686Z" fill="white"/>
<path d="M69.2586 144.224L61.7149 149.61C61.3713 149.809 60.8788 149.749 60.6804 149.406L58.101 144.938C57.9026 144.594 58.0479 144.052 58.4411 143.94L66.8777 140.1L69.2586 144.224Z" fill="white"/>
<path d="M70.7785 137.733L67.6855 139.519L70.0169 143.557L73.1098 141.771L70.7785 137.733Z" fill="white"/>
<path d="M80.1443 132.326L71.6387 137.236L73.97 141.274L82.4756 136.364L80.1443 132.326Z" fill="white"/>
<path d="M86.5025 128.655L81.0039 131.83L83.3353 135.868L88.8338 132.693L86.5025 128.655Z" fill="white"/>
<path d="M92.0008 125.481L87.3613 128.159L89.6927 132.197L94.3321 129.519L92.0008 125.481Z" fill="white"/>
<path d="M111.923 122.685L95.241 129.109L92.8601 124.985L106.764 113.75C107.23 113.366 107.908 113.548 108.205 114.064L112.372 121.28C112.719 121.882 112.488 122.473 111.923 122.685Z" fill="white"/>
<path d="M75.7816 152.944L74.8543 157.489L26.3158 186.314L27.7542 188.806L87.4848 153.175C87.7682 150.491 89.4998 149.721 89.8434 149.522L109.776 138.014L110.111 133.238L75.8312 153.03L75.7816 152.944Z" fill="white"/>
<path d="M54.2567 185.304C53.3541 184.336 52.7456 183.083 52.494 181.854L51.4939 175.558L48.6587 177.195L49.1291 180.589C49.2948 181.868 49.4906 184.39 48.4729 185.207L32.5662 197.14L34.7984 201.006L47.6883 191.387C48.62 190.62 49.651 190.025 50.7945 189.823L54.6182 189.105C54.8396 189.091 54.9255 189.042 55.0974 188.942C55.441 188.744 55.7714 188.324 55.8803 187.918C55.9397 187.425 55.8272 187.032 55.4932 186.652L54.2567 185.304ZM38.7664 196.767C38.2509 197.065 37.5733 196.883 37.2757 196.368C36.978 195.852 37.1596 195.175 37.6751 194.877C38.1906 194.58 38.8682 194.761 39.1658 195.277C39.4634 195.792 39.2819 196.47 38.7664 196.767ZM42.4572 193.835C41.9417 194.132 41.2641 193.951 40.9665 193.435C40.6688 192.92 40.8504 192.242 41.3659 191.944C41.8814 191.647 42.559 191.828 42.8566 192.344C43.1542 192.859 42.9726 193.537 42.4572 193.835ZM46.0257 191.087C45.5102 191.385 44.8326 191.203 44.535 190.688C44.2374 190.172 44.419 189.494 44.9344 189.197C45.4499 188.899 46.1275 189.081 46.4252 189.596C46.7228 190.112 46.5412 190.789 46.0257 191.087Z" fill="white"/>
<path d="M82.4655 122.853C80.919 123.746 79.4584 124.589 77.912 125.482C78.1963 125.776 78.5665 126.02 78.9005 126.4C78.9501 126.486 79.0493 126.658 79.013 126.793L78.9209 128.221C78.8846 128.357 78.9342 128.443 78.9838 128.529L80.4719 131.106L85.8845 127.981L84.3964 125.404C84.3468 125.318 84.2972 125.232 84.1617 125.195L82.8792 124.561C82.7436 124.525 82.6444 124.353 82.5948 124.267L82.4655 122.853Z" fill="white"/>
<path d="M96.9168 162.965L102.77 173.102C102.968 173.446 103.461 173.505 103.805 173.307L122.116 157.007C122.324 156.773 122.483 156.452 122.284 156.108L115.985 145.197L96.9168 162.965ZM108.396 165.387C108.694 165.902 108.548 166.444 108.033 166.742C107.517 167.04 106.975 166.894 106.678 166.379L103.503 160.88C103.205 160.365 103.351 159.823 103.866 159.525C104.382 159.227 104.924 159.373 105.221 159.888L108.396 165.387ZM112.196 162.047C112.493 162.563 112.348 163.105 111.833 163.403C111.317 163.7 110.775 163.555 110.477 163.039L107.303 157.541C107.005 157.025 107.15 156.483 107.666 156.186C108.181 155.888 108.724 156.033 109.021 156.549L112.196 162.047ZM115.995 158.708C116.293 159.224 116.148 159.766 115.632 160.063C115.117 160.361 114.575 160.216 114.277 159.7L111.103 154.202C110.805 153.686 110.95 153.144 111.466 152.846C111.981 152.549 112.523 152.694 112.821 153.21L115.995 158.708Z" fill="white"/>
</svg>
