<svg width="256" height="256" viewBox="0 0 256 256" fill="none" xmlns="http://www.w3.org/2000/svg">
  <path d="M189.436 80.3026L178.68 86.5127L180.439 89.5598L191.195 83.3497L189.436 80.3026Z" fill="white" />
  <path d="M177.3 84.9704L176.307 85.5439L184.741 100.153L185.735 99.5794L177.3 84.9704Z" fill="white" />
  <path d="M164.79 92.193L163.797 92.7666L172.231 107.376L173.225 106.802L164.79 92.193Z" fill="white" />
  <path d="M152.307 99.3991L147.498 102.176L155.933 116.785L160.742 114.008L152.307 99.3991Z" fill="white" />
  <path
    d="M48.6113 162.816L50.1805 161.91L55.1959 170.597C55.4462 171.031 55.2978 171.585 54.8642 171.835C54.4307 172.085 53.877 171.937 53.6267 171.503L48.6113 162.816Z"
    fill="white" />
  <path
    d="M52.2246 160.73L53.7938 159.824L60.3272 171.141C60.5775 171.574 60.4292 172.128 59.9956 172.378C59.5621 172.629 59.0083 172.48 58.758 172.047L52.2246 160.73Z"
    fill="white" />
  <path d="M191.76 84.3309L181.004 90.541L182.763 93.5882L193.519 87.378L191.76 84.3309Z" fill="white" />
  <path d="M194.102 88.3836L183.346 94.5938L185.105 97.6409L195.861 91.4308L194.102 88.3836Z" fill="white" />
  <path d="M176.975 87.5457L166.219 93.7559L167.978 96.803L178.734 90.5929L176.975 87.5457Z" fill="white" />
  <path d="M179.28 91.5369L168.523 97.7471L170.283 100.794L181.039 94.5841L179.28 91.5369Z" fill="white" />
  <path d="M181.639 95.6248L170.883 101.835L172.642 104.882L183.398 98.672L181.639 95.6248Z" fill="white" />
  <path d="M164.465 94.7684L153.709 100.979L155.468 104.026L166.225 97.8155L164.465 94.7684Z" fill="white" />
  <path d="M166.77 98.7596L156.014 104.97L157.773 108.017L168.529 101.807L166.77 98.7596Z" fill="white" />
  <path d="M169.129 102.847L158.373 109.058L160.132 112.105L170.889 105.895L169.129 102.847Z" fill="white" />
  <path
    d="M201.776 70.8391L189.296 78.0444C189.103 78.1559 189.037 78.405 189.148 78.5981L197.177 92.5051C197.289 92.6982 197.538 92.7649 197.731 92.6535L210.211 85.4482C210.385 85.3478 210.459 85.1363 210.386 84.9491C210.044 84.0843 208.967 81.5302 206.758 77.7037C204.548 73.8772 202.877 71.6666 202.297 70.9386C202.171 70.7818 201.951 70.7405 201.777 70.8409L201.776 70.8391ZM205.604 83.2448L198.075 87.5913C197.593 87.87 196.975 87.7046 196.697 87.2219C196.418 86.7392 196.583 86.1217 197.066 85.8431L204.594 81.4966C205.077 81.2179 205.694 81.3833 205.973 81.866C206.252 82.3487 206.086 82.9661 205.604 83.2448ZM202.391 77.6806L194.863 82.0271C194.38 82.3058 193.763 82.1404 193.484 81.6577C193.205 81.175 193.371 80.5576 193.854 80.2789L201.382 75.9324C201.865 75.6537 202.482 75.8191 202.761 76.3018C203.039 76.7845 202.874 77.402 202.391 77.6806Z"
    fill="white" />
  <path
    d="M35.1256 143.841C35.0588 143.243 33.4969 143.424 33.0345 142.785C32.5722 142.146 32.3086 140.826 32.3086 140.826L31.0656 140.465L31.3091 138.576L32.6744 138.525C32.6744 138.525 32.8402 136.915 33.6903 136.146C34.5404 135.377 44.8284 135.98 44.9324 137.713C45.3732 145.072 42.389 144.021 42.869 146.195C43.0648 147.081 44.2509 147.19 44.6685 148.172C45.0311 149.023 44.1592 149.974 44.3693 150.707C44.6931 151.835 45.6141 151.626 46.1916 152.489C46.7691 153.351 45.9669 154.147 46.6687 155.415C47.0496 156.103 48.7313 156.056 49.1645 156.633C49.3756 156.913 50.0933 158.189 49.6667 158.435L40.6728 163.627C40.6728 163.627 34.1095 153.674 35.1276 143.844L35.1256 143.841Z"
    fill="white" />
  <path
    d="M124.712 146.749L123.269 147.582C122.862 147.817 122.352 147.521 122.357 147.051C122.381 144.025 122.348 135.3 121.204 130.592C119.413 123.208 114.511 114.057 114.511 114.057L116.886 112.686C116.886 112.686 121.367 120.343 123.853 128.997C125.373 134.286 125.088 144.29 125.016 146.246C125.009 146.456 124.893 146.644 124.712 146.749Z"
    fill="white" />
  <path
    d="M72.1251 160.319L65.7412 164.004C65.7412 164.004 64.6234 163.082 63.5485 161.179C62.4736 159.277 62.0585 157.626 62.0585 157.626L68.4424 153.94C68.4424 153.94 69.0377 155.295 70.1381 157.213C71.3235 159.279 72.1251 160.319 72.1251 160.319Z"
    fill="white" />
  <path
    d="M41.0092 164.262C41.6304 165.338 43.0074 165.708 44.0852 165.086L65.7978 152.55C66.2489 152.29 66.4627 151.752 66.3119 151.252L64.3275 144.681C63.8504 143.101 64.5311 141.402 65.966 140.588L116.464 111.954L110.145 101.722C109.741 101.066 108.889 100.851 108.222 101.236C107.581 101.606 107.331 102.406 107.645 103.074L109.871 107.813C110.57 109.305 110.036 111.083 108.629 111.942L63.7876 139.271C62.195 140.242 61.3358 142.07 61.6065 143.917L62.4624 149.765C62.6087 150.764 62.1359 151.753 61.2679 152.268L41.0092 164.262Z"
    fill="white" />
  <path d="M53.6758 163.883L52.1855 164.743L54.641 168.996L56.1312 168.136L53.6758 163.883Z" fill="white" />
  <path
    d="M49.9854 166.014L47.3789 167.519C47.3789 167.519 47.6565 168.62 48.3729 169.89C49.0892 171.159 49.8343 171.772 49.8343 171.772L52.4409 170.267L49.9854 166.014Z"
    fill="white" />
  <path
    d="M116.704 153.822L115.752 154.372C115.752 154.372 114.88 151.231 112.371 146.804C109.861 142.376 107.172 139.51 107.172 139.51L108.123 138.961C108.123 138.961 110.268 140.802 113.155 145.965C116.042 151.127 116.705 153.824 116.705 153.824L116.704 153.822Z"
    fill="white" />
  <path
    d="M63.2458 161.356C62.7428 160.464 62.3831 159.631 62.1424 158.995L55.8516 162.627L58.307 166.88L64.5593 163.27C64.1756 162.808 63.7062 162.174 63.2458 161.356Z"
    fill="white" />
  <path d="M81.2783 156.819L78.4102 158.475L84.7064 169.38L87.5745 167.724L81.2783 156.819Z" fill="white" />
  <path
    d="M73.5136 172.296L70.9509 173.776C70.9509 173.776 70.0022 173.053 69.134 171.509C68.2659 169.964 67.9654 168.605 67.9654 168.605L70.5281 167.125C70.5281 167.125 70.8431 168.015 71.8383 169.816C72.8336 171.617 73.5136 172.296 73.5136 172.296Z"
    fill="white" />
  <path
    d="M78.531 159.678L70.0811 164.557C70.0811 164.557 70.6951 166.994 72.2801 169.8C73.865 172.607 75.515 173.969 75.515 173.969L83.9648 169.09L78.531 159.678Z"
    fill="white" />
  <path d="M94.1993 150.633L82.2793 157.515L87.7132 166.926L99.6331 160.044L94.1993 150.633Z" fill="white" />
  <path
    d="M118.416 132.122C118.666 133.333 118.862 134.598 119.013 135.84L121.376 134.476C121.22 133.136 121.021 131.887 120.766 130.838C120.761 130.817 120.755 130.795 120.75 130.774L118.416 132.122Z"
    fill="white" />
  <path
    d="M124.3 128.665C124.3 128.665 124.3 128.669 124.301 128.671C124.606 129.73 124.839 130.98 125.013 132.316L154.561 115.256L152.802 112.209L124.3 128.665Z"
    fill="white" />
  <path
    d="M117.109 127.424C117.382 128.257 117.646 129.12 117.905 130.014C117.987 130.299 118.064 130.594 118.138 130.893L120.434 129.567C120.117 128.438 119.74 127.283 119.333 126.14L117.111 127.423L117.109 127.424Z"
    fill="white" />
  <path
    d="M122.784 124.086C123.192 125.182 123.584 126.318 123.945 127.479L152.201 111.165L150.442 108.118L122.786 124.085L122.784 124.086Z"
    fill="white" />
  <path
    d="M115.526 123.016C115.932 124.051 116.347 125.171 116.755 126.369L118.948 125.104C118.522 123.969 118.07 122.858 117.624 121.805L115.526 123.016Z"
    fill="white" />
  <path
    d="M121.035 119.777C121.486 120.801 121.946 121.902 122.394 123.055L149.897 107.176L148.138 104.129L121.035 119.777Z"
    fill="white" />
  <path
    d="M106.855 139.693L93.1358 147.614L101.716 162.476L102.699 161.908L101.988 160.676L102.174 160.569L102.45 160.622L102.567 160.342L108.08 157.159L110.053 156.448L111.829 155.423C111.829 155.423 113.936 154.67 114.173 155.08C114.203 155.133 114.235 155.143 114.261 155.233L115.432 154.557C115.432 154.557 114.756 151.867 111.868 146.706C108.979 141.544 106.85 139.694 106.85 139.694L106.855 139.693ZM111.118 154.188L109.342 155.213L107.741 156.566L102.227 159.749L101.926 159.71L101.834 159.976L101.648 160.084L100.402 157.925L100.588 157.817L100.864 157.871L100.981 157.59L106.494 154.407L108.466 153.697L110.243 152.671C110.243 152.671 112.35 151.918 112.587 152.329C112.824 152.74 111.118 154.188 111.118 154.188ZM109.531 151.439L107.755 152.465L106.154 153.817L100.64 157L100.339 156.961L100.247 157.227L100.061 157.335L98.8146 155.176L99.0006 155.069L99.2771 155.122L99.3938 154.841L104.907 151.658L106.879 150.948L108.656 149.922C108.656 149.922 110.763 149.169 111 149.58C111.237 149.991 109.531 151.439 109.531 151.439Z"
    fill="white" />
  <path
    d="M114.486 160.57L112.627 161.437L110.912 162.645L105.142 165.335L104.845 165.27L104.73 165.528L104.534 165.62L103.481 163.361L103.676 163.27L103.948 163.347L104.087 163.077L109.857 160.387L111.885 159.85L113.743 158.983C113.743 158.983 115.908 158.417 116.109 158.846C116.31 159.275 114.484 160.571 114.484 160.571L114.486 160.57Z"
    fill="white" />
  <path
    d="M115.88 164.198L113.953 164.899L112.139 165.953L106.158 168.131L105.868 168.038L105.731 168.286L105.528 168.361L104.676 166.018L104.879 165.944L105.143 166.044L105.306 165.788L111.288 163.61L113.354 163.253L115.28 162.553C115.28 162.553 117.488 162.177 117.649 162.622C117.81 163.067 115.88 164.198 115.88 164.198Z"
    fill="white" />
  <path
    d="M116.958 167.907L114.978 168.438L113.08 169.33L106.931 170.977L106.651 170.861L106.491 171.095L106.282 171.151L105.636 168.743L105.845 168.688L106.1 168.813L106.285 168.57L112.435 166.922L114.523 166.746L116.504 166.216C116.504 166.216 118.735 166.035 118.858 166.49C118.98 166.946 116.957 167.906 116.957 167.906L116.958 167.907Z"
    fill="white" />
  <path
    d="M117.663 171.669L115.643 172.025L113.674 172.75L107.404 173.857L107.133 173.716L106.956 173.935L106.744 173.973L106.311 171.518L106.523 171.48L106.766 171.625L106.972 171.401L113.242 170.294L115.338 170.301L117.358 169.945C117.358 169.945 119.596 169.958 119.678 170.426C119.761 170.893 117.661 171.67 117.661 171.67L117.663 171.669Z"
    fill="white" />
  <path
    d="M118.046 175.442L116.002 175.62L113.979 176.168L107.636 176.724L107.381 176.561L107.184 176.763L106.97 176.781L106.753 174.297L106.967 174.279L107.195 174.444L107.418 174.238L113.76 173.682L115.849 173.871L117.893 173.693C117.893 173.693 120.122 173.902 120.163 174.374C120.204 174.846 118.045 175.437 118.045 175.437L118.046 175.442Z"
    fill="white" />
  <path
    d="M118.152 179.215L116.101 179.215L114.038 179.585L107.671 179.584L107.43 179.398L107.216 179.582L107.001 179.582L107.001 177.09L107.217 177.089L107.431 177.275L107.672 177.088L114.039 177.089L116.104 177.46L118.154 177.461C118.154 177.461 120.357 177.863 120.356 178.336C120.356 178.809 118.154 179.212 118.154 179.212L118.152 179.215Z"
    fill="white" />
  <path
    d="M95.2328 125.189C94.9941 125.327 94.7896 125.52 94.641 125.753L92.0669 129.734C91.9173 129.965 91.7138 130.16 91.4751 130.298L69.7502 142.841C69.0323 143.255 68.707 144.115 68.9677 144.903C69.113 145.341 69.3054 145.885 69.5587 146.534L94.7325 132.012C94.7325 132.012 97.3196 134.085 100.29 139.433C100.893 140.518 101.216 141.129 101.636 142.008L108.169 138.208C108.169 138.208 109.676 139.212 112.2 143.17C112.616 143.822 114.353 146.786 114.658 147.375L119.293 144.762C119.293 144.762 119.159 136.159 117.47 130.28C114.983 121.626 111.621 115.734 111.621 115.734L95.2359 125.194L95.2328 125.189ZM105.127 124.202L97.8546 128.4C97.4369 128.642 96.9025 128.498 96.6613 128.081C96.4201 127.663 96.5633 127.129 96.9811 126.887L104.253 122.689C104.671 122.448 105.205 122.591 105.446 123.009C105.688 123.426 105.544 123.961 105.127 124.202ZM114.892 131.415C114.542 131.617 114.094 131.497 113.892 131.147C113.69 130.798 113.811 130.349 114.16 130.148C114.509 129.946 114.958 130.066 115.159 130.416C115.361 130.765 115.241 131.213 114.892 131.415ZM113.897 127.746C113.548 127.948 113.099 127.828 112.897 127.478C112.696 127.129 112.816 126.681 113.165 126.479C113.514 126.277 113.963 126.398 114.165 126.747C114.366 127.096 114.246 127.545 113.897 127.746ZM112.484 124.319C112.135 124.52 111.686 124.4 111.485 124.051C111.283 123.702 111.403 123.253 111.753 123.051C112.102 122.85 112.55 122.97 112.752 123.319C112.954 123.669 112.834 124.117 112.484 124.319ZM111.077 120.888C110.728 121.09 110.279 120.97 110.078 120.62C109.876 120.271 109.996 119.823 110.345 119.621C110.695 119.419 111.143 119.539 111.345 119.889C111.547 120.238 111.426 120.687 111.077 120.888Z"
    fill="white" />
  <path
    d="M94.5971 132.466L66.8938 148.46C66.8938 148.46 67.8973 152.44 70.4862 157.025C71.7451 159.254 72.8829 160.678 73.8687 161.806L78.2867 159.255L77.6979 158.235L81.4264 156.059L82.0273 157.084L93.9473 150.202L92.2843 147.321L101.266 142.136C100.846 141.257 100.553 140.706 99.9501 139.621C96.9794 134.273 94.5961 132.464 94.5961 132.464L94.5971 132.466ZM72.4114 153.517L70.6861 148.45L71.2759 148.109L73.0011 153.177L72.4114 153.517ZM74.2597 152.45L73.6699 152.791L71.9446 147.723L72.5344 147.382L74.2597 152.45ZM74.9284 152.064L73.2031 146.996L73.7929 146.656L75.5182 151.724L74.9284 152.064ZM76.1869 151.338L74.4617 146.27L75.0514 145.929L76.7767 150.997L76.1869 151.338ZM78.0352 150.27L77.4455 150.611L75.7202 145.543L76.31 145.203L78.0352 150.27ZM78.704 149.884L76.9787 144.817L77.5685 144.476L79.2937 149.544L78.704 149.884ZM80.5523 148.817L79.9625 149.158L78.2372 144.09L78.827 143.749L80.5523 148.817Z"
    fill="white" />
  <path
    d="M103.322 162.988L103.508 162.88L103.6 162.614L103.902 162.653L109.415 159.47L111.016 158.117L112.793 157.092C112.793 157.092 114.498 155.644 114.261 155.233L102.697 161.909L103.321 162.989L103.322 162.988Z"
    fill="white" />
</svg>