<svg width="256" height="256" viewBox="0 0 256 256" fill="none" xmlns="http://www.w3.org/2000/svg">
<path d="M75.3384 115.213L70.2683 115.241C70.1369 115.247 70.0093 115.287 69.8982 115.358C69.7871 115.428 69.6964 115.527 69.6351 115.643C69.5737 115.76 69.5439 115.89 69.5485 116.021C69.5532 116.153 69.5921 116.281 69.6615 116.393L70.57 117.966L75.3384 115.213Z" fill="white"/>
<path d="M68.2563 145.166C68.9448 144.273 69.4463 143.251 69.731 142.159C70.0432 140.898 70.0637 139.581 69.7911 138.31L63.8612 138.358C63.6162 138.358 63.38 138.449 63.1978 138.613C63.0156 138.777 62.9002 139.002 62.8735 139.246L62.3586 143.86C62.3445 143.995 62.3575 144.131 62.3969 144.261C62.4363 144.39 62.5013 144.51 62.5881 144.615C62.6748 144.719 62.7815 144.804 62.9019 144.866C63.0223 144.928 63.1539 144.966 63.289 144.976L67.9988 145.315L68.2563 145.166Z" fill="white"/>
<path d="M123.217 88.2188L96.2998 103.76L97.2799 105.457L124.198 89.9164L123.217 88.2188Z" fill="white"/>
<path d="M128.64 85.0887L126.193 86.501L127.173 88.1985L129.62 86.7862L128.64 85.0887Z" fill="white"/>
<path d="M108.098 113.358C107.598 113.646 107.051 113.843 106.482 113.941C104.749 114.271 102.955 113.923 101.471 112.969C100.918 112.585 100.459 112.08 100.129 111.493L95.8231 104.035L76.4682 115.21L70.2692 118.789C70.047 118.918 69.8561 119.095 69.7101 119.307C69.5642 119.518 69.4669 119.76 69.4251 120.014L67.6722 130.346C67.5774 130.914 67.6431 131.497 67.862 132.03C68.5918 133.789 70.2522 137.821 70.3553 138.264C70.62 139.597 70.5888 140.971 70.2639 142.29C69.9387 143.497 69.3691 144.625 68.5904 145.603C66.8406 146.897 65.0168 148.088 63.1283 149.169C62.9779 149.251 62.8473 149.365 62.7456 149.503C62.644 149.641 62.5737 149.799 62.5398 149.967L62.0896 152.249C62.0789 152.311 62.086 152.375 62.1103 152.434C62.1345 152.493 62.1748 152.543 62.2265 152.58C62.2783 152.616 62.3393 152.638 62.4026 152.641C62.4659 152.644 62.5289 152.63 62.5843 152.599L73.1844 146.479C73.1844 146.479 79.2663 142.224 84.1132 149.121L81.8702 138.508C81.8094 138.192 81.8488 137.864 81.9829 137.571C82.117 137.278 82.3391 137.035 82.6183 136.874L124.901 111.871L165.173 88.5053L161.666 82.4304L108.098 113.358ZM78.765 135.31C78.7834 135.42 78.768 135.533 78.7207 135.634C78.6735 135.735 78.5967 135.819 78.5004 135.876C78.4419 135.91 78.3769 135.933 78.3095 135.941C78.2381 135.953 78.1652 135.95 78.0948 135.934C78.0244 135.917 77.958 135.887 77.8993 135.845C77.8407 135.802 77.7909 135.749 77.7529 135.687C77.7149 135.626 77.6894 135.557 77.6778 135.486L76.6269 123.568C76.6158 123.429 76.6575 123.292 76.7436 123.182C76.8297 123.073 76.9539 123.001 77.0912 122.98C77.2285 122.958 77.3688 122.99 77.484 123.067C77.5991 123.145 77.6806 123.264 77.7121 123.399L78.765 135.31ZM81.3615 134.224C81.3029 134.258 81.238 134.281 81.1706 134.29C81.0992 134.301 81.0262 134.299 80.9558 134.282C80.8854 134.265 80.819 134.235 80.7604 134.193C80.7017 134.15 80.6519 134.097 80.6139 134.035C80.5759 133.974 80.5504 133.906 80.5388 133.834L79.488 121.916C79.4769 121.777 79.5185 121.64 79.6047 121.531C79.6908 121.422 79.8149 121.349 79.9522 121.328C80.0895 121.306 80.2298 121.338 80.345 121.416C80.4602 121.493 80.5416 121.612 80.5731 121.747L81.626 133.658C81.6444 133.768 81.629 133.881 81.5818 133.982C81.5346 134.083 81.4577 134.167 81.3615 134.224ZM84.2225 132.572C84.1639 132.607 84.099 132.629 84.0316 132.638C83.9602 132.649 83.8872 132.647 83.8169 132.63C83.7465 132.613 83.6801 132.583 83.6214 132.541C83.5627 132.499 83.513 132.445 83.475 132.384C83.437 132.322 83.4115 132.254 83.3999 132.182L82.349 120.264C82.3319 120.19 82.3301 120.114 82.3439 120.039C82.3577 119.965 82.3866 119.894 82.429 119.831C82.4714 119.768 82.5263 119.715 82.5903 119.674C82.6542 119.634 82.7259 119.607 82.8007 119.595C82.8756 119.584 82.952 119.587 83.0253 119.607C83.0985 119.626 83.167 119.66 83.2265 119.707C83.2859 119.754 83.3351 119.813 83.3708 119.88C83.4065 119.946 83.4281 120.02 83.4342 120.095L84.487 132.006C84.5055 132.116 84.4901 132.229 84.4428 132.33C84.3956 132.431 84.3188 132.516 84.2225 132.572ZM87.0836 130.92C87.025 130.955 86.9601 130.977 86.8926 130.986C86.8213 130.997 86.7483 130.995 86.6779 130.978C86.6075 130.962 86.5411 130.931 86.4824 130.889C86.4238 130.847 86.374 130.793 86.336 130.732C86.298 130.67 86.2725 130.602 86.2609 130.53L85.2101 118.612C85.1929 118.538 85.1912 118.462 85.2049 118.387C85.2187 118.313 85.2477 118.242 85.2901 118.179C85.3325 118.116 85.3874 118.063 85.4513 118.023C85.5153 117.982 85.5869 117.955 85.6618 117.943C85.7366 117.932 85.8131 117.936 85.8863 117.955C85.9596 117.974 86.0281 118.008 86.0875 118.055C86.147 118.102 86.1961 118.161 86.2319 118.228C86.2676 118.294 86.2892 118.368 86.2952 118.443L87.3481 130.354C87.3665 130.464 87.3511 130.577 87.3039 130.678C87.2566 130.779 87.1798 130.864 87.0836 130.92ZM89.9446 129.268C89.886 129.303 89.8211 129.325 89.7537 129.334C89.6823 129.346 89.6093 129.343 89.539 129.326C89.4686 129.31 89.4022 129.28 89.3435 129.237C89.2848 129.195 89.2351 129.141 89.1971 129.08C89.1591 129.018 89.1335 128.95 89.122 128.879L88.0711 116.96C88.054 116.887 88.0522 116.81 88.066 116.736C88.0797 116.661 88.1087 116.59 88.1511 116.527C88.1935 116.465 88.2484 116.411 88.3124 116.371C88.3763 116.33 88.448 116.303 88.5228 116.292C88.5977 116.28 88.6741 116.284 88.7474 116.303C88.8206 116.322 88.8891 116.357 88.9486 116.403C89.008 116.45 89.0572 116.509 89.0929 116.576C89.1286 116.643 89.1502 116.716 89.1563 116.792L90.2091 128.702C90.2276 128.812 90.2122 128.925 90.1649 129.027C90.1177 129.128 90.0409 129.212 89.9446 129.268ZM92.8057 127.617C92.7471 127.651 92.6821 127.673 92.6147 127.682C92.5433 127.694 92.4704 127.691 92.4 127.675C92.3296 127.658 92.2632 127.628 92.2045 127.585C92.1459 127.543 92.0961 127.49 92.0581 127.428C92.0201 127.367 91.9946 127.298 91.983 127.227L90.9322 115.309C90.915 115.235 90.9133 115.158 90.927 115.084C90.9408 115.009 90.9698 114.938 91.0122 114.876C91.0546 114.813 91.1095 114.759 91.1734 114.719C91.2374 114.678 91.309 114.651 91.3839 114.64C91.4587 114.628 91.5351 114.632 91.6084 114.651C91.6817 114.671 91.7502 114.705 91.8096 114.752C91.8691 114.799 91.9182 114.857 91.9539 114.924C91.9897 114.991 92.0112 115.064 92.0173 115.14L93.0702 127.051C93.0886 127.161 93.0732 127.274 93.026 127.375C92.9787 127.476 92.9019 127.56 92.8057 127.617ZM95.6667 125.965C95.6081 125.999 95.5432 126.022 95.4758 126.03C95.4044 126.042 95.3314 126.039 95.261 126.023C95.1907 126.006 95.1242 125.976 95.0656 125.934C95.0069 125.891 94.9572 125.838 94.9192 125.776C94.8811 125.715 94.8556 125.646 94.8441 125.575L93.7932 113.657C93.7761 113.583 93.7743 113.506 93.7881 113.432C93.8018 113.357 93.8308 113.287 93.8732 113.224C93.9156 113.161 93.9705 113.108 94.0345 113.067C94.0984 113.026 94.1701 113 94.2449 112.988C94.3197 112.976 94.3962 112.98 94.4695 112.999C94.5427 113.019 94.6112 113.053 94.6707 113.1C94.7301 113.147 94.7793 113.205 94.815 113.272C94.8507 113.339 94.8723 113.412 94.8784 113.488L95.9312 125.399C95.9497 125.509 95.9342 125.622 95.887 125.723C95.8398 125.824 95.763 125.908 95.6667 125.965ZM97.7394 111.836L98.7923 123.747C98.8107 123.857 98.7953 123.97 98.7481 124.071C98.7008 124.172 98.624 124.256 98.5278 124.313C98.4692 124.347 98.4042 124.37 98.3368 124.379C98.2654 124.39 98.1925 124.388 98.1221 124.371C98.0517 124.354 97.9853 124.324 97.9266 124.282C97.868 124.239 97.8182 124.186 97.7802 124.124C97.7422 124.063 97.7167 123.995 97.7051 123.923L96.6543 112.005C96.6371 111.931 96.6353 111.855 96.6491 111.78C96.6629 111.706 96.6919 111.635 96.7343 111.572C96.7767 111.509 96.8316 111.456 96.8955 111.415C96.9595 111.375 97.0311 111.348 97.1059 111.336C97.1808 111.324 97.2572 111.328 97.3305 111.348C97.4038 111.367 97.4723 111.401 97.5317 111.448C97.5912 111.495 97.6403 111.554 97.676 111.62C97.7118 111.687 97.7333 111.761 97.7394 111.836Z" fill="white"/>
<path d="M169.565 63.7235L168.755 62.3216L165.055 64.458L163.83 62.336C163.774 62.24 163.697 62.1583 163.604 62.0976C163.511 62.0369 163.405 61.9989 163.294 61.9866C163.184 61.9743 163.072 61.988 162.968 62.0267C162.864 62.0653 162.77 62.1279 162.695 62.2093L159.897 65.2486C159.666 65.5056 159.522 65.8285 159.484 66.172C159.446 66.5154 159.517 66.8621 159.687 67.1631L153.297 70.8522L154.277 72.5498L169.565 63.7235Z" fill="white"/>
<path d="M150.321 72.5701L147.875 73.9824L148.855 75.68L151.301 74.2677L150.321 72.5701Z" fill="white"/>
<path d="M134.061 81.9588L131.615 83.3711L132.595 85.0686L135.041 83.6563L134.061 81.9588Z" fill="white"/>
<path d="M175.534 73.7873L169.844 64.1973L97.5554 105.933L100.606 111.217C100.895 111.732 101.297 112.176 101.781 112.515C103.147 113.391 104.798 113.706 106.391 113.396C106.895 113.31 107.379 113.136 107.822 112.88L175.534 73.7873Z" fill="white"/>
<path d="M139.483 78.8279L137.037 80.2402L138.017 81.9378L140.463 80.5255L139.483 78.8279Z" fill="white"/>
<path d="M144.899 75.7008L142.458 77.1104L143.438 78.8079L145.88 77.3983L144.899 75.7008Z" fill="white"/>
<path d="M122.731 123.836C123.185 124.623 127.443 132.185 127.438 132.188C127.559 132.336 127.643 132.511 127.683 132.699C127.723 132.886 127.718 133.08 127.668 133.265C127.618 133.45 127.526 133.621 127.398 133.763C127.269 133.905 127.109 134.015 126.93 134.083L112.573 142.671C112.46 142.147 112.266 141.643 111.998 141.178C111.856 140.93 111.692 140.695 111.509 140.475L124.288 133.097C124.88 132.756 124.997 132.376 124.651 131.775C123.965 130.588 121.782 126.807 120.733 124.99C121.165 124.96 121.586 124.834 121.964 124.622C122.258 124.401 122.517 124.136 122.731 123.836Z" fill="white"/>
<path d="M119.693 177.865L98.5503 190.072L99.0348 190.912L120.178 178.705L119.693 177.865Z" fill="white"/>
<path d="M107.146 130.12L109.477 134.159C109.822 134.699 110.262 135.171 110.777 135.551C112.021 136.263 114.689 137.349 117.503 135.826C117.505 135.821 117.505 135.817 117.505 135.812C117.504 135.807 117.503 135.803 117.501 135.799C117.498 135.795 117.495 135.791 117.491 135.788C117.487 135.786 117.483 135.784 117.479 135.783C116.961 135.624 113.883 134.973 112.543 133.203C111.556 131.708 110.66 130.156 109.859 128.554L107.146 130.12Z" fill="white"/>
<path d="M120.545 122.473C120.884 122.277 121.001 121.842 120.805 121.502C120.608 121.163 120.174 121.046 119.834 121.243C119.495 121.439 119.378 121.873 119.574 122.213C119.771 122.553 120.205 122.669 120.545 122.473Z" fill="white"/>
<path d="M125.644 112.605L127.111 115.147L132.219 112.134L132.847 113.222L135.727 111.559L135.083 110.443L137.563 108.979L138.221 110.119L141.101 108.456L140.426 107.288L142.906 105.824L143.595 107.016L146.47 105.356L145.765 104.135L148.245 102.672L148.964 103.916L151.844 102.253L151.109 100.98L153.589 99.5166L154.338 100.814L157.213 99.1535L156.451 97.8326L158.931 96.3689L159.707 97.7136L162.587 96.0508L161.794 94.6775L164.274 93.2138L165.081 94.611L167.961 92.9481L167.138 91.5224L169.618 90.0587L170.455 91.5083L173.33 89.8482L171.32 86.2785L125.644 112.605Z" fill="white"/>
<path d="M162.143 82.1549L165.653 88.2347L175.967 82.2798C176.119 82.1919 176.241 82.0608 176.317 81.9033C176.394 81.7458 176.422 81.569 176.398 81.3955C176.192 79.5306 175.831 74.2906 175.965 74.5119L175.811 74.2449L162.143 82.1549Z" fill="white"/>
<path d="M106.385 125.632C106.206 125.736 106.061 125.89 105.97 126.075C105.878 126.261 105.844 126.47 105.871 126.675C105.898 126.88 105.985 127.072 106.122 127.228C106.258 127.384 106.437 127.495 106.637 127.549C106.837 127.602 107.048 127.595 107.244 127.529C107.44 127.462 107.612 127.339 107.738 127.175C107.864 127.011 107.938 126.813 107.952 126.607C107.966 126.4 107.918 126.194 107.814 126.015C107.745 125.896 107.654 125.792 107.545 125.708C107.436 125.625 107.312 125.563 107.179 125.528C107.046 125.492 106.908 125.483 106.772 125.501C106.635 125.519 106.504 125.564 106.385 125.632Z" fill="white"/>
<path d="M118.775 119.375C118.991 119.25 119.149 119.045 119.214 118.804C119.279 118.562 119.245 118.305 119.12 118.089L118.432 116.897L116.801 117.839L117.475 119.007C117.535 119.118 117.616 119.217 117.714 119.296C117.812 119.375 117.925 119.434 118.047 119.468C118.168 119.503 118.295 119.512 118.42 119.496C118.546 119.48 118.666 119.439 118.775 119.375Z" fill="white"/>
<path d="M125.081 112.931L118.903 116.612L119.597 117.814C119.795 118.157 119.848 118.564 119.746 118.946C119.643 119.329 119.393 119.654 119.051 119.852C118.708 120.05 118.301 120.104 117.918 120.001C117.536 119.899 117.21 119.649 117.012 119.306L116.34 118.143L88.1425 134.957L89.0935 137.034C89.3325 137.569 89.7558 138.002 90.2866 138.252C90.6264 138.403 90.9975 138.471 91.3687 138.449C91.74 138.427 92.1007 138.317 92.4203 138.126L117.046 123.769C117.209 123.675 117.389 123.612 117.575 123.584C118.362 123.454 119.17 123.636 119.825 124.091C120.06 124.258 120.332 124.365 120.618 124.403C120.904 124.441 121.194 124.408 121.465 124.307C121.735 124.207 121.976 124.041 122.167 123.826C122.358 123.61 122.494 123.351 122.562 123.07C122.945 121.533 123.719 119.338 125.371 118.499C125.808 118.299 126.174 117.971 126.422 117.559C126.67 117.147 126.787 116.67 126.759 116.19C126.73 115.934 126.684 115.681 126.62 115.431L125.139 112.866C125.123 112.89 125.103 112.912 125.081 112.931ZM107.706 127.921C107.433 128.079 107.119 128.153 106.804 128.132C106.488 128.111 106.187 127.998 105.936 127.805C105.685 127.613 105.498 127.351 105.396 127.052C105.295 126.753 105.284 126.43 105.366 126.125C105.447 125.82 105.618 125.546 105.855 125.338C106.093 125.13 106.387 124.997 106.7 124.955C107.013 124.914 107.331 124.967 107.614 125.106C107.898 125.246 108.133 125.467 108.291 125.74C108.503 126.107 108.56 126.543 108.45 126.952C108.341 127.361 108.073 127.71 107.706 127.921ZM120.818 122.958C120.601 123.083 120.352 123.141 120.102 123.125C119.852 123.109 119.613 123.018 119.414 122.866C119.215 122.713 119.066 122.506 118.986 122.268C118.905 122.031 118.897 121.775 118.962 121.533C119.027 121.292 119.162 121.074 119.35 120.909C119.538 120.744 119.771 120.638 120.02 120.606C120.268 120.573 120.52 120.615 120.745 120.725C120.97 120.836 121.157 121.011 121.282 121.228C121.449 121.518 121.495 121.863 121.409 122.186C121.323 122.51 121.112 122.787 120.823 122.955L120.818 122.958Z" fill="white"/>
<path d="M100.561 133.891L103.075 141.34L103.471 142.51L105.049 147.194L105.441 148.367L113.768 173.053C113.855 173.287 113.857 173.543 113.774 173.778C113.691 174.013 113.529 174.211 113.315 174.339L89.6823 187.983L84.7002 150.722L82.7128 138.899C82.6746 138.696 82.7005 138.486 82.7869 138.298C82.8733 138.111 83.016 137.955 83.195 137.851L87.6869 135.258L88.6117 137.267C88.7952 137.678 89.0636 138.045 89.3991 138.345C89.8565 138.736 90.4251 138.974 91.0247 139.024C91.6244 139.075 92.2248 138.936 92.7414 138.628L100.561 133.891Z" fill="white"/>
<path d="M109.265 142.668C109.397 142.898 109.458 143.162 109.439 143.427C109.421 143.692 109.325 143.946 109.162 144.156C109 144.366 108.779 144.523 108.527 144.608C108.276 144.693 108.005 144.701 107.749 144.632C107.492 144.562 107.262 144.419 107.087 144.219C106.913 144.019 106.801 143.772 106.767 143.509C106.732 143.245 106.777 142.978 106.894 142.74C107.012 142.502 107.197 142.304 107.427 142.171C107.58 142.083 107.749 142.025 107.925 142.002C108.1 141.979 108.279 141.991 108.449 142.038C108.62 142.084 108.78 142.163 108.92 142.271C109.06 142.379 109.177 142.514 109.265 142.668Z" fill="white"/>
<path d="M107.278 138.984C107.046 138.899 106.835 138.769 106.655 138.6C106.476 138.432 106.333 138.228 106.235 138.003L103.657 132.096L101.044 133.605L103.445 140.726L103.784 141.732L105.773 147.621L106.107 148.618L114.293 172.883C114.42 173.237 114.419 173.624 114.291 173.976C114.162 174.329 113.914 174.626 113.59 174.815L89.8099 188.545C90.1722 189.855 91.4219 193.209 94.4949 191.594L98.2805 189.605L119.424 177.398C119.424 177.398 121.808 176.022 120.264 173.734C118.935 171.729 111.312 153.471 109.445 148.96C109.347 148.708 109.32 148.433 109.368 148.166C109.416 147.899 109.537 147.651 109.717 147.449C110.73 146.197 112.355 144.419 111.573 142.073C110.791 139.727 108.138 139.295 107.278 138.984ZM109.038 144.961C108.712 145.15 108.338 145.238 107.963 145.215C107.588 145.191 107.228 145.056 106.929 144.828C106.63 144.599 106.406 144.287 106.285 143.931C106.164 143.575 106.151 143.191 106.248 142.827C106.346 142.464 106.549 142.138 106.832 141.89C107.115 141.642 107.465 141.484 107.838 141.435C108.211 141.387 108.59 141.45 108.927 141.617C109.264 141.784 109.544 142.047 109.731 142.374C109.863 142.589 109.951 142.829 109.989 143.08C110.027 143.33 110.014 143.585 109.952 143.83C109.889 144.075 109.779 144.305 109.626 144.507C109.473 144.709 109.257 144.835 109.038 144.961Z" fill="white"/>
<path d="M109.265 142.668C109.397 142.898 109.458 143.162 109.439 143.427C109.421 143.692 109.325 143.946 109.162 144.156C109 144.366 108.779 144.523 108.527 144.608C108.276 144.693 108.005 144.701 107.749 144.632C107.492 144.562 107.262 144.419 107.087 144.219C106.913 144.019 106.801 143.772 106.767 143.509C106.732 143.245 106.777 142.978 106.894 142.74C107.012 142.502 107.197 142.304 107.427 142.171C107.58 142.083 107.749 142.025 107.925 142.002C108.1 141.979 108.279 141.991 108.449 142.038C108.62 142.084 108.78 142.163 108.92 142.271C109.06 142.379 109.177 142.514 109.265 142.668Z" fill="white"/>
</svg>
