<svg width="256" height="256" viewBox="0 0 256 256" fill="none" xmlns="http://www.w3.org/2000/svg">
<path d="M79.4517 199.696C79.9765 200.462 80.0097 201.258 79.9605 201.743C79.9452 201.923 80.1354 202.045 80.298 201.951L101.425 189.754C101.47 189.728 101.698 189.604 101.745 189.569C103.894 188.149 106.443 187.163 103.044 186.067L79.4485 199.69L79.4517 199.696Z" fill="white"/>
<path d="M110.25 102.314L94.4675 111.426C95.0199 112.798 96.0013 114.743 98.8385 114.93L111.082 107.861C111.16 107.816 113.227 106.473 111.747 103.91L110.682 102.065L110.256 102.311L110.25 102.314Z" fill="white"/>
<path d="M93.157 108.302C93.157 108.302 93.9609 109.513 94.292 110.63L110.282 101.399C110.282 101.399 108.98 100.348 108.704 99.326L93.157 108.302Z" fill="white"/>
<path d="M97.9025 145.068C98.9061 144.489 99.2499 143.206 98.6705 142.202C98.0911 141.199 96.8079 140.855 95.8044 141.434C94.8008 142.014 94.457 143.297 95.0364 144.3C95.6158 145.304 96.899 145.648 97.9025 145.068Z" fill="white"/>
<path d="M127.956 113.658C123.986 115.913 105.736 126.307 101.019 129.211C95.7251 132.476 96.8494 138.542 96.8494 138.542C100.949 139.309 101.421 143.546 101.465 144.776C102.51 144.487 103.468 144.644 103.468 144.644C111.019 147.516 116.591 142.856 116.591 142.856C125.192 136.446 119.146 127.943 119.146 127.943C118.018 126.739 117.389 125.443 118.044 124.466C119.607 122.135 122.953 120.495 124.318 119.894C124.694 119.729 124.951 119.371 124.985 118.963L125.102 117.677C126.487 116.877 127.484 115.546 127.863 113.989L127.914 113.78L127.95 113.647L127.956 113.658ZM116.878 140.477C111.237 146.366 103.712 142.282 103.712 142.282C100.398 139.806 100.115 136.919 100.357 135.111C100.44 134.503 101.266 134.354 101.546 134.903C105.782 143.121 112.597 141.027 112.597 141.027C110.691 141.042 108.34 138.938 108.34 138.938C103.725 135.866 105.495 130.604 105.495 130.604C109.813 122.488 115.314 127.47 115.314 127.47C123.164 133.011 116.875 140.471 116.875 140.471L116.878 140.477Z" fill="white"/>
<path d="M174.932 70.085L152.106 83.264C151.825 83.4259 151.416 83.2357 151.19 82.8431C150.963 82.4505 151.003 82.0013 151.283 81.8394L174.11 68.6605C174.39 68.4986 174.799 68.6887 175.026 69.0813C175.252 69.4739 175.213 69.9231 174.932 70.085Z" fill="white"/>
<path d="M173.21 63.8779L174.374 63.1466L175.131 62.7095C176.404 63.3873 177.903 64.9598 179.107 67.0461C180.312 69.1323 180.924 71.2164 180.875 72.6584L180.561 72.8398L179.186 72.9977L179.126 72.92L179.138 72.9136C178.929 71.6205 178.363 70.0559 177.459 68.4912C176.423 66.6966 175.176 65.3005 174.029 64.5048L173.21 63.8779Z" fill="white"/>
<path d="M180.646 59.5177L175.868 62.2764C177.218 63.1266 178.648 64.709 179.772 66.6551C180.895 68.6011 181.545 70.6336 181.612 72.2253L185.88 69.7613C185.88 69.7613 186.5 63.9969 180.64 59.5209L180.646 59.5177Z" fill="white"/>
<path d="M175.318 61.9727L179.788 59.3921L176.284 56.353L173.306 58.0724L174.144 62.2695L175.318 61.9727Z" fill="white"/>
<path d="M56.7593 126.25L56.0567 125.033C55.8559 124.685 55.9166 124.247 56.1989 123.971L57.3058 122.884C57.4785 122.717 57.7167 122.624 57.9553 122.636L63.26 122.848L56.7569 126.259L56.7593 126.25Z" fill="white"/>
<path d="M110.895 97.8892L109.594 98.6404L112.415 103.525C113.891 106.083 112.457 107.913 111.493 108.522L111.482 108.528L99.0196 115.723L98.7866 115.708C95.2214 115.478 94.1677 112.811 93.6087 111.377L93.4884 111.065C93.1619 110.266 92.6693 109.504 92.4082 109.116L92.1293 108.724L86.5656 111.936L83.7408 112.535L65.1822 123.25L57.0597 127.625L53.7384 133.633C53.4437 134.379 52.2691 135.065 51.603 135.375L49.1026 136.497C48.7578 136.651 48.4464 136.875 48.2389 137.19C47.4455 138.328 47.5241 139.734 48.3945 140.024C48.8772 140.186 49.8985 139.17 50.3886 139.022C56.2379 137.185 57.8607 140.294 59.4055 142.296L118.508 108.173L113.347 99.2334C112.248 97.9386 110.904 97.8915 110.904 97.8915L110.895 97.8892ZM67.7977 136.419C67.7416 136.451 67.679 136.473 67.6132 136.488C67.2777 136.555 66.9458 136.342 66.876 136.001L65.3314 128.443C65.2649 128.108 65.4747 127.785 65.8182 127.706C66.1536 127.639 66.4855 127.851 66.5553 128.193L68.0999 135.751C68.1509 136.021 68.0276 136.286 67.8033 136.416L67.7977 136.419ZM69.5531 135.406C69.497 135.438 69.4345 135.459 69.3687 135.475C69.0332 135.541 68.7013 135.329 68.6315 134.988L67.0869 127.43C67.0203 127.094 67.2302 126.771 67.5736 126.692C67.9091 126.626 68.241 126.838 68.3108 127.179L69.8554 134.737C69.9064 135.007 69.7831 135.273 69.5587 135.402L69.5531 135.406ZM71.3086 134.392C71.2525 134.424 71.1899 134.446 71.1241 134.461C70.7887 134.528 70.4568 134.315 70.387 133.974L68.8424 126.416C68.7758 126.081 68.9856 125.757 69.3291 125.679C69.6646 125.612 69.9964 125.824 70.0662 126.166L71.6109 133.724C71.6619 133.994 71.5385 134.259 71.3142 134.389L71.3086 134.392ZM73.0584 133.382C73.0024 133.414 72.9398 133.435 72.874 133.451C72.5385 133.517 72.2066 133.305 72.1368 132.964L70.5922 125.406C70.5257 125.07 70.7355 124.747 71.0789 124.669C71.4144 124.602 71.7463 124.814 71.8161 125.155L73.3607 132.714C73.4117 132.983 73.2884 133.249 73.0641 133.378L73.0584 133.382ZM74.8139 132.368C74.7578 132.401 74.6953 132.422 74.6295 132.437C74.294 132.504 73.9621 132.292 73.8923 131.951L72.3477 124.392C72.2811 124.057 72.4909 123.734 72.8344 123.655C73.1699 123.588 73.5018 123.801 73.5716 124.142L75.1162 131.7C75.1672 131.97 75.0439 132.235 74.8195 132.365L74.8139 132.368ZM76.5694 131.355C76.5133 131.387 76.4507 131.408 76.3849 131.424C76.0495 131.49 75.7176 131.278 75.6478 130.937L74.1032 123.379C74.0366 123.043 74.2464 122.72 74.5899 122.642C74.9253 122.575 75.2572 122.787 75.327 123.128L76.8716 130.687C76.9227 130.956 76.7993 131.222 76.575 131.351L76.5694 131.355ZM78.3248 130.341C78.2688 130.374 78.2062 130.395 78.1404 130.41C77.8049 130.477 77.473 130.265 77.4032 129.924L75.8586 122.365C75.7921 122.03 76.0019 121.707 76.3453 121.628C76.6808 121.561 77.0127 121.774 77.0825 122.115L78.6271 129.673C78.6781 129.943 78.5548 130.208 78.3305 130.338L78.3248 130.341ZM80.0747 129.331C80.0186 129.363 79.9561 129.384 79.8903 129.4C79.5548 129.467 79.2229 129.254 79.1531 128.913L77.6085 121.355C77.5419 121.019 77.7517 120.696 78.0952 120.618C78.4307 120.551 78.7626 120.763 78.8324 121.104L80.377 128.663C80.428 128.932 80.3046 129.198 80.0803 129.328L80.0747 129.331ZM81.8302 128.317C81.7741 128.35 81.7115 128.371 81.6457 128.386C81.3102 128.453 80.9783 128.241 80.9086 127.9L79.3639 120.341C79.2974 120.006 79.5072 119.683 79.8507 119.604C80.1861 119.538 80.518 119.75 80.5878 120.091L82.1324 127.649C82.1834 127.919 82.0601 128.185 81.8358 128.314L81.8302 128.317ZM82.3353 119.089L83.8799 126.648C83.9309 126.918 83.8076 127.183 83.5833 127.313C83.5272 127.345 83.4646 127.366 83.3988 127.382C83.0633 127.448 82.7314 127.236 82.6616 126.895L81.117 119.337C81.0505 119.001 81.2603 118.678 81.6037 118.6C81.9392 118.533 82.2711 118.745 82.3409 119.086L82.3353 119.089Z" fill="white"/>
<path d="M173.977 65.4396L173.303 64.9317L170.867 66.3603L114.4 99.53L119.067 107.589L178.428 73.3167L178.282 72.5712C178.027 71.4172 177.505 70.1254 176.783 68.8747C175.964 67.4558 174.956 66.228 173.974 65.434L173.977 65.4396ZM175.146 70.4556L152.319 83.6346C151.719 83.9811 150.955 83.7716 150.612 83.1771C150.269 82.5826 150.475 81.813 151.069 81.4697L173.896 68.2907C174.496 67.9443 175.26 68.1537 175.603 68.7482C175.947 69.3427 175.74 70.1124 175.146 70.4556Z" fill="white"/>
<path d="M65.5138 143.136C65.1932 143.112 64.8754 143.183 64.5853 143.328C63.8127 143.7 62.6404 144.518 63.3767 145.91C64.4468 147.932 66.188 147.361 67.0092 146.879C67.8304 146.397 70.9265 145.051 71.1843 144.319C71.4222 143.643 71.643 142.342 69.9842 141.968C69.7165 141.906 69.1429 142.065 68.9267 142.235C68.3649 142.687 66.9392 143.248 65.5194 143.133L65.5138 143.136Z" fill="white"/>
<path d="M87.4727 132.47C87.0339 132.603 86.556 132.423 86.3148 132.032C85.971 131.475 85.5818 130.645 85.8924 130.069C86.3903 129.131 90.078 128.603 90.078 128.603L90.785 130.617C90.785 130.617 88.9654 132.012 87.4727 132.47Z" fill="white"/>
<path d="M92.995 126.867L103.831 120.611C104.089 120.462 104.413 120.648 104.414 120.947L104.417 123.039C104.418 123.285 104.284 123.52 104.071 123.643L94.0482 129.429C93.7397 129.607 93.3447 129.454 93.2371 129.112L92.7408 127.514C92.665 127.267 92.7706 126.996 92.995 126.867Z" fill="white"/>
<path d="M106.408 119.182L106.727 120.874C106.783 121.179 107.088 121.369 107.39 121.284L110.036 120.557C110.501 120.43 110.862 120.058 110.973 119.59C111.13 118.916 111.231 117.938 110.755 117.218C110.627 117.022 110.414 116.899 110.182 116.898C109.665 116.883 108.564 117.062 106.768 118.316C106.489 118.507 106.35 118.849 106.414 119.179L106.408 119.182Z" fill="white"/>
<path d="M119.564 108.461L59.5807 143.093C59.6085 143.219 59.6485 143.353 59.6675 143.476C59.9389 145.241 60.3426 146.796 59.2951 148.245C58.5671 149.264 57.3594 150.073 57.6724 150.745C57.8687 151.163 58.2848 151.715 59.1269 151.581C60.1037 151.42 62.1044 150.819 62.1044 150.819C68.0031 148.886 68.4654 152.77 68.2455 155.147C68.0739 157.026 68.1088 158.913 68.2393 160.797C68.6864 167.037 69.5797 178.778 70.2316 182.485C71.1284 187.613 73.4305 195.175 73.4305 195.175C75.6882 200.691 79.6997 198.689 79.6997 198.689L102.793 185.454C104.214 184.82 102.775 182.989 102.775 182.989C98.6354 175.455 98.0664 151.376 98.0664 151.376C97.9254 147.868 99.1409 145.543 100.723 145.071L100.724 145.048C100.732 144.841 100.811 140.017 96.7384 139.258L96.2102 139.159L96.1147 138.631C96.0991 138.565 94.9565 132.001 100.647 128.491C102.214 127.527 105.432 125.639 110.205 122.883C117.855 118.467 127.015 113.26 128.236 112.563L128.443 111.718L128.466 111.719C128.422 111.655 128.39 111.614 128.39 111.614L131.078 111.67L133.651 110.221C133.146 109.631 132.76 109.091 132.76 109.091L135.546 109.15L138.495 107.485C137.971 106.875 137.563 106.31 137.563 106.31L140.462 106.371L143.333 104.751C142.788 104.131 142.366 103.53 142.366 103.53L145.321 103.596L145.32 103.634L148.006 102.121C147.442 101.481 147.002 100.861 147.002 100.861L149.957 100.927L149.956 101.017C151.53 100.026 152.347 98.4103 151.405 96.7782L148.394 91.5623L119.584 108.457L119.564 108.461ZM64.6739 147.899C63.8857 147.674 63.251 147.106 62.786 146.222C62.1153 144.957 62.5516 143.718 63.9481 142.912C64.0659 142.844 64.1836 142.776 64.2967 142.725C64.7143 142.529 65.1557 142.439 65.5695 142.469C66.5812 142.551 67.653 142.231 68.2643 141.878C68.3596 141.823 68.4438 141.774 68.507 141.716C68.5566 141.672 68.6183 141.636 68.68 141.601C68.994 141.419 69.6518 141.212 70.1254 141.32C70.8989 141.494 71.4492 141.864 71.7521 142.414C72.0712 142.993 72.0921 143.729 71.8041 144.538C71.6535 144.976 71.1766 145.394 70.1558 145.983C69.5389 146.339 68.8207 146.702 68.2461 146.989C67.863 147.18 67.5336 147.348 67.3373 147.461C66.8157 147.762 65.7727 148.222 64.6683 147.903L64.6739 147.899ZM90.8977 141.77C89.6205 147.899 90.9975 168.327 94.7316 179.25C95.3973 181.206 95.7037 184.521 93.7856 185.629L81.0676 192.717C79.5412 193.584 77.7969 194.396 76.4398 193.781C75.6912 193.443 75.2077 192.735 74.9845 191.675C73.0246 182.128 71.0045 159.253 71.7055 149.807C71.7805 148.784 72.0688 146.965 73.1548 146.256L84.9041 138.979C84.9826 138.933 85.1196 138.847 85.2991 138.743C91.603 135.104 92.2073 135.697 92.405 135.897C92.5842 136.078 92.7206 136.418 92.511 136.793C91.8145 138.048 91.1226 140.683 90.8977 141.77ZM98.7173 141.338C100.196 142.825 99.535 145.293 97.5163 145.838C96.6314 146.08 95.5302 145.908 94.879 145.259C93.4 143.773 93.8503 141.172 95.8689 140.627C96.7539 140.386 98.0662 140.69 98.7173 141.338ZM91.5713 130.852L91.1886 131.148C91.1549 131.167 90.4145 131.737 89.4778 132.278C88.7824 132.679 88.1555 132.966 87.6196 133.126C86.8984 133.341 86.1484 133.026 85.7503 132.388C85.0917 131.325 84.94 130.441 85.3024 129.76C85.4435 129.499 85.685 129.27 86.0496 129.06C87.2947 128.341 89.8747 127.965 89.9839 127.947L90.5274 127.865L91.5713 130.852ZM105.081 120.951L105.085 123.043C105.082 123.53 104.824 123.978 104.404 124.221L94.3814 130.007C94.0561 130.195 93.6746 130.221 93.327 130.085C92.9794 129.949 92.7187 129.666 92.6103 129.31L92.1139 127.712C91.9476 127.165 92.1764 126.577 92.6699 126.292L103.506 120.036C103.831 119.848 104.234 119.847 104.562 120.039C104.886 120.226 105.09 120.579 105.09 120.953L105.081 120.951ZM111.61 119.761C111.482 120.291 111.141 120.735 110.675 121.004C110.529 121.088 110.374 121.156 110.205 121.201L107.559 121.928C107.237 122.017 106.894 121.968 106.611 121.788C106.33 121.613 106.133 121.323 106.064 120.996L105.745 119.304C105.635 118.724 105.872 118.124 106.356 117.784C106.693 117.552 107.02 117.341 107.334 117.16C108.708 116.367 109.648 116.22 110.194 116.234C110.642 116.245 111.059 116.475 111.308 116.855C111.915 117.776 111.805 118.946 111.616 119.758L111.61 119.761Z" fill="white"/>
<path d="M74.3587 146.929L85.744 139.63C86.6234 139.055 92.2598 135.748 91.8279 136.529C91.0844 137.87 90.4933 140.978 90.2708 142.057C89.0132 148.077 90.0043 167.538 93.8418 178.783C94.3701 180.333 94.9635 183.355 93.3474 184.273L80.6462 191.352C78.6487 192.491 76.1232 193.582 75.5419 190.762C73.6043 181.344 71.9553 159.72 72.6517 150.344C72.7108 149.54 73.5041 147.482 74.3555 146.923L74.3587 146.929Z" fill="white"/>
</svg>
