<svg width="256" height="256" viewBox="0 0 256 256" fill="none" xmlns="http://www.w3.org/2000/svg">
<path d="M108.114 130.299C108.114 130.299 109.95 133.555 110.297 134.079C111.141 135.355 111.844 136.159 113.163 136.556C114.7 137.036 117.35 135.745 118.428 135.079C118.44 135.067 118.449 135.05 118.451 135.032C118.453 135.014 118.45 134.996 118.441 134.98C118.432 134.965 118.418 134.953 118.401 134.946C118.384 134.939 118.366 134.938 118.348 134.942C117.244 135.07 115.222 134.536 114.14 134.014C113.611 133.765 113.171 133.359 112.882 132.851L110.599 128.896L108.114 130.299Z" fill="white"/>
<path d="M127.511 103.741L161.941 83.8632L176.758 75.3087L176.723 75.0199L171.311 65.6459L121.911 94.041L127.511 103.741Z" fill="white"/>
<path d="M164.15 63.2608C164.063 63.1188 163.945 62.9986 163.804 62.9095C163.663 62.8203 163.504 62.7646 163.339 62.7464C163.173 62.7283 163.006 62.7483 162.849 62.8048C162.692 62.8614 162.551 62.9531 162.435 63.0728L159.591 66.1767C159.412 66.3739 159.301 66.6223 159.273 66.8866C159.244 67.1508 159.3 67.4172 159.432 67.6479L159.683 68.0825L165.121 64.9428L164.15 63.2608Z" fill="white"/>
<path d="M96.695 158.399C96.0177 158.789 95.4712 159.371 95.1248 160.071C94.7783 160.772 94.6474 161.559 94.7486 162.334C94.8498 163.109 95.1785 163.837 95.6933 164.425C96.208 165.012 96.8856 165.435 97.6403 165.637C98.395 165.84 99.1928 165.814 99.9329 165.564C100.673 165.313 101.322 164.848 101.798 164.228C102.274 163.609 102.555 162.862 102.607 162.082C102.658 161.302 102.477 160.525 102.086 159.848C101.562 158.942 100.7 158.282 99.6896 158.01C98.6792 157.739 97.6025 157.879 96.695 158.399Z" fill="white"/>
<path d="M164.018 87.2753L177.256 79.6319L176.892 76.4909L162.566 84.7617L164.018 87.2753Z" fill="white"/>
<path d="M114.526 172.667L101.705 134.213C99.8017 135.401 93.4473 139.321 92.4324 139.189C90.156 138.891 89.0988 136.427 88.7801 135.515L85.0948 137.642C85.3191 138.773 86.444 144.606 87.2219 147.873C87.7367 149.976 86.6987 151.659 85.6622 152.755C86.0952 158.219 87.4293 175.315 87.6512 180.762C87.7674 183.284 88.5102 185.737 89.8125 187.899L114.055 173.902C114.263 173.781 114.423 173.593 114.509 173.368C114.595 173.143 114.601 172.895 114.526 172.667ZM108.213 172.84L96.8739 179.387C96.5504 179.574 96.1856 179.677 95.8122 179.688C95.4389 179.699 95.0687 179.616 94.7351 179.449C94.4014 179.281 94.1147 179.033 93.9007 178.726C93.6867 178.42 93.5522 178.066 93.5093 177.695L90.8083 154.685C90.7153 153.988 90.813 153.279 91.0908 152.632C91.947 150.689 91.6306 148.024 91.3624 146.611C91.289 146.173 91.351 145.723 91.54 145.321C91.729 144.919 92.0361 144.585 92.4202 144.362L97.0316 141.7C97.3114 141.54 97.6231 141.444 97.9443 141.419C98.2655 141.395 98.5883 141.441 98.8893 141.556C99.1904 141.67 99.4623 141.85 99.6856 142.083C99.909 142.315 100.078 142.594 100.181 142.899L109.227 170.176C109.39 170.669 109.378 171.203 109.193 171.688C109.009 172.174 108.663 172.58 108.213 172.84Z" fill="white"/>
<path d="M102.803 112.86L97.9116 104.389L77.6909 115.433L70.6985 119.514L69.0338 130.914C69.7104 132.413 73.045 140.12 71.5989 144.086L77.571 140.638L74.3378 126.069L75.3489 125.485L78.5727 140.06L80.4059 139.001L77.1727 124.432L78.1838 123.849L81.4075 138.423L83.2407 137.365L80.0076 122.796L81.2549 122.075L84.2566 136.778L86.0756 135.728L82.8424 121.159L83.8535 120.575L87.0772 135.15L88.9105 134.091L85.6773 119.522L86.6884 118.938L89.9121 133.513L91.7453 132.455L88.5121 117.885L89.5232 117.302L92.747 131.876L94.5802 130.818L91.347 116.249L92.3581 115.665L95.5818 130.24L97.415 129.181L94.1818 114.612L95.1929 114.028L98.4167 128.603L100.25 127.545L97.0167 112.975L98.0278 112.392L101.252 126.966L165.036 90.1404L162.09 85.0376L110.387 114.888C109.112 115.623 107.597 115.822 106.175 115.442C104.754 115.062 103.541 114.133 102.803 112.86Z" fill="white"/>
<path d="M97.3045 142.172L92.6931 144.834C92.4025 145.004 92.1715 145.26 92.0315 145.566C91.8916 145.872 91.8495 146.214 91.911 146.545C92.1903 148.022 92.5215 150.811 91.6023 152.885C91.3645 153.437 91.2793 154.043 91.3556 154.64L94.0566 177.649C94.0856 177.935 94.1874 178.209 94.3521 178.445C94.5168 178.681 94.7391 178.87 94.9978 178.996C95.2502 179.123 95.5301 179.185 95.8125 179.177C96.0948 179.169 96.3708 179.091 96.6156 178.95L107.955 172.403C108.295 172.205 108.556 171.897 108.696 171.53C108.836 171.162 108.846 170.758 108.724 170.385L99.6661 143.076C99.5896 142.847 99.4631 142.637 99.2959 142.462C99.1287 142.288 98.9248 142.152 98.699 142.066C98.4732 141.979 98.231 141.944 97.9899 141.962C97.7487 141.981 97.5147 142.052 97.3045 142.172ZM100.915 165.708C100.145 166.154 99.2599 166.361 98.3722 166.304C97.4845 166.246 96.6337 165.927 95.9276 165.386C95.2215 164.845 94.6919 164.106 94.4057 163.264C94.1195 162.422 94.0896 161.513 94.3198 160.654C94.5501 159.795 95.0301 159.023 95.6991 158.437C96.3681 157.85 97.196 157.476 98.0781 157.36C98.9601 157.245 99.8566 157.393 100.654 157.788C101.452 158.182 102.114 158.804 102.558 159.575C103.152 160.606 103.313 161.831 103.004 162.981C102.696 164.131 101.945 165.112 100.915 165.708Z" fill="white"/>
<path d="M165.402 65.4293L159.964 68.5691L154.172 71.9134L154.813 73.0237L151.978 74.6604L151.337 73.5501L127.713 87.1893L128.354 88.2997L125.519 89.9364L124.878 88.826L98.8447 103.856L103.733 112.323C104.027 112.831 104.419 113.276 104.885 113.633C105.351 113.989 105.883 114.25 106.451 114.401C107.018 114.551 107.609 114.588 108.191 114.51C108.773 114.432 109.333 114.239 109.841 113.944L127.039 104.014L121.166 93.842L171.041 65.1789L169.74 62.9252L165.402 65.4293Z" fill="white"/>
<path d="M92.4979 138.647C93.0984 138.716 117.179 124.504 117.179 124.504C118.237 123.893 119.541 124.23 120.713 124.624C121.687 124.97 122.498 125.664 122.991 126.573L125.722 131.63C125.896 131.954 125.937 132.333 125.837 132.687C125.737 133.041 125.503 133.342 125.185 133.527L111.189 141.494C111.474 141.734 111.716 142.02 111.905 142.341C112.139 142.743 112.281 143.192 112.323 143.655L127.681 134.751C128.877 134.061 129.065 132.478 128.378 131.287L124.921 125.301C124.397 124.394 124.197 123.336 124.355 122.301C124.493 121.204 125.036 120.199 125.877 119.482C126.859 118.651 127.74 117.317 127.068 116.155L125.841 114.029L89.2382 135.161C89.4304 135.756 90.384 138.368 92.4979 138.647ZM120.178 122.823C120.079 122.534 120.061 122.224 120.125 121.925C120.189 121.626 120.333 121.351 120.542 121.128C120.751 120.905 121.016 120.742 121.31 120.658C121.603 120.574 121.914 120.572 122.209 120.651C122.505 120.73 122.773 120.888 122.985 121.107C123.197 121.327 123.346 121.6 123.415 121.898C123.484 122.195 123.471 122.506 123.378 122.797C123.284 123.087 123.113 123.347 122.883 123.548C122.674 123.731 122.424 123.859 122.155 123.921C121.885 123.984 121.604 123.979 121.337 123.908C121.069 123.836 120.824 123.7 120.622 123.511C120.419 123.321 120.267 123.085 120.178 122.823Z" fill="white"/>
<path d="M165.786 90.3372L177.697 83.4603L177.322 80.2247L164.291 87.748L165.786 90.3372Z" fill="white"/>
<path d="M122.344 123.268C122.539 123.155 122.696 122.987 122.796 122.785C122.896 122.583 122.933 122.355 122.904 122.132C122.874 121.908 122.779 121.698 122.631 121.529C122.482 121.359 122.286 121.238 122.069 121.179C121.851 121.121 121.62 121.128 121.407 121.201C121.193 121.273 121.006 121.408 120.869 121.587C120.732 121.765 120.65 121.981 120.636 122.206C120.621 122.431 120.673 122.655 120.786 122.851C120.937 123.113 121.186 123.304 121.478 123.382C121.77 123.46 122.082 123.419 122.344 123.268Z" fill="white"/>
<path d="M77.1253 114.531C77.0039 114.322 76.8206 114.157 76.6008 114.058C76.381 113.959 76.1357 113.931 75.8993 113.979L72.0685 114.741C71.9111 114.773 71.7635 114.842 71.6379 114.943C71.5123 115.043 71.4123 115.172 71.3462 115.318C71.28 115.464 71.2496 115.624 71.2574 115.785C71.2652 115.946 71.311 116.102 71.3911 116.241L72.3622 117.923L77.4035 115.013L77.1253 114.531Z" fill="white"/>
<path d="M99.0708 191.178C99.1051 191.234 99.1599 191.275 99.2237 191.292C99.2876 191.31 99.3557 191.301 99.4136 191.269L120.675 178.994C120.74 178.957 120.797 178.906 120.839 178.844C120.882 178.782 120.911 178.711 120.922 178.637L121.232 176.783L98.3779 189.978L99.0708 191.178Z" fill="white"/>
<path d="M76.5985 146.668C81.5751 143.656 85.5666 151.028 85.5666 151.028L85.6433 151.979C86.1312 151.449 86.4849 150.81 86.6745 150.115C86.8642 149.42 86.8843 148.69 86.7332 147.985C85.9483 144.804 84.8562 139.191 84.5944 137.843L68.8751 146.919L68.7477 147.036L64.3726 149.562C64.1962 149.665 64.0424 149.802 63.9203 149.966C63.7983 150.129 63.7105 150.316 63.6622 150.514L63.2451 152.279C63.2156 152.404 63.2197 152.534 63.2571 152.656C63.2946 152.779 63.3639 152.889 63.458 152.976L64.2034 153.667C64.2329 153.694 64.2706 153.712 64.3109 153.717C64.3512 153.722 64.392 153.714 64.4275 153.695C65.3901 153.158 71.987 149.45 76.5985 146.668Z" fill="white"/>
<path d="M66.8951 138.939C69.5067 138.062 70.657 138.657 71.1445 139.163C70.5955 136.529 69.7728 133.96 68.6898 131.496C68.2208 132.073 67.9691 132.796 67.9788 133.539C67.9792 133.916 67.9218 134.291 67.8085 134.651C67.7055 134.961 67.5421 135.248 67.3279 135.495C67.1137 135.742 66.8529 135.944 66.5603 136.09C63.7401 137.523 62.487 137.251 62.0085 136.935C61.9966 136.926 61.982 136.92 61.9668 136.919C61.9515 136.918 61.9363 136.921 61.9231 136.929C61.9099 136.937 61.8993 136.948 61.8926 136.962C61.8859 136.975 61.8835 136.991 61.8857 137.006C62.3415 138.003 63.4662 140.125 66.8951 138.939Z" fill="white"/>
<path d="M108.261 143.091C108.064 143.204 107.904 143.373 107.802 143.577C107.7 143.781 107.661 144.01 107.69 144.236C107.719 144.463 107.815 144.675 107.965 144.847C108.114 145.019 108.312 145.142 108.532 145.202C108.752 145.261 108.984 145.254 109.2 145.181C109.416 145.108 109.606 144.973 109.745 144.792C109.884 144.612 109.966 144.394 109.981 144.166C109.996 143.939 109.943 143.712 109.829 143.515C109.676 143.252 109.426 143.061 109.132 142.981C108.839 142.902 108.526 142.941 108.261 143.091Z" fill="white"/>
<path d="M108.277 141.154L108.182 140.869L104.908 132.352L102.187 133.923L115.182 172.918C115.259 173.147 115.254 173.395 115.168 173.62C115.082 173.846 114.92 174.034 114.711 174.154L90.1424 188.339C90.2406 188.509 90.2979 188.608 90.2979 188.608C91.1953 190.162 93.3624 190.839 94.6074 191.097C94.9655 191.167 95.337 191.104 95.6528 190.921L121.932 175.749C122.136 175.503 122.265 175.205 122.306 174.888C122.346 174.571 122.295 174.25 122.159 173.961C122.051 173.735 121.883 173.542 121.674 173.403C119.786 172.087 118.804 169.328 118.804 169.328L110.66 146.853L110.569 146.565C111.032 146.293 111.412 145.9 111.668 145.428C111.924 144.956 112.046 144.423 112.022 143.887C112.004 143.461 111.893 143.044 111.697 142.665C111.501 142.286 111.225 141.955 110.888 141.694C110.526 141.404 110.101 141.204 109.647 141.11C109.194 141.016 108.724 141.031 108.277 141.154ZM109.685 145.557C109.395 145.726 109.061 145.805 108.726 145.784C108.391 145.763 108.069 145.643 107.802 145.439C107.536 145.235 107.335 144.957 107.227 144.639C107.118 144.321 107.106 143.978 107.192 143.654C107.279 143.329 107.46 143.038 107.712 142.816C107.964 142.594 108.276 142.453 108.609 142.408C108.942 142.364 109.281 142.42 109.582 142.568C109.883 142.717 110.134 142.951 110.301 143.242C110.525 143.631 110.585 144.093 110.47 144.526C110.354 144.96 110.072 145.33 109.685 145.557Z" fill="white"/>
</svg>
