<svg width="256" height="256" viewBox="0 0 256 256" fill="none" xmlns="http://www.w3.org/2000/svg">
<path d="M122.372 122.556C121.284 120.978 119.265 117.77 118.535 116.602L115.297 118.472L118.389 123.828C118.724 124.408 119.198 124.894 119.769 125.244C121.226 126.138 124.246 127.336 128.251 125.479C128.314 125.45 128.365 125.402 128.398 125.341C128.431 125.281 128.444 125.211 128.434 125.143C128.424 125.074 128.393 125.011 128.344 124.962C128.295 124.913 128.232 124.881 128.163 124.871C126.455 124.674 123.351 123.98 122.372 122.556Z" fill="white"/>
<path d="M119.187 89.3182L103.012 98.6572L105.526 103.011L121.701 93.6725L119.187 89.3182Z" fill="white"/>
<path d="M127.761 103.562C129.197 103.927 130.84 103.434 133.442 101.856L165.474 83.3618C165.364 83.0482 165.225 82.7455 165.059 82.4578L162.063 77.2684L123.592 99.4795C125.057 101.939 126.355 103.204 127.761 103.562Z" fill="white"/>
<path d="M120.976 106.294C121.188 106.171 121.36 105.988 121.468 105.768C121.577 105.548 121.618 105.301 121.586 105.058C121.554 104.815 121.45 104.586 121.288 104.402C121.127 104.217 120.914 104.085 120.677 104.021C120.44 103.958 120.189 103.966 119.957 104.045C119.725 104.124 119.521 104.27 119.372 104.465C119.222 104.659 119.134 104.894 119.118 105.139C119.102 105.383 119.159 105.627 119.281 105.84C119.446 106.125 119.717 106.333 120.035 106.418C120.352 106.503 120.691 106.459 120.976 106.294Z" fill="white"/>
<path d="M85.1242 115.437L80.1439 115.21C79.9167 115.165 79.6827 115.169 79.4571 115.22C79.2314 115.272 79.019 115.37 78.8338 115.509C78.6486 115.648 78.4945 115.824 78.3817 116.026C78.2689 116.228 78.1999 116.452 78.179 116.682C78.1581 116.913 78.1859 117.145 78.2606 117.364C78.3352 117.584 78.4551 117.785 78.6124 117.954C78.7697 118.124 78.9609 118.259 79.1737 118.35C79.3864 118.442 79.616 118.487 79.8474 118.484L84.8343 118.723C85.0501 118.743 85.2676 118.72 85.4744 118.655C85.6812 118.59 85.8732 118.485 86.0391 118.346C86.2902 118.137 86.4734 117.858 86.5655 117.544C86.6576 117.231 86.6545 116.897 86.5564 116.585C86.4583 116.273 86.2698 115.998 86.0148 115.793C85.7598 115.589 85.4498 115.465 85.1242 115.437Z" fill="white"/>
<path d="M151.559 69.114C151.409 68.9789 151.223 68.8889 151.024 68.8542C150.825 68.8196 150.621 68.8419 150.434 68.9184L146.714 70.5243C146.463 70.6291 146.253 70.8122 146.114 71.0463C145.976 71.2804 145.917 71.5529 145.946 71.8233L146.091 73.2581L152.165 69.7513L151.559 69.114Z" fill="white"/>
<path d="M155.426 68.3952L152.48 70.096L146.145 73.754L119.571 89.0962L122.304 93.83L105.366 103.61L102.632 98.8757L82.1064 110.726L74.2976 115.235L71.6402 116.769L69.0107 125.637C68.9154 126.021 68.9693 126.428 69.1614 126.775C69.488 127.34 69.9826 128.285 70.485 129.128L93.08 116.083L90.1105 108.687L90.9191 108.22L93.8962 115.612L95.7373 114.549L92.7678 107.152L93.5764 106.686L96.5535 114.078L98.3947 113.015L95.4252 105.618L96.2337 105.151L99.2108 112.543L101.052 111.48L98.0825 104.084L98.8911 103.617L101.868 111.009L103.694 109.955L100.725 102.559L101.548 102.083L104.526 109.475L135.825 91.4041L132.639 84.1326L133.399 83.6943L136.584 90.9658L138.483 89.8699L135.297 82.5984L136.056 82.1601L139.242 89.4316L141.14 88.3357L137.954 81.0642L138.713 80.6258L141.899 87.8974L143.797 86.8015L140.611 79.53L141.371 79.0916L144.556 86.3631L146.455 85.2673L143.269 77.9958L144.028 77.5574L147.214 84.8289L161.609 76.5178L157.664 69.6847L155.426 68.3952ZM87.0625 117.259C87.0427 117.535 86.9679 117.804 86.8423 118.05C86.7168 118.297 86.5431 118.516 86.3317 118.694C86.2377 118.774 86.1369 118.846 86.0303 118.908C85.6576 119.119 85.2288 119.209 84.8027 119.166L79.8208 118.945C79.2818 118.88 78.7891 118.608 78.447 118.187C78.1048 117.765 77.94 117.227 77.9874 116.687C78.0348 116.146 78.2906 115.645 78.7008 115.289C79.1111 114.933 79.6435 114.751 80.1856 114.781L85.1697 115.006C85.7184 115.057 86.225 115.322 86.5795 115.744C86.9339 116.165 87.1075 116.71 87.0625 117.259Z" fill="white"/>
<path d="M80.8732 109.985C80.5466 109.79 80.1735 109.685 79.7928 109.682C79.412 109.679 79.0374 109.779 78.7081 109.97L74.6424 112.317C74.5201 112.388 74.4174 112.488 74.3437 112.608C74.27 112.729 74.2275 112.866 74.2203 113.006L74.2681 114.72L81.6555 110.455L80.8732 109.985Z" fill="white"/>
<path d="M112.495 177.407C111.529 177.935 110.061 178.732 110.244 179.942C110.496 181.101 110.854 182.235 111.313 183.329L129.607 172.767C129.988 172.545 130.266 172.181 130.38 171.755C130.493 171.329 130.433 170.875 130.213 170.493L128.841 168.117C124.361 170.668 113.601 176.789 112.88 177.205L112.495 177.407Z" fill="white"/>
<path d="M133.664 102.233L133.11 102.553C130.711 103.938 129.095 104.365 127.648 103.981C126.201 103.596 124.74 102.258 123.207 99.6913L70.9108 129.885C71.027 130.086 71.149 130.253 71.2672 130.423C72.1657 131.716 72.4187 135.048 71.8962 137.009C71.7282 137.536 71.7169 138.1 71.8635 138.632C72.0102 139.165 72.3086 139.644 72.7224 140.01C76.5275 137.965 87.462 140.413 87.6418 148.317C87.8217 156.221 97.3687 181.392 99.2998 185.263C101.231 189.134 103.864 187.628 103.864 187.628L110.929 183.549C110.448 182.408 110.074 181.224 109.814 180.013C109.586 178.504 111.28 177.582 112.291 177.028L128.562 167.634C125.457 163.667 121.563 156.389 120.861 154.664C120.772 154.441 120.71 154.208 120.678 153.97C120.056 149.998 118.747 146.165 116.81 142.642C116.539 142.131 116.383 141.567 116.354 140.989C116.325 140.41 116.424 139.833 116.643 139.297C116.862 138.762 117.197 138.281 117.622 137.889C118.048 137.497 118.555 137.203 119.107 137.029C120.599 136.543 122.049 135.939 123.445 135.223L137.24 127.258C137.85 126.906 138.296 126.326 138.478 125.645C138.66 124.965 138.565 124.24 138.213 123.63L131.8 112.522C131.285 111.628 131.145 110.566 131.413 109.569C131.68 108.572 132.331 107.722 133.224 107.205L163.044 89.9887C163.816 89.5429 164.469 88.916 164.945 88.162C165.42 87.4055 165.707 86.5456 165.78 85.6551C165.831 85.0286 165.772 84.3981 165.606 83.792L133.664 102.233ZM93.0492 138.843L98.2487 130.779C98.7522 130.734 99.2597 130.767 99.753 130.877L93.0621 141.25C93.0219 140.426 93.0186 139.62 93.0525 138.831L93.0492 138.843ZM93.4013 144.774L101.797 131.727C102.178 131.963 102.539 132.228 102.878 132.52L93.7145 146.719C93.5974 146.078 93.4918 145.43 93.4013 144.774ZM94.3431 149.798L104.499 134.074C104.856 134.338 105.192 134.628 105.506 134.941L94.7155 151.618C94.575 150.945 94.4499 150.334 94.3387 149.79L94.3431 149.798ZM95.8525 156.165L95.6192 155.287L106.971 136.585C107.247 136.932 107.535 137.307 107.824 137.712L96.0951 157.032C96.0084 156.733 95.9305 156.449 95.8525 156.165ZM119.212 162.828C119.283 163.152 119.349 163.468 119.408 163.773L114.49 171.912L113.387 172.473L112.297 172.996L119.004 161.906C119.064 162.23 119.145 162.528 119.212 162.828ZM117.776 157.781C117.869 158.056 117.959 158.334 118.046 158.607L108.334 174.671C108.052 174.746 107.764 174.799 107.474 174.829C107.215 174.858 106.954 174.861 106.695 174.839L117.5 156.978C117.596 157.242 117.687 157.513 117.776 157.781ZM116.079 153.193C116.184 153.446 116.286 153.701 116.382 153.954L104.433 173.709C104.317 173.576 104.217 173.431 104.132 173.276C103.928 173.08 103.727 172.872 103.531 172.656L115.774 152.428C115.87 152.676 115.969 152.927 116.072 153.182L116.079 153.193ZM114.189 148.894C114.32 149.121 114.414 149.371 114.523 149.612L101.86 170.533C101.587 170.139 101.327 169.723 101.071 169.298L113.845 148.176C113.953 148.397 114.07 148.643 114.182 148.882L114.189 148.894ZM112.506 145.522L99.6848 166.712C99.5555 166.488 99.4581 166.241 99.3456 166.002C99.2331 165.764 99.126 165.517 99.0189 165.27L111.782 144.164C112.019 144.597 112.258 145.046 112.499 145.511L112.506 145.522ZM97.8342 162.35C97.6333 161.818 97.4461 161.283 97.261 160.752L109.588 140.364L110.356 141.641L97.8342 162.35ZM118.675 104.763C119.538 102.681 122.322 103.427 122.022 105.66C121.17 107.752 118.385 107.006 118.681 104.774L118.675 104.763ZM134.968 124.025C135.18 124.391 135.237 124.827 135.128 125.236C135.018 125.644 134.751 125.993 134.384 126.204L122.123 133.284C122.123 133.284 117.932 135.668 114.131 135.336C113.361 135.267 112.62 135.012 111.97 134.595C111.32 134.177 110.78 133.608 110.397 132.937L108.065 128.898C107.478 127.912 107.176 126.782 107.194 125.635C107.235 124.164 107.693 122.31 109.465 121.206C111.71 119.834 119.46 115.39 123.993 112.818C124.885 112.3 125.945 112.158 126.942 112.421C127.939 112.685 128.79 113.333 129.309 114.223L134.968 124.025Z" fill="white"/>
</svg>
