<svg width="256" height="256" viewBox="0 0 256 256" fill="none" xmlns="http://www.w3.org/2000/svg">
  <path
    d="M41.2119 161.101C40.3733 161.585 39.264 161.451 38.4573 160.799L54.5584 178.854C54.6329 178.983 54.7992 178.973 54.8637 178.936L58.7342 176.702C58.8632 176.627 59.6918 175.977 59.6546 175.912L46.5388 158.111L41.2491 161.165L41.2119 161.101Z"
    fill="white" />
  <path d="M111.9 140.072L126.479 131.655L120.259 120.882L105.68 129.299L111.9 140.072Z" fill="white" />
  <path d="M94.8357 129.883L104.486 128.87L106.937 127.454L101.416 126.084L94.8357 129.883Z" fill="white" />
  <path
    d="M131.576 116.499C130.773 120.918 134.896 123.441 135.812 123.686C135.913 123.714 136.164 123.999 136.035 124.073C133.407 125.332 130.252 122.251 128.092 118.51L131.576 116.499Z"
    fill="white" />
  <path
    d="M198.213 63.575L196.73 64.4316L194.793 61.0771L196.277 60.2205C196.406 60.146 196.507 60.1733 196.582 60.3023L198.295 63.2697C198.332 63.3342 198.278 63.5377 198.213 63.575Z"
    fill="white" />
  <path
    d="M173.619 71.9258L176.747 77.3445L196.229 66.0968C196.358 66.0223 196.385 65.9206 196.311 65.7916L193.443 60.8244C193.368 60.6954 193.267 60.6681 193.138 60.7426L173.656 71.9903L173.619 71.9258Z"
    fill="white" />
  <path
    d="M93.7289 122.007C93.5081 122.22 93.528 122.553 93.677 122.811C93.826 123.069 94.1685 123.215 94.4637 123.131L93.7289 122.007Z"
    fill="white" />
  <path
    d="M94.1159 121.783L94.7863 122.944C95.0071 122.731 95.0516 122.361 94.9027 122.103C94.7164 121.781 94.4112 121.699 94.1159 121.783Z"
    fill="white" />
  <path
    d="M95.1814 124.522C94.9606 124.736 94.916 125.106 95.065 125.364C95.214 125.622 95.5565 125.768 95.8518 125.684L95.1814 124.522Z"
    fill="white" />
  <path
    d="M95.6329 124.262L96.3033 125.423C96.5241 125.209 96.5687 124.84 96.4197 124.582C96.2062 124.361 95.9282 124.177 95.6329 124.262Z"
    fill="white" />
  <path
    d="M107.166 120.7C107 120.71 106.871 120.784 106.677 120.896C105.968 121.305 105.722 122.221 106.132 122.931C106.393 123.382 106.874 123.62 107.346 123.692L107.166 120.7Z"
    fill="white" />
  <path
    d="M107.702 120.734L107.872 123.56C107.936 123.523 108.103 123.513 108.167 123.476C108.877 123.066 109.122 122.151 108.712 121.441C108.553 121.017 108.136 120.741 107.702 120.734Z"
    fill="white" />
  <path
    d="M147.202 92.1664C147.137 92.2036 147.137 92.2036 147.073 92.2409C146.492 92.5761 146.237 93.3256 146.572 93.9062C146.795 94.2932 147.175 94.504 147.609 94.5113L147.202 92.1664Z"
    fill="white" />
  <path
    d="M147.7 92.1363L148.173 94.444C148.237 94.4068 148.237 94.4068 148.302 94.3696C148.882 94.0344 149.138 93.2848 148.802 92.7043C148.542 92.2527 148.098 92.0791 147.7 92.1363Z"
    fill="white" />
  <path
    d="M174.362 83.1949L146.09 99.7758L139.849 109.228L147.76 113.692L163.058 105.031L160.972 101.419C160.525 100.645 160.669 99.7017 161.267 99.0984L175.32 84.7059C175.385 84.6687 175.375 84.5024 175.338 84.4379L174.667 83.2767C174.657 83.1105 174.491 83.1205 174.362 83.1949Z"
    fill="white" />
  <path
    d="M115.921 142.567C115.727 142.679 115.571 142.855 115.618 143.086L113.812 160.814C113.879 161.378 114.381 161.948 114.944 161.881L127.967 160.899C128.031 160.862 128.069 160.926 128.096 160.825C128.123 160.723 128.15 160.621 128.039 160.428C127.964 160.299 127.507 159.358 127.03 158.085C126.861 157.495 126.693 156.904 126.615 156.175L124.805 137.695C124.758 137.464 124.517 137.345 124.324 137.457L115.921 142.567Z"
    fill="white" />
  <path
    d="M130.713 159.399C130.138 158.7 129.782 157.787 129.658 156.826L127.074 132.687C127.064 132.52 126.888 132.364 126.695 132.476L112.486 140.938L113.081 141.97C113.677 143.002 112.274 147.424 112.28 148.625L110.666 161.771C110.751 164.302 112.161 165.552 114.139 165.7L132.313 163.809C133.043 163.731 133.454 162.806 132.953 162.235L130.713 159.399ZM127.521 156.254C127.588 156.817 127.693 157.445 127.889 157.934C128.329 159.142 128.786 160.082 128.786 160.082C129.036 160.368 129.103 160.931 128.893 161.311C128.774 161.552 128.682 161.691 128.488 161.802C128.359 161.877 128.129 161.924 127.962 161.934L114.939 162.916C113.84 162.948 112.884 162.038 112.815 160.874L114.655 142.609C114.709 142.406 114.764 142.202 114.958 142.091L125.075 136.077C125.269 135.965 125.51 136.084 125.557 136.315L127.521 156.254Z"
    fill="white" />
  <path
    d="M127.056 130.719L121.304 121.052C121.117 120.73 121.226 120.323 121.549 120.136L139.16 109.969L145.839 113.94C146.636 114.426 147.222 115.292 147.309 116.188C147.443 117.314 147.18 118.498 146.466 119.942C146.374 120.081 146.218 120.258 146.089 120.332L127.833 130.872C127.511 131.058 127.205 130.977 127.056 130.719ZM128.123 129.587L145.476 119.568C145.952 118.605 146.217 118.022 146.269 117.218C146.301 116.081 145.705 115.049 144.769 114.471L138.934 111.217L122.807 120.528C122.485 120.714 122.376 121.121 122.562 121.444L127.384 129.498C127.56 129.654 127.865 129.736 128.123 129.587Z"
    fill="white" />
  <path
    d="M81.242 123.024C81.0112 123.071 80.7804 123.118 80.5869 123.23C79.9418 123.602 79.6592 124.454 80.0689 125.163C80.2551 125.486 80.5331 125.669 80.8756 125.816L81.242 123.024Z"
    fill="white" />
  <path
    d="M80.3727 120.773L78.631 121.778C77.5989 122.374 77.3089 123.66 77.8676 124.627L80.9589 129.981L38.6413 154.413C37.0931 155.307 36.5379 157.176 37.3572 158.595L37.5807 158.982C38.4001 160.401 40.2961 160.855 41.8443 159.961L89.5805 132.401L83.3236 121.563C82.7277 120.531 81.4049 120.177 80.3727 120.773ZM41.5882 158.475C40.7496 158.959 39.7694 158.751 39.3224 157.977C38.8755 157.203 39.1854 156.25 40.024 155.765C40.8626 155.281 41.8429 155.489 42.2898 156.264C42.7367 157.038 42.3623 158.028 41.5882 158.475ZM82.2257 126.068C81.3226 126.589 80.2033 126.289 79.6819 125.386C79.1604 124.483 79.4604 123.364 80.3635 122.842C81.2666 122.321 82.3859 122.621 82.9073 123.524C83.4287 124.427 83.1288 125.546 82.2257 126.068Z"
    fill="white" />
  <path
    d="M81.3099 125.823C81.5407 125.776 81.7714 125.729 81.965 125.617C82.6101 125.244 82.8927 124.393 82.483 123.683C82.2968 123.361 82.0188 123.177 81.6763 123.031L81.3099 125.823Z"
    fill="white" />
  <path
    d="M148.318 114.659L168.43 149.494C168.691 149.945 169.301 150.109 169.753 149.848L183.299 142.027C183.751 141.766 183.915 141.156 183.654 140.704L163.542 105.87L148.318 114.659ZM170.16 143.85C170.272 144.044 170.19 144.349 169.997 144.461C169.803 144.572 169.498 144.491 169.386 144.297L153.744 117.204C153.632 117.01 153.714 116.705 153.907 116.593C154.101 116.481 154.406 116.563 154.518 116.757L170.16 143.85ZM174.547 141.318C174.658 141.511 174.577 141.816 174.383 141.928C174.19 142.04 173.884 141.958 173.773 141.764L158.13 114.671C158.018 114.477 158.1 114.172 158.294 114.06C158.487 113.949 158.793 114.03 158.904 114.224L174.547 141.318ZM178.998 138.748C179.11 138.941 179.028 139.246 178.834 139.358C178.641 139.47 178.335 139.388 178.224 139.195L162.581 112.101C162.47 111.908 162.551 111.602 162.745 111.491C162.938 111.379 163.244 111.461 163.355 111.654L178.998 138.748Z"
    fill="white" />
  <path d="M98.4157 103.905L94.9967 105.879L96.2258 108.008L99.6447 106.034L98.4157 103.905Z" fill="white" />
  <path
    d="M171.693 70.9737L167.5 73.3945L172.379 81.8451L176.572 79.4243C176.701 79.3498 176.691 79.1835 176.654 79.119L172.035 71.12C171.961 70.991 171.757 70.9364 171.693 70.9737Z"
    fill="white" />
  <path
    d="M163.659 67.7851L161.825 68.9297L158.846 63.7691L156.137 65.3333L156.663 73.5446C156.72 73.9416 156.472 74.2569 156.149 74.4431L100.543 106.547L96.0921 109.117L82.8033 116.789L81.0529 113.758C80.7922 113.306 80.1817 113.142 79.7301 113.403L76.4402 115.303C75.9886 115.563 75.825 116.174 76.0857 116.625L78.5066 120.818L79.9258 119.999C81.4095 119.142 83.3428 119.66 84.1994 121.144L90.1584 131.465L101.383 124.985L108.034 126.822L138.546 109.205L145.209 98.9941L172.173 83.4261L166.326 73.2983L164.836 70.718L165.288 70.4573C166.062 70.0103 166.307 69.0946 165.86 68.3205C165.413 67.5464 164.433 67.3382 163.659 67.7851ZM96.3059 126.024C95.7254 126.359 94.9486 126.206 94.6134 125.625C94.2782 125.044 94.5336 124.295 95.1141 123.96C95.6947 123.624 96.4715 123.778 96.8067 124.359C97.1419 124.939 96.951 125.651 96.3059 126.024ZM94.8534 123.508C94.2729 123.843 93.4961 123.69 93.1609 123.109C92.8257 122.529 93.081 121.779 93.6616 121.444C94.2422 121.109 95.019 121.262 95.3542 121.843C95.6894 122.423 95.4985 123.136 94.8534 123.508ZM108.455 123.826C107.487 124.385 106.266 124.058 105.745 123.155C105.223 122.252 105.551 121.031 106.518 120.472C107.486 119.913 108.707 120.24 109.228 121.144C109.685 122.084 109.358 123.305 108.455 123.826ZM120.741 100.563C121.3 101.53 120.973 102.751 120.005 103.31L93.1049 118.841C92.1373 119.4 90.9163 119.072 90.3576 118.105L89.6872 116.944C89.1286 115.976 89.4557 114.755 90.4234 114.196L117.323 98.6655C118.291 98.1069 119.512 98.434 120.071 99.4017L120.741 100.563ZM148.525 94.757C147.687 95.2412 146.669 94.9685 146.185 94.1299C145.701 93.2913 145.973 92.2738 146.812 91.7896C147.651 91.3055 148.668 91.5781 149.152 92.4167C149.636 93.2553 149.364 94.2728 148.525 94.757ZM165.091 69.9685C164.64 70.2292 164.029 70.0656 163.769 69.614C163.508 69.1625 163.672 68.5519 164.123 68.2912C164.575 68.0305 165.185 68.1941 165.446 68.6457C165.707 69.0972 165.543 69.7077 165.091 69.9685Z"
    fill="white" />
  <path
    d="M117.807 99.5045L90.9074 115.035C90.3914 115.333 90.2278 115.944 90.5257 116.46L91.1961 117.621C91.4941 118.137 92.1046 118.301 92.6207 118.003L119.521 102.472C120.037 102.174 120.2 101.563 119.902 101.047L119.232 99.8862C118.971 99.4346 118.324 99.2066 117.807 99.5045Z"
    fill="white" />
</svg>