<svg width="256" height="256" viewBox="0 0 256 256" fill="none" xmlns="http://www.w3.org/2000/svg">
<path d="M66.4308 152.464C65.9987 152.209 65.6701 151.81 65.5024 151.337C65.3348 150.864 65.3388 150.347 65.5138 149.876L66.003 148.323L65.953 148.237C65.3465 147.789 64.6548 147.469 63.9204 147.297C63.1859 147.125 62.4241 147.106 61.6818 147.239L61.5951 147.289C38.2673 175.884 40.4096 197.394 42.7178 205.992C42.8573 206.497 43.1073 206.964 43.4495 207.36C43.7931 207.754 44.2244 208.063 44.7087 208.261C45.1951 208.465 45.7214 208.555 46.248 208.527C46.7701 208.491 47.2771 208.336 47.7307 208.075L61.5871 200.075C62.3449 199.612 62.9273 198.911 63.2425 198.081C63.5577 197.251 63.5878 196.339 63.328 195.49C54.5411 169.271 77.5587 160.139 77.5587 160.139C89.6697 152.915 98.3165 147.692 104.675 143.906L103.675 142.173C103.643 142.117 103.599 142.068 103.547 142.028C103.495 141.989 103.436 141.96 103.373 141.944C103.31 141.928 103.244 141.924 103.179 141.934C103.115 141.943 103.053 141.965 102.997 141.999L76.7147 157.497C76.3043 157.733 75.8369 157.851 75.3636 157.839C74.8904 157.827 74.4295 157.686 74.0315 157.429L66.4308 152.464ZM67.7265 162.109C67.8009 162.475 67.7774 162.855 67.6582 163.21C67.5401 163.569 67.323 163.886 67.0322 164.126C64.4011 166.569 51.5591 179.526 60.1761 195.451C60.4625 195.957 60.5386 196.556 60.388 197.118C60.2373 197.68 59.8721 198.161 59.3708 198.456L49.0738 204.401C48.7851 204.573 48.4576 204.67 48.1217 204.683C47.7857 204.695 47.452 204.622 47.1515 204.472C46.8298 204.311 46.5514 204.076 46.3397 203.786C46.1231 203.486 45.9851 203.137 45.9383 202.77C44.7704 196.747 42.2852 176.243 58.9724 154.946C59.3019 154.529 59.7744 154.248 60.2986 154.159C60.8228 154.069 61.3615 154.177 61.8107 154.462C63.6167 155.59 66.9523 158.168 67.7265 162.109Z" fill="white"/>
<path d="M61.5646 146.037C63.2522 145.729 64.9933 146.09 66.4189 147.044L68.6954 140.187C69.3328 138.191 68.9986 138.073 71.7059 136.602L103.576 118.202L102.426 116.21L65.4464 137.56C64.6546 140.788 57.3748 143.097 52.4988 143.534C52.2756 143.548 52.1524 143.734 52.2524 143.907L53.2524 145.639C53.2952 145.705 53.36 145.754 53.4354 145.776C53.512 145.79 53.5909 145.78 53.6622 145.749C58.8486 143.332 60.9146 144.911 61.5646 146.037Z" fill="white"/>
<path d="M59.9692 155.271C59.8386 155.327 59.7331 155.429 59.6728 155.558C43.1953 176.618 45.7171 196.986 46.9083 202.649C46.9305 202.83 47.0079 202.999 47.13 203.133C47.2473 203.272 47.4052 203.371 47.5815 203.415C47.7411 203.492 47.9171 203.529 48.0943 203.523C48.2738 203.522 48.4507 203.479 48.6109 203.398L58.9166 197.448C59.1673 197.3 59.3499 197.06 59.4252 196.779C59.5005 196.498 59.4625 196.199 59.3193 195.946C50.3023 179.328 63.5639 165.898 66.3182 163.268C66.4605 163.129 66.5628 162.954 66.6143 162.762C66.6658 162.57 66.6647 162.367 66.611 162.175C65.9503 158.631 62.8512 156.263 61.0852 155.204C60.9064 155.129 60.713 155.095 60.5192 155.104C60.325 155.115 60.1364 155.172 59.9692 155.271Z" fill="white"/>
<path d="M217.744 49.7461C218.541 50.3255 221.903 53.3494 222.491 57.1671L226.474 54.8671L222.074 47.2461L217.744 49.7461Z" fill="white"/>
<path d="M198.384 89.2142C202.601 86.3178 209.599 81.2384 210.779 73.2824C211.155 70.7283 210.953 68.1224 210.187 65.6568L108.256 124.507L115.906 137.757C118.417 136.307 119.803 135.507 120.756 134.957M199.615 81.3448L127.561 122.945C126.987 123.276 126.305 123.366 125.664 123.195C125.024 123.023 124.478 122.604 124.146 122.03C123.815 121.456 123.725 120.773 123.896 120.133C124.068 119.492 124.487 118.946 125.061 118.615L197.115 77.0147C197.689 76.6832 198.371 76.5934 199.012 76.765C199.652 76.9366 200.198 77.3556 200.53 77.9298C200.861 78.504 200.951 79.1864 200.779 79.8268C200.608 80.4673 200.189 81.0133 199.615 81.3448Z" fill="white"/>
<path d="M209.709 64.4308L221.487 57.6308C221.246 53.6131 217.064 50.3696 216.928 50.333L103.205 115.76L107.705 123.554" fill="white"/>
<path d="M197.663 77.9671L125.61 119.567C125.273 119.773 125.029 120.101 124.927 120.482C124.824 120.863 124.872 121.269 125.061 121.616C125.203 121.879 125.422 122.091 125.689 122.224C125.956 122.357 126.258 122.404 126.553 122.36C126.75 122.334 126.939 122.267 127.11 122.165L199.163 80.5652C199.508 80.3663 199.759 80.0386 199.862 79.6544C199.965 79.2701 199.911 78.8607 199.712 78.5161C199.514 78.1716 199.186 77.9202 198.802 77.8172C198.417 77.7143 198.008 77.7682 197.663 77.9671Z" fill="white"/>
<path d="M73.8275 155.896C76.05 157.246 76.1701 156.634 77.2303 156.01L103.293 140.651C103.544 140.506 103.842 140.464 104.123 140.534C104.405 140.604 104.648 140.78 104.803 141.026L106.24 143.337C109.93 141.207 112.961 139.457 115.325 138.092L107.865 125.171C102.186 128.334 96.5567 131.584 91.0315 134.774L87.6415 128.903L71.7846 138.058C71.0443 138.482 70.4931 139.172 70.2427 139.987L67.0841 149.316C66.9106 149.805 66.9122 150.339 67.0886 150.827C67.2649 151.315 67.6051 151.726 68.0511 151.991L69.4273 152.975M76.149 154.417C75.8934 154.566 75.6022 154.642 75.3066 154.638C75.025 154.627 74.7523 154.536 74.5203 154.376C74.2957 154.215 74.1286 153.987 74.0434 153.724C73.9583 153.462 73.9597 153.179 74.0474 152.917C74.1383 152.641 74.3053 152.397 74.5292 152.212C74.7526 152.017 75.0254 151.887 75.3177 151.837C75.6006 151.796 75.8895 151.832 76.1529 151.944C76.4065 152.05 76.6188 152.235 76.7581 152.472C76.8496 152.63 76.9073 152.805 76.9278 152.986C76.9547 153.173 76.9338 153.364 76.867 153.541C76.8104 153.726 76.7171 153.897 76.5927 154.046C76.4643 154.19 76.3105 154.31 76.139 154.4L76.149 154.417ZM72.6489 142.755C72.4596 142.867 72.2416 142.92 72.022 142.909C71.805 142.89 71.598 142.809 71.4256 142.676C71.2548 142.541 71.1268 142.36 71.0572 142.155C70.9875 141.949 70.9793 141.727 71.0334 141.517C71.0896 141.308 71.2061 141.12 71.3684 140.977C71.5343 140.835 71.7367 140.742 71.9526 140.709C72.1686 140.685 72.3868 140.723 72.582 140.819C72.7779 140.914 72.9413 141.064 73.0515 141.252C73.1919 141.509 73.2292 141.809 73.1558 142.093C73.072 142.366 72.8871 142.596 72.6389 142.737L72.6489 142.755ZM94.6302 143.227C94.3568 143.388 94.0408 143.462 93.7244 143.439C93.4065 143.425 93.1013 143.31 92.8535 143.11C92.6009 142.921 92.413 142.658 92.3155 142.358C92.2115 142.061 92.1984 141.738 92.2779 141.433C92.3579 141.125 92.5278 140.848 92.7661 140.637C93.0043 140.427 93.2999 140.291 93.6152 140.249C93.9306 140.207 94.2513 140.26 94.5364 140.402C94.8215 140.543 95.058 140.766 95.2158 141.042C95.3219 141.226 95.3918 141.428 95.4219 141.639C95.4479 141.848 95.4332 142.06 95.3788 142.264C95.3248 142.466 95.2293 142.655 95.0985 142.819C94.9664 142.979 94.8038 143.112 94.6202 143.21L94.6302 143.227ZM89.9753 138.525L87.1135 133.168L90.1278 137.409L102.125 130.829L89.9753 138.525ZM110.19 138.978C109.901 139.455 109.465 139.825 108.947 140.032C108.43 140.24 107.858 140.273 107.32 140.127C106.782 139.983 106.305 139.668 105.96 139.23C105.616 138.792 105.422 138.254 105.409 137.697C105.388 137.215 105.516 136.738 105.775 136.331C106.062 135.854 106.498 135.485 107.016 135.28C107.533 135.074 108.104 135.042 108.641 135.187C109.179 135.333 109.655 135.648 109.999 136.086C110.342 136.523 110.537 137.057 110.556 137.612C110.66 137.991 110.463 138.451 110.18 138.961L110.19 138.978Z" fill="white"/>
<path d="M88.5371 128.154L91.5371 133.35L107.126 124.35L104.126 119.154L88.5371 128.154ZM91.6531 131.551L91.4031 131.118L104.967 124.372L91.6531 131.551Z" fill="white"/>
<path d="M80.7174 160.151C80.6731 160.169 80.6368 160.202 80.6151 160.245C80.5934 160.288 80.5878 160.337 80.5993 160.383C80.6108 160.43 80.6386 160.471 80.6776 160.499C80.7167 160.526 80.7644 160.539 80.8121 160.535C83.9402 160.822 86.8308 162.325 88.8633 164.72C89.5489 165.45 90.4619 165.925 91.4529 166.068C92.4439 166.211 93.4542 166.014 94.3182 165.508L107.465 157.918C107.997 157.604 108.444 157.163 108.765 156.635C109.087 156.107 109.273 155.508 109.308 154.891C109.99 144.613 115.49 141.818 115.49 141.818C116.187 145.226 118.841 139.422 120.092 136.39C116.321 138.798 106.249 144.833 80.7174 160.151ZM107.206 152.79C107.693 153.633 107.825 154.635 107.573 155.575C107.321 156.515 106.706 157.317 105.863 157.804L94.5178 164.354C93.6748 164.84 92.6731 164.972 91.7329 164.72C90.7927 164.468 89.9911 163.853 89.5044 163.01L88.1344 160.637C87.6478 159.794 87.5159 158.793 87.7678 157.852C88.0197 156.912 88.6348 156.111 89.4778 155.624L100.823 149.074C101.666 148.587 102.667 148.455 103.608 148.707C104.548 148.959 105.349 149.574 105.836 150.417L107.206 152.79Z" fill="white"/>
<path d="M93.5245 154.973C93.4745 154.887 93.4111 154.577 93.3111 154.404L90.4533 156.054C91.1935 157.936 92.9399 160.161 98.4762 158.35C99.0217 155.495 95.1085 159.717 93.5245 154.973Z" fill="white"/>
</svg>
