<svg width="256" height="256" viewBox="0 0 256 256" fill="none" xmlns="http://www.w3.org/2000/svg">
<path d="M46.8672 189.573C45.528 188.833 45.132 187.087 46.0395 185.859L50.2528 180.216C50.2528 180.216 57.3562 179.579 52.4514 187.885C52.4514 187.885 51.0843 189.517 52.0587 191.345C52.0587 191.345 54.6009 194.808 53.0307 199.028C53.0307 199.028 52.8676 199.446 52.7612 200.061C52.3392 202.511 55.3178 203.99 57.0613 202.209C58.8048 200.429 60.8773 197.038 63.1012 190.05C63.1012 190.05 66.8849 179.563 87.6683 161.559C87.7239 161.515 87.7658 161.468 87.8165 161.416C88.9635 160.222 104.164 144.449 109.173 140.264C109.237 140.215 109.284 140.176 109.357 140.123C110.407 139.401 120.198 132.559 124.84 126.599C124.84 126.599 134.31 116.582 144.012 111.904L158.685 103.317C159.118 103.067 159.45 102.702 159.665 102.255C160.427 100.695 162.243 96.7597 162.867 93.6398C163.125 92.3474 163.296 89.4428 162.049 88.9845C161.495 88.7847 160.238 89.707 160.173 88.3937L159.145 86.6543L161.237 85.1577L161.942 86.3789C161.942 86.3789 166.002 82.7301 166.178 89.1757C166.178 89.1757 165.524 98.2831 163.053 103.463C162.95 103.684 162.818 103.876 162.662 104.046C161.246 105.673 153.51 114.296 140.626 124.021L117.429 142.483C117.377 142.513 117.335 142.56 117.274 142.595C116.12 143.377 101.604 153.236 96.9057 159.378C96.6603 159.693 96.3625 159.957 95.9961 160.123C93.6344 161.232 84.1825 165.962 79.6336 172.283C79.53 172.424 79.4251 172.542 79.3015 172.648C77.867 173.904 68.4593 182.43 65.9589 193.62C65.9406 193.688 65.9309 193.751 65.899 193.816C65.3834 195.303 59.0477 212.91 50.4656 207.126C50.0314 206.834 49.7268 206.386 49.5497 205.899C48.9668 204.25 47.6795 200.12 47.5337 195.227C47.5213 194.946 47.5635 194.679 47.6504 194.409C47.8045 193.916 48.067 192.991 48.2257 192.126C48.4009 191.089 47.8555 190.065 46.9342 189.569C46.9242 189.551 46.9019 189.553 46.8832 189.54L46.8672 189.573Z" fill="white"/>
<path d="M120.18 107.349C121.018 107.662 121.876 108.287 122.5 109.647L122.57 109.768L122.583 109.911C122.608 110.035 122.748 110.878 122.593 112.03L167.55 79.873C167.55 79.873 168.129 78.4762 169.152 76.9273L120.171 107.354L120.18 107.349Z" fill="white"/>
<path d="M117.068 113.719C117.608 113.407 117.793 112.716 117.481 112.176C117.169 111.635 116.478 111.45 115.938 111.762C115.397 112.074 115.212 112.765 115.524 113.306C115.836 113.846 116.527 114.031 117.068 113.719Z" fill="white"/>
<path d="M110.349 117.943C110.588 117.805 110.67 117.499 110.532 117.26C110.394 117.021 110.088 116.939 109.849 117.077C109.61 117.215 109.528 117.521 109.666 117.76C109.804 117.999 110.11 118.081 110.349 117.943Z" fill="white"/>
<path d="M104.331 122.239C104.571 122.101 104.653 121.795 104.514 121.556C104.376 121.317 104.071 121.235 103.831 121.373C103.592 121.511 103.51 121.817 103.648 122.056C103.787 122.295 104.092 122.377 104.331 122.239Z" fill="white"/>
<path d="M93.5878 111.952C93.0179 112.385 92.458 112.835 91.9391 113.296C90.5789 114.52 90.4927 116.591 91.5927 118.496C91.5927 118.496 92.9282 121.49 97.9664 119.516L93.5964 111.947L93.5878 111.952Z" fill="white"/>
<path d="M170.078 68.7713L98.6223 108.652C98.6223 108.652 96.645 109.747 94.5183 111.264L99.0134 119.05C100.006 118.569 101.106 117.934 102.357 117.061L172.714 73.3577C175.572 71.8466 214.113 49.4793 222.105 44.8418C222.902 44.3818 223.177 43.3572 222.717 42.5605L221.917 41.1748C221.457 40.378 220.441 40.0985 219.644 40.5585L170.079 68.7936L170.078 68.7713Z" fill="white"/>
<path d="M22.8023 169.136C22.7281 168.347 22.938 167.591 23.3196 166.932L20.2375 168.653C18.9544 169.371 18.2002 170.765 18.3333 172.235C18.9034 178.823 21.1621 197.196 28.7165 205.64C29.5517 206.567 31.0373 206.46 31.7422 205.441C32.2328 204.73 32.8515 203.842 33.5738 202.813C33.4431 202.727 33.2965 202.673 33.1856 202.54C25.6225 194.101 23.3724 175.723 22.7886 169.132L22.8023 169.136Z" fill="white"/>
<path d="M86.6622 139.379C86.3793 139.369 86.1174 139.335 85.8519 139.315C83.7276 139.156 82.049 138.508 80.7327 137.629C80.4105 137.411 80.1055 137.182 79.8266 136.939C79.8166 136.922 79.803 136.918 79.7843 136.906C79.5104 136.672 79.2674 136.431 79.0331 136.185C79.0181 136.159 78.9995 136.147 78.9758 136.126C78.7502 135.875 78.5382 135.628 78.3436 135.371C78.3335 135.353 78.3185 135.327 78.3085 135.31C78.1089 135.044 77.9179 134.773 77.7543 134.51C77.7343 134.475 77.7193 134.449 77.6993 134.415C77.5843 134.215 77.4692 134.016 77.3592 133.826C77.3342 133.782 77.3092 133.739 77.2892 133.704C76.9802 133.109 76.7358 132.546 76.5524 132.028C76.5274 131.985 76.5197 131.932 76.5034 131.883C76.4494 131.73 76.4054 131.594 76.3563 131.449C76.34 131.4 76.3237 131.352 76.3073 131.304C76.267 131.154 76.2229 131.018 76.1876 130.876C76.0552 130.387 75.9877 130.01 75.9547 129.833C74.7788 130.396 71.5056 132.667 67.6184 141.355C67.6184 141.355 65.6489 143.924 62.8169 146.379C62.4808 146.677 62.1174 146.967 61.754 147.258C61.7194 147.278 61.6897 147.307 61.6514 147.34C61.3177 147.602 60.9653 147.852 60.6129 148.102C60.5436 148.142 60.4843 148.199 60.415 148.239C60.0923 148.46 59.7595 148.664 59.4354 148.862C59.3748 148.897 59.3142 148.932 59.2536 148.967C59.2103 148.992 59.167 149.017 59.1236 149.042C58.8205 149.217 58.5074 149.375 58.203 149.528C58.1596 149.553 58.1163 149.578 58.0644 149.608C57.9778 149.658 57.8912 149.708 57.7996 149.749C57.5074 149.883 57.2139 149.995 56.9155 150.098C56.8412 150.129 56.7532 150.157 56.679 150.188C56.5997 150.211 56.5304 150.251 56.4511 150.274C56.1613 150.372 55.8688 150.425 55.5776 150.501C55.4141 150.537 55.2518 150.596 55.0919 150.619C54.7858 150.669 54.4819 150.683 54.1781 150.697C54.0305 150.701 53.8756 150.733 53.728 150.737C53.2752 150.733 52.8248 150.693 52.389 150.598L25.1454 165.773L24.2666 167.031C23.9859 167.505 23.9296 168.507 23.9777 169.01C24.4653 174.595 26.6455 193.452 34.079 201.747L34.1909 201.821C34.2366 201.76 34.2772 201.69 34.3315 201.624C34.3315 201.624 34.3401 201.619 34.3488 201.614C34.5349 201.357 34.7247 201.085 34.9096 200.805C34.9588 200.731 35.0168 200.651 35.0661 200.576C35.103 200.52 35.14 200.464 35.177 200.408C35.3335 200.18 35.495 199.959 35.6602 199.725C35.829 199.478 36.0028 199.239 36.1803 198.986C36.3455 198.752 36.5143 198.505 36.6918 198.252C36.8114 198.079 36.9396 197.901 37.0591 197.728C37.2453 197.471 37.4264 197.204 37.6162 196.933C37.7235 196.779 37.8394 196.62 37.9552 196.46C38.203 196.109 38.4508 195.759 38.7022 195.394C38.7478 195.333 38.7971 195.258 38.8514 195.192C39.1238 194.804 39.3962 194.416 39.6772 194.023C39.7352 193.943 39.7845 193.868 39.8424 193.789C39.9127 193.69 39.9743 193.597 40.0445 193.499C40.259 193.19 40.4698 192.895 40.6842 192.587C41.7862 191.015 42.9387 189.391 44.0986 187.74C44.1898 187.618 44.2761 187.488 44.3586 187.371C44.5078 187.169 44.6434 186.964 44.7926 186.762C44.9491 186.533 45.1192 186.308 45.2758 186.079C45.4076 185.887 45.5445 185.705 45.6677 185.518C45.8995 185.199 46.1263 184.872 46.358 184.554C46.5232 184.32 46.697 184.081 46.8622 183.847C46.9694 183.692 47.0817 183.547 47.1889 183.393C47.3294 183.196 47.47 182.999 47.6018 182.808C47.7214 182.635 47.8373 182.475 47.9568 182.303C48.1836 181.975 48.424 181.652 48.6508 181.324C48.6754 181.287 48.6964 181.263 48.7211 181.226C48.8616 181.03 49.0021 180.833 49.1513 180.631C49.4324 180.238 49.7134 179.845 49.9945 179.452C50.0771 179.335 50.1597 179.218 50.2386 179.114C50.511 178.726 50.7884 178.347 51.0658 177.967C51.1817 177.808 51.3012 177.635 51.4171 177.476C51.4874 177.377 51.549 177.284 51.6243 177.194C51.8474 176.881 52.0705 176.567 52.2986 176.262C52.3652 176.178 52.4268 176.084 52.4848 176.005C52.6463 175.784 52.7991 175.569 52.952 175.354C53.1171 175.12 53.291 174.881 53.4525 174.661C53.4771 174.623 53.5068 174.595 53.5228 174.562C53.5314 174.557 53.5437 174.539 53.5474 174.525C54.2341 173.574 54.9048 172.656 55.5385 171.794C55.6334 171.658 55.7246 171.536 55.8245 171.409C56.044 171.109 56.2598 170.823 56.4669 170.542C56.5705 170.401 56.6617 170.279 56.7653 170.138C56.8479 170.021 56.9268 169.918 57.0144 169.81C57.1216 169.656 57.2425 169.505 57.3548 169.359C57.4373 169.242 57.5249 169.134 57.6162 169.012C57.7987 168.768 57.9812 168.524 58.16 168.294C58.2549 168.158 58.3548 168.031 58.4547 167.904C58.5127 167.825 58.5706 167.745 58.6372 167.66C58.7248 167.552 58.7987 167.44 58.8776 167.337C58.9775 167.21 59.0775 167.083 59.1687 166.961C59.1897 166.937 59.2057 166.905 59.2266 166.881C59.3389 166.736 59.4511 166.59 59.5597 166.458C59.6473 166.35 59.7262 166.246 59.8051 166.143C59.926 165.993 60.0346 165.861 60.1381 165.72C60.2134 165.63 60.2923 165.527 60.3676 165.437C60.4675 165.31 60.5637 165.197 60.6513 165.089C60.7143 165.018 60.7809 164.933 60.8352 164.867C60.8771 164.82 60.9068 164.791 60.9401 164.749C60.9907 164.697 61.0363 164.636 61.0783 164.588C61.1202 164.541 61.1659 164.48 61.2128 164.441C61.3177 164.323 61.4153 164.232 61.5006 164.16C61.5006 164.16 66.4897 159.201 70.9257 152.864C70.9257 152.864 78.3895 143.45 83.0164 141.564C83.165 141.502 83.3259 141.42 83.4758 141.38L87.3251 139.227C86.977 139.324 86.7464 139.365 86.7241 139.366L86.6622 139.379Z" fill="white"/>
<path d="M94.4342 135.62L93.8539 135.955C93.1715 136.453 92.3874 136.975 91.5733 137.445L91.3482 137.575C89.8573 138.412 88.6721 139.12 87.8893 139.364L85.0271 140.866C85.0239 141.261 85.3123 141.96 85.5479 142.228C86.9503 143.797 88.2752 144.972 90.5728 144.512C92.0166 144.232 93.3058 144.065 95.1033 142.439C98.9281 138.983 97.0821 133.906 97.0821 133.906L94.4428 135.615L94.4342 135.62ZM94.8355 141.635C91.4806 144.484 89.1714 144.004 88.0502 143.462C86.929 142.92 86.0236 141.272 86.0236 141.272L88.1551 140.284C88.1551 140.284 88.8396 143.03 91.7767 142.177L92.5215 141.747C92.5215 141.747 88.8702 141.823 89.4109 139.559L92.061 138.329L93.932 137.33L96.0879 135.704C96.0879 135.704 98.1941 138.772 94.8392 141.621L94.8355 141.635Z" fill="white"/>
<path d="M93.3639 132.727C92.7365 133.62 91.9326 134.408 90.928 134.988C87.1781 137.153 82.311 135.783 80.086 131.929C77.861 128.075 79.1081 123.175 82.858 121.01C83.8712 120.425 84.9725 120.113 86.0785 120.028L85.3156 118.887L78.041 123.087C78.041 123.087 76.2923 126.198 76.5699 129.479C76.5699 129.479 77.6398 138.572 86.7672 138.741C86.7672 138.741 88.5804 138.422 91.0686 137.031C93.5567 135.641 95.8275 133.614 95.8275 133.614L94.9375 132.073L93.4989 132.961L93.3689 132.736L93.3639 132.727Z" fill="white"/>
<path d="M118.733 108.243L115.969 109.954L102.963 118.029C102.25 118.533 101.534 118.993 100.867 119.378C97.7403 121.183 95.1181 121.761 93.066 121.087C91.2288 120.485 90.5777 119.117 90.51 118.96C89.655 117.479 89.4542 115.851 89.8722 114.455L80.8093 119.618C80.8093 119.618 76.8287 118.464 75.7908 120.206C75.7908 120.206 75.0177 121.808 77.3667 122.576L77.5593 122.65L77.8325 122.723L85.4534 118.242L86.6547 120.043C89.4825 119.981 92.2885 121.421 93.8286 124.088C95.3686 126.755 95.2147 129.789 93.8262 132.184L95.0879 131.409L96.408 133.696L96.1275 133.95C96.1275 133.95 95.7915 134.248 95.3168 134.626L97.1332 133.612C97.1332 133.612 96.5156 129.742 114.851 117.239C116.607 116.041 118.538 114.764 120.66 113.4L121.167 113.038C121.695 111.452 121.436 110.123 121.436 110.123C120.716 108.576 119.685 108.19 118.728 108.234L118.733 108.243ZM104.566 122.646C104.107 122.911 103.511 122.759 103.241 122.291C102.971 121.823 103.129 121.236 103.596 120.966C104.064 120.696 104.652 120.853 104.922 121.321C105.192 121.789 105.034 122.376 104.566 122.646ZM110.581 118.342C110.122 118.607 109.526 118.455 109.256 117.987C108.986 117.52 109.143 116.932 109.611 116.662C110.078 116.392 110.666 116.55 110.936 117.017C111.206 117.485 111.048 118.072 110.581 118.342ZM117.303 114.126C116.541 114.566 115.558 114.302 115.118 113.54C114.678 112.778 114.941 111.795 115.703 111.355C116.466 110.915 117.449 111.178 117.889 111.94C118.329 112.702 118.066 113.686 117.303 114.126Z" fill="white"/>
<path d="M219.245 39.5886L217.402 39.3363L215.376 40.5063L214.681 42.2236L214.946 42.6826L219.51 40.0476L219.245 39.5886Z" fill="white"/>
<path d="M83.2241 121.445C79.6908 123.485 78.5242 128.084 80.6242 131.721C82.7242 135.359 87.2908 136.648 90.8241 134.608C94.3575 132.568 95.5241 127.969 93.4241 124.331C91.3241 120.694 86.7575 119.405 83.2241 121.445ZM82.4378 126.183L82.8471 125.912L82.8834 125.694L83.1834 125.394C83.2614 125.349 83.3493 125.321 83.4473 125.311C83.1968 124.497 83.7828 123.512 83.8568 123.4L84.3843 122.934C84.2878 123.267 84.9882 124.56 85.4077 124.907C85.5219 124.644 85.7184 124.485 85.748 124.456L86.198 124.116C86.2502 123.866 86.3771 123.666 86.5503 123.566L86.9573 123.331L87.3116 123.784C87.4266 123.984 88.288 124.676 88.8665 125.057C89.3467 125.369 89.6727 126.174 89.8248 126.617L91.4787 127.002L92.3587 128.526C92.6637 129.054 93.0141 130.041 93.0141 130.041C93.0016 130.58 92.8342 130.85 92.5657 131.005C92.4185 131.09 92.2599 131.135 92.0863 131.154L92.6675 131.581L90.5545 131.981C90.7264 132.159 90.8837 132.391 90.8255 132.691C90.7953 132.858 90.7021 133.097 90.399 133.272C90.1218 133.432 89.7884 133.474 89.7214 133.478L89.4809 133.502L89.3312 133.322C89.3226 133.327 89.115 133.228 88.5689 133.162L87.2509 132.999C86.2818 132.901 86.1791 131.563 86.1697 131.407L85.7651 130.786L85.0417 130.453L84.3479 129.791L84.3132 129.811C83.8716 130.066 83.5254 130.046 83.3018 129.979C82.887 129.861 82.6884 129.537 82.6534 129.476C81.736 127.927 81.7434 127.9 81.8019 127.681L81.8532 127.49L82.0264 127.39C82.2169 127.28 82.3708 127.307 82.5015 127.393L82.6426 127.057L82.6175 126.714L81.8982 126.448L82.4551 126.173L82.4378 126.183Z" fill="white"/>
<path d="M84.375 129.175L85.2235 130.025L86.0625 130.418L86.6175 131.38C86.6175 131.38 86.6831 132.473 87.2825 132.531C87.8818 132.589 87.7292 132.585 88.6091 132.689C89.489 132.793 89.6673 133.002 89.6673 133.002C89.6673 133.002 90.3046 132.946 90.3601 132.602C90.4156 132.258 89.5037 131.919 89.7801 131.597C90.0565 131.276 90.5933 131.486 90.5933 131.486L91.519 131.309L90.8073 130.796L91.054 130.504C91.054 130.504 92.4594 131.078 92.5721 130.193C92.5721 130.193 92.238 129.255 91.948 128.752L91.168 127.401L89.4508 127.007C89.4508 127.007 89.0943 125.769 88.5955 125.446C88.0966 125.122 87.0723 124.327 86.8923 124.016C86.7123 123.704 86.3441 124.586 87.0012 125.084C87.6583 125.582 86.278 125.352 86.0313 124.824C86.0313 124.824 85.4961 125.237 86.0503 125.737C86.6045 126.237 83.9019 124.876 84.2623 123.64C84.2623 123.64 83.1675 125.404 84.5854 125.74C86.094 126.093 85.0845 126.664 84.6866 126.455C84.6866 126.455 83.4299 125.299 83.3052 125.983C83.1805 126.667 82.6245 126.583 82.6245 126.583L84.0291 126.696C84.0291 126.696 85.4167 126.9 85.043 127.393C84.6694 127.885 82.5854 127.276 82.5854 127.276L84.3237 128.247C84.3237 128.247 83.048 128.937 82.4187 128.007C81.7894 127.077 83.0481 129.237 83.0481 129.237C83.0481 129.237 83.4408 129.957 84.37 129.167L84.375 129.175Z" fill="white"/>
</svg>
