<svg width="256" height="256" viewBox="0 0 256 256" fill="none" xmlns="http://www.w3.org/2000/svg">
<path d="M145.162 95.4185C144.84 95.9751 144.542 96.6194 144.277 97.2082L128.525 88.1142C128.525 88.1142 127.742 86.7715 129.586 86.2775L145.162 95.4185Z" fill="#A1A1A1"/>
<path d="M154.876 103.402L147.529 99.1603C147.795 98.5716 148.093 97.9272 148.414 97.3706L155.673 101.636C156.767 103.084 154.876 103.402 154.876 103.402Z" fill="#A1A1A1"/>
<path d="M128.533 84.6307L141.773 61.6995C141.55 61.571 141.295 61.4981 140.953 61.4488C139.925 61.3007 139.261 61.8079 138.164 62.8075C136.948 63.8862 135.427 65.2346 132.837 65.223C131.481 65.2569 130.368 64.6142 129.439 63.781L133.258 72.5907L126.863 83.6667L128.533 84.6307Z" fill="white"/>
<path d="M145.645 94.5838L129.091 84.9521L142.33 62.021C142.743 62.3337 142.949 62.7492 143.233 63.2845C143.621 64.0276 144.087 64.8906 145.145 65.5012C145.59 65.7582 146.401 66.1525 147.379 66.6431C151.126 68.5092 158.897 72.402 160.677 75.3595C162.276 77.9892 164.325 77.9107 165.657 77.7891C166.868 77.7466 166.892 77.8344 167.01 78.2734C167.251 79.526 167.313 79.9328 161.732 83.6865C161.524 83.7892 161.34 83.9797 161.194 84.4893C155.036 85.3865 149.209 88.9239 145.645 94.5838Z" fill="white"/>
<path d="M164.615 105.685L148.896 96.5354C151.786 92.0443 156.334 89.1788 161.304 88.4118C161.511 90.2382 161.883 92.6792 162.593 96.2058C163.2 99.5247 163.997 103.028 164.615 105.685Z" fill="white"/>
<path d="M175.536 130.988C175.62 130.071 175.629 127.999 175.538 125.2C173.715 126.3 171.679 127.128 169.604 127.637C169.566 137.857 167.148 147.444 165.052 154.545C161.428 166.478 141.295 192.48 141.295 192.48L136.353 206.695C179.644 160.891 175.536 130.988 175.536 130.988ZM174.27 91.1479C173.936 90.9551 173.635 90.7067 173.301 90.5139C169.906 88.5537 166.178 87.8117 162.557 88.1702C163.179 93.6495 165.404 104.062 166.628 108.628C168.375 113.57 169.277 118.691 169.526 123.659C171.665 123.039 173.687 121.979 175.439 120.616C175.197 112.165 174.668 100.357 174.27 91.1479ZM174.051 86.643C173.837 81.1018 173.662 77.2906 173.662 77.2906L139.433 57.528C133.533 54.1218 130.921 53.5043 127.9 58.7362L128.144 59.4707C128.964 61.6506 130.348 64.0083 132.828 63.9556C134.988 63.9413 136.172 62.9183 137.301 61.8631C138.365 60.9192 139.462 59.9196 141.175 60.1664C141.661 60.2244 141.971 60.3294 142.583 60.6829C143.307 61.1006 144.028 62.0365 144.336 62.6597C144.7 63.3149 145.008 63.9381 145.787 64.388C146.177 64.6129 146.988 65.0071 147.967 65.4978C152.135 67.5331 159.818 71.4495 161.812 74.6789C163.047 76.6534 164.347 76.5875 165.646 76.5215C166.627 76.494 167.982 76.4602 168.318 78.0639C168.684 80.1302 168.058 80.9565 163.132 84.3464C166.8 84.1634 170.583 84.9376 174.051 86.643Z" fill="#A1A1A1"/>
<path d="M143.923 97.8206C142.811 100.518 142.241 103.305 142.244 106.127L124.211 95.716L128.172 88.7266L143.923 97.8206Z" fill="white"/>
<path d="M153.831 103.54L149.815 110.498L146.197 108.409C145.851 105.538 146.175 102.534 147.264 99.7485L153.831 103.54Z" fill="white"/>
<path d="M76.6874 114.66L158.004 161.608C158.616 161.962 158.828 162.752 158.474 163.364L155.357 168.763C155.004 169.375 154.214 169.587 153.602 169.234L72.285 122.285C71.6728 121.932 71.461 121.142 71.8145 120.53L74.9315 115.131C75.285 114.519 76.0751 114.307 76.6874 114.66Z" fill="#A1A1A1"/>
<path d="M157.292 123.126C156.56 122.852 155.86 122.522 155.136 122.104C150.238 119.276 147.127 114.511 146.289 109.278L149.462 111.11L149.429 111.166C152.642 114.727 155.279 118.773 157.292 123.126Z" fill="white"/>
<path d="M158.146 160.206L77.6642 113.74C88.7039 99.6312 106.749 93.0553 123.825 96.3837L123.857 96.3281L142.28 106.965C142.471 114.347 146.449 121.467 153.295 125.42C155.187 126.513 157.129 127.263 159.143 127.758C162.581 138.128 162.41 149.607 158.146 160.206Z" fill="white"/>
<path d="M71.7539 123.463C61.9557 145.19 70.0429 171.157 91.1373 183.336C112.176 195.483 138.796 189.479 152.681 170.186L71.7539 123.463Z" fill="white"/>
<path d="M174.609 88.3755C174.442 88.2791 174.331 88.2149 174.164 88.1185C170.426 86.1089 166.356 85.3176 162.449 85.6589C162.042 85.7208 161.58 85.7507 161.173 85.8126C155.389 86.7036 150.098 89.9564 146.758 95.2267C146.629 95.4493 146.469 95.7276 146.34 95.9502L146.276 96.0616C145.923 96.6738 145.657 97.2625 145.391 97.8512C145.263 98.0739 145.222 98.273 145.093 98.4956C143.981 101.193 143.49 104.1 143.581 106.899C143.596 107.13 143.579 107.417 143.594 107.648C144.058 114.299 147.681 120.62 153.915 124.219C155.418 125.087 156.961 125.756 158.633 126.201C162.256 127.254 166.114 127.255 169.658 126.258C171.765 125.694 173.746 124.834 175.544 123.646C178.183 121.904 180.513 119.539 182.184 116.645C187.872 106.793 184.517 94.0954 174.609 88.3755ZM175.487 122.203C173.712 123.478 171.667 124.45 169.56 125.014C165.808 126.114 161.751 126.072 157.914 124.747C156.728 124.359 155.551 123.828 154.438 123.185C148.872 119.972 145.493 114.385 144.81 108.499C144.739 108.235 144.756 107.948 144.741 107.717C144.539 104.854 144.942 101.971 146.031 99.1853C146.104 98.9306 146.2 98.7636 146.329 98.541C146.594 97.9522 146.892 97.3079 147.214 96.7513L147.278 96.64C147.406 96.4173 147.567 96.139 147.696 95.9164C150.81 91.0357 155.742 88.0205 161.063 87.1593C161.47 87.0974 161.877 87.0354 162.339 87.0056C166.191 86.6321 170.173 87.447 173.791 89.5358C173.902 89.6 173.958 89.6322 174.069 89.6964C183.157 95.1655 186.253 106.898 180.951 116.081C179.593 118.562 177.742 120.611 175.487 122.203Z" fill="white"/>
</svg>
