<svg width="256" height="256" viewBox="0 0 256 256" fill="none" xmlns="http://www.w3.org/2000/svg">
<path d="M138.61 77.0921L136.772 76.0309C134.51 74.7248 131.611 75.5017 130.305 77.7639L129.856 78.5416L165.416 99.0722L165.783 98.4359C167.13 96.103 166.282 93.1628 164.02 91.8567L138.57 77.1628L138.61 77.0921Z" fill="#A1A1A1"/>
<path d="M164.231 101.122L128.671 80.5914L127.681 80.02C125.772 78.918 123.319 79.5753 122.217 81.4841L118.339 88.2002C117.809 89.1193 118.137 90.3459 119.056 90.8765L119.622 91.2031L157.727 113.203L159.212 114.06C160.131 114.591 161.357 114.262 161.888 113.343L165.766 106.627C166.797 104.677 166.139 102.224 164.231 101.122Z" fill="white"/>
<path d="M164.309 65.7238C163.207 67.6326 162.61 69.6449 162.561 71.69L159.026 69.6491C158.107 69.1185 157.544 68.1339 157.61 67.0406L157.649 65.1777C157.684 63.973 156.95 62.7951 155.89 62.1829L150.517 59.0809C149.457 58.4686 148.17 58.5743 147.245 59.3599C144.868 61.1922 143.285 61.9749 142.352 62.2846C142.11 62.0507 141.909 61.746 141.748 61.3707L140.246 57.7694C140.695 56.9918 141.486 56.6004 142.326 56.6143L147.945 56.8418C148.603 56.8448 149.291 56.9592 149.857 57.2857L164.431 65.5117C164.39 65.5824 164.349 65.6531 164.309 65.7238Z" fill="white"/>
<path d="M172.036 69.8081L167.243 72.8851C167.16 71.2343 167.511 69.6462 168.409 68.0909C168.45 68.0202 168.531 67.8788 168.572 67.8081L171.4 69.4408C171.683 69.604 171.824 69.6857 172.036 69.8081Z" fill="white"/>
<path d="M66.1211 175.218L63.7129 179.389C61.6721 182.924 62.8972 187.496 66.432 189.537L99.5884 208.68C103.123 210.721 107.695 209.496 109.736 205.961L112.144 201.79L66.1211 175.218Z" fill="white"/>
<path d="M175.561 81.1738C174.285 81.0973 172.879 80.7569 171.677 80.063C169.557 78.8385 168.138 76.8881 167.611 74.6987L173.358 70.9475C175.142 72.9198 176.242 75.9117 175.877 78.3401L175.561 81.1738Z" fill="white"/>
<path d="M171.307 113.03L128.531 187.12L125.562 185.405L167.807 112.235C168.787 110.538 169.231 108.627 169.128 106.682L168.061 84.8571L165.204 89.8058L139.753 75.1119L145.875 64.5075L143.896 63.3647C145.022 62.8837 146.393 61.9785 148.232 60.5894C148.618 60.2468 149.206 60.2089 149.7 60.4946L155.073 63.5967C155.639 63.9232 156 64.6032 155.997 65.2614L155.959 67.1243C155.931 68.805 156.755 70.3173 158.239 71.1744L162.622 73.7051C162.988 77.9695 165.38 81.9898 169.339 84.2755C171.177 85.3367 173.119 85.8921 175.123 86.0124L172.682 109.017C172.453 110.393 172.042 111.758 171.307 113.03Z" fill="white"/>
<path d="M182.003 62.1779C176.348 58.9126 169.252 60.7542 165.886 66.2576C165.845 66.3283 165.763 66.4697 165.722 66.5404C164.62 68.4492 164.095 70.5023 164.116 72.5882C164.113 73.2463 164.181 73.9453 164.289 74.5735C164.892 77.9378 166.904 80.9844 170.085 82.8212C171.711 83.7599 173.47 84.3044 175.222 84.373C179.595 84.6354 184.039 82.4884 186.366 78.4587C189.631 72.8031 187.659 65.4432 182.003 62.1779ZM175.35 82.8446C173.822 82.7163 172.274 82.2943 170.86 81.4779C168.527 80.131 166.937 77.9875 166.127 75.6348C165.948 74.9657 165.769 74.2966 165.701 73.5977C165.498 71.5008 165.882 69.3661 167.025 67.3866C167.066 67.3159 167.147 67.1745 167.188 67.1038C170.146 62.3074 176.309 60.7755 181.187 63.5919C186.136 66.449 187.839 72.8052 184.982 77.7539C182.911 81.1772 179.176 83.0743 175.35 82.8446Z" fill="white"/>
<path d="M112.934 190.463C110.742 189.198 109.925 186.369 111.231 184.107C112.496 181.915 115.325 181.097 117.587 182.404L117.658 182.444L119.943 178.485L119.873 178.445C117.681 177.179 116.863 174.351 118.17 172.088C119.435 169.897 122.264 169.079 124.526 170.385L124.597 170.426L126.882 166.467L126.812 166.426C124.62 165.161 123.802 162.332 125.108 160.07C126.374 157.878 129.202 157.061 131.465 158.367L131.535 158.408L133.821 154.449L133.75 154.408C131.559 153.143 130.741 150.314 132.047 148.052C133.312 145.86 136.141 145.042 138.403 146.349L138.474 146.389L140.76 142.43L140.689 142.39C138.497 141.124 137.68 138.296 138.986 136.033C140.251 133.842 143.08 133.024 145.342 134.33L145.413 134.371L147.699 130.412L147.628 130.371C145.436 129.106 144.619 126.277 145.925 124.015C147.19 121.824 150.019 121.006 152.281 122.312L152.352 122.353L156.433 115.283L118.328 93.2832L114.246 100.353L114.317 100.394C116.509 101.659 117.326 104.488 116.02 106.75C114.755 108.941 111.926 109.759 109.664 108.453L109.593 108.412L107.308 112.371L107.378 112.412C109.57 113.677 110.388 116.506 109.082 118.768C107.816 120.96 104.988 121.777 102.725 120.471L102.655 120.43L100.369 124.389L100.44 124.43C102.631 125.696 103.449 128.524 102.143 130.786C100.877 132.978 98.0488 133.796 95.7866 132.49L95.7159 132.449L93.4302 136.408L93.5009 136.449C95.6924 137.714 96.5101 140.542 95.204 142.805C93.9387 144.996 91.1101 145.814 88.8478 144.508L88.7771 144.467L86.4914 148.426L86.5621 148.467C88.7537 149.732 89.5714 152.561 88.2652 154.823C86.9999 157.015 84.1713 157.832 81.909 156.526L81.8383 156.485L79.5526 160.444L79.6233 160.485C81.8149 161.75 82.6326 164.579 81.3265 166.841C80.0611 169.033 77.2325 169.851 74.9703 168.545L74.8996 168.504L71.0628 175.149L109.168 197.149L112.934 190.463C113.005 190.504 113.005 190.504 112.934 190.463ZM87.6248 175.851C85.4333 174.585 84.6156 171.757 85.9217 169.494C87.187 167.303 90.0156 166.485 92.2779 167.791C94.4695 169.057 95.2872 171.885 93.981 174.147C92.6749 176.41 89.8871 177.157 87.6248 175.851ZM94.5636 163.832C92.372 162.567 91.5543 159.738 92.8605 157.476C94.1258 155.285 96.9544 154.467 99.2167 155.773C101.408 157.038 102.226 159.867 100.92 162.129C99.6137 164.391 96.8259 165.138 94.5636 163.832ZM101.502 151.814C99.3108 150.549 98.4931 147.72 99.7992 145.458C101.065 143.266 103.893 142.449 106.155 143.755C108.347 145.02 109.165 147.849 107.859 150.111C106.552 152.373 103.765 153.12 101.502 151.814ZM108.441 139.796C106.25 138.53 105.432 135.702 106.738 133.439C108.003 131.248 110.832 130.43 113.094 131.736C115.286 133.002 116.103 135.83 114.797 138.093C113.491 140.355 110.703 141.102 108.441 139.796ZM115.38 127.777C113.188 126.512 112.371 123.683 113.677 121.421C114.942 119.23 117.771 118.412 120.033 119.718C122.225 120.983 123.042 123.812 121.736 126.074C120.43 128.337 117.642 129.084 115.38 127.777ZM122.319 115.759C120.127 114.494 119.309 111.665 120.616 109.403C121.881 107.211 124.709 106.394 126.972 107.7C129.163 108.965 129.981 111.794 128.675 114.056C127.369 116.318 124.581 117.065 122.319 115.759ZM100.279 183.157C98.0878 181.891 97.2701 179.063 98.5763 176.801C99.8416 174.609 102.67 173.791 104.932 175.097C107.124 176.363 107.942 179.191 106.636 181.454C105.329 183.716 102.542 184.463 100.279 183.157ZM107.218 171.138C105.027 169.873 104.209 167.045 105.515 164.782C106.78 162.591 109.609 161.773 111.871 163.079C114.063 164.344 114.88 167.173 113.574 169.435C112.268 171.698 109.48 172.445 107.218 171.138ZM114.157 159.12C111.965 157.855 111.148 155.026 112.454 152.764C113.719 150.572 116.548 149.755 118.81 151.061C121.002 152.326 121.819 155.155 120.513 157.417C119.207 159.679 116.419 160.426 114.157 159.12ZM121.096 147.102C118.904 145.837 118.086 143.008 119.393 140.746C120.658 138.554 123.487 137.736 125.749 139.042C127.94 140.308 128.758 143.136 127.452 145.399C126.146 147.661 123.358 148.408 121.096 147.102ZM128.034 135.084C125.843 133.818 125.025 130.99 126.331 128.727C127.597 126.536 130.425 125.718 132.688 127.024C134.879 128.289 135.697 131.118 134.391 133.38C133.085 135.643 130.297 136.39 128.034 135.084ZM134.973 123.065C132.782 121.8 131.964 118.971 133.27 116.709C134.535 114.517 137.364 113.7 139.626 115.006C141.818 116.271 142.636 119.1 141.329 121.362C140.023 123.624 137.236 124.371 134.973 123.065Z" fill="#A1A1A1"/>
</svg>
