<svg width="256" height="256" viewBox="0 0 256 256" fill="none" xmlns="http://www.w3.org/2000/svg">
  <path
    d="M99.3914 142.476L118.674 153.609C119.424 154.041 120.391 153.782 120.824 153.033C123.685 148.234 126.292 143.562 128.595 139.258C129.028 138.509 128.729 137.61 127.98 137.177L108.969 126.201C108.22 125.768 107.292 125.96 106.859 126.709C104.284 130.855 101.54 135.449 98.8154 140.326C98.3827 141.076 98.6419 142.043 99.3914 142.476Z"
    fill="white" />
  <path
    d="M104.422 174.362L88.4773 165.156C87.6597 164.684 86.6137 165.08 86.2097 165.937C84.7303 169.444 83.3871 173.029 82.2588 176.557C82.0411 177.249 82.3108 178.04 82.9922 178.434L95.734 185.79C96.3472 186.144 97.2358 186.021 97.7262 185.487C100.217 182.746 102.582 179.75 104.948 176.755C105.488 175.977 105.239 174.834 104.422 174.362Z"
    fill="white" />
  <path
    d="M172.904 96.9751L147.693 82.4195C152.1 78.8771 157.825 77.4582 163.335 78.4587C162.755 79.3051 162.43 80.0259 162.398 80.5527C162.154 82.8645 166.064 85.8487 172.516 89.9371C173.061 90.2518 173.566 90.6347 173.839 90.7921C173.797 91.4945 173.474 93.9426 172.904 96.9751Z"
    fill="white" />
  <path
    d="M95.806 145.855C93.3459 150.431 90.9433 155.221 88.7452 160.13C88.42 160.851 88.7185 161.75 89.3999 162.143L106.639 172.096C107.32 172.49 108.248 172.299 108.71 171.657C111.862 167.299 114.809 162.822 117.542 158.404C117.975 157.655 117.755 156.619 117.005 156.186L97.9949 145.211C97.1379 144.807 96.1706 145.066 95.806 145.855Z"
    fill="white" />
  <path
    d="M128.917 73.3977L142.34 81.1475C141.438 82.0804 140.673 83.0919 139.975 84.1428L127.029 76.6683C128.083 74.3699 128.917 73.3977 128.917 73.3977Z"
    fill="white" />
  <path
    d="M171.728 102.475L158.237 94.6857L143.928 86.4244C144.665 85.3054 145.499 84.3332 146.43 83.5079L172.595 98.6142C172.335 100.009 171.757 102.582 171.728 102.475Z"
    fill="white" />
  <path
    d="M122.763 155.969L138.094 164.82C139.525 165.646 141.42 165.196 142.314 163.804C143.405 162.072 144.428 160.301 145.49 158.461C146.642 156.309 147.675 154.362 148.63 152.551C149.388 151.081 148.83 149.214 147.399 148.388L132 139.498C129.372 144.522 126.282 150.187 122.763 155.969Z"
    fill="white" />
  <path
    d="M97.4314 190.403C94.6074 193.406 91.6184 196.222 88.6504 198.688L93.8289 201.678C93.8289 201.678 98.3219 200.819 105.07 197.629C106.194 197.097 106.329 195.449 105.238 194.819L97.4707 190.334L97.4314 190.403Z"
    fill="white" />
  <path
    d="M119.249 108.241C117.403 110.81 114.201 115.411 110.32 121.347C109.819 122.057 110.038 123.093 110.856 123.565L129.253 134.186C130.003 134.619 131.078 134.331 131.442 133.542C134.642 127.213 137.026 122.139 138.327 119.256C138.653 118.536 138.354 117.637 137.673 117.243L121.32 107.802C120.599 107.476 119.71 107.599 119.249 108.241Z"
    fill="white" />
  <path
    d="M143.035 87.8142L157.315 95.968C156.499 99.585 154.32 108.866 153.099 115.702C152.067 115.287 151.034 114.873 150.08 114.322C140.921 108.943 137.685 97.081 143.035 87.8142Z"
    fill="white" />
  <path
    d="M152.289 122.139L109.907 97.6694C114.823 93.8755 127.065 84.3174 130.809 80.6646L139.19 85.5034L139.151 85.5715C132.581 96.9506 136.458 111.636 147.905 118.245C149.404 119.11 150.914 119.8 152.473 120.246C152.324 120.977 152.321 121.612 152.289 122.139Z"
    fill="white" />
  <path
    d="M178.821 82.9482C176.958 80.5099 174.616 78.4305 171.754 76.7783C170.527 76.0702 169.222 75.4983 167.946 75.034C169.907 72.8957 174.22 68.5722 175.76 67.0078C176.024 66.7065 175.949 66.2084 175.608 66.0117C156.925 56.0427 152.59 63.0791 141.426 56.4518C139.45 55.311 137.339 49.3681 137.339 49.3681C136.834 46.6236 137.66 45.1927 140.135 43.896C141.621 43.2097 143.348 43.2076 144.848 44.0731L181.183 65.3241L178.821 82.9482Z"
    fill="white" />
  <path
    d="M175.877 108.504C174.375 110.635 170.966 113.391 170.966 113.391C171.491 111.695 172.735 106.236 173.804 100.766C175.87 90.4207 175.432 90.0772 175.102 89.7049C174.937 89.5187 174.528 89.2827 173.341 88.5064C167.025 84.4966 163.836 81.8377 163.978 80.6478C164.039 80.2284 164.393 79.6152 164.972 78.7687C166.532 79.2148 168.081 79.8365 169.58 80.702C173.532 82.9837 176.356 86.4314 177.92 90.3322L177.809 90.9954C177.77 91.0635 177.288 98.5075 175.877 108.504Z"
    fill="white" />
  <path
    d="M146.569 181.614C144.733 184.007 127.638 198.667 116.064 202.977L113.68 201.6C113.68 201.6 140.036 184.747 143.348 179.482C146.227 174.967 159.91 150.796 161.09 148.752C161.798 147.525 166.346 132.253 169.301 119.423C171.217 118.622 173.008 117.566 174.565 116.285C172.522 128.006 169.36 141.352 164.507 150.543C154.006 170.463 148.472 179.261 146.569 181.614Z"
    fill="white" />
  <path
    d="M108.782 176.88C105.906 180.761 102.825 184.524 99.6572 187.965L109.401 193.59C110.423 194.18 111.623 194.146 112.612 193.536C115.577 191.705 118.739 189.533 121.961 186.942C122.813 186.252 122.683 184.905 121.729 184.354L108.782 176.88Z"
    fill="white" />
  <path
    d="M86.5736 196.307C88.8362 194.434 91.002 192.414 93.1783 190.218C93.8941 189.45 93.7529 188.278 92.8671 187.767L82.6464 181.866C81.7606 181.355 80.6072 181.779 80.3683 182.822C79.5548 185.805 78.8881 188.69 78.397 191.587C78.2867 192.25 78.567 192.866 79.1802 193.22L84.8357 196.485C85.3808 196.8 86.0544 196.734 86.5736 196.307Z"
    fill="white" />
  <path
    d="M153.781 126.635C149.965 124.432 141.652 119.632 141.652 119.632C140.391 122.447 137.581 128.729 133.505 136.733C133.505 136.733 145.293 143.539 149.927 146.214C150.744 146.686 151.751 146.358 152.155 145.501C155.536 137.914 156.444 133.351 156.136 130.266C155.948 128.704 155.076 127.382 153.781 126.635Z"
    fill="white" />
  <path
    d="M110.658 174.418L124.149 182.207C125.376 182.915 126.938 182.727 127.948 181.765C130.908 178.841 133.889 175.565 136.795 171.792C137.943 170.274 137.475 168.096 135.839 167.152L121.122 158.655C117.917 163.891 114.39 169.213 110.658 174.418Z"
    fill="white" />
  <path
    d="M95.441 140.194L80.11 131.342C78.6791 130.516 78.1214 128.65 78.8794 127.18C79.8341 125.369 80.8569 123.597 81.9191 121.757C83.2067 119.684 84.3764 117.816 85.4673 116.084C86.3616 114.692 88.2568 114.242 89.6877 115.068L105.087 123.959C102.05 128.747 98.7561 134.295 95.441 140.194Z"
    fill="white" />
  <path
    d="M78.2865 179.348C77.0978 183.295 76.1529 187.292 75.5016 191.095L70.3232 188.106C70.3232 188.106 68.82 183.785 68.209 176.346C68.1072 175.106 69.4679 174.166 70.5581 174.795L78.3258 179.28L78.2865 179.348Z"
    fill="white" />
  <path
    d="M84.322 162.757C82.3993 167.189 80.681 171.738 79.2851 176.202L69.5413 170.576C68.5193 169.986 67.9482 168.93 67.9826 167.768C68.086 164.285 68.386 160.461 69.019 156.375C69.1898 155.292 70.4219 154.731 71.3758 155.282L84.322 162.757Z"
    fill="white" />
  <path
    d="M105.403 98.7041C109.218 100.907 117.531 105.707 117.531 105.707C115.724 108.207 111.688 113.78 106.795 121.312C106.795 121.312 95.0071 114.506 90.3737 111.831C89.5561 111.359 89.3362 110.324 89.8764 109.546C94.7566 102.824 98.2542 99.7555 101.08 98.4799C102.459 97.8224 104.04 97.9173 105.403 98.7041Z"
    fill="white" />
  <path
    d="M85.5843 159.941L72.0929 152.152C70.8665 151.444 70.2483 149.997 70.5764 148.641C71.6288 144.616 72.9748 140.396 74.7901 135.993C75.5298 134.24 77.6506 133.556 79.2859 134.5L93.9355 142.958C91.0033 148.352 88.1575 154.068 85.5843 159.941Z"
    fill="white" />
  <path
    d="M178.539 85.3284C176.736 82.4708 174.171 79.9903 171.037 78.1807C169.674 77.3939 168.301 76.7827 166.917 76.3472C166.361 76.2081 165.845 76.0008 165.289 75.8617C158.134 74.0928 150.514 75.9619 145.036 80.8853C144.664 81.2154 144.252 81.6137 143.841 82.012C142.978 82.8767 142.105 83.9171 141.407 84.9679C141.064 85.4055 140.828 85.8144 140.552 86.2913L140.513 86.3595C134.376 96.989 137.994 110.707 148.692 116.883C149.987 117.631 151.292 118.202 152.636 118.706C158.337 120.634 164.497 120.193 169.729 117.582C171.617 116.673 173.418 115.441 174.986 113.985C176.554 112.528 178.035 110.748 179.176 108.772C183.475 101.17 182.959 92.1502 178.539 85.3284ZM165.857 77.5526C167.349 77.9594 168.858 78.6492 170.289 79.4753C173.832 81.521 176.513 84.4313 178.255 87.7084C181.448 93.822 181.59 101.444 177.892 107.849C177.184 109.076 176.34 110.224 175.466 111.264C173.917 113.004 172.173 114.45 170.168 115.564C165.021 118.498 158.704 119.211 152.907 117.136C151.698 116.711 150.569 116.15 149.479 115.52C139.531 109.777 136.172 97.0263 141.876 87.1463L141.915 87.0781C142.191 86.6012 142.427 86.1923 142.77 85.7547C143.468 84.7038 144.341 83.6635 145.204 82.7988C145.615 82.4005 146.027 82.0022 146.399 81.6721C151.336 77.527 157.921 75.8777 164.259 77.1746C164.434 77.1852 165.614 77.5027 165.857 77.5526ZM170.168 115.564C165.021 118.498 158.704 119.211 152.907 117.136C158.636 119.172 165.021 118.498 170.168 115.564Z"
    fill="white" />
  <path
    d="M173.309 67.3187C171.584 69.0481 168.81 71.8073 166.426 74.5194C158.385 72.2391 149.622 74.3568 143.536 80.0192L131.885 73.2921L140.482 58.0868C151.746 64.2266 158.95 59.3011 173.147 66.4982C173.419 66.6555 173.535 67.0854 173.309 67.3187Z"
    fill="white" />
</svg>