<svg width="256" height="256" viewBox="0 0 256 256" fill="none" xmlns="http://www.w3.org/2000/svg">
<path d="M137.191 161.862L84.8164 131.624L74.1129 150.163L126.487 180.401L137.191 161.862Z" fill="#A1A1A1"/>
<path d="M177.601 79.1749L181.427 63.4321C181.468 63.3616 181.397 63.3209 181.286 63.3507C180.223 64.0527 174.389 68.2973 170.61 71.0973C173.731 73.1808 176.151 75.9882 177.601 79.1749Z" fill="#A1A1A1"/>
<path d="M149.378 105.268C142.681 101.402 139.058 94.3287 139.383 87.0914L117.742 74.5972L85.5503 130.355L137.925 160.594L170.117 104.836C164.052 108.665 156.074 109.134 149.378 105.268Z" fill="white"/>
<path d="M156.471 56.3546L150.371 49.8256C150.271 49.6737 150.019 49.6221 149.797 49.6817L141.888 52.6349L145.054 58.222L136.1 73.7299L142.304 77.3113C147.887 68.1286 159.744 65.0113 169.13 70.2424C172.534 67.6023 176.382 64.8431 178.894 63.0976L167.581 62.0174C163.302 61.6147 159.303 59.5878 156.471 56.3546Z" fill="white"/>
<path d="M57.5084 178.923C56.2061 181.178 57.0214 183.999 59.2066 185.26L103.475 210.819C105.73 212.121 108.551 211.306 109.812 209.12L125.644 181.7L73.3398 151.502L57.5084 178.923Z" fill="white"/>
<path d="M139.855 48.8297C140.687 50.1559 142.219 50.7584 143.746 50.2301L150.409 47.968C150.631 47.9084 150.813 47.9193 150.913 48.0712L157.666 55.2593C160.298 58.1888 163.833 60.042 167.749 60.4229L180.515 61.5903C180.697 61.6012 180.708 61.4195 180.637 61.3788L148 42.5358C147.859 42.4544 147.748 42.4842 147.637 42.5139L141.258 44.2826C139.569 45.0929 138.934 47.1698 139.855 48.8297Z" fill="#A1A1A1"/>
<path d="M141.489 78.7205L135.356 75.1798L119.284 65.9008C119.073 65.7787 118.85 65.8382 118.728 66.0497L116.205 70.4201C116.083 70.6316 116.142 70.854 116.354 70.9761L139.616 84.4063C139.988 82.4595 140.612 80.5642 141.489 78.7205Z" fill="#A1A1A1"/>
<path d="M173.727 85.3968C172.988 81.3047 170.551 77.5482 166.674 75.3098C166.392 75.147 166.181 75.0249 165.969 74.9029C165.199 75.586 164.58 76.1688 164.225 76.6215C164.033 76.7923 163.981 77.0444 164.07 77.378C164.384 79.439 169.286 82.8329 173.727 85.3968Z" fill="#A1A1A1"/>
<path d="M172.912 86.8067C168.894 84.4869 162.965 80.5938 162.412 77.6433C162.315 76.8352 162.47 76.0787 162.977 75.5256C163.292 75.1434 163.758 74.6609 164.295 74.219C158.046 72.0206 150.867 74.3612 147.237 80.1603L172.261 94.608C173.493 92.3116 173.968 89.8604 173.899 87.3765C173.617 87.2137 173.264 87.0102 172.912 86.8067Z" fill="white"/>
<path d="M177.824 99.135L176.555 98.4025C175.386 100.265 173.975 101.894 172.324 103.29L174.65 104.633C174.861 104.755 175.084 104.696 175.206 104.484L177.932 99.7614C178.125 99.5907 178.036 99.2571 177.824 99.135Z" fill="#A1A1A1"/>
<path d="M152.225 100.333C156.032 102.531 160.392 102.793 164.265 101.457L145.232 90.4688C146.012 94.4904 148.419 98.1357 152.225 100.333Z" fill="white"/>
<path d="M145.045 87.5407L166.967 100.198C168.708 99.1352 170.249 97.769 171.489 95.9472L146.465 81.4995C145.507 83.4842 145.024 85.4608 145.045 87.5407Z" fill="#A1A1A1"/>
<path d="M182.312 106.99L179.656 100.193L176.482 105.692C176.758 107.167 178.837 109.589 178.064 110.928L137.692 180.855L141.357 182.971L181.973 112.622C182.95 110.93 183.111 108.861 182.312 106.99Z" fill="#A1A1A1"/>
<path d="M176.921 81.9782C175.626 78.035 172.956 74.5198 169.231 72.1811C169.02 72.0591 168.033 71.4893 167.68 71.2858C159.148 67.0176 148.726 69.9293 143.713 78.1251C143.631 78.2661 143.061 79.2529 142.899 79.5349C141.952 81.3379 141.357 83.3443 141.055 85.3319C140.93 86.1996 140.876 87.108 140.892 88.0571C140.985 94.4078 144.269 100.44 150.12 103.818C155.971 107.195 162.878 106.954 168.383 103.929C169.213 103.468 169.973 102.967 170.661 102.425C172.232 101.17 173.632 99.7223 174.76 97.9303C174.842 97.7893 175.493 96.6614 175.574 96.5205C178.22 91.9386 178.536 86.6699 176.921 81.9782ZM172.787 96.7907C171.587 98.5421 170.188 99.9897 168.476 101.163C167.676 101.735 166.846 102.196 165.987 102.545C161.414 104.605 156.023 104.5 151.371 101.814C146.718 99.128 143.932 94.5118 143.43 89.5222C143.302 88.6029 143.286 87.6538 143.382 86.6749C143.502 84.6764 144.026 82.6293 145.013 80.7558C145.176 80.4739 145.746 79.487 145.827 79.346C150.027 72.5601 158.529 70.0436 165.714 73.064C166.248 73.2784 167.487 73.8998 167.558 73.9405C172.28 76.6672 175.096 81.3946 175.558 86.4547C175.607 86.8588 175.601 88.1712 175.59 88.3529C175.519 90.7554 174.903 93.1252 173.782 95.3918C173.712 95.3511 173.061 96.479 172.787 96.7907Z" fill="white"/>
</svg>
