<svg width="256" height="256" viewBox="0 0 256 256" fill="none" xmlns="http://www.w3.org/2000/svg">
<g clip-path="url(#clip0_798_826)">
<path d="M74.2705 187.948C77.5126 192.683 81.3009 197.484 85.6207 202.105L60.9397 216.355C58.8433 217.565 56.1377 216.84 54.9273 214.744L50.3609 206.835C49.1505 204.738 49.8754 202.033 51.9719 200.822L74.2705 187.948Z" fill="white"/>
<path d="M79.0254 125.108L107.745 174.851L167.493 140.355L138.774 90.6119L79.0254 125.108ZM111.216 117.704C113.98 116.108 117.437 117.034 119.032 119.798C120.628 122.562 119.701 126.019 116.938 127.614C114.174 129.21 110.717 128.283 109.122 125.52C107.526 122.756 108.453 119.299 111.216 117.704ZM96.9221 125.956C99.6856 124.361 103.143 125.287 104.738 128.051C106.334 130.814 105.407 134.271 102.644 135.867C99.8804 137.462 96.4233 136.536 94.8278 133.772C93.2323 131.009 94.1586 127.552 96.9221 125.956ZM154.094 138.053L112.546 162.041L103.358 146.127L144.906 122.139L154.094 138.053Z" fill="white"/>
<path d="M116.444 126.752C118.636 125.487 119.401 122.631 118.136 120.439C116.87 118.248 114.014 117.482 111.823 118.748C109.631 120.013 108.866 122.869 110.131 125.061C111.396 127.253 114.252 128.018 116.444 126.752Z" fill="white"/>
<path d="M102.094 134.91C104.286 133.644 105.051 130.788 103.786 128.597C102.521 126.405 99.6648 125.64 97.473 126.905C95.2813 128.17 94.516 131.026 95.7814 133.218C97.1019 135.505 99.9027 136.175 102.094 134.91Z" fill="white"/>
<path d="M183.668 124.788C186.147 129.963 188.411 135.645 190.158 141.751L101.916 192.698C97.5011 188.131 93.7128 183.33 90.4707 178.595L103.049 171.333L106.681 177.622L114.871 181.025L180.338 143.228L173.185 130.84L183.668 124.788Z" fill="white"/>
<path d="M228.654 103.897L233.221 111.806C234.431 113.903 233.706 116.608 231.61 117.819L206.452 132.343C204.61 126.292 202.346 120.61 199.867 115.435L222.642 102.286C224.738 101.076 227.444 101.8 228.654 103.897Z" fill="white"/>
<path d="M64.0079 169.733C66.3226 174.622 69.213 180.068 72.6899 185.43L48.1995 199.57C46.1031 200.78 43.3975 200.055 42.1871 197.959L37.6206 190.05C36.4102 187.953 37.1352 185.247 39.2317 184.037L64.0079 169.733Z" fill="white"/>
<path d="M80.2084 160.38L92.6918 153.172L101.66 168.705L88.8904 176.078C85.3585 170.62 82.4278 165.324 80.2084 160.38Z" fill="white"/>
<path d="M182.278 122.16L171.7 128.267L162.732 112.734L173.024 106.792C176.196 111.186 179.318 116.372 182.278 122.16Z" fill="white"/>
<path d="M220.488 84.4713L225.054 92.3806C226.265 94.4771 225.54 97.1827 223.443 98.3931L198.476 112.808C195.516 107.02 192.3 101.889 189.223 97.4399L214.38 82.9153C216.572 81.6499 219.277 82.3749 220.488 84.4713Z" fill="white"/>
<path d="M31.9231 164.116L56.4134 149.977C57.5217 153.657 59.4189 159.804 62.7131 167.05L40.8909 179.649C38.7945 180.859 36.0889 180.134 34.8785 178.038L30.312 170.129C29.1016 168.032 29.8266 165.327 31.9231 164.116Z" fill="white"/>
<path d="M72.7088 140.568L82.2381 135.066L91.206 150.599L78.9132 157.696C75.6042 150.205 73.652 143.962 72.7088 140.568Z" fill="white"/>
<path d="M171.348 104.33L161.247 110.162L152.279 94.6289L159.522 90.4476C162.085 92.9065 166.515 97.7183 171.348 104.33Z" fill="white"/>
<path d="M206.889 68.1808L211.456 76.0901C212.666 78.1866 211.941 80.8922 209.845 82.1026L187.546 94.9767C182.918 88.5007 178.543 83.7842 175.91 80.9844L200.877 66.5698C202.973 65.3594 205.679 66.0843 206.889 68.1808Z" fill="white"/>
<path d="M95.5738 190.515C98.3718 193.6 100.22 194.82 100.22 194.82L90.5952 200.377C89.7375 200.872 88.6451 200.741 87.9593 199.993C84.4756 196.16 81.2777 192.161 78.4208 188.093L78.3657 187.998C77.9806 187.331 76.0845 184.487 75.549 183.78C72.1124 178.267 69.277 172.916 66.9623 168.027C66.5625 167.114 66.1626 166.201 65.7628 165.289C62.5236 158.138 60.6559 152.482 59.8522 149.77C59.5476 148.802 59.9798 147.79 60.7422 147.35L69.6998 142.178C73.4902 153.585 77.5439 162.807 81.4796 170.064C82.9798 172.882 87.0216 179.443 87.6121 180.245C90.6488 184.845 93.3663 188.231 95.5738 190.515Z" fill="#A1A1A1"/>
<path d="M203.795 133.242C204.099 134.21 203.667 135.222 202.809 135.717L193.185 141.274C193.185 141.274 193.1 140.687 192.836 139.569C192.278 136.842 190.751 131.117 186.811 122.973C186.412 122.06 185.971 121.298 185.421 120.345C183.081 115.851 179.96 110.665 175.977 105.087C175.386 104.284 174.796 103.482 174.206 102.679C174.151 102.584 174.151 102.584 174.096 102.488C170.923 98.0942 167.095 93.4435 162.705 88.4814L171.663 83.3098C172.139 83.0347 172.726 82.9502 173.327 83.1113C173.627 83.1919 173.983 83.3677 174.298 83.6939C178.934 88.6412 196.041 108.369 203.795 133.242Z" fill="#A1A1A1"/>
<path d="M32.5078 182.079C30.7925 183.069 23.0137 183.24 20.1175 182.625C19.6666 182.504 18.0682 182.157 18.0495 181.024C17.906 179.455 20.2226 178.626 22.6894 177.837C24.0382 177.312 26.0689 176.648 26.23 176.047C26.23 176.047 26.1199 175.856 26.0099 175.666C24.9135 174.647 22.6844 173.647 20.8109 172.823C18.2261 171.647 16.8586 171.039 16.7593 170.207C16.6896 169.866 16.7701 169.565 17.056 169.4C17.613 168.824 19.0719 168.49 21.3079 167.962C23.2982 167.448 26.4616 166.765 26.8536 165.903C26.8536 165.903 26.8939 165.753 26.8388 165.658C26.384 164.65 24.1106 162.913 22.3029 161.542C19.5639 159.439 18.6325 158.706 18.8339 157.955C18.8742 157.804 19.05 157.449 19.4862 157.324C20.168 157.184 21.2055 157.221 22.5838 157.187C24.5083 157.22 27.5656 157.233 28.1227 156.658C28.0784 155.921 26.5566 154.385 25.2952 153.081C22.9373 150.757 21.5108 149.167 21.7377 148.019C21.8183 147.719 21.9941 147.363 22.4706 147.088C23.7644 146.468 25.8285 147.182 27.8926 147.897C29.1501 148.314 30.8585 148.852 31.335 148.577C31.335 148.577 31.4303 148.522 31.3752 148.427C31.4666 147.485 29.765 145.418 28.3788 143.677C26.3471 141.038 25.1662 139.433 25.3931 138.286C25.4736 137.985 25.6495 137.629 25.9353 137.464C27.1742 136.749 29.363 137.899 32.5382 139.878C33.7152 140.596 35.4531 141.626 36.1496 141.732C35.9954 140.804 34.7447 138.858 33.8094 137.238C32.0086 134.339 30.868 132.584 31.4505 131.612C31.5861 131.407 31.7619 131.051 32.3484 130.966C33.767 130.783 35.9303 132.329 37.9984 133.93C39.1351 134.799 40.9427 136.169 41.4742 135.989C41.6609 134.992 40.6263 132.54 39.7165 130.524C38.4619 127.691 37.8823 126.247 38.4246 125.425C38.5601 125.22 38.846 125.055 39.1869 124.985C40.1693 124.926 41.6214 126.121 43.8142 128.158C44.9656 129.272 46.9933 131.024 47.5396 131.09C47.6456 130.393 46.6661 128.037 45.9361 126.552C44.6815 123.719 43.8818 121.894 44.5194 121.017C44.6549 120.812 44.9811 120.497 45.5273 120.562C46.9607 120.624 48.4569 122.556 49.8579 124.542C50.8738 125.861 51.9594 127.522 52.6559 127.628C52.6559 127.628 52.8062 127.668 52.8465 127.518C53.5391 126.737 52.8307 123.969 52.3168 121.979C51.6782 119.552 51.3992 118.189 52.0515 117.558C52.1871 117.353 52.4729 117.188 53.0742 117.349C54.372 117.616 55.377 119.577 56.892 122.641C57.677 124.221 58.8618 126.713 59.5033 126.724C60.2107 126.188 60.2283 124.018 60.2204 122.244C60.2783 119.923 60.2959 117.753 61.3294 116.902C61.6556 116.587 62.1468 116.558 62.693 116.623C64.3867 116.916 65.7179 118.562 66.9941 120.112C68.1603 121.472 69.1761 122.791 70.2136 122.827C71.3463 122.809 73.0911 122.309 74.6855 121.77C77.8341 120.842 80.5466 120.038 81.2765 121.522C81.4416 121.808 81.2658 122.164 81.0752 122.274C80.7893 122.439 80.4336 122.263 80.3236 122.072C80.0338 121.35 76.8852 122.279 75.0451 122.833C73.3003 123.332 71.5556 123.831 70.3275 123.905C68.7036 123.953 67.4824 122.498 66.1512 120.853C64.9851 119.493 63.8592 117.983 62.4661 117.771C62.1655 117.69 62.0702 117.745 62.0299 117.896C61.4179 118.376 61.36 120.697 61.3679 122.471C61.31 124.791 61.2923 126.961 60.2588 127.812C60.028 128.073 59.5918 128.197 59.2361 128.021C58.184 127.74 57.2487 126.12 55.8988 123.341C54.9487 121.476 53.6538 118.793 52.807 118.646C52.5761 118.907 53.1303 120.747 53.3543 122.015C54.0076 124.687 54.8113 127.4 53.602 128.606C53.2356 129.072 52.7444 129.101 52.4988 129.116C51.311 129.039 50.1301 127.434 48.8392 125.638C47.7133 124.128 46.3123 122.142 45.3702 122.051C45.0037 122.516 46.1886 125.009 46.8233 126.548C48.0229 129.286 48.8226 131.111 48.3353 132.028C48.2548 132.329 47.9689 132.494 47.628 132.563C46.6053 132.773 45.2486 131.523 42.8504 129.35C41.6037 128.291 39.8766 126.62 39.125 126.419C39.1142 127.06 40.024 129.076 40.5487 130.425C41.5832 132.877 42.5627 135.234 42.3908 136.477C42.325 137.023 41.9438 137.243 41.7533 137.353C40.8406 137.753 39.4986 136.749 37.2803 135.107C35.5276 133.832 33.4596 132.231 32.3819 132.345C32.0704 132.906 33.6512 135.424 34.6818 136.989C36.0425 139.125 37.2932 141.071 37.3119 142.204C37.3413 142.695 37.0152 143.011 36.8246 143.121C36.0622 143.561 34.5847 142.762 32.0805 141.286C30.3425 140.256 27.3726 138.413 26.6103 138.853C26.4089 139.605 28.0702 141.822 29.3464 143.372C31.1581 145.63 32.6543 147.561 32.5375 148.899C32.4716 149.446 32.2408 149.706 31.9549 149.871C31.1523 150.462 29.5391 149.868 27.5301 149.249C25.9169 148.656 23.7576 147.997 22.9952 148.437C22.8999 148.492 22.8999 148.492 22.8999 148.492C22.7938 149.189 24.8363 151.186 26.1528 152.586C28.045 154.543 29.2514 155.752 29.3104 156.734C29.3802 157.075 29.2043 157.431 28.9734 157.691C28.0903 158.582 25.8248 158.62 22.6172 158.566C21.7301 158.57 20.788 158.478 20.2015 158.563C20.7772 159.12 21.9689 160.084 23.0505 160.857C25.1186 162.458 27.3369 164.1 27.9018 165.298C28.1219 165.679 28.0963 166.075 27.9205 166.431C27.3527 167.648 25.0214 168.232 21.5722 169.08C20.1133 169.414 18.4638 169.858 17.8921 170.188C18.1524 170.419 19.8756 171.203 21.2431 171.811C23.2669 172.675 25.5511 173.771 26.7025 174.885C27.2782 175.442 27.3077 175.933 27.2271 176.233C27.0002 177.381 25.1199 178.085 22.994 178.804C21.4948 179.289 19.083 180.173 19.1272 180.91C19.1822 181.005 19.2372 181.1 19.5929 181.276C22.328 182.493 30.9644 181.826 31.9173 181.276C32.0529 181.071 32.3938 181.001 32.5991 181.137C32.8044 181.272 32.9292 181.708 32.6984 181.969C32.6984 181.969 32.6031 182.024 32.5078 182.079Z" fill="white"/>
<path d="M203.2 64.2155C202.819 64.4356 202.448 64.0141 202.228 63.633C201.473 62.5445 201.16 59.8025 200.807 57.2109C200.638 56.0379 200.44 54.3737 200.245 53.5966C199.879 54.0623 199.432 54.8286 199.04 55.6902C197.483 58.495 196.223 60.4933 195.105 60.7576C194.764 60.8273 194.463 60.7468 194.107 60.5709C193.286 60.0287 192.842 58.3792 192.093 55.7621C191.539 53.922 190.831 51.1545 190.175 50.8981C190.175 50.8981 190.175 50.8981 190.079 50.9532C189.277 51.5436 188.808 53.593 188.515 55.2866C188.142 57.281 187.794 58.8794 186.841 59.4295C186.651 59.5396 186.215 59.6644 185.709 59.4482C184.491 58.8804 183.567 56.6189 182.518 53.9212C181.813 52.0409 180.724 49.4935 179.972 49.2921C179.21 49.7323 179.266 53.1305 179.344 55.2456C179.425 58.2479 179.323 59.8315 178.561 60.2717C178.37 60.3817 178.029 60.4515 177.523 60.2353C176.552 59.6528 175.547 57.6919 174.321 55.3498C173.536 53.7701 172.091 51.0469 171.45 51.0361C170.907 51.8574 171.165 54.5041 171.393 56.6595C171.705 59.4014 171.904 61.0656 171.101 61.6561C170.911 61.7661 170.529 61.9862 170.023 61.77C168.766 61.3526 167.215 59.3259 165.704 57.1489C164.798 56.0201 163.507 54.2242 162.946 53.9128C162.745 54.6644 163.328 56.9956 163.622 58.6048C164.305 61.7682 164.613 63.623 164.016 64.349C163.785 64.6094 163.444 64.6791 163.199 64.6939C162.106 64.5623 160.98 63.0523 159.209 60.6444C158.193 59.3251 156.627 57.0528 156.041 57.1373C155.649 57.9989 156.613 60.1101 157.413 61.9354C158.323 63.9513 159.123 65.7766 158.595 66.8435C158.46 67.0488 158.188 67.4595 157.602 67.544C155.952 67.9881 154.005 65.9359 152.018 64.0339C151.127 63.1508 149.715 61.8059 149.374 61.8756C149.077 62.6822 150.753 65.1451 151.894 66.9006C153.625 69.4588 154.711 71.1191 154.279 72.131C154.198 72.4316 153.872 72.747 153.586 72.912C152.332 73.3816 150.444 72.3118 148.406 71.2017C146.873 70.3078 144.889 69.293 144.112 69.4875C144.017 69.5425 143.922 69.5976 143.786 69.8029C143.369 71.0604 144.018 72.8454 144.613 74.5352C145.372 76.5108 146.021 78.2958 145.168 79.6781C144.49 80.7048 143.09 82.0212 141.881 83.2277C140.481 84.5441 138.102 86.8067 138.583 87.4187C138.748 87.7046 138.667 88.0053 138.381 88.1703C138.096 88.3354 137.795 88.2548 137.63 87.9689C136.709 86.5945 138.762 84.6473 141.14 82.3848C142.349 81.1783 143.709 80.0122 144.291 79.0406C144.834 78.2192 144.239 76.5295 143.55 74.8948C142.845 73.0144 142.086 71.0388 142.679 69.4257C142.895 68.9197 143.221 68.6044 143.603 68.3843C144.856 67.9147 146.744 68.9845 148.783 70.0946C150.315 70.9885 152.204 72.0583 153.021 71.7135C153.182 71.1122 151.766 68.8802 150.791 67.4105C148.895 64.5665 147.699 62.7156 148.117 61.4581C148.333 60.9522 148.619 60.7871 148.809 60.6771C149.682 60.4275 150.628 61.406 152.505 63.1173C153.972 64.5575 156.014 66.5547 157.037 66.3455C157.228 66.2354 157.228 66.2354 157.228 66.2354C157.539 65.6745 156.684 63.7538 155.954 62.2694C154.879 59.9677 154.01 57.8014 154.673 56.5292C154.985 55.9682 155.325 55.8985 155.571 55.8837C156.649 55.7697 157.83 57.375 159.656 59.8781C160.672 61.1975 162.128 63.2792 162.784 63.5356C163.04 62.8794 162.497 60.3978 162.108 58.8436C161.44 55.9258 161.131 54.071 161.674 53.2497C161.905 52.9894 162.095 52.8793 162.436 52.8096C163.323 52.8056 164.339 54.125 166.206 56.4778C167.497 58.2737 169.103 60.3957 170.06 60.7326C170.386 60.4173 170.103 58.1665 170.015 56.6929C169.662 54.1013 169.404 51.4547 170.273 50.318C170.639 49.8523 171.13 49.8228 171.281 49.8631C172.373 49.9947 173.418 51.8053 174.974 54.7191C175.814 56.3941 176.929 58.5456 177.695 58.9926C177.952 58.3363 177.929 56.3165 177.895 54.9381C177.92 51.2393 177.868 48.7283 179.107 48.013C179.392 47.848 179.733 47.7782 180.089 47.9541C181.196 48.3313 181.996 50.1566 183.265 53.2355C184.08 55.3064 185.114 57.7585 185.881 58.2055C186.031 58.2457 186.031 58.2457 186.031 58.2457C186.412 58.0257 186.895 56.2219 187.163 54.9242C187.576 52.7795 187.99 50.6349 189.173 49.8244C189.65 49.5493 190.046 49.5748 190.346 49.6554C191.454 50.0326 192.118 52.0633 192.951 55.2669C193.45 57.0117 194.019 59.0973 194.635 59.504C195.412 59.3095 197.024 56.5999 197.863 54.9721C198.486 53.8501 199.068 52.8785 199.53 52.3578C199.897 51.8921 200.252 52.068 200.403 52.1083C201.154 52.3096 201.323 53.4826 201.775 56.9063C202.058 59.1571 202.426 61.9943 203.071 62.8922C203.181 63.0828 203.827 63.9807 203.2 64.2155Z" fill="white"/>
<path d="M177.329 142.427L114.912 178.463L108.68 176.471L170.239 140.93L140.68 89.5115L147.855 91.5951L177.329 142.427Z" fill="#A1A1A1"/>
<path d="M132.789 91.9072C132.694 91.9622 132.694 91.9622 132.599 92.0172C124.333 93.1049 118.471 91.5342 115.163 87.3452C110.949 82.0275 107.96 79.0518 102.243 82.3529C99.6699 83.8383 99.5206 87.101 99.4264 90.4589C99.3214 94.4583 99.0955 98.9086 94.5027 100.417C86.6661 102.908 87.1144 117.769 87.0741 117.92C87.0888 118.165 86.858 118.426 86.5171 118.495C86.2715 118.51 86.0111 118.279 85.9414 117.938C85.9522 117.297 85.5294 102.04 93.8976 99.3685C97.8635 98.0952 97.9833 94.3414 98.0883 90.342C98.1678 86.7385 98.3426 83.0799 101.487 81.2644C107.967 77.5232 111.326 80.9203 115.855 86.5642C118.943 90.372 124.505 91.8622 132.334 90.8992C132.58 90.8845 132.936 91.0603 132.95 91.3059C133.115 91.5918 132.98 91.7971 132.789 91.9072Z" fill="#A1A1A1"/>
<path d="M136.296 88.7386C136.2 88.7936 136.2 88.7936 136.105 88.8486C126.34 90.4207 119.55 89.0042 115.927 84.4891C111.248 78.8049 108.039 75.4481 100.987 79.5194C97.8427 81.335 97.7485 84.6929 97.7092 88.1461C97.6042 92.1455 97.5837 96.7314 91.983 98.6944C82.8525 101.806 82.8617 119.208 82.8214 119.358C82.7959 119.754 82.565 120.014 82.1691 119.989C81.7732 119.963 81.5128 119.732 81.5384 119.336C81.4942 118.599 81.5655 100.897 91.5684 97.5362C96.3517 95.918 96.3212 92.1239 96.4262 88.1245C96.4507 84.4257 96.5705 80.6719 100.287 78.5262C108.006 74.0698 111.871 77.683 116.77 83.7483C120.173 87.8823 126.512 89.1779 135.841 87.7306C136.182 87.6609 136.442 87.8917 136.512 88.2326C136.662 88.2729 136.486 88.6285 136.296 88.7386Z" fill="white"/>
<path d="M127.74 94.8236L127.644 94.8786C118.594 97.6895 114.656 92.8483 110.402 87.6809C107.164 83.8328 103.595 79.413 97.4178 77.5161C95.7233 86.2449 91.2564 91.4921 88.0793 95.2322C85.364 98.4517 83.3815 100.74 84.0497 103.658C85.1363 108.621 90.8168 115.379 90.8168 115.379C90.9819 115.664 90.9966 115.91 90.7658 116.17C90.5349 116.431 90.2343 116.35 89.9739 116.119C89.7136 115.889 84.0331 109.131 82.9317 103.922C82.2341 100.513 84.3924 97.8691 87.2983 94.5396C90.6109 90.5942 94.8067 85.7576 96.4609 77.1791C95.1081 76.8166 93.715 76.6045 92.1314 76.5023C84.4587 75.9769 80.191 73.8668 79.2881 70.3222C78.2162 65.6047 83.5152 60.2583 86.374 58.6077C88.661 57.2873 91.4324 57.466 93.6911 58.9573C95.594 60.2727 99.6535 64.6631 97.6447 76.3686C104.273 78.3863 107.992 82.8464 111.34 86.8851C115.649 92.1478 119.052 96.2817 127.38 93.7606C127.721 93.6909 127.926 93.8265 128.091 94.1123C128.066 94.5083 127.93 94.7136 127.74 94.8236ZM86.8289 59.6157C84.0654 61.2112 79.3381 66.2275 80.2155 70.168C80.9386 73.181 84.9459 75.0603 92.0724 75.5199C93.6561 75.6221 95.1995 75.8745 96.5523 76.237C98.3999 65.1327 94.7109 61.1638 93.0132 59.9839C91.0552 58.5732 88.83 58.4603 86.8289 59.6157Z" fill="#A1A1A1"/>
<path d="M123.484 141.367L122.15 142.137L124.956 146.997L126.29 146.227L123.484 141.367Z" fill="white"/>
<path d="M117.67 144.722L116.336 145.492L119.142 150.352L120.476 149.582L117.67 144.722Z" fill="white"/>
<path d="M106.176 147.039L113.218 159.236L150.954 137.449L143.912 125.252L106.176 147.039ZM121.54 149.222C121.76 149.603 121.679 149.904 121.298 150.124L119.202 151.334C118.821 151.554 118.52 151.474 118.3 151.093L115.219 145.756C114.999 145.375 115.079 145.075 115.461 144.854L117.557 143.644C117.938 143.424 118.239 143.505 118.459 143.886L121.54 149.222ZM127.353 145.866C127.573 146.247 127.492 146.548 127.111 146.768L125.015 147.978C124.633 148.198 124.333 148.118 124.113 147.737L121.032 142.4C120.812 142.019 120.892 141.718 121.273 141.498L123.37 140.288C123.751 140.068 124.052 140.148 124.272 140.53L127.353 145.866ZM131.168 144.552L130.215 145.103L129.61 144.054L130.563 143.504L131.168 144.552ZM129.628 141.884L128.675 142.434L128.07 141.386L129.023 140.836L129.628 141.884ZM134.79 142.462L133.837 143.012L131.141 138.343L130.76 138.563L130.705 138.467L130.136 136.382L130.993 135.887L134.79 142.462ZM140.217 138.439C140.437 138.82 140.357 139.12 139.976 139.341L137.879 140.551C137.498 140.771 137.197 140.69 136.977 140.309L133.896 134.973C133.676 134.592 133.757 134.291 134.138 134.071L136.234 132.861C136.616 132.641 136.916 132.721 137.136 133.102L140.217 138.439Z" fill="white"/>
<path d="M136.348 133.939L135.014 134.709L137.82 139.569L139.154 138.799L136.348 133.939Z" fill="white"/>
</g>
<defs>
<clipPath id="clip0_798_826">
<rect width="256" height="256" fill="white"/>
</clipPath>
</defs>
</svg>
