<svg width="256" height="256" viewBox="0 0 256 256" fill="none" xmlns="http://www.w3.org/2000/svg">
  <path
    d="M69.8985 131.792L70.9746 130.216C71.2215 129.843 71.5516 129.531 71.9389 129.306L91.3003 118.185L89.8159 115.614L70.5796 126.72C70.1946 126.946 69.8775 127.27 69.6616 127.661L69.337 128.24L68.5814 129.478L69.8985 131.792Z"
    fill="white" />
  <path d="M151.427 75.7555L139.603 82.582L141.732 86.2703L153.556 79.4437L151.427 75.7555Z" fill="white" />
  <path
    d="M88.6705 112.025L91.9784 117.755L96.3685 115.22L95.3265 113.415L91.1759 112.842C90.7896 112.83 90.4127 112.72 90.0802 112.523C89.7477 112.326 89.4705 112.048 89.2743 111.715L88.6705 112.025Z"
    fill="white" />
  <path
    d="M89.2398 109.042L89.2899 109.014C89.5199 108.613 89.8513 108.28 90.2508 108.048L96.4815 104.451L97.3182 101.848C97.2463 101.823 97.1816 101.793 97.1025 101.772C96.6704 101.654 96.2093 101.711 95.819 101.93L88.7432 106.016C88.3675 106.25 88.0971 106.621 87.9889 107.05C87.8806 107.479 87.9429 107.934 88.1626 108.318C88.2648 108.521 88.4176 108.694 88.6063 108.821C88.7949 108.948 89.0131 109.024 89.2398 109.042Z"
    fill="white" />
  <path
    d="M90.3232 109.066C90.0927 109.292 89.9268 109.576 89.8427 109.888C89.7191 110.329 89.7632 110.8 89.9666 111.21C90.1077 111.44 90.303 111.632 90.5353 111.769C90.7676 111.907 91.0299 111.985 91.2994 111.997L96.3474 112.769L102.893 108.99L100.702 105.194L99.5125 108.096C99.2805 108.71 98.8518 109.229 98.2934 109.573C98.0682 109.713 97.8146 109.802 97.5511 109.831C97.2876 109.861 97.0207 109.832 96.7699 109.746C96.4021 109.6 96.0957 109.332 95.9018 108.987C95.7286 108.638 95.6285 108.258 95.6077 107.869C95.5869 107.481 95.6459 107.092 95.781 106.727L96.125 105.669L90.6964 108.803C90.5599 108.872 90.4341 108.961 90.3232 109.066Z"
    fill="white" />
  <path d="M133.439 84.2783L131.541 85.374L134.622 90.7095L136.52 89.6138L133.439 84.2783Z" fill="white" />
  <path d="M138.886 82.9951L134.969 85.2568L137.098 88.9451L141.016 86.6834L138.886 82.9951Z" fill="white" />
  <path d="M142.624 89.4697L138.707 91.7314L142.709 98.664L146.627 96.4022L142.624 89.4697Z" fill="white" />
  <path
    d="M101.589 102.944L101.061 104.261C101.189 104.397 101.301 104.547 101.395 104.708L103.64 108.597L107.579 106.323L104.106 100.307L101.821 101.626C101.84 102.069 101.77 102.511 101.618 102.928L101.589 102.944Z"
    fill="white" />
  <path
    d="M96.5503 106.951C96.458 107.205 96.4177 107.474 96.432 107.743C96.4462 108.012 96.5146 108.275 96.6332 108.517C96.7282 108.699 96.887 108.838 97.079 108.909C97.6555 109.13 98.4132 108.607 98.7612 107.738L100.823 102.642C101.039 102.121 101.044 101.535 100.836 101.011C100.787 100.897 100.716 100.794 100.627 100.707C100.538 100.621 100.432 100.554 100.317 100.509L99.9388 100.383C99.8046 100.348 99.6645 100.34 99.5273 100.362C99.3902 100.384 99.2591 100.434 99.1423 100.509C98.8097 100.731 98.546 101.042 98.3811 101.406C98.3319 101.503 98.2908 101.603 98.2584 101.706L96.5503 106.951ZM99.2462 101.251C99.3878 101.169 99.5505 101.131 99.7137 101.142C99.8769 101.152 100.033 101.211 100.163 101.311C100.293 101.41 100.39 101.546 100.443 101.701C100.495 101.856 100.501 102.023 100.458 102.181C100.416 102.339 100.328 102.481 100.205 102.589C100.082 102.697 99.9298 102.765 99.7676 102.787C99.6054 102.808 99.4406 102.781 99.2939 102.709C99.1472 102.636 99.0253 102.522 98.9435 102.38C98.8338 102.19 98.8041 101.965 98.8609 101.753C98.9176 101.541 99.0562 101.36 99.2462 101.251Z"
    fill="white" />
  <path
    d="M66.2011 127.042L27.1376 149.72L25.3634 157.629L41.2624 148.449L46.9799 145.005L46.9441 145.026L47.9632 141.697C48.2502 140.751 48.8871 139.949 49.7442 139.456L67.4694 129.222L66.2011 127.042Z"
    fill="white" />
  <path
    d="M87.9543 112.439L68.718 123.545C68.3439 123.762 68.033 124.073 67.8163 124.448L66.7559 126.349L68.1039 128.684L68.9222 127.256C69.2052 126.746 69.6181 126.32 70.1189 126.021L89.3767 114.903L87.9543 112.439Z"
    fill="white" />
  <path
    d="M69.2691 132.356L67.855 129.906L50.137 140.136C49.4615 140.525 48.9591 141.157 48.7314 141.902L47.9671 144.416L65.4203 133.909C65.6491 133.771 65.9216 133.725 66.1833 133.779C66.4449 133.833 66.6763 133.985 66.831 134.203C66.8686 134.251 66.8992 134.304 66.922 134.36L69.2691 132.356Z"
    fill="white" />
  <path
    d="M42.5285 148.74C42.3582 148.793 42.1946 148.865 42.0412 148.955C41.9465 149 41.8555 149.053 41.7691 149.112C41.2472 149.497 40.8854 150.061 40.7529 150.696C40.6203 151.331 40.7263 151.992 41.0506 152.554C41.3749 153.116 41.8948 153.538 42.5108 153.741C43.1269 153.943 43.7961 153.912 44.3905 153.653L44.6483 153.504C44.9301 153.341 45.1786 153.126 45.381 152.871C45.7385 152.427 45.9426 151.879 45.9628 151.31C45.983 150.74 45.8183 150.179 45.4932 149.711C45.1681 149.243 44.7002 148.893 44.1595 148.713C43.6187 148.533 43.0692 148.561 42.5285 148.74Z"
    fill="white" />
  <path
    d="M108.295 105.909L109.728 105.082C109.699 104.852 109.738 104.619 109.841 104.412C109.944 104.205 110.106 104.033 110.306 103.917L116.924 100.097C117.125 99.9798 117.356 99.9248 117.588 99.9386C117.82 99.9523 118.043 100.034 118.229 100.174L123.335 97.2258C123.306 96.9963 123.345 96.7633 123.448 96.5561C123.551 96.3489 123.713 96.1767 123.913 96.0611L130.531 92.2405C130.732 92.1237 130.963 92.0687 131.195 92.0824C131.427 92.0962 131.65 92.178 131.836 92.3178L133.913 91.1187L130.766 85.6686C130.723 85.5943 130.666 85.5292 130.598 85.477C130.53 85.4248 130.452 85.3865 130.369 85.3643C130.287 85.342 130.2 85.3364 130.115 85.3476C130.03 85.3588 129.948 85.3866 129.874 85.4295L104.808 99.9014L108.295 105.909Z"
    fill="white" />
  <path
    d="M64.1027 136.771L66.135 135.015C66.1775 134.973 66.2033 134.917 66.2077 134.857C66.2121 134.798 66.1948 134.738 66.159 134.691C66.1232 134.643 66.0713 134.609 66.0129 134.597C65.9544 134.584 65.8934 134.593 65.8409 134.622L43.8712 147.841C44.3828 147.917 44.8707 148.107 45.2992 148.396C45.7276 148.686 46.0855 149.068 46.3466 149.515C46.708 150.134 46.8652 150.852 46.7957 151.566L64.1027 136.771Z"
    fill="white" />
  <path
    d="M42.9207 170.954L47.0357 190.932C47.0638 191.065 47.143 191.182 47.2562 191.258C47.3695 191.333 47.5078 191.362 47.6417 191.337L53.8747 189.877C51.6711 183.596 48.9282 170.426 48.4149 167.801L43.0171 170.707C42.9768 170.733 42.9458 170.77 42.9284 170.815C42.9111 170.859 42.9084 170.908 42.9207 170.954Z"
    fill="white" />
  <path
    d="M104.189 125.458C104.63 125.666 105.115 125.764 105.602 125.743C106.089 125.723 106.564 125.586 106.987 125.342L107.209 125.214C108.719 124.338 109.925 123.019 110.661 121.435L111.95 118.705C112.369 117.795 113.056 117.035 113.92 116.527L127.847 108.266C129.324 107.395 130.915 106.733 132.575 106.301L133.746 105.997C134.463 105.811 135.152 105.53 135.793 105.159L139.524 103.005C139.782 102.856 139.971 102.61 140.048 102.322C140.125 102.034 140.085 101.727 139.936 101.468L134.776 92.5306L132.706 93.7256C132.75 93.9627 132.719 94.2077 132.618 94.4268C132.517 94.6458 132.351 94.8282 132.142 94.9487L125.51 98.7775C125.301 98.8971 125.06 98.9493 124.82 98.9273C124.58 98.9052 124.353 98.8099 124.169 98.6543L119.084 101.59C119.128 101.827 119.098 102.072 118.997 102.291C118.896 102.51 118.729 102.693 118.52 102.813L111.903 106.634C111.694 106.753 111.453 106.805 111.213 106.783C110.973 106.761 110.746 106.666 110.562 106.51L97.5776 114.007L104.189 125.458Z"
    fill="white" />
  <path
    d="M58.5249 159.146C57.8986 158.787 57.371 158.279 56.9891 157.666C56.6071 157.054 56.3826 156.356 56.3357 155.636C56.4357 154.665 56.7308 153.725 57.2035 152.872L51.9897 155.882C52.9951 157.464 54.2853 158.847 55.7949 159.959C56.4966 160.516 57.3627 160.826 58.2586 160.84C59.1544 160.855 60.0301 160.573 60.7495 160.039C60.7645 160.029 60.7764 160.016 60.7836 159.999C60.7907 159.983 60.7929 159.965 60.7899 159.947C60.7869 159.93 60.7787 159.913 60.7665 159.9C60.7543 159.887 60.7385 159.878 60.7211 159.874C59.9454 159.791 59.1965 159.543 58.5249 159.146Z"
    fill="white" />
  <path d="M158.761 81.1654L143.779 89.8154L147.343 95.9888L162.325 87.3388L158.761 81.1654Z" fill="white" />
  <path d="M137.347 91.0468L135.449 92.1426L140.721 101.274L142.618 100.178L137.347 91.0468Z" fill="white" />
  <path
    d="M196.859 69.0723L192.108 60.8435L183.808 65.6357L188.451 73.6783C188.533 73.7085 188.62 73.7204 188.707 73.7133C188.793 73.7062 188.877 73.6802 188.953 73.6371L196.859 69.0723Z"
    fill="white" />
  <path
    d="M197.11 59.0527L199.938 63.9513L207.229 59.7421C202.98 60.8678 200.036 57.3729 200.036 57.3729L197.11 59.0527Z"
    fill="white" />
  <path
    d="M173.648 80.802L187.119 73.0244L183.77 67.2234L170.442 74.9183C170.399 74.9531 170.35 74.981 170.299 75.001L173.648 80.802Z"
    fill="white" />
  <path
    d="M195.939 58.6123L193.375 60.0925L193.383 60.1068L192.824 60.4294L197.575 68.6582L200.698 66.8554L195.939 58.6123Z"
    fill="white" />
  <path
    d="M158.939 77.9015L159.626 79.0903L165.283 75.8238C164.511 75.7871 163.772 75.4998 163.178 75.0055L160.668 72.9405C160.003 72.5584 159.249 72.3576 158.482 72.3581C157.715 72.3587 156.961 72.5605 156.296 72.9436L152.143 75.3418L154.272 79.0301L157.094 77.401C157.248 77.3121 157.418 77.2545 157.594 77.2316C157.77 77.2087 157.949 77.2208 158.121 77.2674C158.292 77.3139 158.453 77.3939 158.593 77.5027C158.734 77.6115 158.851 77.7471 158.939 77.9015Z"
    fill="white" />
  <path d="M169.099 74.576L159.208 80.2861L163.583 87.8632L173.473 82.153L169.099 74.576Z" fill="white" />
  <path
    d="M184.609 60.2743L184.688 63.8855C184.693 64.0755 184.67 64.2652 184.622 64.449L187.558 62.7537C187.392 62.6858 187.252 62.5654 187.16 62.4108L186.217 60.7779C186.108 60.588 186.078 60.3623 186.135 60.1504C186.191 59.9386 186.33 59.7579 186.52 59.6483L188.153 58.7055C188.343 58.5959 188.568 58.5662 188.78 58.6229C188.992 58.6797 189.173 58.8183 189.282 59.0082L190.225 60.6411C190.313 60.7981 190.347 60.9794 190.323 61.1576L192.135 60.1115L185.792 49.1255L181.122 51.8214L183.24 55.4882C184.09 56.9436 184.561 58.5894 184.609 60.2743Z"
    fill="white" />
  <path
    d="M65.0996 148.504C64.9217 148.187 64.8731 147.814 64.9639 147.463C65.0546 147.112 65.2778 146.809 65.5867 146.618L101.616 124.308L96.7903 115.951L72.3501 129.985C71.9543 130.213 71.618 130.531 71.3686 130.914L70.3704 132.493L59.1275 142.212L45.7848 153.735C45.6904 153.827 45.5905 153.914 45.4854 153.994L45.3637 154.064L45.0987 154.217C44.301 154.677 43.3529 154.802 42.4631 154.564C41.5734 154.325 40.8147 153.743 40.3542 152.946C40.1035 152.516 39.9503 152.036 39.9052 151.541C39.8601 151.046 39.9243 150.547 40.0932 150.079L25.9433 158.153C25.6998 158.293 25.8897 158.556 26.0551 158.843L31.5874 168.425L33.736 167.184L34.3272 168.209C34.566 168.649 34.8932 169.036 35.2883 169.344L35.4645 167.218C35.5376 166.375 35.8127 165.562 36.2664 164.848C36.7201 164.134 37.3391 163.54 38.071 163.116L47.9757 157.397C48.1656 157.287 48.3913 157.258 48.6032 157.315C48.8151 157.371 48.9957 157.51 49.1053 157.7L53.542 165.384C53.5762 165.435 53.6261 165.474 53.6842 165.494C53.7423 165.514 53.8052 165.514 53.8635 165.495C54.0906 165.445 54.3246 165.436 54.5548 165.468C55.0463 165.509 55.8067 165.586 56.4665 165.653C57.3168 165.743 58.1733 165.556 58.9095 165.121L66.6083 160.677C67.4176 160.209 68.4594 159.665 68.8608 158.822C69.1776 158.096 69.2563 157.289 69.0854 156.515C68.9518 155.736 68.6836 154.986 68.2929 154.299L65.0996 148.504ZM73.0591 135.314L77.6354 132.672C78.1102 132.398 78.6746 132.324 79.2042 132.466C79.7338 132.608 80.1854 132.954 80.4595 133.429C80.7337 133.904 80.808 134.468 80.6661 134.998C80.5241 135.527 80.1777 135.979 79.7028 136.253L75.1408 138.887C74.6659 139.161 74.1016 139.235 73.572 139.093C73.0424 138.951 72.5908 138.605 72.3167 138.13C72.0425 137.655 71.9682 137.091 72.1101 136.561C72.252 136.032 72.5985 135.58 73.0734 135.306L73.0591 135.314ZM50.9308 150.955C51.1408 150.833 51.382 150.777 51.6239 150.793C51.8658 150.809 52.0974 150.897 52.2895 151.045C52.4816 151.193 52.6254 151.394 52.7027 151.624C52.7801 151.854 52.7874 152.101 52.7239 152.335C52.6604 152.569 52.5288 152.779 52.3459 152.938C52.1629 153.097 51.9369 153.198 51.6964 153.229C51.4559 153.259 51.2118 153.218 50.995 153.109C50.7782 153.001 50.5985 152.83 50.4787 152.619C50.3999 152.481 50.3491 152.328 50.3293 152.169C50.3096 152.011 50.3212 151.85 50.3636 151.696C50.4059 151.542 50.4782 151.398 50.5762 151.272C50.6743 151.146 50.7962 151.041 50.935 150.962L50.9308 150.955ZM66.9448 159.059L58.4474 164.09C57.6762 164.464 56.8044 164.579 55.9625 164.417L54.5279 164.032C54.3345 163.981 54.1532 163.893 53.9945 163.771C53.8358 163.65 53.7029 163.498 53.6036 163.324L50.079 157.071C49.9694 156.881 49.9397 156.655 49.9964 156.443C50.0532 156.231 50.1918 156.051 50.3817 155.941L62.9075 148.709C63.0895 148.61 63.3021 148.583 63.5032 148.633C63.6027 148.658 63.696 148.704 63.7769 148.768C63.8579 148.831 63.9248 148.911 63.9736 149.001L67.4962 155.284C68.1418 156.535 68.059 158.426 66.9489 159.067L66.9448 159.059Z"
    fill="white" />
  <path
    d="M48.7436 158.711L38.8721 164.487C38.374 164.784 37.9555 165.198 37.6522 165.692C37.3489 166.186 37.17 166.747 37.1307 167.326L36.8977 170.048C38.1673 170.461 39.7376 171.13 40.2503 172.018C40.9202 173.178 43.257 185.197 44.4188 191.345C44.6001 192.299 45.149 193.144 45.9473 193.698C46.7456 194.251 47.7293 194.469 48.6867 194.304L55.7855 193.071C56.296 192.981 56.7788 192.775 57.196 192.467C57.6132 192.16 57.9533 191.759 58.1896 191.298C58.4258 190.837 58.5518 190.327 58.5576 189.809C58.5634 189.291 58.4488 188.778 58.2229 188.312C57.6732 187.177 56.2331 185.345 55.7204 184.457C54.2732 181.95 55.2458 179.45 54.3527 177.903C53.3562 176.177 52.0051 171.075 52.0693 169.367C52.1676 168.415 52.4344 167.488 52.8572 166.63C52.9214 166.482 52.9504 166.322 52.942 166.161C52.9337 166 52.8881 165.843 52.809 165.703L48.7436 158.711ZM49.1354 167.213C49.2074 167.734 52.3051 182.924 54.6242 189.587C54.6624 189.697 54.6768 189.814 54.6665 189.931C54.6563 190.047 54.6215 190.16 54.5646 190.261C54.5095 190.359 54.4353 190.444 54.3464 190.511C54.2575 190.579 54.1557 190.628 54.0474 190.655L47.8072 192.119C47.4685 192.178 47.1202 192.106 46.8334 191.916C46.5465 191.727 46.3429 191.435 46.264 191.1L42.1163 171.131C42.0709 170.914 42.0951 170.688 42.1853 170.485C42.2755 170.282 42.4272 170.113 42.619 170.001L48.4435 166.858C48.5154 166.82 48.5953 166.8 48.6766 166.8C48.7578 166.799 48.838 166.818 48.9102 166.856L49.1086 166.951L49.1354 167.213Z"
    fill="white" />
  <path
    d="M74.7314 138.179L79.3078 135.537C79.5927 135.372 79.8006 135.101 79.8857 134.783C79.9709 134.466 79.9263 134.127 79.7618 133.842C79.5973 133.557 79.3264 133.349 79.0086 133.264C78.6908 133.179 78.3522 133.224 78.0673 133.388L73.491 136.03C73.2061 136.195 72.9982 136.466 72.913 136.783C72.8279 137.101 72.8725 137.44 73.037 137.725C73.2015 138.01 73.4724 138.217 73.7902 138.303C74.108 138.388 74.4465 138.343 74.7314 138.179Z"
    fill="white" />
  <path
    d="M27.3902 148.619L65.7948 126.322L67.0955 124.043C67.3827 123.538 67.8003 123.118 68.3046 122.829L88.873 110.954C88.7529 110.647 88.7535 110.305 88.8749 109.998L63.2002 124.821C63.0545 124.904 62.8937 124.956 62.7274 124.975C62.5612 124.994 62.3928 124.979 62.2324 124.931L61.7877 124.806C61.6245 124.758 61.4532 124.744 61.2844 124.764C61.1155 124.784 60.9524 124.839 60.8051 124.924C60.6578 125.009 60.5293 125.123 60.4274 125.259C60.3255 125.395 60.2522 125.55 60.2121 125.716L60.1012 126.152C60.061 126.317 59.9876 126.473 59.8856 126.609C59.7836 126.745 59.6551 126.859 59.5078 126.944L51.0211 131.843C50.8739 131.929 50.711 131.983 50.5422 132.003C50.3734 132.024 50.2022 132.009 50.039 131.962L49.5943 131.836C49.4311 131.789 49.2599 131.774 49.091 131.794C48.9221 131.815 48.7591 131.869 48.6118 131.954C48.4645 132.039 48.336 132.153 48.234 132.289C48.1321 132.425 48.0589 132.581 48.0187 132.746L47.9048 133.194C47.8655 133.359 47.7925 133.515 47.6904 133.651C47.5883 133.787 47.4593 133.901 47.3114 133.985L38.8462 138.873C38.699 138.958 38.5361 139.012 38.3673 139.032C38.1985 139.053 38.0273 139.039 37.8641 138.991L37.404 138.855C37.2423 138.812 37.0736 138.801 36.9076 138.823C36.7415 138.844 36.5814 138.899 36.4364 138.982C36.2914 139.066 36.1643 139.178 36.0624 139.31C35.9606 139.443 35.8859 139.595 35.8427 139.757L35.7035 140.276C35.6629 140.436 35.5906 140.586 35.4909 140.718C35.3912 140.849 35.2662 140.959 35.1233 141.041L30.683 143.605C29.5801 144.242 28.3386 144.853 28.0169 146.099L27.3902 148.619Z"
    fill="white" />
  <path
    d="M88.3087 143.402C88.2592 143.351 88.1934 143.318 88.1226 143.31C88.0518 143.302 87.9804 143.319 87.9208 143.359C87.8729 143.382 87.8305 143.415 87.7965 143.456C87.7626 143.497 87.7378 143.545 87.7239 143.596C87.7096 143.637 87.7068 143.68 87.7158 143.722C87.7249 143.764 87.7455 143.803 87.7752 143.834C95.6583 152.89 107.723 158.538 122.961 160.321C123.045 160.337 123.131 160.322 123.205 160.279C123.278 160.237 123.334 160.169 123.363 160.089C123.374 160.054 123.379 160.016 123.375 159.979C123.371 159.941 123.36 159.905 123.341 159.873C123.322 159.84 123.297 159.812 123.266 159.79C123.236 159.768 123.201 159.753 123.164 159.746C105.552 156.746 96.2816 152.349 88.3087 143.402Z"
    fill="white" />
  <path
    d="M84.4761 145.845C84.4258 145.795 84.3601 145.763 84.2897 145.755C84.2193 145.748 84.1483 145.764 84.0882 145.801C84.0382 145.824 83.9938 145.857 83.9585 145.899C83.9231 145.941 83.8977 145.99 83.8841 146.043C83.874 146.084 83.874 146.127 83.8842 146.167C83.8944 146.208 83.9145 146.246 83.9426 146.277C96.8477 161.104 121.358 164.093 122.371 164.196C122.453 164.21 122.538 164.195 122.609 164.153C122.681 164.112 122.737 164.046 122.765 163.968C122.778 163.933 122.782 163.896 122.779 163.86C122.775 163.823 122.764 163.787 122.745 163.755C122.727 163.723 122.702 163.696 122.672 163.674C122.642 163.653 122.607 163.638 122.571 163.632C105.068 160.655 92.4501 154.81 84.4761 145.845Z"
    fill="white" />
  <path
    d="M80.1706 148.492C80.1203 148.442 80.0546 148.411 79.9842 148.403C79.9138 148.395 79.8428 148.411 79.7827 148.449C79.7339 148.473 79.6906 148.507 79.6555 148.548C79.6204 148.59 79.5942 148.639 79.5786 148.691C79.5685 148.731 79.5685 148.774 79.5787 148.815C79.5889 148.856 79.609 148.893 79.6371 148.924C91.2287 162.237 115.99 167.631 121.775 168.273C121.857 168.287 121.941 168.272 122.013 168.23C122.085 168.189 122.14 168.123 122.169 168.045C122.181 168.01 122.185 167.972 122.182 167.935C122.178 167.897 122.166 167.861 122.147 167.829C122.129 167.796 122.103 167.768 122.073 167.746C122.042 167.724 122.007 167.709 121.971 167.702C104.13 164.653 88.0889 157.394 80.1706 148.492Z"
    fill="white" />
  <path
    d="M87.2616 134.907L70.0862 145.845C90.9197 171.841 123.137 174.735 128.042 174.729C128.234 174.727 128.418 174.654 128.558 174.524C128.698 174.393 128.785 174.215 128.8 174.024L130.396 155.849C130.409 155.644 130.342 155.442 130.208 155.287C130.073 155.132 129.883 155.036 129.679 155.021C103.279 153.008 90.5489 139.245 87.2616 134.907ZM122.94 168.107C122.851 168.426 122.639 168.695 122.351 168.858C122.123 168.988 121.86 169.046 121.598 169.025C115.733 168.344 90.7571 162.959 78.9902 149.442C78.8925 149.327 78.8241 149.19 78.7908 149.043C78.7574 148.896 78.7602 148.743 78.7987 148.598C78.841 148.437 78.9152 148.287 79.0169 148.157C79.1185 148.026 79.2455 147.917 79.3903 147.836C79.6072 147.693 79.8665 147.628 80.1253 147.652C80.3842 147.676 80.6269 147.788 80.8135 147.969C88.6246 156.752 104.496 163.898 122.154 166.928C122.287 166.946 122.414 166.992 122.528 167.063C122.642 167.134 122.739 167.228 122.814 167.34C122.888 167.452 122.938 167.578 122.96 167.71C122.981 167.842 122.975 167.978 122.94 168.107ZM123.541 164.055C123.499 164.213 123.425 164.362 123.324 164.49C123.223 164.619 123.096 164.727 122.953 164.806C122.725 164.939 122.462 164.998 122.2 164.973C121.169 164.842 96.3833 161.821 83.2916 146.787C83.1957 146.671 83.1284 146.534 83.0952 146.387C83.0619 146.241 83.0636 146.088 83.1001 145.942C83.1898 145.621 83.4022 145.347 83.6916 145.181C83.9091 145.039 84.1681 144.975 84.4265 144.999C84.6849 145.023 84.9276 145.134 85.1149 145.314C92.9734 154.145 105.455 159.935 122.755 162.876C122.888 162.894 123.016 162.94 123.13 163.011C123.244 163.082 123.341 163.176 123.415 163.288C123.49 163.399 123.539 163.525 123.561 163.658C123.583 163.79 123.576 163.926 123.541 164.055ZM124.147 160.143C124.109 160.302 124.038 160.451 123.938 160.581C123.839 160.711 123.714 160.818 123.57 160.897C123.343 161.033 123.076 161.09 122.813 161.057C107.308 159.276 95.134 153.538 87.1313 144.341C87.0342 144.226 86.9656 144.09 86.9311 143.944C86.8966 143.798 86.8971 143.646 86.9327 143.5C87.0224 143.179 87.2348 142.905 87.5242 142.739C87.7406 142.594 88.0003 142.528 88.2595 142.553C88.5187 142.577 88.7617 142.69 88.9475 142.872C96.8059 151.703 105.932 155.983 123.336 158.969C123.471 158.985 123.6 159.03 123.716 159.101C123.832 159.172 123.931 159.267 124.006 159.38C124.081 159.493 124.131 159.62 124.151 159.755C124.172 159.889 124.163 160.025 124.126 160.156L124.147 160.143Z"
    fill="white" />
</svg>