<svg width="256" height="256" viewBox="0 0 256 256" fill="none" xmlns="http://www.w3.org/2000/svg">
<path d="M94.4485 133.919L90.7736 127.554L87.4873 131.987L90.0681 136.457L94.4485 133.919Z" fill="white"/>
<path d="M107.827 129.171L106.912 127.586L78.6937 143.913L79.6 145.468L107.827 129.171Z" fill="white"/>
<path d="M87.1458 132.157L84.0452 132.002L87.4799 137.951L89.738 136.647L87.1458 132.157Z" fill="white"/>
<path d="M173.626 73.8208C172.842 73.7448 172.046 73.738 171.217 73.6442C171.104 73.6306 170.992 73.5894 170.886 73.6504L145.136 88.5176L146.802 91.403L174.533 75.3922L173.626 73.8208Z" fill="white"/>
<path d="M177.683 69.7169L176.563 67.7757L176.723 66.8029C176.731 66.5455 176.669 66.2908 176.545 66.0654C176.421 65.84 176.238 65.6523 176.016 65.522C175.794 65.3917 175.541 65.3236 175.283 65.3249C175.026 65.3261 174.773 65.3967 174.553 65.5292L172.308 66.8254C172.201 66.8871 172.113 66.9765 172.052 67.0841C171.992 67.1917 171.962 67.3135 171.965 67.4368L172.08 70.3811L173.986 73.6825L174.848 75.1747L179.311 72.5977L177.683 69.7169Z" fill="white"/>
<path d="M148.103 100.106L142.022 103.617L144.538 107.975L150.619 104.464L148.103 100.106Z" fill="white"/>
<path d="M108.491 128.796L143.877 108.357L141.361 103.999L136.388 106.897L93.5625 131.622L94.7785 133.729L107.191 126.545L108.491 128.796Z" fill="white"/>
<path d="M179.093 68.8947L178.208 69.4056L178.34 69.3293L180.354 72.894L175.237 75.8484L179.754 83.6726L185.657 80.2646L179.093 68.8947Z" fill="white"/>
<path d="M184.174 73.0918L182.877 73.8494L185.287 78.0223L186.587 77.2713L184.174 73.0918Z" fill="white"/>
<path d="M136.881 105.723L145.522 100.699L142.449 95.3774L136.844 98.6138L138.597 101.651L136.881 105.723Z" fill="white"/>
<path d="M137.75 101.708L136.183 98.9943L90.0896 125.606L93.1812 130.961L135.782 106.366L137.75 101.708Z" fill="white"/>
<path d="M101.46 162.409C101.418 162.741 101.501 163.076 101.693 163.349C101.885 163.622 102.172 163.814 102.498 163.887L106.058 164.64C106.366 164.705 106.688 164.654 106.961 164.497L109.523 163.018C109.602 162.972 109.691 162.948 109.782 162.948L115.53 162.992C115.602 162.993 115.673 162.975 115.736 162.939C115.799 162.903 115.85 162.85 115.886 162.788C115.922 162.725 115.94 162.654 115.939 162.581C115.937 162.509 115.917 162.439 115.879 162.377L115.025 160.898L101.804 159.956L101.46 162.409Z" fill="white"/>
<path d="M68.2944 146.5C68.0631 146.609 67.8784 146.797 67.774 147.03C67.6695 147.263 67.6522 147.526 67.725 147.771L68.0362 148.63C68.0362 148.63 68.0362 148.63 68.0629 148.677L69.9994 152.031L71.2795 152.586C73.3132 151.412 74.7327 150.592 74.9044 150.493C75.0877 150.35 75.2899 150.233 75.5053 150.146L72.2764 144.554C72.1235 144.506 71.9624 144.492 71.8035 144.511C71.6446 144.53 71.4914 144.582 71.3539 144.664L68.2944 146.5Z" fill="white"/>
<path d="M49.1799 160.847C49.3743 161.218 49.6643 161.531 50.0199 161.752C50.3754 161.974 50.7837 162.097 51.2026 162.109C52.0271 162.074 52.8363 162.339 53.4812 162.853L55.33 161.786L53.2753 158.227L49.076 160.651L49.1799 160.847Z" fill="white"/>
<path d="M55.6526 161.582L69.1156 153.81L69.3651 152.503L67.7831 149.763L53.6093 158.043L55.6526 161.582Z" fill="white"/>
<path d="M110.278 93.5269L101.133 98.8066L101.705 99.797L110.949 94.4601C110.703 94.1265 110.48 93.8154 110.278 93.5269Z" fill="white"/>
<path d="M109.053 92.4733L100.727 97.2804C100.634 97.3343 100.565 97.4227 100.536 97.5267C100.507 97.6306 100.52 97.7417 100.573 97.8362L100.954 98.4964L110.079 93.2281C109.953 93.0102 109.842 92.8188 109.743 92.6471C109.712 92.5879 109.668 92.536 109.615 92.4947C109.563 92.4534 109.502 92.4236 109.437 92.4073C109.372 92.3909 109.304 92.3883 109.238 92.3997C109.172 92.4111 109.109 92.4361 109.053 92.4733Z" fill="white"/>
<path d="M123.922 101.971L126.754 100.336C126.989 100.101 127.169 99.817 127.281 99.5043C127.393 99.1916 127.434 98.858 127.401 98.5275C127.44 97.9846 127.32 97.4421 127.054 96.9668L125.671 94.57C125.494 94.2636 125.202 94.04 124.86 93.9484C124.519 93.8568 124.154 93.9048 123.848 94.0817L117.641 97.665L122.113 99.4324C122.388 99.5419 122.618 99.7412 122.765 99.9979L123.922 101.971Z" fill="white"/>
<path d="M144.912 93.0396L149.559 101.088L151.335 100.063L144.782 88.7128L144.029 89.1474C143.76 89.3031 143.563 89.5596 143.482 89.8603C143.402 90.1611 143.444 90.4816 143.6 90.7513L144.912 93.0396Z" fill="white"/>
<path d="M77.6588 143.629L76.4948 143.016L73.9659 144.476L73.8355 145.775L75.1431 148.04L78.9397 145.848L77.6588 143.629Z" fill="white"/>
<path d="M146.182 100.317L147.71 99.4263L144.253 93.4376L142.717 94.3154L146.182 100.317Z" fill="white"/>
<path d="M90.5904 127.175L88.4556 123.477C88.4326 123.439 88.4 123.407 88.361 123.384C88.3219 123.362 88.2778 123.351 88.2328 123.351L84.3024 123.313C84.1433 123.32 83.9883 123.365 83.8503 123.445C83.7124 123.525 83.5957 123.636 83.5101 123.771L81.4363 127.178C81.413 127.215 81.4001 127.258 81.3992 127.302C81.3982 127.346 81.4091 127.389 81.4308 127.427L83.8286 131.58L87.1761 131.752L90.5904 127.175Z" fill="white"/>
<path d="M105.309 112.718L123.235 102.368L122.091 100.387C121.938 100.119 121.694 99.9129 121.404 99.8065L114.339 97.2828C114.208 97.2323 114.085 97.16 113.978 97.0688L111.2 94.7283L101.884 100.107L103.272 102.511L101.805 106.069C101.781 106.126 101.77 106.188 101.774 106.25C101.777 106.312 101.795 106.373 101.826 106.426L102.653 107.859L101.815 108.343C101.77 108.368 101.731 108.401 101.7 108.441C101.668 108.48 101.645 108.526 101.631 108.575C101.618 108.624 101.614 108.675 101.621 108.725C101.627 108.775 101.643 108.824 101.669 108.868L103.453 111.958C103.522 112.079 103.637 112.167 103.772 112.203C103.907 112.239 104.05 112.22 104.171 112.151L104.785 111.796L105.309 112.718Z" fill="white"/>
<path d="M51.1797 162.465C50.6995 162.455 50.2307 162.318 49.8213 162.067C49.4118 161.816 49.0765 161.461 48.8498 161.037L48.7583 160.879L43.3108 151.443C43.254 151.343 43.1777 151.255 43.0865 151.184C42.9952 151.113 42.8908 151.062 42.7793 151.032C42.6678 151.002 42.5515 150.995 42.4371 151.01C42.3227 151.026 42.2126 151.064 42.1131 151.123L34.5728 155.476C34.3312 155.615 34.1548 155.845 34.0826 156.115C34.0104 156.384 34.0482 156.672 34.1877 156.913L51.9863 187.741C52.1269 187.981 52.3565 188.155 52.6251 188.226C52.8936 188.297 53.1793 188.259 53.4198 188.12L58.8274 184.998C58.8274 184.998 55.4511 174.956 54.442 171.974C53.4329 168.991 53.0795 168.623 53.7016 166.239C53.8853 165.756 53.9527 165.238 53.8981 164.725C53.8436 164.211 53.6687 163.718 53.3877 163.286C53.0982 163.001 52.7518 162.781 52.3713 162.64C51.9908 162.498 51.5847 162.439 51.1797 162.465ZM51.8576 166.476C51.6047 166.623 51.3137 166.693 51.0214 166.675C50.7291 166.657 50.4486 166.553 50.2156 166.375C49.9826 166.198 49.8074 165.955 49.7124 165.678C49.6174 165.401 49.6067 165.102 49.6818 164.819C49.7569 164.536 49.9143 164.282 50.1341 164.088C50.3539 163.895 50.6262 163.771 50.9165 163.732C51.2068 163.694 51.502 163.742 51.7648 163.872C52.0275 164.001 52.2459 164.205 52.3924 164.459C52.4916 164.627 52.5566 164.812 52.5838 165.005C52.611 165.198 52.5997 165.395 52.5508 165.583C52.5018 165.772 52.416 165.949 52.2983 166.105C52.1807 166.26 52.0335 166.391 51.8652 166.489L51.8576 166.476Z" fill="white"/>
<path d="M50.7672 164.587C50.6434 164.657 50.5431 164.762 50.4791 164.889C50.4151 165.015 50.3902 165.158 50.4076 165.299C50.425 165.44 50.484 165.573 50.5769 165.68C50.6699 165.788 50.7927 165.865 50.9297 165.903C51.0667 165.94 51.2118 165.936 51.3465 165.891C51.4812 165.846 51.5995 165.762 51.6863 165.649C51.7731 165.537 51.8245 165.401 51.834 165.259C51.8434 165.118 51.8106 164.976 51.7396 164.853C51.6452 164.69 51.4901 164.57 51.3081 164.52C51.126 164.47 50.9316 164.494 50.7672 164.587Z" fill="white"/>
<path d="M128.624 119.601L139.077 113.566C139.081 113.559 139.086 113.553 139.093 113.549C139.1 113.545 139.108 113.543 139.116 113.543L141.107 114.841C141.123 114.839 141.137 114.831 141.147 114.818L145.94 112.051C145.952 112.044 145.961 112.032 145.965 112.019C145.969 112.005 145.967 111.99 145.96 111.978L144.248 109.013C144.248 109.013 144.225 108.974 144.179 109L75.5106 148.646C75.4983 148.653 75.4894 148.665 75.4857 148.679C75.482 148.692 75.484 148.707 75.491 148.719L76.2535 150.04C76.2535 150.04 79.101 152.41 79.1274 152.395L95.106 143.17C95.6087 142.867 96.0399 142.459 96.3698 141.973C100.136 136.542 103.521 141.612 104.582 143.526C104.694 143.726 104.763 143.947 104.784 144.174C104.804 144.402 104.777 144.632 104.703 144.848L100.703 156.982C100.651 157.149 100.664 157.33 100.741 157.488L101.573 159.112C101.575 159.128 101.584 159.142 101.595 159.152L114.597 160.079C114.604 160.081 114.611 160.082 114.618 160.081C114.625 160.08 114.632 160.078 114.638 160.074C114.644 160.071 114.649 160.066 114.654 160.06C114.658 160.055 114.661 160.048 114.663 160.041C113.596 147.901 114.58 143.124 117.004 141.223L114.712 140.196C114.303 140.015 113.961 139.71 113.734 139.326L110.547 133.806L128.09 123.677L128.568 119.625L128.624 119.601Z" fill="white"/>
<path d="M123.393 127.314L111.601 134.122L114.407 138.982C114.55 139.217 114.764 139.402 115.019 139.509L117.739 140.729C118.94 139.956 120.027 139.232 121.727 138.242C127.96 134.599 123.3 129.622 122.977 129.262C122.971 129.257 122.965 129.251 122.961 129.244C122.958 129.238 122.955 129.23 122.954 129.222L123.393 127.314ZM120.723 138.029C117.68 139.848 118.254 139.851 115.43 138.558C115.313 138.5 115.215 138.41 115.148 138.298C114.866 137.81 114.073 136.436 113.981 136.278L114.826 135.79C116.683 138.609 118.178 138.072 120.042 137.031C120.054 137.024 120.065 137.014 120.071 137.001C120.078 136.988 120.08 136.973 120.077 136.959C120.075 136.945 120.068 136.932 120.058 136.922C120.048 136.912 120.034 136.905 120.02 136.903C119.16 136.801 116.022 136.183 117.038 132.85C117.204 132.391 117.466 131.974 117.807 131.626C118.148 131.277 118.559 131.005 119.013 130.828C120.261 130.275 122.201 129.869 123.328 131.806C124.786 134.301 124.36 135.85 120.723 138.029Z" fill="white"/>
<path d="M174.907 76.039L147.175 92.0498L151.693 99.874L179.424 83.8633L174.907 76.039ZM162.726 89.3573L162.488 91.9949C162.488 92.0254 162.479 92.0552 162.463 92.0813C162.447 92.1074 162.425 92.1289 162.398 92.1437C162.373 92.1703 162.341 92.1889 162.306 92.1971C162.281 92.1949 162.256 92.1878 162.234 92.1761C162.212 92.1644 162.192 92.1484 162.176 92.1291C162.16 92.1097 162.148 92.0873 162.14 92.0633C162.133 92.0392 162.13 92.0139 162.133 91.9889L162.371 89.3513C162.375 89.3007 162.4 89.2541 162.439 89.2216C162.478 89.1892 162.528 89.1736 162.579 89.1782C162.629 89.1829 162.676 89.2075 162.708 89.2465C162.741 89.2856 162.757 89.3359 162.752 89.3865L162.726 89.3573ZM161.886 87.9936C161.861 88.0202 161.829 88.0387 161.794 88.0469C161.766 88.0624 161.736 88.0711 161.704 88.0724C161.673 88.0737 161.642 88.0675 161.613 88.0544L159.21 86.9416C159.187 86.9312 159.166 86.9163 159.149 86.8979C159.132 86.8794 159.119 86.8578 159.11 86.8342C159.101 86.8106 159.097 86.7854 159.098 86.7603C159.099 86.7351 159.105 86.7105 159.116 86.6876C159.126 86.6652 159.14 86.645 159.158 86.6283C159.176 86.6115 159.198 86.5985 159.221 86.5901C159.244 86.5817 159.268 86.5781 159.293 86.5794C159.317 86.5807 159.341 86.5869 159.363 86.5976L161.767 87.7104C161.796 87.7173 161.823 87.731 161.846 87.7504C161.868 87.7697 161.886 87.7942 161.898 87.8217C161.91 87.8493 161.915 87.8792 161.913 87.9091C161.91 87.9389 161.901 87.9679 161.886 87.9936ZM170.395 87.4828C170.37 87.5094 170.338 87.528 170.302 87.5362C170.275 87.5517 170.244 87.5604 170.213 87.5617C170.182 87.563 170.15 87.5568 170.122 87.5436L167.719 86.4309C167.696 86.4204 167.675 86.4056 167.658 86.3871C167.641 86.3687 167.628 86.3471 167.619 86.3234C167.61 86.2998 167.606 86.2747 167.607 86.2496C167.608 86.2244 167.614 86.1997 167.625 86.1769C167.635 86.1545 167.649 86.1343 167.667 86.1175C167.685 86.1008 167.706 86.0878 167.729 86.0794C167.752 86.071 167.777 86.0674 167.802 86.0686C167.826 86.0699 167.85 86.0762 167.872 86.0869L170.275 87.1997C170.304 87.2066 170.332 87.2203 170.354 87.2396C170.377 87.259 170.395 87.2834 170.407 87.311C170.418 87.3386 170.423 87.3685 170.421 87.3984C170.419 87.4282 170.41 87.4572 170.395 87.4828ZM167.423 82.2438L167.185 84.8814C167.184 84.9119 167.176 84.9417 167.16 84.9678C167.144 84.9939 167.122 85.0155 167.095 85.0303C167.07 85.0569 167.038 85.0754 167.002 85.0837C166.977 85.0814 166.953 85.0743 166.931 85.0626C166.908 85.0509 166.889 85.035 166.873 85.0156C166.856 84.9962 166.844 84.9739 166.837 84.9498C166.83 84.9258 166.827 84.9005 166.829 84.8754L167.067 82.2378C167.072 82.1873 167.097 82.1406 167.136 82.1082C167.175 82.0757 167.225 82.0601 167.276 82.0648C167.326 82.0695 167.373 82.094 167.405 82.1331C167.438 82.1721 167.453 82.2225 167.449 82.273L167.423 82.2438Z" fill="white"/>
<path d="M142.163 94.8813L141.069 92.9863L105.705 113.404L106.525 114.823L105.072 115.662L104.245 114.229L102.264 115.373L103.076 116.779L101.756 117.542L100.944 116.135L98.9628 117.279L99.7747 118.685L98.4542 119.448L97.6422 118.041L95.6614 119.185L96.4734 120.591L95.3443 121.243L94.2282 120.347C94.1599 120.293 94.077 120.261 93.9901 120.254C93.9032 120.248 93.8165 120.268 93.741 120.311L88.8748 123.121C88.8345 123.144 88.8051 123.182 88.7931 123.227C88.7811 123.272 88.7874 123.32 88.8106 123.36L89.817 125.103L142.163 94.8813Z" fill="white"/>
<path d="M174.949 93.3582L175.633 90.7006L166.501 95.9727C166.501 95.9727 167.37 97.4781 167.645 97.9535C167.8 98.2226 167.88 98.5278 167.879 98.8382C167.877 99.1486 167.793 99.4529 167.635 99.7201L165.017 102.323C164.92 102.426 164.858 102.559 164.841 102.7C164.825 102.841 164.854 102.984 164.924 103.107C165.611 104.296 166.156 105.24 166.51 105.854C166.571 105.972 166.669 106.066 166.788 106.124C166.907 106.183 167.042 106.201 167.172 106.176C167.699 105.93 168.282 105.826 168.863 105.873C169.443 105.921 170.001 106.12 170.481 106.449C172.639 107.686 171.248 109.959 171.315 110.73C171.47 112.402 179.786 115.612 179.786 115.612L186.052 111.994C186.196 111.911 186.32 111.795 186.414 111.657C186.508 111.518 186.569 111.36 186.593 111.195C186.617 111.029 186.603 110.861 186.552 110.701C186.502 110.542 186.415 110.396 186.3 110.275C183.86 107.696 177.507 100.702 175.064 95.1582C174.822 94.5887 174.781 93.9538 174.949 93.3582Z" fill="white"/>
<path d="M183.562 82.3546L152.054 100.546L155.174 103.754L160.502 100.678L160.44 99.5336C160.424 99.2524 160.486 98.9724 160.62 98.7244C160.753 98.4764 160.953 98.2703 161.196 98.1287L176.125 89.5096C176.27 89.3998 176.441 89.3284 176.621 89.3022L179.282 88.8931C179.486 88.8573 179.697 88.8758 179.893 88.9468C180.088 89.0178 180.261 89.1387 180.396 89.2977L182.444 91.7775C182.514 91.8628 182.613 91.9196 182.722 91.9376C182.831 91.9555 182.943 91.9333 183.037 91.8751L187.09 89.4116C187.19 89.3473 187.263 89.2476 187.292 89.1325C187.322 89.0174 187.307 88.8953 187.251 88.7905L185.473 85.6181L185.408 85.5059L184.767 84.3966L183.562 82.3546Z" fill="white"/>
<path d="M200.545 63.5085L199.052 64.37L199.168 65.439C199.176 65.5117 199.163 65.5851 199.131 65.6507C199.098 65.7162 199.048 65.7711 198.985 65.8087C198.947 65.8434 198.902 65.8695 198.853 65.8849C198.804 65.8913 198.754 65.8878 198.706 65.8746C198.658 65.8614 198.613 65.8387 198.574 65.808C198.535 65.7773 198.502 65.739 198.478 65.6956C198.454 65.6521 198.439 65.6042 198.434 65.5548L198.345 64.8223L197.084 65.5504L197.202 66.6091C197.211 66.6817 197.198 66.7552 197.165 66.8207C197.133 66.8863 197.082 66.9411 197.02 66.9787C196.982 67.0135 196.937 67.0395 196.888 67.0549C196.838 67.0613 196.788 67.0578 196.74 67.0446C196.692 67.0314 196.647 67.0088 196.608 66.978C196.569 66.9473 196.537 66.9091 196.513 66.8656C196.489 66.8221 196.473 66.7743 196.468 66.7249L196.387 66.0056L195.12 66.7375L195.237 67.7791C195.245 67.8517 195.232 67.9252 195.2 67.9908C195.167 68.0563 195.117 68.1111 195.054 68.1487C195.016 68.1835 194.971 68.2095 194.922 68.225C194.873 68.2314 194.823 68.2279 194.775 68.2146C194.727 68.2014 194.682 68.1788 194.643 68.1481C194.604 68.1173 194.571 68.0791 194.547 68.0356C194.523 67.9922 194.508 67.9443 194.502 67.8949L194.423 67.1926L184.846 72.792L187.309 76.9515L196.817 71.4621L196.37 71.1302C196.324 71.1034 196.284 71.0672 196.252 71.0238C196.221 70.9804 196.199 70.9309 196.188 70.8785C196.177 70.826 196.177 70.7719 196.188 70.7195C196.2 70.6672 196.222 70.6178 196.254 70.5746C196.285 70.5314 196.326 70.4954 196.372 70.4689C196.419 70.4424 196.471 70.426 196.524 70.4207C196.577 70.4155 196.631 70.4216 196.682 70.4386C196.733 70.4555 196.779 70.483 196.819 70.5192L197.537 71.0466L198.798 70.3184L198.351 69.9866C198.305 69.9598 198.265 69.9236 198.233 69.8802C198.202 69.8368 198.18 69.7873 198.169 69.7348C198.158 69.6824 198.158 69.6283 198.169 69.5759C198.181 69.5236 198.203 69.4742 198.235 69.431C198.266 69.3878 198.307 69.3518 198.353 69.3253C198.4 69.2987 198.451 69.2823 198.505 69.2771C198.558 69.2719 198.612 69.278 198.663 69.2949C198.713 69.3119 198.76 69.3394 198.8 69.3756L199.518 69.9029L200.779 69.1748L200.332 68.843C200.286 68.8162 200.245 68.7799 200.214 68.7365C200.183 68.6932 200.161 68.6436 200.15 68.5912C200.139 68.5388 200.139 68.4846 200.15 68.4323C200.161 68.3799 200.184 68.3305 200.215 68.2874C200.247 68.2442 200.287 68.2081 200.334 68.1816C200.381 68.1551 200.432 68.1387 200.486 68.1335C200.539 68.1283 200.593 68.1343 200.643 68.1513C200.694 68.1683 200.741 68.1958 200.78 68.232L201.499 68.7593L203.057 67.8597C203.221 67.7646 203.342 67.6081 203.391 67.4245C203.44 67.2409 203.414 67.0453 203.319 66.8807L201.566 63.8434C201.525 63.7501 201.466 63.6663 201.391 63.5978C201.316 63.5292 201.227 63.4774 201.131 63.4457C201.034 63.414 200.932 63.4032 200.831 63.414C200.73 63.4249 200.632 63.457 200.545 63.5085Z" fill="white"/>
<path d="M145.424 113.292L141.132 115.769L139.088 114.44L129.316 120.082L128.86 123.867C137.329 141.585 151.426 155.191 154.414 157.956C154.57 158.099 154.772 158.181 154.984 158.185C155.195 158.189 155.401 158.116 155.563 157.98L169.875 145.869C169.968 145.79 170.043 145.693 170.096 145.583C170.149 145.474 170.178 145.354 170.182 145.232C170.185 145.111 170.163 144.99 170.117 144.877C170.071 144.765 170.002 144.663 169.914 144.579C153.309 128.626 145.424 113.292 145.424 113.292ZM155.272 151.087C155.238 151.115 155.201 151.137 155.16 151.152C155.092 151.192 155.014 151.21 154.935 151.203C154.857 151.196 154.783 151.164 154.724 151.113C145.012 142.969 138.676 132.893 135.766 127.61C135.716 127.522 135.702 127.418 135.728 127.32C135.754 127.223 135.818 127.139 135.906 127.089C135.993 127.038 136.097 127.025 136.195 127.051C136.293 127.077 136.376 127.141 136.426 127.228C139.309 132.466 145.586 142.453 155.207 150.517C155.252 150.548 155.289 150.588 155.317 150.635C155.345 150.681 155.363 150.733 155.369 150.787C155.375 150.841 155.37 150.896 155.353 150.947C155.336 150.999 155.309 151.047 155.272 151.087ZM159.109 142.163L159.01 142.221C158.94 142.262 158.859 142.28 158.779 142.27C158.699 142.261 158.624 142.225 158.566 142.169C153.034 137.145 148.299 131.309 144.523 124.86C144.483 124.77 144.476 124.669 144.504 124.574C144.531 124.479 144.591 124.397 144.673 124.342C144.717 124.318 144.765 124.303 144.815 124.297C144.865 124.292 144.915 124.296 144.963 124.31C145.011 124.324 145.056 124.347 145.095 124.378C145.134 124.41 145.167 124.448 145.191 124.492C148.926 130.869 153.608 136.64 159.079 141.608C159.118 141.643 159.149 141.684 159.172 141.731C159.194 141.777 159.208 141.828 159.21 141.88C159.213 141.931 159.206 141.983 159.188 142.032C159.171 142.081 159.144 142.125 159.109 142.163Z" fill="white"/>
</svg>
