<svg width="256" height="256" viewBox="0 0 256 256" fill="none" xmlns="http://www.w3.org/2000/svg">
  <path
    d="M42.8917 165.44C42.08 165.908 41.1175 165.775 40.3536 165.134L54.9284 181.516C54.971 181.589 55.0874 181.621 55.235 181.535L58.7773 179.49C58.9249 179.405 58.9561 179.288 58.8709 179.141L47.6887 162.67L42.8917 165.44Z"
    fill="white" />
  <path
    d="M163.913 76.9716L160.74 78.8037L168.537 92.3089C168.537 92.3089 168.537 92.3089 168.611 92.2663L171.711 90.4768L163.913 76.9716Z"
    fill="white" />
  <path
    d="M111.867 105.445L110.547 103.158C110.504 103.084 110.43 103.126 110.399 103.243C108.941 108.217 103.158 107.915 102.65 107.717L102.576 107.759L97.7056 110.571C97.6318 110.614 97.5891 110.54 97.6318 110.614L98.9526 112.902L111.867 105.445Z"
    fill="white" />
  <path
    d="M112.41 106.215C112.368 106.141 112.336 106.257 112.336 106.257L98.4621 114.268L87.7613 120.446C87.0233 120.872 86.8475 121.761 87.1572 122.467L90.5346 128.488L93.1914 126.954C92.8505 126.363 92.7737 125.719 92.887 125.063L91.5662 122.775C91.3105 122.333 91.5091 121.824 91.9519 121.569L161.323 81.5174L160.002 79.2296L112.41 106.215Z"
    fill="white" />
  <path
    d="M95.2485 123.699C95.0583 123.711 94.8369 123.838 94.6893 123.924C93.8037 124.435 93.523 125.483 94.0343 126.368C94.3325 126.885 94.926 127.231 95.4654 127.313L95.2485 123.699Z"
    fill="white" />
  <path
    d="M95.7454 123.708L95.9197 127.248C96.1099 127.237 96.3313 127.109 96.4789 127.024C97.3645 126.512 97.6452 125.465 97.1339 124.579C96.8357 124.063 96.2422 123.716 95.7454 123.708Z"
    fill="white" />
  <path
    d="M92.8945 122.008C92.6731 122.136 92.5795 122.485 92.7073 122.706L93.4317 123.961C93.5678 123.686 93.8942 123.399 94.1156 123.271C94.4846 123.058 95.1176 122.791 95.498 122.768C96.7557 122.731 97.6048 123.52 97.8718 124.153L99.8644 123.002C100.086 122.874 100.435 122.968 100.563 123.189L103.642 128.693C103.77 128.915 104.003 128.977 104.224 128.849L111.351 124.833C111.573 124.705 111.806 124.767 111.933 124.988L112.359 125.726C112.487 125.948 112.72 126.01 112.942 125.882L161.427 97.8891C161.649 97.7612 161.882 97.8236 162.009 98.045L163.458 100.554C166.084 99.1367 169.504 95.6863 168.225 93.4723L161.749 82.2549L92.8945 122.008ZM164.848 96.9965C164.11 97.4226 163.105 97.2157 162.636 96.4039C162.21 95.6659 162.417 94.6609 163.229 94.1922C163.967 93.7661 164.972 93.973 165.441 94.7848C165.909 95.5966 165.66 96.5279 164.848 96.9965Z"
    fill="white" />
  <path
    d="M164.129 94.5581C163.939 94.5696 163.749 94.581 163.527 94.7088C163.011 95.007 162.823 95.7055 163.122 96.2221C163.25 96.4435 163.451 96.6223 163.684 96.6846L164.129 94.5581Z"
    fill="white" />
  <path
    d="M164.552 94.6096L164.107 96.7362C164.297 96.7247 164.487 96.7133 164.635 96.6281C165.152 96.3299 165.339 95.6314 165.04 95.1148C164.986 94.8508 164.785 94.672 164.552 94.6096Z"
    fill="white" />
  <path
    d="M124.919 126.347L121.746 128.179C122.78 130.141 125.163 133.586 129.276 131.507C129.423 131.422 129.412 131.232 129.222 131.243C128.407 131.025 126.443 131.372 125.627 128.595L124.919 126.347Z"
    fill="white" />
  <path
    d="M138.333 117.029L151.1 109.657C151.302 109.836 169.117 129.956 181.331 133.728C182.072 133.989 182.498 134.727 182.238 135.468L177.773 148.869C170.243 145.541 148.768 131.864 138.095 118.15C137.882 117.781 137.964 117.242 138.333 117.029Z"
    fill="white" />
  <path
    d="M208.345 66.6683L203.999 59.1408L200.43 57.5607C200.24 57.5721 200.135 57.7311 200.22 57.8787L206.654 69.0223C206.739 69.1699 206.929 69.1585 207.034 68.9995L208.345 66.6683Z"
    fill="white" />
  <path
    d="M216.974 53.3224L215.461 52.9169C215.228 52.8545 214.964 52.9086 214.817 52.9938L204.706 58.8311L209.009 66.2848L219.046 60.4901C219.268 60.3623 219.373 60.2032 219.435 59.9704L219.872 58.3407C219.934 58.1079 219.88 57.8439 219.795 57.6963L217.536 53.785C217.409 53.5636 217.207 53.3848 216.974 53.3224Z"
    fill="white" />
  <path
    d="M218.402 53.5807L220.447 57.1231L223.993 55.7649C224.331 55.6683 224.498 55.2764 224.328 54.9812L222.197 51.2913C222.027 50.9961 221.604 50.9451 221.351 51.1894L218.402 53.5807Z"
    fill="white" />
  <path
    d="M192.208 55.4198L191.398 54.0177L189.184 55.2959L192.252 60.6094L193.359 59.9703L192.763 58.9371L196.01 57.0624L196.606 58.0956L197.713 57.4564L195.455 53.5451L192.208 55.4198Z"
    fill="white" />
  <path
    d="M198.318 57.9936L164.725 76.5029L173.63 91.9269C173.758 92.1483 173.991 92.2107 174.138 92.1255C175.373 91.7078 179.234 89.8726 182.008 83.9411L184.148 82.7055L182.103 79.1631L182.841 78.7371L184.886 82.2794L187.691 80.6603L185.646 77.118L186.384 76.6919L188.429 80.2342L191.233 78.6151L189.188 75.0728L189.926 74.6467L191.971 78.189L194.775 76.57L192.73 73.0276L193.468 72.6015L195.513 76.1439L198.318 74.5248L196.273 70.9824L197.011 70.5563L199.056 74.0987L201.86 72.4796L199.815 68.9372L200.553 68.5112L202.598 72.0535L205.181 70.5622C205.624 70.3066 205.78 69.7246 205.524 69.2818L199.335 58.3907C199.227 57.8627 198.761 57.7379 198.318 57.9936Z"
    fill="white" />
  <path
    d="M156.857 106.334L151.912 109.188C151.997 109.336 152.932 110.273 154.238 111.683L155.027 110.834L155.674 111.444L154.812 112.336C155.385 112.989 156.075 113.673 156.808 114.43L157.671 113.539L158.318 114.149L157.456 115.041C158.103 115.651 158.793 116.335 159.526 117.093L160.357 116.317L161.005 116.927L160.173 117.703C160.863 118.387 161.627 119.028 162.36 119.786L163.106 118.863L163.828 119.43L163.081 120.353C163.845 120.995 164.535 121.679 165.342 122.394L166.162 121.428L166.883 121.996L166.106 123.035C166.869 123.677 167.633 124.318 168.471 124.917L169.217 123.994L169.939 124.561L169.192 125.484C170.03 126.083 170.836 126.798 171.748 127.354L172.42 126.474L173.142 127.041L172.469 127.922C173.264 128.447 173.943 128.94 174.738 129.465L175.399 128.395L176.152 128.846L175.49 129.917C175.49 129.917 178.182 131.511 182.671 133.151C183.296 133.38 183.722 134.118 183.535 134.817L178.949 149.371C178.949 149.371 180.803 150.367 181.703 150.733C183.08 151.414 184.715 150.666 185.237 149.184L190.722 132.438C190.952 131.814 190.642 131.107 189.975 130.803C167.675 121.834 158.964 109.643 156.857 106.334Z"
    fill="white" />
  <path
    d="M94.1874 134.644L103.043 129.531L100.177 124.396C100.049 124.175 99.8165 124.113 99.5951 124.24L98.2667 125.007C98.4402 125.99 98.0774 127.577 96.5047 128.091C95.6077 128.412 94.6027 128.205 93.8388 127.564L40.0393 158.625C38.5634 159.477 38.0955 161.223 38.905 162.625L39.1181 162.994C39.9276 164.397 41.6737 164.864 43.0759 164.055L94.1874 134.644ZM43.0272 162.607C42.1416 163.118 41.0939 162.838 40.5826 161.952C40.0714 161.066 40.4259 159.976 41.2377 159.507C42.0494 159.039 43.2135 159.351 43.6822 160.162C44.1935 161.048 43.9128 162.096 43.0272 162.607Z"
    fill="white" />
  <path
    d="M118.163 128.28L121.423 138.698C121.601 138.496 121.706 138.337 121.928 138.209L133.957 131.264C135.212 130.54 135.617 129.026 134.967 127.729L130.856 120.951L118.163 128.28ZM133.286 127.716C134.053 129.044 133.613 129.987 132.359 130.711L124.093 135.483C122.691 136.293 122.214 135.978 121.089 132.495C120.165 129.19 119.781 128.526 122.217 127.12L129.301 123.03C129.892 122.689 130.644 123.14 130.943 123.657L133.286 127.716Z"
    fill="white" />
  <path
    d="M124.306 152.383L117.425 128.705L105.396 135.651C107.037 136.277 108.27 137.731 108.458 139.59L111.056 160.623C111.241 161.795 112.354 162.53 113.442 162.198L125.583 159.026C126.375 158.864 127.059 158.173 127.203 157.401C127.379 156.513 126.984 155.658 126.348 155.238C126.348 155.238 125.246 154.694 124.306 152.383ZM111.363 144.112C111.701 144.015 112.039 143.918 112.345 143.938C114.605 143.421 116.981 142.934 119.241 142.417C119.959 142.298 120.249 143.311 119.573 143.504C119.236 143.601 118.898 143.697 118.591 143.678C116.331 144.195 113.955 144.681 111.696 145.199C110.904 145.361 110.645 144.231 111.363 144.112ZM121.467 153.431C121.129 153.528 120.823 153.508 120.485 153.605C118.183 154.048 115.881 154.492 113.578 154.936C112.86 155.055 112.57 154.042 113.32 153.806C113.657 153.709 113.964 153.729 114.302 153.632C116.604 153.189 118.906 152.745 121.209 152.302C121.853 152.225 122.185 153.312 121.467 153.431ZM120.85 150.147C120.512 150.244 120.206 150.224 119.868 150.32C117.566 150.764 115.263 151.208 112.961 151.651C112.212 151.887 111.953 150.757 112.671 150.638C113.009 150.541 113.316 150.561 113.654 150.464C115.956 150.021 118.258 149.577 120.56 149.134C121.236 148.94 121.568 150.027 120.85 150.147ZM120.159 146.905C119.821 147.002 119.515 146.982 119.177 147.079C116.875 147.522 114.573 147.966 112.27 148.409C111.552 148.529 111.22 147.442 111.938 147.322C112.276 147.226 112.582 147.245 112.92 147.149C115.222 146.705 117.524 146.261 119.827 145.818C120.576 145.582 120.835 146.712 120.159 146.905Z"
    fill="white" />
  <path
    d="M161.011 99.2117L112.672 127.12C112.451 127.248 112.218 127.185 112.09 126.964L111.664 126.226C111.536 126.004 111.303 125.942 111.082 126.07L104.429 129.714L95.1301 135.083C95.5531 135.134 96.002 136.252 96.371 136.039L98.3636 134.889C99.5444 134.207 100.95 134.085 102.273 134.502L104.337 135.179L156.462 105.479L162.72 100.98L161.74 99.2824C161.655 99.1348 161.306 99.0412 161.011 99.2117Z"
    fill="white" />
</svg>