<svg width="256" height="256" viewBox="0 0 256 256" fill="none" xmlns="http://www.w3.org/2000/svg">
<path d="M68.5974 165.723C69.4079 165.255 69.6783 164.246 69.2104 163.436C68.7425 162.625 67.7333 162.355 66.9229 162.823C66.1125 163.291 65.842 164.3 66.3099 165.11C66.7778 165.921 67.787 166.191 68.5974 165.723Z" fill="white"/>
<path d="M69.5956 163.214C69.8419 163.641 69.9355 164.098 69.852 164.545L75.4013 159.578C75.6933 159.296 75.5816 158.905 75.3912 158.674C75.2008 158.443 74.925 158.26 74.5592 158.415L68.0332 162.183C68.6994 162.253 69.2755 162.66 69.5956 163.214Z" fill="white"/>
<path d="M163.486 104.4L162.377 105.04L163.879 107.642L164.988 107.002L163.486 104.4Z" fill="white"/>
<path d="M96.7065 145.456C96.3028 145.348 95.9106 145.063 95.689 144.679C95.3934 144.167 95.2505 143.624 95.2175 143.074L90.8669 145.586L89.1677 142.643C88.9707 142.302 88.4997 142.176 88.1585 142.373C87.8173 142.57 87.6911 143.041 87.8881 143.382L89.5873 146.325L83.6584 149.748L81.9592 146.805C81.7622 146.464 81.2913 146.337 80.95 146.534C80.6088 146.731 80.4826 147.202 80.6796 147.544L82.3788 150.487L74.6585 154.944L72.9594 152.001C72.7623 151.66 72.2914 151.533 71.9502 151.73C71.6089 151.927 71.4827 152.398 71.6797 152.74L73.3789 155.683L65.9146 159.992L66.1116 160.334C66.3578 160.76 66.2383 161.341 65.7691 161.612L65.6411 161.686C65.2146 161.932 64.6337 161.812 64.3628 161.343L64.1904 161.045L60.3516 163.261C60.429 164.183 60.7984 164.823 61.13 165.2L61.2465 165.304C61.2958 165.389 61.3877 165.449 61.4123 165.492L66.6587 162.463L74.3789 158.006L96.7065 145.456Z" fill="white"/>
<path d="M96.4725 151.848C96.1739 152.02 96.0657 152.424 96.2381 152.722C96.4105 153.021 96.8142 153.129 97.1127 152.957C97.4113 152.784 97.5195 152.381 97.3471 152.082C97.1747 151.784 96.771 151.675 96.4725 151.848Z" fill="white"/>
<path d="M173.839 97.1147L174.564 96.6961L175.401 98.1463L174.932 98.4171L176.163 100.55L180.13 98.2596L178.825 95.999L178.143 96.393L174.212 94.5106L172.805 95.3232L173.839 97.1147Z" fill="white"/>
<path d="M100.907 132.341L95.7891 135.296L97.1927 137.727L102.311 134.772L100.907 132.341Z" fill="white"/>
<path d="M105.715 118.702L96.1602 124.218L99.9033 130.701L109.458 125.185L105.715 118.702Z" fill="white"/>
<path d="M234.264 64.559L233.752 64.8545L234.983 66.9872L235.495 66.6917L234.264 64.559Z" fill="white"/>
<path d="M116.515 133.963C116.491 133.92 116.491 133.92 116.424 133.902L108.61 133.864C108.213 133.866 107.755 133.959 107.371 134.181L97.2197 140.042C95.6842 140.928 95.1614 142.88 96.048 144.415C96.3681 144.97 97.1082 145.168 97.6627 144.848L116.43 134.012C116.473 133.988 116.515 133.963 116.515 133.963Z" fill="white"/>
<path d="M99.6807 131.399L95.5859 133.763L96.0538 134.573L100.149 132.209L99.6807 131.399Z" fill="white"/>
<path d="M89.7168 142.61L91.0712 144.956L95.2513 142.543C95.3805 141.388 95.9988 140.291 97.0651 139.676L107.217 133.815C107.643 133.569 108.186 133.426 108.693 133.417L116.776 133.528L113.944 128.623L89.7168 142.61Z" fill="white"/>
<path d="M94.204 137.575L90.3652 139.791L91.1533 141.156L94.9921 138.94L94.204 137.575Z" fill="white"/>
<path d="M87.5426 143.866L82.4668 146.797L83.8212 149.143L88.897 146.212L87.5426 143.866Z" fill="white"/>
<path d="M92.4111 135.652L89.6387 137.253L90.673 139.044L93.4454 137.444L92.4111 135.652Z" fill="white"/>
<path d="M178.755 99.6226L177.092 100.583L178.175 102.46L179.839 101.499L178.755 99.6226Z" fill="white"/>
<path d="M179.336 95.7031L180.641 97.9638L215.574 77.7951L214.269 75.5344L213.885 75.7561L179.336 95.7031Z" fill="white"/>
<path d="M220.113 72.1608L214.738 75.2637L216.043 77.5243L221.93 74.1259L220.624 71.8653L220.113 72.1608Z" fill="white"/>
<path d="M176.622 100.853L165.447 107.305L165.234 107.428L164.125 108.068L164.987 109.561L177.484 102.346L176.622 100.853Z" fill="white"/>
<path d="M172.053 95.3024L164.119 99.8828L165.572 102.399L173.506 97.8189L172.053 95.3024Z" fill="white"/>
<path d="M163.81 100.63L160.824 102.354L161.859 104.145L164.844 102.421L163.81 100.63Z" fill="white"/>
<path d="M215.821 78.2225L179.225 99.3516L180.136 100.93L216.732 79.8006L215.821 78.2225Z" fill="white"/>
<path d="M216.675 77.7293L216.248 77.9756L217.332 79.8523L217.758 79.6061L216.675 77.7293Z" fill="white"/>
<path d="M174.463 98.6882L164.184 104.623L165.415 106.756L175.694 100.821L174.463 98.6882Z" fill="white"/>
<path d="M231.735 64.7109L230.541 65.4004L232.88 69.4525L234.075 68.7629L231.735 64.7109Z" fill="white"/>
<path d="M233.154 64.8027L232.557 65.1475L234.133 67.8773L234.73 67.5325L233.154 64.8027Z" fill="white"/>
<path d="M222.175 74.5529L217.1 77.4834L218.011 79.0616L223.087 76.1311L222.175 74.5529Z" fill="white"/>
<path d="M222.351 70.1287L220.73 71.0645L223.513 75.8843L225.134 74.9485L222.351 70.1287Z" fill="white"/>
<path d="M230.491 66.3964L223.197 70.6074L224.699 73.2093L231.993 68.9982L230.491 66.3964Z" fill="white"/>
<path d="M160.147 102.46L158.953 103.149L163.435 110.912L164.629 110.223L160.147 102.46Z" fill="white"/>
<path d="M53.7001 156.467L53.8232 156.681C53.9464 156.894 54.2401 157.009 54.496 156.861C54.7519 156.713 54.7994 156.401 54.6763 156.188L54.5532 155.975L51.204 150.174L51.1794 150.131C51.0563 149.918 50.7199 149.828 50.5066 149.951C50.2933 150.074 50.1786 150.368 50.3263 150.624L50.4987 150.922L53.7001 156.467Z" fill="white"/>
<path d="M52.5439 157.419C52.6671 157.632 53.0035 157.722 53.2167 157.599C53.4726 157.451 53.5201 157.14 53.397 156.926L53.2739 156.713L49.9247 150.912L49.9001 150.87C49.777 150.656 49.4406 150.566 49.2273 150.689C49.014 150.812 48.8993 151.106 49.047 151.362L49.2194 151.661L52.5439 157.419Z" fill="white"/>
<path d="M52.5302 160.156C53.006 159.995 53.2175 159.475 52.9712 159.048L52.2325 157.769L48.8341 151.883L47.8244 150.134C47.5781 149.707 46.9546 149.612 46.6266 150.029C46.1099 150.612 45.6064 151.414 45.8281 151.798C46.1482 152.353 50.1442 159.372 50.6301 160.116C50.901 160.585 51.8165 160.397 52.5302 160.156Z" fill="white"/>
<path d="M97.9778 145.292L94.5655 147.262L75.327 157.972C75.5535 158.068 75.6947 158.214 75.7932 158.385C76.0821 158.787 76.1643 159.422 75.7083 159.913L69.4044 165.543C69.2224 165.818 68.9911 166.009 68.7352 166.156C67.7115 166.747 66.3659 166.387 65.7749 165.363C65.4301 164.766 65.3905 164.106 65.6201 163.519L61.8239 165.711L61.7812 165.735C62.4985 166.288 64.0543 167.21 66.5599 167.412C68.2893 167.551 70.9488 166.641 73.8853 164.832C74.4825 164.488 75.1847 164.423 75.8148 164.628C76.4696 164.876 76.9423 165.399 77.1345 166.027C77.5189 167.284 78.317 169.553 78.317 169.553C80.2198 172.947 83.2188 171.443 83.5846 171.289C83.9505 171.135 87.5088 169.024 87.85 168.827C88.8737 168.235 89.3345 167.458 89.5262 166.608C89.8014 165.311 87.4975 159.646 87.4975 159.646L96.4974 154.45C96.2776 154.463 94.3463 154.27 94.3463 154.27C93.9246 154.229 93.4668 154.323 93.0829 154.545L81.5238 161.218C80.1162 162.031 79.6651 162.235 79.6933 163.071C79.6884 163.359 79.7328 163.731 79.8265 164.189L83.9213 161.825L86.7364 160.199C86.7364 160.199 89.0205 165.535 88.6894 166.636C88.4304 167.468 87.8464 168.032 87.164 168.426C86.8654 168.599 83.7763 170.439 83.4531 170.569C83.1299 170.699 80.0751 172.007 79.0487 169.244C78.3623 167.366 77.9317 165.34 77.9317 165.34L79.2966 164.552C79.1783 164.051 79.2865 163.648 79.2223 162.945C79.1875 161.999 79.5041 161.759 81.2529 160.749C85.2197 158.459 92.8366 154.118 92.8366 154.118C93.3058 153.847 93.8735 153.747 94.4052 153.781L95.9394 153.976C96.9846 154.112 97.9477 153.613 98.4445 152.7C98.5232 152.541 98.5593 152.407 98.5953 152.272L98.7721 150.805C98.8605 150.072 99.2606 149.386 99.9004 149.016L119.24 137.793L117.123 134.125L97.9778 145.292ZM97.2863 153.255C96.8171 153.526 96.2116 153.364 95.9407 152.895C95.6698 152.426 95.8321 151.82 96.3012 151.549C96.7704 151.278 97.3759 151.441 97.6468 151.91C97.9177 152.379 97.7555 152.984 97.2863 153.255Z" fill="white"/>
<path d="M59.9043 165.738L58.87 163.947C58.476 163.264 57.626 163.072 56.9862 163.442L37.0244 174.967C36.3419 175.361 36.1502 176.211 36.5196 176.851L37.3569 178.301L59.9043 165.738Z" fill="white"/>
<path d="M100.843 149.666C100.331 149.961 100.052 150.464 99.9999 151.063L99.8658 152.505C99.8429 152.859 99.6675 153.245 99.4428 153.545C99.4428 153.545 99.4001 153.57 99.4247 153.613L106.96 166.665C107.551 167.688 108.933 167.914 109.791 167.135L120.123 158.041C120.415 157.759 120.499 157.312 120.302 156.971L115.229 148.185C114.613 147.118 114.254 145.904 114.089 144.634C114.012 143.712 113.654 142.895 113.383 142.426L100.843 149.666ZM119.063 157.288L108.596 166.346L108.553 166.37C108.468 166.42 108.334 166.383 108.242 166.323C108.125 166.219 108.161 166.085 108.265 165.968L118.732 156.911C118.86 156.837 118.97 156.83 119.086 156.934C119.16 157.062 119.124 157.196 119.063 157.288ZM118.546 156.393L108.079 165.45L108.036 165.475C107.951 165.524 107.816 165.488 107.725 165.427C107.608 165.324 107.644 165.189 107.747 165.073L118.215 156.015C118.343 155.941 118.452 155.935 118.569 156.038C118.643 156.166 118.631 156.343 118.546 156.393ZM118.054 155.539L107.586 164.597L107.544 164.621C107.458 164.671 107.324 164.635 107.232 164.574C107.115 164.471 107.152 164.336 107.255 164.22L117.722 155.162C117.85 155.088 117.96 155.082 118.076 155.185C118.15 155.313 118.139 155.49 118.054 155.539Z" fill="white"/>
<path d="M82.6371 163.248L80.9736 164.208C81.0576 165.24 81.6882 166.923 82.7797 167.829C83.9876 168.838 84.9885 168.601 85.3789 168.489C85.4642 168.44 85.4576 168.33 85.3904 168.312C84.3007 167.804 83.6327 167.336 82.7528 165.911C82.211 164.972 82.3895 163.902 82.6371 163.248Z" fill="white"/>
<path d="M117.076 126.758C117.076 126.758 116.045 125.761 115.064 126.327C114.04 126.918 114.389 128.31 114.389 128.31L119.733 137.565C120.704 137.573 121.984 136.834 122.462 135.989L117.076 126.758Z" fill="white"/>
<path d="M158.176 103.086L117.527 126.555L122.896 135.853C123.901 135.329 126.279 134.128 126.467 133.962C127.696 132.741 129.717 131.119 131.556 129.773C133.395 128.427 159.213 113.748 163.077 111.574L158.176 103.086ZM138.328 122.393L135.129 124.24C134.745 124.462 134.275 124.336 134.053 123.952C133.831 123.568 133.957 123.097 134.341 122.875L137.498 121.053C137.882 120.832 138.353 120.958 138.574 121.342C138.796 121.725 138.67 122.196 138.328 122.393ZM137.917 119.219C137.533 119.44 137.062 119.314 136.841 118.93C136.619 118.546 136.745 118.075 137.129 117.854L140.285 116.031C140.669 115.81 141.14 115.936 141.362 116.32C141.584 116.704 141.457 117.175 141.073 117.396L137.917 119.219ZM146.433 117.715L143.234 119.561C142.85 119.783 142.379 119.657 142.157 119.273C141.935 118.889 142.062 118.418 142.445 118.197L145.602 116.374C145.986 116.153 146.457 116.279 146.678 116.663C146.9 117.047 146.774 117.518 146.433 117.715ZM146.021 114.54C145.637 114.761 145.166 114.635 144.945 114.251C144.723 113.867 144.849 113.396 145.233 113.175L148.39 111.352C148.773 111.131 149.244 111.257 149.466 111.641C149.688 112.025 149.562 112.496 149.178 112.717L146.021 114.54ZM154.537 113.036L151.338 114.883C150.954 115.104 150.483 114.978 150.261 114.594C150.04 114.21 150.166 113.739 150.55 113.518L153.706 111.695C154.09 111.474 154.561 111.6 154.782 111.984C155.004 112.368 154.878 112.839 154.537 113.036ZM157.324 108.014L154.125 109.861C153.742 110.082 153.271 109.956 153.049 109.572C152.827 109.188 152.954 108.717 153.337 108.496L156.494 106.673C156.878 106.452 157.349 106.578 157.57 106.962C157.792 107.346 157.666 107.817 157.324 108.014Z" fill="white"/>
<path d="M85.245 139.79L81.6621 141.858L83.7553 145.484L87.3382 143.415L85.245 139.79Z" fill="white"/>
<path d="M234.518 64.0146L236.094 66.7445L236.819 66.3258L235.243 63.596L234.518 64.0146Z" fill="white"/>
<path d="M108.06 117.348L106.141 118.456L109.884 124.939L111.803 123.831L108.06 117.348Z" fill="white"/>
<path d="M64.4093 159.554C64.196 159.677 64.1239 159.946 64.247 160.159L64.7888 161.098C64.9119 161.311 65.181 161.383 65.3943 161.26L65.5223 161.186C65.7355 161.063 65.8076 160.794 65.6845 160.581L65.1427 159.642C65.0196 159.429 64.7505 159.357 64.5372 159.48L64.4093 159.554Z" fill="white"/>
<path d="M80.334 148.028L73.4668 151.993L74.8212 154.339L81.6884 150.374L80.334 148.028Z" fill="white"/>
<path d="M60.3597 162.29C60.3237 162.425 60.3303 162.535 60.3369 162.645L63.9197 160.576L63.7966 160.363C63.5504 159.936 63.6699 159.355 64.1391 159.085L64.2671 159.011C64.6936 158.764 65.2745 158.884 65.5454 159.353L65.6685 159.567L72.7064 155.503L71.3519 153.157L61.8829 158.624C61.3284 158.944 60.897 159.478 60.7167 160.151C60.5545 160.756 60.4415 161.447 60.3597 162.29Z" fill="white"/>
<path d="M82.6502 130.369L86.4037 128.202L87.2142 127.734L85.712 125.132L80.0391 128.407L81.5412 131.009L82.6502 130.369Z" fill="white"/>
<path d="M51.778 150.183L55.1764 156.069L55.3488 156.368C55.3488 156.368 62.5572 152.206 63.6662 151.566L59.6768 144.656L51.3594 149.458L51.778 150.183Z" fill="white"/>
<path d="M67.8323 148.933L68.3015 148.662C68.6427 148.465 68.9347 148.182 69.1102 147.797C69.5692 146.622 71.2441 145.484 72.4186 144.465C73.5078 143.495 77.3172 141.523 78.5787 140.851L76.3378 136.97C75.0828 137.751 71.244 139.968 69.7265 140.787C68.4223 141.483 66.4615 141.535 65.5574 141.545C65.203 141.522 64.8798 141.652 64.5812 141.824L63.9414 142.193L67.8323 148.933Z" fill="white"/>
<path d="M87.9717 127.865L75.6875 134.957L79.9232 142.293L99.5438 130.965L96.1208 125.037L95.4383 125.431C94.7985 125.8 94.0536 125.889 93.3808 125.709L92.237 125.402L87.9717 127.865Z" fill="white"/>
<path d="M64.1594 151.338C64.965 151.157 66.8879 150.843 67.3571 150.572C67.9116 150.252 67.3633 149.204 67.3633 149.204L67.4059 149.179L63.4904 142.397L63.4477 142.422C62.7516 141.118 61.7446 142.723 61.7446 142.723L60.1208 144.343L64.1594 151.338Z" fill="white"/>
<path d="M212.064 66.0026C212.064 66.0026 215.237 70.7107 214.566 72.4059C213.889 73.9912 214.534 74.813 214.534 74.813L219.482 71.9564L215.049 64.2788L212.064 66.0026ZM218.02 71.4925C218.168 71.7484 218.053 72.0422 217.84 72.1653L216.859 72.7317C216.603 72.8795 216.309 72.7647 216.186 72.5514L215.792 71.869C215.644 71.6131 215.759 71.3193 215.972 71.1962L216.953 70.6298C217.209 70.482 217.503 70.5968 217.626 70.8101L218.02 71.4925Z" fill="white"/>
<path d="M75.5857 165.612C75.2247 165.479 74.8276 165.481 74.511 165.721C72.275 167.069 69.1055 168.671 66.5752 168.426C63.4034 168.153 61.5834 166.872 60.9515 166.27L60.4396 166.566L37.8922 179.128L37.9168 179.171C37.9168 179.171 20.993 188.373 19.9874 188.897C19.1589 189.432 19.6418 190.859 21.9676 193.213C24.2754 195.634 25.5577 198.25 27.8215 201.777C30.11 205.346 29.9855 206.214 31.0132 207.896C31.6962 208.98 33.0923 208.345 33.5369 208.031C34.6392 207.281 66.2555 184.421 66.2555 184.421C66.2555 184.421 66.4596 186.35 67.6345 186.809C68.8522 187.244 76.1578 184.334 77.3882 183.51C78.6185 182.686 76.6063 180.776 76.1252 179.746C75.6441 178.716 74.0508 173.494 75.5678 171.196C75.9139 170.712 76.7243 170.244 77.4134 169.96C77.1161 169.051 76.7005 167.642 76.2915 166.342C76.2291 166.037 75.9468 165.745 75.5857 165.612ZM37.1678 192.058C37.8327 193.21 37.4361 194.69 36.2845 195.355L33.1707 197.153C32.0191 197.818 30.539 197.421 29.8741 196.269L27.4607 192.089C26.7958 190.938 27.1924 189.457 28.344 188.793L31.4578 186.995C32.6094 186.33 34.0895 186.727 34.7544 187.878L37.1678 192.058ZM62.7222 182.537L50.9072 189.358C49.6276 190.097 47.9882 189.621 47.2495 188.342L44.2697 183.181C43.5309 181.901 44.0062 180.262 45.2432 179.548L59.916 171.076C61.8354 169.968 64.3247 170.635 65.4329 172.555C66.4426 174.303 66.6286 176.3 66.1419 178.117C65.6305 179.891 64.471 181.527 62.7222 182.537ZM72.9769 171.043L74.8966 180.967C75.0461 181.62 74.7313 182.257 74.1768 182.577C74.0915 182.626 74.0062 182.676 73.8536 182.707L70.2179 183.896C69.7848 184.032 69.2958 183.973 68.9035 183.688C68.5113 183.403 68.265 182.976 68.2386 182.536L67.6905 171.934C67.6689 171.207 68.1363 170.539 68.8993 170.383L71.1634 169.872C71.5539 169.76 72.0003 169.843 72.3679 170.086C72.6682 170.311 72.9079 170.627 72.9769 171.043Z" fill="white"/>
<path d="M71.2581 170.33L68.9939 170.841C68.884 170.848 68.7987 170.897 68.7134 170.946C68.3722 171.143 68.1721 171.486 68.1739 171.883L68.6974 182.443C68.7172 182.773 68.8896 183.072 69.1653 183.254C69.441 183.436 69.7528 183.483 70.0579 183.421L73.6936 182.232C74.1694 182.071 74.4908 181.544 74.3725 181.044L72.4529 171.119C72.415 170.856 72.2246 170.625 72.0162 170.461C71.8078 170.297 71.5206 170.292 71.2581 170.33Z" fill="white"/>
</svg>
