<svg width="256" height="256" viewBox="0 0 256 256" fill="none" xmlns="http://www.w3.org/2000/svg">
<path d="M94.6871 144.738C94.9578 144.504 95.1763 144.216 95.3283 143.892C95.4803 143.568 95.5623 143.215 95.5692 142.857C95.5761 142.5 95.5075 142.144 95.3681 141.815C95.2286 141.485 95.0213 141.189 94.7598 140.945C94.4982 140.7 94.1881 140.514 93.8497 140.397C93.5113 140.281 93.1522 140.237 92.7958 140.268C92.4393 140.3 92.0934 140.406 91.7806 140.58C91.4679 140.754 91.1952 140.991 90.9803 141.278C90.7509 141.522 90.5718 141.81 90.4535 142.124C90.3351 142.438 90.2797 142.772 90.2905 143.107C90.3012 143.442 90.378 143.772 90.5162 144.078C90.6545 144.384 90.8516 144.659 91.0963 144.888C91.341 145.118 91.6285 145.297 91.9424 145.415C92.2563 145.534 92.5904 145.589 92.9257 145.578C93.261 145.568 93.5909 145.491 93.8965 145.353C94.2022 145.214 94.4776 145.017 94.7071 144.773L94.6871 144.738Z" fill="white"/>
<path d="M56.1234 175.663C56.7347 175.011 57.0621 174.143 57.0337 173.25C57.0053 172.357 56.6234 171.512 55.972 170.9C55.318 170.29 54.4485 169.963 53.5542 169.992C52.6598 170.022 51.8136 170.405 51.201 171.057C50.5898 171.709 50.2624 172.576 50.2908 173.469C50.3192 174.362 50.7011 175.208 51.3525 175.819C51.6757 176.123 52.0556 176.36 52.4705 176.516C52.8855 176.673 53.3272 176.746 53.7704 176.731C54.2137 176.717 54.6497 176.615 55.0534 176.432C55.4572 176.248 55.8208 175.987 56.1234 175.663Z" fill="white"/>
<path d="M120.246 133.446C120.246 133.446 149.678 118.104 155.949 114.426C155.949 114.426 160.805 111.876 162.925 112.708C164.168 113.195 165.277 113.972 166.161 114.973C166.161 114.973 194.44 98.3344 201.371 86.4581L150.228 103.076C150.228 103.076 141.651 113.801 115.173 118.58C115.173 118.58 115.685 122.026 115.928 123.167C116.509 125.161 117.204 127.119 118.009 129.033C118.654 130.545 119.389 132.018 120.21 133.443L120.246 133.446Z" fill="white"/>
<path d="M119.539 135.863L119.309 135.465L118.679 134.373C117.809 132.869 117.033 131.311 116.356 129.71C115.496 127.705 114.766 125.646 114.172 123.546C113.922 122.374 113.423 118.99 113.393 118.858L113.33 118.409C113.154 118.419 112.978 118.443 112.806 118.481C112.281 118.611 112.315 118.591 111.597 118.786C110.878 118.982 109.416 119.329 108.509 119.599C107.593 119.862 106.803 120.449 106.288 121.251C106.21 121.377 106.071 121.595 105.995 121.743C105.406 122.764 105.046 123.901 104.94 125.075C104.834 126.248 104.985 127.431 105.381 128.541C105.397 128.596 105.427 128.646 105.466 128.688C106.739 131.013 107.172 132.403 109.148 134.645C111.124 136.888 114.858 140.794 115.009 144.136L115.149 147.519C115.106 148.965 114.632 150.624 114.539 151.763C114.539 151.763 114.539 151.763 114.526 151.84C114.513 151.917 114.523 152.015 114.509 152.231C114.485 152.868 115.219 154.581 116.106 154.357L123.716 150.818C124.676 150.021 124.18 148.241 123.925 146.54C123.443 144.543 122.843 142.576 122.129 140.649M120.317 148.97C120.237 149.22 120.085 149.44 119.88 149.603C119.675 149.766 119.426 149.864 119.165 149.885C118.904 149.906 118.643 149.849 118.414 149.721C118.186 149.593 118 149.4 117.882 149.167C117.763 148.933 117.717 148.67 117.749 148.41C117.78 148.15 117.889 147.905 118.06 147.707C118.231 147.509 118.457 147.366 118.71 147.296C118.963 147.227 119.23 147.235 119.478 147.318C119.65 147.372 119.808 147.461 119.944 147.579C120.079 147.696 120.189 147.841 120.267 148.003C120.344 148.165 120.387 148.342 120.394 148.521C120.4 148.701 120.369 148.88 120.304 149.047L120.317 148.97Z" fill="white"/>
<path d="M166.045 116.634L165.19 115.973C164.271 115.259 163.256 114.679 162.175 114.25C161.373 114.064 160.539 114.063 159.737 114.248C158.608 114.544 157.541 115.039 156.586 115.71C151.944 118.39 134.964 127.639 126.267 132.336L122.648 134.207L121.11 134.944L123.9 139.777L127.26 138.276C127.844 138.008 146.951 128.062 146.951 128.062C150.163 126.565 161.878 119.617 167.135 122.841L166.045 116.634Z" fill="white"/>
<path d="M208.214 78.2117L202.422 86.0009L200.129 89.8078C193.037 101.985 168.719 115.644 167.695 116.212L166.665 116.807L168.458 123.393C181.358 116.557 194.252 108.709 203.67 97.6014L208.214 78.2117Z" fill="white"/>
<path d="M154.259 96.7187C152.719 97.5504 151.283 101.844 151.075 101.964L201.4 85.6098L208.152 78.0631L190.719 84.4096C190.607 84.4503 190.506 84.5166 190.424 84.6032C190.341 84.6898 190.28 84.7943 190.246 84.9085C190.211 85.0227 190.203 85.1435 190.223 85.2613C190.243 85.379 190.289 85.4905 190.36 85.587L190.955 86.398C191.238 86.7887 191.142 87.2022 190.739 87.3429C190.512 87.3961 190.275 87.3828 190.055 87.3046C189.836 87.2263 189.644 87.0865 189.502 86.9019L188.329 85.2698L187.373 85.614L188.52 87.261C188.59 87.3373 188.639 87.4298 188.664 87.5301C188.689 87.6303 188.688 87.7351 188.662 87.8351C188.636 87.935 188.586 88.0268 188.515 88.1022C188.444 88.1776 188.356 88.2342 188.258 88.2669C188.017 88.3264 187.764 88.3124 187.531 88.2265C187.299 88.1406 187.097 87.9869 186.952 87.7852L185.881 86.2098L184.842 86.5902L185.876 88.141C185.943 88.2252 185.988 88.3243 186.008 88.4298C186.028 88.5353 186.021 88.6441 185.989 88.7466C185.958 88.8492 185.901 88.9424 185.825 89.0183C185.749 89.0941 185.656 89.1503 185.553 89.1819C185.302 89.2531 185.035 89.244 184.79 89.1559C184.544 89.0678 184.333 88.9051 184.184 88.6906L183.206 87.1768L182.063 87.5366L182.995 89.0308C183.061 89.1253 183.104 89.2345 183.119 89.3489C183.135 89.4634 183.122 89.5799 183.083 89.6886C183.044 89.7973 182.979 89.8949 182.894 89.9733C182.809 90.0517 182.707 90.1085 182.596 90.139C182.334 90.225 182.052 90.2231 181.792 90.1336C181.531 90.044 181.308 89.8717 181.155 89.6431L180.3 88.1621L179.098 88.6016L179.923 90.0306C179.987 90.1362 180.026 90.2552 180.036 90.3782C180.046 90.5012 180.027 90.6249 179.982 90.7395C179.936 90.8542 179.865 90.9568 179.773 91.0392C179.681 91.1216 179.571 91.1817 179.452 91.2147C179.183 91.301 178.892 91.2948 178.627 91.1971C178.361 91.0994 178.136 90.9159 177.986 90.6755L177.191 89.2985L175.868 89.7857L176.638 91.1193C176.698 91.2369 176.731 91.3666 176.733 91.4986C176.736 91.6307 176.709 91.7616 176.653 91.8815C176.598 92.0014 176.516 92.1072 176.414 92.1907C176.311 92.2742 176.191 92.3333 176.063 92.3635C175.781 92.4655 175.474 92.4681 175.191 92.371C174.908 92.2739 174.667 92.0828 174.507 91.8296L173.824 90.5266L172.418 91.0501L173.05 92.3248C173.1 92.456 173.123 92.5963 173.115 92.7366C173.108 92.877 173.071 93.0142 173.007 93.1394C172.943 93.2645 172.854 93.3748 172.744 93.463C172.635 93.5512 172.508 93.6154 172.372 93.6513C172.076 93.7654 171.749 93.7714 171.448 93.6682C171.148 93.5649 170.893 93.3591 170.73 93.0868L170.146 91.8763L168.603 92.4439L169.136 93.626C169.186 93.7714 169.204 93.9257 169.191 94.0787C169.177 94.2318 169.131 94.3802 169.055 94.5142C168.98 94.6482 168.877 94.7647 168.754 94.8562C168.63 94.9476 168.489 95.0119 168.338 95.0448C168.029 95.171 167.686 95.1826 167.369 95.0776C167.052 94.9726 166.783 94.7578 166.611 94.472L166.135 93.3491L164.43 93.9757L164.867 95.0516C164.911 95.2139 164.921 95.3835 164.896 95.5499C164.872 95.7163 164.814 95.8759 164.725 96.0189C164.637 96.1619 164.52 96.2853 164.382 96.3814C164.244 96.4775 164.088 96.5443 163.923 96.5777C163.599 96.7215 163.233 96.7378 162.897 96.6234C162.561 96.5091 162.281 96.2724 162.112 95.9606L161.738 94.9527L159.836 95.6582L160.18 96.6142C160.244 96.9777 160.163 97.3517 159.956 97.6568C159.748 97.962 159.43 98.1743 159.069 98.249C158.213 98.5468 157.324 97.9281 156.788 97.4988L155.625 96.7846L154.96 96.5333C154.72 96.5562 154.487 96.6313 154.279 96.7534L154.259 96.7187Z" fill="white"/>
<path d="M108.834 137.402C108.393 136.918 108.038 136.522 107.829 136.261C106.223 134.244 104.901 132.015 103.902 129.638C103.748 129.253 103.609 128.872 103.498 128.52C103.113 127.033 103.003 125.487 103.175 123.96C102.399 124.616 101.516 125.426 100.965 125.952C100.222 126.588 99.5134 127.263 98.8421 127.975C93.7209 134.165 82.1905 137.773 82.1905 137.773C71.8492 139.622 62.9723 149.747 61.0378 152.076C60.8102 152.368 60.6011 152.674 60.4118 152.992C57.4345 157.7 53.3392 161.6 48.4904 164.343C48.3373 164.426 48.2047 164.543 48.1023 164.684C48 164.825 47.9304 164.987 47.8987 165.158L46.0327 175.646C45.9918 175.877 46.0208 176.115 46.1159 176.33C46.2109 176.545 46.3678 176.726 46.5665 176.851C49.1326 178.475 58.4453 184.346 61.5462 186.296C61.6557 186.366 61.7811 186.406 61.9105 186.413C62.0399 186.42 62.1689 186.394 62.2854 186.337C62.4018 186.28 62.5018 186.195 62.5759 186.088C62.6499 185.982 62.6955 185.858 62.7084 185.729C64.2812 174.314 69.1116 171.64 71.2619 170.965C71.5698 170.883 71.849 170.718 72.0685 170.487C72.288 170.257 72.4391 169.969 72.5051 169.658C73.9825 161.877 81.3374 160.956 83.8167 160.91C84.0723 160.899 84.3196 160.816 84.5297 160.67C84.7399 160.524 84.9043 160.322 85.0038 160.086C87.2839 155.156 90.2934 153.568 92.7939 153.279C94.9648 153.08 97.1259 153.751 98.8018 155.145C103.362 158.724 103.656 156.234 103.656 156.234C100.086 143.03 111.813 143.441 111.813 143.441C112.203 143.44 112.581 143.576 112.879 143.827C113.178 144.077 113.379 144.425 113.445 144.809C113.442 144.683 113.42 144.165 113.426 144.035C113.489 142.924 111.956 140.669 108.882 137.305L108.834 137.402ZM58.5959 174.986C58.3201 175.823 57.8368 176.576 57.1911 177.175C56.5454 177.774 55.7584 178.199 54.9037 178.411C53.9627 178.639 52.9768 178.601 52.0566 178.3C51.4095 178.089 50.8104 177.753 50.2934 177.31C49.7764 176.868 49.3516 176.328 49.0434 175.721C48.7331 175.114 48.5468 174.451 48.4952 173.771C48.4436 173.091 48.5279 172.408 48.743 171.761C49.0154 170.922 49.4976 170.168 50.1438 169.568C50.7901 168.969 51.5788 168.545 52.4352 168.336C53.3759 168.101 54.3635 168.135 55.2859 168.433C56.5915 168.863 57.6736 169.792 58.2948 171.018C58.916 172.244 59.0256 173.666 58.5995 174.973L58.5959 174.986ZM70.7693 169.251C70.6733 169.521 70.4746 169.741 70.2166 169.864C69.9587 169.987 69.6624 170.002 69.3929 169.907C69.1216 169.82 68.8958 169.629 68.7648 169.376C68.6338 169.123 68.6082 168.828 68.6935 168.556C68.7864 168.286 68.9794 168.063 69.2326 167.932C69.4858 167.801 69.7798 167.772 70.0536 167.852C70.1935 167.893 70.3234 167.963 70.4357 168.057C70.5479 168.15 70.64 168.265 70.7064 168.395C70.7728 168.525 70.8122 168.667 70.8222 168.813C70.8321 168.959 70.8124 169.105 70.7643 169.243L70.7693 169.251ZM83.9999 158.887C83.9293 159.089 83.8006 159.264 83.6302 159.393C83.4599 159.521 83.2553 159.596 83.0425 159.608C82.8296 159.62 82.6179 159.569 82.4341 159.461C82.2502 159.353 82.1025 159.193 82.0094 159.001C81.9163 158.809 81.8821 158.594 81.911 158.383C81.9399 158.172 82.0307 157.974 82.172 157.814C82.3132 157.654 82.4986 157.54 82.7047 157.485C82.9108 157.431 83.1284 157.439 83.3302 157.507C83.5998 157.602 83.8211 157.799 83.9457 158.056C84.0703 158.313 84.088 158.609 83.9949 158.879L83.9999 158.887ZM96.9714 144.355C96.7418 145.06 96.3351 145.694 95.7903 146.196C95.2454 146.699 94.5807 147.053 93.8597 147.225C93.074 147.407 92.2536 147.369 91.4877 147.117C90.5892 146.82 89.8114 146.239 89.2712 145.462C88.7311 144.685 88.4579 143.753 88.4925 142.807C88.5272 141.862 88.8679 140.953 89.4635 140.217C90.0591 139.482 90.8773 138.96 91.7951 138.729C92.5812 138.552 93.4006 138.589 94.1672 138.838C95.2651 139.203 96.1742 139.988 96.6968 141.02C97.2194 142.053 97.3132 143.25 96.9577 144.351L96.9714 144.355Z" fill="white"/>
</svg>
