<svg width="256" height="256" viewBox="0 0 256 256" fill="none" xmlns="http://www.w3.org/2000/svg">
  <path
    d="M16.6736 180.315C14.4154 181.619 15.4042 183.013 15.4042 183.013C19.2785 188.947 26.4175 199.202 30.6015 205.096C30.6015 205.096 31.7347 206.74 33.8195 205.295L16.6736 180.315Z"
    fill="white" />
  <path
    d="M93.8436 125.693L100.825 121.662L97.2771 115.517L96.2989 115.415L94.179 111.743C94.1205 111.642 94.0246 111.567 93.9118 111.536C93.7991 111.504 93.6785 111.518 93.5758 111.574L88.7059 114.386C88.6054 114.444 88.532 114.539 88.5019 114.652C88.4718 114.764 88.4876 114.883 88.5457 114.984L90.576 118.501L90.261 119.567L93.8436 125.693Z"
    fill="white" />
  <path d="M100.565 113.607L98.1339 115.011L101.11 120.165L103.54 118.762L100.565 113.607Z" fill="white" />
  <path
    d="M105.579 119.963L105.346 120.833C105.332 120.955 105.29 121.071 105.223 121.173C105.157 121.276 105.067 121.361 104.962 121.423L91.2919 129.315C91.1508 129.397 90.9935 129.447 90.831 129.461C90.6685 129.476 90.5049 129.454 90.3516 129.398L89.6678 129.15L85.3582 131.638L87.4333 135.232L106.396 124.284C105.709 123.095 106.278 122.548 106.68 122.189C107.323 121.633 108.004 121.124 108.72 120.667C108.976 120.506 109.159 120.252 109.231 119.958L109.82 117.515L105.579 119.963Z"
    fill="white" />
  <path d="M89.4286 120.036L86.205 121.897L89.1808 127.052L92.4044 125.191L89.4286 120.036Z" fill="white" />
  <path d="M136.712 110.471L134.989 111.466L139.865 119.913L141.589 118.917L136.712 110.471Z" fill="white" />
  <path d="M152.227 101.513L150.503 102.508L155.38 110.955L157.104 109.959L152.227 101.513Z" fill="white" />
  <path d="M134.127 111.963L132.403 112.958L137.279 121.405L139.003 120.41L134.127 111.963Z" fill="white" />
  <path d="M141.884 107.484L140.16 108.479L145.037 116.926L146.761 115.931L141.884 107.484Z" fill="white" />
  <path d="M149.641 103.006L147.917 104.001L152.794 112.448L154.518 111.453L149.641 103.006Z" fill="white" />
  <path d="M147.055 104.499L145.332 105.494L150.208 113.941L151.932 112.946L147.055 104.499Z" fill="white" />
  <path d="M144.47 105.991L142.746 106.986L147.623 115.433L149.346 114.438L144.47 105.991Z" fill="white" />
  <path d="M139.298 108.977L137.574 109.973L142.451 118.419L144.175 117.424L139.298 108.977Z" fill="white" />
  <path d="M218.208 67.1423L193.514 81.3994L195.678 85.1488L220.372 70.8916L218.208 67.1423Z" fill="white" />
  <path d="M222.023 63.9977L218.662 65.9385L221.697 71.1962L225.059 69.2554L222.023 63.9977Z" fill="white" />
  <path d="M131.541 113.456L129.817 114.451L134.694 122.898L136.418 121.903L131.541 113.456Z" fill="white" />
  <path d="M192.209 81.1297L189.399 82.752L192.36 87.8804L195.17 86.2581L192.209 81.1297Z" fill="white" />
  <path d="M224.207 63.6786L223.293 64.2061L225.458 67.9554L226.371 67.4279L224.207 63.6786Z" fill="white" />
  <path
    d="M82.2755 140.75L180.983 83.7608C180.616 83.3781 180.131 83.1289 179.607 83.053C179.082 82.977 178.547 83.0786 178.086 83.3417L176 84.5459L176.498 85.4079L175.257 86.1244L174.759 85.2625L173.32 86.0936L173.817 86.9555L172.671 87.6173L172.173 86.7554L170.734 87.5865L171.232 88.4484L170.016 89.15L169.519 88.2881L168.036 89.1441L168.534 90.006L167.327 90.7027L166.829 89.8407L165.39 90.6718L165.888 91.5337L164.672 92.2354L164.175 91.3734L162.735 92.2045L163.233 93.0664L162.018 93.7681L161.52 92.9061L160.106 93.7223L160.604 94.5842L159.389 95.2858L158.891 94.4239L157.452 95.255L157.949 96.1169L156.743 96.8136L156.245 95.9516L154.806 96.7827L155.303 97.6446L154.088 98.3463L153.59 97.4844L152.151 98.3154L152.649 99.1773L151.433 99.879L150.936 99.0171L149.496 99.8481L149.994 100.71L148.779 101.412L148.281 100.55L146.842 101.381L147.339 102.243L146.132 102.939L145.635 102.077L144.195 102.909L144.693 103.77L143.452 104.487L142.954 103.625L141.515 104.456L142.012 105.318L140.78 106.03L140.282 105.168L138.843 105.999L139.34 106.861L138.125 107.562L137.628 106.7L136.188 107.532L136.686 108.393L135.479 109.09L134.981 108.228L133.559 109.049L134.057 109.911L132.842 110.613L132.344 109.751L130.905 110.582L131.402 111.444L130.187 112.146L129.689 111.284L128.215 112.135L128.713 112.997L127.498 113.698L127 112.836L125.63 113.628L126.127 114.489L124.921 115.186L124.368 114.229L122.929 115.06L123.456 115.974L122.241 116.676L121.713 115.762L120.274 116.593L120.802 117.507L119.552 118.228L119.019 117.306L117.58 118.137L118.112 119.059L116.897 119.761L116.365 118.839L114.925 119.67L115.458 120.592L114.251 121.289L113.713 120.358L112.274 121.189L112.811 122.12L111.596 122.821L111.059 121.891L109.619 122.722L110.157 123.653L108.941 124.354L108.399 123.415L106.787 124.345L107.16 124.992L87.3362 136.437L86.8386 135.575L85.8991 136.118L86.3967 136.98L85.2418 137.646L84.7441 136.785L83.7702 137.347L84.2678 138.209L83.1128 138.876L82.6152 138.014L81.6498 138.571L82.1475 139.433L81.6734 139.707L82.2755 140.75Z"
    fill="white" />
  <path d="M128.955 114.949L127.231 115.944L132.108 124.391L133.832 123.396L128.955 114.949Z" fill="white" />
  <path d="M153.089 101.015L157.966 109.461L159.69 108.466L159.033 107.328L154.813 100.019L153.089 101.015Z"
    fill="white" />
  <path d="M126.369 116.441L116.095 122.373L120.972 130.82L131.246 124.888L126.369 116.441Z" fill="white" />
  <path
    d="M121.531 147.932L129.139 161.111L130.935 159.522C131.195 159.293 131.367 158.98 131.423 158.638C131.479 158.296 131.415 157.945 131.241 157.645L124.324 145.664L121.531 147.932Z"
    fill="white" />
  <path
    d="M160.187 109.328L125.021 129.632C125.378 129.839 125.691 130.116 125.939 130.446L160.769 110.337L160.187 109.328Z"
    fill="white" />
  <path
    d="M224.685 62.5176L227.721 67.7753L235.09 63.5206L232.055 58.2628L224.685 62.5176ZM232.225 62.5778L228.268 64.862C228.115 64.9504 227.933 64.9743 227.762 64.9286C227.592 64.8828 227.446 64.771 227.358 64.6179C227.269 64.4647 227.245 64.2827 227.291 64.1119C227.337 63.941 227.449 63.7954 227.602 63.707L231.558 61.4229C231.711 61.3344 231.893 61.3105 232.064 61.3562C232.235 61.402 232.38 61.5138 232.469 61.6669C232.557 61.8201 232.581 62.0021 232.535 62.1729C232.49 62.3438 232.378 62.4894 232.225 62.5778Z"
    fill="white" />
  <path
    d="M111.778 155.86L109.566 157.643L116.356 170.019C116.467 170.212 116.62 170.378 116.803 170.504C116.986 170.631 117.195 170.715 117.415 170.751C117.635 170.787 117.86 170.774 118.074 170.712C118.288 170.65 118.485 170.542 118.652 170.394L119.655 169.505L111.778 155.86Z"
    fill="white" />
  <path
    d="M160.392 107.693L160.8 108.4L161.631 109.84L163.321 108.864L162.773 107.916L163.989 107.214L164.536 108.163L165.975 107.331L165.428 106.383L166.635 105.687L167.182 106.635L168.63 105.799L168.083 104.851L169.289 104.154L169.837 105.102L171.276 104.271L170.729 103.323L171.944 102.621L172.491 103.569L173.931 102.738L173.383 101.79L174.599 101.089L175.146 102.037L176.586 101.206L176.038 100.258L177.245 99.5608L177.792 100.509L179.24 99.6729L178.693 98.7248L179.9 98.0281L180.447 98.9763L182.447 97.8218L181.208 95.6756L160.392 107.693Z"
    fill="white" />
  <path d="M120.748 148.567L112.547 155.222L120.409 168.84L128.377 161.78L120.748 148.567Z" fill="white" />
  <path
    d="M180.679 85.0862L155.675 99.5225L159.895 106.832L180.71 94.8138L180.705 94.8052L184.894 92.3867L180.679 85.0862Z"
    fill="white" />
  <path
    d="M188.52 83.2594L187.35 81.2339L186.169 81.9156L186.443 82.3897L185.228 83.0913L184.954 82.6173L183.765 83.304L184.038 83.7781L182.823 84.4797L182.549 84.0057L181.541 84.5879L186.671 93.4743L187.68 92.8921L187.118 91.9181L188.333 91.2164L188.895 92.1904L190.085 91.5037L189.522 90.5297L190.738 89.8281L191.3 90.802L192.481 90.1203L191.481 88.3878L191.498 88.3779L188.537 83.2494L188.52 83.2594Z"
    fill="white" />
  <path
    d="M128.715 93.7915L134.811 104.35L140.526 101.051C140.62 100.996 140.702 100.924 140.768 100.838C140.834 100.752 140.882 100.654 140.911 100.549C140.939 100.444 140.946 100.335 140.932 100.228C140.917 100.12 140.882 100.016 140.828 99.9223L135.543 90.7687C135.489 90.6747 135.417 90.5924 135.331 90.5264C135.245 90.4603 135.146 90.4119 135.042 90.3838C134.937 90.3557 134.828 90.3486 134.72 90.3627C134.612 90.3769 134.509 90.4121 134.415 90.4663L128.715 93.7915Z"
    fill="white" />
  <path
    d="M61.8947 133.933L57.8632 135.112C57.7306 135.188 57.6339 135.314 57.5943 135.462C57.5546 135.61 57.5754 135.768 57.6519 135.9L62.9218 145.028C62.9957 145.156 63.1175 145.249 63.2603 145.288C63.403 145.326 63.5552 145.306 63.6832 145.232L66.7367 142.32L61.8947 133.933Z"
    fill="white" />
  <path
    d="M94.7374 155.368L96.7802 154.189C96.6251 155.069 96.6824 155.974 96.9475 156.827C97.3646 157.908 99.2236 158.421 99.2236 158.421C98.7974 158.709 98.2871 158.847 97.7737 158.813C97.2603 158.778 96.7731 158.573 96.3896 158.23C95.9216 157.903 95.5311 157.477 95.2456 156.983C94.9601 156.488 94.7867 155.937 94.7374 155.368Z"
    fill="white" />
  <path
    d="M79.0497 158.472C79.8766 157.974 80.8644 157.815 81.8056 158.03L82.2405 152.573L119.846 130.861L115.218 122.845L81.8963 142.084L81.3987 141.222C81.3987 141.222 76.4197 142.809 71.1407 144.673C70.6537 145.104 67.3999 146.833 67.3999 146.833L68.7386 149.152L67.4888 149.873L74.0874 161.302C75.0922 160.734 77.1598 159.597 79.0497 158.472Z"
    fill="white" />
  <path
    d="M101.052 142.896L108.481 155.764L124.003 143.355C124.044 143.285 124.067 143.205 124.068 143.124C124.07 143.043 124.05 142.962 124.011 142.891L119.756 135.521L121.165 133.145L120.374 131.774L101.052 142.896Z"
    fill="white" />
  <path
    d="M100.19 143.393L83.2099 153.196L82.7738 158.413C83.5688 158.765 84.2457 159.339 84.7241 160.065C85.2025 160.791 85.4621 161.639 85.4722 162.509C85.4077 164.109 84.3174 180.414 83.8799 184.195C83.8679 184.288 83.8785 184.383 83.9108 184.471C83.9431 184.56 83.9962 184.639 84.0656 184.703C84.135 184.766 84.2186 184.812 84.3095 184.837C84.4004 184.861 84.4958 184.864 84.5877 184.843C87.8388 184.141 91.0301 183.187 94.1324 181.988C94.9196 181.69 95.6532 181.266 96.3044 180.733C96.3538 180.684 96.3919 180.624 96.4161 180.558C96.4403 180.492 96.45 180.422 96.4445 180.352C96.439 180.282 96.4185 180.214 96.3844 180.153C96.3503 180.091 96.3034 180.038 96.2468 179.997C95.705 179.526 95.3041 178.914 95.0884 178.229C94.5133 176.596 94.9086 171.667 94.8788 170.8C94.868 170.323 95.4919 169.871 96.1347 169.512C96.2269 169.46 96.3056 169.388 96.3643 169.3C96.4231 169.213 96.4602 169.112 96.4726 169.007C96.4851 168.903 96.4725 168.796 96.4358 168.697C96.3992 168.599 96.3397 168.51 96.262 168.438C95.9871 168.063 95.7343 167.671 95.505 167.266C95.232 166.251 95.14 165.195 95.2331 164.148C95.2955 163.914 95.4113 163.697 95.5713 163.515C95.7313 163.333 95.9313 163.19 96.1555 163.098L107.49 156.554L107.714 156.425L100.19 143.393ZM104.75 155.551C104.631 156.014 104.42 156.448 104.13 156.829C103.841 157.209 103.478 157.527 103.063 157.765L98.3228 160.502C97.908 160.745 97.4494 160.903 96.9733 160.968C96.4972 161.033 96.013 161.004 95.5484 160.881C95.0837 160.759 94.6478 160.546 94.2656 160.255C93.8834 159.963 93.5624 159.6 93.321 159.184C93.0571 158.705 92.9102 158.17 92.8921 157.623C92.874 157.077 92.9853 156.533 93.2169 156.038C93.4821 155.287 93.9896 154.647 94.6593 154.217L99.3999 151.48C100.097 151.103 100.906 150.986 101.681 151.151C102.216 151.235 102.728 151.425 103.189 151.71C103.649 151.995 104.048 152.369 104.362 152.809C104.848 153.636 104.987 154.622 104.75 155.551Z"
    fill="white" />
  <path d="M75.9009 125.847L72.6342 127.733L77.5061 136.172L80.7727 134.286L75.9009 125.847Z" fill="white" />
  <path d="M80.4904 125.197L77.6202 126.854L80.596 132.009L83.4662 130.352L80.4904 125.197Z" fill="white" />
  <path
    d="M68.6152 125.33L65.9347 126.878C65.6375 127.049 65.4206 127.332 65.3318 127.664C65.243 127.995 65.2895 128.348 65.4611 128.645L66.8594 131.067L62.7567 133.436L67.5986 141.823L76.6143 136.617L70.374 125.809C70.2033 125.513 69.9227 125.297 69.5932 125.207C69.2638 125.118 68.9122 125.162 68.6152 125.33Z"
    fill="white" />
  <path d="M84.7261 121.327L80.744 123.626L84.8694 130.771L88.8514 128.472L84.7261 121.327Z" fill="white" />
  <path d="M105.678 109.506L100.929 112.248L104.9 119.126L109.649 116.384L105.678 109.506Z" fill="white" />
  <path d="M133.926 104.827L110.013 115.024L107.038 109.87L127.83 94.2683L133.926 104.827Z" fill="white" />
  <path
    d="M17.5355 179.817L34.5693 204.862C37.0217 201.148 66.5521 169.331 72.6078 162.8L66.2082 151.716L17.5355 179.817ZM42.7818 182.56L30.2322 189.806C30.0755 189.873 29.8997 189.88 29.7381 189.826C29.5765 189.772 29.4401 189.661 29.355 189.514C29.2698 189.366 29.2416 189.192 29.2758 189.025C29.31 188.859 29.4041 188.71 29.5405 188.608L42.0901 181.362C42.2467 181.295 42.4225 181.288 42.5841 181.342C42.7458 181.396 42.8821 181.507 42.9673 181.655C43.0525 181.802 43.0806 181.976 43.0464 182.143C43.0123 182.31 42.9181 182.458 42.7818 182.56ZM42.6756 177.301L27.9281 185.815C27.7669 185.884 27.5859 185.892 27.4194 185.837C27.2529 185.781 27.1125 185.667 27.0248 185.515C26.937 185.363 26.9081 185.184 26.9434 185.012C26.9788 184.84 27.076 184.688 27.2165 184.583L41.964 176.068C42.1252 175.999 42.3062 175.991 42.4728 176.047C42.6393 176.102 42.7797 176.216 42.8674 176.368C42.9551 176.52 42.9841 176.699 42.9487 176.871C42.9134 177.043 42.8162 177.196 42.6756 177.301ZM43.0041 171.779L25.6191 181.816C25.4523 181.912 25.2539 181.938 25.0678 181.888C24.8817 181.839 24.723 181.717 24.6267 181.55C24.5303 181.383 24.5042 181.185 24.5541 180.999C24.6039 180.812 24.7257 180.654 24.8926 180.557L42.2776 170.52C42.4444 170.424 42.6428 170.398 42.8289 170.448C43.015 170.497 43.1737 170.619 43.27 170.786C43.3664 170.953 43.3925 171.151 43.3426 171.337C43.2928 171.524 43.171 171.682 43.0041 171.779Z"
    fill="white" />
</svg>