<svg width="256" height="256" viewBox="0 0 256 256" fill="none" xmlns="http://www.w3.org/2000/svg">
  <path
    d="M169.763 73.8066L172.231 74.1763L183 67.9588L178.087 59.2429C178.087 59.2429 173.182 50.7466 171.71 58.8865L169.763 73.8066ZM179.901 66.4956L173.76 70.0411L171.98 69.8351L172.99 62.7465C173.676 55.5084 176.355 60.3547 176.355 60.3547L179.901 66.4956Z"
    fill="white" />
  <path d="M73.0534 134.24L52.1384 146.315L55.3925 151.952L76.3075 139.876L73.0534 134.24Z" fill="white" />
  <path
    d="M122.31 101.989C122.933 101.629 123.176 100.816 122.836 100.227L118.999 93.5816C118.805 93.2451 118.343 93.0628 117.898 93.3197L80.0885 110.663C80.0885 110.663 74.271 113.124 78.0667 116.204C78.4389 116.438 78.4148 117.013 78.1073 117.302C78.0183 117.354 77.9293 117.405 77.8403 117.457L76.9503 117.97C76.5943 118.176 76.384 118.634 76.5783 118.97L78.1004 123.251C78.2057 123.639 78.0844 124.045 77.7284 124.251L75.5924 125.484C75.2364 125.69 75.0261 126.148 75.2689 126.568L75.706 127.325C76.046 127.914 76.8714 128.111 77.4944 127.751L122.31 101.989ZM88.9974 109.445C89.1187 109.038 89.3776 108.665 89.7821 108.543L118.077 95.6842C118.392 95.6142 118.53 95.6469 118.676 95.8993L120.117 99.2173C120.262 99.4697 120.044 99.708 119.866 99.8107C110.545 104.631 101.184 109.587 91.7739 114.459C91.3289 114.716 90.8676 114.534 90.5358 114.165C90.0178 113.679 89.5888 113.141 89.2003 112.468C89.1517 112.384 89.0546 112.216 89.006 112.132C88.7469 111.272 88.6658 110.309 88.9974 109.445ZM78.681 113.158C79.215 112.849 79.7653 112.98 80.0567 113.485C80.3481 113.99 80.1864 114.532 79.6524 114.84C79.1184 115.148 78.5681 115.018 78.2767 114.513C78.0339 114.092 78.147 113.466 78.592 113.209L78.681 113.158Z"
    fill="white" />
  <path
    d="M96.7795 136.694L101.928 145.611L101.879 146.761L101.928 148.078C100.65 149.153 100.399 150.98 101.176 152.326C101.419 152.746 101.654 152.947 102.026 153.181C102.212 153.298 102.172 153.434 102.083 153.485C99.9472 155.952 100.295 156.76 100.935 158.073C101.323 158.746 101.93 159.181 102.392 159.363C102.44 159.448 102.529 159.396 102.578 159.48C102.626 159.564 102.586 159.7 102.416 160.022C101.267 162.144 100.968 163.887 101.268 164.611C101.559 165.116 102.077 165.602 102.587 165.868C102.725 165.901 102.417 166.191 102.061 166.396C87.02 173.846 88.2815 169.865 88.2815 169.865C92.4613 151.413 91.5455 143.866 89.2145 141.062L96.7795 136.694Z"
    fill="white" />
  <path
    d="M97.7585 136.129L102.518 144.373C102.761 144.793 103.263 144.84 103.619 144.635L114.825 137.941C115.181 137.735 115.342 137.193 115.148 136.857L111.36 130.295C110.874 129.454 109.773 129.192 108.883 129.706L97.7585 136.129ZM112.688 135.473C113.311 136.347 113.133 137.683 112.203 138.333L105.083 142.443C104.193 142.957 103.084 142.476 102.453 141.382L100.599 137.966C99.9758 137.092 100.154 135.756 101.084 135.106L108.204 130.995C109.094 130.482 110.203 130.963 110.834 132.057L112.688 135.473Z"
    fill="white" />
  <path
    d="M103.576 134.901L101.885 135.877C103.002 137.812 104.993 138.793 108.092 137.789C108.318 137.771 108.302 137.331 108.075 137.35C106.06 136.943 104.652 136.971 103.576 134.901Z"
    fill="white" />
  <path
    d="M128.022 97.9054L125.239 98.8394C125.061 98.9422 124.931 99.129 125.029 99.2973L131.925 111.243C132.022 111.411 132.297 111.476 132.427 111.289L134.441 109.229L127.933 97.9567L128.022 97.9054Z"
    fill="white" />
  <path
    d="M76.071 131.04L80.5877 138.863L85.7497 135.883C86.9067 135.215 87.4001 133.808 86.8091 132.579L86.0239 131.014L105.563 119.845C105.83 119.69 106.243 119.789 106.389 120.041L107.603 122.144C107.846 122.565 108.348 122.612 108.704 122.406L130.064 110.074L125.401 101.998L76.071 131.04ZM85.466 133.13C85.7574 133.635 85.6038 134.397 85.0698 134.705L82.6668 136.092C82.1328 136.401 81.356 136.288 81.0646 135.784L80.2875 134.438C79.9475 133.849 80.2387 133.12 80.7727 132.812L83.0867 131.476C83.6207 131.167 84.3975 131.28 84.6889 131.784L85.466 133.13Z"
    fill="white" />
  <path d="M216.816 49.6685L215.927 50.1836L219.579 56.4871L220.468 55.972L216.816 49.6685Z" fill="white" />
  <path d="M215.036 50.6968L214.147 51.2119L217.799 57.5154L218.688 57.0003L215.036 50.6968Z" fill="white" />
  <path
    d="M223.318 45.9161L217.711 49.1533L221.354 55.4624L226.96 52.2252C227.405 51.9683 227.616 51.5104 227.373 51.0898L224.556 46.2108C224.313 45.7901 223.763 45.6592 223.318 45.9161Z"
    fill="white" />
  <path
    d="M172.903 75.1349L176.546 81.444L216.904 58.0315L213.261 51.7223C213.261 51.7223 173.081 75.0321 172.903 75.1349Z"
    fill="white" />
  <path
    d="M171.479 74.7221L166.955 74.0811L174.677 87.4564C174.677 87.4564 175.874 84.1856 176.238 82.966L171.479 74.7221Z"
    fill="white" />
  <path
    d="M165.871 74.259L128.135 96.0459L136.197 110.01L173.933 88.2232L165.871 74.259ZM163.761 84.7866L166.044 88.7403L165.243 89.2028L162.96 85.2491L158.955 87.5613L161.238 91.5151L160.437 91.9775L158.154 88.0238L154.149 90.3361L156.432 94.2898L155.631 94.7523L153.348 90.7985L149.343 93.1108L151.626 97.0645L150.825 97.527L148.542 93.5733L144.537 95.8856L146.82 99.8393L146.019 100.302L143.736 96.348L139.731 98.6603L142.014 102.614L141.213 103.077L138.93 99.1228L138.445 98.2816L136.259 94.4961L137.06 94.0336L139.246 97.8191L143.251 95.5068L141.065 91.7214L141.866 91.2589L144.052 95.0444L148.057 92.7321L145.871 88.9466L146.672 88.4841L148.858 92.2696L152.863 89.9573L150.677 86.1719L151.478 85.7094L153.664 89.4949L157.669 87.1826L155.483 83.3971L156.284 82.9347L158.47 86.7201L162.475 84.4078L160.289 80.6224L161.09 80.1599L163.276 83.9454L163.761 84.7866Z"
    fill="white" />
  <path
    d="M155.489 152.262C152.624 149.766 140.208 138.539 134.664 129.963C134.178 129.122 133.498 127.944 133.498 127.944L125.699 133.345L125.124 133.789L122.422 135.685L119.542 137.685C119.785 138.105 120.027 138.526 120.367 139.115L121.047 140.292C124.819 146.415 132.744 157.879 143.491 164.573C143.774 164.858 144.227 164.82 144.486 164.447C144.486 164.447 144.486 164.447 144.575 164.395L155.351 153.463C155.837 153.07 155.861 152.496 155.489 152.262ZM143.919 160.175C135.963 154.001 129.238 146.668 123.928 138.293L124.947 137.592C130.208 145.883 136.845 153.267 144.704 159.274L143.919 160.175ZM146.589 157.4C139.442 152.217 132.28 144.126 127.204 135.953L128.135 135.303C133.161 143.393 139.563 150.576 147.236 156.466L146.589 157.4ZM149.574 154.555C142.039 148.698 135.548 141.566 130.522 133.477L131.541 132.776C136.47 140.697 142.824 147.797 150.221 153.621L149.574 154.555Z"
    fill="white" />
  <path
    d="M54.7456 152.887L50.5688 145.652L10.7858 168.621C9.83957 171.298 11.9684 174.78 14.4286 176.164L54.7456 152.887ZM41.4597 157.417L50.3597 152.278L50.7483 152.951L41.8483 158.09L41.4597 157.417ZM16.4021 171.772L25.3022 166.633L25.6907 167.306L16.7907 172.445L16.4021 171.772Z"
    fill="white" />
  <path
    d="M15.092 176.902C18.3214 180.646 27.7507 192.251 28.1562 197.064C28.1725 197.503 28.5529 197.956 29.095 197.868C31.1179 197.261 31.765 196.326 34.3616 191.574L55.2311 153.728L15.092 176.902ZM34.7482 182.378C31.6509 192.018 28.154 185.961 28.154 185.961C26.8346 183.47 25.6771 181.671 24.4629 179.568C23.5887 178.054 24.1062 176.072 25.7972 175.096L38.8802 167.543C39.6812 167.08 40.5714 167.8 40.2398 168.664C38.6465 172.276 35.848 178.939 34.7482 182.378Z"
    fill="white" />
  <path
    d="M107.15 123.416L105.936 121.313C105.79 121.06 105.378 120.962 105.111 121.116L87.2621 131.309L87.6992 132.066C88.533 133.716 87.8779 135.664 86.1869 136.641L81.0249 139.621L81.7049 140.799C83.0803 139.892 86.2925 138.262 88.5505 140.323L108.754 128.659C109.822 128.043 111.286 128.319 111.869 129.328L111.918 129.412L116.046 136.562C116.24 136.899 116.653 136.997 116.96 136.708L132.211 126.332C132.478 126.178 132.6 125.771 132.454 125.519C131.329 123.365 131.628 124.089 131.28 123.28L127.2 116.214C127.006 115.878 127.127 115.471 127.346 115.233L129.409 113.257C129.716 112.967 129.886 112.645 129.741 112.392L129.255 111.551L108.388 123.711C107.943 123.967 107.393 123.837 107.15 123.416ZM129.023 124.92L117.178 132.768L127.194 124.63L126.238 118.452L129.023 124.92Z"
    fill="white" />
  <path d="M79.6979 139.378L75.1811 131.554L73.1341 132.736L77.6509 140.56L79.6979 139.378Z" fill="white" />
  <path
    d="M169.763 73.8066L172.231 74.1763L183 67.9588L178.087 59.2429C178.087 59.2429 173.182 50.7466 171.71 58.8865L169.763 73.8066ZM179.901 66.4956L173.76 70.0411L171.98 69.8351L172.99 62.7465C173.676 55.5084 176.355 60.3547 176.355 60.3547L179.901 66.4956Z"
    fill="white" />
  <path d="M73.0534 134.24L52.1384 146.315L55.3925 151.952L76.3075 139.876L73.0534 134.24Z" fill="white" />
  <path
    d="M122.31 101.989C122.933 101.629 123.176 100.816 122.836 100.227L118.999 93.5816C118.805 93.2451 118.343 93.0628 117.898 93.3197L80.0885 110.663C80.0885 110.663 74.271 113.124 78.0667 116.204C78.4389 116.438 78.4148 117.013 78.1073 117.302C78.0183 117.354 77.9293 117.405 77.8403 117.457L76.9503 117.97C76.5943 118.176 76.384 118.634 76.5783 118.97L78.1004 123.251C78.2057 123.639 78.0844 124.045 77.7284 124.251L75.5924 125.484C75.2364 125.69 75.0261 126.148 75.2689 126.568L75.706 127.325C76.046 127.914 76.8714 128.111 77.4944 127.751L122.31 101.989ZM88.9974 109.445C89.1187 109.038 89.3776 108.665 89.7821 108.543L118.077 95.6842C118.392 95.6142 118.53 95.6469 118.676 95.8993L120.117 99.2173C120.262 99.4697 120.044 99.708 119.866 99.8107C110.545 104.631 101.184 109.587 91.7739 114.459C91.3289 114.716 90.8676 114.534 90.5358 114.165C90.0178 113.679 89.5888 113.141 89.2003 112.468C89.1517 112.384 89.0546 112.216 89.006 112.132C88.7469 111.272 88.6658 110.309 88.9974 109.445ZM78.681 113.158C79.215 112.849 79.7653 112.98 80.0567 113.485C80.3481 113.99 80.1864 114.532 79.6524 114.84C79.1184 115.148 78.5681 115.018 78.2767 114.513C78.0339 114.092 78.147 113.466 78.592 113.209L78.681 113.158Z"
    fill="white" />
  <path
    d="M96.7795 136.694L101.928 145.611L101.879 146.761L101.928 148.078C100.65 149.153 100.399 150.98 101.176 152.326C101.419 152.746 101.654 152.947 102.026 153.181C102.212 153.298 102.172 153.434 102.083 153.485C99.9472 155.952 100.295 156.76 100.935 158.073C101.323 158.746 101.93 159.181 102.392 159.363C102.44 159.448 102.529 159.396 102.578 159.48C102.626 159.564 102.586 159.7 102.416 160.022C101.267 162.144 100.968 163.887 101.268 164.611C101.559 165.116 102.077 165.602 102.587 165.868C102.725 165.901 102.417 166.191 102.061 166.396C87.02 173.846 88.2815 169.865 88.2815 169.865C92.4613 151.413 91.5455 143.866 89.2145 141.062L96.7795 136.694Z"
    fill="white" />
  <path
    d="M97.7585 136.129L102.518 144.373C102.761 144.793 103.263 144.84 103.619 144.635L114.825 137.941C115.181 137.735 115.342 137.193 115.148 136.857L111.36 130.295C110.874 129.454 109.773 129.192 108.883 129.706L97.7585 136.129ZM112.688 135.473C113.311 136.347 113.133 137.683 112.203 138.333L105.083 142.443C104.193 142.957 103.084 142.476 102.453 141.382L100.599 137.966C99.9758 137.092 100.154 135.756 101.084 135.106L108.204 130.995C109.094 130.482 110.203 130.963 110.834 132.057L112.688 135.473Z"
    fill="white" />
  <path
    d="M103.576 134.901L101.885 135.877C103.002 137.812 104.993 138.793 108.092 137.789C108.318 137.771 108.302 137.331 108.075 137.35C106.06 136.943 104.652 136.971 103.576 134.901Z"
    fill="white" />
  <path
    d="M128.022 97.9054L125.239 98.8394C125.061 98.9422 124.931 99.129 125.029 99.2973L131.925 111.243C132.022 111.411 132.297 111.476 132.427 111.289L134.441 109.229L127.933 97.9567L128.022 97.9054Z"
    fill="white" />
  <path
    d="M76.071 131.04L80.5877 138.863L85.7497 135.883C86.9067 135.215 87.4001 133.808 86.8091 132.579L86.0239 131.014L105.563 119.845C105.83 119.69 106.243 119.789 106.389 120.041L107.603 122.144C107.846 122.565 108.348 122.612 108.704 122.406L130.064 110.074L125.401 101.998L76.071 131.04ZM85.466 133.13C85.7574 133.635 85.6038 134.397 85.0698 134.705L82.6668 136.092C82.1328 136.401 81.356 136.288 81.0646 135.784L80.2875 134.438C79.9475 133.849 80.2387 133.12 80.7727 132.812L83.0867 131.476C83.6207 131.167 84.3975 131.28 84.6889 131.784L85.466 133.13Z"
    fill="white" />
  <path d="M216.816 49.6685L215.927 50.1836L219.579 56.4871L220.468 55.972L216.816 49.6685Z" fill="white" />
  <path d="M215.036 50.6968L214.147 51.2119L217.799 57.5154L218.688 57.0003L215.036 50.6968Z" fill="white" />
  <path
    d="M223.318 45.9161L217.711 49.1533L221.354 55.4624L226.96 52.2252C227.405 51.9683 227.616 51.5104 227.373 51.0898L224.556 46.2108C224.313 45.7901 223.763 45.6592 223.318 45.9161Z"
    fill="white" />
  <path
    d="M172.903 75.1349L176.546 81.444L216.904 58.0315L213.261 51.7223C213.261 51.7223 173.081 75.0321 172.903 75.1349Z"
    fill="white" />
  <path
    d="M171.479 74.7221L166.955 74.0811L174.677 87.4564C174.677 87.4564 175.874 84.1856 176.238 82.966L171.479 74.7221Z"
    fill="white" />
  <path
    d="M165.871 74.259L128.135 96.0459L136.197 110.01L173.933 88.2232L165.871 74.259ZM163.761 84.7866L166.044 88.7403L165.243 89.2028L162.96 85.2491L158.955 87.5613L161.238 91.5151L160.437 91.9775L158.154 88.0238L154.149 90.3361L156.432 94.2898L155.631 94.7523L153.348 90.7985L149.343 93.1108L151.626 97.0645L150.825 97.527L148.542 93.5733L144.537 95.8856L146.82 99.8393L146.019 100.302L143.736 96.348L139.731 98.6603L142.014 102.614L141.213 103.077L138.93 99.1228L138.445 98.2816L136.259 94.4961L137.06 94.0336L139.246 97.8191L143.251 95.5068L141.065 91.7214L141.866 91.2589L144.052 95.0444L148.057 92.7321L145.871 88.9466L146.672 88.4841L148.858 92.2696L152.863 89.9573L150.677 86.1719L151.478 85.7094L153.664 89.4949L157.669 87.1826L155.483 83.3971L156.284 82.9347L158.47 86.7201L162.475 84.4078L160.289 80.6224L161.09 80.1599L163.276 83.9454L163.761 84.7866Z"
    fill="white" />
  <path
    d="M155.489 152.262C152.624 149.766 140.208 138.539 134.664 129.963C134.178 129.122 133.498 127.944 133.498 127.944L125.699 133.345L125.124 133.789L122.422 135.685L119.542 137.685C119.785 138.105 120.027 138.526 120.367 139.115L121.047 140.292C124.819 146.415 132.744 157.879 143.491 164.573C143.774 164.858 144.227 164.82 144.486 164.447C144.486 164.447 144.486 164.447 144.575 164.395L155.351 153.463C155.837 153.07 155.861 152.496 155.489 152.262ZM143.919 160.175C135.963 154.001 129.238 146.668 123.928 138.293L124.947 137.592C130.208 145.883 136.845 153.267 144.704 159.274L143.919 160.175ZM146.589 157.4C139.442 152.217 132.28 144.126 127.204 135.953L128.135 135.303C133.161 143.393 139.563 150.576 147.236 156.466L146.589 157.4ZM149.574 154.555C142.039 148.698 135.548 141.566 130.522 133.477L131.541 132.776C136.47 140.697 142.824 147.797 150.221 153.621L149.574 154.555Z"
    fill="white" />
  <path
    d="M54.7456 152.887L50.5688 145.652L10.7858 168.621C9.83957 171.298 11.9684 174.78 14.4286 176.164L54.7456 152.887ZM41.4597 157.417L50.3597 152.278L50.7483 152.951L41.8483 158.09L41.4597 157.417ZM16.4021 171.772L25.3022 166.633L25.6907 167.306L16.7907 172.445L16.4021 171.772Z"
    fill="white" />
  <path
    d="M15.092 176.902C18.3214 180.646 27.7507 192.251 28.1562 197.064C28.1725 197.503 28.5529 197.956 29.095 197.868C31.1179 197.261 31.765 196.326 34.3616 191.574L55.2311 153.728L15.092 176.902ZM34.7482 182.378C31.6509 192.018 28.154 185.961 28.154 185.961C26.8346 183.47 25.6771 181.671 24.4629 179.568C23.5887 178.054 24.1062 176.072 25.7972 175.096L38.8802 167.543C39.6812 167.08 40.5714 167.8 40.2398 168.664C38.6465 172.276 35.848 178.939 34.7482 182.378Z"
    fill="white" />
  <path
    d="M107.15 123.416L105.936 121.313C105.79 121.06 105.378 120.962 105.111 121.116L87.2621 131.309L87.6992 132.066C88.533 133.716 87.8779 135.664 86.1869 136.641L81.0249 139.621L81.7049 140.799C83.0803 139.892 86.2925 138.262 88.5505 140.323L108.754 128.659C109.822 128.043 111.286 128.319 111.869 129.328L111.918 129.412L116.046 136.562C116.24 136.899 116.653 136.997 116.96 136.708L132.211 126.332C132.478 126.178 132.6 125.771 132.454 125.519C131.329 123.365 131.628 124.089 131.28 123.28L127.2 116.214C127.006 115.878 127.127 115.471 127.346 115.233L129.409 113.257C129.716 112.967 129.886 112.645 129.741 112.392L129.255 111.551L108.388 123.711C107.943 123.967 107.393 123.837 107.15 123.416ZM129.023 124.92L117.178 132.768L127.194 124.63L126.238 118.452L129.023 124.92Z"
    fill="white" />
  <path d="M79.6979 139.378L75.1811 131.554L73.1341 132.736L77.6509 140.56L79.6979 139.378Z" fill="white" />
</svg>