<svg width="256" height="256" viewBox="0 0 256 256" fill="none" xmlns="http://www.w3.org/2000/svg">
<path d="M167.878 100.419L237.886 59.9998C237.886 59.9998 238.202 59.3337 237.217 57.6266C236.231 55.9195 235.496 55.8603 235.496 55.8603L165.488 96.2793L167.878 100.419Z" fill="white"/>
<path d="M226.555 60.0733L229.998 58.0859L229.209 56.7198C229.032 56.4135 229.137 56.023 229.443 55.8462C229.749 55.6694 229.854 55.2789 229.677 54.9726L228.827 53.5001C228.558 53.0353 227.966 52.8765 227.501 53.1449L224.628 54.8038C224.163 55.0721 224.004 55.6648 224.272 56.1296L226.551 60.0758L226.555 60.0733Z" fill="white"/>
<path d="M164.699 97.0257L96.8887 136.176L98.0736 138.228L165.883 99.0782L164.699 97.0257Z" fill="white"/>
<path d="M66.7206 143.151L68.2579 145.813L69.7826 144.933C69.7826 144.933 70.8211 146.922 71.8477 147.291C72.8742 147.66 73.8486 147.045 73.8486 147.045L74.4404 148.07L84.8653 142.051L84.4541 141.339C84.0265 140.598 83.081 140.345 82.3403 140.773L82.3013 140.795C81.5607 141.223 80.6151 140.969 80.1876 140.229C79.76 139.488 78.8144 139.235 78.0738 139.663L77.3159 140.1C76.5753 140.528 75.6297 140.274 75.2021 139.534L74.051 137.54C73.7636 137.037 73.1229 136.865 72.6234 137.154L70.2517 138.523C69.75 138.813 69.5784 139.453 69.868 139.955C70.1477 140.439 69.9961 141.06 69.5244 141.361L66.7228 143.149L66.7206 143.151Z" fill="white"/>
<path d="M84.4659 160.193L86.049 159.259C86.049 159.259 86.0508 160.485 86.6691 161.165C87.1033 161.641 87.9741 161.81 88.374 161.866C88.4929 161.882 88.5824 161.986 88.5761 162.106C88.5725 162.215 88.4939 162.31 88.3861 162.328C87.895 162.421 86.534 162.601 85.7522 161.97C84.6964 161.114 84.4603 160.193 84.4603 160.193L84.4659 160.193Z" fill="white"/>
<path d="M90.4678 156.504L92.051 155.57C92.051 155.57 92.0527 156.797 92.671 157.477C93.1052 157.953 93.976 158.122 94.376 158.178C94.4949 158.193 94.5843 158.298 94.578 158.417C94.5744 158.526 94.4959 158.621 94.388 158.64C93.8969 158.732 92.5359 158.913 91.7542 158.281C90.6984 157.425 90.4622 156.505 90.4622 156.505L90.4678 156.504Z" fill="white"/>
<path d="M97.2965 160.268L87.4167 165.972C85.9485 166.819 84.0982 166.373 83.2919 164.977L82.8017 164.127C82.4543 163.526 82.0257 162.974 81.5311 162.484L81.2768 162.234L82.728 161.141C82.8871 162.013 83.1948 162.852 83.6386 163.621L84.139 164.488C84.6894 165.441 85.9515 165.746 86.9549 165.167L96.8347 159.463C97.836 158.885 98.2049 157.638 97.6545 156.684L97.3336 156.094C96.8133 155.137 96.0334 154.348 95.0817 153.823L94.7411 153.635L97.1162 152.116L97.1593 152.722C97.2201 153.585 97.477 154.421 97.9084 155.168L98.5015 156.195C99.3078 157.592 98.769 159.417 97.3009 160.265L97.2965 160.268Z" fill="white"/>
<path d="M74.4149 150.352L75.0782 151.501L83.8591 146.432C84.3043 146.175 84.936 146.291 85.193 146.736L85.3911 147.079C85.6131 147.464 86.1064 147.596 86.4908 147.374L97.7932 140.848C98.1776 140.626 98.3098 140.133 98.0878 139.749L96.2408 136.55L74.798 148.93C74.3007 149.217 74.1299 149.854 74.4171 150.351L74.4149 150.352Z" fill="white"/>
<path d="M87.6367 147.581L85.6384 152.812L85.499 152.811C85.2573 152.809 85.0231 152.875 84.8211 152.991C84.5605 153.142 84.3522 153.378 84.2415 153.668C83.9783 154.355 84.3258 155.128 85.0122 155.389C85.6999 155.652 86.4722 155.304 86.7333 154.618C86.9304 154.102 86.7834 153.506 86.3659 153.139L86.2603 153.046L88.5498 147.051L87.6376 147.577L87.6367 147.581Z" fill="white"/>
<path d="M98.4685 138.907L98.8635 139.591C99.2246 140.216 99.0107 141.015 98.3852 141.376L89.1027 146.735L86.7336 152.939C87.1961 153.419 87.3492 154.136 87.1072 154.765C86.9596 155.151 86.6869 155.456 86.3546 155.648C85.8312 155.95 85.1575 155.977 84.5724 155.626C84.0827 155.329 83.7696 154.792 83.7478 154.223C83.712 153.233 84.4679 152.481 85.3573 152.416L87.0807 147.902L86.8027 148.063C86.1794 148.423 85.3777 148.208 85.0178 147.585C85.0178 147.585 84.9276 147.449 84.8275 147.315C84.7089 147.155 84.4872 147.112 84.3135 147.212C79.3703 150.066 76.1747 151.935 75.7195 152.249C73.1847 154.008 69.4844 161.172 66.6173 163.122C64.8642 164.314 62.9354 164.339 61.6988 164.178C60.7838 164.058 59.8527 164.251 59.0722 164.745L24.8382 186.418C23.9874 186.956 23.7672 188.099 24.3544 188.916L37.0745 206.609C37.7109 207.496 38.995 207.588 39.7511 206.801C45.1338 201.218 63.6983 181.992 65.239 180.723C66.4232 179.749 67.3608 180.656 67.8692 181.396C68.2177 181.905 68.7871 182.219 69.4044 182.245C70.1252 182.274 71.1469 182.243 72.3469 181.999C73.893 181.683 75.5911 180.717 76.5943 180.077C77.1213 179.741 77.3766 179.11 77.2333 178.501C76.6461 175.999 75.2729 169.387 76.447 166.691C77.9083 163.334 82.274 160.518 85.2029 158.679C87.8979 156.987 150.815 118.084 160.881 111.861C161.729 111.337 162.265 110.431 162.316 109.435C162.323 108.469 162.814 107.575 163.622 107.048L166.817 104.968C167.823 104.312 168.142 102.984 167.541 101.944L166.278 99.7568C166.278 99.7568 125.386 123.47 98.4706 138.906L98.4685 138.907Z" fill="white"/>
</svg>
