<svg width="256" height="256" viewBox="0 0 256 256" fill="none" xmlns="http://www.w3.org/2000/svg">
<path d="M99.6323 133.807C100.031 134.105 104.85 137.242 107.816 133.93C107.838 133.903 107.851 133.869 107.853 133.834C107.855 133.799 107.847 133.765 107.83 133.734C107.812 133.704 107.786 133.679 107.755 133.664C107.723 133.649 107.688 133.643 107.653 133.648C106.508 133.728 104.942 134.346 102.473 132.59C101.166 131.632 100.067 128.422 100.067 128.422L95.4976 132.719C95.8684 133.526 96.4664 134.208 97.2186 134.681C97.8273 134.978 98.8603 133.228 99.6323 133.807Z" fill="white"/>
<path d="M120.242 88.1827C120.125 88.1362 119.999 88.116 119.873 88.1236C119.747 88.1311 119.624 88.1662 119.513 88.2264L116.918 89.725C116.781 89.8128 116.683 89.9482 116.641 90.1049C116.599 90.2615 116.616 90.4282 116.691 90.5724L117.206 91.4659L121.981 88.8447L120.242 88.1827Z" fill="white"/>
<path d="M45.812 143.106C46.4461 143.629 46.7654 144.222 47.6676 144.387C47.7699 142.185 47.5883 139.978 47.1273 137.822C46.5874 138.202 46.1908 138.752 46.0012 139.385C45.9595 139.493 45.8937 139.591 45.8087 139.67C45.7237 139.749 45.6218 139.808 45.5108 139.841C44.5378 140.154 42.0752 141.139 42.324 143.189C42.3283 143.224 42.3414 143.257 42.362 143.285C42.3827 143.313 42.4102 143.335 42.4419 143.349C42.4737 143.363 42.5085 143.369 42.5432 143.366C42.5778 143.363 42.6111 143.351 42.6397 143.331C44.232 142.223 45.043 142.479 45.812 143.106Z" fill="white"/>
<path d="M81.3279 200.782C82.2377 200.182 82.8793 199.252 83.1177 198.188L79.1592 200.474C79.4268 200.772 79.7908 200.966 80.1874 201.023C80.584 201.079 80.9878 200.994 81.3279 200.782Z" fill="white"/>
<path d="M53.1491 125.267C52.714 125.232 51.5119 125.187 51.2464 126.125L50.9766 127.577C50.9275 127.886 50.9825 128.201 51.1329 128.475L51.4006 128.938L57.1674 125.684C56.5613 125.627 55.0887 125.414 53.1491 125.267Z" fill="white"/>
<path d="M86.2782 135.033C86.4653 134.923 86.6014 134.744 86.6568 134.534C86.7121 134.324 86.6823 134.101 86.5737 133.913L84.9772 131.147L76.3081 136.152L77.9046 138.918C78.0132 139.102 78.1891 139.238 78.3955 139.296C78.6019 139.354 78.8227 139.33 79.0116 139.229L86.2782 135.033Z" fill="white"/>
<path d="M128.776 89.9963C130.321 92.2264 131.666 94.5893 132.792 97.0572L134.924 95.8264C133.874 93.3197 132.447 90.9883 130.692 88.913L128.776 89.9963Z" fill="white"/>
<path d="M54.0071 135.765L47.9337 139.272C48.1721 141.147 48.1068 145.958 48.1315 146.223L62.4442 137.959C63.0097 137.633 65.2705 136.599 65.4145 134.563C65.5033 133.411 64.3018 131.33 63.4 130.342L61.7035 131.322C62.4193 131.566 63.0218 132.062 63.3993 132.718L63.7258 133.283C64.0288 133.808 64.1109 134.432 63.9541 135.018C63.7972 135.603 63.4142 136.102 62.8892 136.405L57.7998 139.344C57.2748 139.647 56.651 139.729 56.0655 139.572C55.48 139.415 54.9809 139.032 54.6778 138.507L54.3513 137.942C53.9758 137.282 53.8535 136.508 54.0071 135.765Z" fill="white"/>
<path d="M126.255 87.1686L46.9283 132.214C46.7955 132.289 46.6896 132.405 46.6251 132.543C46.5605 132.682 46.5406 132.837 46.5681 132.987L46.9625 135.172C47.2609 135.958 47.517 136.759 47.7297 137.572C47.7721 137.645 47.775 137.742 47.7915 137.823L128.844 91.0269C128.076 89.6795 127.211 88.39 126.255 87.1686Z" fill="white"/>
<path d="M87.1389 133.587C87.3329 133.926 87.3849 134.328 87.2838 134.706C87.1826 135.083 86.9364 135.406 86.5988 135.603L79.3378 139.795C78.9988 139.99 78.596 140.044 78.218 139.942C77.8399 139.841 77.5176 139.594 77.3219 139.255L75.7254 136.489L49.0905 151.867C49.5269 153.108 50.1743 154.265 51.0042 155.286C51.0839 155.382 51.1959 155.446 51.3192 155.466L53.1573 155.724C53.3296 155.754 53.5068 155.726 53.6615 155.644C54.9868 154.962 61.6625 151.937 64.3314 158.532C67.3189 165.901 66.4819 182.029 71.3076 191.511C76.1333 200.992 76.7856 200.894 78.7334 199.958L84.2074 196.798C84.134 196.184 84.1145 195.564 84.1489 194.947C84.1924 194.379 84.3745 193.831 84.6792 193.35C84.9839 192.869 85.4019 192.47 85.8966 192.188L101.273 183.311C101.273 183.311 102.93 182.264 101.821 179.873C100.215 176.359 93.0754 158.065 92.7239 156.79C91.9821 154.082 92.5596 149.91 95.954 147.732C98.8082 145.911 110.988 137.061 114.846 134.261C115.168 134.025 115.391 133.678 115.473 133.287C115.555 132.896 115.489 132.488 115.289 132.143L111.045 124.791C111.045 124.791 108.937 121.703 111.382 120.073C113.826 118.443 120.426 114.361 121.333 112.993C121.58 112.561 121.713 112.074 121.72 111.576C121.727 111.079 121.608 110.588 121.373 110.15L85.5489 130.833L87.1389 133.587ZM86.0216 148.211C86.7185 150.123 99.1594 177.496 99.2032 178.956C99.2573 181.662 96.5673 183.245 96.4429 183.317C96.0018 183.572 79.1366 193.369 78.6524 193.589C78.2156 193.787 77.7424 193.894 77.2625 193.901C76.7827 193.908 76.3065 193.816 75.864 193.63C74.5316 193.072 73.4426 191.695 72.6255 189.536C71.3043 186.046 67.812 161.883 67.3171 159.877C67.0258 158.661 66.6147 157.476 66.0897 156.341C65.1254 154.213 64.2927 152.379 67.2397 150.497C68.372 149.768 77.1497 144.964 79.7204 143.683C80.1461 143.475 80.6137 143.368 81.0874 143.369C81.5611 143.37 82.0283 143.479 82.4531 143.689C84.2061 144.479 85.4337 146.605 86.0216 148.211ZM90.8384 150.429C90.4679 150.643 90.0423 150.742 89.6155 150.714C89.1887 150.686 88.7798 150.532 88.4406 150.271C88.1015 150.01 87.8473 149.655 87.7102 149.25C87.5732 148.844 87.5595 148.408 87.6708 147.995C87.7822 147.582 88.0135 147.211 88.3357 146.93C88.6578 146.648 89.0562 146.469 89.4804 146.414C89.9047 146.359 90.3356 146.431 90.7188 146.621C91.1019 146.811 91.42 147.111 91.6327 147.482C91.7745 147.728 91.8664 147.999 91.9032 148.28C91.94 148.561 91.921 148.847 91.8472 149.12C91.7734 149.394 91.6463 149.651 91.4732 149.875C91.3001 150.1 91.0843 150.288 90.8384 150.429ZM102.504 125.801C106.208 122.683 107.513 122.291 110.682 127.233C111.517 128.464 112.182 129.801 112.661 131.209C112.761 131.537 112.754 131.887 112.644 132.211C112.533 132.535 112.323 132.815 112.044 133.013L96.7204 143.783C96.2724 144.107 95.758 144.327 95.2144 144.427C93.9665 144.642 91.885 144.471 90.5882 141.533C88.6263 137.116 99.2016 128.583 102.504 125.801Z" fill="white"/>
<path d="M84.8128 194.985C84.7854 195.467 84.7948 195.951 84.8411 196.432L101.891 186.588C102.131 186.449 102.306 186.221 102.378 185.954C102.449 185.686 102.412 185.401 102.273 185.161L101.562 183.928L86.2366 192.776C85.8377 193.001 85.4997 193.32 85.2517 193.705C85.0036 194.09 84.853 194.529 84.8128 194.985Z" fill="white"/>
<path d="M89.007 147.257C88.7486 147.406 88.5403 147.628 88.4083 147.896C88.2764 148.163 88.2268 148.464 88.2657 148.76C88.3046 149.056 88.4304 149.333 88.6271 149.557C88.8238 149.782 89.0826 149.943 89.3708 150.02C89.6589 150.097 89.9635 150.087 90.246 149.991C90.5285 149.895 90.7762 149.718 90.9579 149.481C91.1395 149.244 91.2468 148.959 91.2663 148.662C91.2858 148.364 91.2166 148.067 91.0675 147.809C90.8674 147.462 90.538 147.209 90.1516 147.106C89.7652 147.002 89.3534 147.057 89.007 147.257Z" fill="white"/>
<path d="M179.095 55.9452L128.698 85.042C132.43 89.4921 135.401 94.5278 137.492 99.946L188.064 70.748C186.396 65.0908 183.211 59.2468 179.095 55.9452Z" fill="white"/>
<path d="M80.0042 144.265C77.7971 145.366 70.5141 149.337 68.1899 150.679L67.5735 151.035C65.1224 152.601 65.7121 153.897 66.705 156.06C67.2879 157.23 67.7173 158.469 67.9825 159.749C68.1113 160.481 68.3648 162.122 68.7062 164.398C69.8468 171.898 71.9735 185.885 73.2716 189.283C74.0256 191.268 74.9934 192.526 76.1715 193C76.5286 193.147 76.9118 193.221 77.2981 193.217C77.6844 193.213 78.0659 193.131 78.4198 192.976C79.8053 192.372 95.9784 182.838 96.1424 182.744C96.1707 182.727 98.6369 181.266 98.5724 178.973C98.5296 177.528 93.798 167.178 90.3359 159.601C87.8429 154.133 85.8317 149.383 85.3987 148.359C84.648 146.576 83.5811 144.884 82.1893 144.263C81.8502 144.093 81.4759 144.004 81.0964 144.004C80.717 144.005 80.3429 144.094 80.0042 144.265ZM83.5273 176.644C82.6939 177.125 81.7364 177.348 80.776 177.285C79.8157 177.222 78.8956 176.875 78.1323 176.289C77.3689 175.703 76.7966 174.903 76.4877 173.992C76.1788 173.08 76.1472 172.098 76.3969 171.168C76.6466 170.239 77.1664 169.404 77.8906 168.77C78.6147 168.136 79.5106 167.732 80.4649 167.607C81.4192 167.482 82.3891 167.643 83.2517 168.07C84.1144 168.497 84.8311 169.17 85.3112 170.004C85.9543 171.121 86.1276 172.448 85.7931 173.693C85.4586 174.938 84.6437 175.999 83.5273 176.644Z" fill="white"/>
<path d="M78.9927 168.789C78.2713 169.205 77.6896 169.826 77.3212 170.573C76.9527 171.32 76.8141 172.16 76.9228 172.986C77.0316 173.812 77.3828 174.587 77.932 175.213C78.4812 175.839 79.2038 176.289 80.0085 176.504C80.8131 176.72 81.6636 176.692 82.4523 176.424C83.2411 176.157 83.9328 175.661 84.4399 175C84.947 174.339 85.2468 173.543 85.3012 172.712C85.3557 171.88 85.1625 171.052 84.746 170.33C84.1875 169.363 83.2676 168.657 82.1886 168.368C81.1096 168.079 79.96 168.23 78.9927 168.789Z" fill="white"/>
<path d="M59.5621 137.603L62.5875 135.856C62.8939 135.679 63.1344 135.406 63.2726 135.08C63.4108 134.754 63.4393 134.392 63.3537 134.049C63.33 133.956 63.3001 133.865 63.2642 133.776C63.2316 133.72 63.1957 133.657 63.163 133.601L62.8365 133.035C62.6197 132.663 62.2646 132.392 61.8486 132.28C61.4326 132.169 60.9894 132.226 60.6155 132.44L58.0877 133.9L57.5788 134.194C57.2038 134.41 56.9302 134.767 56.8182 135.185C56.7061 135.603 56.7648 136.049 56.9813 136.424L57.3078 136.989C57.5092 137.339 57.8334 137.602 58.2175 137.727C58.6016 137.852 59.0185 137.83 59.3874 137.666L59.5621 137.603Z" fill="white"/>
<path d="M129.507 92.1751L63.9938 129.999C64.8803 130.829 66.1915 133.179 66.0893 134.595C65.9293 136.851 63.5228 138.09 62.7933 138.511L48.1696 146.954C48.2331 148.177 48.4118 149.392 48.7033 150.582L69.9546 138.312C69.9546 138.312 69.9546 138.312 69.9318 138.273L68.0965 130.458C68.0679 130.373 68.0572 130.282 68.0651 130.193C68.073 130.103 68.0992 130.017 68.1422 129.938C68.1852 129.859 68.2439 129.79 68.3149 129.734C68.3858 129.679 68.4673 129.639 68.5544 129.617C68.6414 129.595 68.7321 129.591 68.8208 129.606C68.9094 129.62 68.9942 129.653 69.0696 129.701C69.1451 129.75 69.2097 129.814 69.2595 129.889C69.3092 129.963 69.3429 130.048 69.3586 130.136L71.1196 137.64L72.7765 136.683C72.7765 136.683 72.7765 136.683 72.7536 136.643L70.9183 128.829C70.8896 128.666 70.9233 128.499 71.0127 128.361C71.102 128.222 71.2404 128.123 71.4001 128.082C71.5598 128.041 71.729 128.062 71.8737 128.141C72.0184 128.22 72.128 128.351 72.1804 128.507L73.9414 136.01L75.5983 135.054C75.5983 135.054 75.5983 135.054 75.5754 135.014L73.7402 127.199C73.7114 127.037 73.7451 126.87 73.8345 126.731C73.9239 126.593 74.0623 126.493 74.222 126.453C74.3817 126.412 74.5508 126.433 74.6955 126.512C74.8403 126.591 74.9498 126.722 75.0022 126.878L76.7632 134.381L78.4201 133.425C78.4201 133.425 78.4201 133.425 78.3973 133.385L76.562 125.57C76.5333 125.408 76.567 125.241 76.6563 125.102C76.7457 124.964 76.8841 124.864 77.0438 124.824C77.2035 124.783 77.3727 124.804 77.5174 124.883C77.6621 124.962 77.7716 125.092 77.8241 125.249L79.585 132.752L81.242 131.795C81.242 131.795 81.242 131.795 81.2191 131.756L79.3838 123.941C79.3553 123.856 79.3446 123.766 79.3524 123.676C79.3603 123.587 79.3865 123.5 79.4295 123.421C79.4725 123.342 79.5313 123.273 79.6022 123.218C79.6731 123.163 79.7547 123.123 79.8417 123.101C79.9288 123.078 80.0195 123.074 80.1081 123.089C80.1968 123.103 80.2815 123.136 80.357 123.185C80.4324 123.233 80.4971 123.297 80.5468 123.372C80.5965 123.447 80.6302 123.531 80.6459 123.619L82.4069 131.123L84.0638 130.166C84.0638 130.166 84.0638 130.166 84.0409 130.127L82.2057 122.312C82.1771 122.227 82.1664 122.136 82.1743 122.047C82.1821 121.958 82.2084 121.871 82.2513 121.792C82.2943 121.713 82.3531 121.644 82.424 121.589C82.495 121.533 82.5765 121.494 82.6635 121.471C82.7506 121.449 82.8413 121.445 82.9299 121.46C83.0186 121.474 83.1033 121.507 83.1788 121.555C83.2543 121.604 83.3189 121.668 83.3686 121.743C83.4183 121.818 83.4521 121.902 83.4677 121.99L85.2287 129.494L134.303 101.161C133.781 100.127 130.242 93.1227 129.507 92.1751Z" fill="white"/>
</svg>
