<svg width="256" height="256" viewBox="0 0 256 256" fill="none" xmlns="http://www.w3.org/2000/svg">
<path d="M109.791 182.649L110.624 184.57C116.319 181.283 123.572 176.814 126.369 175.079C126.684 174.882 126.91 174.571 127.001 174.211C127.091 173.851 127.038 173.469 126.853 173.147L126.702 172.885L109.791 182.649Z" fill="white"/>
<path d="M129.16 105.063L126.506 100.467L70.6177 132.734L72.6801 136.306C72.6801 136.306 73.6387 138.264 70.7536 140.488C69.4164 141.52 71.6169 143.788 73.0551 142.958C74.4933 142.127 79.7196 140.574 82.5931 141.255C85.4666 141.936 87.0455 143.65 88.6499 150.473C90.2543 157.295 91.8231 167.666 95.7672 177.495C99.6267 187.158 100.697 188.822 103.225 188.39C104.035 188.25 106.825 186.754 110.245 184.79L109.233 182.451L126.476 172.495L126.217 172.046C126.617 171.312 126.745 170.461 126.58 169.642C126.274 168.354 122.385 164.904 121.402 162.694C119.289 157.953 120.319 156.306 119.666 153.613C119.013 150.921 115.604 144.557 114.844 143.24C114.083 141.922 113.446 138.788 116.94 137.501C119.09 136.713 122.026 135.878 123.942 135.36C125.288 134.996 126.581 134.46 127.789 133.764L140.061 126.679C141.176 125.994 141.478 124.819 140.963 123.928L135.931 115.103C135.441 114.243 135.243 113.248 135.366 112.266C135.455 111.568 135.704 110.9 136.093 110.314C136.482 109.728 137.001 109.239 137.61 108.886L139.982 107.517L129.16 105.063ZM98.1298 172.561L116.765 161.802C116.886 162.247 117.033 162.684 117.203 163.112L98.6974 173.797C98.5024 173.378 98.3158 172.964 98.1298 172.561ZM99.6731 175.839L118.343 165.06C118.619 165.421 118.912 165.774 119.204 166.126L100.315 177.031C100.108 176.646 99.8955 176.242 99.6888 175.83L99.6731 175.839ZM121.197 168.894C121.182 169.028 121.12 169.153 121.02 169.246L102.081 180.181C101.898 179.864 101.67 179.469 101.404 179.008L120.633 167.906C120.856 168.214 121.045 168.545 121.197 168.894ZM116.23 159.505L97.3299 170.417C97.1783 169.98 97.0309 169.544 96.8875 169.109L115.944 158.107L116.23 159.505ZM115.233 154.349C115.307 154.827 115.38 155.306 115.457 155.783L96.3064 166.839C96.3064 166.839 95.9175 165.85 95.8327 165.549L115.233 154.349ZM114.832 151.975L95.2282 163.293C95.1079 162.805 94.9995 162.346 94.9069 161.915L114.448 150.633C114.565 150.925 114.801 151.795 114.832 151.975ZM113.488 148.582L94.4431 159.577C94.3616 159.129 94.2654 158.638 94.1883 158.161L112.85 147.387L113.488 148.582ZM93.8026 155.778C93.7255 155.302 93.6562 154.821 93.5908 154.337L111.065 144.249L111.126 144.354C111.34 144.726 111.545 145.081 111.742 145.421L93.8026 155.778ZM111.003 141.679L93.2716 151.916C93.2104 151.413 93.1567 150.923 93.1105 150.446L110.283 140.531C110.596 140.863 110.84 141.253 111.003 141.679ZM108.836 136.526C108.399 136.778 107.896 136.895 107.392 136.862C106.888 136.829 106.405 136.648 106.004 136.34C105.603 136.032 105.303 135.613 105.14 135.135C104.978 134.656 104.961 134.14 105.092 133.652C105.222 133.164 105.495 132.726 105.875 132.393C106.255 132.06 106.725 131.847 107.225 131.781C107.726 131.715 108.236 131.799 108.689 132.023C109.142 132.246 109.518 132.599 109.771 133.036C110.108 133.623 110.2 134.32 110.024 134.974C109.849 135.628 109.422 136.186 108.836 136.526ZM115.281 108.615L121.256 105.165C121.781 104.85 122.403 104.74 123.004 104.856C123.604 104.972 124.141 105.306 124.511 105.793C124.702 106.065 124.836 106.374 124.902 106.7C124.968 107.026 124.965 107.363 124.894 107.688C124.823 108.013 124.685 108.32 124.489 108.589C124.293 108.858 124.044 109.084 123.756 109.251L117.768 112.708C117.245 113.025 116.622 113.136 116.021 113.02C115.419 112.904 114.883 112.569 114.514 112.08C114.321 111.807 114.187 111.497 114.121 111.17C114.055 110.842 114.058 110.504 114.13 110.178C114.202 109.852 114.342 109.544 114.54 109.275C114.738 109.006 114.99 108.781 115.281 108.615ZM138.035 123.847C138.126 124.004 138.184 124.177 138.206 124.357C138.229 124.537 138.215 124.72 138.165 124.894C138.116 125.068 138.032 125.231 137.918 125.372C137.805 125.514 137.664 125.631 137.504 125.717C133.933 127.654 126.716 132.727 121.541 133.828C118.167 134.546 114.998 134.635 112.905 130.549C111.977 128.735 111.321 127.499 111.203 126.472C111.135 125.81 111.262 125.142 111.569 124.55C111.875 123.959 112.347 123.469 112.928 123.142L116.386 121.145L116.4 121.169L119.609 119.316L127.492 114.765C128.063 114.436 128.698 114.234 129.354 114.172C130.01 114.111 130.672 114.192 131.294 114.409L131.395 114.45C132.433 114.812 133.305 115.537 133.851 116.492L138.035 123.847Z" fill="white"/>
<path d="M129.916 104.767L134.499 105.8L167.794 86.577L166.2 83.8178L129.916 104.767Z" fill="white"/>
<path d="M154.989 72.7927L74.5918 119.21L69.5194 130.805L70.1963 131.977L91.301 119.792L88.5651 112.544L89.761 111.854L92.5138 119.113L93.6863 118.436L90.9504 111.188L92.1463 110.498L94.8588 117.759L96.0312 117.082L93.2953 109.834L94.4913 109.144L97.2037 116.405L98.3762 115.728L95.6403 108.48L96.8362 107.79L99.5487 115.051L100.721 114.374L97.9853 107.126L99.1812 106.436L101.894 113.697L103.066 113.02L100.33 105.773L101.526 105.082L104.239 112.343L105.411 111.667L102.675 104.419L103.871 103.728L106.603 110.978L133.156 95.6481L130.424 88.3979L131.62 87.7074L134.352 94.9576L135.501 94.2942L132.769 87.044L133.965 86.3536L136.697 93.6037L137.846 92.9403L135.114 85.6902L136.31 84.9997L139.042 92.2499L140.191 91.5865L137.459 84.3363L138.655 83.6458L141.387 90.896L142.536 90.2326L139.804 82.9824L141 82.292L143.732 89.5421L144.881 88.8787L142.149 81.6286L143.345 80.9381L146.077 88.1883L147.226 87.5249L144.494 80.2747L145.69 79.5842L148.422 86.8344L163.082 78.3705L157.17 68.1308L154.989 72.7927ZM86.8547 120.395C86.8619 120.708 86.8069 121.02 86.6929 121.312C86.5789 121.604 86.4082 121.871 86.1906 122.097C86.0366 122.258 85.8604 122.396 85.6674 122.508C85.318 122.706 84.9248 122.813 84.5235 122.819L78.2183 122.937C77.9041 122.942 77.5919 122.886 77.2996 122.77C77.0072 122.655 76.7405 122.483 76.5147 122.264C76.2888 122.046 76.1082 121.785 75.9833 121.497C75.8583 121.208 75.7913 120.898 75.7863 120.584C75.7762 119.95 76.0178 119.339 76.4583 118.883C76.8987 118.428 77.5019 118.165 78.1354 118.154L84.425 118.046C85.0585 118.035 85.6702 118.277 86.1258 118.718C86.5813 119.158 86.8435 119.761 86.8547 120.395Z" fill="white"/>
<path d="M163.487 79.1164L126.897 100.241L129.386 104.552L165.976 83.4272L163.487 79.1164Z" fill="white"/>
<path d="M74.21 118.847L154.611 72.4272L156.7 67.9225L154.277 69.3215L152.271 68.6716C152.182 68.6444 152.088 68.6357 151.995 68.6461C151.903 68.6566 151.813 68.6859 151.733 68.7322L148.411 70.6502C148.313 70.7064 148.242 70.7991 148.213 70.9078C148.184 71.0164 148.199 71.1322 148.255 71.2297L148.932 72.4022L118.487 89.9799L119.452 91.6526L105.398 99.7668L104.435 98.0979L81.845 111.14L79.8392 110.735C79.2133 110.605 78.5614 110.709 78.0068 111.027L74.7004 112.936C74.5892 113.005 74.5087 113.114 74.4754 113.241C74.442 113.368 74.4583 113.503 74.5209 113.618L75.2159 114.822L72.5739 116.347L68.1361 128.409L69.2124 130.273L74.21 118.847Z" fill="white"/>
<path d="M118.078 90.2198L104.829 97.8691L105.569 99.1511L118.818 91.5017L118.078 90.2198Z" fill="white"/>
<path d="M122.206 109.625L123.456 108.903C123.886 108.662 124.213 108.272 124.374 107.806C124.535 107.341 124.518 106.832 124.328 106.378C124.216 106.131 124.053 105.91 123.851 105.73C123.649 105.549 123.411 105.413 123.153 105.33C122.895 105.247 122.622 105.219 122.353 105.247C122.083 105.275 121.823 105.36 121.588 105.495L120.177 106.309C119.943 106.444 119.74 106.627 119.58 106.845C119.421 107.063 119.308 107.312 119.25 107.576C119.192 107.84 119.19 108.113 119.243 108.378C119.297 108.643 119.405 108.893 119.561 109.114C119.86 109.511 120.297 109.783 120.785 109.877C121.273 109.971 121.779 109.881 122.206 109.625Z" fill="white"/>
<path d="M82.685 122.343L84.1273 122.422C84.6184 122.456 85.1049 122.308 85.494 122.007C85.8831 121.705 86.1476 121.271 86.237 120.787C86.2788 120.519 86.2639 120.245 86.1933 119.983C86.1228 119.721 85.9981 119.477 85.8273 119.266C85.6565 119.056 85.4435 118.883 85.2019 118.76C84.9603 118.636 84.6955 118.565 84.4246 118.55L82.8009 118.446C82.5315 118.431 82.2621 118.473 82.0097 118.568C81.7573 118.663 81.5276 118.81 81.3352 118.999C81.1428 119.188 80.9919 119.415 80.8922 119.666C80.7925 119.917 80.7461 120.185 80.756 120.455C80.7866 120.953 81.0008 121.421 81.3572 121.77C81.7135 122.119 82.1867 122.323 82.685 122.343Z" fill="white"/>
<path d="M106.508 132.492C106.148 132.7 105.857 133.011 105.673 133.384C105.489 133.757 105.42 134.176 105.474 134.588C105.529 135.001 105.704 135.388 105.978 135.7C106.252 136.013 106.613 136.237 107.015 136.345C107.417 136.453 107.841 136.439 108.235 136.305C108.629 136.171 108.975 135.924 109.228 135.594C109.481 135.264 109.631 134.866 109.658 134.451C109.685 134.036 109.589 133.622 109.381 133.262C109.102 132.779 108.642 132.427 108.104 132.282C107.565 132.138 106.991 132.214 106.508 132.492Z" fill="white"/>
<path d="M135.147 105.947L140.542 107.168L165.989 92.3774C166.273 92.2148 166.482 91.9465 166.569 91.6309L167.825 87.0811L135.147 105.947Z" fill="white"/>
<path d="M127.86 126.46C126.624 126.501 125.397 126.236 124.288 125.687C123.672 125.33 123.11 124.888 122.618 124.374C122.413 124.17 122.235 123.939 122.091 123.688L119.803 119.725L116.626 121.56C117.147 122.462 118.4 124.569 118.831 125.315C119.771 126.735 121.214 127.746 122.87 128.142C125.228 128.615 127.222 127.24 127.949 126.648C127.962 126.631 127.97 126.611 127.972 126.59C127.975 126.568 127.971 126.547 127.962 126.527C127.953 126.508 127.938 126.491 127.921 126.479C127.903 126.467 127.882 126.46 127.86 126.46Z" fill="white"/>
<path d="M159.404 68.534L158.181 69.2402L162.626 76.9395L163.849 76.2333L159.404 68.534Z" fill="white"/>
</svg>
