<svg width="256" height="256" viewBox="0 0 256 256" fill="none" xmlns="http://www.w3.org/2000/svg">
<path d="M125.639 118.818C126.034 119.119 130.857 122.252 133.822 118.944C133.843 118.916 133.854 118.882 133.856 118.847C133.857 118.812 133.849 118.777 133.832 118.746C133.814 118.716 133.788 118.691 133.757 118.675C133.726 118.659 133.691 118.652 133.656 118.656C132.51 118.736 130.945 119.356 128.478 117.597C127.154 116.655 126.071 113.429 126.071 113.429L121.509 117.726C121.878 118.536 122.478 119.218 123.233 119.688C123.833 119.986 124.868 118.239 125.639 118.818Z" fill="white"/>
<path d="M146.243 73.2023C146.122 73.1558 145.991 73.1369 145.862 73.1469C145.732 73.157 145.606 73.1957 145.493 73.2603L142.901 74.7571C142.83 74.7975 142.767 74.8516 142.717 74.9163C142.667 74.9809 142.63 75.0549 142.609 75.1338C142.587 75.2128 142.582 75.2952 142.592 75.3763C142.603 75.4575 142.629 75.5357 142.67 75.6066L143.184 76.4972L147.961 73.8789L146.243 73.2023Z" fill="white"/>
<path d="M71.8276 128.117C72.463 128.635 72.7843 129.233 73.6836 129.392C73.6836 129.392 73.8848 125.752 73.1426 122.834C72.6025 123.211 72.2061 123.761 72.0181 124.392C71.9761 124.502 71.9096 124.601 71.8236 124.682C71.7376 124.762 71.6344 124.822 71.5218 124.856C70.5461 125.165 68.0836 126.154 68.3209 128.18C68.3245 128.215 68.337 128.249 68.3574 128.278C68.3778 128.307 68.4052 128.33 68.4371 128.345C68.469 128.36 68.5042 128.366 68.5394 128.363C68.5745 128.361 68.6084 128.349 68.6376 128.329C70.2507 127.235 71.0569 127.49 71.8276 128.117Z" fill="white"/>
<path d="M107.338 185.775C108.499 185.105 108.959 183.82 109.124 183.182L105.158 185.472C105.426 185.773 105.792 185.969 106.192 186.024C106.591 186.08 106.998 185.992 107.338 185.775Z" fill="white"/>
<path d="M79.157 110.261C78.7241 110.228 77.5201 110.182 77.2501 111.122L76.9787 112.567C76.9289 112.876 76.9834 113.193 77.1335 113.468L77.402 113.933L83.1698 110.675C82.5655 110.644 81.1067 110.424 79.157 110.261Z" fill="white"/>
<path d="M112.284 120.042C112.476 119.932 112.615 119.75 112.672 119.537C112.73 119.323 112.7 119.096 112.589 118.905L110.99 116.136L102.337 121.132L103.936 123.901C104.046 124.092 104.228 124.232 104.441 124.289C104.655 124.346 104.882 124.316 105.073 124.206L112.284 120.042Z" fill="white"/>
<path d="M154.779 75.0141C156.324 77.2424 157.668 79.6037 158.795 82.07L160.926 80.8397C159.567 77.894 158.371 75.8151 156.697 73.9309L154.779 75.0141Z" fill="white"/>
<path d="M80.0254 120.774L73.9499 124.282C74.2071 126.143 74.1275 131.001 74.1523 131.227L88.4846 122.953C89.0471 122.628 91.3075 121.597 91.4539 119.56C91.5376 118.406 90.3436 116.322 89.4397 115.339L87.727 116.328C88.4433 116.572 89.047 117.067 89.426 117.722L89.7632 118.306C89.9165 118.566 90.0166 118.853 90.0579 119.152C90.0992 119.451 90.0808 119.755 90.0038 120.047C89.9267 120.339 89.7926 120.612 89.6091 120.852C89.4257 121.091 89.1965 121.292 88.9349 121.443L83.851 124.378C83.5915 124.528 83.3051 124.625 83.008 124.664C82.711 124.703 82.4091 124.683 82.1197 124.606C81.8303 124.528 81.559 124.394 81.3213 124.212C81.0836 124.03 80.8841 123.802 80.7343 123.543L80.3867 122.941C80.0083 122.286 79.8799 121.516 80.0254 120.774Z" fill="white"/>
<path d="M152.254 72.1889L72.957 117.25C72.8241 117.325 72.7179 117.44 72.653 117.578C72.5881 117.716 72.5678 117.871 72.5948 118.022L72.9902 120.197C73.286 120.985 73.5421 121.787 73.7575 122.6C73.7811 122.683 73.7975 122.769 73.8175 122.854L154.829 76.0821C154.139 74.6629 153.208 73.5754 152.254 72.1889Z" fill="white"/>
<path d="M113.147 118.598C113.341 118.937 113.394 119.339 113.293 119.716C113.191 120.093 112.945 120.415 112.607 120.611L105.364 124.793C105.025 124.988 104.623 125.04 104.246 124.939C103.869 124.838 103.547 124.592 103.35 124.254L101.754 121.488L75.1118 136.87C75.5425 138.105 76.1854 139.255 77.0114 140.269C77.0917 140.365 77.2041 140.43 77.3282 140.451L79.1788 140.733C79.3518 140.76 79.5289 140.732 79.685 140.653C81.0133 139.972 87.6848 136.947 90.3671 143.567C93.3553 150.933 92.5177 167.06 97.3605 176.547C102.203 186.034 102.809 185.901 104.754 184.965L110.228 181.805C110.156 181.191 110.136 180.572 110.169 179.954C110.213 179.387 110.395 178.839 110.7 178.358C111.005 177.877 111.423 177.478 111.917 177.195L127.288 168.321C127.288 168.321 128.938 167.282 127.837 164.884C126.233 161.373 119.093 143.077 118.744 141.808C118.002 139.097 118.58 134.927 121.964 132.737C124.815 130.914 136.996 122.068 140.849 119.267C141.172 119.032 141.397 118.685 141.479 118.294C141.561 117.902 141.496 117.495 141.295 117.149L137.048 109.794C137.048 109.794 134.933 106.688 137.39 105.082C139.847 103.476 146.441 99.3755 147.34 98.001C148.111 96.8392 147.566 95.5289 147.382 95.1595L111.542 115.852L113.147 118.598ZM112.03 133.218C112.729 135.127 125.166 162.498 125.209 163.954C125.292 166.646 122.575 168.244 122.442 168.321C122.002 168.575 105.138 178.369 104.655 178.59C104.218 178.788 103.745 178.894 103.266 178.902C102.786 178.909 102.31 178.817 101.867 178.632C100.536 178.074 99.4475 176.698 98.6333 174.538C97.3102 171.047 93.8217 146.894 93.3367 144.905C93.0461 143.677 92.6357 142.481 92.1114 141.334C91.1481 139.207 90.307 137.376 93.2443 135.502C94.3756 134.772 103.151 129.97 105.722 128.687C106.148 128.48 106.615 128.373 107.088 128.374C107.561 128.375 108.027 128.484 108.452 128.693C110.217 129.486 111.445 131.614 112.03 133.218ZM116.844 135.434C116.474 135.647 116.049 135.745 115.624 135.716C115.198 135.687 114.791 135.533 114.453 135.273C114.115 135.013 113.862 134.658 113.725 134.254C113.589 133.85 113.576 133.414 113.687 133.002C113.798 132.59 114.029 132.221 114.35 131.94C114.671 131.66 115.068 131.481 115.491 131.426C115.914 131.371 116.344 131.443 116.726 131.632C117.109 131.821 117.426 132.12 117.639 132.49C117.78 132.735 117.871 133.006 117.908 133.287C117.944 133.568 117.925 133.853 117.851 134.127C117.777 134.4 117.65 134.656 117.477 134.881C117.304 135.105 117.089 135.293 116.844 135.434ZM128.509 110.815C132.224 107.709 133.519 107.303 136.684 112.244C137.518 113.476 138.184 114.813 138.663 116.221C138.764 116.548 138.758 116.898 138.648 117.22C138.537 117.543 138.327 117.823 138.047 118.019L122.723 128.79C122.274 129.112 121.758 129.331 121.214 129.431C119.974 129.665 117.878 129.482 116.588 126.539C114.634 122.124 125.21 113.595 128.509 110.815Z" fill="white"/>
<path d="M110.812 179.986C110.78 180.464 110.785 180.943 110.828 181.42L127.868 171.557C127.987 171.489 128.091 171.398 128.174 171.289C128.257 171.18 128.318 171.056 128.354 170.923C128.389 170.791 128.398 170.653 128.379 170.517C128.361 170.381 128.316 170.25 128.247 170.132L127.541 168.91L112.232 177.749C111.829 177.976 111.489 178.299 111.242 178.69C110.994 179.08 110.847 179.525 110.812 179.986Z" fill="white"/>
<path d="M115.017 132.262C114.759 132.41 114.55 132.632 114.417 132.899C114.285 133.167 114.234 133.467 114.273 133.763C114.311 134.059 114.436 134.336 114.632 134.561C114.829 134.786 115.087 134.947 115.375 135.024C115.663 135.102 115.968 135.092 116.25 134.997C116.533 134.901 116.781 134.724 116.962 134.488C117.144 134.251 117.252 133.966 117.271 133.668C117.291 133.371 117.222 133.074 117.073 132.816C116.872 132.471 116.544 132.219 116.159 132.116C115.774 132.012 115.364 132.064 115.017 132.262Z" fill="white"/>
<path d="M106.013 129.273C103.807 130.374 96.5263 134.342 94.2007 135.684C93.9195 135.847 93.7104 135.967 93.5842 136.04C91.1268 137.613 91.7264 138.901 92.695 141.054C93.2793 142.223 93.7093 143.463 93.9741 144.743C94.1039 145.475 94.357 147.113 94.6971 149.392C95.8455 156.902 97.951 170.849 99.2516 174.276C99.9968 176.25 100.97 177.519 102.133 178.002C102.494 178.151 102.882 178.225 103.273 178.218C103.664 178.212 104.049 178.125 104.405 177.964C105.788 177.363 121.957 167.83 122.123 167.735C122.152 167.718 124.63 166.249 124.553 163.966C124.507 162.522 119.777 152.172 116.327 144.615C113.834 139.147 111.814 134.375 111.391 133.375C110.636 131.594 109.572 129.901 108.181 129.281C107.845 129.111 107.474 129.022 107.098 129.021C106.722 129.019 106.35 129.106 106.013 129.273ZM109.534 161.643C108.701 162.122 107.745 162.343 106.786 162.279C105.828 162.214 104.91 161.867 104.148 161.281C103.387 160.695 102.816 159.896 102.509 158.986C102.201 158.076 102.17 157.095 102.42 156.167C102.67 155.24 103.189 154.407 103.913 153.774C104.636 153.142 105.53 152.737 106.483 152.613C107.435 152.489 108.404 152.65 109.265 153.075C110.126 153.501 110.842 154.173 111.322 155.005C111.964 156.123 112.137 157.449 111.802 158.694C111.466 159.939 110.651 160.999 109.534 161.643Z" fill="white"/>
<path d="M105.006 153.791C104.287 154.21 103.707 154.832 103.341 155.579C102.975 156.326 102.839 157.165 102.95 157.99C103.06 158.815 103.413 159.588 103.963 160.213C104.513 160.837 105.236 161.284 106.04 161.498C106.844 161.712 107.694 161.683 108.481 161.414C109.269 161.145 109.959 160.649 110.465 159.988C110.97 159.327 111.269 158.531 111.322 157.7C111.375 156.87 111.181 156.042 110.765 155.322C110.487 154.843 110.119 154.423 109.679 154.087C109.239 153.751 108.738 153.505 108.203 153.362C107.668 153.22 107.11 153.185 106.562 153.258C106.013 153.332 105.485 153.513 105.006 153.791Z" fill="white"/>
<path d="M85.5767 122.612L86.085 122.319L88.609 120.861C88.9093 120.68 89.1433 120.407 89.2764 120.083C89.4094 119.758 89.4344 119.4 89.3477 119.06C89.3258 118.967 89.296 118.877 89.2587 118.789C89.2283 118.728 89.1943 118.669 89.1567 118.613L88.8174 118.025C88.6009 117.652 88.2455 117.38 87.829 117.269C87.4125 117.158 86.969 117.217 86.5957 117.433L84.0884 118.919L83.6053 119.198C83.2342 119.417 82.9646 119.774 82.8552 120.191C82.7457 120.608 82.8052 121.051 83.0208 121.424L83.358 122.008C83.5596 122.358 83.8834 122.62 84.2671 122.745C84.6507 122.87 85.0669 122.848 85.4355 122.684C85.4841 122.663 85.5313 122.639 85.5767 122.612Z" fill="white"/>
<path d="M155.48 77.2103L90.0093 115.01C90.8909 115.837 92.2053 118.189 92.1057 119.607C91.9608 121.854 89.5361 123.1 88.8114 123.519L74.1978 131.956C74.2585 133.179 74.4363 134.393 74.7288 135.582L95.9695 123.318C95.9695 123.318 95.9529 123.289 95.9466 123.279L94.1106 115.469C94.0907 115.311 94.1292 115.151 94.2187 115.019C94.3083 114.888 94.4428 114.793 94.5971 114.754C94.7513 114.714 94.9146 114.733 95.0564 114.805C95.1982 114.877 95.3087 114.999 95.3672 115.147L97.1233 122.652L98.7963 121.686C98.7963 121.686 98.7797 121.657 98.7734 121.647L96.9374 113.837C96.9034 113.751 96.8881 113.658 96.8925 113.565C96.897 113.473 96.9211 113.382 96.9633 113.3C97.0055 113.217 97.0647 113.144 97.1372 113.086C97.2096 113.028 97.2935 112.987 97.3833 112.964C97.4732 112.941 97.5669 112.937 97.6582 112.953C97.7496 112.969 97.8365 113.004 97.9132 113.056C97.9898 113.109 98.0545 113.176 98.1029 113.256C98.1514 113.335 98.1824 113.423 98.194 113.515L99.9501 121.02L101.612 120.06C101.612 120.06 101.596 120.032 101.589 120.021L99.7534 112.211C99.7194 112.125 99.7041 112.032 99.7085 111.94C99.713 111.847 99.7371 111.756 99.7793 111.674C99.8215 111.591 99.8807 111.518 99.9532 111.461C100.026 111.403 100.109 111.361 100.199 111.338C100.289 111.315 100.383 111.311 100.474 111.327C100.566 111.343 100.652 111.378 100.729 111.431C100.806 111.483 100.871 111.551 100.919 111.63C100.967 111.709 100.998 111.797 101.01 111.889L102.766 119.394L104.428 118.435C104.428 118.435 104.412 118.406 104.405 118.395L102.569 110.585C102.55 110.427 102.588 110.267 102.678 110.136C102.767 110.004 102.902 109.91 103.056 109.87C103.21 109.831 103.373 109.849 103.515 109.921C103.657 109.994 103.768 110.115 103.826 110.264L105.582 117.769L107.27 116.794C107.27 116.794 107.253 116.765 107.247 116.755L105.411 108.945C105.377 108.859 105.361 108.766 105.366 108.673C105.37 108.581 105.394 108.49 105.437 108.408C105.479 108.325 105.538 108.252 105.61 108.194C105.683 108.136 105.767 108.095 105.857 108.072C105.946 108.049 106.04 108.045 106.131 108.061C106.223 108.077 106.31 108.112 106.386 108.164C106.463 108.217 106.528 108.284 106.576 108.364C106.625 108.443 106.656 108.531 106.667 108.623L108.423 116.128L110.086 115.168C110.086 115.168 110.069 115.14 110.063 115.129L108.227 107.319C108.193 107.233 108.177 107.14 108.182 107.048C108.186 106.955 108.21 106.864 108.253 106.782C108.295 106.699 108.354 106.626 108.426 106.569C108.499 106.511 108.583 106.469 108.673 106.446C108.762 106.423 108.856 106.419 108.947 106.435C109.039 106.451 109.126 106.486 109.202 106.539C109.279 106.591 109.344 106.659 109.392 106.738C109.441 106.817 109.472 106.905 109.483 106.997L111.239 114.502L160.337 86.1557C159.793 85.1625 156.239 78.1422 155.48 77.2103Z" fill="white"/>
</svg>
