<svg width="256" height="256" viewBox="0 0 256 256" fill="none" xmlns="http://www.w3.org/2000/svg">
<path d="M66.1021 134.978C66.1158 134.936 66.1385 134.897 66.1687 134.865C66.1989 134.833 66.2357 134.807 66.2767 134.791C66.3177 134.774 66.3618 134.767 66.4059 134.769C66.4501 134.771 66.4932 134.783 66.5323 134.804C67.6428 135.431 68.9174 136.802 72.5402 136.606C73.476 136.553 74.7516 134.543 74.7516 134.543L74.0802 137.802L76.9285 139.592C76.9285 139.592 74.5914 141.859 72.4072 141.56C70.2229 141.261 67.9952 140.684 66.5386 137.756C66.063 136.913 65.908 135.927 66.1021 134.978Z" fill="white"/>
<path d="M115.739 150.94C115.616 150.479 115.49 150.022 115.364 149.564L112.621 151.147C112.751 151.603 112.878 152.061 113.004 152.518L115.739 150.94Z" fill="white"/>
<path d="M114.756 147.261C114.638 146.799 114.511 146.341 114.385 145.883L111.599 147.492C111.725 147.949 111.855 148.405 111.978 148.865L114.756 147.261Z" fill="white"/>
<path d="M115.238 149.106C115.119 148.643 114.993 148.186 114.867 147.728L112.112 149.318C112.242 149.774 112.369 150.231 112.495 150.689L115.238 149.106Z" fill="white"/>
<path d="M116.24 152.773C116.114 152.315 115.992 151.855 115.865 151.398L113.131 152.976C113.261 153.432 113.387 153.89 113.514 154.347L116.24 152.773Z" fill="white"/>
<path d="M116.745 154.604L116.366 153.231L113.643 154.803C113.77 155.26 113.896 155.718 114.026 156.174L116.745 154.604Z" fill="white"/>
<path d="M117.756 158.266L117.377 156.893L114.662 158.46C114.792 158.916 114.919 159.373 115.049 159.829L117.756 158.266Z" fill="white"/>
<path d="M117.251 156.435L116.872 155.062L114.153 156.632C114.28 157.089 114.41 157.545 114.536 158.003L117.251 156.435Z" fill="white"/>
<path d="M122.199 177.461L120.3 178.557C120.371 178.809 120.434 179.048 120.501 179.274C121.243 178.862 121.836 178.228 122.199 177.461Z" fill="white"/>
<path d="M85.5183 111.115L83.5781 110.319C83.2791 110.199 82.9477 110.188 82.6412 110.287L76.7554 112.199C76.554 112.263 76.3775 112.387 76.2503 112.556C76.1232 112.724 76.0517 112.928 76.0458 113.14L76.0048 116.608L85.5183 111.115Z" fill="white"/>
<path d="M155.045 70.8787L153.864 70.4986C153.674 70.4388 153.474 70.4198 153.276 70.4427C153.078 70.4655 152.887 70.5298 152.715 70.6314L150.438 71.946C150.229 72.0666 150.057 72.242 149.941 72.4534C149.824 72.6647 149.768 72.9038 149.777 73.145L149.808 73.9607L155.045 70.8787Z" fill="white"/>
<path d="M122.391 176.82C122.489 176.288 122.501 175.743 122.426 175.208L119.787 176.731L120.17 178.102L122.391 176.82Z" fill="white"/>
<path d="M113.769 143.584C113.636 143.078 113.517 142.615 113.414 142.197L110.592 143.827L110.971 145.2L113.769 143.584Z" fill="white"/>
<path d="M114.235 145.438C114.121 144.974 113.985 144.49 113.872 144.056L111.086 145.664C111.213 146.111 111.339 146.569 111.465 147.038L114.235 145.438Z" fill="white"/>
<path d="M118.265 160.095C118.139 159.637 118.013 159.18 117.882 158.724L115.176 160.287C115.302 160.745 115.432 161.2 115.559 161.658L118.265 160.095Z" fill="white"/>
<path d="M119.273 174.904C119.396 175.364 119.526 175.82 119.656 176.275L122.351 174.719C122.265 174.248 122.152 173.782 122.012 173.323L119.273 174.904Z" fill="white"/>
<path d="M121.882 172.868L121.487 171.504L118.761 173.078C118.887 173.536 119.013 173.994 119.144 174.449L121.882 172.868Z" fill="white"/>
<path d="M94.3143 127.749C92.3678 128.254 90.6964 129.501 89.6588 131.223C88.6211 132.945 88.2997 135.006 88.7637 136.962L98.0823 177.077C98.1168 177.232 98.1823 177.378 98.2749 177.507C98.3675 177.636 98.4852 177.745 98.6209 177.827C98.7567 177.909 98.9077 177.963 99.0649 177.986C99.222 178.008 99.3821 177.998 99.5354 177.957L113.618 174.285C113.771 174.245 113.913 174.175 114.038 174.079C114.163 173.983 114.268 173.864 114.346 173.727C114.424 173.591 114.475 173.44 114.494 173.284C114.513 173.128 114.502 172.969 114.459 172.818L103.734 133.191C103.197 131.226 101.906 129.553 100.142 128.534C98.3788 127.516 96.2846 127.234 94.3143 127.749ZM106.264 172.9C105.848 173.141 105.37 173.253 104.89 173.222C104.41 173.191 103.95 173.018 103.568 172.725C103.187 172.432 102.901 172.032 102.747 171.576C102.594 171.121 102.579 170.63 102.704 170.165C102.83 169.701 103.091 169.285 103.454 168.969C103.817 168.653 104.265 168.453 104.743 168.392C105.22 168.332 105.704 168.415 106.134 168.63C106.564 168.846 106.92 169.184 107.158 169.603C107.472 170.159 107.555 170.817 107.387 171.434C107.22 172.052 106.817 172.578 106.264 172.9ZM96.657 135.457C96.2412 135.699 95.7628 135.812 95.2826 135.781C94.8024 135.751 94.342 135.579 93.96 135.286C93.578 134.994 93.2916 134.594 93.1372 134.138C92.9828 133.683 92.9673 133.191 93.0927 132.727C93.2181 132.262 93.4788 131.846 93.8416 131.53C94.2044 131.213 94.6529 131.012 95.1303 130.952C95.6076 130.891 96.0922 130.974 96.5224 131.19C96.9526 131.405 97.3091 131.743 97.5465 132.162C97.8673 132.718 97.9545 133.378 97.7891 133.998C97.6236 134.618 97.2189 135.147 96.6639 135.469L96.657 135.457Z" fill="white"/>
<path d="M118.775 161.924C118.649 161.466 118.522 161.008 118.392 160.553L115.685 162.115C115.816 162.571 115.942 163.029 116.072 163.484L118.775 161.924Z" fill="white"/>
<path d="M94.4695 131.667C94.1313 131.86 93.858 132.149 93.6843 132.498C93.5106 132.847 93.4443 133.239 93.4938 133.625C93.5433 134.012 93.7063 134.375 93.9623 134.668C94.2182 134.962 94.5555 135.173 94.9315 135.274C95.3075 135.376 95.7051 135.364 96.0742 135.239C96.4432 135.115 96.7669 134.883 97.0044 134.575C97.2418 134.266 97.3823 133.894 97.408 133.505C97.4337 133.117 97.3435 132.729 97.1488 132.392C96.8887 131.941 96.4608 131.612 95.9587 131.476C95.4566 131.341 94.9211 131.409 94.4695 131.667Z" fill="white"/>
<path d="M104.07 169.098C103.733 169.292 103.461 169.581 103.288 169.929C103.115 170.277 103.049 170.668 103.098 171.054C103.148 171.44 103.31 171.802 103.565 172.095C103.82 172.388 104.157 172.599 104.532 172.702C104.907 172.804 105.303 172.793 105.672 172.67C106.041 172.547 106.365 172.318 106.603 172.011C106.842 171.704 106.984 171.333 107.012 170.945C107.04 170.558 106.952 170.17 106.76 169.832C106.632 169.607 106.461 169.409 106.256 169.25C106.052 169.091 105.818 168.974 105.568 168.906C105.318 168.838 105.057 168.82 104.8 168.853C104.543 168.886 104.295 168.969 104.07 169.098Z" fill="white"/>
<path d="M163.91 79.9197L147.933 89.1445L150.762 94.0446L166.74 84.8197L163.91 79.9197Z" fill="white"/>
<path d="M112.343 111.099L108.576 113.242C108.198 113.487 107.928 113.867 107.823 114.305C107.718 114.743 107.785 115.204 108.01 115.594C108.235 115.984 108.601 116.272 109.032 116.4C109.464 116.527 109.928 116.484 110.329 116.279L114.087 114.11C114.345 113.961 114.487 112.817 114.053 112.075C113.619 111.333 112.601 110.939 112.343 111.099Z" fill="white"/>
<path d="M120.318 167.402C120.184 166.948 120.058 166.491 119.931 166.033L117.22 167.598C117.351 168.053 117.477 168.511 117.607 168.967L120.318 167.402Z" fill="white"/>
<path d="M119.288 163.751L118.905 162.379L116.198 163.942C116.324 164.4 116.455 164.855 116.581 165.313L119.288 163.751Z" fill="white"/>
<path d="M120.836 169.226L120.445 167.86L117.734 169.425L118.121 170.794L120.836 169.226Z" fill="white"/>
<path d="M119.801 165.578L119.419 164.207L116.712 165.769C116.838 166.227 116.964 166.685 117.095 167.14L119.801 165.578Z" fill="white"/>
<path d="M121.357 171.049L120.966 169.682L118.247 171.252L118.63 172.623L121.357 171.049Z" fill="white"/>
<path d="M161.402 71.4382L159.81 72.3574L165.259 81.7953L166.851 80.876L161.402 71.4382Z" fill="white"/>
<path d="M149.929 78.5662L150.874 86.3799L163.253 79.2326L157.809 69.8027L76.0062 117.154L71.2296 119.911C71.128 119.97 71.0486 120.061 71.0038 120.169C70.9589 120.278 70.951 120.398 70.9814 120.511L73.6698 130.683C73.6889 130.762 73.7223 130.838 73.7455 130.915L83.4938 125.287L82.5468 117.469L82.5195 117.22L82.4882 116.973L83.6823 116.283L83.7968 116.27L83.8211 116.468L83.8524 116.716L84.7954 124.536L85.8821 123.908L84.9351 116.091L84.9078 115.841L84.8765 115.594L86.0706 114.904L86.1852 114.891L86.2094 115.089L86.2407 115.337L87.1837 123.157L88.2704 122.529L87.3234 114.712L87.2961 114.462L87.2648 114.215L88.4589 113.525L88.5735 113.512L88.5977 113.711L88.6291 113.958L89.5721 121.778L90.6587 121.15L89.7118 113.333L89.6844 113.083L89.6531 112.836L90.8473 112.146L90.9618 112.133L90.9861 112.332L91.0174 112.579L91.9604 120.399L93.0471 119.772L92.1001 111.954L92.0727 111.704L92.0414 111.457L93.2356 110.768L93.3501 110.754L93.3744 110.953L93.4057 111.2L94.3487 119.02L95.4354 118.393L94.4884 110.575L94.4611 110.325L94.4297 110.078L95.6239 109.389L95.7384 109.376L95.7627 109.574L95.794 109.821L96.737 117.641L97.8237 117.014L96.8767 109.196L96.8494 108.946L96.8181 108.699L98.0122 108.01L98.1268 107.997L98.151 108.195L98.1823 108.442L99.1253 116.262L135.241 95.411L134.294 87.5933L134.266 87.3438L134.235 87.0965L135.429 86.407L135.544 86.394L135.568 86.5923L135.599 86.8395L136.544 94.6532L137.627 94.0281L136.682 86.2144L136.655 85.9649L136.623 85.7176L137.818 85.0281L137.932 85.0151L137.956 85.2134L137.988 85.4606L138.932 93.2743L140.015 92.6492L139.07 84.8355L139.043 84.586L139.012 84.3387L140.206 83.6492L140.32 83.6362L140.345 83.8345L140.376 84.0817L141.321 91.8955L142.403 91.2703L141.459 83.4566L141.431 83.2071L141.4 82.9598L142.594 82.2703L142.709 82.2573L142.733 82.4556L142.764 82.7029L143.709 90.5166L144.792 89.8915L143.847 82.0778L143.82 81.8282L143.788 81.5809L144.982 80.8914L145.097 80.8784L145.121 81.0767L145.153 81.324L146.097 89.1377L147.18 88.5126L146.235 80.6989L146.208 80.4493L146.177 80.202L147.371 79.5125L147.485 79.4995L147.51 79.6978L147.541 79.9451L148.486 87.7588L149.568 87.1337L148.624 79.32L148.596 79.0704L148.565 78.8231L149.759 78.1336L149.874 78.1206L149.898 78.3189L149.929 78.5662Z" fill="white"/>
<path d="M74.1454 131.746L75.3266 133.792L74.4713 137.587L77.4929 139.521C77.4929 139.521 81.8902 138.128 84.6109 143.282C87.3316 148.435 93.3413 182.791 93.3413 182.791C93.3413 182.791 93.957 186.496 96.7212 185.787C99.4853 185.077 117.081 181.266 119.271 180.002L120.11 179.517C117.665 170.813 110.803 146.38 108.899 139.332C106.652 130.991 107.312 128.042 109.419 124.007C111.905 119.212 120.505 115.723 120.655 115.689C121.76 115.396 124.699 114.474 125.967 116.082C127.351 117.836 128.446 119.741 128.725 120.859C128.934 121.709 129.222 123.937 127.391 125.397C124.645 127.582 120.833 130.245 117.985 130.828C115.552 131.357 112.255 131.769 110.716 129.186C109.622 127.356 109.646 124.64 111.035 122.448C110.57 122.985 110.169 123.572 109.838 124.2C107.799 128.132 107.138 130.977 109.354 139.192C109.635 140.229 110.025 141.649 110.479 143.319L113.309 141.685C113.151 141.116 113.028 140.538 112.942 139.954C112.977 138.921 113.089 137.571 114.525 136.758C115.532 136.177 125.38 130.491 128.708 128.57C129.555 128.09 130.296 127.442 130.886 126.668C131.475 125.893 131.902 125.007 132.14 124.062C132.377 123.118 132.421 122.135 132.268 121.173C132.115 120.212 131.769 119.291 131.25 118.467C130.172 116.6 128.986 114.435 128.051 112.852C127.685 112.219 127.586 111.466 127.775 110.759C127.964 110.053 128.427 109.451 129.06 109.085L151.49 96.1347L147.574 89.3519L74.1454 131.746ZM104.197 133.099L114.906 172.708C114.964 172.917 114.979 173.136 114.951 173.351C114.923 173.566 114.852 173.773 114.742 173.96C114.599 174.209 114.392 174.416 114.144 174.56C114.011 174.639 113.866 174.699 113.716 174.738L99.6352 178.415C99.4224 178.469 99.2007 178.481 98.9833 178.449C98.7659 178.416 98.5571 178.341 98.3691 178.227C98.1812 178.113 98.018 177.963 97.8889 177.785C97.7599 177.607 97.6678 177.405 97.6179 177.191L88.3152 137.067C87.789 134.961 88.121 132.732 89.2381 130.871C90.3552 129.01 92.1659 127.669 94.272 127.142C96.378 126.616 98.6068 126.948 100.468 128.065C102.329 129.182 103.671 130.993 104.197 133.099ZM118.07 112.351L110.507 116.718C110.003 116.984 109.415 117.045 108.867 116.888C108.318 116.731 107.852 116.369 107.563 115.877C107.275 115.385 107.188 114.801 107.319 114.246C107.451 113.691 107.792 113.209 108.27 112.899L115.77 108.569C116.377 108.186 118.311 107.547 119.174 109.05C120.089 110.655 118.659 112.011 118.07 112.351Z" fill="white"/>
<path d="M122.846 124.412C125.06 123.182 126.025 122.481 126.428 122.084C126.467 122.047 126.493 121.998 126.502 121.945C126.512 121.891 126.504 121.836 126.481 121.788C126.457 121.739 126.419 121.699 126.372 121.673C126.324 121.647 126.27 121.637 126.216 121.644C124.697 121.826 120.117 123.297 116.533 118.212C114.619 119.269 112.868 120.599 111.334 122.158C111.334 122.158 118.186 127.012 122.846 124.412Z" fill="white"/>
</svg>
