<svg width="256" height="256" viewBox="0 0 256 256" fill="none" xmlns="http://www.w3.org/2000/svg">
<path d="M185.332 60.3102C184.084 58.1887 183.287 57.6373 182.804 57.9779C182.407 58.2534 181.197 59.4617 181.197 59.4617C181.006 59.6799 180.849 59.8482 180.713 59.9882L183.593 64.9753C184.865 64.7581 186.349 64.2255 186.349 64.2255C188.128 64.4574 186.58 62.4317 185.335 60.316L185.332 60.3102Z" fill="white"/>
<path d="M183.342 65.9997L182.97 65.3957L182.937 65.3378L180.041 60.3217C179.141 59.0573 177.881 59.2437 177.562 59.3198L172.314 62.3496C173.341 63.7263 174.409 65.3492 175.409 67.0811C176.239 68.5176 176.971 69.9329 177.592 71.304C180.268 69.759 182.061 68.7165 182.4 68.5283C182.4 68.5283 183.673 67.7777 183.619 67.0288C183.572 66.2915 183.345 66.0055 183.345 66.0055L183.342 65.9997Z" fill="white"/>
<path d="M171.51 62.8143L170.195 63.5734L170.197 63.6032L168.209 64.7354L151.034 74.489L150.977 74.5225C152.02 75.9281 153.099 77.5833 154.112 79.3384C154.958 80.8038 155.707 82.2481 156.348 83.639C162.148 80.2674 168.397 76.6441 173.325 73.7833C174.402 73.1613 175.874 72.3119 176.803 71.7677C176.212 70.4637 175.476 69.0277 174.616 67.5391C173.573 65.7319 172.502 64.1181 171.516 62.8109L171.51 62.8143Z" fill="white"/>
<path d="M74.4914 137.772C77.1168 135.685 81.4906 129.576 81.932 125.298C82.1055 123.645 82.1154 121.964 82.1546 120.319C82.1944 118.636 82.0726 117.556 81.927 116.528L81.6491 116.541C81.4392 116.539 81.2485 116.556 81.0645 116.585C78.8441 116.886 78.9462 118.936 78.9462 118.936C78.2917 122.31 75.047 122.268 75.047 122.268C72.5204 121.958 69.9293 123.022 69.9293 123.022C68.1601 123.85 67.7982 125.11 67.7982 125.11C67.7182 126.322 68.6927 125.883 68.6927 125.883C70.229 124.37 75.7908 124.974 75.7908 124.974C76.7899 125.046 77.5315 125.22 78.1058 125.453C80.166 126.279 80.0644 127.481 80.0644 127.481C80.3119 128.11 79.9159 129.35 79.2255 129.679C78.5351 130.009 77.4705 130.894 77.1409 131.593C76.1022 133.807 75.0866 136.757 75.0866 136.757" fill="white"/>
<path d="M128.783 89.5612L132.385 87.4811C132.577 87.3708 132.824 87.3979 132.981 87.5623C133.53 88.1256 134.727 89.504 135.034 91.0648C135.076 91.272 134.963 91.4766 134.783 91.5803L131.157 93.6737C130.856 93.8476 130.463 93.7423 130.289 93.4411L128.55 90.4292C128.376 90.128 128.481 89.7351 128.783 89.5612Z" fill="white"/>
<path d="M137.858 84.3215L134.736 86.124L137.111 90.2365L140.233 88.434L137.858 84.3215Z" fill="white"/>
<path d="M150.133 75.0021L116.971 93.9707L122.395 103.366L135.989 95.517C136.059 95.4769 136.14 95.4301 136.14 95.4301C136.767 95.0448 139.143 93.6347 139.143 93.6347C139.143 93.6347 146.888 89.1395 155.511 84.1302C154.907 82.8031 154.154 81.338 153.278 79.8205C152.218 77.9843 151.136 76.3382 150.133 75.0021ZM135.802 91.3392L135.848 91.8069L130.681 94.7899C130.49 94.9002 130.252 94.8366 130.142 94.6454L127.553 90.1622C127.383 89.8668 127.486 89.4831 127.781 89.3125L132.797 86.4165L133.187 86.7706C133.282 86.8548 135.539 88.9188 135.799 91.3483L135.802 91.3392ZM140.794 88.951L137.232 91.0076C137.023 91.128 136.753 91.0603 136.629 90.846L134.114 86.4903C133.913 86.1427 134.033 85.695 134.381 85.4944L137.7 83.5782C137.932 83.4444 138.233 83.5252 138.367 83.7569L140.972 88.2691C141.109 88.5065 141.028 88.8081 140.791 88.9452L140.794 88.951ZM146.784 84.9597L146.855 85.4438L141.729 88.4034L138.632 83.0398L143.805 80.0534L144.196 80.4225C144.285 80.5101 146.437 82.5653 146.79 84.9563L146.784 84.9597Z" fill="white"/>
<path d="M140.054 83.0529L143.286 81.1869C143.529 81.0464 143.84 81.0906 144.029 81.298C144.552 81.869 145.542 83.089 145.937 84.4677C146.032 84.8066 145.886 85.1689 145.585 85.3428L142.787 86.9581C142.237 87.2758 141.853 87.1729 141.679 86.8717L139.87 83.7381C139.729 83.4949 139.816 83.19 140.054 83.0529Z" fill="white"/>
<path d="M88.0014 116.001C87.9478 115.908 87.9184 115.817 87.8798 115.724C86.1951 119.307 86.1597 123.459 88.1796 126.958C90.1994 130.456 93.8314 132.506 97.7883 132.832C97.6758 132.704 97.5748 132.569 97.4878 132.419L88.0071 115.998L88.0014 116.001Z" fill="white"/>
<path d="M82.3216 113.976L82.6035 115.975C82.7491 117.003 82.9138 118.6 82.8718 120.346L82.8533 121.036C82.8248 122.458 82.7932 123.929 82.6437 125.382C82.2168 129.552 77.7815 135.634 75.0289 138.25C77.9902 139.661 82.4351 141.327 85.5686 140.414C87.8661 139.751 90.1317 140.304 91.9527 141.987C93.837 143.726 94.5326 146.63 94.2626 148.77C96.318 148.317 99.2263 149.395 100.481 150.285C98.6682 145.339 99.4933 141.163 103.681 138.745C104.231 138.427 104.834 138.133 105.483 137.867C105.598 137.824 105.711 137.766 105.808 137.694C106.304 137.362 107.54 136.386 108.394 134.495L108.453 134.368L108.552 134.273C108.58 134.241 109.328 133.531 110.539 132.832C113.024 131.397 117.915 129.569 121.705 135.907C121.729 132.712 125.049 130.1 125.049 130.1C126.893 129.321 126.245 128.359 126.245 128.359L124.113 116.963C124.694 112.966 124.383 110.528 124.087 109.293L115.673 94.7199L82.3159 113.979L82.3216 113.976ZM87.0341 138.27C85.9374 139.22 84.2472 138.767 83.7724 137.396C83.511 136.636 83.7484 135.749 84.355 135.222C85.4516 134.272 87.1419 134.725 87.6167 136.096C87.8781 136.856 87.6406 137.742 87.0341 138.27ZM78.6244 136.198C78.2417 136.511 77.8637 136.954 77.454 137.167C78.013 136.396 78.8297 135.724 79.4143 134.931C82.5259 131.157 84.3736 126.345 84.345 121.426C84.4001 119.448 83.9619 117.539 83.8229 115.573C83.8235 115.534 83.8857 115.521 83.8884 115.566L83.8951 115.577C86.1355 123.15 84.6515 130.826 78.6152 136.195L78.6244 136.198ZM98.2452 144.432C98.2681 144.913 98.0254 145.362 97.6083 145.603C97.4288 145.707 97.2316 145.766 97.025 145.77C96.6875 145.787 96.3568 145.669 96.106 145.435C95.8495 145.205 95.7046 144.887 95.6873 144.55C95.6644 144.069 95.9071 143.619 96.3242 143.379C96.4979 143.278 96.7009 143.215 96.9041 143.206C97.245 143.195 97.5724 143.307 97.8289 143.537C98.0855 143.767 98.2304 144.085 98.2419 144.426L98.2452 144.432ZM121.077 129.227C119.98 130.177 118.29 129.724 117.815 128.353C117.554 127.592 117.791 126.706 118.398 126.178C119.494 125.229 121.185 125.681 121.659 127.052C121.921 127.813 121.683 128.699 121.077 129.227ZM119.513 119.696C120.339 121.127 119.847 122.963 118.416 123.789L101.283 133.681C100.46 134.156 99.5062 134.189 98.6926 133.864L97.4136 133.722C93.2228 133.245 89.6311 130.917 87.5544 127.32C85.4777 123.723 85.2579 119.463 86.9323 115.608L87.3405 114.669C87.3383 113.636 87.8599 112.639 88.8156 112.088L105.949 102.196C107.38 101.37 109.216 101.862 110.042 103.292L119.52 119.708L119.513 119.696Z" fill="white"/>
<path d="M177.126 58.7375L175.862 56.5481C175.513 55.9697 174.839 56.0731 174.839 56.0731L170.379 58.6481C170.169 59.5956 170.162 61.6157 170.179 62.7563L177.13 58.7433L177.126 58.7375Z" fill="white"/>
<path d="M108.682 136.104C108.087 137.521 107.043 138.402 106.633 138.708C106.524 138.787 106.408 138.854 106.288 138.9C98.9535 141.86 99.6914 146.616 101.421 150.429C101.45 150.451 101.46 150.469 101.46 150.469C103.067 152.838 105.903 153.696 105.903 153.696C110.661 155.397 117.003 148.724 117.003 148.724C117.003 148.724 122.856 142.502 122.04 137.397C121.993 137.115 121.881 136.987 121.753 136.698C121.666 136.509 121.371 136.131 121.247 135.97C117.619 131.13 114.266 131.838 111.719 133.03C110.375 133.659 109.263 134.742 108.682 136.104ZM120.784 139.69C120.784 139.69 120.632 141.74 118.994 144.454C117.299 147.27 113.357 150.435 111.762 151.07C110.167 151.705 108.549 153.21 105.236 151.779C101.92 150.342 100.114 144.071 102.331 143.27C102.331 143.27 105.058 144.514 107.158 143.016C107.158 143.016 109.705 149.246 116.297 145.254C116.297 145.254 109.641 145.591 109.488 141.246C109.488 141.246 110.33 138.891 109.287 137.246C109.287 137.246 109.247 135.933 110.938 135.049C110.938 135.049 114.337 132.562 117.036 134.255C119.736 135.947 120.6 137.364 120.799 139.689L120.784 139.69Z" fill="white"/>
<path d="M114.73 94.4763C113.513 94.3216 110.71 96.2488 110.71 96.2488C108.219 97.8726 106.201 98.0028 105.196 97.9342C104.696 97.8983 104.197 98.0092 103.765 98.2509L85.8186 108.234C85.4296 108.443 85.2325 108.904 85.3895 109.323C85.5641 109.786 85.6272 110.337 84.9788 110.418C84.3569 110.491 83.7917 110.06 83.3983 109.646C83.0307 109.264 82.4505 109.182 81.9929 109.446L81.1009 109.961C80.6549 110.219 80.5098 110.797 80.7847 111.233L81.9586 113.119L81.993 113.392L115.351 94.1334L114.739 94.4788L114.73 94.4763ZM83.063 112.049C82.5475 112.346 81.8806 112.168 81.5829 111.652C81.2853 111.137 81.464 110.47 81.9795 110.172C82.495 109.874 83.162 110.053 83.4596 110.569C83.7573 111.084 83.5786 111.751 83.063 112.049Z" fill="white"/>
<path d="M121.027 127.843C121.059 127.577 121.007 127.299 120.863 127.05C120.502 126.424 119.707 126.211 119.081 126.572C118.867 126.696 118.707 126.874 118.593 127.078L121.027 127.843Z" fill="white"/>
<path d="M118.439 127.56C118.407 127.826 118.46 128.105 118.603 128.354C118.964 128.979 119.759 129.192 120.385 128.831C120.599 128.707 120.759 128.53 120.873 128.325L118.439 127.56Z" fill="white"/>
<path d="M86.994 136.887C87.026 136.621 86.9733 136.343 86.8295 136.094C86.4683 135.468 85.6735 135.255 85.0479 135.616C84.8336 135.74 84.6734 135.917 84.5599 136.122L86.994 136.887Z" fill="white"/>
<path d="M84.4057 136.604C84.3737 136.87 84.4263 137.148 84.5701 137.398C84.9313 138.023 85.7262 138.236 86.3517 137.875C86.566 137.751 86.7262 137.574 86.8398 137.369L84.4057 136.604Z" fill="white"/>
<path d="M140.745 95.6199C140.141 95.0419 138.715 95.6099 138.715 95.6099L125.034 103.509L126.783 106.538L140.285 98.7429C140.349 98.7061 140.418 98.666 140.482 98.6292C142.525 97.3799 140.745 95.6199 140.745 95.6199ZM139.217 97.6294C139.237 98.0117 138.942 98.3291 138.559 98.3491C138.177 98.369 137.86 98.0734 137.84 97.6911C137.82 97.3087 138.115 96.9913 138.498 96.9714C138.88 96.9514 139.197 97.247 139.217 97.6294Z" fill="white"/>
<path d="M124.409 103.87L123.117 104.616L124.866 107.646L126.158 106.9L124.409 103.87Z" fill="white"/>
<path d="M83.2088 111.085C83.205 110.971 83.1838 110.868 83.1236 110.763C82.9296 110.428 82.5002 110.312 82.1642 110.506C82.0774 110.557 82.0121 110.617 81.9535 110.69L83.1996 111.083L83.2088 111.085Z" fill="white"/>
<path d="M81.8275 111.18C81.8362 111.276 81.8598 111.37 81.9133 111.463C82.1073 111.799 82.5367 111.914 82.8727 111.72C82.9422 111.68 82.9958 111.626 83.0462 111.566L81.8308 111.186L81.8275 111.18Z" fill="white"/>
<path d="M97.6663 144.472C97.6625 144.359 97.6404 144.24 97.5802 144.136C97.3829 143.794 96.9443 143.676 96.6026 143.874C96.5157 143.924 96.4422 143.997 96.3836 144.07L97.6663 144.472Z" fill="white"/>
<path d="M96.2513 144.563C96.26 144.659 96.287 144.759 96.3405 144.852C96.5378 145.193 96.9764 145.311 97.3181 145.113C97.3876 145.073 97.4471 145.016 97.4974 144.956L96.2513 144.563Z" fill="white"/>
<path d="M183.342 65.9997L182.97 65.3957L182.937 65.3378L180.041 60.3217C179.141 59.0573 177.881 59.2437 177.562 59.3198L172.314 62.3496C173.341 63.7263 174.409 65.3492 175.409 67.0811C176.239 68.5176 176.971 69.9329 177.592 71.304C180.268 69.759 182.061 68.7165 182.4 68.5283C182.4 68.5283 183.673 67.7777 183.619 67.0288C183.572 66.2915 183.345 66.0055 183.345 66.0055L183.342 65.9997Z" fill="white"/>
<path d="M171.51 62.8143L170.195 63.5734L170.197 63.6032L168.209 64.7354L151.034 74.489L150.977 74.5225C152.02 75.9281 153.099 77.5833 154.112 79.3384C154.958 80.8038 155.707 82.2481 156.348 83.639C162.148 80.2674 168.397 76.6441 173.325 73.7833C174.402 73.1613 175.874 72.3119 176.803 71.7677C176.212 70.4637 175.476 69.0277 174.616 67.5391C173.573 65.7319 172.502 64.1181 171.516 62.8109L171.51 62.8143Z" fill="white"/>
<path d="M74.4914 137.772C77.1168 135.685 81.4906 129.576 81.932 125.298C82.1055 123.645 82.1154 121.964 82.1546 120.319C82.1944 118.636 82.0726 117.556 81.927 116.528L81.6491 116.541C81.4392 116.539 81.2485 116.556 81.0645 116.585C78.8441 116.886 78.9462 118.936 78.9462 118.936C78.2917 122.31 75.047 122.268 75.047 122.268C72.5204 121.958 69.9293 123.022 69.9293 123.022C68.1601 123.85 67.7982 125.11 67.7982 125.11C67.7182 126.322 68.6927 125.883 68.6927 125.883C70.229 124.37 75.7908 124.974 75.7908 124.974C76.7899 125.046 77.5315 125.22 78.1058 125.453C80.166 126.279 80.0644 127.481 80.0644 127.481C80.3119 128.11 79.9159 129.35 79.2255 129.679C78.5351 130.009 77.4705 130.894 77.1409 131.593C76.1022 133.807 75.0866 136.757 75.0866 136.757" fill="white"/>
<path d="M128.783 89.5612L132.385 87.4811C132.577 87.3708 132.824 87.3979 132.981 87.5623C133.53 88.1256 134.727 89.504 135.034 91.0648C135.076 91.272 134.963 91.4766 134.783 91.5803L131.157 93.6737C130.856 93.8476 130.463 93.7423 130.289 93.4411L128.55 90.4292C128.376 90.128 128.481 89.7351 128.783 89.5612Z" fill="white"/>
<path d="M137.858 84.3215L134.736 86.124L137.111 90.2365L140.233 88.434L137.858 84.3215Z" fill="white"/>
<path d="M150.133 75.0021L116.971 93.9707L122.395 103.366L135.989 95.517C136.059 95.4769 136.14 95.4301 136.14 95.4301C136.767 95.0448 139.143 93.6347 139.143 93.6347C139.143 93.6347 146.888 89.1395 155.511 84.1302C154.907 82.8031 154.154 81.338 153.278 79.8205C152.218 77.9843 151.136 76.3382 150.133 75.0021ZM135.802 91.3392L135.848 91.8069L130.681 94.7899C130.49 94.9002 130.252 94.8366 130.142 94.6454L127.553 90.1622C127.383 89.8668 127.486 89.4831 127.781 89.3125L132.797 86.4165L133.187 86.7706C133.282 86.8548 135.539 88.9188 135.799 91.3483L135.802 91.3392ZM140.794 88.951L137.232 91.0076C137.023 91.128 136.753 91.0603 136.629 90.846L134.114 86.4903C133.913 86.1427 134.033 85.695 134.381 85.4944L137.7 83.5782C137.932 83.4444 138.233 83.5252 138.367 83.7569L140.972 88.2691C141.109 88.5065 141.028 88.8081 140.791 88.9452L140.794 88.951ZM146.784 84.9597L146.855 85.4438L141.729 88.4034L138.632 83.0398L143.805 80.0534L144.196 80.4225C144.285 80.5101 146.437 82.5653 146.79 84.9563L146.784 84.9597Z" fill="white"/>
<path d="M140.054 83.0529L143.286 81.1869C143.529 81.0464 143.84 81.0906 144.029 81.298C144.552 81.869 145.542 83.089 145.937 84.4677C146.032 84.8066 145.886 85.1689 145.585 85.3428L142.787 86.9581C142.237 87.2758 141.853 87.1729 141.679 86.8717L139.87 83.7381C139.729 83.4949 139.816 83.19 140.054 83.0529Z" fill="white"/>
<path d="M108.557 134.269C108.585 134.238 109.334 133.527 110.545 132.829C113.029 131.394 117.921 129.566 121.711 135.904C121.735 132.708 125.054 130.097 125.054 130.097C126.898 129.318 126.25 128.356 126.25 128.356L124.119 116.959C124.7 112.963 124.389 110.525 124.093 109.29L115.679 94.7166L82.3216 113.976L82.6035 115.975C82.7491 117.003 82.9138 118.6 82.8718 120.346L82.8533 121.036C82.8248 122.458 82.7932 123.929 82.6437 125.382C82.2168 129.552 77.7815 135.634 75.0289 138.25C77.9902 139.661 82.4351 141.327 85.5686 140.414C87.8661 139.751 90.1317 140.304 91.9527 141.987C93.837 143.726 94.5326 146.63 94.2626 148.77C96.318 148.317 99.2263 149.395 100.481 150.285C98.6682 145.339 99.4933 141.163 103.681 138.745C104.231 138.427 104.834 138.133 105.483 137.867C105.598 137.824 105.711 137.766 105.808 137.694C106.304 137.362 107.448 136.308 108.394 134.495L108.552 134.273L108.557 134.269ZM87.0341 138.27C85.9374 139.22 84.2472 138.767 83.7724 137.396C83.511 136.636 83.7484 135.749 84.355 135.222C85.4516 134.272 87.1419 134.725 87.6167 136.096C87.8781 136.856 87.6406 137.742 87.0341 138.27ZM78.6244 136.198C78.2417 136.511 77.8637 136.954 77.454 137.167C78.013 136.396 78.8297 135.724 79.4143 134.931C82.5259 131.157 84.3736 126.345 84.345 121.426C84.4001 119.448 83.9619 117.539 83.8229 115.573C83.8235 115.534 83.8857 115.521 83.8884 115.566L83.8951 115.577C86.1355 123.15 84.6515 130.826 78.6152 136.195L78.6244 136.198ZM98.2452 144.432C98.2681 144.913 98.0254 145.362 97.6083 145.603C97.4288 145.707 97.2316 145.766 97.025 145.77C96.6875 145.787 96.3568 145.669 96.106 145.435C95.8495 145.205 95.7046 144.887 95.6873 144.55C95.6644 144.069 95.9071 143.619 96.3242 143.379C96.4979 143.278 96.7009 143.215 96.9041 143.206C97.245 143.195 97.5724 143.307 97.8289 143.537C98.0855 143.767 98.2304 144.085 98.2419 144.426L98.2452 144.432ZM121.077 129.227C119.98 130.177 118.29 129.724 117.815 128.353C117.554 127.592 117.791 126.706 118.398 126.178C119.494 125.229 121.185 125.681 121.659 127.052C121.921 127.813 121.683 128.699 121.077 129.227ZM119.513 119.696C120.339 121.127 119.847 122.963 118.416 123.789L101.283 133.681C100.46 134.156 99.5062 134.189 98.6926 133.864L97.4136 133.722C93.2228 133.245 89.6311 130.917 87.5544 127.32C85.4777 123.723 85.2579 119.463 86.9323 115.608L87.3405 114.669C87.3383 113.636 87.8599 112.639 88.8156 112.088L105.949 102.196C107.38 101.37 109.216 101.862 110.042 103.292L119.52 119.708L119.513 119.696Z" fill="white"/>
<path d="M177.126 58.7375L175.862 56.5481C175.513 55.9697 174.839 56.0731 174.839 56.0731L170.379 58.6481C170.169 59.5956 170.162 61.6157 170.179 62.7563L177.13 58.7433L177.126 58.7375Z" fill="white"/>
<path d="M114.73 94.4763C113.513 94.3216 110.71 96.2488 110.71 96.2488C108.219 97.8726 106.201 98.0028 105.196 97.9342C104.696 97.8983 104.197 98.0092 103.765 98.2509L85.8186 108.234C85.4296 108.443 85.2325 108.904 85.3895 109.323C85.5641 109.786 85.6272 110.337 84.9788 110.418C84.3569 110.491 83.7917 110.06 83.3983 109.646C83.0307 109.264 82.4505 109.182 81.9929 109.446L81.1009 109.961C80.6549 110.219 80.5098 110.797 80.7847 111.233L81.9586 113.119L81.993 113.392L115.351 94.1334L114.739 94.4788L114.73 94.4763ZM83.063 112.049C82.5475 112.346 81.8806 112.168 81.5829 111.652C81.2853 111.137 81.464 110.47 81.9795 110.172C82.495 109.874 83.162 110.053 83.4596 110.569C83.7573 111.084 83.5786 111.751 83.063 112.049Z" fill="white"/>
<path d="M121.027 127.843C121.059 127.577 121.007 127.299 120.863 127.05C120.502 126.424 119.707 126.211 119.081 126.572C118.867 126.696 118.707 126.874 118.593 127.078L121.027 127.843Z" fill="white"/>
<path d="M118.439 127.56C118.407 127.826 118.46 128.105 118.603 128.354C118.964 128.979 119.759 129.192 120.385 128.831C120.599 128.707 120.759 128.53 120.873 128.325L118.439 127.56Z" fill="white"/>
<path d="M86.994 136.887C87.026 136.621 86.9733 136.343 86.8295 136.094C86.4683 135.468 85.6735 135.255 85.0479 135.616C84.8336 135.74 84.6734 135.917 84.5599 136.122L86.994 136.887Z" fill="white"/>
<path d="M84.4057 136.604C84.3737 136.87 84.4263 137.148 84.5701 137.398C84.9313 138.023 85.7262 138.236 86.3517 137.875C86.566 137.751 86.7262 137.574 86.8398 137.369L84.4057 136.604Z" fill="white"/>
<path d="M140.745 95.6199C140.141 95.0419 138.715 95.6099 138.715 95.6099L125.034 103.509L126.783 106.538L140.285 98.7429C140.349 98.7061 140.418 98.666 140.482 98.6292C142.525 97.3799 140.745 95.6199 140.745 95.6199ZM139.217 97.6294C139.237 98.0117 138.942 98.3291 138.559 98.3491C138.177 98.369 137.86 98.0734 137.84 97.6911C137.82 97.3087 138.115 96.9913 138.498 96.9714C138.88 96.9514 139.197 97.247 139.217 97.6294Z" fill="white"/>
<path d="M124.409 103.87L123.117 104.616L124.866 107.646L126.158 106.9L124.409 103.87Z" fill="white"/>
<path d="M83.2088 111.085C83.205 110.971 83.1838 110.868 83.1236 110.763C82.9296 110.428 82.5002 110.312 82.1642 110.506C82.0774 110.557 82.0121 110.617 81.9535 110.69L83.1996 111.083L83.2088 111.085Z" fill="white"/>
<path d="M81.8275 111.18C81.8362 111.276 81.8598 111.37 81.9133 111.463C82.1073 111.799 82.5367 111.914 82.8727 111.72C82.9422 111.68 82.9958 111.626 83.0462 111.566L81.8308 111.186L81.8275 111.18Z" fill="white"/>
<path d="M97.6663 144.472C97.6625 144.359 97.6404 144.24 97.5802 144.136C97.3829 143.794 96.9443 143.676 96.6026 143.874C96.5157 143.924 96.4422 143.997 96.3836 144.07L97.6663 144.472Z" fill="white"/>
<path d="M96.2513 144.563C96.26 144.659 96.287 144.759 96.3405 144.852C96.5378 145.193 96.9764 145.311 97.3181 145.113C97.3876 145.073 97.4471 145.016 97.4974 144.956L96.2513 144.563Z" fill="white"/>
<path d="M93.299 112.897L108.672 104.022L109.953 106.24L94.5799 115.115C93.9659 115.47 93.1802 115.259 92.8257 114.645C92.4712 114.031 92.6817 113.246 93.2957 112.891L93.299 112.897Z" fill="white"/>
<path d="M101.362 126.329C100.134 127.038 98.5537 126.614 97.8448 125.386C97.1358 124.158 97.5593 122.578 98.7873 121.869L113.928 113.127L110.731 107.59L110.45 107.103L95.0777 115.979C93.9887 116.607 92.5967 116.229 91.9713 115.146C91.3459 114.063 91.7205 112.665 92.8036 112.04L107.939 103.302C107.436 103.005 106.627 102.568 106.086 102.741L89.1324 112.53C88.3678 112.971 88.1226 113.978 88.5874 114.783L98.8306 132.525C99.2921 133.324 100.29 133.621 101.054 133.179L118.008 123.391C118.69 122.712 119.018 121.943 118.553 121.138L116.503 117.587L101.362 126.329Z" fill="white"/>
<path d="M99.2859 122.732L114.415 113.997L115.997 116.737L100.868 125.472C100.115 125.907 99.1463 125.647 98.7115 124.894C98.2768 124.141 98.5363 123.173 99.2893 122.738L99.2859 122.732Z" fill="white"/>
<path d="M79.7853 152.548C81.3316 154.397 81.0212 157.163 78.907 158.384C76.8508 159.571 74.3301 158.563 73.3785 156.486C72.555 154.699 73.1747 152.642 74.6951 151.664C76.2156 150.686 78.4708 150.967 79.7911 152.544L79.7853 152.548Z" fill="white"/>
<path d="M73.0134 163.625C75.3055 163.97 78.318 163.837 81.8469 162.873C82.8288 162.608 83.8258 163.144 84.1635 164.077C85.7494 168.482 90.2046 180.105 95.1761 186.201C95.6741 186.809 95.5039 187.719 94.8031 188.123C91.5975 189.982 83.4219 194.455 78.3406 194.817C77.8662 194.851 77.4321 194.607 77.2129 194.201C75.5956 191.119 68.9589 178.099 69.5627 166.691C69.6491 165.035 71.3565 163.377 73.0134 163.625Z" fill="white"/>
<path d="M85.2683 141.297C81.4381 142.435 76.1952 140.403 73.0132 138.812C72.7242 138.739 72.4276 138.64 72.4276 138.64C72.4276 138.64 70.593 138.178 69.0762 137.918C67.556 137.653 66.5044 139.403 66.5044 139.403C68.6853 142.739 69.3659 145.791 69.4337 148.169C69.5254 151.244 68.6 153.199 68.6 153.199C65.1939 163.498 66.4661 173.661 67.7673 179.513C68.3285 182.023 69.2237 184.457 70.3423 186.769C73.9872 194.326 72.8676 198.888 72.8676 198.888L72.8216 199.169C72.7476 199.884 73.253 200.666 73.8937 201.107L73.972 201.162C75.5336 202.168 78.1025 201.534 78.1025 201.534L99.7147 191.574C105.847 188.35 101.446 186.574 101.446 186.574L101.251 185.42L94.8676 177.668C91.0678 173.119 88.4892 167.302 88.4892 167.302C85.7789 161.885 87.9235 156.33 89.3937 153.566C89.9943 152.439 90.4816 151.772 90.4816 151.772C91.3681 150.217 92.3821 149.338 93.4163 148.896C94.1582 145.579 90.6295 139.708 85.2625 141.301L85.2683 141.297ZM84.855 163.817C86.5065 168.416 90.8825 179.768 95.7506 185.738C96.1226 186.195 96.2721 186.789 96.1544 187.374C96.0392 187.95 95.6764 188.445 95.1642 188.749L95.0194 188.833C91.741 190.725 83.5544 195.166 78.3811 195.542C77.6231 195.594 76.9137 195.208 76.5657 194.552C75.1317 191.827 68.0136 177.626 68.631 165.947C68.7092 164.504 69.6518 163.234 71.0931 162.734C71.6331 162.546 72.2187 162.516 72.784 162.599C74.964 162.924 78.2682 163.109 81.6737 162.186C83.0003 161.821 84.3981 162.544 84.8617 163.828L84.855 163.817ZM81.4033 156.032C81.1526 157.297 80.3949 158.352 79.2596 159.007C78.1243 159.663 76.9028 159.781 75.6917 159.422C74.3734 159.025 73.279 158.066 72.6968 156.803C71.7485 154.733 72.4335 152.268 74.2973 151.068C74.3552 151.035 74.4131 151.001 74.471 150.968C76.3709 149.871 78.905 150.354 80.3545 152.089C81.2878 153.21 81.6709 154.65 81.3975 156.036L81.4033 156.032ZM73.8448 143.529C72.0745 142.242 71.105 140.268 68.967 139.495C68.6598 139.417 68.303 139.415 68.0529 139.691L67.9905 139.649C68.2072 139.316 68.6423 139.227 68.9993 139.283C70.0811 139.485 70.976 140.165 71.8093 140.82C74.8378 143.898 79.4278 145.735 83.8027 145.835L83.8724 145.849C80.402 146.539 76.4497 145.593 73.839 143.532L73.8448 143.529Z" fill="white"/>
</svg>
