<svg width="256" height="256" viewBox="0 0 256 256" fill="none" xmlns="http://www.w3.org/2000/svg">
  <path d="M51.108 159.734L49.7656 160.509L55.1906 169.905L56.533 169.13L51.108 159.734Z" fill="white" />
  <path d="M49.908 161.755L46.877 163.505L51.152 170.909L54.183 169.159L49.908 161.755Z" fill="white" />
  <path
    d="M20.8398 174.208L28.8648 188.108L32.0691 186.258C28.9588 179.971 25.599 174.751 24.0441 172.358L20.8398 174.208Z"
    fill="white" />
  <path
    d="M28.075 193.24L30.4133 191.89C30.4566 191.865 30.4749 191.796 30.4499 191.753L18.4749 171.012C18.4499 170.968 18.3816 170.95 18.3383 170.975L16.1299 172.25C16.0433 172.3 16.0683 172.343 16.0933 172.387L28.075 193.24Z"
    fill="white" />
  <path
    d="M46.4441 163.755L46.2276 163.88L24.9023 172.844C26.5072 175.324 29.3555 179.857 32.0523 185.228L50.4593 171.31L50.7191 171.16L46.4441 163.755Z"
    fill="white" />
  <path d="M52.9693 158.659L51.8867 159.284L57.3117 168.681L58.3943 168.056L52.9693 158.659Z" fill="white" />
  <path d="M73.5506 149.606L54.498 160.606L57.223 165.326L76.2756 154.326L73.5506 149.606Z" fill="white" />
  <path d="M72.326 147.484L53.2734 158.484L54.2734 160.216L73.326 149.216L72.326 147.484Z" fill="white" />
  <path d="M76.4998 154.716L57.4473 165.716L58.6973 167.881L77.7498 156.881L76.4998 154.716Z" fill="white" />
  <path
    d="M79.3075 152.576C79.7405 152.326 79.8187 151.762 79.5687 151.329L77.7937 148.254C77.5437 147.821 76.9722 147.631 76.5825 147.856L75.5 148.481L78.225 153.201L79.3075 152.576Z"
    fill="white" />
  <path
    d="M83.3965 139.36L78.9504 143.659L74.2738 146.359L75.2738 148.091L76.4863 147.391C77.0925 147.041 77.8438 147.242 78.1938 147.849L80.1188 151.183C80.4688 151.789 80.2675 152.54 79.6613 152.89L78.4488 153.59L79.6988 155.755L84.3321 153.08L90.7612 151.216C91.071 151.153 91.3741 150.978 91.6773 150.803L118.567 135.278L111.442 122.937L85.0286 138.187C84.4223 138.537 83.8844 138.905 83.3965 139.36ZM116.207 134.389L94.3829 146.989C91.8714 148.439 88.7045 147.554 87.2795 145.086C85.8545 142.617 86.7147 139.407 89.1829 137.982L111.007 125.382L116.207 134.389Z"
    fill="white" />
  <path
    d="M88.1465 144.586C89.4715 146.881 92.2968 147.675 94.6351 146.325L115.636 134.2L110.886 125.973L89.8851 138.098C87.5901 139.423 86.8215 142.291 88.1465 144.586Z"
    fill="white" />
  <path d="M120.949 133.903L119.391 134.803L112.266 122.462L113.868 121.537L120.949 133.903Z" fill="white" />
  <path d="M145.804 106.852L144.938 107.352L148.812 114.063L149.679 113.563L145.804 106.852Z" fill="white" />
  <path d="M144.548 107.576L138.355 111.151L142.23 117.863L148.423 114.288L144.548 107.576Z" fill="white" />
  <path d="M140.565 121.077L141.91 118.106L137.96 111.265L134.715 110.944L140.565 121.077Z" fill="white" />
  <path d="M159.054 99.202L146.193 106.627L150.068 113.339L162.929 105.914L159.054 99.202Z" fill="white" />
  <path
    d="M134.276 111.083L134.207 111.064L114.852 122.239L120.877 132.675L140.232 121.5L140.251 121.432L134.276 111.083Z"
    fill="white" />
  <path d="M161.651 97.7012L159.486 98.9512L163.361 105.663L165.526 104.413L161.651 97.7012Z" fill="white" />
  <path d="M178.02 88.2518L170.053 92.8518L162.129 97.4268L166.004 104.138L181.895 94.9635L178.02 88.2518Z"
    fill="white" />
  <path
    d="M184.136 84.144C184.222 84.094 184.216 83.9824 184.122 83.9208C183.612 83.6378 182.986 83.653 182.466 83.953L180.172 85.278C179.912 85.428 179.584 85.5597 179.292 85.5548L177.866 85.6852C177.798 85.6669 177.736 85.7602 177.786 85.8468L178.586 87.2324C178.611 87.2757 178.68 87.294 178.723 87.269L184.136 84.144Z"
    fill="white" />
  <path
    d="M183.06 94.9831L183.835 96.3254C183.86 96.3687 183.971 96.362 184.015 96.337L184.84 95.1674C184.982 94.9125 185.217 94.7192 185.477 94.5692L187.642 93.3192C188.248 92.9692 188.636 92.3411 188.639 91.6465L183.096 94.8465C183.053 94.8715 183.035 94.9398 183.06 94.9831Z"
    fill="white" />
  <path
    d="M236.986 56.2851C236.936 56.1985 236.843 56.1368 236.756 56.1868L219.06 62.5357C217.722 63.0192 216.435 63.5893 215.222 64.2893L212.798 65.6893C212.754 65.7143 212.736 65.7826 212.761 65.8259L218.686 76.0883C218.711 76.1316 218.779 76.1499 218.823 76.1249L221.247 74.7249C222.46 74.0249 223.597 73.195 224.685 72.2785L239.006 60.084C239.093 60.034 239.086 59.9224 239.036 59.8358L236.986 56.2851Z"
    fill="white" />
  <path d="M241.483 57.6732L239.145 59.0232L237.77 56.6416L240.151 55.2666L241.483 57.6732Z" fill="white" />
  <path
    d="M185.52 88.5411C185.711 88.3728 185.816 88.2545 185.766 88.1679C185.716 88.0813 185.536 88.0697 185.32 88.1947L183.048 89.1599C182.546 89.3916 182.038 89.5117 181.48 89.5451L179.986 89.6572L181.636 92.5151L182.394 91.3272C182.72 90.7924 183.183 90.2942 183.721 89.9259L185.52 88.5411Z"
    fill="white" />
  <path fill-rule="evenodd" clip-rule="evenodd"
    d="M157.285 117.139C158.168 117.668 159.521 117.811 161.824 117.001C162.019 116.138 161.597 116.208 160.978 116.335C160.135 116.475 158.939 116.704 158.292 114.883C158.267 114.84 158.192 114.71 158.186 114.598C158.111 114.469 158.054 114.27 157.979 114.14C157.356 114.962 157.132 116.073 157.285 117.139Z"
    fill="white" />
  <path fill-rule="evenodd" clip-rule="evenodd"
    d="M163.864 116.632L161.139 111.912L162.048 111.387L164.748 116.064C165.598 117.536 165.085 119.449 163.613 120.299L160.062 122.349L159.538 121.439L163.088 119.389C164.109 118.857 164.414 117.585 163.864 116.632Z"
    fill="white" />
  <path
    d="M147.225 116.713L150.575 122.515C150.85 122.991 150.71 123.649 150.191 123.949L149.065 124.599L149.59 125.509L150.716 124.859C151.192 124.584 151.85 124.723 152.15 125.243L152.925 126.585L159.593 122.735L157.143 118.492C156.018 116.543 156.695 114.016 158.644 112.891L159.294 112.516L157.869 110.048L147.476 116.048C147.191 116.155 147.075 116.453 147.225 116.713ZM156.498 121.174C156.974 120.899 157.589 121.063 157.864 121.54C158.139 122.016 157.974 122.631 157.498 122.906C157.022 123.181 156.407 123.016 156.132 122.54C155.857 122.063 156.022 121.449 156.498 121.174ZM150.506 115.396C150.766 115.246 151.064 115.362 151.189 115.579C151.339 115.838 151.223 116.137 151.006 116.262C150.746 116.412 150.448 116.295 150.323 116.079C150.155 115.887 150.246 115.546 150.506 115.396ZM148.731 116.421C148.99 116.271 149.289 116.387 149.414 116.604C149.564 116.863 149.447 117.162 149.231 117.287C148.971 117.437 148.673 117.32 148.548 117.104C148.379 116.912 148.471 116.571 148.731 116.421Z"
    fill="white" />
  <path
    d="M157.273 122.515C157.533 122.365 157.581 122.049 157.456 121.832C157.306 121.573 156.989 121.524 156.773 121.649C156.513 121.799 156.465 122.116 156.59 122.332C156.715 122.549 157.013 122.665 157.273 122.515Z"
    fill="white" />
  <path
    d="M160.355 108.554L158.363 109.704L159.788 112.172L162.256 110.747L161.106 108.755C160.888 108.477 160.615 108.404 160.355 108.554ZM160.644 110.754C160.384 110.904 160.086 110.788 159.961 110.571C159.811 110.312 159.928 110.013 160.144 109.888C160.404 109.738 160.702 109.855 160.827 110.071C160.952 110.288 160.904 110.604 160.644 110.754Z"
    fill="white" />
  <path fill-rule="evenodd" clip-rule="evenodd"
    d="M153.148 126.975L159.373 137.757C159.623 138.19 160.281 138.329 160.758 138.054L165.737 135.179C166.17 134.929 166.335 134.315 166.085 133.882L159.86 123.1L153.148 126.975ZM164.228 133.164C164.503 133.641 164.338 134.255 163.862 134.53L161.047 136.155C160.571 136.43 159.956 136.266 159.681 135.789L154.956 127.605L159.546 124.955L164.271 133.139L164.228 133.164Z"
    fill="white" />
  <path fill-rule="evenodd" clip-rule="evenodd"
    d="M159.333 129.987C159.16 130.087 159.061 130.316 159.186 130.533C159.286 130.706 159.516 130.804 159.733 130.679C159.906 130.579 160.004 130.349 159.879 130.133C159.779 129.96 159.506 129.887 159.333 129.987Z"
    fill="white" />
  <path fill-rule="evenodd" clip-rule="evenodd"
    d="M155.596 127.813L159.896 135.261C160.146 135.694 160.692 135.841 161.125 135.591L163.29 134.341C163.723 134.091 163.87 133.544 163.62 133.111L159.32 125.663L155.596 127.813ZM159.983 131.112C159.55 131.362 159.003 131.215 158.753 130.782C158.503 130.349 158.65 129.803 159.083 129.553C159.516 129.303 160.062 129.449 160.312 129.882C160.562 130.315 160.416 130.862 159.983 131.112Z"
    fill="white" />
  <path
    d="M131.528 139.227C131.312 139.352 131.282 139.6 131.382 139.773C131.482 139.946 131.755 140.02 131.928 139.92C132.101 139.82 132.174 139.546 132.074 139.373C131.974 139.2 131.745 139.102 131.528 139.227Z"
    fill="white" />
  <path
    d="M130.428 134.32C130.303 134.103 130.005 133.987 129.745 134.137L128.013 135.137C127.797 135.262 127.68 135.56 127.83 135.82L133.573 145.667C133.723 145.927 133.878 145.896 134.138 145.746L136 144.671C136.217 144.546 136.321 144.427 136.171 144.167L130.428 134.32ZM132.204 140.396C131.771 140.646 131.225 140.499 130.975 140.066C130.725 139.633 130.871 139.087 131.304 138.837C131.737 138.587 132.284 138.733 132.534 139.166C132.784 139.599 132.68 140.121 132.204 140.396Z"
    fill="white" />
  <path
    d="M131.022 128.549L130.722 128.03L122.191 132.955L122.491 133.474L121.755 133.899L122.455 135.112C122.73 135.588 123.153 135.921 123.588 136.074L126.079 136.888C126.352 136.961 126.613 137.214 126.763 137.474L132.338 147.13C132.613 147.607 133.185 147.796 133.618 147.546L137.731 145.171C138.164 144.921 138.286 144.332 138.011 143.855L132.461 134.243C132.311 133.983 132.248 133.673 132.296 133.356L132.811 130.749C132.939 130.271 132.794 129.72 132.544 129.287L131.844 128.075L131.022 128.549ZM136.603 143.918C136.903 144.437 136.725 144.829 136.336 145.054L134.214 146.279C133.824 146.504 133.396 146.462 133.096 145.943L127.146 135.637C127.021 135.42 127.069 135.104 127.329 134.954L129.97 133.429C130.187 133.304 130.503 133.352 130.653 133.612L136.603 143.918Z"
    fill="white" />
  <path
    d="M122.465 114.727L122.055 114.617L115.56 118.367L115.45 118.777C115.413 118.913 115.42 119.025 115.47 119.111L116.37 120.67L123.645 116.47L122.745 114.911C122.626 114.807 122.533 114.745 122.465 114.727ZM121.829 116.826L117.585 119.276C117.282 119.451 116.916 119.316 116.766 119.056C116.591 118.753 116.726 118.386 116.985 118.236L121.229 115.786C121.532 115.611 121.899 115.746 122.049 116.006C122.224 116.309 122.089 116.676 121.829 116.826Z"
    fill="white" />
  <path
    d="M174.671 85.4513L174.056 85.2866C173.92 85.25 173.833 85.3 173.746 85.35L168.723 88.25C168.637 88.3 168.575 88.3933 168.514 88.4866L168.349 89.1013C168.294 89.3062 168.307 89.5294 168.432 89.7459L169.907 92.3007L170.773 91.8007L170.423 91.1945C170.198 90.8048 170.327 90.3267 170.716 90.1017L174.267 88.0517C174.657 87.8267 175.135 87.9548 175.36 88.3445L175.71 88.9507L176.576 88.4507L175.076 85.8526C175.062 85.6294 174.876 85.5062 174.671 85.4513ZM174.207 87.0472L169.963 89.4972C169.747 89.6222 169.517 89.524 169.417 89.3508C169.292 89.1343 169.39 88.9044 169.563 88.8044L173.807 86.3544C173.98 86.2544 174.253 86.3276 174.353 86.5008C174.496 86.649 174.423 86.9222 174.207 87.0472Z"
    fill="white" />
  <path
    d="M197.584 76.4366C196.435 77.4464 195.167 78.3513 193.825 79.1263L184.602 84.4513L178.861 87.708L179.736 89.2235C179.736 89.2235 180.629 89.1699 181.298 89.1297C181.856 89.0962 182.364 88.9761 182.847 88.8127L185.342 87.8342C185.714 87.6775 186.012 87.794 186.112 87.9672C186.212 88.1404 186.12 88.4819 185.799 88.7252L183.871 90.185C183.358 90.5966 182.895 91.0948 182.55 91.6979C182.224 92.2327 181.861 92.9041 181.861 92.9041L182.786 94.5063L188.433 91.188L188.477 91.163L197.7 85.838C199.042 85.063 200.46 84.4179 201.909 83.9277L210.225 81.0316C210.268 81.0066 210.286 80.9383 210.261 80.895L204.386 70.7192C204.361 70.6759 204.293 70.6576 204.25 70.6826L197.584 76.4366ZM193.244 81.0204L192.148 81.4222C198.339 78.9449 202.66 72.9285 202.66 72.9285C200.574 76.6155 197.188 79.5516 193.244 81.0204Z"
    fill="white" />
  <path d="M211.889 66.2145L204.787 70.3145L207.637 75.2508L214.739 71.1508L211.889 66.2145Z" fill="white" />
  <path d="M214.988 71.5836L207.887 75.6836L210.787 80.7065L217.888 76.6065L214.988 71.5836Z" fill="white" />
  <path d="M218.139 77.0396L211.037 81.1396L211.787 82.4387L218.889 78.3387L218.139 77.0396Z" fill="white" />
  <path d="M210.988 64.6559L203.887 68.7559L204.537 69.8817L211.638 65.7817L210.988 64.6559Z" fill="white" />
  <path d="M73.8853 146.584L72.8027 147.209L78.2277 156.605L79.3103 155.98L73.8853 146.584Z" fill="white" />
</svg>