<svg width="256" height="256" viewBox="0 0 256 256" fill="none" xmlns="http://www.w3.org/2000/svg">
<path d="M209.521 71.8756L234.196 57.6293C234.196 57.6293 234.498 57.0156 233.601 55.4633C232.705 53.9109 232.023 53.865 232.023 53.865L207.348 68.1113L209.521 71.8756Z" fill="white"/>
<path d="M224.347 57.4943L227.104 55.9025L223.798 52.6128L222.096 53.5957L224.347 57.4943Z" fill="white"/>
<path d="M206.666 68.5472L135.668 109.538L137.822 113.269L208.82 72.2779L206.666 68.5472Z" fill="white"/>
<path d="M82.2119 160.993C82.2119 160.993 83.9576 164.578 85.6132 165.215C87.8032 166.057 95.2936 158.912 99.8629 154.881C105.904 149.55 112.063 142.863 112.107 140.573C92.5646 152.954 82.2119 160.993 82.2119 160.993ZM93.3622 159.366L87.6014 163.801C86.879 164.329 85.853 164.171 85.3253 163.448L84.0586 161.715C83.7703 161.32 83.8563 160.762 84.2508 160.474L91.4082 155.238C91.7421 154.996 92.2134 155.068 92.455 155.4L93.715 157.09C94.2427 157.813 94.0846 158.839 93.3622 159.366Z" fill="white"/>
<path d="M85.7162 130.994L86.7276 132.746L82.8923 134.96L81.8809 133.208L77.6998 135.622L71.6255 137.812L66.532 140.753C66.4234 140.816 66.3858 140.956 66.4485 141.065L69.6606 146.628C69.7233 146.737 69.8635 146.774 69.9721 146.712L75.0656 143.771L79.9997 139.606L88.8357 134.504L87.9133 132.906L90.8382 131.218L91.7607 132.815L94.2827 131.359L93.3603 129.762L96.2852 128.073L97.2076 129.671L98.4262 128.967L102.427 127.81L108.734 124.169C108.843 124.106 108.881 123.966 108.818 123.858L105.625 118.328C105.562 118.219 105.422 118.181 105.314 118.244L99.0065 121.886L96.1263 124.984L85.7162 130.994Z" fill="white"/>
<path d="M84.4434 129.515L81.2637 131.351L83.0459 134.437L86.2256 132.602L84.4434 129.515Z" fill="white"/>
<path d="M90.6942 131.791L88.5 133.058L90.1648 135.941L92.359 134.674L90.6942 131.791Z" fill="white"/>
<path d="M96.1141 128.662L93.9199 129.929L95.5847 132.812L97.7789 131.545L96.1141 128.662Z" fill="white"/>
<path d="M85.4192 160.271L86.7006 159.321C86.7006 159.321 86.7867 160.177 87.4174 160.727C87.8592 161.109 88.6651 161.173 89.0323 161.179C89.1418 161.182 89.2327 161.267 89.2402 161.375C89.2483 161.476 89.1873 161.567 89.0922 161.598C88.6569 161.733 87.4481 162.039 86.6771 161.552C85.6321 160.891 85.4184 160.275 85.4184 160.275L85.4192 160.271Z" fill="white"/>
<path d="M129.587 121.878L108.832 133.861C108.234 134.207 108.028 134.976 108.373 135.575C108.719 136.173 109.488 136.379 110.087 136.034L130.842 124.051C131.44 123.705 131.646 122.936 131.301 122.337C130.955 121.739 130.186 121.533 129.587 121.878Z" fill="white"/>
<path d="M135.086 109.874C135.086 109.874 79.2229 143.209 77.2742 144.463C75.3243 145.715 74.9273 147.969 74.9273 147.969L74.4215 147.39C74.2416 147.183 73.9367 147.143 73.7077 147.294C73.47 147.452 73.3927 147.765 73.5325 148.016L74.9912 150.634C75.0714 150.778 75.2807 150.775 75.3547 150.63C75.722 149.907 76.6699 148.251 78.0678 147.302C78.327 147.126 79.7069 146.319 81.8816 145.068L82.6764 146.445C82.9238 146.873 83.4721 147.02 83.9007 146.773L94.135 140.864C94.5636 140.617 94.7105 140.068 94.463 139.64L93.6991 138.317C111.236 128.331 137.241 113.61 137.241 113.61L135.087 109.879L135.086 109.874Z" fill="white"/>
<path d="M85.9939 146.372L83.6366 152.547L83.4782 152.546C83.2032 152.544 82.9399 152.617 82.7108 152.749C82.4165 152.919 82.1812 153.187 82.0549 153.515C81.7582 154.292 82.1499 155.167 82.9268 155.463C83.7038 155.76 84.5783 155.368 84.875 154.591C85.0984 154.007 84.9313 153.334 84.4599 152.919L84.3412 152.814L87.0288 145.775L85.9959 146.371L85.9939 146.372Z" fill="white"/>
<path d="M94.8454 138.924L95.3779 139.846C95.6425 140.304 95.4855 140.89 95.0273 141.154L87.6528 145.412L84.8761 152.685C85.4001 153.227 85.5734 154.039 85.3005 154.752C85.1347 155.19 84.8254 155.534 84.4482 155.752C83.9524 156.038 83.3364 156.107 82.7623 155.888C81.7491 155.501 81.2414 154.362 81.6272 153.352C81.8981 152.64 82.5666 152.151 83.3214 152.095L85.3689 146.733L83.7158 147.688C83.2577 147.952 82.672 147.795 82.4075 147.337L81.8544 146.379C80.1655 147.349 79.5126 147.723 79.2263 147.889C75.7896 149.886 72.6921 158.929 67.9576 162.268C65.609 163.924 64.5918 163.54 61.7129 164.259C58.4204 165.083 23.1163 187.365 22.7159 189.613C22.4098 191.322 26.824 194.069 29.8584 198.988C32.3053 202.952 33.3588 207.992 35.2796 208.026C37.589 208.067 62.4198 180.955 64.5336 178.791C66.6474 176.628 73.1216 177.525 74.8127 176.08C76.3803 174.74 73.6312 168.533 77.892 163.635C82.903 157.874 114.185 138.162 114.185 138.162C114.185 138.162 207.492 78.1294 208.652 76.9727C209.811 75.8159 209.201 73.3903 209.201 73.3903C209.201 73.3903 129.445 119.085 94.8463 138.921L94.8454 138.924ZM131.068 124.441L110.313 136.424C109.498 136.895 108.449 136.615 107.977 135.798C107.505 134.98 107.785 133.933 108.603 133.461L129.358 121.479C130.173 121.008 131.222 121.287 131.694 122.105C132.166 122.922 131.886 123.969 131.068 124.441ZM166.772 100.425C166.918 100.678 166.831 101.002 166.578 101.148L162.129 103.717C161.876 103.863 161.552 103.776 161.406 103.523L161.37 103.462C161.225 103.209 161.311 102.885 161.564 102.739L166.014 100.17C166.267 100.024 166.591 100.111 166.736 100.364L166.772 100.425ZM174.421 96.0091C174.567 96.2619 174.48 96.5859 174.227 96.7318L169.778 99.3008C169.525 99.4467 169.201 99.3599 169.055 99.1071L169.02 99.0459C168.874 98.7931 168.96 98.4691 169.213 98.3232L173.663 95.7542C173.916 95.6082 174.24 95.6951 174.386 95.9478L174.421 96.0091ZM181.631 91.846C181.777 92.0988 181.691 92.4228 181.438 92.5688L176.988 95.1377C176.735 95.2837 176.411 95.1969 176.266 94.9441L176.23 94.8829C176.084 94.6301 176.171 94.3061 176.424 94.1601L180.873 91.5911C181.126 91.4452 181.45 91.532 181.596 91.7848L181.631 91.846Z" fill="white"/>
</svg>
