<svg width="256" height="256" viewBox="0 0 256 256" fill="none" xmlns="http://www.w3.org/2000/svg">
<path d="M90.4011 141.519C90.2145 141.396 90.0779 141.36 89.9547 141.546C87.4638 144.832 79.3653 156.205 82.2966 165.482C82.31 165.705 82.5832 165.778 82.6332 165.865C82.8564 165.852 82.993 165.888 83.1662 165.788L87.1499 163.488C87.4097 163.338 88.1026 162.938 87.9892 162.542C87.3052 159.357 85.4229 148.897 92.8439 144.15C93.0171 144.05 93.0037 143.827 92.7671 143.617L90.4011 141.519Z" fill="white"/>
<path d="M72.5832 156.657L35.097 186.729L41.9604 198.816C42.4604 199.682 43.1202 200.225 44.063 200.258C45.0058 200.291 45.9585 199.741 46.5379 198.945L61.8457 177.059C63.0778 175.193 64.633 173.487 66.2883 171.953L73.8583 164.465C74.2413 164.129 74.6476 163.432 74.6574 162.849L74.476 158.335C74.4858 157.752 74.5188 156.809 74.0456 156.39C73.5858 156.193 72.9662 156.32 72.5832 156.657Z" fill="white"/>
<path d="M100.323 144.105L102.346 144.207C102.805 144.404 103.279 144.823 103.479 145.17C104.329 146.642 106.241 147.154 107.713 146.304L114.122 142.604C114.815 142.204 115.308 141.458 115.304 140.652C115.413 137.24 115.149 136.584 117.357 133.808L100.037 143.808C99.777 143.958 100.1 144.118 100.323 144.105ZM104.504 144.347C103.904 143.307 104.271 141.941 105.31 141.341L110.852 138.141C111.892 137.541 113.258 137.907 113.858 138.947L114.058 139.293C114.658 140.332 114.292 141.698 113.252 142.298L107.71 145.498C106.671 146.098 105.304 145.732 104.704 144.693L104.504 144.347Z" fill="white"/>
<path d="M113.154 125.728L129.089 116.528L128.689 115.835L131.46 114.235L131.86 114.928L133.419 114.028L132.469 112.383L121.297 118.833C121.124 118.933 120.914 119.169 120.791 119.356L120.261 120.239C120.138 120.425 119.928 120.662 119.755 120.762L112.481 124.962C112.221 125.112 112.148 125.385 112.298 125.645C112.448 125.905 112.981 125.828 113.154 125.728Z" fill="white"/>
<path d="M134.166 117.523C133.733 117.773 133.587 118.319 133.837 118.752C134.087 119.185 134.633 119.332 135.066 119.082C135.499 118.832 135.646 118.285 135.396 117.852C135.146 117.419 134.599 117.273 134.166 117.523Z" fill="white"/>
<path d="M94.0725 133.28L92.145 137.741C91.9852 138.064 92.0985 138.461 92.4218 138.621L95.7074 141.112C95.7574 141.198 95.894 141.235 96.0672 141.135L115.206 130.085L117.032 130.647L138.423 118.297L133.823 110.33L94.2457 133.18C94.1591 133.23 94.0725 133.28 94.0725 133.28ZM135.315 119.514C134.622 119.914 133.803 119.695 133.403 119.002C133.003 118.309 133.222 117.489 133.915 117.089C134.608 116.689 135.428 116.909 135.828 117.602C136.228 118.295 136.008 119.114 135.315 119.514ZM112.353 124.342L119.627 120.142C119.801 120.042 119.887 119.992 120.01 119.806L120.54 118.923C120.7 118.599 120.909 118.363 121.169 118.213L132.774 111.513L134.224 114.024L113.439 126.024C112.92 126.324 112.323 126.091 112.073 125.658C111.737 125.275 111.92 124.592 112.353 124.342Z" fill="white"/>
<path d="M195.851 76.365L138.087 109.715C137.395 110.115 137.175 110.935 137.575 111.627L141.875 119.075C142.175 119.595 142.821 119.915 143.354 119.838L144.913 118.938L141.313 112.702C140.713 111.663 141.029 110.21 142.155 109.56L193.684 79.8105C194.723 79.2105 196.175 79.5265 196.825 80.6523L200.425 86.8877L202.071 85.9377C202.404 85.5145 202.45 84.7949 202.15 84.2753L197.85 76.8275C197.364 76.1847 196.458 76.015 195.851 76.365Z" fill="white"/>
<path d="M226.154 62.4506L199.48 77.8506L202.38 82.8735L229.054 67.4735L226.154 62.4506Z" fill="white"/>
<path d="M228.059 61.35L226.934 62L229.834 67.0229L230.959 66.3729C231.652 65.9729 231.858 64.9301 231.458 64.2373L230.108 61.899C229.658 61.1196 228.752 60.95 228.059 61.35Z" fill="white"/>
<path d="M231.804 49.8356C231.804 49.8356 231.667 49.799 231.58 49.849L230.714 50.349L229.964 49.05L226.327 51.15L226.977 52.2758L224.552 53.6758C224.292 53.8258 224.082 54.0624 223.873 54.299L222.641 56.1651L232.946 50.2151L231.804 49.8356Z" fill="white"/>
<path d="M193.751 80.9271L143.002 110.227C142.222 110.677 141.879 111.683 142.379 112.549L145.779 118.438L199.473 87.4384L196.073 81.5494C195.573 80.6834 194.53 80.4771 193.751 80.9271ZM195.465 87.0965L147.141 114.997L146.641 114.13L194.965 86.2305L195.465 87.0965ZM193.915 84.4118L145.591 112.312L145.091 111.446L193.415 83.5458L193.915 84.4118Z" fill="white"/>
<path d="M140.141 102.872L139.102 103.472L138.502 102.433L136.77 103.433L137.42 104.559L134.043 106.509L134.343 107.028L140.491 103.478L140.141 102.872Z" fill="white"/>
<path d="M133.803 108.494L140.053 119.319L140.572 119.019L136.622 112.178C135.972 111.052 136.375 109.549 137.501 108.899L195.265 75.5494C196.304 74.9494 197.62 75.2288 198.393 76.1681L237.364 53.6681L235.214 49.9441L133.803 108.494Z" fill="white"/>
<path d="M115.225 131.114L96.1721 142.114C95.9123 142.264 95.6025 142.327 95.3659 142.117L91.557 139.12C91.1338 138.787 90.8704 138.131 91.1535 137.621L93.1908 132.75C93.364 132.65 93.4872 132.463 93.5738 132.413L133.238 109.513L132.438 108.128L92.9604 131.151C92.3542 131.501 91.8479 132.024 91.5283 132.671C90.0535 135.716 85.1458 145.016 80.6131 149.365C78.9454 153.676 77.6447 159.623 78.9832 167.742L79.5198 168.471C80.2064 169.46 81.2992 169.753 82.2519 169.203L90.1693 164.517C90.9487 164.067 91.2915 163.06 91.0147 162.181C89.7576 158.404 87.752 148.13 99.1774 142.919L117.697 131.996L118.197 132.862L118.897 134.074L133.793 125.474L132.593 123.396L139.138 119.732L138.738 119.04L117 131.59L115.225 131.114ZM93.5044 144.693C86.603 149.14 88.2853 159.253 88.9559 162.215C88.9693 162.438 88.9827 162.661 88.9095 162.935C88.8729 163.071 88.8729 163.071 88.8363 163.208C88.6765 163.531 88.3435 163.954 87.6506 164.354L83.6669 166.654C83.2339 166.904 82.7009 166.981 82.2411 166.785C81.8313 166.675 81.4947 166.292 81.2947 165.945C80.0607 161.808 80.7356 157.377 82.1935 153.302C82.3533 152.979 82.3765 152.619 82.5363 152.296C84.5602 147.201 87.7403 142.71 89.1956 140.83C89.775 140.034 90.1848 140.143 90.7946 140.6L93.6204 142.894C94.6035 143.597 94.024 144.393 93.5044 144.693Z" fill="white"/>
<path d="M79.0306 150.625C78.2145 151.211 77.4717 151.525 76.7155 151.615C76.0459 151.655 75.1299 152.068 74.6102 152.368L66.1634 157.938L28.3762 184.489C27.82 184.925 27.6004 185.745 28.0004 186.438L40.0004 207.222C41.1004 209.128 43.7923 209.19 45.0743 207.411L60.9383 185.088C60.9383 185.088 67.6404 172.096 78.0167 168.069C76.805 160.57 77.5861 154.923 79.0306 150.625ZM75.3014 157.165L75.4899 163.292C75.5301 163.962 75.2105 164.608 74.7909 165.081L66.7878 172.82C65.1326 174.353 63.6639 176.009 62.3819 177.788L46.8776 200.134C46.6312 200.507 46.2482 200.844 45.8152 201.094C45.2956 201.394 44.676 201.521 44.0064 201.561C42.9269 201.491 41.9073 200.925 41.3073 199.886L33.8939 186.846C33.7939 186.672 33.8171 186.313 33.9903 186.213L72.0827 155.791C72.639 155.354 73.3952 155.264 74.1282 155.533C74.8612 155.803 75.2612 156.496 75.3014 157.165Z" fill="white"/>
<path d="M109.35 143.742C109.524 143.642 107.091 143.43 107.55 140.624L105.645 141.724C106.095 142.504 107.358 144.892 109.35 143.742Z" fill="white"/>
</svg>
