<svg width="55" height="55" viewBox="0 0 256 256" fill="none" xmlns="http://www.w3.org/2000/svg">
  <path
    d="M62.2009 199.259C61.0609 197.599 60.6809 195.359 61.0309 192.609C60.3109 193.079 59.5609 193.569 58.8009 194.099C58.3909 196.769 58.7109 198.899 59.7509 200.429C60.6109 201.699 61.8109 202.279 62.6309 202.539C63.2309 202.129 63.8509 201.719 64.5009 201.299C63.7209 200.889 62.8709 200.259 62.1909 199.259H62.2009Z"
    fill="white" />
  <path
    d="M49.9514 209.509C48.5814 208.329 47.6814 206.559 47.2514 204.229C46.4414 205.169 45.6714 206.149 44.9414 207.159C45.6014 209.229 46.6014 210.719 47.9314 211.599C49.1814 212.429 50.4814 212.519 51.3514 212.449C51.7514 211.969 52.2014 211.449 52.7114 210.889C51.8514 210.699 50.8714 210.299 49.9514 209.509Z"
    fill="white" />
  <path
    d="M67.7411 188.699C67.1011 189.029 66.3311 189.449 65.4411 189.949C64.9411 192.799 65.2311 195.059 66.3211 196.659C67.0811 197.779 68.1111 198.359 68.9111 198.669C69.4611 198.359 70.0211 198.049 70.6011 197.739L67.7411 188.699Z"
    fill="white" />
  <path
    d="M50.6109 208.749C51.6109 209.609 52.7109 209.919 53.5509 210.009C54.1609 209.379 54.8409 208.719 55.6009 208.029C54.7509 207.719 53.8009 207.179 52.9809 206.219C51.7509 204.789 51.1409 202.779 51.1109 200.249C50.0909 201.199 49.0809 202.209 48.1309 203.259C48.4609 205.749 49.2909 207.599 50.6209 208.749H50.6109Z"
    fill="white" />
  <path
    d="M65.5002 197.229C64.3602 195.569 63.9802 193.329 64.3302 190.569C63.6502 190.969 62.9102 191.409 62.1502 191.889C61.6402 194.779 61.9202 197.059 63.0202 198.669C63.7602 199.759 64.7402 200.339 65.5302 200.649C66.2602 200.189 67.0302 199.739 67.8302 199.269C67.0502 198.859 66.1902 198.229 65.5002 197.219V197.229Z"
    fill="white" />
  <path
    d="M58.9411 200.999C57.8711 199.439 57.4811 197.379 57.7211 194.859C56.9711 195.399 56.2111 195.969 55.4411 196.559C55.0111 199.279 55.3211 201.429 56.3811 202.979C57.2111 204.189 58.3411 204.769 59.1611 205.049C59.9411 204.449 60.7611 203.839 61.6511 203.209C60.7711 202.819 59.7511 202.149 58.9511 200.979L58.9411 200.999Z"
    fill="white" />
  <path
    d="M63.37 173.86C64.71 174.42 65.91 174.56 66.93 174.24C67.12 174.18 67.29 174.11 67.45 174.03C67.45 174.01 67.45 174 67.45 174C67.45 174 68.38 173.86 68.74 171.51C68.93 170.25 67.97 168.08 68.64 166.15C69.15 164.68 71.0101 163.45 72.7601 162.3C72.7601 162.3 67.32 160.56 61.89 169.53C61.89 169.53 60 171.72 63.38 173.86H63.37Z"
    fill="white" />
  <path
    d="M72.2304 182.09C71.7704 181.68 70.3904 180.4 69.4104 178.85C68.6604 177.65 68.0604 176.02 67.7304 174.98C67.5704 175.05 67.4103 175.12 67.2403 175.18C66.7703 175.33 66.2804 175.4 65.7604 175.4C65.1604 175.4 64.5204 175.3 63.8604 175.1C64.8304 177.84 67.3403 184.34 68.5303 187.41H68.5603L68.7003 187.83C69.0003 188.6 69.1804 189.07 69.1804 189.07C69.1804 189.07 69.1503 189.08 69.1003 189.11L72.8103 200.82C73.4003 202.51 74.2503 204.85 75.3103 207.45C75.5203 207.23 75.7603 207.01 76.0603 206.81C76.7903 206.33 77.6604 206.05 78.6604 205.98C78.0904 204.25 76.4204 198.62 77.7304 195.96C79.1004 191.27 82.1304 187.18 85.6604 183.8C81.1404 185.68 75.3903 186.19 72.2403 182.1L72.2304 182.09Z"
    fill="white" />
  <path
    d="M55.5611 203.569C54.5011 202.009 54.1011 199.959 54.3411 197.449C53.5911 198.059 52.8511 198.689 52.1111 199.349C51.9911 202.069 52.5311 204.149 53.7311 205.569C54.5911 206.579 55.6511 207.059 56.4711 207.279C57.0311 206.799 57.6211 206.299 58.2411 205.789C57.3711 205.399 56.3611 204.729 55.5611 203.569Z"
    fill="white" />
  <path
    d="M47.4003 212.439C46.0303 211.539 44.9803 210.099 44.2403 208.149C43.2103 209.689 42.3103 211.299 41.5703 212.979C44.6803 214.419 47.5003 215.149 49.1503 215.489C49.4503 214.999 49.9003 214.299 50.5403 213.449C49.6203 213.399 48.5003 213.149 47.4003 212.429V212.439Z"
    fill="white" />
  <path
    d="M82.2104 213.78C83.8404 210.9 80.8304 208.06 79.4604 206.97C78.3304 206.94 77.3704 207.14 76.6204 207.63C76.2204 207.89 75.9304 208.21 75.7104 208.51C75.4204 209.08 71.4004 217.45 86.1104 221.05C86.1104 221.05 80.1304 217.43 82.2004 213.77L82.2104 213.78Z"
    fill="white" />
  <path
    d="M40.8811 213.769C40.3411 213.939 39.3511 214.339 38.5911 215.119C36.5611 217.189 35.1611 220.739 31.8111 215.789C31.8111 215.789 30.7411 220.409 32.0111 223.159C33.6611 226.719 36.8411 228.549 40.2011 228.219C44.1511 227.819 50.0611 225.639 48.6711 216.439C46.8911 216.059 44.0311 215.289 40.8711 213.779L40.8811 213.769ZM43.7811 223.229C42.6311 224.199 40.9311 224.059 39.9711 222.929C39.0211 221.799 39.1711 220.099 40.3211 219.129C41.4711 218.159 43.1711 218.299 44.1211 219.429C45.0711 220.559 44.9211 222.259 43.7711 223.229H43.7811Z"
    fill="white" />
  <path
    d="M183.991 93.0132C183.991 93.0132 191.301 95.6432 184.181 104.123C178.331 111.073 145.481 141.713 117.371 159.033C90.7607 175.433 76.0207 180.713 74.7607 181.153C78.6907 184.913 84.9207 183.343 89.3307 180.973C89.5307 180.863 89.7507 180.783 90.0007 180.883C90.5107 181.083 90.5507 181.773 90.1507 182.063C90.0907 182.123 89.9007 182.283 89.8407 182.333C85.9907 185.683 82.5207 189.653 80.3607 194.323C80.4907 194.173 80.6207 194.033 80.7807 193.923C84.6507 191.263 109.281 179.313 119.001 173.533C125.541 169.653 156.251 150.053 182.691 122.953C195.581 109.743 205.881 94.1432 215.221 78.5832C225.541 61.3832 230.191 27.3832 230.191 27.3832C230.191 27.3832 203.551 79.9732 183.981 93.0132H183.991ZM98.5207 178.863C97.6407 179.603 96.3507 179.493 95.6207 178.633C94.8907 177.773 95.0107 176.473 95.8907 175.733C96.7707 174.993 98.0607 175.103 98.7907 175.963C99.5207 176.823 99.4007 178.123 98.5207 178.863ZM107.781 174.333C107.021 174.973 105.891 174.883 105.251 174.133C104.621 173.383 104.721 172.253 105.481 171.613C106.241 170.973 107.371 171.063 108.011 171.813C108.651 172.563 108.541 173.693 107.781 174.333ZM197.911 91.3432C197.911 91.3432 196.461 92.7932 195.941 93.3032C196.181 94.4332 195.951 95.5632 195.651 96.5532C192.951 104.003 187.361 109.893 182.091 115.623C176.051 122.153 169.661 128.363 163.051 134.313C149.571 145.963 134.681 155.723 119.781 165.423C127.061 160.343 134.301 155.213 141.441 149.943C155.981 139.693 168.941 127.633 181.041 114.643C185.611 109.903 190.061 104.933 193.301 99.1632C194.171 97.4732 195.291 95.4132 194.991 93.5132C193.161 93.1132 191.271 92.7732 189.391 92.9832C191.241 92.3432 193.271 92.3832 195.211 92.6232L197.251 90.6732C208.001 80.0532 215.881 66.6132 220.961 52.4332C216.161 66.7932 208.501 80.4432 197.921 91.3432H197.911Z"
    fill="white" />
</svg>