<svg width="55" height="55" viewBox="0 0 256 256" fill="none" xmlns="http://www.w3.org/2000/svg">
  <path
    d="M236.139 24.8799C221.049 25.2499 205.109 44.0499 205.109 44.0499L92.0693 156.34C80.9493 151.52 84.3593 162.76 84.3593 162.76C84.3593 162.76 84.0693 164.21 80.0893 167.12C76.1193 170.03 70.4093 163.15 70.4093 163.15C71.3193 163.66 72.2493 162.82 72.9293 161.92C73.6293 160.99 73.8193 158.86 73.3693 157.79C72.4693 155.69 68.1393 150.29 63.2293 154.12C57.2693 158.78 63.7793 169.74 67.7493 175.35C67.9093 175.53 68.0893 175.76 68.2893 176.01C69.8393 178 74.0993 183.44 81.4893 189.96C81.5393 189.92 81.5693 189.9 81.5693 189.9C90.4393 198.56 97.7993 199.25 101.309 198.51C102.959 198.16 104.489 197.34 105.519 196C106.709 194.46 107.239 190.7 104.099 188.04C97.5993 182.54 95.3793 189.11 95.3793 189.11C91.7993 185.79 91.6793 185.18 91.7993 182.2C91.9193 179.22 97.1893 175.76 97.1893 175.76C107.519 177.02 102.899 167.56 102.899 167.56C102.899 167.56 197.979 72.7399 217.979 54.3799C237.979 36.0199 236.119 24.8799 236.119 24.8799H236.139ZM86.8293 175.83C84.8993 177.68 81.5393 177.31 81.5393 177.31C81.5393 177.31 81.2993 173.94 83.2193 172.08C85.1493 170.23 88.5093 170.6 88.5093 170.6C88.5093 170.6 88.7493 173.97 86.8293 175.83ZM90.3393 164.05C89.1193 164.13 87.3893 162.99 86.9393 161.34C86.0793 158.21 89.8193 156.95 90.6493 158.91C92.3993 163.06 97.9393 160.46 97.9393 160.46C97.9393 160.46 94.3193 163.79 90.3493 164.05H90.3393ZM97.7093 172.54C96.0793 172.02 95.0093 170.24 95.1393 169.03C95.5493 165.07 99.0193 161.59 99.0193 161.59C99.0193 161.59 96.2093 167.02 100.289 168.93C102.219 169.83 100.809 173.53 97.7093 172.54ZM106.179 153.21C105.929 153.43 105.689 153.66 105.439 153.89C103.069 156.25 100.789 158.74 99.0193 161.59C100.349 159.41 101.969 157.43 103.699 155.55C101.869 157.32 100.019 159.09 97.9293 160.45C100.919 158.37 103.389 155.56 106.039 153.07C144.159 115.17 184.099 73.3399 223.259 37.0699C186.089 75.8599 144.599 115.52 106.169 153.21H106.179Z"
    fill="white" />
  <path
    d="M35.1094 218.17L41.3294 224.64C42.7894 223.32 44.2194 222.05 45.5894 220.82L39.1094 214.08C37.2794 215.96 35.8794 217.39 35.1094 218.18V218.17Z"
    fill="white" />
  <path
    d="M34.1298 218.59C32.3298 217.04 30.2398 216.62 28.6798 216.38C23.7998 215.62 20.6898 219.51 20.6898 219.51C20.6898 219.51 18.2798 222.22 21.4398 227.05C24.5998 231.88 28.2698 229.36 28.2698 229.36L29.4898 230.63C26.9198 234.86 31.6098 237.65 33.4998 238.29C34.6098 238.67 36.0498 239.2 37.7098 238.61C38.8798 238.19 40.1698 237.1 41.4298 235.51C44.2298 231.99 41.2198 226.37 40.6898 225.43L34.1198 218.6L34.1298 218.59ZM27.1998 226.58C25.8198 226.69 23.8598 225.43 23.3798 223.57C22.4598 220.03 26.7498 218.52 27.6498 220.73C29.5498 225.41 35.9098 222.34 35.9098 222.34C35.9098 222.34 31.7198 226.2 27.1998 226.58ZM35.4098 236.08C33.5698 235.53 32.3798 233.53 32.5498 232.15C33.0998 227.64 37.1198 223.61 37.1198 223.61C37.1198 223.61 33.8098 229.84 38.4098 231.93C40.5798 232.91 38.9098 237.14 35.3998 236.09L35.4098 236.08Z"
    fill="white" />
  <path
    d="M46.3405 220.14C65.7405 202.82 76.1405 194.26 79.9205 191.23C75.0905 186.94 71.6105 183.14 69.3405 180.46C64.1605 187.92 48.2505 204.65 39.8105 213.35L46.3405 220.14Z"
    fill="white" />
</svg>