<svg width="55" height="55" viewBox="0 0 256 256" fill="none" xmlns="http://www.w3.org/2000/svg">
  <path
    d="M86.7399 170.08C86.7399 170.08 92.2399 174.98 90.2199 177.78L87.5899 180.47C87.5899 180.47 86.2099 181.27 85.3699 180.75C85.3699 180.75 88.5199 178.56 83.1599 173.73C78.2199 168.46 76.8699 172.27 76.8699 172.27C76.3399 171.44 76.5999 169.68 76.5999 169.68L79.2299 166.99C81.9899 164.92 86.7499 170.07 86.7499 170.07L86.7399 170.08Z"
    fill="white" />
  <path
    d="M61.8701 188.82C64.4001 189.52 66.8501 190.12 69.4201 189.54C70.1101 189.41 70.7901 189.42 71.4601 189.51L70.4201 188.49C68.1701 188.58 65.5001 187.85 63.9901 186.66L61.8801 188.81L61.8701 188.82Z"
    fill="white" />
  <path
    d="M66.83 192.53C64.6 193.04 61.46 192.42 59.54 191.2L57.5 193.28C59.67 193.84 61.79 194.22 64.01 193.72C66.43 193.28 68.83 194.33 70.57 195.99L72.58 193.94C70.85 192.86 68.84 192.14 66.83 192.53Z"
    fill="white" />
  <path
    d="M69.6195 190.52C67.2095 191.08 63.6695 190.29 61.8395 188.85L59.7295 191C62.0395 191.62 64.2795 192.07 66.6295 191.55C68.9295 191.13 71.2195 192.06 72.9395 193.58L74.2395 192.25L72.6595 190.7C71.6695 190.42 70.6495 190.33 69.6195 190.53V190.52Z"
    fill="white" />
  <path d="M69.4798 187.58L66.2198 184.38L64.0098 186.63C65.8498 187.14 67.6498 187.59 69.4798 187.58Z" fill="white" />
  <path
    d="M57.2301 193.56L55.0801 195.75C56.8101 196.12 58.5301 196.29 60.3101 195.89C63.1101 195.37 65.8901 196.87 67.6501 198.98L70.2701 196.31C68.4701 195.12 66.3601 194.29 64.2201 194.7C62.1101 195.18 59.1701 194.65 57.2301 193.56Z"
    fill="white" />
  <path
    d="M60.5095 196.87C58.7595 197.27 56.4595 196.97 54.6095 196.24L52.9195 197.96C54.3695 198.21 55.8195 198.28 57.3195 197.94C60.3195 197.39 63.3095 199.13 65.0295 201.48L64.9595 201.55C62.9195 199.86 60.2295 198.39 57.5195 198.91C55.9995 199.26 54.0395 199.08 52.3395 198.54L52.3195 198.56C52.3195 198.56 51.7895 199.07 50.7995 200.12C51.9595 200.25 53.1295 200.25 54.3295 199.98C57.3295 199.43 60.3195 201.17 62.0395 203.52L61.9695 203.59C59.9295 201.9 57.2395 200.43 54.5295 200.95C53.2495 201.25 51.6595 201.16 50.1695 200.8C49.7295 201.28 49.2195 201.85 48.6595 202.5C49.3295 202.5 50.0095 202.43 50.6895 202.27C53.6895 201.72 56.6795 203.46 58.3995 205.81L58.3295 205.88C56.2895 204.19 53.5995 202.72 50.8895 203.24C49.9995 203.44 48.9695 203.46 47.9295 203.34C47.5295 203.81 47.0995 204.32 46.6495 204.87C46.7595 204.85 46.8595 204.84 46.9695 204.82C49.9695 204.27 52.9595 206.01 54.6795 208.36L54.6095 208.43C52.5695 206.74 49.8795 205.27 47.1695 205.79C46.7295 205.89 46.2495 205.93 45.7595 205.95C45.5195 206.25 45.2695 206.56 45.0095 206.88C47.3795 207.11 49.5895 208.58 50.9695 210.47L50.8995 210.54C49.0595 209.02 46.6895 207.69 44.2495 207.82C43.9295 208.23 43.5895 208.66 43.2495 209.1C44.8395 209.73 46.2595 210.86 47.2495 212.22L47.1795 212.29C45.8995 211.23 44.3495 210.25 42.7095 209.81C42.4595 210.13 42.2195 210.45 41.9695 210.79C41.8295 210.98 41.6895 211.14 41.5495 211.32C42.5695 211.96 43.4795 212.8 44.1695 213.74L44.0995 213.81C43.2095 213.07 42.1895 212.39 41.0995 211.88C40.6495 212.44 40.2195 212.97 39.7995 213.46C40.4895 214 41.1195 214.63 41.6195 215.32L41.5495 215.39C40.8995 214.85 40.1695 214.34 39.3995 213.9C38.8895 214.47 38.3995 214.99 37.9395 215.45L43.7095 221.11C44.8495 219.91 46.3295 218.54 48.2995 217C56.6895 210.4 60.3395 206.39 60.3395 206.39L67.4795 199.1C65.5095 197.58 63.0195 196.34 60.4995 196.82L60.5095 196.87Z"
    fill="white" />
  <path
    d="M43.0398 221.89L37.2198 216.19C33.8198 219.31 31.9898 219.3 31.9898 219.3L29.8998 219.34L28.7998 220.47L25.7598 229.49L29.9898 233.63L38.9498 230.4L40.0498 229.27V227.18C40.0498 227.18 39.9998 225.35 43.0498 221.89H43.0398ZM31.0298 230.85L28.6998 228.56L31.1898 222.35L37.2498 228.29L31.0298 230.85ZM38.6098 226.9C37.0298 225.41 33.8998 222.35 32.3798 220.8L32.4498 220.73C34.5898 221.52 36.2398 223.05 37.5798 224.83C38.0098 225.43 38.3998 226.07 38.6698 226.83L38.5998 226.9H38.6098Z"
    fill="white" />
  <path d="M54.6797 166.23L54.7197 168.64L57.1897 168.62L57.1497 165.98L54.6797 166.23Z" fill="white" />
  <path d="M89.3496 200.2L89.3896 202.61L91.8596 202.6L91.8196 199.95L89.3496 200.2Z" fill="white" />
  <path
    d="M95.18 198.43L96.12 197.48L94.41 195.81L93.43 196.81L88.64 196.37L84.26 193.61C84.65 193.65 93.94 194.66 93.64 184.6C93.64 184.6 93.23 181.77 91.03 178.39L90.99 178.44L90.94 178.49L88.31 181.18L88.19 181.31C89.02 182.76 90.62 186.34 87.54 188.5C83.61 191.27 79.73 187.49 78.78 186.61C77.83 185.73 76.17 182.43 77.85 179.42C74.88 181.16 71.7 179.67 70.65 178.64C69.6 177.61 65.9 173.91 68.59 169.92C70.69 166.79 74.31 168.32 75.77 169.12L75.89 168.99L78.52 166.3L78.57 166.25L78.62 166.21C75.2 164.08 72.36 163.73 72.36 163.73C62.31 163.63 63.49 172.89 63.54 173.29L60.7 168.97L60.16 164.19L61.14 163.19L59.43 161.52L58.49 162.47L53.13 163.02L51.84 161.75L50.21 163.41L51.5 164.68L51.55 169.87L50.45 171L52.16 172.67L53.02 171.79L56.36 172.38L85.31 200.75L85.96 204.08L85.1 204.96L86.81 206.63L87.91 205.5L93.1 205.45L94.39 206.72L96.02 205.06L94.73 203.79L95.17 198.42L95.18 198.43ZM53.74 169.64L53.68 165.32L58.14 164.86L58.21 169.61L53.74 169.63V169.64ZM88.41 203.62L88.35 199.3L92.81 198.84L92.88 203.59L88.41 203.61V203.62Z"
    fill="white" />
  <path
    d="M85.2795 180.09L85.2195 179.55C85.2195 179.55 85.1695 179.09 85.1295 178.54C85.0895 178.09 85.0695 176.8 82.4995 174.49L82.4695 174.46L82.4395 174.43C80.4195 172.28 79.2695 171.95 78.7595 171.95C78.1195 171.95 77.1895 172.14 77.1495 172.24L76.1295 172.97L71.9795 177.09C72.1995 177.33 72.4595 177.58 72.7395 177.76C73.3595 178.18 76.4895 178.52 80.1795 177.17C78.0695 180.62 79.0595 183.73 80.0395 184.96C80.2695 185.24 80.5595 185.5 80.8295 185.72L85.3595 180.81C85.4095 180.64 85.2895 180.08 85.2895 180.08L85.2795 180.09Z"
    fill="white" />
  <path
    d="M210.12 39.94L83.0596 166.09C85.2096 167.06 87.0696 168.98 87.4396 169.38C87.9796 169.87 90.6796 172.4 91.4596 175.03L218.63 47.05C218.63 47.05 228.11 36.1 231.07 25.77C220.8 28.92 210.13 39.95 210.13 39.95L210.12 39.94ZM92.1596 165.84C128.35 129.3 178.27 77.2 215.02 42.28L215.13 42.39C180.58 78.97 128.31 130.24 92.1596 165.84Z"
    fill="white" />
</svg>