<svg width="55" height="55" viewBox="0 0 256 256" fill="none" xmlns="http://www.w3.org/2000/svg">
  <path
    d="M105.995 183.229L86.7177 197.549L61.5421 221.446C60.0326 222.881 58.7914 224.58 57.905 226.471C55.7015 231.168 50.837 240.283 46.4082 239.498C32.4786 237.037 30.3157 221.793 30.3157 221.793L86.9199 162.877L87.3419 163.104L105.996 183.219L105.995 183.229ZM43.3863 221.54C42.0474 222.859 42.0413 225.017 43.3607 226.356C44.6801 227.694 46.8376 227.701 48.1764 226.381C49.5152 225.062 49.5214 222.904 48.202 221.565C46.8826 220.227 44.7251 220.22 43.3863 221.54ZM63.4192 197.8C61.3943 199.16 61.3724 202.079 63.39 203.468C64.5078 204.238 66.0425 204.25 67.1719 203.495C69.1968 202.134 69.2187 199.215 67.201 197.826C66.0832 197.057 64.5486 197.044 63.4192 197.8ZM83.0305 182.174C84.3909 184.198 87.3099 184.22 88.6992 182.203C89.4685 181.085 89.4809 179.55 88.7255 178.421C87.3652 176.396 84.4462 176.374 83.0569 178.392C82.2876 179.509 82.2752 181.044 83.0305 182.174Z"
    fill="white" />
  <path
    d="M229.282 54.55C226.172 28.04 194.042 21 194.042 21C202.742 32.37 201.362 43.76 198.702 51.26C197.042 55.94 194.162 60.1 190.482 63.44L161.712 89.65L97.0422 150.19C96.0722 151.09 93.3622 154.25 92.5822 155.32L90.5022 158.5C89.8822 159.35 89.5422 160.38 89.5422 161.44V161.7L89.5322 161.71L107.732 181.77C119.992 171.54 211.222 95.38 216.092 89.87C221.322 83.97 231.662 74.9 229.272 54.53L229.282 54.55ZM211.562 84.11C208.262 88.33 204.432 92.05 200.032 95.19C200.322 94.71 119.082 163.36 119.282 162.44C119.322 162.42 198.862 93.56 198.922 93.55C203.022 90.55 206.752 86.84 209.962 82.84C216.422 74.86 220.442 64.67 219.172 54.3C218.652 49.12 216.562 44.08 214.432 39.41C217.402 43.62 219.402 48.92 220.322 54.14C222.182 64.81 218.202 75.79 211.572 84.1L211.562 84.11Z"
    fill="white" />
</svg>