<svg width="55" height="55" viewBox="0 0 256 256" fill="none" xmlns="http://www.w3.org/2000/svg">
  <path
    d="M166.182 73.22L86.8223 149.23L107.072 171.01L107.272 170.84L109.452 171.05C109.962 171.1 110.472 170.94 110.852 170.6C114.412 167.43 133.402 150.48 154.722 129.97C189.002 97.01 231.622 51.04 231.542 20C231.542 20 175.402 73.71 166.182 73.22ZM109.162 160.93C140.002 131.64 173.492 102.36 198.772 68.1C201.782 64 203.172 61.94 205.772 57.6C200.602 61.79 197.912 63.34 192.362 67C185.902 71.03 178.882 75.34 171.822 77.67C186.832 70.89 200.082 60.82 212.622 50.28C206.352 62.26 197.832 72.85 189.132 83.11C165.852 110.35 135.512 136.82 109.152 160.93H109.162Z"
    fill="white" />
  <path
    d="M65.4424 166.89C67.3424 169.25 74.6224 179.02 74.3624 189.86C75.0024 189.15 75.6524 188.44 76.2824 187.72C77.1724 177.23 70.2724 167.41 67.9624 164.46L65.4424 166.9V166.89Z"
    fill="white" />
  <path
    d="M85.3726 150.62L85.1226 150.86L84.8126 150.54C84.1626 149.86 83.0826 149.84 82.4126 150.49L68.6826 163.76C70.9126 166.6 77.6326 176.06 77.3526 186.49C80.7626 182.53 83.9226 178.43 86.4626 174.4C86.4626 174.4 87.7226 172.02 91.1226 173.24C94.5226 174.46 101.993 174.83 104.393 173.35L105.563 172.33L85.3726 150.62Z"
    fill="white" />
  <path
    d="M64.7225 167.59L25.5226 205.47C23.5826 207.3 23.4826 210.36 25.3026 212.31L30.8626 218.29C32.5926 220.15 33.5526 222.59 33.5426 225.13V229.75C33.5426 233.46 36.8026 236.32 40.4826 235.83L41.2926 235.72C44.1326 235.34 46.1126 232.72 45.7126 229.89C45.7126 229.89 44.7526 228.23 44.2526 225.01C43.7526 221.79 44.1926 219.13 44.1926 219.13C44.1926 219.13 45.0826 217.46 48.2426 214.61C50.6526 212.44 62.4826 202.69 73.3026 191.01C74.1525 180.14 66.7026 170.06 64.7126 167.58L64.7225 167.59ZM39.6326 212.11C38.0526 214.25 34.8826 214.14 33.4626 211.89C32.6726 210.64 32.7326 208.96 33.6126 207.77C35.1926 205.63 38.3626 205.74 39.7826 207.99C40.5726 209.24 40.5126 210.92 39.6326 212.11Z"
    fill="white" />
</svg>