<svg width="55" height="55" viewBox="0 0 256 256" fill="none" xmlns="http://www.w3.org/2000/svg">
  <path
    d="M75.5993 157.02C75.4293 157.2 75.2593 157.39 75.0893 157.58C75.0893 157.58 41.1993 199.14 19.1793 215.48C18.0193 216.34 17.6793 217.9 18.3393 219.18C20.2993 222.93 24.9193 230.18 32.4193 232.85C33.3093 233.17 34.2993 232.88 34.8693 232.13C38.4693 227.38 53.7093 208.4 91.6393 173.76C87.9193 163.54 79.7493 158.83 75.6093 157.03L75.5993 157.02ZM36.7893 218.64C36.2293 219.18 35.4993 219.47 34.7193 219.47C34.6993 219.47 34.6793 219.47 34.6593 219.47C33.8593 219.45 33.1193 219.13 32.5593 218.55C32.0093 217.97 31.7093 217.22 31.7293 216.42C31.7493 215.62 32.0693 214.88 32.6493 214.32C33.2293 213.77 34.0293 213.48 34.7793 213.49C35.5793 213.51 36.3193 213.83 36.8793 214.41C37.4293 214.99 37.7293 215.74 37.7093 216.54C37.6893 217.34 37.3693 218.08 36.7893 218.64ZM58.4993 196.12C57.9393 196.66 57.2093 196.95 56.4293 196.95C56.4093 196.95 56.3893 196.95 56.3693 196.95C55.5693 196.93 54.8293 196.61 54.2693 196.03C53.7193 195.45 53.4193 194.7 53.4393 193.9C53.4593 193.1 53.7793 192.36 54.3593 191.8C55.5493 190.66 57.4493 190.69 58.5893 191.88C59.7293 193.07 59.6893 194.97 58.5093 196.11L58.4993 196.12ZM79.2993 174.33C78.7393 174.87 78.0093 175.16 77.2293 175.16C77.2093 175.16 77.1893 175.16 77.1693 175.16C76.3693 175.14 75.6293 174.82 75.0693 174.24C74.5193 173.66 74.2193 172.91 74.2393 172.11C74.2593 171.31 74.5793 170.57 75.1593 170.01C75.7193 169.47 76.4493 169.18 77.2293 169.18C77.2493 169.18 77.2693 169.18 77.2893 169.18C78.0893 169.2 78.8293 169.52 79.3893 170.1C79.9393 170.68 80.2393 171.43 80.2193 172.23C80.1993 173.03 79.8793 173.77 79.2993 174.33Z"
    fill="white" />
  <path
    d="M234.899 54.69L234.919 54.67L224.099 45.02L224.049 45.08L203.649 26.96C200.579 24.24 195.909 24.42 193.069 27.37L187.209 33.46C186.009 34.71 187.129 37.2 188.849 37.38L194.159 36.85C195.489 36.99 197.009 37.89 197.259 38.96C197.509 40.06 196.449 41.35 195.219 41.95L185.199 47.57C185.199 47.57 165.829 61.55 143.019 83.38C122.169 103.33 99.089 131.54 76.959 155.54C81.399 157.59 89.029 162.34 92.969 171.91C97.749 168.59 123.859 150.84 156.299 136.01C192.239 119.57 237.999 57.47 237.999 57.47L234.899 54.69ZM159.119 121.09C147.079 127.66 135.869 134.46 123.789 140.96C117.789 144.22 111.569 147.22 106.099 151.33C111.529 147.17 117.729 144.1 123.699 140.79C135.679 134.19 145.559 127.35 157.479 120.7C163.359 117.23 171.379 110.99 176.709 106.72C194.659 92.1 208.579 75.74 221.919 57.42L222.969 58.31C204.979 82.42 184.959 105.47 159.119 121.09Z"
    fill="white" />
</svg>