<svg width="55" height="55" viewBox="0 0 256 256" fill="none" xmlns="http://www.w3.org/2000/svg">
  <path
    d="M24.7006 219.84C16.5806 228.92 24.0606 235.41 24.0606 235.41C24.0606 235.41 30.5406 242.88 39.6306 234.77L52.9506 221.45L38.0306 206.53L24.7106 219.85L24.7006 219.84Z"
    fill="white" />
  <path
    d="M231.771 50.74C231.771 50.74 226.251 43.1 220.911 38.57C216.381 33.22 208.731 27.7 208.731 27.7C194.561 18.89 185.711 30.51 185.711 30.51C185.711 30.51 184.731 31.49 183.041 33.18L180.431 30.57L171.391 39.61L174.001 42.22C171.421 44.8 168.571 47.65 165.611 50.61L163.001 48L153.961 57.04L156.571 59.65C153.681 62.54 150.831 65.39 148.181 68.04L145.571 65.43L136.531 74.47L139.141 77.08C136.071 80.15 133.951 82.27 133.391 82.84C131.341 84.89 129.331 91.87 128.161 96.62C127.211 100.44 125.801 104.11 123.951 107.59C119.571 115.83 114.001 124.23 107.921 132.4L105.411 135.71C103.691 137.94 101.941 140.16 100.171 142.35L82.1409 163.01C74.0709 171.62 78.3509 166.98 75.1709 170.42L88.7309 183.92C92.0509 180.68 100.281 173.82 102.191 172.11L107.681 167.25C119.521 156.98 132.721 146.73 145.781 138.98C151.951 135.32 158.591 132.52 165.511 130.64C169.901 129.45 174.951 127.79 176.641 126.09C177.181 125.55 179.161 123.58 182.031 120.7L183.321 121.99L192.361 112.95L191.071 111.66C193.721 109.01 196.561 106.17 199.461 103.27L200.751 104.56L209.791 95.52L208.501 94.23C211.711 91.02 214.801 87.93 217.561 85.17L218.851 86.46L227.891 77.42L226.601 76.13C228.101 74.63 228.971 73.76 228.971 73.76C228.971 73.76 240.591 64.93 231.771 50.74ZM209.591 71.94C210.501 72.3 211.391 72.7 212.281 73.12C211.901 70.42 211.621 67.71 211.631 64.97C212.751 68.36 213.391 71.87 213.981 75.39C211.151 74.18 200.721 68.41 209.591 71.94ZM194.921 83.13C196.051 86.52 196.691 90.03 197.271 93.54C194.441 92.33 184.021 86.56 192.881 90.1C193.791 90.46 194.691 90.86 195.581 91.27C195.201 88.57 194.911 85.87 194.921 83.13ZM195.111 48.18C192.881 48.68 190.621 48.88 188.351 48.98C188.571 49.67 188.771 50.36 188.931 51.07C190.491 57.8 187.141 49.93 186.541 47.71C189.411 47.66 192.271 47.68 195.111 48.18ZM152.291 84.86C153.851 91.6 150.511 83.73 149.911 81.5C152.771 81.46 155.641 81.48 158.481 81.98C156.241 82.48 153.981 82.67 151.711 82.78C151.931 83.47 152.131 84.16 152.291 84.86ZM167.961 64.69C170.831 64.64 173.691 64.66 176.531 65.16C174.291 65.66 172.041 65.86 169.771 65.97C169.981 66.65 170.181 67.35 170.351 68.05C171.901 74.79 168.561 66.92 167.961 64.69ZM174.731 106.8C175.641 107.16 176.531 107.56 177.421 107.98C177.041 105.28 176.761 102.57 176.761 99.83C177.891 103.22 178.531 106.73 179.121 110.25C176.281 109.04 165.861 103.26 174.731 106.8Z"
    fill="white" />
  <path d="M178.25 30.8L166.54 25.26L171.68 37.37L178.25 30.8Z" fill="white" />
  <path d="M160.79 48.26L149.09 42.71L154.23 54.82L160.79 48.26Z" fill="white" />
  <path d="M143.41 65.65L131.7 60.1L136.84 72.21L143.41 65.65Z" fill="white" />
  <path d="M227.53 80.07L233.08 91.77L220.96 86.63L227.53 80.07Z" fill="white" />
  <path d="M210.07 97.52L215.62 109.23L203.51 104.09L210.07 97.52Z" fill="white" />
  <path d="M192.68 114.91L198.23 126.62L186.12 121.47L192.68 114.91Z" fill="white" />
  <path
    d="M59.1102 200.04C55.7302 197.57 52.7102 195.02 50.4302 192.96C49.9402 193.43 49.4602 193.89 48.9902 194.34C51.9802 197 56.1102 200.42 60.6102 203.37C60.0802 202.26 59.5802 201.14 59.1102 200.04Z"
    fill="white" />
  <path
    d="M61.45 205.1C56.33 201.91 51.58 198 48.26 195.03C47.92 195.36 47.58 195.67 47.25 195.98C50.32 199.8 56.33 206.77 63.02 211.83C63.47 211.33 63.93 210.83 64.4 210.31C63.34 208.65 62.36 206.89 61.45 205.1Z"
    fill="white" />
  <path
    d="M63.0898 206.08C63.7298 207.27 64.3998 208.43 65.0998 209.54C65.5798 209.01 66.0698 208.48 66.5798 207.94C65.4098 207.37 64.2498 206.75 63.0898 206.08Z"
    fill="white" />
  <path
    d="M51.1504 192.27C53.1004 194.02 55.5804 196.14 58.3704 198.25C56.8604 194.5 55.7104 191.03 54.9504 188.54C53.6504 189.83 52.3804 191.08 51.1504 192.27Z"
    fill="white" />
  <path
    d="M60.6904 201.17C61.1704 202.24 61.6804 203.32 62.2204 204.39C63.8804 205.42 65.5904 206.36 67.2904 207.17C67.6904 206.74 68.0904 206.32 68.5004 205.89C65.8304 204.55 63.1904 202.9 60.7004 201.17H60.6904Z"
    fill="white" />
  <path
    d="M43.0498 199.81C42.1998 200.55 41.5398 201.09 41.0898 201.41C44.8398 205.62 51.4998 212.48 58.5198 216.9C58.6198 216.78 58.7298 216.66 58.8298 216.54C52.3298 211.53 46.4298 204.33 43.0398 199.8L43.0498 199.81Z"
    fill="white" />
  <path
    d="M85.3704 190.17C85.7404 189.9 86.1004 189.65 86.4504 189.42C89.1604 187.62 88.4704 186.61 88.1504 186.06L72.9604 170.78C72.9604 170.78 71.8304 170.22 71.0404 171.21C70.5404 171.84 69.9904 172.51 69.4004 173.2C72.6104 177.49 78.6604 184.99 85.3604 190.17H85.3704Z"
    fill="white" />
  <path
    d="M70.8701 181.73C73.4101 185.65 76.7401 190.25 80.4701 194.14C80.9601 193.71 81.4501 193.29 81.9301 192.88C77.7801 189.51 73.9201 185.36 70.8801 181.72L70.8701 181.73Z"
    fill="white" />
  <path
    d="M44.0098 198.96C43.9398 199.02 43.8698 199.09 43.7998 199.15C47.1598 203.63 53.0398 210.84 59.4998 215.8C60.0898 215.13 60.7298 214.41 61.4198 213.63C54.3898 209.32 47.7598 202.89 44.0098 198.96Z"
    fill="white" />
  <path
    d="M46.52 196.67C45.89 197.25 45.3 197.8 44.75 198.3C48.48 202.22 55.11 208.63 62.09 212.88C62.17 212.78 62.26 212.69 62.35 212.59C55.64 207.49 49.63 200.53 46.52 196.67Z"
    fill="white" />
  <path
    d="M68.7405 173.97C68.2805 174.5 67.8005 175.05 67.3105 175.6C70.3505 179.69 76.1705 186.97 82.7005 192.23C83.3305 191.72 83.9405 191.23 84.5406 190.78C77.9305 185.6 71.9805 178.28 68.7405 173.97Z"
    fill="white" />
  <path
    d="M66.5001 176.5C66.3801 176.64 66.2501 176.78 66.1201 176.92C68.3001 182.22 72.2201 190.7 77.2701 197.06C78.0901 196.28 78.9101 195.53 79.7101 194.81C73.8101 188.64 68.9201 180.73 66.5001 176.51V176.5Z"
    fill="white" />
  <path
    d="M40.2202 201.94C38.3902 203.05 38.5002 204.08 38.5002 204.08C38.5002 204.08 38.2402 204.25 39.9702 205.78C41.6902 207.31 54.5902 220.38 54.5902 220.38C54.5902 220.38 55.1602 220.76 55.6702 220.21C55.7702 220.1 56.5702 219.17 57.8602 217.68C50.7102 213.14 43.9702 206.16 40.2202 201.95V201.94Z"
    fill="white" />
  <path
    d="M65.3801 177.73C64.6401 178.54 63.8701 179.37 63.0801 180.2C64.3501 183.39 66.4401 188.25 69.1701 193.14C71.1801 195.13 73.3401 197.05 75.5501 198.7C75.8801 198.38 76.2101 198.06 76.5401 197.74C71.5401 191.45 67.6201 183.12 65.3801 177.72V177.73Z"
    fill="white" />
  <path
    d="M56.93 186.55C56.53 186.95 56.14 187.34 55.75 187.74C56.59 190.55 58 194.84 59.92 199.4C62.84 201.52 66.01 203.56 69.21 205.14C69.44 204.9 69.67 204.66 69.89 204.42C64.19 198.46 59.42 190.86 56.93 186.55Z"
    fill="white" />
  <path
    d="M71.6799 202.58C65.9699 196.56 61.2099 188.94 58.7699 184.69C58.3999 185.06 58.0399 185.44 57.6699 185.81C60.0899 190.02 64.8699 197.7 70.5999 203.7C70.9599 203.33 71.3199 202.95 71.6899 202.58H71.6799Z"
    fill="white" />
  <path
    d="M68.3702 193.75C64.9102 190.31 61.8702 186.67 59.6302 183.8C59.5802 183.85 59.5402 183.9 59.4902 183.94C61.8602 188.08 66.6302 195.8 72.3802 201.86C72.6202 201.62 72.8602 201.37 73.1002 201.13C71.3702 198.81 69.7902 196.28 68.3702 193.75Z"
    fill="white" />
  <path
    d="M70.9805 196.23C71.8705 197.67 72.8205 199.08 73.8105 200.42C74.1505 200.08 74.4905 199.75 74.8305 199.41C73.5205 198.43 72.2405 197.35 70.9905 196.23H70.9805Z"
    fill="white" />
  <path
    d="M60.3301 183.08C62.0201 185.25 64.1901 187.89 66.6501 190.54C64.8001 186.92 63.3301 183.52 62.3201 181C61.6701 181.69 61.0001 182.38 60.3301 183.08Z"
    fill="white" />
</svg>