<svg width="55" height="55" viewBox="0 0 256 256" fill="none" xmlns="http://www.w3.org/2000/svg">
  <path d="M93.6507 178.21L81.8807 166.93L39.2607 208.66L53.7807 222.58L93.6507 178.21Z" fill="white" />
  <path d="M88.291 160.72L99.581 171.54L182.071 78.35L177.881 74.33L88.291 160.72Z" fill="white" />
  <path
    d="M82.7706 166.06L82.7206 166.11L94.4406 177.34L94.4906 177.29C102.781 179.26 98.7706 172.47 98.7706 172.47L98.8106 172.42L87.4506 161.53L87.4006 161.58C87.4006 161.58 80.4406 157.87 82.7606 166.07L82.7706 166.06Z"
    fill="white" />
  <path
    d="M32.3001 214.49C28.6201 215.45 18.7501 219.04 26.2001 228.56L26.1601 228.63L34.3701 236.5L34.4401 236.46C44.2801 243.5 47.4401 233.49 48.2501 229.77L32.3001 214.49Z"
    fill="white" />
  <path d="M25.5705 229.68L23.0605 234.1L29.0505 239.83L33.3505 237.14L25.5705 229.68Z" fill="white" />
  <path
    d="M33.5709 214.09L48.6009 228.49C55.7209 229.63 53.2409 223.92 53.0309 223.46L38.4009 209.44C37.9309 209.25 32.1309 207.02 33.5709 214.08V214.09Z"
    fill="white" />
  <path
    d="M180.83 74.1801C179.36 72.7701 178.05 71.1501 176.96 69.3701C170.02 58.0701 173.57 43.2401 184.86 36.3001C196.15 29.3601 210.99 32.9101 217.93 44.2001C221.29 49.6701 222.32 56.1301 220.83 62.3701C219.34 68.6101 215.5 73.9001 210.03 77.2701C204.56 80.6301 198.1 81.6601 191.86 80.1701C187.65 79.1601 183.88 77.1001 180.84 74.1801H180.83ZM212.87 40.6901C205.73 33.8501 194.59 32.3801 185.78 37.7901C175.31 44.2201 172.02 57.98 178.45 68.4501C181.57 73.5201 186.47 77.0801 192.26 78.4701C198.05 79.8501 204.04 78.9001 209.11 75.7801C214.18 72.6601 217.74 67.7601 219.13 61.9701C220.51 56.1801 219.56 50.1901 216.44 45.1201C215.42 43.4601 214.22 41.9801 212.87 40.6901Z"
    fill="white" />
  <path d="M187.48 75.76L189.07 91.61L198.4 78.55L187.48 75.76Z" fill="white" />
  <path d="M194.68 36.2L182.98 20.34L185.1 40.49L194.68 36.2Z" fill="white" />
  <path d="M212.891 42.9L219.98 24.4L204.021 37.06L212.891 42.9Z" fill="white" />
  <path d="M220.68 62.2999L235.37 55.0199L217.21 50.2799L220.68 62.2999Z" fill="white" />
  <path d="M177.03 44.39L160.49 46.64L176.61 55.39L177.03 44.39Z" fill="white" />
  <path d="M177.741 59.96L165.891 72.96L185.651 68.56L177.741 59.96Z" fill="white" />
  <path d="M221.2 88.54L204.91 77.63L214.34 69.26L221.2 88.54Z" fill="white" />
  <path
    d="M217.19 44.6599C210.49 33.7599 196.23 30.3499 185.33 37.0399C174.43 43.7399 171.02 57.9999 177.71 68.8999C184.41 79.7999 198.67 83.2099 209.57 76.5199C220.47 69.8299 223.88 55.5599 217.19 44.6599ZM180.96 43.0699C184.33 43.7999 187.69 44.5799 190.93 45.7799C188.32 45.6199 185.75 45.1999 183.19 44.7099C183.66 45.5699 184.12 46.4299 184.55 47.3099C185.16 48.5599 185.73 49.8299 186.19 51.1699C184.14 48.6799 182.52 45.8899 180.96 43.0699ZM205.11 48.6699C207.3 48.0499 209.56 47.9199 211.82 47.8699C211.12 50.1599 210.37 52.4399 209.22 54.5599C209.38 52.6799 209.78 50.8599 210.27 49.0599C208.54 49.0899 206.82 49.0299 205.11 48.6699ZM194.55 66.1599C195.14 67.4199 195.61 68.7099 196.04 70.0199C196.34 70.9299 196.6 71.8499 196.86 72.7799C198.37 70.6299 199.94 68.5399 201.72 66.5899C200.21 69.7199 198.32 72.6299 196.39 75.4999C195.56 72.4299 194.8 69.3399 194.55 66.1599Z"
    fill="white" />
</svg>