<svg width="55" height="55" viewBox="0 0 256 256" fill="none" xmlns="http://www.w3.org/2000/svg">
  <path
    d="M94.3203 146.51L109.91 162.53C123.18 150.84 221.03 63.8199 229.48 30.6299C196.07 38.1699 106.37 133.57 94.3203 146.51ZM157.61 102.85C147 112.78 125.59 133.88 114.95 143.28C142.14 116.58 170.86 86.6199 199.2 61.3299L199.32 61.4499C185.92 75.7599 171.86 89.3999 157.61 102.85Z"
    fill="white" />
  <path
    d="M48.5404 195.47C47.8404 196.31 47.1604 197.12 46.5104 197.91C45.9504 198.59 46.4104 199.62 47.2904 199.66L65.5404 200.51C66.9004 200.57 68.2304 200.14 69.2804 199.29C70.3304 198.44 71.4804 197.5 72.5904 196.59C73.3504 195.97 72.9404 194.73 71.9604 194.69L52.3904 193.78C50.9104 193.71 49.4904 194.34 48.5404 195.48V195.47Z"
    fill="white" />
  <path
    d="M42.4001 205.61L58.6301 206.37C59.7201 206.42 60.8001 206.08 61.6601 205.4C62.5201 204.72 63.3701 204.04 64.2501 203.34C65.0201 202.72 64.6201 201.47 63.6301 201.42L46.5901 200.63C45.1801 200.56 43.8101 201.17 42.9101 202.27C42.4501 202.83 42.0101 203.37 41.6001 203.87C41.0401 204.55 41.5101 205.57 42.3901 205.62L42.4001 205.61Z"
    fill="white" />
  <path
    d="M54.2804 188.65C53.5904 189.46 52.9204 190.26 52.2504 191.04C51.6804 191.72 52.1304 192.76 53.0204 192.8L73.2204 193.74C74.9304 193.82 76.6104 193.26 77.9204 192.16C78.8104 191.41 79.7004 190.66 80.5804 189.92C81.3204 189.29 80.9004 188.08 79.9304 188.03L58.0504 187.01C56.6104 186.94 55.2204 187.55 54.2804 188.65Z"
    fill="white" />
  <path
    d="M39.1497 206.9C39.0997 206.96 39.0597 207.01 39.0097 207.07C38.6697 207.49 38.6997 208.1 39.0797 208.49L42.3397 211.84C42.5297 212.04 42.7897 212.15 43.0597 212.16L52.0597 212.58C52.3097 212.59 52.5597 212.52 52.7597 212.36C53.9897 211.4 55.3697 210.34 56.8497 209.18C57.6297 208.57 57.2297 207.31 56.2397 207.26L40.0297 206.51C39.6897 206.49 39.3597 206.64 39.1397 206.91L39.1497 206.9Z"
    fill="white" />
  <path
    d="M90.6407 158.08L87.2107 154.56C86.6507 154.93 86.0607 155.36 85.4307 155.84C84.6007 156.48 85.0107 157.82 86.0607 157.87L90.6407 158.08Z"
    fill="white" />
  <path
    d="M48.3006 213.4L46.3706 213.31C45.4006 213.26 44.8706 214.43 45.5506 215.13L46.4206 216.03C46.8006 216.42 47.4106 216.47 47.8406 216.14C48.1506 215.9 48.5007 215.63 48.9007 215.33C49.7007 214.72 49.3006 213.45 48.3006 213.4Z"
    fill="white" />
  <path
    d="M59.8098 182.22C59.2098 182.91 58.6198 183.59 58.0298 184.27C57.4398 184.95 57.8998 186 58.7998 186.04L81.2498 187.08C82.8598 187.15 84.4298 186.6 85.6398 185.54C86.4198 184.85 87.1898 184.17 87.9398 183.5C88.6898 182.83 88.2298 181.67 87.2698 181.63L63.7598 180.54C62.2598 180.47 60.7998 181.09 59.8098 182.23V182.22Z"
    fill="white" />
  <path
    d="M65.9107 175.31C65.1807 176.13 64.4407 176.95 63.7107 177.78C63.1107 178.45 63.5607 179.52 64.4607 179.56L88.5307 180.68C90.0607 180.75 91.5507 180.19 92.6607 179.14C93.6707 178.18 94.6307 177.25 95.5207 176.35C96.1807 175.69 95.7307 174.57 94.8007 174.52L70.4807 173.39C68.7507 173.31 67.0607 174.01 65.9007 175.3L65.9107 175.31Z"
    fill="white" />
  <path
    d="M117.36 174.1L108.45 163.9L92.9198 147.93L82.9698 138.74C84.1298 135.9 83.6998 132.65 81.5598 130.45C78.6098 127.41 73.5798 127.52 70.3198 130.7C67.0598 133.87 66.8098 138.9 69.7598 141.93C71.8898 144.12 75.0798 144.64 77.9198 143.59L84.2198 150.06L84.2398 150.04L106 172.41L105.98 172.43L112.37 179C111.25 181.82 111.69 185.03 113.82 187.21C116.77 190.25 121.8 190.14 125.06 186.96C128.32 183.79 128.57 178.76 125.62 175.73C123.47 173.52 120.24 173 117.37 174.09L117.36 174.1Z"
    fill="white" />
  <path
    d="M46.2802 217.32L37.7902 208.59L37.7802 208.61C35.5502 207.17 28.7002 211.69 28.0602 215.22C27.3802 219.05 24.4902 230.02 24.4902 230.02C24.4902 230.02 35.5402 227.44 39.3902 226.86C42.9402 226.32 47.6502 219.6 46.2602 217.33C46.2602 217.33 46.2702 217.33 46.2802 217.32ZM29.5102 225.36L28.7602 225.48C29.5102 222.49 30.3202 219.52 31.4702 216.63C31.1902 219.22 30.6702 221.76 30.0802 224.27C31.2702 224.09 32.4602 223.93 33.6602 223.81C35.1102 223.66 36.5502 223.55 38.0102 223.52C35.2302 224.36 32.3702 224.9 29.5102 225.36Z"
    fill="white" />
  <path
    d="M101.07 168.8L99.5898 167.28C99.4098 167.1 99.1698 166.99 98.9198 166.98L76.9998 165.96C75.5198 165.89 74.0998 166.47 73.0798 167.54C72.0598 168.61 71.0898 169.65 70.0798 170.74C69.4998 171.36 69.9198 172.38 70.7698 172.42L95.8598 173.59C97.3198 173.66 98.7298 173.04 99.6798 171.93C100.23 171.29 100.72 170.68 101.15 170.11C101.45 169.71 101.42 169.16 101.07 168.8Z"
    fill="white" />
  <path
    d="M81.6906 159.02C80.4106 160.18 79.0506 161.49 77.6206 162.9C76.8506 163.66 77.3606 164.98 78.4406 165.03L95.1606 165.81C96.2906 165.86 96.9006 164.51 96.1106 163.7L92.0106 159.49C91.7906 159.26 91.4906 159.13 91.1806 159.11L82.5906 158.71C82.2606 158.69 81.9406 158.8 81.7006 159.03L81.6906 159.02Z"
    fill="white" />
</svg>