<svg width="816" height="816" viewBox="0 0 816 816" fill="none" xmlns="http://www.w3.org/2000/svg">
  <path
    d="M376.669 216.134C370.136 219.467 368.803 223.467 367.869 244C367.203 254.667 366.536 269.467 366.136 276.8L365.336 290.267L386.403 290.934C407.869 291.6 412.403 292.667 419.069 298.4C420.269 299.467 421.336 299.867 421.336 299.067C421.336 298.4 423.736 284.134 426.669 267.2C429.736 250.4 432.136 234.4 432.269 231.467C432.403 225.067 428.669 219.867 422.536 217.867C416.136 215.734 380.003 214.4 376.669 216.134Z"
    fill="white" />
  <path
    d="M303.733 236.934C297.866 240.534 297.199 244.134 297.199 268.4V290.934L324.266 290.667C339.066 290.667 351.733 290.134 352.266 289.6C352.799 289.067 353.599 279.2 354.133 267.734C355.599 235.734 354.533 234.667 325.733 234.667C310.933 234.667 306.666 235.2 303.733 236.934Z"
    fill="white" />
  <path
    d="M453.734 238.667C448.934 239.734 445.868 241.867 443.868 245.6C442.668 248 436.668 279.2 427.868 329.334C424.001 352.267 423.868 353.334 426.001 357.867C428.934 364 440.668 370 449.201 369.867C459.334 369.6 459.601 369.2 479.334 315.334C499.734 259.734 498.934 262.667 497.334 258.134C495.068 251.2 491.068 248.667 474.668 243.334C466.268 240.534 459.068 238.134 458.668 238C458.268 237.867 456.001 238.134 453.734 238.667Z"
    fill="white" />
  <path
    d="M507.067 287.2C504.801 288.266 502.001 290.933 500.801 293.066C498.401 297.733 472.801 365.866 471.467 371.2C470.134 376.666 472.801 382.8 478.401 387.066C482.667 390.4 484.267 390.8 489.601 390.266C493.067 390 496.801 388.933 498.001 388C499.067 387.066 505.334 378.4 511.867 368.8C518.401 359.2 528.001 345.2 533.067 337.866C545.601 319.733 547.067 316.666 546.134 311.2C545.201 306.4 539.067 300.4 526.401 291.733C517.867 285.733 512.934 284.666 507.067 287.2Z"
    fill="white" />
  <path
    d="M301.867 302.8C296.934 303.733 290.001 308.267 285.734 313.2C281.467 318 279.601 325.6 273.867 359.333C269.334 386.4 269.067 389.333 270.401 397.733C273.467 415.6 274.934 417.333 319.601 459.2C347.734 485.467 351.601 490 355.334 500.8C359.734 513.067 358.667 521.6 344.801 585.733C337.734 618.533 332.001 646 332.001 646.667C332.001 647.6 363.067 648 419.334 648H506.667V636.267C506.801 629.867 507.334 599.867 508.001 569.6L509.201 514.4L520.934 502.267C528.667 494.267 534.267 487.2 536.801 482L540.667 474L541.067 410.667C541.201 375.867 541.067 347.867 540.534 348.4C540.001 348.8 535.334 355.467 530.134 363.067C507.067 396.667 507.601 395.867 500.801 399.333C492.401 403.467 485.334 403.6 476.667 399.467C469.334 396.133 464.134 390.933 461.334 384.133C460.001 380.8 459.067 380.133 456.934 380.8C448.001 383.6 432.534 379.6 422.667 372L417.867 368.267L414.001 371.467C411.867 373.2 410.401 374.8 410.667 374.933C411.067 375.2 415.734 378.267 421.067 381.867C431.867 389.067 442.934 401.467 449.334 413.6C453.067 420.4 453.467 422.133 452.134 424.933C450.001 429.6 444.001 428.8 441.201 423.2C430.134 400.8 410.801 385.067 386.934 378.667C377.201 376.133 357.601 376.8 345.601 380C339.734 381.6 333.601 382.667 332.001 382.4C327.867 381.867 325.601 378 327.467 375.067C328.134 373.867 347.067 363.2 369.334 351.333C402.001 334.133 410.534 328.933 412.934 325.467C416.667 319.867 416.801 316.667 413.334 310.933C408.667 303.333 406.801 303.067 354.001 302.4C327.601 302.133 304.134 302.267 301.867 302.8Z"
    fill="white" />
  <path
    d="M392.402 352.4C381.335 358.4 371.735 363.733 371.202 364.266C370.668 364.933 377.335 365.333 386.135 365.333C403.468 365.333 406.402 364.4 409.868 357.6C411.468 354.4 414.135 341.2 413.068 341.466C412.802 341.466 403.602 346.4 392.402 352.4Z"
    fill="white" />
</svg>