<svg width="55" height="55" viewBox="0 0 256 256" fill="none" xmlns="http://www.w3.org/2000/svg">
  <path
    d="M64.3604 190.62C66.4604 194.72 69.5003 196.76 71.7003 197.74C117.94 148.33 228.66 24.03 228.66 24.03C228.66 24.03 111.12 141.59 64.3604 190.62Z"
    fill="white" />
  <path
    d="M31.9102 227.87C30.4002 229.4 27.4202 232.77 27.3402 235.79C27.3202 236.64 28.0502 237.33 28.9002 237.25C31.9802 236.97 35.2202 233.62 36.5802 232.05C35.7402 230.64 34.3102 229.02 31.9102 227.86V227.87Z"
    fill="white" />
  <path
    d="M48.6903 198.27C55.0503 204.18 64.0803 212.81 70.5903 218.48C71.3403 219.13 72.0903 219.79 72.8703 220.41C77.1903 209.49 71.2103 200.83 70.2703 199.58C67.8903 198.43 64.9103 196.29 62.7003 192.37C62.7003 192.37 53.0903 185.48 41.5303 190.85C43.6603 193.54 46.2503 195.85 48.6903 198.26V198.27Z"
    fill="white" />
  <path
    d="M75.8401 223.65C73.9901 222.29 73.1401 221.15 72.8801 220.78C72.8201 220.74 72.7501 220.7 72.6901 220.65C63.7301 214.32 55.7801 206.67 48.1001 198.87C45.7601 196.33 43.2301 193.86 41.3701 190.94C41.3701 190.94 39.9801 190.24 38.2001 188.08C37.1801 186.84 37.5501 184.68 35.8701 184.36C32.5301 183.74 31.6201 186.74 31.7001 187.72C31.7501 188.43 40.6101 196.74 45.6301 201.39L45.6501 201.36L48.2001 203.77C48.7001 204.23 49.0001 204.5 49.0001 204.5C49.0001 204.5 49.0001 204.5 49.0001 204.52L58.8401 213.8C58.8401 213.8 58.9301 213.89 59.0801 214.04L60.4901 215.37L60.4701 215.39C64.7101 219.49 75.7701 230.11 76.5701 230.12C77.5501 230.14 80.4801 229.05 79.6801 225.75C79.2801 224.1 77.1401 224.6 75.8501 223.65H75.8401Z"
    fill="white" />
  <path
    d="M36.9104 222.56C36.4804 222.45 32.0604 221.46 32.7704 227.03C35.0704 228.22 36.5204 229.82 37.4204 231.26C42.5504 231.52 41.6804 227.65 41.4804 226.94C40.7004 225.5 39.3104 223.8 36.9004 222.56H36.9104Z"
    fill="white" />
  <path
    d="M42.27 226.02C50.94 217.57 55.53 214.96 57.53 214.16L48.68 205.81C47.99 207.86 45.64 212.58 37.71 221.7C39.98 222.94 41.4 224.56 42.27 226.02Z"
    fill="white" />
</svg>