<svg width="55" height="55" viewBox="0 0 256 256" fill="none" xmlns="http://www.w3.org/2000/svg">
  <path
    d="M44.0301 223.44C43.9201 223.44 43.8101 223.44 43.7001 223.43C41.9201 223.31 40.3601 222.32 39.5301 220.79C38.7601 219.38 38.7201 217.68 39.3601 215.91C37.7001 215.06 33.9501 213.62 30.3901 215.52C26.4201 217.64 24.3701 221.92 24.3701 221.92C24.3701 221.92 28.8001 218.91 35.4701 222.91C35.4701 222.91 38.7801 227.55 36.4501 236.3C39.9301 234.3 46.0201 229.75 44.9301 223.35C44.6401 223.4 44.3301 223.44 44.0201 223.44H44.0301Z"
    fill="white" />
  <path
    d="M83.4398 193.12C83.4398 193.12 83.4498 193.14 83.4598 193.15C86.2298 191.87 87.2698 190.26 87.6398 189.27C87.5798 189.21 87.5198 189.15 87.4598 189.07C86.7798 188.18 86.7698 187.05 86.7698 186.95C85.2698 181.87 81.6698 178.99 79.9998 177.89L79.9598 177.94C79.9598 177.94 77.6398 177.8 76.7098 176.47C76.1898 177.66 74.9698 179.32 72.1498 180.62C72.3798 181.2 72.1898 182.05 72.4498 182.87C72.7298 183.74 73.9798 185.77 74.3398 186.38C74.3398 186.38 70.4598 188.26 65.9998 191.95C60.1598 196.79 52.9998 204.11 48.9998 208.08C47.0098 210.05 45.7798 213.72 45.7798 213.72L45.5098 213.96C46.5298 215.26 47.4398 216.2 48.1798 216.87L48.5598 216.55C48.5598 216.55 50.7898 217.41 54.7798 214.19C58.4698 211.22 67.5598 203.84 73.2898 197.93C76.9398 194.16 78.6198 190.52 78.6198 190.52L81.8898 192.2C81.8898 192.2 82.8498 192.36 83.4298 193.13L83.4398 193.12ZM52.6698 214.63C51.8898 212.48 51.5598 210.6 49.1398 209.53C52.1398 208.37 54.1598 212.23 52.6698 214.63ZM56.4798 211.36C55.6998 209.07 55.3098 207.03 52.7498 205.95C55.8798 204.8 57.9798 208.84 56.4798 211.36ZM59.6898 208.46C58.7198 206.22 58.2798 204.09 55.8798 202.79C58.9398 201.94 60.9498 205.98 59.6898 208.46ZM63.3598 205.24C62.3898 203 61.9498 200.87 59.5498 199.57C62.6098 198.72 64.6198 202.76 63.3598 205.24ZM66.9398 201.78C65.9698 199.54 65.5298 197.41 63.1298 196.11C66.1898 195.26 68.1998 199.3 66.9398 201.78ZM70.3998 198.74C69.4298 196.5 68.9898 194.37 66.5898 193.07C69.6498 192.22 71.6598 196.26 70.3998 198.74ZM73.8298 194.6C73.5398 195.59 73.4998 195.62 73.1398 194.65C72.4298 192.91 71.9498 191.59 70.1498 190.49C71.3398 189.99 72.7998 190.76 73.4298 191.89C73.9198 192.73 73.9898 193.68 73.8298 194.6Z"
    fill="white" />
  <path
    d="M85.7298 195.77C88.6598 194.42 89.6498 192.73 89.9798 191.75C89.7798 191.22 89.8898 190.6 89.5698 190.28C89.1698 189.89 88.8498 189.8 88.5398 189.72C88.0498 190.94 86.8298 192.73 83.7598 194.12C83.8398 194.5 83.9298 194.89 84.1898 195.15C84.5498 195.52 85.3598 195.25 85.6698 195.66C85.6898 195.69 85.7098 195.74 85.7298 195.77Z"
    fill="white" />
  <path
    d="M40.2402 216.41C39.7602 217.84 39.8102 219.2 40.4102 220.31C41.0802 221.54 42.3302 222.33 43.7702 222.43C44.1002 222.45 44.4202 222.42 44.7302 222.36C44.7302 222.34 44.7302 222.32 44.7202 222.3C44.7202 222.3 46.1302 222.32 47.2702 220.7C48.3302 219.2 47.3502 217.57 47.3502 217.57L47.4202 217.51C46.6602 216.81 45.7602 215.88 44.7702 214.6L44.5902 214.76C44.5902 214.76 43.0802 214.13 41.7802 215.05C40.4802 215.98 40.2502 216.39 40.2502 216.39L40.2402 216.41Z"
    fill="white" />
  <path
    d="M69.3205 178.26C69.4405 178.69 69.5406 179.15 69.7306 179.43C70.0606 179.91 70.6606 179.84 71.2206 179.95C75.9606 177.97 76.1005 175.05 76.1005 174.92H76.2505C76.1905 174.49 76.1305 174.09 75.9205 173.89C75.5905 173.58 75.1105 173.53 74.6305 173.25C74.2605 174.48 73.0805 176.67 69.3105 178.25L69.3205 178.26Z"
    fill="white" />
  <path
    d="M64.2699 169.44C64.5399 170.37 64.2099 171.89 64.4699 173.09C64.5799 173.59 64.9099 174.41 65.9299 175.52C66.5999 176.25 67.9499 176.41 68.8699 177.36C73.1499 175.59 73.7199 173.07 73.7899 172.45C72.9299 171.28 72.7099 169.89 71.3799 168.72C70.1999 167.68 67.1399 167.67 66.2399 166.92C65.7599 166.52 65.6299 166.13 65.2099 165.81C64.6799 165.4 63.4899 165.15 63.4899 165.15L62.3599 166.04C62.3599 166.04 62.3199 167.31 62.9399 168.11C63.3299 168.62 63.9999 168.55 64.2599 169.43L64.2699 169.44Z"
    fill="white" />
  <path
    d="M96.5395 200.58C96.0395 199.58 96.4395 198.46 95.9695 197.28C95.4095 195.85 93.9495 194.4 92.9795 193.86C92.2495 193.46 91.3594 193.07 90.7094 192.58C90.1694 193.77 88.9395 195.37 86.1895 196.65C86.4495 197.29 86.6395 197.97 86.8595 198.43C87.5895 199.97 89.0295 201.75 90.8695 202.41C92.3095 202.93 92.8494 202.52 93.9594 203.11C95.3394 203.84 94.2895 205.35 96.1595 205.89C97.6595 206.33 99.4394 204.73 99.0594 203.34C98.6794 201.95 97.5395 202.57 96.5495 200.57L96.5395 200.58Z"
    fill="white" />
  <path
    d="M189.06 49.27C189.06 49.27 173.2 52.03 171.57 62.59C171.57 62.59 175.11 59.85 176.21 60.23C177.29 60.6 178.06 60.93 177.53 62.3C176.12 65.95 171.59 66.86 171.59 66.86C171.59 66.86 164.41 68.11 160.78 78.92C160.78 78.92 166.69 74.62 167.87 76.06C169.68 78.26 167.2 80.7 164.8 82.5C162.4 84.3 154.3 84.69 150.63 94.38C150.63 94.38 156.33 89.79 157.34 93.14C158.35 96.49 150.97 98.42 150.97 98.42C150.97 98.42 142.85 100.74 141.65 107.11C141.65 107.11 145.58 105.07 145.17 107.59C144.76 110.11 141.44 109.57 139.07 110.88C136.7 112.18 134.59 113.63 133.87 117.2C133.87 117.2 137.48 114.8 137.52 117.3C137.56 119.81 130.2 120.83 130.2 120.83L105.86 150.28L81.3799 176.42C83.2799 177.72 86.6699 180.61 88.3899 185.52L113.88 163.34C113.88 163.34 207.94 80.23 231.62 26.29C231.62 26.29 215.45 42.45 189.06 49.28V49.27ZM179.59 64.81C181.13 63.64 183.47 61.83 182.57 59.74C181.3 57.95 178.58 58 176.44 57.6C178.8 56.96 182.2 56.63 183.79 59.09C184.73 61.02 183.67 62.99 182.17 64.15C180.21 65.69 177.92 66.89 175.48 67.34C176.97 66.65 178.31 65.76 179.59 64.81ZM172.65 76.82C173.46 75.69 173.72 74.16 172.94 73.16C171.29 71.74 168.68 72.42 166.51 72.52C168.64 71.29 171.89 70.14 174.04 72.18C175.4 73.73 174.89 76.08 173.68 77.53C172.14 79.49 170.19 81.2 167.91 82.21C169.77 80.65 171.36 78.84 172.65 76.83V76.82ZM159.81 96.11C161.13 94.71 163.18 92.85 162.21 90.84C160.83 89.25 158.17 89.74 156.08 89.61C158.26 88.59 161.66 87.69 163.47 90.06C164.55 91.76 163.55 94.06 162.3 95.22C160.57 96.95 158.5 98.42 156.18 99.18C157.52 98.29 158.7 97.23 159.81 96.13V96.11ZM152.35 103.48C153.31 105.11 152.41 106.95 151.33 107.99C149.83 109.46 148.05 110.7 146.04 111.3C147.69 110.11 149.14 108.72 150.39 107.17C150.77 106.67 151.17 106.13 151.21 105.69C151.82 102.77 147.93 103.38 145.96 103.15C147.82 102.19 150.77 101.39 152.35 103.47V103.48ZM139.46 119.05C140.35 117.98 141.6 116.94 141.78 115.54C141.81 115.14 141.84 114.83 141.54 114.6C140.34 113.99 138.87 114.32 137.34 114.27C141.65 111.18 145.75 114.28 141.56 118.48C140.16 119.81 138.56 120.97 136.74 121.63C137.73 120.83 138.6 119.94 139.46 119.05ZM124.03 147.27C119.13 151.66 114.32 156.17 109.86 161.01C107.67 163.45 105.45 165.93 103.92 168.83L103.76 168.75C105.26 165.78 107.44 163.25 109.6 160.76C116.15 153.33 123.61 146.79 130.77 139.98C159.26 112.66 182.9 80.07 207.55 49.81C183.45 85.19 155.96 118.64 124.04 147.26L124.03 147.27Z"
    fill="white" />
</svg>