<svg width="55" height="55" viewBox="0 0 256 256" fill="none" xmlns="http://www.w3.org/2000/svg">
  <path
    d="M51.0194 183.99L23.0894 216.54C21.4394 218.46 21.6594 221.35 23.5794 223L31.9694 230.2L32.5394 238.54C32.7994 241.07 35.5994 244.12 38.0994 243.63C41.7094 242.92 44.4194 239.38 43.9094 235.95C43.3994 232.52 41.5194 231.79 41.3094 229.27C41.0994 226.75 42.8894 223.59 42.8894 223.59C42.8894 223.59 46.9194 219.58 52.6194 213.52C56.5994 209.29 65.1894 199.41 67.3294 193.49C67.8194 192.12 68.4094 190.9 69.0394 189.82C65.6294 189.33 57.5594 187.84 51.0094 183.98L51.0194 183.99ZM39.3794 238.65C38.7094 239.44 37.5194 239.53 36.7394 238.85C35.9494 238.18 35.8594 236.99 36.5394 236.21C37.2094 235.42 38.3994 235.33 39.1794 236.01C39.9694 236.68 40.0594 237.87 39.3794 238.65Z"
    fill="white" />
  <path
    d="M55.9597 178.23L51.6797 183.22C58.3597 187.1 66.6197 188.5 69.6197 188.9C71.1497 186.55 72.8097 184.96 73.9097 184.06C70.4597 183.56 62.4597 182.06 55.9597 178.23Z"
    fill="white" />
  <path
    d="M67.0289 165.34L56.6289 177.46C63.7289 181.59 75.1689 183.14 75.1689 183.14C82.1389 183.61 85.1689 182.84 86.4189 182.26C86.8589 182.06 86.9289 181.47 86.5689 181.16L68.2889 165.24C67.9189 164.92 67.3489 164.96 67.0289 165.33V165.34Z"
    fill="white" />
  <path
    d="M240.82 47.5101C240.82 47.5101 215.21 97.2601 155.96 131.06L99.15 169.87C98.67 164.1 101.73 158.58 105.02 154.04C116.05 139.42 133.02 131.51 148.46 122.52C178.74 103.24 203.69 76.6001 225.35 48.0901L224.13 47.0501C217.13 56.4801 209.66 65.5701 201.88 74.3501C183.24 95.1501 162.46 113.95 137.65 127.18C125.48 134 113.36 142.64 104.88 153.94C101.62 158.52 98.6 164.1 99.14 169.88L86.68 178.39L69.75 163.87L199.8 12.3101L230.31 38.4901V38.5001L231.65 39.6401L232.06 39.9901L236.31 43.6401L240.83 47.5101H240.82Z"
    fill="white" />
</svg>