<svg width="55" height="55" viewBox="0 0 256 256" fill="none" xmlns="http://www.w3.org/2000/svg">
  <g clip-path="url(#clip0_268_3428)">
    <path
      d="M167.132 93.0143L15.3363 246.219C13.6577 247.912 10.9187 247.919 9.23286 246.233C7.54704 244.547 7.55422 241.808 9.24722 240.13L162.452 88.3343L167.132 93.0143Z"
      fill="white" />
    <path
      d="M216.474 42.9535C216.474 42.9535 252.401 7.40042 250.7 5.70023C249.237 4.23727 212.71 39.1901 212.71 39.1901L215.647 39.9701L216.47 42.9499L216.474 42.9535Z"
      fill="white" />
    <path
      d="M163.103 87.1372C162.291 86.3253 162.29 85.0096 163.101 84.1987C163.912 83.3877 165.228 83.3886 166.039 84.2005L171.266 89.4269C172.078 90.2388 172.079 91.5544 171.268 92.3654C170.457 93.1763 169.141 93.1755 168.329 92.3636L163.103 87.1372Z"
      fill="white" />
    <path d="M172.701 88.6684L215.468 43.9601L214.645 40.9803L211.704 40.1967L166.644 82.6116L172.701 88.6684Z"
      fill="white" />
    <path
      d="M203.401 70.1891C201.607 69.4307 200.166 70.9008 200.446 73.1007C200.554 73.949 199.087 70.1604 196.729 70.757C194.386 71.3537 194.939 74.1862 194.939 74.1862L187.872 74.2868L213.976 47.3425C213.976 47.3425 213.735 60.5595 214.903 67.1985C217.753 83.4492 208.271 93.8445 208.25 93.3772C207.7 81.3536 204.019 73.1438 204.019 73.1438C204.019 73.1438 205.467 71.0554 203.401 70.1819L203.401 70.1891ZM202.214 67.1913C202.7 66.706 202.7 65.9153 202.214 65.43C201.729 64.9448 200.938 64.9447 200.453 65.43C199.968 65.9153 199.968 66.7061 200.453 67.1913C200.938 67.6766 201.729 67.6766 202.214 67.1913Z"
      fill="white" />
    <path
      d="M195.367 8.74854C202.279 20.1754 200.906 26.7533 200.906 26.7533C200.906 26.7533 198.703 26.8432 198.43 29.2299C198.131 31.8072 200.54 32.6267 200.54 32.6267C200.54 32.6267 195.403 35.1968 198.016 39.37C200.633 43.5468 204.58 40.3333 204.58 40.3333L208.264 41.8178L182.941 65.5882C182.941 65.5882 182.733 63.108 180.91 62.6012C178.703 61.9901 177.51 63.9168 177.51 63.9168L161.601 64.5925C161.601 64.5925 187.736 42.9501 195.367 8.74854ZM196.025 33.0221C196.316 32.731 196.316 32.2565 196.025 31.9654C195.734 31.6742 195.259 31.6742 194.968 31.9654C194.677 32.2565 194.677 32.731 194.968 33.0221C195.259 33.3133 195.734 33.3133 196.025 33.0221ZM200.802 45.2254C201.287 44.7402 201.287 43.9494 200.802 43.4641C200.317 42.9789 199.526 42.9789 199.041 43.4641C198.556 43.9494 198.556 44.7402 199.041 45.2254C199.526 45.7107 200.317 45.7107 200.802 45.2254ZM194.724 42.2456C195.209 41.7603 195.209 40.9696 194.724 40.4843C194.239 39.999 193.448 39.999 192.962 40.4843C192.477 40.9696 192.477 41.7603 192.962 42.2456C193.448 42.7309 194.239 42.7309 194.724 42.2456ZM177.679 61.5121C177.984 61.2065 177.988 60.7069 177.682 60.4014C177.377 60.0958 176.877 60.0922 176.568 60.4014C176.259 60.7105 176.262 61.2029 176.572 61.5121C176.881 61.8212 177.373 61.8176 177.679 61.5121Z"
      fill="white" />
  </g>
  <defs>
    <clipPath id="clip0_268_3428">
      <rect width="256" height="256" fill="white" />
    </clipPath>
  </defs>
</svg>