<svg width="55" height="55" viewBox="0 0 256 256" fill="none" xmlns="http://www.w3.org/2000/svg">
  <path
    d="M69.3604 175.85C72.3304 177.09 75.5503 178.3 78.8803 179.33C78.8703 173.66 79.7904 167.68 81.0504 162.19C78.9504 164.69 74.6704 169.75 69.3704 175.85H69.3604Z"
    fill="white" />
  <path
    d="M79.3102 185.43C79.0702 183.83 78.9402 182.18 78.9002 180.49C75.2902 179.38 71.8002 178.06 68.6202 176.71C67.5202 177.98 66.3702 179.28 65.2002 180.62C69.5102 182.43 74.3802 184.2 79.3102 185.43Z"
    fill="white" />
  <path
    d="M124.18 155.88C114.45 155.88 101.91 151.71 93.4395 147.97C92.7295 147.66 91.8895 147.84 91.3895 148.43C85.7795 155 83.3595 159.54 82.6095 160.35C81.1195 166.43 79.9395 173.28 79.9795 179.67C85.9895 181.45 92.2695 182.58 97.8595 182.17C107.61 173.92 120.249 165.49 130.619 157.17C131.179 156.72 130.839 155.81 130.119 155.84C128.059 155.93 125.53 155.89 124.19 155.89L124.18 155.88Z"
    fill="white" />
  <path
    d="M80 180.82C80.05 182.49 80.19 184.13 80.44 185.7C84.36 186.62 88.29 187.17 91.99 187.13C93.48 185.87 94.98 184.6 96.5 183.31C96.12 183.32 95.74 183.33 95.35 183.33C90.41 183.33 85.11 182.31 80 180.82Z"
    fill="white" />
  <path
    d="M64.45 181.47C59.39 187.21 52.55 193.12 47.1 198.68C46.62 199.17 46.83 199.98 47.48 200.19C55.07 202.72 65.25 204.72 72.37 203.99C73.32 203.89 74.19 203.47 74.89 202.82C77.52 200.36 79.5 197.77 82.65 195.08C81.09 192.6 80.08 189.72 79.51 186.6C74.22 185.31 69.01 183.4 64.45 181.46V181.47Z"
    fill="white" />
  <path
    d="M80.6504 186.88C81.1904 189.65 82.0904 192.2 83.4404 194.41C85.8104 192.39 88.2504 190.32 90.7404 188.2C87.4704 188.13 84.0604 187.64 80.6504 186.88Z"
    fill="white" />
  <path
    d="M67.6399 206.2C60.5899 206.2 52.8599 204.16 45.9599 201.63C44.0499 203.6 42.1899 205.48 40.4299 207.19C23.6299 223.56 37.9799 229.35 37.9799 229.35C37.9799 229.35 42.5499 229.78 46.1399 226.53C46.3499 226.34 55.7699 218.12 69.7399 206.13C69.0499 206.17 68.3499 206.2 67.6399 206.2Z"
    fill="white" />
  <path
    d="M230.42 61.4301C233.08 61.0201 235.3 60.6401 235.3 60.6401L229.98 57.5901C229.26 52.7001 227.59 45.6901 223.8 40.6501C225.96 36.0601 229.42 28.6501 229.42 28.6501L219.8 36.7601C218.65 35.9801 217.39 35.3501 215.98 34.9301C211.15 33.4901 206.86 33.2001 203.3 33.4101C201.88 30.5901 200.38 26.6201 200.38 26.6201L197.29 34.3301C194.19 35.1301 192.43 36.1101 192.43 36.1101C192.43 36.1101 185.55 40.7401 175.58 49.7501L170.11 46.5201L172.35 52.7401C166.8 57.9501 160.52 64.3601 154.05 71.9401L147.47 68.5601L151.1 75.4601C147.51 79.8301 143.89 84.5401 140.32 89.6001C139.02 91.4501 137.68 93.3101 136.34 95.1601L128.02 90.8801L132.81 99.9701C119.62 117.69 105.28 134.69 95.2803 146.14C106.63 151.22 123.38 156.86 134.03 151.96C150.75 138.23 166.43 125.75 177.43 117.85L186.48 123.36L182.65 114.21C183.52 113.62 184.36 113.07 185.14 112.58C193.57 107.22 200.81 101.06 206.87 94.9601C210.2 96.6301 213.98 98.4601 213.98 98.4601L210.31 91.3601C223.86 76.7001 230.53 63.3301 230.53 63.3301C230.53 63.3301 230.51 62.6201 230.42 61.4401V61.4301ZM155.62 117.9C157.62 117.26 159.67 116.86 161.73 116.52C161.44 115.89 161.16 115.26 160.91 114.61C158.73 108.91 162.37 115.37 163.19 117.31C160.68 117.66 158.17 117.96 155.62 117.91V117.9ZM170.27 76.5001C168.98 75.5901 167.75 74.6101 166.55 73.5901C166.26 76.0901 165.88 78.5901 165.3 81.0401C165.21 77.9001 165.46 74.7501 165.77 71.6301C167.93 73.4601 170.05 75.3601 171.86 77.5401C171.31 77.2201 170.8 76.8501 170.27 76.5001ZM186.45 45.0201C188.54 46.9301 190.58 48.9101 192.32 51.1501C191.78 50.8101 191.29 50.4201 190.77 50.0501C189.52 49.0901 188.32 48.0601 187.16 47.0001C186.77 49.4901 186.31 51.9701 185.63 54.4001C185.66 51.2601 186.02 48.1201 186.45 45.0101V45.0201ZM185.52 102.95C185.98 102.51 186.48 102.12 186.95 101.71C188.18 100.72 189.46 99.8101 190.77 98.9401C188.45 97.9701 186.15 96.9201 183.95 95.6901C187 96.4601 189.95 97.5701 192.87 98.7301C190.52 100.3 188.1 101.82 185.51 102.96L185.52 102.95ZM193.85 76.1101C194.38 74.0801 195.14 72.1301 195.96 70.2101C195.27 70.1201 194.59 70.0201 193.9 69.8801C187.92 68.6701 195.32 69.0501 197.39 69.4001C196.34 71.7101 195.25 73.9901 193.84 76.1101H193.85ZM208.87 43.7101C203.17 45.8801 209.63 42.2501 211.57 41.4401C211.92 43.9501 212.21 46.4601 212.16 49.0101C211.52 47.0101 211.12 44.9601 210.79 42.9001C210.16 43.1901 209.52 43.4701 208.87 43.7201V43.7101ZM214.22 74.9401C214.68 74.5001 215.18 74.1101 215.65 73.7001C216.88 72.7101 218.16 71.8001 219.47 70.9301C217.15 69.9601 214.85 68.9101 212.65 67.6801C215.7 68.4601 218.65 69.5601 221.57 70.7201C219.22 72.2901 216.8 73.8101 214.21 74.9501L214.22 74.9401Z"
    fill="white" />
</svg>