<svg width="256" height="256" viewBox="0 0 256 256" fill="none" xmlns="http://www.w3.org/2000/svg">
<path d="M128.82 158.35C127.4 157.77 126.2 157.03 125.19 156.18C124.69 156.94 123.29 158.82 121.41 159.48C121.78 161.85 121.21 164.36 119.56 166.22C119.491 166.324 119.468 166.362 119.37 166.46C118.61 167.43 117.88 168.29 117.52 169.47C116.57 171.93 119.76 174.06 121.75 172.77C122.68 172.08 122.81 170.53 122.1 169.54C121.29 168.39 119.58 168.31 119.42 170.03C119.31 168.09 121.45 168.01 122.49 169.24C123.43 170.37 123.46 172.27 122.26 173.35C121.01 174.41 119.23 174.08 117.95 173.29C116.61 172.45 116.07 170.65 116.56 169.19C116.72 168.64 116.96 168.14 117.25 167.68C116.45 167.93 115.6 167.95 114.77 167.55C112.63 166.32 111.67 162.75 113.88 161.17C116.67 159.05 119.17 161.97 116.19 164.07C116.78 163.59 117.34 162.95 117.4 162.19C117.45 161.45 116.87 160.7 116.13 160.7C114.66 160.67 113.2 161.89 113.12 163.32C113.06 164.64 113.89 166.29 115.08 166.88C116.3 167.44 117.84 166.59 118.78 165.66C118.78 165.66 118.79 165.65 118.8 165.64C121.59 162.62 121.38 158.11 119.11 154.75C120.11 155.81 120.8 157.12 121.17 158.51C122.81 157.88 124.07 156.05 124.4 155.53C122.48 153.65 121.35 151.45 120.73 149.64C119.9 149.75 118.63 150.21 117.51 151.84C115.69 154.49 113.87 153.68 113.87 153.68C113.87 153.68 112.48 155.28 113.67 156.63C113.67 156.63 108.55 159.21 110.24 172.9C111.93 186.59 92.9801 205.08 82.6401 210.17C77.3601 212.77 71.9401 217.73 45.6601 221.99L39.6201 223.33C39.6201 223.33 38.6701 222.51 37.8901 224.54C37.8201 224.72 37.7201 224.89 37.6101 225.04C37.3301 225.59 36.7601 226.83 36.7301 228.04C36.7101 228.99 37.2101 229.99 37.9701 230.52V230.54L38.9301 231.21C38.9301 231.21 40.5701 230.74 40.9501 229.38C41.3301 228.02 49.5201 227.58 49.5201 227.58C49.5201 227.58 84.3201 222.68 99.0601 211.15C113.8 199.62 127.34 176.35 127.34 176.35C127.34 176.35 129.24 172.02 127.35 169.57C125.43 168.93 123.87 167.69 122.35 166.41C123.61 167.18 124.91 167.86 126.3 168.32C126.43 168.36 126.57 168.4 126.7 168.44C127.24 168.16 127.98 167.55 127.37 166.42C127.37 166.42 128.23 166.34 127.93 165.71C127.93 165.71 127.27 165.39 127.11 165.27C127.11 165.27 127.91 165.75 128.22 165.5C128.53 165.25 128.57 165.03 128.57 165.03C128.57 165.03 128.26 164.72 128.4 164.43C128.54 164.14 128.58 163.82 128.58 163.82L129.85 163.64C130.15 163.64 130.19 163.08 130.1 162.79L128.79 158.4L128.82 158.35ZM98.3201 206.22L97.6201 205.5C112.67 190.91 117.44 176.98 117.48 176.84L118.43 177.16C118.38 177.3 113.56 191.44 98.3201 206.22ZM127.55 159.88C126.38 160.51 125.07 159.66 124.62 158.55C125.3 158.67 126.07 159.04 126.68 159.08C126.69 158.71 126.61 158.35 126.47 157.94C127.19 158.12 127.63 158.88 127.57 159.62L127.55 159.87V159.88Z" fill="white"/>
<path d="M32.86 225.64C32.35 225.58 31.56 225.73 30.31 226.31C26.48 228.08 24.29 232.07 24.29 232.07C24.29 232.07 24.29 236.11 27.5 235.09C29.71 234.39 31.92 232.58 33.08 231.53C32.02 228.98 32.57 226.56 32.86 225.63V225.64Z" fill="white"/>
<path d="M225.48 35.0899C225.14 34.8799 224.57 34.8799 223.83 35.0899C222.83 35.3799 222.1 35.6899 221.14 36.2399C221.11 36.3599 221.08 36.4799 221.05 36.5999L219.76 39.2999C222.26 37.0299 224.2 36.3899 225.19 36.2299L225.76 35.4599C225.73 35.3699 225.65 35.2099 225.47 35.0899H225.48Z" fill="white"/>
<path d="M230.09 24.7799C230.09 24.7799 223.57 28.3399 221.48 34.9199C222.15 34.5899 222.78 34.3499 223.55 34.1299C224.61 33.8299 225.44 33.8699 226.04 34.2699C226.19 34.3699 226.31 34.4799 226.4 34.5999L231.72 27.4099C231.72 27.4099 233.48 24.6599 230.08 24.7799H230.09Z" fill="white"/>
<path d="M225.85 37.1499V37.1699C225.85 37.1699 222.77 37.0599 218.39 42.1599L214.25 50.8099C214.25 50.8099 193.38 102.02 187.18 108.07C180.25 114.83 175.34 123.42 157.29 122.12C143.48 121.12 143.86 124.17 144.8 125.66C144.01 124.86 142.65 124.04 141.8 126.67C141.21 128.48 140.98 129.36 140.9 129.8C141.98 130.34 143.12 131.07 144.21 132.03C144.3 131.84 144.4 131.79 144.5 131.7C146.24 130.97 148.13 131.45 149.93 131.42C151.35 131.42 152.87 131.66 154.2 131.13C155.41 130.54 156.31 129.09 156.11 127.73C155.92 126.22 154.26 125.56 152.89 125.56C151.21 125.65 151.22 127.82 151.37 129.09C151.15 127.79 151.1 125.51 152.88 125.37C153.9 125.35 154.97 125.57 155.73 126.28C157.36 127.87 156.27 130.68 154.44 131.62C154.18 131.72 153.92 131.78 153.66 131.85C154.3 133.06 154.9 134.3 155.28 135.61C157.08 136.32 162.52 138.14 167.21 136.49C172.92 134.47 193.04 125.1 204.99 92.5699C216.94 60.0299 221.96 47.5499 221.96 47.5499C221.96 47.5499 222.68 44.3999 225.6 41.4199C227.97 38.9899 226.5 37.5699 225.88 37.1299L225.85 37.1499ZM162.97 130.51L162.79 129.53C162.95 129.5 178.97 126.48 192.53 110.53L193.29 111.18C179.48 127.41 163.12 130.48 162.96 130.51H162.97Z" fill="white"/>
<path d="M153.62 131.88C150.85 132.6 147.77 131.68 145.05 132.49C145.08 132.48 145.11 132.39 145.11 132.33L144.89 132.67C145.99 133.78 146.97 135.17 147.69 136.87C147.73 136.85 147.76 136.83 147.8 136.81L149.99 138.3C150.12 138.39 150.29 138.29 150.28 138.13L150.19 136.89C150.19 136.89 151.09 137.16 151.39 137.61C151.62 137.96 151.98 136.99 152.13 136.53C152.04 136.83 151.93 137.32 152.12 137.32C152.39 137.32 153.76 137.05 154.19 137.29C154.44 137.43 154.55 136.75 154.6 136.16C154.5 134.71 154.07 133.25 153.62 131.88ZM149.25 135.15C149.23 135.49 148.92 135.94 148.52 135.82C148.7 135.5 148.52 135.38 148.47 135.2C148.14 134.51 147.85 133.95 147.88 133.04C148.79 133.39 149.32 134.2 149.25 135.15Z" fill="white"/>
<path d="M134.27 143.9C135.71 144 137.11 143.69 138.41 143.11C138.76 142.95 139.11 142.77 139.42 142.58C139.94 142.12 140.48 141.66 141.04 141.2C141.6 140.74 141.37 139.88 140.69 139.78C140.29 139.72 139.89 139.62 139.5 139.5C140.93 139.7 142.35 139.5 143.69 139.02C144.09 138.88 144.49 138.7 144.84 138.51C145.2 138.28 145.56 138.06 145.94 137.85C144.51 134.33 141.83 132.45 139.67 131.46L136.89 134.26C136.21 134.94 136.47 136.13 137.39 136.42C138.12 136.65 138.89 136.79 139.66 136.81C138.61 136.96 137.54 136.9 136.5 136.67C135.46 136.44 134.4 136.77 133.66 137.51L132.91 138.26C132.43 138.74 132.58 139.58 133.21 139.83C134.12 140.19 135.08 140.4 136.06 140.43C134.88 140.6 133.67 140.5 132.51 140.19C131.78 140 131.01 140.19 130.48 140.72L129.24 141.97C128.56 142.66 128.78 143.85 129.68 144.19C130.58 144.53 131.49 144.72 132.44 144.75C131.28 144.92 130.1 144.83 128.96 144.54C127.82 144.25 126.63 144.59 125.81 145.42L124.85 146.38C124.42 146.82 124.56 147.58 125.14 147.79C126 148.11 126.92 148.31 127.84 148.33C126.36 148.54 124.83 148.33 123.41 147.82L123.2 148.03C122.8 148.43 122.67 149.02 122.87 149.54C123.75 151.82 125.55 154.73 129.2 156.35C129.42 155.86 129.72 155.24 130.09 154.54C130.26 154.22 130.02 153.82 129.65 153.85C129.02 153.89 128.7 153.65 127.67 153.45C129.11 153.48 129.08 153.58 130.35 152.95C130.68 152.78 131.01 152.59 131.31 152.39C131.78 151.62 132.31 150.79 132.91 149.93C133.14 149.6 132.85 149.17 132.46 149.25C131.6 149.41 130.73 149.45 129.87 149.35C131.31 149.27 132.67 148.8 133.89 148.07C134.2 147.88 134.5 147.67 134.78 147.46C135.51 146.56 136.32 145.63 137.21 144.71C137.44 144.47 137.26 144.08 136.93 144.1C136.04 144.16 135.14 144.1 134.28 143.89L134.27 143.9Z" fill="white"/>
<path d="M40.6995 221.96L51.4495 211.58L210.359 47.4499C210.359 47.4499 214.689 41.3399 218.379 38.0399C220.959 35.7299 224.019 34.9699 224.529 34.8899C226.359 34.6099 225.809 36.8299 225.809 36.8299C225.809 36.8299 225.499 36.1099 224.639 36.3699C223.239 36.7899 221.409 37.8799 220.479 38.5999C218.979 39.7699 213.659 46.2499 213.659 46.2499L215.679 45.6099L214.549 47.8499L212.079 48.7299C212.079 48.7299 211.789 50.5899 210.229 50.6899L86.8295 177.94L48.6995 217.12C48.6995 217.12 48.6595 219.49 46.6595 219.35L44.6195 221.06L40.6895 221.96H40.6995Z" fill="white"/>
<path d="M37.5397 230.7C37.5397 230.7 33.9597 234.45 33.4797 229.06C32.9997 223.68 37.0797 224.82 37.0797 224.82C37.0797 224.82 33.8497 228.9 37.5497 230.69L37.5397 230.7Z" fill="white"/>
</svg>
