<svg width="55" height="55" viewBox="0 0 256 256" fill="none" xmlns="http://www.w3.org/2000/svg">
  <g clip-path="url(#clip0_268_3424)">
    <path
      d="M86.0179 158.685L83.8683 157.031C81.881 155.504 80.1343 153.704 78.6669 151.672L77.0771 149.474L150.393 78.3106C150.393 78.3106 151.568 80.5877 154.37 83.3949C157.173 86.2021 159.334 87.5217 159.334 87.5217L86.0179 158.685Z"
      fill="white" />
    <path
      d="M163.27 87.4555L162.807 87.1793C160.444 85.7844 158.248 84.1226 156.326 82.1694C156.106 81.9427 155.88 81.7095 155.66 81.4828C153.778 79.5039 152.176 77.2664 150.845 74.8555L150.583 74.3852L190.274 35.8599C190.274 35.8599 195.12 36.8123 198.64 40.4381C202.159 44.0639 202.967 48.9368 202.967 48.9368L163.276 87.4622L163.27 87.4555Z"
      fill="white" />
    <path
      d="M34.0742 189.014L28.3022 194.617C29.4456 196.795 30.9551 199.083 32.9219 201.11C34.8886 203.136 37.1507 204.733 39.3071 205.928L45.0791 200.325C42.936 199.117 40.6933 197.54 38.7072 195.494C36.721 193.448 35.224 191.199 34.0742 189.014Z"
      fill="white" />
    <path
      d="M40.5254 182.752L34.7534 188.354C35.8968 190.532 37.4063 192.821 39.373 194.847C41.3397 196.874 43.6018 198.471 45.7583 199.665L51.5303 194.063C49.3872 192.855 47.1444 191.278 45.1583 189.232C43.1722 187.186 41.6752 184.937 40.5254 182.752Z"
      fill="white" />
    <path
      d="M21.0836 201.623L15.2316 207.303C16.3191 209.264 17.7081 211.268 19.4613 213.075C21.6803 215.361 24.2104 217.047 26.5764 218.284L32.2617 212.766C30.0008 211.53 27.621 209.892 25.5185 207.726C23.6618 205.813 22.2155 203.683 21.0836 201.623Z"
      fill="white" />
    <path
      d="M27.6221 195.277L21.7635 200.963C22.8821 203.036 24.3283 205.166 26.1851 207.079C28.2876 209.245 30.6805 210.883 32.9416 212.106L38.627 206.588C36.4838 205.38 34.2411 203.803 32.255 201.757C30.2689 199.71 28.7719 197.461 27.6221 195.277Z"
      fill="white" />
    <path
      d="M18.8015 213.715C17.0483 211.909 15.6591 209.917 14.5585 207.957L10.4795 211.916C9.49306 212.873 9.13181 214.195 9.63819 215.037L9.94579 215.554C11.9198 218.854 14.5787 221.594 17.8191 223.665L18.3266 223.988C19.1529 224.519 20.4846 224.197 21.471 223.24L25.9033 218.938C23.5375 217.687 21.0143 215.981 18.8082 213.708L18.8015 213.715Z"
      fill="white" />
    <path
      d="M46.9844 176.483L41.2124 182.085C42.3558 184.264 43.8653 186.552 45.832 188.578C47.7987 190.605 50.0608 192.202 52.2173 193.396L57.9893 187.794C55.8461 186.586 53.6034 185.009 51.6173 182.963C49.6312 180.917 48.1342 178.668 46.9844 176.483Z"
      fill="white" />
    <path
      d="M53.6358 170.026L47.8638 175.629C49.0071 177.807 50.5167 180.096 52.4834 182.122C54.4501 184.148 56.7122 185.745 58.8686 186.94L64.6406 181.338C62.4975 180.13 60.2548 178.553 58.2687 176.507C56.2826 174.46 54.7856 172.211 53.6358 170.026Z"
      fill="white" />
    <path
      d="M60.2881 163.57L54.5161 169.173C55.6595 171.351 57.169 173.639 59.1357 175.666C61.1024 177.692 63.3645 179.289 65.521 180.484L71.293 174.881C69.1499 173.673 66.9071 172.096 64.921 170.05C62.9349 168.004 61.4379 165.755 60.2881 163.57Z"
      fill="white" />
    <path
      d="M66.9326 157.12L61.1607 162.722C62.304 164.901 63.8136 167.189 65.7803 169.216C67.747 171.242 70.0091 172.839 72.1655 174.034L77.9375 168.431C75.7944 167.223 73.5517 165.646 71.5656 163.6C69.5795 161.554 68.0824 159.305 66.9326 157.12Z"
      fill="white" />
    <path
      d="M72.4385 162.766C74.4246 164.812 76.6673 166.389 78.8238 167.584L83.3294 163.21C84.5091 162.065 84.7565 160.453 83.8478 159.717L81.401 157.73C80.0381 156.619 78.8219 155.366 77.7523 153.971L75.8387 151.466C75.1365 150.542 73.5111 150.735 72.3314 151.88L67.8191 156.26C68.9625 158.438 70.472 160.726 72.4387 162.753L72.4385 162.766Z"
      fill="white" />
    <path
      d="M201.024 40.3908L210.364 39.1177L223.89 16.0988L200.472 28.9267L198.908 38.2638L201.017 40.3973L201.024 40.3908ZM202.165 29.9767L202.231 29.912C203.561 31.0156 204.805 32.2034 206.035 33.4172C207.904 31.4219 210.66 28.9274 212.56 27.0705C214.871 24.9701 217.221 22.3908 219.548 20.5599C215.23 25.0871 210.835 29.9876 206.356 34.3613L206.003 34.6911C204.679 33.154 203.355 31.63 202.158 29.9831L202.165 29.9767Z"
      fill="white" />
    <path
      d="M172.857 50.2026L177.208 46.0306L176.808 38.9501L155.242 27.5605L165.984 49.4565L172.857 50.2026ZM167.781 41.3052C165.559 38.7628 160.795 33.9887 159.076 31.6837C162.074 34.5726 165.376 37.8011 168.367 40.7359C169.293 41.6364 170.219 42.537 171.098 43.4697C171.698 42.9138 172.41 42.2609 172.963 41.7765C173.715 41.1243 174.473 40.4787 175.277 39.8667L175.342 39.9333C174.049 41.6285 172.547 43.2286 171.111 44.7902C169.952 43.676 168.866 42.4906 167.787 41.3118L167.781 41.3052Z"
      fill="white" />
    <path
      d="M251.185 71.6077C239.787 71.2146 221.163 72.6844 200.573 54.4187L178.565 75.7808C178.565 75.7808 192.445 104.831 181.018 128.479C210.035 124.326 240.607 98.6249 251.185 71.6077ZM235.576 73.4903C229.002 93.2299 208.029 110.817 187.158 112.733C207.631 107.98 226.304 92.2241 235.576 73.4903Z"
      fill="white" />
  </g>
  <defs>
    <clipPath id="clip0_268_3424">
      <rect width="256" height="256" fill="white" />
    </clipPath>
  </defs>
</svg>