<svg width="55" height="55" viewBox="0 0 256 256" fill="none" xmlns="http://www.w3.org/2000/svg">
  <path
    d="M113.69 83.67C81.0398 119.36 69.1798 139.33 65.8398 145.65C72.5298 150.46 78.2598 156.59 82.3498 163.73C82.4598 163.92 82.5698 164.12 82.6798 164.31C82.7298 164.4 82.7798 164.49 82.8298 164.57C82.8098 164.55 82.7998 164.53 82.7798 164.5C82.8098 164.55 82.8198 164.59 82.8298 164.64C82.8498 164.67 82.8798 164.7 82.8998 164.74C82.9298 164.77 82.9398 164.8 82.9598 164.83C82.9598 164.83 92.1098 173.29 92.7998 173.76C93.1498 174 94.0698 173.06 94.6898 172.44C95.3898 171.73 95.4998 170.63 94.9898 169.78L84.4398 152.45L87.9398 148.44C89.1098 145.13 89.3998 142.24 91.2498 139.46C99.8298 126.58 111.28 117.23 118.08 112.37C121.36 110.02 124.93 108.13 128.7 106.7L151.32 98.08C151.32 98.08 180.42 88.46 201.27 70.51C222.12 52.56 239.05 24 239.05 24C239.05 24 154.03 39.59 113.7 83.68L113.69 83.67ZM87.6398 134.72C84.9098 138.78 80.9598 142.96 80.7898 148.07C82.0298 147.46 83.1398 146.5 83.8298 145.29C84.5898 144.03 84.7998 142.53 84.6798 141.08L84.8098 141.07C85.9598 144.69 83.4998 148.41 80.0498 149.67L79.7298 148.56C78.5298 141.97 90.0498 130.08 94.5098 125.32C95.4198 124.4 96.3498 123.49 97.3198 122.62L97.4198 122.71C93.9898 126.57 90.7398 130.59 87.6598 134.73L87.6398 134.72ZM173.72 80.86C161.7 87.69 148.65 92.44 135.74 97.21L135.66 97.01C148.39 91.84 161.2 86.69 173.01 79.65C192.58 67.64 208.49 50.83 224.9 34.97L225.06 35.12C209.87 52.31 193.92 69.5 173.72 80.86Z"
    fill="white" />
  <path
    d="M42.8294 226.98C41.4694 227.08 40.0394 227.15 38.7194 227.05C38.1694 227.05 37.4394 226.99 36.8994 226.89L35.0894 226.62L33.3094 226.15C32.1394 225.84 30.9394 225.36 29.8594 224.84C25.4194 222.68 21.8694 219.06 19.7594 214.53C18.8494 215.12 18.0194 215.55 17.3294 215.86C16.1394 216.38 15.6494 217.82 16.2694 218.95C24.0394 232.98 39.0894 232.25 42.8094 231.84C43.2694 231.79 43.5694 231.34 43.4794 230.89C43.1894 229.48 42.9694 228.19 42.8194 226.99L42.8294 226.98Z"
    fill="white" />
  <path
    d="M82.8294 165.18C80.5194 161.72 77.8194 158.54 74.7594 155.73C71.7894 152.96 64.8494 148.65 64.8494 148.65C63.9494 148.19 61.6594 148.86 61.6594 148.86C61.6594 154.26 56.8094 159.31 56.8094 159.31C36.2994 182.85 37.0394 186.52 30.5394 200.88C27.4594 207.68 21.6394 213.51 21.6394 213.51C23.9394 220.07 30.1494 225.15 37.0094 226.36C37.5194 226.49 38.2494 226.61 38.7794 226.65C40.0794 226.84 41.4794 226.88 42.8394 226.88C41.5194 216.57 44.7494 213.72 44.7494 213.72C44.7494 213.72 60.0494 197.12 64.1894 183.28C68.3194 169.45 75.0394 168.05 75.0394 168.05C79.1794 167.35 82.7494 165.09 82.8294 165.17V165.18ZM38.6494 212.78C37.6394 213.89 35.9194 213.97 34.8094 212.96C33.6994 211.95 33.6194 210.23 34.6294 209.12C35.6394 208.01 37.3594 207.93 38.4694 208.94C39.5794 209.95 39.6594 211.67 38.6494 212.78Z"
    fill="white" />
</svg>