<svg width="256" height="256" viewBox="0 0 256 256" fill="none" xmlns="http://www.w3.org/2000/svg">
<path d="M69.4101 178.71C68.4901 179.69 64.4201 184.05 64.3601 184.31C64.3001 184.61 28.5701 220.6 22.3801 226.86C19.2901 229.99 16.8001 231.6 15.0901 232.43C13.6001 233.15 12.7601 234.78 13.1201 236.4L13.2001 236.78C13.5001 238.15 14.2701 239.38 15.3701 240.26L18.9001 243.07C19.9901 243.94 21.3001 244.48 22.6801 244.63L23.1101 244.68C26.4201 245.04 29.6701 243.58 31.6001 240.86L32.3001 238.15C32.8001 237.44 36.4201 234.21 37.0601 233.62C40.6901 230.25 53.7601 217.97 58.5201 211.64C70.3501 195.9 72.0001 196.91 72.0001 196.91L76.4201 198.57C77.9601 199.15 79.7001 198.78 80.8801 197.63L84.8001 193.81L69.4001 178.71H69.4101ZM26.9401 236.66C26.0101 237.57 24.5101 237.55 23.6001 236.62C22.6901 235.69 22.7101 234.19 23.6401 233.28C24.5701 232.37 26.0701 232.39 26.9801 233.32C27.8901 234.25 27.8701 235.75 26.9401 236.66ZM40.3101 223.62C39.3801 224.53 37.8801 224.51 36.9701 223.58C36.0601 222.65 36.0801 221.15 37.0101 220.24C37.9401 219.33 39.4401 219.35 40.3501 220.28C41.2601 221.21 41.2401 222.71 40.3101 223.62ZM53.1101 210.05C52.1901 210.95 50.7101 210.93 49.8201 210.01C48.9201 209.09 48.9401 207.61 49.8601 206.72C50.7801 205.82 52.2601 205.84 53.1501 206.76C54.0501 207.68 54.0301 209.16 53.1101 210.05ZM64.6801 196.82C63.7201 197.76 62.1901 197.74 61.2501 196.78C60.3101 195.82 60.3301 194.29 61.2901 193.35C62.2501 192.41 63.7801 192.43 64.7201 193.39C65.6601 194.35 65.6401 195.88 64.6801 196.82Z" fill="white"/>
<path d="M232.7 11.33C229.94 25.15 197.13 58.08 197.13 58.08L71.4902 177.95L82.9202 189.16L82.6802 188.71C82.6802 188.71 118.9 154.55 156.43 121.2C186.95 94.07 219.17 68.23 226.75 55.64C243.65 27.56 232.71 11.34 232.71 11.34L232.7 11.33ZM230.44 35.43C227.89 45 221.95 53.29 215.07 60.25C202.82 72.89 189.59 84.52 176.35 96.07C158.79 111.56 140.8 126.6 123.77 142.66C118.99 147.48 114.05 152.32 110.58 158.2C110.15 159.04 109.66 159.97 109.64 160.87L109.44 160.91C111.08 151.97 133.06 133.08 140.39 126.13C151.95 115.71 181.42 89.14 192.53 79.01C198.31 73.77 204.32 67.33 210 62C218.5 53.5 226.48 46.56 229.86 35.26C230.94 31.56 231.64 27.64 231.24 23.79L231.44 23.75C232 27.66 231.44 31.63 230.45 35.43H230.44Z" fill="white"/>
</svg>
