<svg width="256" height="256" viewBox="0 0 256 256" fill="none" xmlns="http://www.w3.org/2000/svg">
<path d="M68.8498 187.44L67.9198 188.39L66.7998 191.49C67.4998 192.54 69.0798 195.14 69.5298 197.84L70.4298 196.55L74.7898 193.69C73.0398 190.93 70.5398 188.73 68.8398 187.43L68.8498 187.44Z" fill="white"/>
<path d="M58.2793 200.73L52.8593 203.86L50.2793 208.45C50.9793 209.54 52.1593 211.61 52.6793 213.84L52.7793 213.66L57.4693 211.06L60.2893 206.49C60.3493 204.37 59.2893 202.03 58.4193 200.47L58.2893 200.73H58.2793Z" fill="white"/>
<path d="M42.04 216.99L37.85 219.28L36.34 220.84L35.71 221.48C37.13 222.45 39.47 224.31 40.72 226.62L43.32 224.98L44.52 222.89C44.44 220.55 43.14 218.02 42.27 216.6L42.03 216.98L42.04 216.99Z" fill="white"/>
<path d="M34.86 222.11C31.72 222.37 30.13 222.28 27.6 225.03C24.62 228.27 25.35 231.2 25.95 232.76C26.53 234.33 28.27 236.08 29.83 236.71C31.38 237.34 34.15 237.85 36.83 235.54C39.87 232.92 40.2 231.66 40.28 228.03C39.32 225.34 36.31 223.08 34.87 222.12L34.86 222.11Z" fill="white"/>
<path d="M45.4799 211.45L42.8799 215.66C43.6199 216.81 44.9099 219.07 45.3699 221.45L45.7499 220.79L50.0199 218.4L51.9099 215.17C51.6699 212.94 50.4499 210.62 49.6499 209.31L45.4799 211.45Z" fill="white"/>
<path d="M66.28 192.93L60.93 195.57L58.96 199.4C59.78 200.76 60.92 203.01 61.22 205.28L66.52 202.14L68.65 199.09C68.6 196.71 67.24 194.1 66.37 192.67L66.28 192.92V192.93Z" fill="white"/>
<path d="M77.6801 171.73C76.7801 171.87 75.3901 172.17 73.6401 172.41C71.0501 172.76 66.2201 177.37 66.2201 177.37C57.5501 174.65 51.1201 177.83 51.1201 177.83L59.2501 180.64C63.9801 182.81 66.6201 184.54 68.0301 185.62C69.3701 186.51 73.1801 189.27 75.6401 193.16L75.7401 193.1C75.7401 193.1 80.1001 197.94 81.4501 208.42C81.4501 208.42 83.2001 212.48 85.4801 208.53C85.4801 208.53 86.6601 206.43 84.0801 197.7L87.1701 194.9C87.1701 194.9 90.8401 191.46 91.3201 187.14C90.2401 173.7 80.8601 171.95 77.7001 171.75L77.6801 171.73Z" fill="white"/>
<path d="M229.921 34.81C223.301 29.35 216.331 31.84 216.331 31.84L80.1406 170.11C84.3106 171.02 90.8906 174 92.8406 183.65L232.681 48.25C232.681 48.25 235.291 41.52 229.921 34.81ZM92.2006 165.39L118.561 137.31C120.171 135.69 122.531 135.3 124.511 136.12L123.721 136.91C123.301 136.78 122.871 136.7 122.431 136.7C121.291 136.7 120.151 137.13 119.281 138L92.9206 166.08C92.1306 166.87 91.1406 168.15 91.2006 169.53L90.3506 170.38C89.9206 168.82 90.5306 167.06 92.2006 165.39ZM126.281 144.97L98.3406 171.68C97.0706 172.95 95.7306 173.6 94.4506 173.6C93.9806 173.6 93.5206 173.5 93.0806 173.33L93.8806 172.53C95.5006 172.86 96.9706 171.65 97.6506 170.98L125.591 144.27C126.821 143.04 127.151 141.25 126.611 139.7L127.381 138.93C128.271 140.92 127.921 143.35 126.291 144.99L126.281 144.97ZM133.311 131.75C162.121 100.53 191.971 70.25 222.741 40.97C193.911 72.18 164.101 102.47 133.311 131.75Z" fill="white"/>
</svg>
