<svg width="55" height="55" viewBox="0 0 256 256" fill="none" xmlns="http://www.w3.org/2000/svg">
  <g clip-path="url(#clip0_268_3423)">
    <path
      d="M179.893 67.3033C156.111 117.02 117.218 152.044 76.643 185.343C79.0683 188.727 81.6871 192.112 84.2766 195.555C122.656 169.187 140.877 157.098 184.192 109.948C229.493 60.6347 244.31 20.5756 247.964 8C229.73 29.8255 205.562 50.8056 179.893 67.3033ZM180.892 69.046C184.928 67.0375 188.974 65.0407 192.964 62.9472C204.959 56.7695 216.035 48.7977 225.155 38.8221L226.987 36.8575C221.904 52.3234 212.949 66.1633 203.086 78.9799C193.817 91.1583 183.385 102.377 173.012 113.551C162.668 124.777 152.09 135.886 140.248 145.57C128.464 155.294 116.102 164.251 103.806 173.296C115.854 163.933 128.023 154.709 139.676 144.882C157.065 130.054 172.073 112.607 187.401 95.708C192.338 90.0332 197.386 84.0549 201.973 78.1211C210.732 66.8124 218.765 54.7939 224.08 41.5009C218.309 47.2618 211.948 52.4578 205.013 56.7562C197.311 61.5216 189.103 65.3102 180.902 69.0474L180.892 69.046Z"
      fill="white" />
    <path
      d="M69.8993 165.22C71.2775 166.87 71.0505 169.324 69.4007 170.702C68.3745 171.556 67.0383 171.791 65.8405 171.454C66.2857 174.631 68.2751 177.508 70.2481 180.095C71.7088 182.049 73.25 183.989 74.8249 185.913C76.1622 187.593 82.4026 195.892 83.6417 197.637C85.0527 199.684 86.4885 201.703 87.9609 203.649C89.9046 206.258 92.1151 208.978 95.0389 210.281C95.0476 209.037 95.6439 207.818 96.7494 207.07C98.5314 205.867 100.951 206.33 102.154 208.112C103.357 209.894 102.894 212.314 101.112 213.517C100.134 214.179 98.9672 214.322 97.9044 214.031C96.7701 214.058 95.5669 213.982 94.3736 213.688C90.2674 212.678 87.1743 209.613 84.3846 206.659C82.895 205.056 81.4068 203.333 79.9406 201.603C77.5833 203.247 73.538 201.696 70.8251 198.089C68.1123 194.481 67.755 190.166 69.9788 188.356C68.7234 186.467 67.4811 184.559 66.3547 182.683C64.2912 179.183 62.1994 175.366 62.3743 171.136C62.4225 169.908 62.6877 168.737 63.0248 167.649C63.0439 166.553 63.4954 165.47 64.4089 164.71C66.0587 163.332 68.5122 163.559 69.8905 165.209L69.8993 165.22Z"
      fill="white" />
    <path
      d="M56.6947 223.98L56.6302 224.028C55.8162 224.641 54.7053 224.614 53.9586 223.975C51.4484 221.819 48.9274 219.259 46.6858 216.278C44.4441 213.298 42.6697 210.121 41.3015 207.107C40.8944 206.212 41.1774 205.138 41.9914 204.525L42.0558 204.477C43.1451 203.658 44.6682 204.025 45.2368 205.22C46.5564 207.987 48.2029 210.847 50.2596 213.582C52.3162 216.317 54.5834 218.673 56.8693 220.713C57.8537 221.596 57.7795 223.155 56.6903 223.974L56.6947 223.98Z"
      fill="white" />
    <path
      d="M51.4295 212.711C49.7119 210.427 48.1728 207.881 46.8181 205.141C55.1238 200.031 67.5123 194.914 67.5123 194.914C67.5123 194.914 68.0189 196.807 69.6572 198.986C71.2955 201.164 72.9733 202.176 72.9733 202.176C72.9733 202.176 64.6071 212.666 57.3936 219.228C55.1473 217.167 53.1338 214.978 51.4339 212.717L51.4295 212.711Z"
      fill="white" />
    <path
      d="M32.4995 237.013L32.4527 237.048C31.8319 237.515 31.0201 237.557 30.5081 237.144C28.7888 235.76 27.0764 234.105 25.5923 232.131C24.1081 230.158 22.9755 228.03 22.1288 225.99C21.8745 225.383 22.1402 224.615 22.761 224.148L22.8078 224.113C23.6394 223.487 24.7344 223.663 25.0915 224.467C25.9102 226.336 26.9678 228.255 28.3286 230.064C29.6895 231.874 31.2199 233.409 32.7823 234.719C33.4557 235.285 33.3209 236.386 32.4893 237.011L32.4995 237.013Z"
      fill="white" />
    <path
      d="M29.5106 229.185C28.5065 227.85 27.6136 226.358 26.8319 224.745C29.3761 221.411 35.2622 214.023 40.8105 209.429C42.1888 212.225 43.7572 214.823 45.5144 217.159C47.2716 219.496 49.3144 221.7 51.6077 223.799C45.6498 227.848 36.9186 231.453 33.0151 232.967C31.6931 231.77 30.5118 230.504 29.5165 229.181L29.5106 229.185Z"
      fill="white" />
    <path
      d="M14.129 226.908C16.2469 225.958 18.8478 225.698 20.7655 226.346C20.795 226.47 20.8244 226.595 20.8759 226.712C21.8388 229.041 23.03 231.162 24.4261 233.018C25.8221 234.874 27.5052 236.588 29.4696 238.164C29.5781 238.248 29.6881 238.321 29.8054 238.379C29.896 240.475 28.8456 243.016 27.2432 244.798C26.6651 245.444 25.704 245.617 24.9268 245.229C21.1053 243.317 18.4397 244.515 16.7888 245.087C16.1779 245.299 16.7888 245.087 16.1779 245.299C15.6241 244.258 12.8301 244.773 11.3724 242.834C9.91466 240.896 11.1849 238.355 10.3383 237.534L10.7113 237.006C11.687 235.621 13.8052 232.671 13.0124 229.252C12.7914 228.299 13.2488 227.323 14.1437 226.916L14.129 226.908Z"
      fill="white" />
  </g>
  <defs>
    <clipPath id="clip0_268_3423">
      <rect width="256" height="256" fill="white" />
    </clipPath>
  </defs>
</svg>