<svg width="55" height="55" viewBox="0 0 256 256" fill="none" xmlns="http://www.w3.org/2000/svg">
  <path
    d="M38.9595 209.9C37.6295 209.58 36.2995 209.92 35.4395 210.25C33.4295 212.4 33.3695 215.75 35.3995 217.94C37.5195 220.24 41.0995 220.38 43.3995 218.26C43.8095 217.88 44.1295 217.43 44.3995 216.97C44.5595 213.28 41.0795 210.42 38.9695 209.91L38.9595 209.9Z"
    fill="white" />
  <path
    d="M88.2192 152.67L81.4092 158.96C90.9192 162.53 93.3592 169.95 93.9692 173.97L101.869 166.67C100.449 163.2 96.7892 156.76 88.2192 152.66V152.67Z"
    fill="white" />
  <path
    d="M80.5893 159.72L80.4993 159.8C78.0093 159.91 75.1493 161.75 70.5293 167.26C64.0293 175.01 58.0593 178.78 58.0593 178.78C58.0593 178.78 26.7893 195.22 35.4193 208.11C35.6293 208.43 35.8393 208.72 36.0493 209.01C36.9493 208.78 38.0593 208.65 39.1893 208.92C41.6693 209.52 45.5993 212.73 45.3893 217C48.8293 218.18 51.0793 217.09 51.0793 217.09C65.3093 211.64 69.4693 197.64 77.3093 190.23C85.1493 182.81 89.4893 181.72 92.5693 175.95C92.7793 175.56 92.9293 175.16 93.0393 174.75L93.0693 174.78L93.0893 174.76C92.7293 171.14 90.7593 163.25 80.5793 159.7L80.5893 159.72Z"
    fill="white" />
  <path
    d="M208.29 69.7301C175.482 37.1904 144.8 36.4601 144.8 36.4601C162.2 45.3401 170.7 54.8201 170.7 54.8201C203.03 90.0901 196.26 116.31 196.26 116.31C196.26 116.31 194.96 135.37 170.33 150.51C145.7 165.65 104.48 139.9 104.48 139.9C103.1 146.63 96.4596 152.06 94.0996 153.82C98.1096 156.71 100.64 160 102.21 162.76L106.66 158.65C123.62 171.61 133.36 173.99 133.36 173.99C188.44 194.55 216.55 151.06 216.55 151.06C216.55 151.06 243.37 108.06 208.29 69.7201V69.7301ZM208.95 144.62C198.39 162.59 177.13 171.29 157.1 172.81C170.36 171.07 183.59 166.62 194.34 158.57C219.84 139.14 222.5 100.4 203.54 75.4601C198 68.0401 191.3 61.5501 184.36 55.4301C194.93 63.8101 205.15 73.3601 211.2 85.6101C220.58 103.96 219.68 127.03 208.96 144.62H208.95Z"
    fill="white" />
</svg>