<svg width="55" height="55" viewBox="0 0 256 256" fill="none" xmlns="http://www.w3.org/2000/svg">
  <g clip-path="url(#clip0_268_3429)">
    <g clip-path="url(#clip1_268_3429)">
      <path
        d="M77.5941 156.613C82.4147 158.348 86.7339 158.927 91.0853 159.434C93.1935 159.679 94.4662 158.637 95.7838 157.32C119 134.065 142.229 110.824 165.451 87.5883C182.162 70.8769 197.807 56.2095 202.602 51.7488C198.135 56.5501 183.48 72.1946 166.762 88.8995C143.527 112.135 120.279 135.357 97.0307 158.567C95.7131 159.884 94.6718 161.157 94.9161 163.265C95.4174 167.623 95.9895 171.936 97.7377 176.756C99.396 175.098 100.714 173.883 101.916 172.566C126.713 145.223 151.343 117.74 176.32 90.5642C195.872 69.2893 223.992 39.8066 242.278 12.2778C242.105 12.3871 241.918 12.4963 241.738 12.612C241.854 12.4321 241.97 12.2521 242.073 12.0721C214.55 30.3647 185.068 58.4848 163.786 78.0307C136.611 103.008 109.127 127.638 81.7848 152.435C80.4607 153.63 79.2459 154.961 77.5941 156.613Z"
        fill="white" />
      <path
        d="M81.6752 160.398C84.876 160.797 87.9484 161.273 91.04 161.51C92.7111 161.639 92.8975 162.609 93.0582 163.876C93.431 166.832 93.8488 169.783 94.2601 172.778C88.7904 171.563 84.259 167.134 81.6816 160.405L81.6752 160.398Z"
        fill="white" />
      <path
        d="M79.7927 175.805C77.5495 173.562 75.2935 171.332 73.0631 169.076C66.295 162.217 65.2795 151.766 70.6078 143.713C71.437 142.459 72.3304 141.155 73.828 140.621C74.9785 140.216 76.3411 140.011 77.1703 141.123C78.0444 142.292 76.7268 142.942 76.1419 143.706C75.1328 145.024 73.9758 146.245 73.0824 147.64C70.1258 152.255 71.1735 156.118 76.174 158.226C78.0123 158.997 79.0407 160.051 79.8377 161.8C82.2287 166.993 85.6674 171.37 90.8865 173.954C93.6374 175.317 95.6878 176.827 96.9861 179.925C98.5673 183.679 102.077 184.463 105.76 182.644C107.09 181.982 108.279 180.998 109.455 180.067C110.696 179.083 111.371 177.148 113.363 177.521C114.147 177.663 114.231 178.685 114.192 179.443C114.09 181.474 113.537 182.991 111.474 184.206C101.935 189.836 92.5319 188.827 84.7997 181.031C83.0964 179.315 81.3867 177.618 79.677 175.908C79.7091 175.876 79.7413 175.844 79.767 175.818L79.7927 175.805Z"
        fill="white" />
      <path
        d="M32.4541 242.387C28.2506 246.179 23.1857 247.593 17.6067 245.498C11.7256 243.293 8.33189 238.794 8.07479 232.495C7.82412 226.357 10.9029 221.929 16.1991 218.921C17.7545 218.034 19.0914 218.535 20.5119 219.068C27.6978 221.781 32.4541 226.91 35.4557 233.871C37.0498 237.573 34.7166 239.803 32.4606 242.394L32.4541 242.387ZM28.4241 225.849C24.9597 222.423 19.7985 222.468 16.3791 225.952C13.1332 229.262 13.1332 234.983 16.3726 238.209C19.4771 241.301 25.6217 241.198 28.7069 237.997C31.9528 234.636 31.8242 229.211 28.4241 225.849Z"
        fill="white" />
      <path
        d="M77.4917 189.406C75.7884 183.717 73.7509 179.07 70.2736 175.22C69.4445 174.301 69.2517 173.44 70.1965 172.482C71.1542 171.524 72.0926 171.049 73.3202 172.084C76.8039 175.002 79.7798 178.376 82.4986 181.995C83.3342 183.1 83.0193 183.891 82.1708 184.726C80.7825 186.102 79.407 187.49 77.4852 189.412L77.4917 189.406Z"
        fill="white" />
      <path
        d="M69.123 196.746C68.3389 192.362 67.4969 188.294 66.3207 183.762C70.2543 185.164 75.4155 184.077 76.3154 188.384C77.2473 192.864 71.6298 193.815 69.1295 196.739L69.123 196.746Z"
        fill="white" />
      <path
        d="M32.2617 214.582C32.1717 214.621 32.0882 214.666 32.0046 214.711C31.8311 214.807 31.6768 214.923 31.529 215.058C30.822 215.713 30.3592 216.729 29.8 217.558C28.9195 218.876 30.025 219.583 30.3913 219.859C30.7577 220.135 32.7952 221.517 33.0716 221.768C33.3158 222.051 34.6527 223.773 34.9805 224.448C35.3083 225.123 35.9639 225.92 37.2816 225.039C38.1107 224.48 39.1327 224.024 39.7819 223.311C39.9168 223.176 40.039 223.015 40.1289 222.835C40.1739 222.751 40.2189 222.668 40.2575 222.578C40.2768 222.52 40.3025 222.456 40.3218 222.398C40.3346 222.359 40.3475 222.321 40.3603 222.282C40.8167 220.746 40.1868 218.445 38.5928 216.658C38.5863 216.652 38.5799 216.632 38.5799 216.62C38.5156 216.555 38.4578 216.497 38.3999 216.44C38.3357 216.375 38.2778 216.317 38.22 216.26C38.2136 216.253 38.1943 216.247 38.1814 216.247C36.3946 214.653 34.0936 214.023 32.5574 214.479C32.5188 214.492 32.4803 214.505 32.4417 214.518C32.3838 214.537 32.3196 214.55 32.2617 214.582Z"
        fill="white" />
      <path
        d="M61.4223 204.343C60.7796 201.116 60.1625 198.97 59.9954 196.784C59.8669 195.113 57.4437 192.754 59.8283 191.925C62.2065 191.103 65.6323 191.585 67.4127 193.571C68.8653 195.19 68.229 197.806 66.23 199.561C64.7774 200.834 63.4727 202.28 61.4159 204.337L61.4223 204.343Z"
        fill="white" />
      <path
        d="M67.0851 191.392C62.4252 190.82 58.5108 189.926 53.626 190.376C57.1096 186.944 58.7615 181.808 63.7749 183.235C66.7765 184.09 65.5168 188.422 67.0851 191.392Z"
        fill="white" />
      <path
        d="M61.6802 181.77C64.0519 179.501 65.3053 174.905 68.5576 175.561C71.8034 176.21 72.5747 180.645 74.6701 184.193C69.9138 183.447 65.9866 182.143 61.6802 181.77Z"
        fill="white" />
      <path
        d="M46.9484 198.456C48.5616 196.547 49.77 195.21 50.8691 193.789C52.1546 192.131 53.8129 191.051 55.8697 191.257C58.2864 191.501 57.785 193.943 58.4535 195.46C59.4883 197.832 59.5719 199.458 55.9982 198.867C53.2665 198.411 50.4192 198.584 46.9548 198.449L46.9484 198.456Z"
        fill="white" />
      <path
        d="M54.2236 209.716C53.5487 206.998 53.3559 204.825 52.4689 202.987C51.0741 200.114 52.1861 199.426 54.7378 199.895C56.666 200.242 59.4234 199.182 60.2397 201.836C60.9531 204.157 59.1213 205.693 57.3859 207.017C56.4539 207.73 55.5926 208.54 54.2236 209.716Z"
        fill="white" />
      <path
        d="M41.215 205.5C42.6805 203.777 43.6575 202.518 44.7373 201.374C46.0356 199.998 47.8739 198.983 49.5257 199.812C51.3254 200.712 51.3897 203.064 51.8139 204.915C52.1289 206.297 51.0426 206.162 50.1171 206.098C47.4497 205.898 44.7823 205.738 41.215 205.5Z"
        fill="white" />
      <path
        d="M47.1088 214.299C46.3375 213.901 45.3606 207.293 45.9262 207.229C48.1437 206.953 50.8689 206.515 52.3922 207.91C54.4876 209.838 49.0435 215.308 47.1088 214.312L47.1088 214.299Z"
        fill="white" />
      <path
        d="M23.1726 218.888C30.3199 219.004 35.2305 223.825 35.7254 231.313C32.6402 226.055 28.9059 221.485 23.1726 218.888Z"
        fill="white" />
      <path
        d="M35.8284 213.586C35.6227 213.509 35.6484 213.2 35.8734 213.168C37.7695 212.943 40.2633 213.02 41.9987 213.02C43.2328 213.02 45.9902 213.065 45.9131 215.238C45.8552 216.915 41.1375 219.46 41.1375 219.46C41.1375 219.46 40.7647 215.398 35.8284 213.586Z"
        fill="white" />
      <path
        d="M36.651 211.426C38.7785 209.106 39.8455 206.355 42.59 206.824C45.1546 207.267 44.454 210.141 45.3538 212.609C42.4936 212.217 40.0704 211.889 36.6446 211.42L36.651 211.426Z"
        fill="white" />
      <path
        d="M27.6657 226.801C24.7691 223.904 20.0727 223.904 17.1761 226.801C14.2795 229.697 14.2795 234.394 17.1761 237.29C20.0727 240.187 24.7691 240.187 27.6657 237.29C30.5623 234.394 30.5623 229.697 27.6657 226.801Z"
        fill="white" />
    </g>
  </g>
  <defs>
    <clipPath id="clip0_268_3429">
      <rect width="256" height="256" fill="white" />
    </clipPath>
    <clipPath id="clip1_268_3429">
      <rect width="58.0838" height="325.269" fill="white" transform="translate(33 263) rotate(-135)" />
    </clipPath>
  </defs>
</svg>