<svg width="55" height="55" viewBox="0 0 256 256" fill="none" xmlns="http://www.w3.org/2000/svg">
  <path
    d="M66.556 173.35L66.316 173.59L65.306 172.56L19.676 216.13C15.776 222.43 16.116 227.2 20.846 231.25C25.576 235.29 28.016 233.68 32.336 232.7C36.646 231.73 48.026 214.56 48.026 214.56C48.026 214.56 58.486 202.46 63.206 200.32C67.926 198.18 78.496 197.9 78.496 197.9L84.766 191.96L66.556 173.35ZM28.656 224.53C27.886 225.28 26.656 225.27 25.906 224.5C25.156 223.73 25.166 222.5 25.936 221.75C26.706 221 27.936 221.01 28.686 221.78C29.436 222.55 29.426 223.78 28.656 224.53ZM44.646 207.33C43.876 208.08 42.646 208.07 41.896 207.3C41.146 206.53 41.156 205.3 41.926 204.55C42.696 203.8 43.926 203.81 44.676 204.58C45.426 205.35 45.416 206.58 44.646 207.33ZM60.746 193.12C59.976 193.87 58.746 193.86 57.996 193.09C57.246 192.32 57.256 191.09 58.026 190.34C58.796 189.59 60.026 189.6 60.776 190.37C61.526 191.14 61.516 192.37 60.746 193.12Z"
    fill="white" />
  <path
    d="M238.006 40.02C227.496 35.44 196.526 22 196.526 22C191.576 33.45 179.776 57.33 166.876 72C141.056 101.38 113.456 127.46 113.456 127.46L67.9863 171.96L70.0263 174.05L154.046 92.52L70.7163 174.76L71.9463 176.02L155.966 94.49L72.6363 176.73L73.8663 177.99L157.886 96.46L74.5563 178.7L75.7863 179.96L159.806 98.43L76.4763 180.67L86.2163 190.63L113.276 164.99L113.146 162.48L238.006 40.06V40.02ZM109.186 163.91L92.0963 180.39L91.9563 180.25L108.706 163.62C108.666 163.37 108.266 161.12 108.266 161.12L108.236 160.97L108.346 160.86C141.176 127.49 188.026 78.19 220.936 45.28C219.246 43.99 201.996 30 201.996 30L202.116 29.84L224.356 44.63L225.336 45.28L224.486 46.14C207.936 62.83 183.666 86.98 166.736 103.82C166.766 103.61 108.246 162.12 108.846 161.02L109.266 163.67L109.286 163.81L109.186 163.91Z"
    fill="white" />
</svg>