<svg width="55" height="55" viewBox="0 0 256 256" fill="none" xmlns="http://www.w3.org/2000/svg">
  <path
    d="M203.35 59.53L204.08 58.75C204.14 58.8 204.2 58.85 204.26 58.89C205.33 59.68 206.83 59.48 207.68 58.46C230.81 30.82 230.66 22.94 230.66 22.94C219.56 26.07 197.42 46.98 196.4 48.55C195.38 50.12 196.67 51.95 196.67 51.95L196 52.67C190.87 47.33 184.83 43.68 184.83 43.68L188.88 39.33C189.32 38.86 189.3 38.11 188.82 37.67L174.01 23.88L175.11 36.79L164.99 36.71L165.67 46.17L152.83 46.63L167.64 60.42C168.28 61.02 169.29 60.98 169.89 60.34L175.3 54.53C178.6 60.62 182.49 64.82 182.49 64.82L179.69 67.83C182.97 71.58 186.72 75.02 189.08 76.94L191.74 74.09C200.32 79.07 208.1 84.05 214.15 89.36C223.57 97.63 231.1 110.46 231.1 110.46C232.81 86.66 203.38 59.54 203.38 59.54L203.35 59.53ZM189.15 67.08L188.95 61.56L194.47 61.36L194.67 66.88L189.15 67.08ZM216.08 85.6C211.62 80.88 206.86 76.41 201.93 72.2C201.93 72.2 201.96 72.17 201.99 72.13C200.56 72.23 199.12 72.33 197.69 72.4C196.15 72.49 194.61 72.58 193.06 72.63C195.99 72.22 198.92 71.84 201.86 71.5C201.17 69.26 200.45 67.02 199.8 64.77C199.27 62.78 198.33 60.03 197.6 58C192.99 56.9 188.27 55.6 183.74 54.27C183.79 57.5 183.79 60.73 183.75 63.96C183.48 60.69 183.25 57.42 183.07 54.15L183.02 54.2L168.22 39.68L183.76 53.41L183.66 53.52C188.34 54.6 193.14 55.9 197.83 56.95L223.56 30.11L198.62 57.68L199.68 60.91C200.74 64.4 201.62 67.94 202.53 71.47C202.58 71.41 202.62 71.36 202.62 71.36C207.47 75.75 212.11 80.34 216.46 85.22C220.72 90.11 225.05 95.2 227.56 101.24C224.89 95.28 220.44 90.34 216.06 85.59L216.08 85.6Z"
    fill="white" />
  <path
    d="M66.1101 199.72C66.6601 200.24 66.8101 201.02 66.7901 201.72C67.1001 202.23 67.4401 202.76 67.4801 202.89C67.8301 203.87 67.9301 203.95 67.9801 204.95C68.0101 205.7 67.9201 206.66 67.9201 207.31L187.58 78.54C185.14 76.54 181.46 73.16 178.19 69.43L57.8601 198.64C57.8601 198.64 56.0801 202.58 59.8601 206.36C61.2101 207.71 62.5201 208.28 63.6401 208.47C63.8801 207.79 64.0701 206.84 64.1401 206.44C64.2201 206.02 64.1401 204.37 63.8701 204.05C63.4301 203.96 63.0001 203.76 62.6501 203.43C61.6201 202.48 61.5701 200.87 62.5201 199.85C63.4701 198.83 65.0801 198.77 66.1001 199.72H66.1101ZM175.78 78.06C176.65 77.13 178.1 77.08 179.03 77.94C179.96 78.81 180.01 80.26 179.15 81.19C178.29 82.12 176.83 82.17 175.9 81.31C174.97 80.44 174.92 78.99 175.78 78.06ZM166.66 88.01C167.53 87.08 168.98 87.03 169.91 87.89C170.84 88.76 170.89 90.21 170.03 91.14C169.17 92.07 167.71 92.12 166.78 91.26C165.85 90.39 165.8 88.94 166.66 88.01ZM158.07 97.09C158.94 96.16 160.39 96.11 161.32 96.97C162.25 97.84 162.3 99.29 161.44 100.22C160.58 101.15 159.12 101.2 158.19 100.34C157.26 99.47 157.21 98.02 158.07 97.09ZM149.02 106.81C149.89 105.88 151.34 105.83 152.27 106.69C153.2 107.56 153.25 109.01 152.39 109.94C151.52 110.87 150.07 110.92 149.14 110.06C148.21 109.2 148.16 107.74 149.02 106.81ZM139.57 116.96C140.44 116.03 141.89 115.98 142.82 116.84C143.75 117.71 143.8 119.16 142.94 120.09C142.08 121.02 140.62 121.07 139.69 120.21C138.76 119.34 138.71 117.89 139.57 116.96ZM129.84 127.41C130.71 126.48 132.16 126.43 133.09 127.29C134.02 128.16 134.07 129.61 133.21 130.54C132.34 131.47 130.89 131.52 129.96 130.66C129.03 129.79 128.98 128.34 129.84 127.41ZM120.68 137.25C121.55 136.32 123 136.27 123.93 137.13C124.86 138 124.91 139.45 124.05 140.38C123.19 141.31 121.73 141.36 120.8 140.5C119.87 139.63 119.82 138.18 120.68 137.25ZM110.42 148.27C111.29 147.34 112.74 147.29 113.67 148.15C114.6 149.02 114.65 150.47 113.79 151.4C112.92 152.33 111.47 152.38 110.54 151.52C109.61 150.65 109.56 149.2 110.42 148.27Z"
    fill="white" />
  <path
    d="M65.6705 201.2C66.6305 202.18 70.6305 206.14 61.2805 219.97C52.1505 233.47 43.1405 234.72 43.1405 234.72C43.1405 234.72 35.0805 237.03 30.9005 229.49C26.7205 221.95 36.2105 215.81 36.2105 215.81C36.2105 215.81 40.3605 213.4 44.7105 212.88C49.7605 212.28 57.4505 204.14 57.4505 204.14C57.4505 204.14 57.6105 205.08 58.5505 205.95C58.5505 205.95 53.3605 213.21 47.0705 214.91C40.7805 216.61 38.5105 217.07 34.9005 220.82C33.1505 222.63 32.9605 224.75 33.2305 226.45C33.6005 228.78 35.0905 230.83 37.2905 231.66C38.6005 232.15 40.3305 232.38 42.4905 231.79C47.9205 230.31 50.5405 228.01 55.6705 222.63C60.8005 217.25 66.7705 206.74 63.9205 203.16C63.3505 202.45 62.6605 203.02 62.5205 201.67C62.3105 199.61 64.2905 199.8 65.6705 201.21V201.2Z"
    fill="white" />
</svg>