<svg width="55" height="55" viewBox="0 0 256 256" fill="none" xmlns="http://www.w3.org/2000/svg">
  <path d="M178.73 62.1699L178.99 62.4599L178.72 62.1799L178.73 62.1699Z" fill="white" />
  <path
    d="M215.87 67.7699C209.69 72.5999 204.17 78.2799 199.59 84.6799C198.55 84.4299 194.58 83.2099 195.69 79.1299L195.585 78.9596L195.303 78.6082L195 78.2199L179.01 62.4799L178.99 62.4599L178.73 62.1699L178.22 61.5999C174.16 62.6599 172.96 58.6999 172.72 57.6699C179.09 53.0899 184.84 47.6399 189.68 41.4399C194.21 42.3599 192.92 46.9999 192.92 46.9999L192.96 47.0499C192.96 47.0499 192.94 47.0699 192.93 47.0799L193.436 47.7029L194.175 48.5977L208.82 63.1199L210.24 64.5399C210.24 64.5399 210.28 64.5099 210.3 64.4899L210.32 64.5099C210.32 64.5099 214.97 63.2299 215.87 67.7699Z"
    fill="white" />
  <path
    d="M196.769 51.2004C199.149 48.1804 201.509 47.6704 203.399 48.0304C202.999 48.4304 203.039 49.0804 203.519 49.9804C203.889 50.6804 204.509 51.4804 205.259 52.2304C206.159 53.1304 207.699 54.3704 208.759 54.3704C208.989 54.3704 209.189 54.3004 209.369 54.1604C209.649 56.0204 209.069 58.3104 206.139 60.6004C204.644 59.5365 196.874 51.6593 196.769 51.2004Z"
    fill="white" />
  <path
    d="M238.52 88.8501L243.4 83.9901L239.52 80.1001L240.43 79.2001L227.08 65.8101L226.27 66.6301L221.76 62.1101C213.232 70.6212 207.389 77.1636 195.56 88.9701L199.53 92.9501L198.71 93.7601L212.05 107.14L212.77 106.42L216.74 110.4L221.63 105.52L221.72 105.61C222.31 106.21 223.28 106.22 223.88 105.62L238.69 90.8501C239.2 90.3501 239.2 89.5301 238.69 89.0201L238.53 88.8501H238.52ZM229.49 84.5701C229.49 84.5701 224.33 79.3801 222.42 77.4701L216.41 83.4601L213.68 86.2401L211.05 88.8701L208.82 88.9201C208.82 88.9201 219.75 78.0201 221.89 75.8801L222.43 75.3501L222.96 75.8801C224.12 77.0601 228.82 81.7701 228.82 81.7701L231.6 84.5401L229.49 84.5701Z"
    fill="white" />
  <path
    d="M209.139 52.95C209.139 52.79 208.7 51.66 207.24 50.19C205.88 48.83 204.809 48.35 204.479 48.34C204.479 48.67 204.96 49.75 206.32 51.11C207.78 52.58 208.919 53.01 209.149 52.95H209.139Z"
    fill="white" />
  <path
    d="M193.81 36.99L189.3 32.46L190.11 31.65L176.77 18.27L175.87 19.18L171.99 15.29L167.11 20.15C166.51 19.56 165.55 19.56 164.95 20.15L150.3 34.75C149.7 35.35 149.7 36.32 150.3 36.92L150.39 37.01L145.51 41.88L149.47 45.85L148.74 46.57L162.09 59.96L162.9 59.15L166.86 63.12C175.728 54.2865 184.943 45.8219 193.81 36.99ZM178.86 36.74C178.86 36.74 173.7 31.55 171.79 29.64L165.78 35.64L163.05 38.41L160.42 41.04L158.18 41.09C158.18 41.09 169.12 30.19 171.26 28.05L171.79 27.52L172.32 28.06C173.49 29.23 178.19 33.94 178.19 33.94L180.96 36.72L178.86 36.74Z"
    fill="white" />
  <path
    d="M188.769 79.19H188.779L178.389 68.76H178.379L176.299 66.69C176.299 66.69 173.659 66.5 173.529 69.45L175.629 71.56L185.969 81.93L188.069 84.03C191.019 83.91 190.839 81.27 190.839 81.27L188.759 79.19H188.769Z"
    fill="white" />
  <path
    d="M178.979 63.9699C178.979 63.9699 176.129 63.6299 176.239 66.6999L190.829 81.3399C193.909 81.4599 193.569 78.6099 193.569 78.6099L178.979 63.9699Z"
    fill="white" />
  <path
    d="M185.25 82.6301L174.91 72.2601L174.89 72.2801L173.42 70.8101L172.78 71.4701C172.1 72.1701 172.11 73.2901 172.8 73.9801L172.97 74.1501L169.66 77.4501L180.05 87.8701L183.36 84.5701L183.66 84.8801C184.27 85.5001 185.27 85.5101 185.9 84.9001L186.7 84.1301L185.22 82.6501L185.24 82.6301H185.25Z"
    fill="white" />
  <path d="M69.4583 178.804L41.085 207.098L50.0103 216.048L78.3836 187.754L69.4583 178.804Z" fill="white" />
  <path
    d="M125.44 122.97L123.92 124.48C126.95 127.59 130.63 130.48 134.61 131.73L139.28 127.08C139.21 127.08 139.14 127.08 139.07 127.08C134.41 127.08 129.55 125.19 125.44 122.97Z"
    fill="white" />
  <path
    d="M29.7201 214.18L26.1201 217.77C26.1201 217.77 22.3701 222.86 27.8201 229.28C34.2301 234.76 39.3201 231.02 39.3201 231.02L42.9201 227.43L29.7201 214.18Z"
    fill="white" />
  <path
    d="M131.49 134.85L133.77 132.57C129.79 131.2 126.16 128.32 123.16 125.24L121.49 126.9C124.25 129.99 127.69 133.08 131.48 134.84L131.49 134.85Z"
    fill="white" />
  <path
    d="M34.4699 210.49L33.9399 209.95C33.9399 209.95 30.6699 209.65 30.4199 213.46L32.5199 215.57L41.5199 224.61L43.6199 226.71C47.3099 226.48 47.1599 223.42 47.1399 223.22L34.4499 210.5L34.4699 210.49Z"
    fill="white" />
  <path d="M120.75 127.65L77.9004 170.38L86.8504 179.36L130.69 135.65C126.89 133.81 123.49 130.72 120.75 127.65Z"
    fill="white" />
  <path
    d="M167.29 77.9101C167.04 77.7101 166.68 77.7101 166.45 77.9401L165.57 78.8201C164.9 79.4801 164.9 80.5601 165.57 81.2301L166.44 82.1001L126.23 122.19C130.56 124.48 135.67 126.36 140.39 125.98L175.39 91.0801L176.39 92.0801C176.99 92.6801 177.95 92.6801 178.55 92.0801L179.41 91.2301C179.72 90.9201 179.73 90.4201 179.45 90.0901L167.31 77.9101H167.29Z"
    fill="white" />
  <path
    d="M38.2297 205.68C38.2297 205.68 34.6897 205.09 34.6797 209.22L47.8897 222.46C52.0197 222.46 51.4397 218.92 51.4397 218.92L38.2297 205.68Z"
    fill="white" />
  <path
    d="M86.14 180.06L77.19 171.09L77.17 171.11L74.34 168.27L72.85 168.41L67.48 173.77L67.25 175.17L70.18 178.1L70.17 178.11L79.09 187.06H79.1L82.03 189.99L83.43 189.77L88.81 184.41L88.94 182.92L86.12 180.09L86.14 180.06Z"
    fill="white" />
</svg>