<svg width="55" height="55" viewBox="0 0 256 256" fill="none" xmlns="http://www.w3.org/2000/svg">
  <path
    d="M166.95 33.06L162.94 27.92L165.36 24.82C165.89 24.15 165.77 23.17 165.09 22.65L147.64 9.03003L148.03 21.11C134.34 20.09 139.17 32.46 139.17 32.46L127.95 35.62L145.19 49.08C145.67 49.45 146.35 49.37 146.72 48.89L148.9 46.09C152.08 44.82 154.82 45.22 156.85 45.99L166.95 33.05V33.06ZM143.22 34.97C140.48 35.7 137.72 36.37 134.93 36.93C137.36 35.92 139.82 35 142.3 34.14C138.58 26.82 143.22 22.69 150.72 23.35C150.73 20.7 150.8 18.06 150.97 15.41C151.37 18.43 151.64 21.46 151.84 24.5C148.01 24.22 141.63 24.93 142.35 30.13C142.48 31.7 143.16 33.3 143.81 34.8L143.22 34.96V34.97Z"
    fill="white" />
  <path
    d="M200.98 50.67L180.72 34.86C180.07 34.35 179.27 34.08 178.45 34.08L167.9 34.11L158.16 46.59C159.66 47.38 160.52 48.23 160.52 48.23C170.09 55.7 164.49 63.48 164.49 63.48L157.76 71.63L169.05 80.44L175.11 72.45C175.11 72.45 183.24 65.36 188.17 68.91C193.1 72.46 191.09 81.61 191.09 81.61C210.47 84.05 234.74 106.32 234.74 106.32C232.68 90.12 215.99 67.56 208.53 58.16C206.32 55.37 203.78 52.87 200.98 50.68V50.67ZM171.94 65.7C169.87 64.76 169.53 62.03 171.31 60.61C172.15 59.94 173.35 59.8 174.32 60.24C176.39 61.18 176.73 63.91 174.95 65.33C174.11 66 172.91 66.14 171.94 65.7ZM194.45 69.41C191.71 68 191.26 64.35 193.58 62.32C194.86 61.19 196.79 60.95 198.31 61.74C201.05 63.15 201.5 66.8 199.18 68.83C197.9 69.96 195.97 70.2 194.45 69.41ZM202.61 75C200.54 74.06 200.2 71.33 201.98 69.91C202.82 69.24 204.02 69.1 204.99 69.54C207.06 70.48 207.4 73.21 205.62 74.63C204.78 75.3 203.58 75.44 202.61 75ZM208.02 79.32C207.22 78.7 207.08 77.54 207.7 76.74C208.32 75.94 209.48 75.8 210.28 76.42C211.08 77.04 211.22 78.2 210.6 79C209.98 79.8 208.82 79.94 208.02 79.32ZM226.96 94.16C214.18 74.34 203.75 54.57 183.41 41.44C183.08 41.19 181.12 39.88 181.12 39.88C191.62 45.81 201.42 53.77 208.85 63.15C214.49 70.19 218.72 78.07 223.06 86.03C224.5 88.67 226.51 92.48 227.57 95.3L226.97 94.16H226.96Z"
    fill="white" />
  <path
    d="M45.6499 207.98C45.1699 207.61 44.4799 207.69 44.0999 208.16C41.1199 211.83 38.9599 214.51 37.9899 215.76C32.9899 222.24 36.7099 228.13 39.1499 230.89C40.0499 231.91 41.1099 232.8 42.2699 233.52C47.7699 236.93 51.6499 235.73 54.8199 233.62C56.0199 232.83 57.6899 231.22 58.5399 230.06L63.5399 223.32C63.8999 222.84 63.8099 222.16 63.3299 221.79L45.6399 207.99L45.6499 207.98Z"
    fill="white" />
  <path
    d="M89.7099 186.22L73.7199 173.74C73.2499 173.37 72.5599 173.45 72.1799 173.91C70.5899 175.84 69.0099 177.76 67.4399 179.67C67.0399 180.15 67.1299 180.86 67.6199 181.24L83.8999 193.95C84.3899 194.33 85.0999 194.24 85.4699 193.74L89.9099 187.75C90.2699 187.27 90.1799 186.59 89.6999 186.22H89.7099Z"
    fill="white" />
  <path
    d="M69.9298 212.89L52.6498 199.4C52.1798 199.03 51.4898 199.11 51.1098 199.58C49.4198 201.65 47.8398 203.58 46.3898 205.35C45.9998 205.83 46.0798 206.53 46.5698 206.92L64.1298 220.62C64.6198 221 65.3298 220.91 65.6998 220.41L70.1398 214.42C70.4998 213.94 70.4098 213.26 69.9298 212.89Z"
    fill="white" />
  <path
    d="M76.5198 204L59.6598 190.84C59.1898 190.47 58.4998 190.55 58.1198 191.02C56.4798 193.01 54.8998 194.94 53.3898 196.79C52.9998 197.27 53.0798 197.98 53.5698 198.36L70.7198 211.74C71.2098 212.12 71.9198 212.03 72.2898 211.53L76.7298 205.54C77.0898 205.06 76.9998 204.38 76.5198 204.01V204Z"
    fill="white" />
  <path
    d="M134.15 129.01C132.76 128.38 129.71 126.85 126.21 124.12C123.82 122.26 121.23 119.84 118.81 116.77L118.89 116.7C110.06 116.65 111.73 125.33 111.83 125.82C117.62 133.31 124.19 136.58 127.12 137.74C135.02 137.54 134.81 131.96 134.14 129.01H134.15ZM115.07 123.55C114.62 123.2 114.69 122.34 115.24 121.64C115.79 120.94 116.6 120.66 117.05 121.01C117.5 121.36 117.43 122.22 116.88 122.92C116.33 123.62 115.52 123.9 115.06 123.55H115.07ZM121.77 129.57C121.08 129.03 120.96 128.03 121.5 127.34C122.04 126.65 123.04 126.53 123.73 127.07C124.42 127.61 124.54 128.61 124 129.3C123.46 129.99 122.46 130.11 121.77 129.57ZM128.92 134.36C128.47 134.01 128.55 133.16 129.1 132.46C129.65 131.76 130.46 131.47 130.9 131.82C131.34 132.17 131.27 133.02 130.72 133.72C130.17 134.42 129.36 134.71 128.92 134.36Z"
    fill="white" />
  <path
    d="M126.18 138.88C124.28 138.1 121.31 136.63 118.01 134.06C115.72 132.27 113.29 129.92 110.95 126.94C108.19 130.28 99.2795 141.05 88.5795 154.04C88.1795 154.52 88.2595 155.24 88.7495 155.62L103.7 167.29C104.19 167.67 104.9 167.58 105.27 167.08L126.18 138.89V138.88Z"
    fill="white" />
  <path
    d="M120.55 116.67C125.37 122.49 130.84 125.78 133.62 127.19L167.1 84.87C167.75 84.05 167.62 82.85 166.79 82.19L156.35 73.87C155.52 73.21 154.31 73.35 153.65 74.19L120.54 116.67H120.55Z"
    fill="white" />
  <path
    d="M96.3097 177.33L80.7597 165.2C80.2897 164.83 79.6097 164.9 79.2297 165.37C77.6597 167.28 76.0697 169.2 74.4897 171.13C74.0897 171.61 74.1697 172.32 74.6597 172.71L90.4997 185.08C90.9897 185.46 91.6997 185.37 92.0697 184.87L96.5097 178.88C96.8697 178.4 96.7797 177.72 96.2997 177.35L96.3097 177.33Z"
    fill="white" />
  <path
    d="M83.1196 195.11L66.6896 182.29C66.2196 181.92 65.5296 182 65.1496 182.46C63.5396 184.42 61.9596 186.34 60.4096 188.22C60.0096 188.7 60.0996 189.41 60.5896 189.79L77.3096 202.84C77.7996 203.22 78.5096 203.13 78.8796 202.63L83.3196 196.64C83.6796 196.16 83.5896 195.48 83.1096 195.11H83.1196Z"
    fill="white" />
  <path
    d="M102.9 168.44L87.7997 156.66C87.3297 156.29 86.6497 156.36 86.2697 156.82C84.7097 158.71 83.1297 160.63 81.5297 162.57C81.1297 163.05 81.2097 163.77 81.6997 164.15L97.0997 176.17C97.5897 176.55 98.2997 176.46 98.6697 175.96L103.11 169.97C103.47 169.49 103.38 168.81 102.9 168.44Z"
    fill="white" />
</svg>