<svg width="55" height="55" viewBox="0 0 256 256" fill="none" xmlns="http://www.w3.org/2000/svg">
  <path
    d="M196.17 55.1701C172.4 77.4901 136.11 117.07 74.2598 179.01C74.7498 179.78 77.3998 183.71 81.2298 186.45C81.4198 186.59 81.6198 186.71 81.8098 186.83C96.8998 172.02 227.09 43.8801 233.45 26.0701C233.45 26.0701 223.33 29.6801 196.17 55.1701Z"
    fill="white" />
  <path
    d="M40.2399 215.25C39.4199 216.7 36.9499 214.69 35.3899 214.63C33.9599 214.58 28.3599 216.39 31.0999 223.2C33.8399 230.01 39.3199 229.98 39.3199 229.98C39.3199 229.98 43.3199 228.57 44.1599 224.27C44.3999 223.01 44.5899 222.25 44.7899 221.81C42.4299 220.24 41.0099 217.88 40.2499 215.25H40.2399Z"
    fill="white" />
  <path
    d="M48.62 205.29C47.88 205.88 46.4 206.11 45.29 206.27C43.9 206.47 40.22 206.03 40.27 210.68C40.54 212.68 40.95 214.71 41.75 216.57C42.49 218.3 43.78 220.06 45.38 221.28C45.82 221.27 46.46 221.69 47.58 221.91C48.53 222.1 53.44 221.07 53.63 214.52C53.64 214.08 53.71 213.73 53.81 213.45C51.31 211.37 49.53 208.44 48.62 205.29Z"
    fill="white" />
  <path
    d="M59.22 177.95C59.12 183.72 62.38 188.93 65.9 193.24C70.44 198.45 76.54 202.18 83.26 203.81C83.61 203.22 87.02 196.88 80.41 188.3C80.3 188.22 80.18 188.16 80.07 188.08C76.34 185.42 73.73 181.82 72.82 180.46C72.8 180.48 72.78 180.5 72.76 180.52C72.76 180.52 65.8 175.22 60.2 176.14H59.3C59.25 176.74 59.21 177.35 59.22 177.95Z"
    fill="white" />
  <path
    d="M56.5496 196.32C54.5496 196.85 51.8296 196.97 49.9896 199.02C48.3096 200.89 48.9196 202.72 49.0496 204C49.0996 204.15 49.1296 204.3 49.1796 204.44C50.2496 207.52 51.9296 210.47 54.2396 212.79C54.8396 212.29 55.7696 212.47 56.5896 212.55C57.8896 212.69 62.3696 210.25 61.9196 205.65C59.5696 202.75 57.7896 199.27 56.5496 196.32Z"
    fill="white" />
  <path
    d="M88.9295 206.01C87.6995 205.08 86.0995 204.52 84.9095 204.21C75.4095 203.28 66.4695 197.43 61.8395 189.08C59.2895 185.33 58.2695 180.58 58.9395 176.12H58.9195C58.9195 176.12 54.0095 167.67 48.4595 173.14C42.9095 178.61 50.4495 184.62 51.7595 183.18C53.6895 181.06 55.5995 182.25 55.5995 182.25C55.5995 182.25 56.1695 185.62 57.4995 189.17C59.4495 192.41 63.8195 199.15 68.4495 202.97C71.1395 204.41 77.6195 207.8 79.9895 208.44C79.9895 208.44 83.6795 210.54 81.9595 212.33C80.6795 213.66 84.8895 215.56 86.9995 215.01C92.8895 213.46 91.4895 207.97 88.9095 206.01H88.9295Z"
    fill="white" />
  <path
    d="M62.4597 204.69C63.4197 203.84 65.4197 203 66.5097 202.59C63.1497 199.45 60.0997 195.15 58.0697 191.99C58.1697 193.31 58.1097 194.91 57.4297 195.76C58.6097 198.57 60.2897 201.9 62.4597 204.69Z"
    fill="white" />
</svg>