<svg width="200" height="200" viewBox="0 0 200 200" fill="none" xmlns="http://www.w3.org/2000/svg">
<path d="M164.642 133.583C166.702 133.072 168.881 133.366 170.731 134.406C172.582 135.446 173.967 137.153 174.602 139.179C175.236 141.205 175.074 143.397 174.148 145.307C173.221 147.218 171.601 148.702 169.617 149.458L168.692 149.75L35.3586 183.083C33.298 183.595 31.1199 183.301 29.269 182.261C27.418 181.221 26.0338 179.513 25.3989 177.488C24.764 175.462 24.9263 173.27 25.8527 171.359C26.7791 169.449 28.3996 167.964 30.3836 167.208L31.3086 166.917L164.642 133.583Z" fill="white"/>
<path d="M25.2498 139.641C25.7455 137.661 26.9511 135.931 28.6377 134.78C30.3244 133.63 32.3748 133.138 34.3998 133.4L35.3581 133.583L168.691 166.916C170.754 167.432 172.541 168.716 173.688 170.506C174.835 172.296 175.254 174.456 174.86 176.545C174.466 178.634 173.289 180.494 171.569 181.743C169.849 182.993 167.717 183.537 165.608 183.266L164.641 183.083L31.3081 149.75C29.1643 149.212 27.3217 147.846 26.1855 145.95C25.0494 144.054 24.7128 141.785 25.2498 139.641Z" fill="white"/>
<path d="M112.942 17.5498C78.1585 34.9331 58.3335 62.1998 58.3335 91.6664C58.3335 102.717 62.7234 113.315 70.5374 121.129C78.3514 128.943 88.9495 133.333 100 133.333C111.051 133.333 121.649 128.943 129.463 121.129C137.277 113.315 141.667 102.717 141.667 91.6664C141.667 82.9414 140.1 76.5998 136.617 69.1248L135.208 66.2498L132.458 60.8581C127.283 50.5248 125 41.3748 125 24.9998C124.999 23.5799 124.636 22.1837 123.944 20.9437C123.252 19.7038 122.255 18.6612 121.047 17.9148C119.839 17.1685 118.46 16.7432 117.042 16.6793C115.623 16.6155 114.212 16.9151 112.942 17.5498Z" fill="url(#paint0_linear_135_10)"/>
<defs>
<linearGradient id="paint0_linear_135_10" x1="100" y1="16.6709" x2="100" y2="133.333" gradientUnits="userSpaceOnUse">
<stop stop-color="#42D392"/>
<stop offset="1" stop-color="#8B5CF6"/>
</linearGradient>
</defs>
</svg>
