<svg width="256" height="256" viewBox="0 0 256 256" fill="none" xmlns="http://www.w3.org/2000/svg">
  <path
    d="M121.559 164.197C125.316 166.097 129.285 167.939 133.506 169.657L135.957 167.747L143.936 153.928L145.062 150.264C140.39 147.926 136.916 145.381 133.468 143.57L121.559 164.197Z"
    fill="white" />
  <path
    d="M175.237 78.0737L167.881 90.8141C161.814 87.3114 159.667 79.5105 163.209 73.3763C164.104 71.8258 165.297 70.5374 166.615 69.5006C168.098 70.3568 169.542 71.2804 170.986 72.204L174.957 75.7553C175.543 76.4531 175.626 77.3996 175.237 78.0737Z"
    fill="white" />
  <path
    d="M165.547 94.859L163.445 98.4991C153.507 92.6717 143.222 86.8234 135.538 82.3866L147.33 61.9615C147.719 61.2874 148.58 60.8858 149.371 61.0727L154.471 62.6691C156.937 64.0028 159.605 65.4532 162.369 67.0489C161.147 68.231 160.021 69.5583 159.165 71.0414C154.378 79.3327 157.188 90.033 165.547 94.859Z"
    fill="white" />
  <path
    d="M110.288 160.835C106.782 158.811 103.557 156.769 100.602 154.883L89.0037 174.971C94.1345 178.383 100.095 181.914 106.675 184.994L118.157 165.108C115.382 163.686 112.782 162.275 110.288 160.835Z"
    fill="white" />
  <path
    d="M112.622 128.927L124.259 108.772L112.193 101.805L109.409 104.602L100.964 119.23L100.382 121.95C102.231 123.107 112.622 128.927 112.622 128.927Z"
    fill="white" />
  <path
    d="M111.532 130.814C108.144 128.588 101.517 125.122 99.3984 123.809L96.7888 126.617L88.8104 140.435L88.4413 143.099C91.5394 145.516 95.3115 148.323 99.7008 151.307L111.532 130.814Z"
    fill="white" />
  <path
    d="M113.689 132.061L101.741 152.756C106.872 156.167 112.765 159.66 119.257 163.048L131.283 142.219C128.683 140.807 117.319 134.336 113.689 132.061Z"
    fill="white" />
  <path
    d="M144.56 170.285L151.838 157.679C152.032 157.342 152.092 156.927 151.978 156.502L150.68 153.146C149.563 152.591 148.445 152.036 147.395 151.519L146.307 155.115L138.056 169.406L136.264 170.798C136.977 171.12 137.662 171.336 138.414 171.59L143.61 170.995C143.968 170.842 144.365 170.622 144.56 170.285Z"
    fill="white" />
  <path
    d="M72.3654 165.184C71.7816 166.195 71.0213 167.823 70.9435 167.958C76.5405 172.897 98.0684 190.719 122.432 196.157C122.86 195.416 123.444 194.404 123.911 193.596C113.765 191.243 104.197 186.798 95.9733 182.05C84.5811 175.472 75.943 168.328 72.3654 165.184Z"
    fill="white" />
  <path
    d="M108.951 186.038C113.027 187.852 117.326 189.435 121.791 190.575L123.778 188.846L131.678 175.161L132.745 171.913C128.389 170.117 124.246 168.264 120.354 166.287L108.951 186.038Z"
    fill="white" />
  <path d="M144.01 120.175L126.416 110.017L114.779 130.173L132.373 140.33L144.01 120.175Z" fill="white" />
  <path
    d="M86.8972 173.484L98.4561 153.464C93.9994 150.441 90.1599 147.595 86.9944 145.139L84.4911 147.918L76.5906 161.602L75.5912 164.89C78.1499 166.996 82.0075 170.122 86.8972 173.484Z"
    fill="white" />
  <path
    d="M86.3513 139.556L94.7189 125.063L97.2507 122.39C96.4807 121.856 95.6433 121.282 94.8059 120.709L91.0767 121.252C90.6514 121.366 90.322 121.626 90.1274 121.963L82.8496 134.568C82.655 134.905 82.5952 135.32 82.7092 135.745L84.5152 139.934C85.0156 140.313 85.5444 140.798 86.1122 141.216L86.3513 139.556Z"
    fill="white" />
  <path
    d="M93.2482 186.769C82.5975 180.62 74.3145 173.95 70.3714 170.505C69.6312 174.123 69.137 178.87 68.8145 181.92C68.6219 183.966 69.2307 186.025 70.4489 187.807L70.6122 187.991C71.6386 189.482 73.0618 190.754 74.6797 191.688L99.4864 206.01C100.902 206.827 102.473 207.375 104.133 207.614L104.654 207.645C107.211 208.043 109.763 207.359 111.604 205.726C114.105 203.574 117.671 200.51 120.54 198.032C110.568 195.69 101.203 191.362 93.2482 186.769Z"
    fill="white" />
  <path
    d="M170.014 62.8344C167.713 63.3938 165.488 64.4459 163.657 65.9053C160.691 64.1928 157.888 62.6646 155.287 61.2531L157.117 58.0848C157.467 57.4781 158.211 57.2787 158.974 57.3593C159.601 57.3621 160.729 57.7437 161.442 58.0654C162.56 58.6207 166.259 60.3075 170.014 62.8344Z"
    fill="white" />
  <path
    d="M173.7 67.6601L171.832 70.8958C170.59 70.0889 169.309 69.3495 168.135 68.5815C169.867 67.6045 171.887 67.0631 173.876 67.043C173.827 67.2842 173.817 67.4579 173.7 67.6601Z"
    fill="white" />
  <path
    d="M95.9073 118.648C96.7447 119.221 97.5147 119.755 98.3236 120.222L98.651 118.254L107.408 103.087L110.777 100.988L109.766 100.404L103.122 100.703C102.629 100.778 102.194 101.065 101.96 101.47L94.5265 114.345C94.293 114.75 94.3007 115.203 94.4146 115.629L95.9073 118.648Z"
    fill="white" />
  <path
    d="M161.68 123.816L114.493 96.5731C114.089 96.3396 113.596 96.4147 113.363 96.8191L112.078 99.0436L160.681 127.104L161.965 124.88C162.16 124.543 162.085 124.05 161.68 123.816Z"
    fill="white" />
  <path
    d="M74.1694 160.656L82.4202 146.365L84.9624 143.519C83.9332 142.655 82.9714 141.83 82.1055 141.15L78.908 141.551C78.4827 141.665 78.1533 141.924 77.9587 142.261L70.603 155.002C70.3695 155.406 70.3382 155.927 70.5196 156.392L73.7461 162.479L74.1694 160.656Z"
    fill="white" />
  <path
    d="M139.394 174.403C137.958 173.933 136.493 173.357 135.095 172.82L133.979 176.31L125.845 190.399L124.779 191.311C125.57 191.498 126.361 191.685 127.123 191.766L131.874 191.632C132.366 191.557 132.802 191.27 133.036 190.865L140.391 178.125C140.586 177.788 140.646 177.373 140.532 176.948L139.394 174.403Z"
    fill="white" />
  <path
    d="M156.274 149.995L163.747 137.052C163.98 136.648 164.011 136.127 163.83 135.662L160.66 129.788L159.852 129.321L158.977 132.86L150.22 148.027L148.534 149.391C149.516 149.868 150.499 150.346 151.482 150.823L155.123 150.588C155.644 150.62 156.041 150.399 156.274 149.995Z"
    fill="white" />
  <path
    d="M162.978 108.027L163.057 105.555C163.039 105.275 162.953 104.956 162.683 104.801C150.993 97.9615 138.792 90.9171 130.462 86.1975C130.192 86.0418 129.845 86.021 129.621 86.2517L127.521 87.5554C136.255 92.5085 150.209 100.565 162.978 108.027Z"
    fill="white" />
  <path
    d="M163.163 103.191L163.242 100.72C163.224 100.44 163.138 100.121 162.869 99.9651C152.661 93.982 142.241 88.0559 134.489 83.5802C134.22 83.4246 133.872 83.4037 133.649 83.6344L131.548 84.9381C139.907 89.764 151.877 96.5853 163.163 103.191Z"
    fill="white" />
  <path
    d="M146.234 121.459L134.598 141.614L143.496 146.752C144.411 147.19 145.209 147.831 146.125 148.27L148.257 146.445L156.663 131.884L157.761 128.114L146.234 121.459Z"
    fill="white" />
  <path
    d="M162.831 112.795L162.91 110.324C162.892 110.044 162.806 109.725 162.537 109.569C149.296 101.835 135.14 93.6619 126.405 88.7087C126.135 88.5531 125.788 88.5322 125.565 88.7629L123.464 90.0666C132.401 95.1365 148.512 104.438 162.831 112.795Z"
    fill="white" />
  <path
    d="M162.431 122.362L162.509 119.89C162.491 119.61 162.367 119.359 162.136 119.136C145.699 109.466 126.718 98.597 118.253 93.7995C117.983 93.6438 117.635 93.623 117.412 93.8537L115.312 95.1574C123.237 99.6435 144.915 112.069 162.431 122.362Z"
    fill="white" />
  <path
    d="M162.644 117.631L162.723 115.16C162.705 114.88 162.619 114.561 162.35 114.405C147.558 105.776 131.178 96.3185 122.376 91.3264C122.106 91.1707 121.759 91.1499 121.536 91.3806L119.435 92.6843C128.102 97.5985 146.813 108.312 162.644 117.631Z"
    fill="white" />
  <path
    d="M166.364 93.4441C158.814 89.0852 156.221 79.4093 160.58 71.8594C164.939 64.3096 174.615 61.7169 182.165 66.0758C189.714 70.4348 192.307 80.1107 187.948 87.6605C183.589 95.2104 173.913 97.8031 166.364 93.4441ZM181.386 67.424C174.578 63.4932 165.859 65.8295 161.928 72.6378C157.997 79.4462 160.334 88.1651 167.142 92.0959C173.95 96.0268 182.669 93.6905 186.6 86.8822C190.531 80.0738 188.195 71.3548 181.386 67.424Z"
    fill="white" />
</svg>