<svg width="55" height="55" viewBox="0 0 256 256" fill="none" xmlns="http://www.w3.org/2000/svg">
  <g clip-path="url(#clip0_268_3431)">
    <path
      d="M48.2763 220.312C47.9956 222.19 47.2533 222.907 46.561 223.674C40.6792 230.292 34.9097 237.022 27.8802 242.492C25.9716 243.977 23.9882 245.386 22.0546 246.846C21.0192 247.632 20.0212 247.657 18.2623 245.748C15.5428 242.804 12.63 240.016 9.74838 237.209C8.42607 235.924 8.29508 235.157 8.81902 234.146C15.7362 220.955 30.687 219.239 48.2763 220.312Z"
      fill="white" />
    <path
      d="M27.0692 213.688C29.6889 211.505 32.2961 209.31 34.9407 207.151C36.5 205.879 38.1592 204.719 39.706 203.446C40.5605 202.742 41.3964 202.567 42.9432 204.164C45.8311 207.139 48.8063 210.027 51.7253 212.971C52.3491 213.595 53.2847 214.318 52.9291 215.023C52.6485 215.578 52.4301 216.358 51.3137 215.915C46.7542 214.1 42.4442 213.17 38.3401 213.008C34.423 212.859 30.98 213.582 27.0692 213.676L27.0692 213.688Z"
      fill="white" />
    <path
      d="M19.3416 221.728C25.7598 214.848 35.0159 212.54 47.7338 215.89C48.7318 216.152 50.472 216.071 50.8026 217.686C51.0334 218.828 50.1165 219.707 48.4449 219.383C42.1701 218.16 36.5129 218.316 31.1488 219.077C27.0322 219.663 23.2087 220.742 19.3416 221.728Z"
      fill="white" />
    <path
      d="M54.9403 211.182L159.304 106.819C159.825 106.297 159.857 105.484 159.375 105.001L150.293 95.9199C149.811 95.4376 148.997 95.4694 148.476 95.9909L44.1123 200.354C43.5908 200.876 43.559 201.69 44.0412 202.172L53.1228 211.253C53.605 211.736 54.4187 211.704 54.9403 211.182Z"
      fill="white" />
    <path
      d="M192.577 48.1608L152.496 88.2418L150.737 93.0445C150.575 93.4811 150.681 93.9738 151.012 94.3044L160.779 104.072C161.097 104.39 161.571 104.502 162.002 104.359L166.973 102.719L207.054 62.6376C209.574 60.1177 209.574 56.0385 207.054 53.5187L201.69 48.1546C199.17 45.6347 195.091 45.6347 192.571 48.1546L192.577 48.1608Z"
      fill="white" />
    <path
      d="M207.839 51.9718L219.204 46.9695C220.27 46.6514 221.143 45.9403 221.661 44.9735L233.524 22.8436C233.905 22.1263 233.069 21.3029 232.364 21.6834L210.315 33.6403C209.361 34.158 208.65 35.0313 208.332 36.0854L203.311 47.4809L207.839 51.9718ZM211.669 36.6904L211.725 36.6343C212.997 37.6696 214.189 38.7861 215.374 39.9213C216.996 38.125 222.353 32.9418 224.006 31.2764C226.027 29.3927 228.061 27.0725 230.113 25.432C226.364 29.505 219.615 36.865 215.711 40.7945L215.405 41.0877C214.126 39.6469 212.835 38.231 211.663 36.6966L211.669 36.6904Z"
      fill="white" />
    <path
      d="M218.269 112.823C218.431 112.661 219.061 112.031 219.223 111.869C251.064 80.6509 249.075 58.1155 249.075 58.1155L236.974 60.6603C236.974 60.6603 229.564 72.3116 219.379 74.7504C208.077 77.4574 199.395 73.0788 199.395 73.0788L179.491 92.982C179.491 92.982 185.435 101.234 180.471 111.75C175.537 122.21 165.819 127.25 165.819 127.25L163.268 140.205C163.268 140.205 187.051 144.664 218.269 112.823ZM211.065 103.062C218.662 95.6766 225.61 87.6304 230.974 78.4865C232.895 75.5301 234.56 72.4176 236.082 69.2241C234.891 72.5611 233.413 75.7983 231.735 78.9356C226.346 88.1294 219.304 96.2941 211.701 103.685C201.746 113.615 190.113 122.902 176.21 126.352C189.477 121.455 201.228 113.16 211.071 103.068L211.065 103.062Z"
      fill="white" />
    <path
      d="M115.091 92.0277L128.046 89.4767C128.046 89.4767 133.092 79.7652 143.546 74.8252C154.062 69.8603 162.314 75.8045 162.314 75.8045L182.217 55.9012C182.217 55.9012 177.839 47.2189 180.546 35.9169C182.985 25.7313 194.636 18.3214 194.636 18.3214L197.181 6.22103C197.181 6.22103 174.645 4.23132 143.434 36.079C143.272 36.2412 142.642 36.8712 142.479 37.0333C110.632 68.2448 115.091 92.0277 115.091 92.0277ZM128.963 79.0915C132.406 65.1948 141.694 53.5622 151.63 43.6012C159.021 35.9979 167.185 28.9436 176.379 23.567C179.517 21.8892 182.754 20.4109 186.091 19.2196C182.891 20.7353 179.779 22.4131 176.828 24.3279C167.684 29.692 159.638 36.6404 152.253 44.2374C142.155 54.0737 133.859 65.8248 128.969 79.0978L128.963 79.0915Z"
      fill="white" />
  </g>
  <defs>
    <clipPath id="clip0_268_3431">
      <rect width="256" height="256" fill="white" />
    </clipPath>
  </defs>
</svg>