<svg width="256" height="256" viewBox="0 0 256 256" fill="none" xmlns="http://www.w3.org/2000/svg">
<path d="M70.1758 161.19L82.9758 175.96C222.686 81.36 240.846 17 240.846 17C172.156 57.36 83.1158 147.88 70.1758 161.19ZM163.976 105.84C140.906 126.23 116.196 146.38 90.4758 162.56C140.986 127.15 187.946 85.56 224.316 35.47L224.506 35.59C208.476 62.21 186.996 85.15 163.966 105.84H163.976Z" fill="white"/>
<path d="M46.5361 207.02C54.7061 195.34 72.5861 183.47 76.6461 180.86L63.7761 166.01L29.0861 200.39L28.9961 200.6C31.4661 202.41 39.1061 207.47 46.5361 207.02Z" fill="white"/>
<path d="M25.1155 211.23C27.6655 213.07 34.6155 217.55 41.5455 217.55C41.8655 216.34 42.3455 214.96 43.0155 213.4C35.9255 213.2 29.1255 208.83 26.4955 206.92C26.0255 208.45 25.5655 209.89 25.1055 211.23H25.1155Z" fill="white"/>
<path d="M44.2957 226.42C43.7957 226.26 43.9757 226.3 43.9757 226.3C43.9757 226.3 42.2657 225.94 41.4357 223.84C40.9957 223.89 40.5457 223.94 40.1057 223.94C32.7457 224.09 25.5357 219.46 22.7857 217.46C21.2557 221.18 19.8557 223.84 18.6657 225.73C18.6857 225.73 18.6957 225.75 18.6957 225.75C17.8857 227.32 18.9957 228.53 20.4157 229.15C24.3557 231.28 28.8357 232.2 33.2757 232.5C37.9557 232.99 42.9557 231.94 46.1357 228.42C46.5657 227.52 45.1457 227.11 44.3957 226.76L44.4057 226.65C44.5157 226.65 44.1957 226.42 44.2957 226.42Z" fill="white"/>
<path d="M43.5355 212.27C43.7855 211.73 44.0555 211.18 44.3455 210.61C44.7555 209.81 45.2255 209.01 45.7455 208.21C38.3955 208.28 31.2155 203.64 28.5355 201.69L27.0655 205.07C26.9955 205.31 26.9255 205.53 26.8555 205.76C29.1355 207.44 36.3355 212.26 43.5355 212.27Z" fill="white"/>
<path d="M41.1363 222.71C40.9463 221.68 40.9563 220.37 41.2863 218.69C34.2863 218.6 27.5263 214.37 24.7263 212.36C24.2163 213.8 23.7263 215.13 23.2363 216.36C25.8063 218.23 33.6463 223.37 41.1363 222.71Z" fill="white"/>
<path d="M52.2059 224.81C49.4459 226.6 47.3659 226.95 45.9859 226.86C47.1859 227.33 47.6859 228.49 46.2959 229.89C42.7959 233.15 37.7059 233.76 33.2359 233.22C28.7359 232.81 24.2059 231.71 20.2959 229.39C18.9759 228.74 17.9059 227.56 18.4459 226.1C17.1059 228.17 16.0359 229.25 15.3659 229.79C14.9459 230.13 14.8759 230.76 15.2159 231.17C20.1759 237.12 27.7759 238.47 33.7159 238.46C38.7059 238.45 43.4059 237.65 47.2659 234.49C47.2659 234.49 49.5259 232.66 50.5259 231.47C51.5859 230.21 53.3459 228.14 53.6859 227.56C54.8659 225.55 56.5059 222.03 52.2259 224.8L52.2059 224.81Z" fill="white"/>
<path d="M80.8958 177.37C80.9558 177.33 68.5858 162.83 68.5858 162.83H68.5758L67.3058 161.44C66.6558 160.72 65.5358 160.68 64.8258 161.34L62.9658 163.09L64.6458 165.15L64.5958 165.2L79.7458 182.68L81.6458 181C82.4058 180.29 82.4558 179.09 81.7558 178.32L80.8958 177.38V177.37Z" fill="white"/>
</svg>
