<svg width="55" height="55" viewBox="0 0 256 256" fill="none" xmlns="http://www.w3.org/2000/svg">
  <path
    d="M32.2391 236.625C30.3036 235.136 28.0624 233.274 25.7723 231.06C25.5666 230.854 25.3567 230.652 25.1562 230.452C23.1303 228.426 21.45 226.383 20.097 224.559C19.3978 224.373 18.429 223.851 14.3733 225.068C11.3065 225.986 10.6329 228.572 13.0012 231.48C14.8208 233.712 23.1045 241.996 25.3419 243.82C28.2493 246.189 30.8357 245.515 31.7531 242.448C33.0291 238.19 32.3879 237.33 32.2391 236.625Z"
    fill="white" />
  <path
    d="M218.472 54.0337C219.246 55.1109 219.988 56.2405 220.503 57.4217C221.283 56.6935 222.053 55.9643 222.833 55.2361L218.735 53.6061L218.472 54.0337Z"
    fill="white" />
  <path
    d="M180.183 59.7005L180.257 59.1336L180.715 59.3644L180.641 59.9219L184.733 63.1721L185.845 62.4306C184.996 60.6468 184.043 58.885 183.212 57.0936C182.853 56.3217 182.482 55.53 182.167 54.7346C180.916 56.0781 179.67 57.4268 178.42 58.7796C178.923 59.1306 179.419 59.5087 179.901 59.8901L180.177 59.686L180.183 59.7005Z"
    fill="white" />
  <path
    d="M183.298 55.023C184.451 57.7679 185.869 60.4326 187.174 63.1277C187.74 64.3 188.297 65.4806 188.854 66.6519C189.715 67.4877 190.542 68.3572 191.423 69.2042C193.41 71.1151 195.899 72.7287 198.373 73.7109C199.611 74.1999 200.952 74.463 202.03 73.9404C203.095 73.4211 203.667 72.2833 203.85 71.0929C204.137 69.1906 203.423 67.1284 202.55 65.1523C201.01 63.8646 199.443 62.5928 197.883 61.3356L197.681 61.5377L197.535 62.5883L197.077 62.3575L197.22 61.2789L193.025 57.8842L191.83 58.6777L191.463 58.2939L192.923 57.3277C191.118 55.8423 189.302 54.3466 187.565 52.7616C187.067 52.7768 186.573 52.7972 186.074 52.8125C185.475 52.8362 184.87 52.8548 184.27 52.8691C184.163 52.8725 184.039 52.8833 183.898 52.9016C183.558 53.2615 183.224 53.6265 182.889 53.9821C183.016 54.3282 183.153 54.6751 183.298 55.023Z"
    fill="white" />
  <path
    d="M214.361 62.2057L214.564 62.9899C214.861 62.7138 215.162 62.4335 215.453 62.1522C215.13 62.0645 214.805 61.9674 214.481 61.8703L214.356 62.2005L214.361 62.2057Z"
    fill="white" />
  <path
    d="M226.746 51.3424C226.535 50.1961 225.809 49.0913 225.078 48.1156C225.073 48.1105 225.068 48.1053 225.062 48.1002C224.858 47.9965 224.648 47.8876 224.443 47.7839C221.497 46.236 218.682 44.3307 215.939 42.3122C214.775 42.303 213.623 42.3135 212.473 42.3427C211.096 42.3724 209.721 42.4209 208.353 42.4932C210.463 44.8054 212.66 47.0613 214.736 49.4071C215.513 49.9057 216.294 50.4002 217.071 50.9081C217.675 51.3016 218.312 51.7446 218.966 52.1708L219.06 52.0043L218.923 51.4118L219.402 51.4779L219.539 52.0704L224.248 53.8816L224.981 52.6857L225.335 52.8876C225.813 52.4397 226.292 51.9918 226.762 51.543C226.755 51.4775 226.754 51.4172 226.742 51.3466L226.746 51.3424Z"
    fill="white" />
  <path
    d="M174.126 64.3906C174.799 66.4533 176.068 68.3623 177.47 70.1177C178.93 71.9485 180.564 73.6669 182.125 75.4382L182.817 75.2802L183.09 74.8118L183.469 75.1736L183.2 75.6378L186.185 79.903L187.632 79.6394L187.867 80.1027L186.235 80.3988L185.997 80.4817C186.125 80.6935 186.258 80.9105 186.381 81.1265C186.998 82.2065 187.457 83.2895 187.808 84.3894C188.333 84.6454 188.861 84.8785 189.399 85.0709C189.754 85.1988 190.119 85.2861 190.478 85.3495C191.692 84.2385 192.91 83.1232 194.123 82.0122C193.988 80.8828 193.623 79.7258 193.24 78.6274C192.618 76.8336 191.835 75.0656 191.022 73.3178C190.028 71.186 188.925 69.0805 187.903 66.9553C187.499 66.5772 187.083 66.2117 186.651 65.8724C185.888 65.2778 185.086 64.7952 184.282 64.3031L183.93 64.634L183.79 65.6897L183.332 65.4589L183.475 64.3803L179.28 60.9856L178.085 61.779L177.718 61.3952L179.126 60.4609C179.056 60.4076 178.99 60.3501 178.919 60.2969C178.549 60.0192 178.179 59.7416 177.801 59.4818C176.505 60.881 175.209 62.2895 173.918 63.6938C173.979 63.9314 174.04 64.169 174.119 64.4084L174.126 64.3906Z"
    fill="white" />
  <path
    d="M180.875 79.6389C182.666 81.0672 184.581 82.5867 186.599 83.7459C186.222 82.7452 185.735 81.7615 185.125 80.7885L184.86 80.878L184.35 81.7487L183.971 81.3869L184.493 80.4942L181.455 76.0662L179.972 76.3355L179.736 75.8721L181.092 75.6272C180.92 75.4294 180.747 75.2317 180.57 75.0382C177.716 71.8556 174.451 68.4978 173.173 64.4902C171.681 66.1154 170.19 67.7406 168.703 69.371C168.565 69.5193 168.433 69.6728 168.29 69.8253C169.743 70.6042 171.139 71.646 172.445 72.6742C175.304 74.9265 178.028 77.3646 180.87 79.6337L180.875 79.6389Z"
    fill="white" />
  <path
    d="M219.057 56.5741C218.711 55.9747 218.338 55.3912 217.947 54.8152L217.525 54.5788L217.645 54.3869C216.616 52.9278 215.472 51.5314 214.267 50.1752C214.134 50.0925 214.005 50.0056 213.876 49.9187C210.142 47.5237 206.36 45.2074 202.549 42.9715C200.698 43.1764 198.863 43.4384 197.052 43.7584C196.041 43.9358 195.034 44.1412 194.042 44.3714C194.332 45.0069 194.623 45.6423 194.913 46.2778L195.277 45.9343L195.583 46.3583L195.198 46.7229L197.059 50.9598C197.124 51.1005 197.189 51.2413 197.254 51.382L198.782 51.4785L198.914 51.9639L197.479 51.8767C197.598 52.1386 197.722 52.4056 197.84 52.6674C197.94 52.8765 198.03 53.0845 198.129 53.2935C199.922 53.9997 201.679 54.9061 203.406 55.7816C205.366 56.773 207.319 57.7916 209.302 58.7296L209.154 58.1268L209.632 58.1836L209.783 58.7728L214.517 60.4661L215.215 59.2436L215.675 59.4931L214.886 60.8686L214.835 61.0024C215.323 61.1621 215.808 61.2937 216.297 61.4118C217.462 60.319 218.626 59.2263 219.795 58.1293C219.592 57.5719 219.339 57.0328 219.082 56.5905L219.057 56.5741Z"
    fill="white" />
  <path
    d="M213.876 62.1249L209.002 60.3251L208.288 61.5738L207.828 61.3243L208.77 59.6723L208.781 59.6825L208.842 59.559C207.159 58.7433 205.507 57.8659 203.907 57.0492C202.185 56.1695 200.44 55.2505 198.661 54.4994C199.827 57.0464 200.992 59.5933 202.158 62.1403C202.542 62.9796 202.952 63.8447 203.345 64.7172C204.985 66.0797 206.637 67.4618 208.183 68.9492C210.209 67.0576 212.238 65.1617 214.258 63.265L214.165 63.2557L213.871 62.1198L213.876 62.1249Z"
    fill="white" />
  <path
    d="M192.644 43.5283C192.593 43.579 192.542 43.6297 192.492 43.6803C192.56 43.6639 192.618 43.6465 192.681 43.6249C192.664 43.5907 192.651 43.5523 192.639 43.5232L192.644 43.5283Z"
    fill="white" />
  <path
    d="M234.437 42.0166L234.411 42.5975L233.942 42.3981L233.969 41.8265L229.687 38.8678L228.603 39.7463L228.215 39.3836L229.432 38.3932L229.619 38.1756C227.391 36.3612 225.167 34.5332 222.945 32.7146C220.167 30.4426 217.38 28.1697 214.603 25.8977C213.862 25.2915 212.635 24.2248 211.408 23.5286C210.387 24.6218 209.361 25.7098 208.34 26.8029C208.505 27.111 208.693 27.4168 208.882 27.6903C209.011 27.8699 209.148 28.041 209.287 28.2214L209.52 28.1427L209.743 27.6417L210.151 27.974L209.927 28.4657L213.238 32.518L214.634 32.1196L214.905 32.568L213.361 33.0118C215.325 35.2955 217.284 37.5834 219.247 39.867C219.708 40.4037 220.179 40.9413 220.649 41.4789C224.237 41.6645 228.061 41.9753 231.625 43.3067C232.442 43.6103 233.386 44.0237 234.085 44.672C234.873 43.9354 235.661 43.1988 236.444 42.457C235.843 42.3278 235.25 42.0975 234.666 41.8079L234.445 42.0082L234.437 42.0166Z"
    fill="white" />
  <path
    d="M203.112 36.0212C204.417 37.9661 205.931 39.7838 207.504 41.5424C209.861 41.397 212.234 41.3274 214.619 41.3284C212.917 40.0479 211.24 38.7327 209.579 37.4422C207.552 35.87 205.535 34.2664 203.435 32.798C203.291 32.6956 203.142 32.5975 202.998 32.4952C202.588 32.936 202.172 33.3716 201.762 33.8125C202.175 34.562 202.628 35.3016 203.112 36.0212Z"
    fill="white" />
  <path
    d="M193.481 43.1532C193.517 43.2308 193.558 43.3136 193.593 43.3912C196.031 42.8047 198.552 42.4118 201.093 42.1134C199.545 41.2233 197.995 40.3467 196.441 39.4837C195.408 40.5895 194.364 41.6943 193.331 42.8001C193.384 42.9212 193.433 43.0372 193.486 43.149L193.481 43.1532Z"
    fill="white" />
  <path
    d="M224.969 33.231C226.702 34.6444 228.412 36.1434 230.169 37.5638L230.364 37.3378L230.414 36.2592L230.883 36.4587L230.836 37.5653L235.224 40.6643L236.329 39.7647L236.717 40.1274L235.427 41.1707C236.06 41.4327 236.706 41.5989 237.359 41.6036C237.562 41.4108 237.761 41.2222 237.97 41.0346C238.656 40.3897 239.321 39.7242 239.976 39.0485C239.816 37.0182 237.902 34.9109 236.562 33.3513C234.573 31.0419 232.549 28.7569 230.431 26.5551C228.8 24.8648 227.107 23.2054 225.335 21.6447L225.314 22.1797L224.845 21.9803L224.872 21.4087L220.591 18.45L219.507 19.3285L219.119 18.9658L220.335 17.9754L220.477 17.8135C219.755 17.3111 219.022 16.8307 218.273 16.3765C217.422 17.1763 216.601 18.007 215.806 18.854C214.558 20.1839 213.306 21.5181 212.059 22.848C213.7 23.7984 215.225 25.2559 216.636 26.4057C219.413 28.6777 222.2 30.9506 224.977 33.2226L224.969 33.231Z"
    fill="white" />
  <path
    d="M213.164 39.0815C214.161 39.8429 215.167 40.5958 216.181 41.3403C217.256 41.3547 218.329 41.3826 219.413 41.4302C219.105 41.08 218.796 40.7299 218.493 40.3755C216.502 38.0568 214.507 35.7329 212.517 33.4142L212.03 33.6436L211.614 34.5746L211.205 34.2423L211.634 33.2893L208.265 29.0785L206.842 29.4834L206.571 29.035L208.331 28.5294C208.09 28.1951 207.867 27.8627 207.671 27.5237C206.326 28.9505 204.983 30.3866 203.638 31.8134C204.578 32.4579 205.491 33.1692 206.382 33.8413C208.656 35.5678 210.893 37.3415 213.168 39.0773L213.164 39.0815Z"
    fill="white" />
  <path
    d="M221.253 16.9136L221.303 15.835L221.772 16.0345L221.725 17.1411L226.113 20.2401L227.218 19.3405L227.606 19.7032L226.14 20.8911L226.13 20.8808L225.96 21.0306C229.867 24.4661 233.395 28.3316 236.791 32.2581C238.345 34.0565 240.116 35.9783 240.759 38.214C241.483 37.4386 242.177 36.6417 242.851 35.8243C245.432 32.6775 245.577 28.8716 242.635 24.995C241.127 23.0066 233.82 15.6999 231.827 14.1866C227.95 11.2449 224.148 11.3855 220.997 13.9709C220.3 14.5452 219.623 15.14 218.952 15.7493C219.662 16.1905 220.366 16.6587 221.058 17.1396L221.253 16.9136Z"
    fill="white" />
  <path
    d="M233.35 45.2331C232.887 44.863 232.347 44.6009 231.821 44.3865C230.203 43.7209 228.517 43.3912 226.87 43.1255C225.091 42.8374 223.312 42.642 221.535 42.5162C222.93 44.1043 224.321 45.7059 225.61 47.3576C226.325 47.7019 227.047 48.0191 227.781 48.282C228.386 48.4996 229.034 48.6844 229.675 48.7945C230.916 47.6259 232.161 46.4625 233.406 45.2897C233.386 45.2691 233.365 45.2486 233.344 45.228L233.35 45.2331Z"
    fill="white" />
  <path
    d="M227.571 50.785C228.008 50.3793 228.435 49.9726 228.872 49.5668C228.136 49.3872 227.388 49.1275 226.654 48.823C227.04 49.4542 227.371 50.1214 227.576 50.7901L227.571 50.785Z"
    fill="white" />
  <path
    d="M186.54 50.5571C186.938 50.9717 187.352 51.3695 187.785 51.7598C190.044 51.7113 192.318 51.7615 194.63 52.2368L194.62 52.2265L195.365 51.5226L193.311 46.7063L191.741 46.6104L191.609 46.125L193.692 46.2534L193.697 46.2585L193.902 46.2696C193.648 45.7118 193.388 45.1488 193.133 44.591C192.452 44.7686 191.771 44.9556 191.107 45.1674C189.508 46.8792 187.9 48.59 186.307 50.307C186.389 50.3892 186.472 50.4809 186.54 50.5571Z"
    fill="white" />
  <path
    d="M185.675 50.9899C185.407 51.2781 185.136 51.5706 184.868 51.8589C185.417 51.8441 185.962 51.8241 186.506 51.8042C186.231 51.5546 185.94 51.2802 185.675 50.9899Z"
    fill="white" />
  <path
    d="M202.582 41.9512C203.008 41.9056 203.43 41.8642 203.861 41.8237C204.701 41.7451 205.542 41.6853 206.383 41.6254C204.415 39.3876 202.561 37.036 201.118 34.4985C199.774 35.9253 198.438 37.3531 197.094 38.7799C197.844 39.2018 198.592 39.6466 199.334 40.0676C200.418 40.6802 201.5 41.3157 202.577 41.946L202.582 41.9512Z"
    fill="white" />
  <path
    d="M195.031 73.0311C193.138 71.9213 191.53 70.5574 189.983 69.0191C190.277 69.641 190.57 70.2629 190.877 70.8815C192.476 74.1569 194.167 77.5665 194.922 81.008C194.938 81.0837 194.95 81.1544 194.967 81.2301C197.152 79.2201 199.336 77.2007 201.51 75.1804C199.389 75.5019 197.017 74.1918 195.031 73.0311Z"
    fill="white" />
  <path
    d="M223.669 46.3266C222.589 45.0106 221.447 43.7255 220.31 42.4456C219.393 42.396 218.477 42.3558 217.567 42.3395C218.624 43.0929 219.684 43.8327 220.763 44.5327C221.714 45.1552 222.682 45.7608 223.674 46.3318L223.669 46.3266Z"
    fill="white" />
  <path
    d="M204.058 66.4411C204.54 67.7486 204.889 69.0659 204.897 70.3633C204.898 71.0209 204.81 71.6744 204.625 72.2811C205.6 71.3779 206.57 70.4695 207.54 69.5612C207.448 69.4686 207.351 69.3803 207.254 69.2919C206.213 68.3178 205.142 67.3731 204.058 66.4411Z"
    fill="white" />
  <path
    d="M218.522 52.9551L218.532 52.9654L218.545 52.9528C218.431 52.8813 218.318 52.8098 218.208 52.7341C217.728 52.4224 217.243 52.1055 216.763 51.7938C217.237 52.3782 217.7 52.9752 218.144 53.5797L218.527 52.9603L218.522 52.9551Z"
    fill="white" />
  <path
    d="M168.312 92.6657C168.2 92.6129 168.084 92.5643 167.972 92.5116C170.072 95.471 171.706 99.1851 171.53 102.446C173.27 100.901 175.027 99.3301 176.8 97.7422C176.04 97.2267 175.303 96.6579 174.57 96.1359C172.616 94.7376 170.426 93.6678 168.307 92.6699L168.312 92.6657Z"
    fill="white" />
  <path
    d="M188.479 87.091C188.479 87.091 188.489 87.1429 188.496 87.1667C188.869 86.8242 189.247 86.4774 189.62 86.1348C189.133 85.9845 188.642 85.7967 188.157 85.5725C188.285 86.0715 188.386 86.577 188.479 87.091Z"
    fill="white" />
  <path
    d="M174.966 86.0619C174.819 85.9731 174.675 85.8801 174.527 85.7913C175.062 86.5113 175.588 87.2397 176.105 87.9672C177.349 89.7162 178.588 91.4694 179.62 93.3271C179.84 93.724 180.082 94.1509 180.301 94.5895C181.721 93.3138 183.153 92.016 184.605 90.6972C183.828 90.3328 183.076 90.0774 182.239 89.7719C179.721 88.8454 177.304 87.4983 174.957 86.061L174.966 86.0619Z"
    fill="white" />
  <path
    d="M186.075 62.9209L184.98 63.6456C185.462 63.9344 185.941 64.2273 186.404 64.5559C186.619 64.7115 186.824 64.8662 187.03 65.0303C186.898 64.7301 186.748 64.428 186.62 64.1236C186.45 63.7177 186.257 63.3142 186.07 62.9158L186.075 62.9209Z"
    fill="white" />
  <path d="M166.807 80.06C167.839 80.6118 168.856 81.1991 169.857 81.8127L167.966 79.652L166.803 80.0642L166.807 80.06Z"
    fill="white" />
  <path
    d="M150.781 89.5658C150.944 89.9894 151.01 90.3757 151.057 90.8018C151.329 93.07 153.035 95.004 154.879 96.5025C156.018 97.4307 157.25 98.2247 158.504 98.9653L158.785 98.6228L158.797 97.5311L159.269 97.717L159.255 98.8316L163.714 101.808L164.783 100.872L165.184 101.222L164.191 102.092C165.824 102.958 167.468 103.793 169.114 104.605C169.513 104.246 169.914 103.897 170.313 103.539C170.693 101.997 170.549 100.27 170.026 98.5506C169.26 96.0249 167.87 93.826 166.237 91.7465C164.326 90.9221 162.383 90.1917 160.431 89.5623C158.135 88.8246 155.719 88.0425 153.413 87.9521C153.055 87.9397 152.542 87.9072 152.04 87.9267C151.594 88.4241 151.157 88.9225 150.715 89.4157C150.739 89.4643 150.758 89.5171 150.781 89.5658Z"
    fill="white" />
  <path
    d="M166.377 79.8316L166.29 79.7026L168.115 79.0599C167.153 77.9037 166.173 76.7551 165.176 75.6234C164.847 75.2526 164.483 74.8459 164.13 74.4172C163.128 75.5216 162.145 76.6185 161.169 77.7069C162.355 78.0332 163.525 78.4876 164.674 79.0047C165.246 79.2654 165.816 79.549 166.373 79.8358L166.377 79.8316Z"
    fill="white" />
  <path
    d="M196.904 52.8426C196.757 52.527 196.615 52.2165 196.472 51.8966L195.649 51.9584L195.23 52.3566C195.553 52.435 195.876 52.5134 196.2 52.6105C196.439 52.6806 196.673 52.7548 196.908 52.8384L196.904 52.8426Z"
    fill="white" />
  <path
    d="M158.749 80.9394C158.947 81.4407 159.216 81.912 159.521 82.3683L159.762 82.2718L159.956 81.7586L160.376 82.0689L160.186 82.5779L163.677 86.4907L165.032 86.0096L165.326 86.4463L163.8 86.9846L163.532 87.1292C164.658 88.3896 165.774 89.649 166.822 90.9664C167.471 91.2532 168.116 91.5442 168.763 91.854C170.814 92.8359 172.949 93.8586 174.842 95.2045C175.695 95.8125 176.576 96.5253 177.492 97.1211C178.193 96.4917 178.895 95.8622 179.6 95.2285C178.908 93.7196 178.004 92.259 177.055 90.8634C175.584 88.6936 174.034 86.5621 172.435 84.4583C172.258 84.348 172.089 84.2387 171.917 84.1335L171.587 85.0083L171.167 84.698L171.483 83.8681C170.203 83.0602 168.925 82.2616 167.61 81.5196C166.358 80.807 165.089 80.1529 163.779 79.6013C162.759 79.1711 161.584 78.6699 160.486 78.4726C159.861 79.1699 159.24 79.8629 158.623 80.5517C158.664 80.6855 158.709 80.815 158.759 80.9403L158.749 80.9394Z"
    fill="white" />
  <path
    d="M167.317 76.7211C167.883 77.3794 168.44 78.046 168.993 78.7169L169.153 78.6494L169.347 78.1362L169.767 78.4466L169.577 78.9556L173.068 82.8684L174.424 82.3873L174.717 82.8239L173.192 83.3622L172.845 83.5546C172.903 83.6299 172.962 83.7052 173.02 83.7804C174.992 85.0276 176.972 86.2664 179.028 87.3368C181.103 88.4091 183.284 88.9733 185.34 90.0437C186.041 89.4049 186.745 88.7619 187.459 88.1198C187.523 88.0566 187.587 88.0028 187.655 87.9447C187.597 87.5916 187.534 87.2428 187.477 86.899C187.362 86.2532 187.207 85.6265 187.025 85.0064C186.408 84.6672 185.816 84.3027 185.262 83.9513C182.157 81.9662 179.293 79.5236 176.457 77.1347C173.733 74.8402 170.926 72.2179 167.799 70.5733C167.759 70.5508 167.716 70.5326 167.677 70.5102C166.688 71.6019 165.706 72.6759 164.743 73.7423C165.548 74.7671 166.478 75.7301 167.327 76.7221L167.317 76.7211Z"
    fill="white" />
  <path
    d="M197.438 54.0167C197.144 53.9088 196.856 53.806 196.56 53.7117C194.216 52.96 191.86 52.735 189.557 52.7236C189.325 52.7191 189.095 52.7332 188.859 52.7329C190.433 54.1211 192.039 55.4663 193.649 56.7979L193.908 56.6107L193.981 56.0438L194.439 56.2746L194.365 56.8321L198.458 60.0823L199.626 59.3048L199.993 59.6886L198.681 60.5583L198.496 60.7436C199.569 61.6144 200.651 62.4861 201.72 63.3704C201.598 63.1127 201.48 62.8602 201.366 62.6035C200.058 59.7367 198.744 56.8648 197.432 54.0022L197.438 54.0167Z"
    fill="white" />
  <path
    d="M209.171 44.6904C208.517 43.9864 207.868 43.2782 207.218 42.5606C206.164 42.6272 205.112 42.7124 204.066 42.8121C206.703 44.371 209.316 45.9644 211.914 47.6028C210.993 46.622 210.068 45.6548 209.171 44.6904Z"
    fill="white" />
  <path
    d="M160.88 88.7127C162.258 89.1647 163.632 89.6625 164.993 90.2146C164.238 89.3339 163.462 88.4648 162.68 87.5906L162.531 87.6684L162.168 88.6278L161.748 88.3175L162.123 87.336L158.56 83.268L157.178 83.7557L156.884 83.319L158.647 82.6978C158.374 82.2817 158.114 81.8113 157.904 81.332C156.22 83.2113 154.567 85.0704 152.926 86.917C153.321 86.9331 153.69 86.9652 153.971 86.9931C156.236 87.1859 158.63 87.9797 160.874 88.7076L160.88 88.7127Z"
    fill="white" />
  <path
    d="M218.282 61.7202C217.629 61.6738 216.95 61.5507 216.271 61.386C215.996 61.641 215.725 61.9012 215.45 62.1563C216.382 62.4064 217.317 62.5921 218.25 62.6987C220.314 62.9272 221.438 61.608 221.144 59.5783C221.038 58.8408 220.809 58.1235 220.503 57.4216C220.262 57.6523 220.016 57.8779 219.775 58.1086C220.42 59.8907 220.512 61.8864 218.287 61.7253L218.282 61.7202Z"
    fill="white" />
  <path
    d="M225.095 54.0531C224.964 54.0911 224.828 54.1146 224.7 54.139L225.434 52.9431L225.33 52.8819C224.496 53.6648 223.657 54.452 222.823 55.2349L223.566 55.531L223.827 56.6684L224.306 56.7345L224.051 55.621L224.238 55.1672C225.714 55.1613 227.066 54.6011 227.584 53.2403C227.881 52.4595 227.816 51.6195 227.562 50.7839C227.291 51.0347 227.028 51.2865 226.757 51.5373C226.899 52.7832 226.211 53.7289 225.085 54.0522L225.095 54.0531Z"
    fill="white" />
  <path
    d="M239.97 39.6821C239.821 40.9731 238.694 41.6065 237.42 41.6049C237.401 41.603 237.379 41.6054 237.36 41.6035C237.05 41.8923 236.745 42.1768 236.436 42.4655C237.07 42.6027 237.714 42.6482 238.356 42.5407C240.39 42.2243 241.371 40.4512 240.798 38.3197C240.79 38.2865 240.773 38.2523 240.76 38.214C240.5 38.4938 240.236 38.7685 239.972 39.0432C239.988 39.2532 239.99 39.4665 239.965 39.6769L239.97 39.6821Z"
    fill="white" />
  <path
    d="M187.763 89.9973C187.719 90.4005 187.637 90.8739 187.169 90.8783C186.739 90.8772 186.173 90.4968 185.785 90.2776C185.639 90.1982 185.488 90.123 185.341 90.0436C185.099 90.2649 184.861 90.4821 184.614 90.6983C184.866 90.816 185.12 90.9431 185.38 91.094C186.087 91.4977 186.983 92.0313 187.734 91.856C189.379 91.487 188.747 88.5394 188.495 87.1668C188.215 87.426 187.935 87.6853 187.65 87.9394C187.762 88.6405 187.836 89.3378 187.763 89.9973Z"
    fill="white" />
  <path
    d="M233.972 46.0408C234.061 46.3321 234.018 46.6843 233.856 47.0203C233.611 47.533 233.218 47.9986 232.768 48.3244C231.931 48.9357 230.816 48.9915 229.69 48.8008C229.414 49.0559 229.144 49.3161 228.868 49.5711C231.123 50.1241 233.262 49.9386 234.545 47.9871C235.036 47.2394 235.242 46.2412 234.606 45.2935C234.459 45.0705 234.277 44.8718 234.079 44.69C233.863 44.8954 233.638 45.0999 233.422 45.3054C233.66 45.5097 233.892 45.792 233.973 46.0502L233.972 46.0408Z"
    fill="white" />
  <path
    d="M194.189 82.9541C194.159 85.0719 192.366 85.6622 190.486 85.341C190.198 85.6087 189.904 85.8713 189.62 86.1347C190.686 86.4676 191.745 86.5914 192.726 86.351C195.098 85.758 195.438 83.5876 194.967 81.2301C194.687 81.4894 194.412 81.7445 194.132 82.0037C194.173 82.3227 194.195 82.6398 194.194 82.9499L194.189 82.9541Z"
    fill="white" />
  <path
    d="M185.633 49.3973C185.561 49.1401 185.651 48.6489 185.818 48.3182C186.046 47.8732 186.405 47.5246 186.804 47.1984C187.957 46.2712 189.443 45.7105 190.878 45.2327C190.954 45.2078 191.026 45.1872 191.102 45.1624C191.567 44.6668 192.032 44.1712 192.496 43.6757C191.738 43.8782 190.991 44.0909 190.251 44.3369C188.772 44.8288 187.308 45.4288 186.109 46.3606C185.314 46.9808 184.567 47.8512 184.618 49.0139C184.651 49.721 185.111 50.3826 185.67 50.9753C185.884 50.7512 186.088 50.5261 186.297 50.2968C185.997 49.9798 185.693 49.6255 185.627 49.3828L185.633 49.3973Z"
    fill="white" />
  <path
    d="M201.647 75.1662C203.207 74.8814 204.184 73.7191 204.625 72.2811C203.586 73.2475 202.548 74.2139 201.509 75.1803C201.555 75.1756 201.602 75.1802 201.647 75.1662Z"
    fill="white" />
  <path
    d="M192.647 39.3193C193.03 37.8247 194.756 38.5567 195.903 39.1893C196.084 39.286 196.26 39.3869 196.437 39.4879C196.66 39.2553 196.877 39.0176 197.099 38.785C196.506 38.4528 195.904 38.129 195.293 37.8553C194.3 37.4092 193.21 37.2129 192.413 37.7633C190.781 38.9022 191.833 41.7065 192.648 43.524C192.874 43.2872 193.1 43.0411 193.327 42.8043C192.84 41.6863 192.376 40.3713 192.647 39.3193Z"
    fill="white" />
  <path
    d="M150.56 88.3581C150.848 88.0488 151.441 87.9502 152.044 87.9223C152.34 87.5858 152.64 87.2545 152.931 86.9223C151.545 86.8585 149.74 86.9568 149.46 88.1005C149.291 88.783 149.829 89.531 150.005 90.2292C150.242 89.9611 150.484 89.6888 150.721 89.4206C150.555 89.0522 150.309 88.6295 150.565 88.3632L150.56 88.3581Z"
    fill="white" />
  <path
    d="M164.47 73.4093C163.673 72.3345 163.146 70.9485 164.242 70.2332C165.207 69.6069 166.527 69.9326 167.668 70.5091C167.877 70.2798 168.085 70.0505 168.294 69.8212C168.118 69.7296 167.941 69.6194 167.761 69.532C165.966 68.6729 163.563 68.5264 162.78 70.2962C162.18 71.6674 163.09 73.1332 164.129 74.408C164.329 74.1872 164.53 73.9663 164.734 73.7412C164.644 73.6257 164.555 73.5196 164.464 73.4042L164.47 73.4093Z"
    fill="white" />
  <path
    d="M159.797 78.3904C160.015 78.3982 160.246 78.4351 160.472 78.4761C160.701 78.2164 160.935 77.9618 161.164 77.7021C161.059 77.6732 160.959 77.64 160.859 77.6162C159.804 77.3446 158.667 77.2269 157.946 77.9378C157.129 78.7548 157.346 80.1008 157.901 81.346C158.134 81.0821 158.372 80.8233 158.605 80.5594C158.267 79.4375 158.412 78.336 159.793 78.3946L159.797 78.3904Z"
    fill="white" />
  <path
    d="M169.785 104.931C169.557 104.82 169.332 104.705 169.113 104.595C168.866 104.811 168.624 105.033 168.381 105.245C168.917 105.511 169.448 105.782 169.983 106.038C170.207 106.144 170.421 106.013 170.516 105.855C171.159 104.822 171.465 103.662 171.529 102.446C171.125 102.809 170.717 103.166 170.317 103.525C170.199 104.013 170.024 104.487 169.789 104.926L169.785 104.931Z"
    fill="white" />
  <path
    d="M182.675 53.3634C182.633 53.2203 182.615 53.0426 182.569 52.9037C182.905 53.0205 183.458 52.9505 183.898 52.9016C184.224 52.5544 184.542 52.2062 184.868 51.859C184.148 51.88 183.428 51.9009 182.706 51.9032C182.201 51.904 181.688 51.8205 181.567 52.3734C181.497 52.6906 181.616 53.096 181.708 53.4248C181.831 53.8676 181.996 54.31 182.174 54.7491C182.412 54.4903 182.651 54.2409 182.889 53.9821C182.813 53.7801 182.737 53.5687 182.675 53.3634Z"
    fill="white" />
  <path
    d="M201.18 32.6987C201.064 32.465 200.962 32.2279 200.859 31.9908C200.775 31.7972 200.677 31.3197 200.523 31.1655C200.551 31.1683 200.584 31.1762 200.608 31.1832C200.851 31.2584 201.093 31.3565 201.322 31.4765C201.897 31.7653 202.457 32.1312 202.999 32.5046C203.213 32.2804 203.421 32.0511 203.635 31.827C202.964 31.3666 202.273 30.9367 201.567 30.584C201.094 30.3471 200.522 30.0865 200.04 30.1775C198.821 30.3989 199.865 32.0494 200.251 32.8564C200.515 33.4152 200.81 33.9632 201.123 34.5037C201.341 34.2753 201.554 34.0418 201.772 33.8134C201.569 33.4413 201.37 33.0742 201.189 32.6997L201.18 32.6987Z"
    fill="white" />
  <path d="M214.649 63.3176L214.565 62.9898C214.468 63.0866 214.366 63.1784 214.264 63.2701L214.649 63.3176Z"
    fill="white" />
  <path
    d="M216.33 14.2477C215.725 13.9375 215.315 14.7488 215.925 15.0641C216.721 15.472 217.501 15.9154 218.265 16.3757C218.489 16.1618 218.723 15.9582 218.952 15.7495C218.098 15.2154 217.224 14.7117 216.326 14.252L216.33 14.2477Z"
    fill="white" />
  <path
    d="M208.074 23.5212C208.817 22.4699 210.119 22.8031 211.41 23.5381C211.624 23.3139 211.837 23.0804 212.051 22.8563C211.466 22.5156 210.864 22.2428 210.245 22.0701C208.055 21.4633 206.526 22.858 206.755 25.0154C206.846 25.8811 207.193 26.7167 207.662 27.5227C207.888 27.286 208.11 27.044 208.332 26.8115C207.74 25.6968 207.419 24.4332 208.061 23.5245L208.074 23.5212Z"
    fill="white" />
  <path
    d="M208.881 69.6295C208.655 69.4033 208.42 69.1854 208.185 68.9582C207.969 69.1637 207.752 69.3598 207.537 69.5652C208.073 70.0677 208.611 70.5889 209.07 71.1579C209.186 71.2991 209.368 71.5903 209.432 71.6801C209.443 71.6904 209.443 71.6904 209.453 71.7007C209.203 72.074 209.708 72.7725 210.143 72.4917C211.162 71.8428 209.494 70.2507 208.881 69.6295Z"
    fill="white" />
  <path
    d="M179.657 95.3873C180.08 96.3323 181.047 98.7484 179.223 98.053C178.627 97.827 178.048 97.5008 177.479 97.134C177.254 97.3385 177.023 97.5379 176.798 97.7424C177.503 98.22 178.232 98.6536 178.994 98.961C180.19 99.4411 181.273 99.1505 181.306 97.8526C181.332 96.8086 180.86 95.6551 180.31 94.5909C180.068 94.8122 179.825 95.0242 179.587 95.2414C179.611 95.29 179.634 95.3386 179.663 95.3924L179.657 95.3873Z"
    fill="white" />
  <path
    d="M173.608 61.1856C173.611 60.2366 173.667 58.4316 174.674 58.1243C175.245 57.9542 176.028 58.3747 176.578 58.6887C177 58.9251 177.405 59.1877 177.804 59.4681C178.008 59.243 178.222 59.0189 178.427 58.7938C177.839 58.3835 177.246 58.0003 176.621 57.6788C175.377 57.0411 174.088 56.7972 173.351 57.8537C172.229 59.4694 172.473 62.1562 173.097 64.2465C173.119 64.3274 173.15 64.4093 173.182 64.4911C173.433 64.2197 173.674 63.9474 173.925 63.6759C173.717 62.8449 173.611 62.0054 173.608 61.1856Z"
    fill="white" />
  <path
    d="M80.4248 167.008C83.4343 169.891 87.3978 173.147 91.4346 174.859C104.978 161.994 118.263 149.799 129.28 139.883C143.357 127.215 155.551 116.615 168.372 105.244C166.726 104.432 165.087 103.593 163.459 102.732L162.973 103.197L162.966 103.78L162.494 103.594L162.501 103.021L158.153 100.18L157.11 101.1L156.71 100.75L157.889 99.7143L157.923 99.6806C157.006 99.1264 156.111 98.5511 155.247 97.9141C153.503 96.634 151.782 95.0644 150.807 93.1291C150.329 92.1879 150.199 91.3414 150.033 90.3756C150.023 90.3237 150.009 90.276 149.995 90.2283C139.218 102.405 129.014 114.12 116.934 127.537C106.622 138.991 93.8494 152.905 80.4196 167.003L80.4248 167.008Z"
    fill="white" />
  <path
    d="M52.6859 213.186C53.2812 212.56 53.89 211.93 54.4946 211.305C51.4966 207.886 49.2601 203.602 47.7681 200.148C45.864 202.001 43.9748 203.818 42.1006 205.599C45.0167 208.381 48.8062 211.471 52.6859 213.186Z"
    fill="white" />
  <path
    d="M73.5635 192.113C75.0446 190.663 76.53 189.209 78.0204 187.759C76.4795 186.698 75.0242 185.429 73.6873 184.092C71.9184 182.323 70.3653 180.441 69.1113 178.774C67.7841 180.143 66.4509 181.497 65.1227 182.856C67.2117 185.981 70.1665 189.71 73.5687 192.119L73.5635 192.113Z"
    fill="white" />
  <path
    d="M61.847 203.789C58.8962 200.425 56.6614 196.253 55.1549 192.885C52.8418 195.188 50.5384 197.45 48.2636 199.674C49.735 203.108 51.9636 207.451 54.9293 210.871C57.1878 208.53 59.4954 206.171 61.847 203.789Z"
    fill="white" />
  <path
    d="M78.4675 187.322C79.8695 185.961 81.2758 184.596 82.6871 183.236C79.4108 179.859 76.8099 175.683 75.1152 172.564C73.2644 174.487 71.4041 176.409 69.543 178.322C71.7508 181.246 74.9105 184.894 78.4717 187.318L78.4675 187.322Z"
    fill="white" />
  <path
    d="M64.667 183.311C63.0398 184.969 61.4117 186.617 59.7912 188.248C62.48 190.887 66.0422 193.927 69.7632 195.862C70.8667 194.758 71.9889 193.657 73.1068 192.559C71.9853 191.758 70.911 190.827 69.9083 189.824C67.8464 187.762 66.0708 185.414 64.6628 183.315L64.667 183.311Z"
    fill="white" />
  <path
    d="M55.6348 192.405C57.1207 195.753 59.3475 199.984 62.2712 203.354C64.5816 201.023 66.9275 198.677 69.3006 196.325C65.5469 194.34 62.0188 191.317 59.3547 188.695C58.108 189.942 56.8698 191.18 55.6357 192.414L55.6348 192.405Z"
    fill="white" />
  <path
    d="M36.8658 230.343C38.4752 228.507 40.1507 226.636 41.8963 224.726C38.3098 220.744 35.6184 215.938 34.1678 213.039C31.6474 215.353 29.1874 217.577 26.7944 219.682C28.9259 222.723 32.5991 227.39 36.8658 230.343Z"
    fill="white" />
  <path
    d="M47.4855 218.674C49.0303 217.026 50.6192 215.355 52.23 213.673C48.3106 211.884 44.5542 208.802 41.6579 206.032C40.5666 207.072 39.4786 208.098 38.4032 209.112C40.6501 212.428 43.8344 216.371 47.4855 218.674Z"
    fill="white" />
  <path
    d="M36.4548 230.816C34.9522 229.769 33.5226 228.524 32.2166 227.218C29.769 224.771 27.735 222.105 26.3311 220.095C25.7434 220.61 25.1556 221.126 24.5805 221.629C22.6157 223.337 21.7622 223.974 21.2074 224.169C22.6324 226.066 24.4076 228.178 26.5588 230.254C28.7204 232.339 30.8316 234.105 32.6834 235.544C32.9105 234.988 33.57 234.123 35.1987 232.247C35.6101 231.774 36.0341 231.289 36.4591 230.812L36.4548 230.816Z"
    fill="white" />
  <path
    d="M75.5673 172.081C77.2405 175.17 79.8624 179.417 83.1303 182.803C85.7373 180.289 88.3462 177.793 90.9528 175.32C86.8847 173.526 82.9717 170.313 79.9972 167.456C78.5254 169 77.0536 170.544 75.5725 172.087L75.5673 172.081Z"
    fill="white" />
  <path
    d="M42.3083 224.263C43.8494 222.578 45.4336 220.86 47.0575 219.123C45.6385 218.217 44.2949 217.093 43.0506 215.849C41.0555 213.853 39.3197 211.579 37.9308 209.533C36.8208 210.571 35.7276 211.592 34.6326 212.594C36.0314 215.391 38.7335 220.258 42.3031 224.257L42.3083 224.263Z"
    fill="white" />
</svg>