<svg width="55" height="55" viewBox="0 0 256 256" fill="none" xmlns="http://www.w3.org/2000/svg">
  <g clip-path="url(#clip0_268_3427)">
    <g clip-path="url(#clip1_268_3427)">
      <path
        d="M81.0092 161.145C81.0092 161.145 82.3984 164.336 86.9692 168.907C91.5401 173.477 95.4943 175.531 95.4943 175.531L112.513 156.101C113.33 155.155 114.396 154.46 115.576 154.096L125.81 150.926C128.045 150.231 129.781 148.383 130.324 146.116L134.43 128.938C134.972 126.708 136.66 124.872 138.847 124.149L152.523 119.67C154.633 118.988 156.289 117.258 156.885 115.123L160.954 100.522C161.605 98.1832 163.532 96.3487 165.896 95.8022C168.983 95.1074 173.4 94.1393 177.053 93.4165C179.385 92.9571 181.327 91.237 182.082 88.9622C183.378 85.0515 184.83 80.4654 185.814 77.3309C186.53 75.0573 188.454 73.2995 190.778 72.8117L201.827 70.4774C204.218 69.9778 206.194 68.1322 206.855 65.7646L210.095 54.2739C210.334 53.4043 210.773 52.576 211.351 51.8677C211.351 51.8677 230.378 33.3968 233.572 25.345C219 35.5408 206.144 40.9982 206.144 40.9982C204.721 41.7533 203.598 43.0061 203.022 44.5091L198.085 57.2715C197.27 59.3664 195.427 60.9492 193.249 61.4035L181.968 63.7837C179.548 64.2938 177.562 66.1685 176.928 68.5638L173.714 80.4559C173.049 82.9193 170.986 84.8157 168.491 85.2708L157.559 87.247C155.026 87.7034 152.931 89.6678 152.304 92.1683L148.715 106.438C148.11 108.823 146.191 110.724 143.797 111.3L129.168 114.766C126.958 115.289 125.132 116.948 124.401 119.107L119.052 134.803C118.321 136.924 116.544 138.572 114.381 139.121L103.113 141.989C102.07 142.253 101.096 142.783 100.286 143.518L81.0191 161.135L81.0092 161.145Z"
        fill="white" />
      <path
        d="M53.3732 217.53C54.6452 216.853 56.034 216.035 57.4875 215.103L47.6098 191.387C46.3471 192.748 45.2062 194.113 44.1844 195.457L53.3732 217.53Z"
        fill="white" />
      <path
        d="M43.1573 196.856C37.8146 204.258 35.9941 210.371 35.9941 210.371L46.3402 220.717C46.3402 220.717 48.6503 219.945 52.0587 218.224L43.1573 196.856Z"
        fill="white" />
      <path
        d="M70.0036 176.361C70.0036 176.361 59.4324 179.489 49.2724 189.649C49.0835 189.838 48.9045 190.017 48.7256 190.196L58.7396 214.247C61.4305 212.425 64.2955 210.18 67.0493 207.426C76.6924 197.783 80.3372 186.695 80.3372 186.695C80.3372 186.695 77.4164 184.53 74.7864 181.9C72.1565 179.27 69.9912 176.349 69.9912 176.349L70.0036 176.361Z"
        fill="white" />
      <path
        d="M42.2763 234.109L26.6566 234.595C24.2925 234.676 22.0099 232.393 22.079 230.017L22.5616 214.474C22.6178 212.681 24.0541 211.493 25.9138 211.742L34.299 212.314L44.5707 222.585L45.0057 230.834C45.2052 232.644 44.0345 234.038 42.2639 234.097L42.2763 234.109Z"
        fill="white" />
      <path
        d="M85.5253 171.086C61.2727 146.834 62.0706 116.933 60.6812 115.543C52.9774 107.84 44.5868 148.36 76.419 180.192C108.251 212.025 149.206 204.068 141.068 195.93C138.723 193.586 109.778 195.339 85.5253 171.086Z"
        fill="white" />
    </g>
  </g>
  <defs>
    <clipPath id="clip0_268_3427">
      <rect width="256" height="256" fill="white" />
    </clipPath>
    <clipPath id="clip1_268_3427">
      <rect width="296.113" height="119.228" fill="white" transform="translate(-18.6816 191.086) rotate(-45)" />
    </clipPath>
  </defs>
</svg>