<svg width="55" height="55" viewBox="0 0 256 256" fill="none" xmlns="http://www.w3.org/2000/svg">
  <g clip-path="url(#clip0_268_3430)">
    <path
      d="M47.7717 206.762C45.1624 214.938 41.9527 222.322 37.1101 228.927C35.6006 230.986 34.1361 231.284 32.0711 229.084C30.0959 226.985 28.1263 224.814 25.9547 222.934C23.4296 220.745 24.7146 219.225 26.4036 217.861C29.3552 215.471 32.6322 213.518 36.0159 211.773C39.6408 209.899 43.2601 207.985 47.7717 206.762Z"
      fill="white" />
    <path
      d="M44.9212 158.897C44.4049 163.599 45.3981 168.038 47.7269 172.162C50.4428 176.977 78.2358 204.77 83.0503 207.486C87.1746 209.815 91.6188 210.802 96.3155 210.292C102.078 209.657 106.427 205.241 107.067 199.518C107.291 197.554 107.162 195.618 105.002 194.67C102.572 193.609 100.373 194.125 98.5657 196.022C96.9216 197.745 97.6174 199.428 98.6723 201.212C99.486 202.587 101.669 203.917 100.883 205.286C99.8956 207.014 97.3873 206.975 95.3784 207.144C89.2621 207.649 84.5373 205.022 80.5813 200.584C78.5556 198.087 76.4906 195.618 74.493 193.104C76.3391 191.056 77.9384 188.491 77.6522 187.386C76.6926 183.643 72.2428 179.71 73.3763 180.832C74.5098 181.954 71.4292 178.29 67.8211 177.151C66.4968 176.736 65.3746 177.274 64.4206 178.127C63.5509 178.907 62.6979 179.704 61.8562 180.512C59.4265 178.576 57.0417 176.584 54.6288 174.631C50.1846 170.67 47.5641 165.951 48.0692 159.834C48.2319 157.831 48.1982 155.317 49.9265 154.33C51.3013 153.55 52.6368 155.727 54.0004 156.54C55.7791 157.601 57.4682 158.291 59.1908 156.647C61.0819 154.835 61.6037 152.641 60.5432 150.211C59.6005 148.045 57.6646 147.927 55.695 148.146C49.9714 148.786 45.5553 153.134 44.9212 158.897Z"
      fill="white" />
    <path
      d="M10.0748 235.997C8.94694 239.145 8.32969 242.478 7.43749 245.716C7.16815 246.692 7.17937 247.321 7.60022 247.573C7.85273 247.994 8.4812 248.005 9.45758 247.736C12.6953 246.844 16.0229 246.232 19.1764 245.099C25.0684 242.989 26.2018 243.943 21.5388 238.135C20.7476 237.142 18.0317 234.426 17.0441 233.64C11.2364 228.977 12.1959 230.105 10.0804 236.003L10.0748 235.997Z"
      fill="white" />
    <path
      d="M51.8511 192.739C51.6491 196.645 50.7849 200.449 49.8366 204.585C49.8141 204.686 49.7805 204.764 49.96 204.708C54.1012 203.754 57.9001 202.896 61.8056 202.694C63.663 202.598 64.5271 201.072 65.1836 199.765C65.7897 198.553 65.077 198.255 63.792 196.925C62.9447 196.044 61.8224 194.944 60.7114 193.845C59.6116 192.734 58.5173 191.617 57.6308 190.764C56.3009 189.479 55.9922 188.766 54.7914 189.372C53.4784 190.035 51.9577 190.893 51.8623 192.75L51.8511 192.739Z"
      fill="white" />
    <path
      d="M41.7966 224.982C44.26 219.343 46.9759 213.832 48.7322 207.924C48.9623 207.144 49.3551 206.504 50.2304 206.268C53.7768 205.303 57.3232 204.36 61.7169 204.242C55.4939 212.115 48.9679 218.798 41.7854 224.982L41.7966 224.982Z"
      fill="white" />
    <path
      d="M29.6423 212.828C35.2817 210.364 40.792 207.649 46.7008 205.892C47.4807 205.662 48.1204 205.269 48.3561 204.394C49.3213 200.848 50.264 197.301 50.3818 192.908C42.5091 199.131 35.826 205.657 29.6423 212.839L29.6423 212.828Z"
      fill="white" />
    <path
      d="M20.0071 227.76C18.6492 226.738 18.0095 225.807 19.3899 224.617C20.7254 223.473 21.5558 220.252 23.9968 222.233C27.2626 224.881 30.2366 227.956 32.9637 231.166C34.6752 233.18 32.3801 234.342 31.0615 235.369C29.8719 236.289 28.5251 237.378 27.3243 235.099C26.7127 233.949 25.596 233.068 24.7038 232.064C24.6533 232.114 21.6849 229.022 20.0071 227.76Z"
      fill="white" />
    <path
      d="M13.9526 230.414C16.0008 231.665 17.9704 233.062 19.7155 234.729C19.8445 234.858 19.968 234.981 20.0971 235.111C20.2261 235.24 20.3496 235.363 20.4786 235.492C22.1508 237.243 23.5424 239.207 24.7938 241.255C25.8655 243.011 26.6567 242.344 27.5938 241.317C29.0135 239.774 28.559 238.23 27.5433 236.71C25.8375 234.173 21.0229 229.359 18.4866 227.653C16.9771 226.637 15.4284 226.189 13.8797 227.603C12.8584 228.545 12.1851 229.331 13.9414 230.403L13.9526 230.414Z"
      fill="white" />
    <path
      d="M63.5397 191.432C64.8023 192.694 66.0199 194.013 67.3498 195.197C68.1186 195.887 68.5787 196.426 67.838 197.413C66.9683 198.575 66.3286 197.834 65.6945 197.2C62.9169 194.445 60.1505 191.69 57.4009 188.907C56.8005 188.306 55.9027 187.622 57.0698 186.746C57.9115 186.118 58.5849 186.252 59.3368 187.117C60.6555 188.626 62.1481 189.984 63.5678 191.404C63.5566 191.415 63.5509 191.421 63.5397 191.432Z"
      fill="white" />
    <path
      d="M225.512 20.5832C212.095 33.5847 68.7922 174.766 67.6306 175.883C71.1209 175.501 79.6165 182.762 78.5222 187.493C79.7848 186.197 219.193 44.7008 234.411 29.4828C249.629 14.2648 248.26 8.36171 247.306 7.419C246.548 6.67269 239.041 7.45828 225.506 20.5776L225.512 20.5832ZM154.214 101.387L81.3616 174.284L80.5199 173.442C122.908 131.469 184.257 68.8633 226.69 28.1137C206.315 49.723 175.447 80.0074 154.214 101.387Z"
      fill="white" />
  </g>
  <defs>
    <clipPath id="clip0_268_3430">
      <rect width="256" height="256" fill="white" />
    </clipPath>
  </defs>
</svg>