<svg width="55" height="55" viewBox="0 0 256 256" fill="none" xmlns="http://www.w3.org/2000/svg">
  <path
    d="M234.66 46.3601C236.52 38.7901 227.47 29.3601 227.47 29.3601C227.47 29.3601 217.72 20.5901 210.23 23.4401C224.72 31.4501 231.51 40.3301 234.66 46.3601Z"
    fill="white" />
  <path
    d="M232.151 50.46L233.151 49.44C233.511 48.98 233.811 48.5 234.061 48C231.181 42.08 224.401 32.51 208.901 24.09C208.531 24.31 208.171 24.56 207.821 24.85L206.561 26.17C222.341 34.73 229.221 44.35 232.161 50.45L232.151 50.46Z"
    fill="white" />
  <path
    d="M49.7806 230.07L48.0106 228.35L34.4806 215.21L34.4706 215.22L32.7006 213.5C31.0306 211.88 28.3706 211.92 26.7606 213.58L25.8106 214.56C23.8406 216.59 23.8806 219.85 25.9206 221.82L34.2006 229.86L41.6806 237.11C43.7106 239.08 46.9506 239.04 48.9306 237L49.8806 236.02C51.5006 234.35 51.4606 231.69 49.7906 230.07H49.7806Z"
    fill="white" />
  <path
    d="M231.2 51.42C228.4 45.5 221.61 35.68 205.68 27.08L146.01 89.33C146.01 89.33 140.96 94.31 137.3 104.27C133.64 114.22 127.11 121.4 127.11 121.4L117.83 131.99L103.55 147.44C103.55 147.44 103.29 147.76 102.75 148.4L112.77 158.13C113.39 157.57 113.7 157.3 113.7 157.3L130 141.27L139.04 132.98C139.04 132.98 146.01 126.23 155.87 122.28C165.71 118.32 170.53 113.14 170.53 113.14L231.21 51.43L231.2 51.42Z"
    fill="white" />
  <path
    d="M80.9512 171.73L90.0912 180.6C90.8312 179.82 91.1312 179.5 91.8312 178.77L82.7212 169.92C82.0112 170.65 81.7012 170.96 80.9512 171.72V171.73Z"
    fill="white" />
  <path
    d="M51.2105 200.59C48.3505 203.27 45.3605 206.04 42.2305 208.93L54.0605 220.42C56.8505 217.2 59.5405 214.13 62.1305 211.2L51.2105 200.6V200.59Z"
    fill="white" />
  <path
    d="M65.3998 207.5L54.7998 197.21C53.9098 198.05 53.0098 198.9 52.0898 199.76L62.9298 210.28C63.7598 209.34 64.5898 208.41 65.3998 207.49V207.5Z"
    fill="white" />
  <path
    d="M74.7409 197.11L64.9109 187.57C63.8709 188.58 62.8009 189.6 61.7109 190.65L71.7609 200.41C72.7709 199.29 73.7709 198.19 74.7409 197.12V197.11Z"
    fill="white" />
  <path
    d="M88.0705 164.42C86.8005 165.75 85.0105 167.59 83.5605 169.07L92.6705 177.91C94.1105 176.42 95.9006 174.58 97.1906 173.27L88.0705 164.42Z"
    fill="white" />
  <path
    d="M97.9403 153.91C96.6103 155.37 93.3603 158.8 91.5703 160.71L100.79 169.66C102.64 167.81 105.97 164.47 107.39 163.09L97.9403 153.91Z"
    fill="white" />
  <path
    d="M66.1999 206.6C67.8199 204.78 69.4099 203 70.9399 201.3L60.8299 191.48C59.1699 193.06 57.4399 194.71 55.6699 196.38L66.1899 206.6H66.1999Z"
    fill="white" />
  <path
    d="M90.7504 161.59C89.9104 162.48 89.8504 162.57 88.9004 163.55L98.0304 172.41C98.9904 171.44 99.0704 171.38 99.9404 170.51L90.7504 161.59Z"
    fill="white" />
  <path
    d="M111.87 158.94L101.96 149.32C101.04 150.38 100.55 151.04 98.7598 153.02L108.27 162.25C110.2 160.4 110.84 159.89 111.87 158.94Z"
    fill="white" />
  <path
    d="M80.1011 172.59C77.7511 174.96 80.8711 171.66 78.1211 174.37L87.5311 183.51C90.1611 180.68 86.9511 183.9 89.2511 181.48L80.0911 172.59H80.1011Z"
    fill="white" />
  <path
    d="M41.3405 209.75C41.3405 209.75 40.4005 209 39.0305 210.41C38.1105 211.36 36.3505 213.21 35.3105 214.32L48.8705 227.48C49.9405 226.41 51.7505 224.59 52.6805 223.64C54.0505 222.23 53.2805 221.33 53.2805 221.33L41.3505 209.75H41.3405Z"
    fill="white" />
  <path
    d="M65.7705 186.73L75.5505 196.22C77.4605 194.13 84.9505 186.29 86.7205 184.39L77.2705 175.21C75.4205 177.03 67.8205 184.76 65.7805 186.73H65.7705Z"
    fill="white" />
</svg>