<svg width="55" height="55" viewBox="0 0 256 256" fill="none" xmlns="http://www.w3.org/2000/svg">
  <path
    d="M40.6846 151.081C42.2646 152.861 44.2646 154.681 46.7846 156.421L59.5646 143.201C57.8746 141.111 55.7546 139.271 53.5946 137.721L40.6846 151.081Z"
    fill="white" />
  <path
    d="M68.0243 172.041L76.8143 162.951C74.7543 161.841 72.4443 160.431 70.2843 158.751L62.9043 166.391C65.1343 168.361 66.8043 170.311 68.0243 172.041Z"
    fill="white" />
  <path
    d="M69.4943 158.121C67.5443 156.521 65.7543 154.701 64.4343 152.681L55.9443 161.471C58.3643 162.841 60.4143 164.281 62.1443 165.731L69.5043 158.121H69.4943Z"
    fill="white" />
  <path
    d="M52.7739 137.141C49.3739 134.821 46.0039 133.211 44.1939 132.411L35.2539 141.661C35.7939 143.471 37.0839 146.751 40.0339 150.311L52.7739 137.131V137.141Z"
    fill="white" />
  <path
    d="M55.0338 160.971L63.8938 151.801C63.3538 150.851 62.9138 149.861 62.6238 148.831C62.1238 147.101 61.2638 145.491 60.1838 144.001L47.6338 156.981C49.1238 157.941 50.7638 158.871 52.6138 159.741C53.4638 160.141 54.2638 160.551 55.0338 160.971Z"
    fill="white" />
  <path
    d="M127.274 143.351H127.284L119.344 135.511C115.254 132.011 106.304 142.071 106.304 142.071L83.2339 165.931C83.2339 165.931 80.8739 165.061 77.7339 163.431L68.5939 172.881C70.7139 176.121 71.2639 178.451 71.2639 178.451L68.0539 181.771C66.4839 183.401 66.5239 185.991 68.1539 187.561L68.4139 187.811L68.3739 187.851L76.7339 195.631L76.7539 195.611L77.1039 195.951C78.5739 197.371 80.9139 197.331 82.3339 195.861L120.654 156.221C130.694 145.831 127.254 143.361 127.254 143.361L127.274 143.351Z"
    fill="white" />
  <path
    d="M31.464 143.741L34.894 140.191C34.894 140.191 34.914 140.311 34.954 140.521L43.204 131.991C42.964 131.891 42.834 131.841 42.834 131.841L46.134 128.431L45.764 128.071C41.744 124.181 35.334 124.291 31.444 128.311L30.884 128.891C26.944 132.961 27.054 139.461 31.134 143.391L31.484 143.731L31.464 143.741Z"
    fill="white" />
  <path
    d="M230.794 28.8008L230.424 28.4408C228.384 26.4708 225.144 26.5308 223.174 28.5608L120.964 134.291L128.684 141.901L230.934 36.0508C232.904 34.0108 232.844 30.7708 230.814 28.8008H230.794Z"
    fill="white" />
  <path
    d="M66.9839 189.291L37.0639 220.241C35.1039 222.271 35.1539 225.511 37.1839 227.471L38.1239 228.381C40.1139 230.301 43.2739 230.251 45.1939 228.261L75.3439 197.071L66.9839 189.291Z"
    fill="white" />
</svg>