<svg width="55" height="55" viewBox="0 0 256 256" fill="none" xmlns="http://www.w3.org/2000/svg">
  <path fill-rule="evenodd" clip-rule="evenodd"
    d="M74.5744 168.87L76.5344 170.9V170.91L94.0744 189.01C93.4144 192.73 83.4044 194.57 83.4044 194.57C66.6772 198.863 54.4487 222.57 52.2171 226.897L52.217 226.897C52.146 227.035 52.085 227.153 52.0344 227.25C49.3144 232.46 37.6544 241.22 29.2444 232.54C19.6944 222.68 29.2444 214.05 29.2444 214.05L74.5744 168.87ZM89.6844 190.8L89.7644 190.72C89.7515 190.714 89.7428 190.703 89.7328 190.691C89.7274 190.684 89.7215 190.677 89.7144 190.67C85.4444 186.17 76.8544 177.31 72.5344 172.93C74.0248 175.919 76.5644 178.667 78.9474 181.246L78.9476 181.246C79.3947 181.73 79.8363 182.208 80.2644 182.68C82.3344 184.84 84.8044 187.05 87.1344 188.96C87.4274 189.169 87.7188 189.387 88.0116 189.606L88.0117 189.606C88.4885 189.963 88.9688 190.322 89.4644 190.65C89.5044 190.675 89.5394 190.7 89.5744 190.725L89.5747 190.725C89.6096 190.75 89.6445 190.775 89.6844 190.8ZM38.5244 227.49C41.0097 227.49 43.0244 225.475 43.0244 222.99C43.0244 220.505 41.0097 218.49 38.5244 218.49C36.0392 218.49 34.0244 220.505 34.0244 222.99C34.0244 225.475 36.0392 227.49 38.5244 227.49Z"
    fill="white" />
  <path
    d="M227.234 20.01C227.234 20.01 205.604 26.79 192.504 40.7C180.814 53.12 187.614 45.67 170.794 69.82C163.214 80.71 149.344 97.17 129.884 117.53C109.544 138.8 84.8541 162.84 78.2441 169.24L92.8341 184.3L93.9741 183.17C94.8241 182.32 96.2041 182.33 97.0441 183.2L97.3741 183.54L170.574 113.25C170.574 113.25 208.434 78.97 211.704 75.54C214.964 72.11 242.334 52.53 227.244 20L227.234 20.01ZM207.124 71.8C202.594 76.21 195.414 82.63 190.734 87C165.364 110.47 133.774 139.23 108.824 162.95C127.894 144.51 154.224 118.87 173.304 101.06C184.184 90.89 194.424 79.72 205.524 69.82C213.524 60.99 224.274 51.49 225.314 38.22C225.264 36.38 225.014 34.5 224.274 32.81L224.404 32.74C225.184 34.46 225.454 36.35 225.534 38.21C225.474 51.62 215.944 62.62 207.114 71.79L207.124 71.8Z"
    fill="white" />
</svg>