<svg width="55" height="55" viewBox="0 0 256 256" fill="none" xmlns="http://www.w3.org/2000/svg">
  <path
    d="M60.14 202.64L56.57 205.35C56.78 206.98 56.89 209.77 56.04 213.2C56.74 213.43 57.47 213.7 58.21 214.01L60.64 212.17C61.61 207.72 60.83 204.42 60.14 202.63V202.64Z"
    fill="white" />
  <path
    d="M55.0798 212.92C55.7698 210.05 55.7798 207.65 55.6398 206.07L47.7598 212.07C49.6698 211.97 52.1898 212.12 55.0898 212.92H55.0798Z"
    fill="white" />
  <path
    d="M64.3701 209.36L72.4401 203.25C72.1101 199.34 70.7301 196.71 69.7501 195.32L64.8601 199.04C65.3301 200.49 66.1501 204.27 64.3701 209.36Z"
    fill="white" />
  <path
    d="M54.8204 213.89C51.1604 212.88 48.1104 212.97 46.2304 213.22L39.7404 218.16C39.8604 218.87 39.6604 219.83 38.6204 220.82C39.1204 220.93 39.3504 221.2 39.4604 221.42C39.6704 221.83 39.6004 222.37 39.2604 223.06C39.0804 223.42 38.7504 223.8 38.3404 224.17C38.5104 224.24 38.6604 224.35 38.7704 224.51C39.4004 225.37 39.2904 225.72 38.6504 226.31C38.5304 226.42 38.3804 226.56 38.2104 226.73C37.9204 227.04 37.7504 227.28 37.6504 227.46C38.0204 227.64 38.5004 227.98 38.9304 228.6L53.3504 217.69C53.9804 216.37 54.4704 215.1 54.8104 213.89H54.8204Z"
    fill="white" />
  <path
    d="M55.7902 214.18C55.5802 214.91 55.3002 215.67 54.9902 216.45L57.2802 214.72C56.7702 214.52 56.2702 214.34 55.7802 214.18H55.7902Z"
    fill="white" />
  <path
    d="M62.8495 210.51C65.0895 205.38 64.4695 201.39 64.0095 199.69L60.9795 201.99C61.6995 203.71 62.5495 206.9 61.8295 211.27L62.8395 210.5L62.8495 210.51Z"
    fill="white" />
  <path
    d="M75.0897 191.14C75.0897 191.14 73.7997 187.79 74.8597 184.21C75.7997 181.04 72.2397 182.38 70.8197 184.29C69.3997 186.19 67.9397 190.08 70.5097 194.64C71.5297 196.05 73.1797 198.44 73.5997 202.4C73.7297 204.27 73.7297 205.24 73.6497 207.39C73.5597 209.67 74.9997 209.36 74.9997 209.36C74.9997 209.36 78.3597 208.7 79.0997 203.24C79.8397 197.78 75.0997 191.14 75.0997 191.14H75.0897Z"
    fill="white" />
  <path
    d="M36.9499 228.25L36.5599 228.18L36.5399 227.78C36.5399 227.61 36.5899 227 37.5099 226.04C37.6999 225.84 37.8599 225.69 37.9899 225.57C38.0599 225.51 38.1299 225.44 38.1799 225.39C38.1499 225.34 38.0899 225.25 37.9799 225.1C37.8799 225.05 37.2399 225.1 35.7699 226.04L35.3699 226.3L35.0299 225.95L34.7599 225.56L35.1599 225.25C35.2099 225.21 35.3299 225.13 35.4999 225.02C36.1099 224.63 37.9699 223.44 38.3899 222.62C38.6699 222.05 38.5899 221.88 38.5899 221.88C38.5799 221.86 38.5099 221.82 38.3799 221.8C38.0999 221.81 37.0599 222.33 35.9699 223.03C35.1599 223.62 34.5699 223.99 34.5199 224.02L33.9599 223.19C34.3199 222.93 34.8599 222.55 35.4499 222.17C36.1899 221.63 37.1099 220.92 37.9299 220.15C38.8099 219.32 38.8599 218.66 38.7599 218.26C38.4299 218.2 37.7599 218.41 36.4199 219.43C33.6199 221.56 27.2799 226.39 27.2799 226.39C27.2799 226.39 25.4599 227.62 26.7799 229.77C26.7799 229.77 25.7999 230.77 24.5699 232.08C24.0299 232.65 22.8899 232.5 22.4799 233.17C22.0199 233.91 21.9299 235.24 22.3299 236.02C22.7499 236.85 23.6799 236.19 24.3099 236.27C24.6699 236.32 25.1599 236.65 25.5899 236.78C26.0699 236.93 27.0299 236.76 27.0299 236.76C27.0299 236.76 26.0699 236.14 26.0499 235.51C26.0399 235.01 26.7099 233.79 26.7099 233.79L28.4999 232.23L30.5999 230.71L32.1399 230.13L33.3699 228.88L31.9399 230.79L30.4499 232.14C30.4499 232.14 30.0099 233.68 29.1799 234.19C28.3499 234.7 27.3699 233.93 27.3699 233.93C27.3699 233.93 27.2899 237.84 29.9599 236.13L32.0999 234.62L34.1199 231.54L35.0099 229.16L35.0699 230.74C35.0699 230.74 37.0399 231.1 37.7599 230.52C38.0799 230.27 38.2799 229.92 38.4099 229.62C37.8299 228.47 37.0299 228.29 36.9999 228.29L36.9499 228.25ZM30.6999 227.41C30.2899 227.91 29.7299 228.24 29.1699 228.53C29.0199 228.94 28.8299 229.34 28.5299 229.72C28.3499 229.12 28.3599 228.57 28.3899 228.01C28.8699 227.58 29.4299 227.21 29.9899 226.92C29.9999 226.92 30.0099 226.91 29.9899 226.92C30.1799 226.62 30.4199 226.13 30.7199 225.82C30.8199 226.39 30.8699 226.87 30.6899 227.41H30.6999Z"
    fill="white" />
  <path
    d="M231.709 28.4299C226.259 37.9699 220.639 47.7699 213.919 56.9699C173.439 112.41 115.739 158.59 115.739 158.59L95.1193 175.71L76.7793 189.8C77.2193 190.67 78.6693 193.61 80.2193 197.17L92.0793 188.32C116.149 170.13 134.029 154.7 155.509 134.74C173.119 118.39 194.459 95.8599 207.879 79.6299C216.159 69.6099 224.219 57.7399 228.119 51.8599C238.649 35.9899 231.699 28.4199 231.699 28.4199L231.709 28.4299Z"
    fill="white" />
</svg>