<svg width="55" height="55" viewBox="0 0 256 256" fill="none" xmlns="http://www.w3.org/2000/svg">
  <path
    d="M200.179 107.57C197.198 110.583 190.231 116.412 190.231 116.412C190.231 116.412 186.182 119.496 183.719 119.582C183.719 119.582 180.008 114.223 189.219 106.268C190.717 105.468 192.161 104.503 193.518 103.373C204.377 94.3425 205.859 78.1647 196.829 67.3063C187.799 56.4478 171.621 54.965 160.762 63.9954C156.314 67.6907 153.474 72.5943 152.25 77.8352C142.961 70.6172 129.568 70.5309 120.161 78.3608C112.064 85.1003 109.185 95.8175 111.994 105.334C103.144 100.839 92.0892 101.717 83.9846 108.457C74.2324 116.569 72.0749 130.433 78.2729 141.04C72.2318 140.852 66.1043 142.75 61.1066 146.909C50.2482 155.939 48.7653 172.117 57.7957 182.975C66.8261 193.834 83.0039 195.316 93.8623 186.286C95.0235 185.321 96.0513 184.262 97.0006 183.148H97.0163C97.0163 183.148 106.502 172.431 112.927 179.013C112.927 179.013 111.248 184.521 99.2758 192.798C92.9914 197.145 99.8643 197.78 107.749 196.509C114.873 195.364 122.805 192.492 122.805 192.492C122.805 192.492 141.297 186.153 164.387 167.041C183.805 150.973 185.249 147.175 191.98 137.925C198.359 129.17 201.741 120.618 203.427 114.012C205.059 107.633 202.964 104.762 200.179 107.57ZM189.988 72.9944C195.888 80.0869 194.923 90.6236 187.83 96.5315C180.738 102.431 170.201 101.466 164.293 94.3739C158.393 87.2814 159.358 76.7446 166.451 70.8368C173.543 64.9369 184.08 65.9019 189.988 72.9944ZM168.506 63.0382C172.798 61.6495 177.474 61.6731 181.671 63.0068C177.356 62.1673 172.861 62.5204 168.836 64.0032C156.353 68.6087 150.508 85.116 159.084 95.8881C148.712 85.4612 155.129 67.267 168.498 63.0461L168.506 63.0382ZM149.386 87.3598C155.286 94.4523 154.321 104.989 147.229 110.897C140.136 116.797 129.599 115.832 123.692 108.739C117.792 101.647 118.757 91.1101 125.849 85.2023C132.942 79.3023 143.478 80.2673 149.386 87.3598ZM128.611 76.2739C132.902 74.8852 137.578 74.9087 141.776 76.2425C137.461 75.403 132.965 75.7561 128.94 77.2389C116.458 81.8443 110.613 98.3517 119.188 109.124C108.816 98.6969 115.234 80.5027 128.603 76.2817L128.611 76.2739ZM92.8659 107.045C97.1575 105.656 101.834 105.68 106.031 107.013C101.716 106.174 97.2203 106.527 93.1954 108.01C80.7129 112.615 74.8679 129.122 83.4432 139.895C73.0713 129.468 79.489 111.273 92.8581 107.053L92.8659 107.045ZM69.6976 145.253C73.9892 143.864 78.6652 143.888 82.8627 145.222C78.5475 144.382 74.052 144.735 70.0271 146.218C57.5446 150.824 51.6996 167.331 60.2749 178.103C49.9029 167.676 56.3207 149.482 69.6898 145.261L69.6976 145.253ZM88.1742 179.445C81.0817 185.345 70.5449 184.38 64.6371 177.287C58.7372 170.195 59.7022 159.658 66.7947 153.75C73.8872 147.85 84.424 148.815 90.3318 155.908C96.2317 163 95.2667 173.537 88.1742 179.445ZM87.523 138.828C81.6231 131.735 82.5881 121.198 89.6806 115.29C96.7731 109.391 107.31 110.356 113.218 117.448C119.118 124.541 118.153 135.077 111.06 140.985C103.968 146.885 93.4308 145.92 87.523 138.828ZM127.395 184.913C125.049 186.035 121.534 185.564 120.436 183.211C118.341 178.731 122.546 174.965 124.406 177.538C128.344 182.983 146.836 171.693 146.836 171.693C146.836 171.693 135.044 181.241 127.395 184.913ZM151.693 156.465C127.724 173.451 115.352 172.525 108.298 160.662C108.298 160.662 105.45 156.551 113.131 150.314C114.387 149.592 115.603 148.784 116.756 147.827C124.853 141.087 127.732 130.37 124.923 120.853C133.773 125.349 144.828 124.47 152.932 117.73C153.898 116.93 154.753 116.059 155.569 115.149C159.068 112.223 166.341 107.39 169.981 114.129C174.885 123.191 175.661 139.479 151.701 156.465H151.693ZM186.481 135.752C181.522 142.57 170.083 152.346 170.083 152.346C170.083 152.346 184.417 136.333 179.78 131.46C177.591 129.162 182.016 125.741 186.041 128.62C188.152 130.135 187.995 133.665 186.481 135.752Z"
    fill="white" />
</svg>