<svg width="256" height="256" viewBox="0 0 256 256" fill="none" xmlns="http://www.w3.org/2000/svg">
<path d="M74.8303 172.85C74.1103 174.51 73.7503 175.87 73.8803 176.83C74.9803 184.74 66.6903 186.06 66.6903 186.06C66.6903 186.06 60.6603 186.86 61.3403 193.35C62.0103 199.84 53.8503 201.53 53.8503 201.53C53.8503 201.53 50.4003 202.61 48.8403 204.46C48.0403 205.41 47.2503 207.48 47.9503 209.37C50.4703 216.18 43.9203 220.13 43.9203 220.13C43.9203 220.13 38.3703 223.31 37.1203 230.57C35.8703 237.83 32.4303 236.76 32.4303 236.76C17.3703 235.4 17.9403 226.8 17.9403 226.8C26.8603 199.4 55.3603 164.28 56.5303 162.85L74.8103 172.85H74.8303ZM24.6703 223.01C23.1703 224.53 23.1803 226.99 24.7103 228.49C26.2303 229.99 28.6903 229.97 30.1903 228.45C31.6903 226.93 31.6703 224.47 30.1503 222.97C28.6303 221.47 26.1703 221.49 24.6703 223.01Z" fill="white"/>
<path d="M229.97 47.9399C220.81 38.9199 206.07 39.0399 197.05 48.1999C188.03 57.3599 188.15 72.0999 197.31 81.1199C206.47 90.1399 221.21 90.0199 230.23 80.8599C239.25 71.6999 239.13 56.9599 229.97 47.9399ZM224.61 51.5299C230.44 56.1199 232.28 63.0299 230.44 69.2099L228.84 68.3099C230.24 62.5599 228.57 56.5099 224.61 51.5299ZM228.23 70.3099L229.74 71.1499C229.27 72.2199 228.69 73.2599 227.99 74.2499L226.65 73.4999C227.3 72.4599 227.82 71.3899 228.23 70.3099ZM220.45 80.6199C222.29 78.9399 224.05 77.1899 225.5 75.1999L226.7 75.8699C225.93 76.7299 225.07 77.5499 224.1 78.2999C222.94 79.1799 221.74 79.9699 220.45 80.6199Z" fill="white"/>
<path d="M237.95 50.77C238.63 52.27 235.59 53.16 235.59 53.16C235.49 53.01 235.38 52.87 235.27 52.72C229.66 41.74 215.38 36.71 203.9 41.74C191.22 46.8 185.39 62.92 191.32 75.04C191.37 75.26 191.42 75.48 191.47 75.7C192.2 79.23 190.16 79.43 188.73 79.18C187.97 79.05 186.47 77.37 185.99 76.77C182.27 72.16 176.13 72.55 176.13 72.55C166.2 70.71 105.04 132.81 105.04 132.81C105.04 132.81 82.4596 158.08 75.7296 170.97L57.8496 161.19C131.72 67.15 163.8 47.29 163.8 47.29C163.8 47.29 186.57 28.75 204.09 25.17C221.6 21.59 237.27 49.26 237.95 50.77Z" fill="white"/>
</svg>
