<svg width="256" height="256" viewBox="0 0 256 256" fill="none" xmlns="http://www.w3.org/2000/svg">
<path d="M231.811 27.08C229.301 27.6 223.501 36.04 222.151 38.04C221.641 37.96 221.191 38.04 220.931 38.3C219.001 37.99 216.541 37.77 215.571 38.46C215.161 38.75 215.041 39.11 215.011 39.37C214.801 41.06 215.011 42.27 215.011 42.32L216.491 42.07C216.491 42.07 216.321 41.06 216.491 39.66C216.941 39.41 218.611 39.47 220.571 39.78L44.3206 215.26C44.3206 215.26 43.4106 216.48 41.2306 218.43C41.6106 217.61 41.8806 216.46 41.7106 214.91L40.7206 215.02C41.0706 218.12 39.4106 219.25 39.3406 219.3L39.3706 219.35C38.6406 219.76 38.1906 220.38 38.1906 220.93C37.0306 221.81 35.7006 222.76 34.1406 223.76C27.9906 227.73 29.7106 231.96 29.7106 231.96C30.2106 233.53 32.0706 231.55 32.0706 231.55C32.0706 231.55 31.7106 231.75 31.5006 230.94C30.7206 228.03 36.1706 224.82 36.1706 224.82L36.4006 225.58L38.2206 225.61L38.3606 224.49L39.7606 221.9L39.7706 221.89C40.0806 221.86 40.4106 221.78 40.7406 221.64C41.6606 221.24 42.2506 220.5 42.2206 219.87C48.8006 213.66 217.231 46.32 217.231 46.32L222.821 40.93C223.541 41.11 224.191 40.99 224.441 40.56C224.621 40.26 224.561 39.86 224.341 39.47L225.061 38.77L226.401 35.75C230.111 29.96 231.731 30.4 231.731 30.4L232.481 31.08C232.481 31.08 234.651 26.47 231.811 27.06V27.08Z" fill="white"/>
<path d="M164.12 156.87C164.77 156.22 165.44 155.56 166.12 154.89C166.57 152.91 166.711 151 166.631 149.21C165.681 148.67 164.721 148.22 163.771 147.85C164.401 150.51 164.65 153.57 164.12 156.87Z" fill="white"/>
<path d="M160.07 139.27C161.09 140.83 162.52 143.4 163.46 146.67C164.48 147.03 165.52 147.48 166.55 148.02C166.06 142.99 163.95 138.97 162.57 136.83C161.77 137.61 160.93 138.42 160.07 139.27Z" fill="white"/>
<path d="M167.611 148.62C168.551 149.18 169.471 149.84 170.381 150.59C176.581 144.24 183.381 136.69 189.851 128.32C189.851 128.32 170.631 139.74 170.671 129.13C170.671 129.13 167.621 131.96 163.311 136.12C164.811 138.41 167.231 142.93 167.611 148.62Z" fill="white"/>
<path d="M167.65 149.83C167.67 151.05 167.58 152.32 167.37 153.63C167.74 153.26 168.1 152.89 168.48 152.52C168.87 152.13 169.27 151.71 169.67 151.31C169.01 150.76 168.33 150.27 167.65 149.83Z" fill="white"/>
<path d="M162.861 158.11C163.781 154.15 163.451 150.5 162.641 147.44C158.931 146.22 155.42 146.12 152.98 146.28C149.41 149.8 145.77 153.34 142.04 157.34C142.04 157.34 159.091 148.17 140.521 178.93C140.521 178.93 149.241 171.49 162.851 158.11H162.861Z" fill="white"/>
<path d="M162.31 146.29C161.44 143.55 160.24 141.37 159.34 139.97C158.26 141.03 157.16 142.13 156.02 143.26C155.36 143.92 154.7 144.57 154.04 145.23C156.32 145.17 159.23 145.37 162.3 146.29H162.31Z" fill="white"/>
<path d="M230.17 46.57C230.17 46.57 229.85 46.17 230.2 45.84C230.99 45.08 232.63 43.92 234.78 45.18C234.93 45.27 235.2 45.44 235.21 45.68C235.21 45.68 236.25 44.71 235.41 43.78C234.57 42.85 231.84 42.81 229.48 44.71C227.77 46.08 230.18 46.57 230.18 46.57H230.17Z" fill="white"/>
<path d="M230.03 44.1301C230.03 44.1301 229.71 43.7301 230.06 43.4001C230.85 42.6401 232.49 41.4801 234.64 42.7401C234.79 42.8301 235.06 43.0001 235.07 43.2401C235.07 43.2401 236.11 42.2701 235.27 41.3401C234.43 40.4101 231.7 40.3701 229.34 42.2701C227.63 43.6401 230.04 44.1301 230.04 44.1301H230.03Z" fill="white"/>
<path d="M45.6742 226.74C45.6742 226.74 45.2342 226.49 44.9642 226.88C44.3442 227.78 43.4642 229.59 45.0542 231.51C45.1642 231.64 45.3842 231.88 45.6142 231.85C45.6142 231.85 44.8242 233.04 43.7742 232.35C42.7242 231.66 42.2342 228.99 43.7242 226.35C44.7942 224.45 45.6742 226.74 45.6742 226.74Z" fill="white"/>
<path d="M47.9701 226.62C47.9701 226.62 47.5301 226.37 47.2601 226.76C46.6401 227.66 45.7601 229.47 47.3501 231.39C47.4601 231.52 47.6801 231.76 47.9101 231.73C47.9101 231.73 47.1201 232.92 46.0701 232.23C45.0201 231.54 44.5301 228.87 46.0201 226.23C47.0901 224.33 47.9701 226.62 47.9701 226.62Z" fill="white"/>
<path d="M52.7201 227C52.7201 227 52.2801 226.75 52.0101 227.14C51.3901 228.04 50.5101 229.85 52.1001 231.77C52.2101 231.9 52.4301 232.14 52.6601 232.11C52.6601 232.11 51.8701 233.3 50.8201 232.61C49.7701 231.92 49.2801 229.25 50.7701 226.61C51.8401 224.71 52.7201 227 52.7201 227Z" fill="white"/>
<path d="M226.7 22.27C227.52 22.06 228.25 22.04 228.83 22.08C228.08 19.94 226.84 17.34 225.45 18.54C224.83 19.08 224.84 20.78 225.18 22.95C225.51 22.72 225.99 22.45 226.69 22.27H226.7Z" fill="white"/>
<path d="M50.0205 226.89L48.3505 226.82C47.9205 227.25 47.0005 228.39 47.3405 229.93C47.5205 230.76 48.0805 231.24 48.5505 231.56C48.5805 231.58 48.6105 231.6 48.6405 231.62C48.8505 231.63 49.0505 231.64 49.2405 231.66C49.4105 231.67 49.6005 231.69 49.8105 231.7C49.5405 231.35 49.3105 230.93 49.1905 230.39C48.8505 228.85 49.4605 227.63 50.0205 226.89Z" fill="white"/>
<path d="M227.69 29.27C228.78 28.08 229.74 27.32 230.19 27C230.08 26.56 229.98 26.18 229.9 25.86C229.55 25.58 228.78 25.09 227.77 25.14C227.19 25.17 226.82 25.42 226.57 25.63C226.38 25.79 226.11 26.19 225.92 26.51C226.22 27.75 226.56 29.01 226.91 30.22C227.11 29.95 227.37 29.64 227.7 29.27H227.69Z" fill="white"/>
<path d="M226.95 23.2399C226.23 23.4199 225.81 23.7199 225.56 23.9199C225.5 23.9599 225.45 24.0299 225.39 24.0999C225.46 24.4499 225.53 24.8199 225.61 25.1799C225.71 25.0499 225.82 24.9399 225.93 24.8499C226.27 24.5699 226.83 24.1799 227.71 24.1299C228.43 24.0899 229.05 24.2499 229.55 24.4799C229.52 24.3499 229.39 23.8199 229.18 23.1299C228.65 23.0499 227.87 23.0099 226.96 23.2399H226.95Z" fill="white"/>
<path d="M28.6001 229.71C28.6801 229.2 29.1901 227.93 29.7101 227.12C29.9201 226.79 30.1801 226.47 30.4301 226.17C26.0001 226.2 20.8101 226.56 19.4601 228C17.0001 230.63 23.3201 231.01 23.3201 231.01C23.3201 231.01 25.5301 231.03 28.6801 231.08C28.6101 230.69 28.5301 230.13 28.6001 229.71Z" fill="white"/>
<path d="M237.25 25.2601C236.87 24.2301 234.97 24.9101 234.97 24.9101C234.97 24.9101 234.96 30.2101 234.4 31.1801C233.83 32.1501 231.41 31.6801 231.4 31.5301C231.4 31.5201 231.4 31.5101 231.4 31.4901C230.95 31.7901 230.42 32.1801 229.87 32.7001C229.22 33.3201 228.89 33.8001 228.7 34.1201C228.56 34.3501 228.44 34.6801 228.37 34.9301C228.83 36.3501 229.16 37.2701 229.16 37.2701L229.57 40.9601C229.68 40.8901 229.79 40.8101 229.89 40.7501C230.32 40.4801 231.02 40.1101 232.15 39.9701C233.23 39.8301 234.11 39.9401 234.77 40.0901C234.74 39.7301 234.71 39.4001 234.68 39.1001C234.58 38.2601 236.31 37.1201 236.63 35.1001C236.83 33.8601 237.9 26.8601 237.29 25.2501L237.25 25.2601Z" fill="white"/>
<path d="M42.9426 226.593L37.2398 226.36C37.2398 226.36 36.6298 226.32 35.6498 226.28C35.3098 226.51 34.3798 227.17 33.7398 227.89C33.1398 228.57 32.5498 229.61 32.4498 229.92C32.3598 230.2 32.3598 230.75 32.3798 231.14C32.4298 231.14 32.4698 231.14 32.5198 231.14C32.6798 231.14 32.7398 232.72 31.5898 233.43C30.4398 234.14 26.9598 234.58 26.9598 234.58C26.9598 234.58 26.2898 235.91 27.3498 236.24C29.0398 236.76 32.9298 236.34 34.3198 236.01C36.5998 235.47 39.2498 231.47 40.1698 231.49C41.6698 231.53 41.2929 231.48 42.4829 231.49C42.1629 231.12 42.1095 230.758 42.1095 229.724C42.1095 228.69 42.3511 227.414 42.9426 226.593Z" fill="white"/>
<path d="M225.65 25.73C225.65 25.73 225.4 25.41 225.67 25.14C226.31 24.53 227.63 23.6 229.36 24.61C229.48 24.68 229.7 24.82 229.71 25.01C229.71 25.01 230.55 24.23 229.87 23.48C229.19 22.73 227 22.7 225.1 24.22C223.73 25.32 225.66 25.72 225.66 25.72L225.65 25.73Z" fill="white"/>
<path d="M147.01 158.37C145.41 157.05 142.05 159.19 139.81 161.01C135.57 165.83 131.99 170.38 130.69 173.29C126.7 182.23 118.88 193.97 118.88 193.97C95.1099 227.39 53.6799 227.06 53.6799 227.06L53.3199 227.04C52.9099 227.44 51.9199 228.6 52.2699 230.19C52.4399 230.95 52.9099 231.4 53.3399 231.72C56.5099 231.65 60.9999 231.43 66.2499 231.1C71.8399 230.75 78.2899 229.68 84.9999 227.88C91.1599 226.23 104.74 220.25 110.54 215.64C120.36 207.84 128.53 198.34 138.36 181.1C138.42 180.99 138.49 180.89 138.55 180.78L138.52 180.76C144.03 171.11 148.76 159.81 147.02 158.38L147.01 158.37ZM94.6299 221.22C94.1599 221.22 93.7799 220.84 93.7799 220.37C93.7799 219.9 94.1599 219.52 94.6299 219.52C95.0999 219.52 95.4799 219.9 95.4799 220.37C95.4799 220.84 95.0999 221.22 94.6299 221.22ZM104.73 216C104.08 216 103.55 215.47 103.55 214.82C103.55 214.17 104.08 213.64 104.73 213.64C105.38 213.64 105.91 214.17 105.91 214.82C105.91 215.47 105.38 216 104.73 216ZM114.03 208.3C113.21 208.3 112.54 207.63 112.54 206.81C112.54 205.99 113.21 205.32 114.03 205.32C114.85 205.32 115.52 205.99 115.52 206.81C115.52 207.63 114.85 208.3 114.03 208.3Z" fill="white"/>
<path d="M235.12 46.2899C234.64 45.9499 233.49 45.3099 232 45.7299C231.16 45.9699 230.71 46.4999 230.42 46.9299C230.37 47.0099 230.31 47.0999 230.25 47.1899L230.8 52.1099C230.8 52.1099 234.56 83.2399 206.25 103.39C206.25 103.39 195.16 111.28 187.91 115.81C184.56 117.91 178.22 123.37 172.46 128.55C172.35 129.6 172.5 131.15 174.19 131.68C176.67 132.46 185.54 128.66 190.69 126.01C192.24 124.75 193.79 123.53 195.32 122.38C208.73 112.27 216.13 107.97 222.54 99.9399C226.32 95.1999 231.98 84.5499 233.42 79.1699C234.98 73.3199 235.74 65.8399 235.63 60.7399C235.53 56.1899 235.35 50.7599 235.14 46.2799L235.12 46.2899ZM215.25 103.06C214.43 103.13 213.71 102.53 213.63 101.71C213.56 100.89 214.16 100.17 214.98 100.09C215.8 100.02 216.52 100.62 216.6 101.44C216.67 102.26 216.07 102.98 215.25 103.06ZM223.44 93.2299C222.79 93.2899 222.22 92.8099 222.16 92.1599C222.1 91.5099 222.58 90.9399 223.23 90.8799C223.88 90.8199 224.45 91.2999 224.51 91.9499C224.57 92.5999 224.09 93.1699 223.44 93.2299ZM227.93 83.5599C227.46 83.5999 227.05 83.2599 227.01 82.7899C226.97 82.3199 227.31 81.9099 227.78 81.8699C228.25 81.8299 228.66 82.1699 228.7 82.6399C228.74 83.1099 228.4 83.5199 227.93 83.5599Z" fill="white"/>
</svg>
