<svg width="55" height="55" viewBox="0 0 256 256" fill="none" xmlns="http://www.w3.org/2000/svg">
  <path
    d="M227.251 25.76L86.1309 160.48C88.5209 162.79 94.5509 168.95 100.791 177.93C117.841 161.73 194.491 88.83 211.671 70.95C231.041 50.81 227.251 25.75 227.251 25.75V25.76ZM214.691 50.02C209.971 60.88 201.551 69.61 193.701 78.27C174.921 97.84 126.311 142.49 105.971 161.23C126.421 141.46 173.551 97.03 192.621 77.24C200.601 68.79 209.041 60.33 214.311 49.86C215.001 48.35 215.591 46.78 215.881 45.13L216.031 45.15C215.821 46.83 215.311 48.45 214.691 50.02Z"
    fill="white" />
  <path
    d="M60.3401 189.03C51.1001 198.4 41.1901 208.62 38.3301 212.17C41.0001 217.64 45.2901 220.36 47.2001 221.34C51.0001 218.19 65.5201 206.1 77.0701 195.78C73.4401 195.61 67.2201 194.38 60.3401 189.02V189.03Z"
    fill="white" />
  <path
    d="M65.3805 183.93C63.9805 185.34 62.5305 186.81 61.0605 188.3C68.4105 193.94 75.0005 194.77 78.1905 194.78C79.2205 193.86 80.2205 192.95 81.1805 192.07C77.0805 191.34 71.4105 189.29 65.3805 183.93Z"
    fill="white" />
  <path
    d="M66.0898 183.21C72.3098 188.69 78.1798 190.57 82.1698 191.16C84.5698 188.94 86.6898 186.92 88.3699 185.22L76.8898 172.4C74.8998 174.39 70.8598 178.42 66.0998 183.22L66.0898 183.21Z"
    fill="white" />
  <path
    d="M84.6908 161.86L84.6608 161.89C81.2808 158.67 78.0108 156.3 75.5008 156.03C67.2008 155.13 71.9208 164.41 71.9208 164.41C71.9208 164.41 74.2308 167.55 77.6108 171.69L89.0808 184.5C93.9308 189.74 96.0108 192.77 95.9908 197.4C95.9708 202.94 91.9108 218.11 74.4208 224.33C61.3708 228.97 51.9408 225.56 46.9908 222.65C47.4708 224.17 47.4008 225.42 46.7808 226.38C46.3508 227.03 45.7208 227.46 45.0508 227.74C59.5808 237.39 73.8808 233 73.8808 233C73.8808 233 82.3408 233.2 97.3008 217.39C110.201 203.77 105.241 189.58 102.761 184.55C95.4208 172.62 87.4108 164.46 84.7108 161.86H84.6908Z"
    fill="white" />
  <path
    d="M43.3107 227C43.5007 226.99 43.6707 226.96 43.8307 226.92C43.8807 226.96 43.9407 226.99 43.9907 227.03C44.7407 226.83 45.4907 226.48 45.9207 225.82C46.5507 224.86 46.3707 223.4 45.4107 221.49C43.2007 220.13 39.9507 217.51 37.6607 213.07C37.6607 213.08 37.6407 213.1 37.6307 213.11C37.6307 213.11 34.8107 210.15 32.5407 213.84C30.2707 217.53 34.9307 223.13 35.5507 223.78C36.1707 224.43 39.4207 227.25 43.3007 226.99L43.3107 227Z"
    fill="white" />
</svg>