<svg width="55" height="55" viewBox="0 0 256 256" fill="none" xmlns="http://www.w3.org/2000/svg">
  <path
    d="M61.9428 194.67C60.3528 192.82 57.5528 192.6 55.7028 194.19C54.3028 195.39 54.0028 197.76 54.5328 199.42C54.7428 199.36 54.9528 199.18 55.1428 199.06C55.3628 198.94 56.1928 198.22 56.4128 197.85C56.2728 197.1 56.5228 196.41 57.1428 195.87C57.6228 195.46 58.2328 195.29 58.8128 195.35C59.3628 195.41 59.8828 195.66 60.2628 196.11C61.0628 197.04 60.9528 198.44 60.0228 199.24C59.6328 199.57 59.2128 199.77 58.7328 199.79C58.7328 199.84 58.3528 200.44 58.0928 200.66C57.6528 201.04 57.2728 201.26 57.1028 201.32C57.0128 201.35 56.7028 201.52 56.6128 201.55C57.0528 201.76 57.6428 201.91 58.1128 201.96C59.2828 202.08 60.4928 201.74 61.4528 200.92C63.3028 199.33 63.5228 196.53 61.9328 194.68L61.9428 194.67Z"
    fill="white" />
  <path
    d="M78.7725 210.64C76.9725 208.99 74.1725 209.11 72.5225 210.91C71.7225 211.78 71.3125 212.91 71.3625 214.09C71.4125 215.25 71.9125 216.32 72.7625 217.12C72.8925 216.95 73.0225 216.77 73.1525 216.6C73.3325 216.35 74.0125 215.26 74.1125 215.12C73.9025 214.8 73.5825 214.39 73.5625 214C73.5325 213.41 73.7425 212.84 74.1425 212.41C74.5725 211.94 75.1525 211.7 75.7425 211.69C76.2925 211.69 76.8425 211.87 77.2725 212.27C77.7125 212.67 77.9625 213.22 77.9925 213.81C78.0225 214.4 77.8125 214.97 77.4125 215.4C77.0925 215.75 76.6825 215.97 76.2325 216.07C76.2325 216.11 75.6525 217.31 75.5425 217.47C75.3725 217.73 75.2225 218 75.0925 218.27C75.3425 218.31 75.5925 218.33 75.8425 218.33C75.8825 218.33 75.9225 218.33 75.9625 218.33C77.1425 218.28 78.2325 217.77 79.0325 216.9C79.8325 216.03 80.2425 214.9 80.1925 213.72C80.1425 212.54 79.6325 211.45 78.7625 210.65L78.7725 210.64Z"
    fill="white" />
  <path
    d="M76.4027 215.36C76.3327 214.62 75.7227 214.67 75.6327 214.64C75.6227 214.64 75.0127 214.51 74.6827 214.89C73.0427 217.18 67.2127 225.68 60.7027 228.93C45.6727 236.42 37.6927 224.81 37.6927 224.81C37.6927 224.81 30.8327 215.3 38.4527 206.7C39.8827 205.09 44.9927 204.43 47.4227 204.3C48.5327 204.24 49.6127 204.04 50.6727 203.69C53.6427 202.73 59.1727 200.7 58.6227 199.13C57.8727 196.99 56.5027 198.18 56.5027 198.18C56.5027 198.18 55.3527 199.76 52.6727 200.68C49.9927 201.59 40.0227 203.28 40.0227 203.28C40.0227 203.28 32.9527 204.09 32.0527 215.33C31.1627 226.57 41.8427 231.69 41.8427 231.69C41.8427 231.69 53.3327 238.54 65.8027 228.83C71.1127 224.69 76.4627 215.77 76.4227 215.37L76.4027 215.36Z"
    fill="white" />
  <path
    d="M105.963 183.48L110.823 178.08C102.773 175.93 95.4632 169.4 90.1132 163.33L85.0732 168.38C90.3932 174.55 97.8232 181.38 105.963 183.48Z"
    fill="white" />
  <path
    d="M107.863 145.55L106.373 147.04C109.473 154.43 114.223 162.58 121.013 166.76L127.393 159.67C119.843 157.28 112.983 151.22 107.863 145.55Z"
    fill="white" />
  <path
    d="M100.783 189.24L105.233 184.3C97.0732 181.99 89.6832 175.22 84.3732 169.09L79.5332 173.94C84.9132 180.21 92.4832 187.2 100.783 189.25V189.24Z"
    fill="white" />
  <path
    d="M96.4233 194.09L100.043 190.07C91.7233 187.8 84.2033 180.87 78.8333 174.64L77.6133 175.87C82.0233 183.05 88.4533 191.07 96.4233 194.1V194.09Z"
    fill="white" />
  <path
    d="M111.573 177.25L114.083 174.46C106.773 170.94 101.233 163.24 97.4132 156.02L90.8232 162.63C96.1832 168.74 103.553 175.32 111.583 177.25H111.573Z"
    fill="white" />
  <path
    d="M116.403 136.99L112.043 141.36C117.683 147.15 124.983 152.74 132.733 153.73L133.823 152.52C126.463 150.32 120.663 143.82 116.403 136.99Z"
    fill="white" />
  <path
    d="M102.213 151.21L98.123 155.3C101.913 162.55 107.443 170.34 114.753 173.71L118.383 169.67C111.293 165.95 105.923 158.31 102.203 151.21H102.213Z"
    fill="white" />
  <path
    d="M76.903 176.57L62.133 191.37L64.413 193.53C53.393 204.15 62.783 210.55 62.783 210.55C62.783 210.55 69.673 219.57 79.693 208.01L81.963 210.16L95.723 194.87C87.753 191.67 81.333 183.72 76.903 176.57Z"
    fill="white" />
  <path
    d="M105.623 147.79L102.933 150.48C106.613 157.6 111.983 165.32 119.073 168.91L120.353 167.49C113.563 163.22 108.783 155.16 105.623 147.79Z"
    fill="white" />
  <path
    d="M128.103 158.87L131.933 154.61C124.173 153.35 116.953 147.78 111.343 142.05L108.543 144.86C113.663 150.57 120.573 156.67 128.093 158.88L128.103 158.87Z"
    fill="white" />
  <path
    d="M156.533 120.72L147.433 112.1L147.373 112.16L144.183 109.14L117.103 136.28C121.343 143.16 127.163 149.72 134.543 151.71L159.643 123.81L156.453 120.79L156.513 120.73L156.533 120.72Z"
    fill="white" />
  <path d="M96.5296 53.87L88.0596 48.05L90.2796 59.09L96.5296 53.87Z" fill="white" stroke="white" stroke-width="1.5"
    stroke-miterlimit="10" />
  <path d="M113.47 55.94L113.62 44.17L105.96 53.48L113.47 55.94Z" fill="white" stroke="white" stroke-width="1.5"
    stroke-miterlimit="10" />
  <path d="M124.56 69.89L131.52 62.55L119.2 61.11L124.56 69.89Z" fill="white" stroke="white" stroke-width="1.5"
    stroke-miterlimit="10" />
  <path d="M83.57 65.74L73.96 70.3L85.43 73.92L83.57 65.74Z" fill="white" stroke="white" stroke-width="1.5"
    stroke-miterlimit="10" />
  <path d="M88.6301 79.02L84.8701 87.9L95.2601 83.23L88.6301 79.02Z" fill="white" stroke="white" stroke-width="1.5"
    stroke-miterlimit="10" />
  <path d="M100.2 89.21L104.53 100.64L108.85 89.11L100.2 89.21Z" fill="white" stroke="white" stroke-width="1.5"
    stroke-miterlimit="10" />
  <path d="M116.31 87.12L125.81 89.39L121.35 79.47L116.31 87.12Z" fill="white" stroke="white" stroke-width="1.5"
    stroke-miterlimit="10" />
  <path
    d="M207.7 34.85C206.95 34.85 206.31 34.28 206.24 33.52C206.16 32.71 206.75 31.99 207.56 31.91L215.99 31.1C216.8 31.02 217.52 31.61 217.6 32.42C217.68 33.23 217.09 33.95 216.28 34.03L207.85 34.84C207.85 34.84 207.76 34.84 207.71 34.84L207.7 34.85Z"
    fill="white" />
  <path
    d="M192.46 38.82C191.85 38.82 191.28 38.44 191.07 37.83C190.8 37.06 191.21 36.22 191.98 35.96L199.98 33.19C200.75 32.93 201.59 33.33 201.85 34.1C202.12 34.87 201.71 35.71 200.94 35.97L192.94 38.74C192.78 38.79 192.62 38.82 192.46 38.82Z"
    fill="white" />
  <path
    d="M176.51 42.08C175.82 42.08 175.21 41.6 175.07 40.9C174.91 40.1 175.43 39.33 176.22 39.17L184.52 37.5C185.32 37.34 186.09 37.86 186.25 38.65C186.41 39.45 185.89 40.22 185.1 40.38L176.8 42.05C176.7 42.07 176.6 42.08 176.51 42.08Z"
    fill="white" />
  <path
    d="M162.69 48.19C162.19 48.19 161.71 47.94 161.43 47.48C161.01 46.78 161.23 45.88 161.93 45.46L169.17 41.07C169.87 40.65 170.77 40.87 171.19 41.57C171.61 42.27 171.39 43.17 170.69 43.59L163.45 47.98C163.21 48.12 162.95 48.19 162.69 48.19Z"
    fill="white" />
  <path
    d="M155.66 61.45C155.43 61.45 155.2 61.4 154.99 61.29C154.27 60.92 153.98 60.03 154.36 59.31L158.24 51.78C158.61 51.06 159.5 50.77 160.22 51.15C160.94 51.52 161.23 52.41 160.85 53.13L156.97 60.66C156.71 61.17 156.19 61.46 155.66 61.46V61.45Z"
    fill="white" />
  <path
    d="M143.179 71.57C142.709 71.57 142.24 71.34 141.96 70.92C141.5 70.25 141.68 69.33 142.35 68.87L149.37 64.13C150.05 63.67 150.96 63.85 151.42 64.52C151.88 65.19 151.7 66.11 151.03 66.57L144.01 71.31C143.76 71.48 143.47 71.56 143.19 71.56L143.179 71.57Z"
    fill="white" />
  <path
    d="M128.73 76.59C128.09 76.59 127.5 76.17 127.31 75.53C127.08 74.75 127.54 73.93 128.32 73.71L136.46 71.36C137.24 71.14 138.06 71.58 138.28 72.37C138.51 73.15 138.05 73.97 137.27 74.19L129.13 76.54C128.99 76.58 128.86 76.6 128.72 76.6L128.73 76.59Z"
    fill="white" />
  <path
    d="M208.06 35.24C208 35.24 207.94 35.24 207.88 35.24C207.72 35.24 207.56 35.21 207.41 35.17C207.04 35.64 206.52 35.96 205.92 36.06L202.28 36.69C200.95 36.92 199.68 36.03 199.45 34.7C199.22 33.37 200.11 32.1 201.44 31.87L205.08 31.24C205.22 31.22 205.36 31.2 205.5 31.2C206 31.2 206.49 31.35 206.9 31.65C206.93 31.67 206.95 31.7 206.98 31.72C207.2 31.6 207.44 31.53 207.7 31.5L210.3 31.25C209.91 30.46 209.35 29.77 208.61 29.25C207.43 28.42 206 28.1 204.59 28.34L200.95 28.97C198.02 29.48 196.05 32.27 196.56 35.2C197.01 37.82 199.3 39.67 201.87 39.67C202.17 39.67 202.48 39.64 202.79 39.59L206.43 38.96C207.85 38.72 209.09 37.93 209.92 36.76C210.31 36.21 210.57 35.61 210.73 34.98L208.07 35.24H208.06Z"
    fill="white" />
  <path
    d="M221.74 28.4C219.62 26.39 216.25 26.48 214.24 28.6C213.59 29.29 213.18 30.12 212.97 30.98L215.4 30.75C215.52 30.53 215.67 30.31 215.85 30.12C216.46 29.48 217.28 29.15 218.1 29.15C218.87 29.15 219.63 29.43 220.23 30C221.47 31.18 221.52 33.14 220.35 34.38C219.18 35.62 217.21 35.67 215.97 34.5C215.96 34.49 215.95 34.47 215.94 34.46L213.42 34.7C213.68 35.21 214.01 35.68 214.45 36.1C215.47 37.07 216.79 37.55 218.1 37.55C219.51 37.55 220.91 36.99 221.95 35.9C223.96 33.78 223.87 30.41 221.75 28.4H221.74Z"
    fill="white" />
  <path d="M96.5296 53.87L88.0596 48.05L90.2796 59.09L96.5296 53.87Z" fill="white" stroke="white" stroke-width="1.5"
    stroke-miterlimit="10" />
  <path d="M113.47 55.94L113.62 44.17L105.96 53.48L113.47 55.94Z" fill="white" stroke="white" stroke-width="1.5"
    stroke-miterlimit="10" />
  <path d="M124.56 69.89L131.52 62.55L119.2 61.11L124.56 69.89Z" fill="white" stroke="white" stroke-width="1.5"
    stroke-miterlimit="10" />
  <path d="M83.57 65.74L73.96 70.3L85.43 73.92L83.57 65.74Z" fill="white" stroke="white" stroke-width="1.5"
    stroke-miterlimit="10" />
  <path d="M88.6301 79.02L84.8701 87.9L95.2601 83.23L88.6301 79.02Z" fill="white" stroke="white" stroke-width="1.5"
    stroke-miterlimit="10" />
  <path d="M100.2 89.21L104.53 100.64L108.85 89.11L100.2 89.21Z" fill="white" stroke="white" stroke-width="1.5"
    stroke-miterlimit="10" />
  <path d="M116.31 87.12L125.81 89.39L121.35 79.47L116.31 87.12Z" fill="white" stroke="white" stroke-width="1.5"
    stroke-miterlimit="10" />
  <path
    d="M117.94 56.42C109.57 48.49 96.3601 48.85 88.4401 57.21C80.5101 65.58 80.8701 78.79 89.2301 86.71C97.6001 94.64 110.81 94.28 118.73 85.92C126.66 77.55 126.3 64.34 117.94 56.42ZM91.4601 66.8C91.8501 67.6 92.2101 68.42 92.4801 69.3C91.0601 67.83 89.9901 66.12 88.9801 64.37C91.0801 63.93 93.1901 63.54 95.3501 63.51C93.7801 64.19 92.1601 64.65 90.5101 65.04C90.8401 65.62 91.1601 66.2 91.4601 66.8ZM107.12 85.04C105.69 83.61 104.3 82.14 103.25 80.4C104.03 80.88 104.73 81.44 105.4 82.02C105.91 82.46 106.38 82.93 106.85 83.4C107.65 81.9 108.52 80.45 109.58 79.1C109 81.18 108.08 83.12 107.12 85.04ZM113.31 66.89C113.02 65.21 112.96 63.52 112.97 61.83C111.47 62.27 109.95 62.62 108.37 62.73C109.93 61.82 111.61 61.22 113.33 60.7L114 60.5C113.93 62.65 113.8 64.79 113.32 66.89H113.31Z"
    fill="white" />
  <path d="M224.27 29.91L205.55 49.11L216.55 59.54L216.82 59.8L235 40.08L224.27 29.91Z" fill="white" />
  <path
    d="M207.7 34.85C206.95 34.85 206.31 34.28 206.24 33.52C206.16 32.71 206.75 31.99 207.56 31.91L215.99 31.1C216.8 31.02 217.52 31.61 217.6 32.42C217.68 33.23 217.09 33.95 216.28 34.03L207.85 34.84C207.85 34.84 207.76 34.84 207.71 34.84L207.7 34.85Z"
    fill="white" />
  <path
    d="M221.74 28.4C219.62 26.39 216.25 26.48 214.24 28.6C213.59 29.29 213.18 30.12 212.97 30.98L215.4 30.75C215.52 30.53 215.67 30.31 215.85 30.12C216.46 29.48 217.28 29.15 218.1 29.15C218.87 29.15 219.63 29.43 220.23 30C221.47 31.18 221.52 33.14 220.35 34.38C219.18 35.62 217.21 35.67 215.97 34.5C215.96 34.49 215.95 34.47 215.94 34.46L213.42 34.7C213.68 35.21 214.01 35.68 214.45 36.1C215.47 37.07 216.79 37.55 218.1 37.55C219.51 37.55 220.91 36.99 221.95 35.9C223.96 33.78 223.87 30.41 221.75 28.4H221.74Z"
    fill="white" />
  <path
    d="M199.85 32.81C199.85 32.81 199.91 32.8 199.94 32.79C200.3 32.33 200.82 31.99 201.44 31.88L205.08 31.25C205.22 31.23 205.36 31.21 205.5 31.21C206 31.21 206.49 31.36 206.9 31.66C206.93 31.68 206.95 31.71 206.98 31.73C207.2 31.61 207.44 31.54 207.7 31.51L210.3 31.26C209.91 30.47 209.35 29.78 208.61 29.26C207.43 28.43 206 28.11 204.59 28.35L200.95 28.98C198.44 29.41 196.64 31.53 196.49 33.97L199.86 32.81H199.85Z"
    fill="white" />
  <path
    d="M208.06 35.24C208 35.24 207.94 35.24 207.88 35.24C207.72 35.24 207.56 35.21 207.41 35.17C207.04 35.64 206.52 35.96 205.92 36.06L202.28 36.69C201.74 36.78 201.22 36.69 200.76 36.45L197.59 37.54C198.59 38.84 200.15 39.66 201.85 39.66C202.15 39.66 202.46 39.63 202.77 39.58L206.41 38.95C207.83 38.71 209.07 37.92 209.9 36.75C210.29 36.2 210.55 35.6 210.71 34.97L208.05 35.23L208.06 35.24Z"
    fill="white" />
  <path
    d="M184.44 37.1101C184.61 37.0801 184.78 37.0701 184.95 37.0901C185.3 36.7001 185.77 36.4201 186.33 36.3201L189.97 35.6901C190.11 35.6701 190.25 35.6501 190.39 35.6501C190.73 35.6501 191.05 35.7301 191.35 35.8501C191.5 35.7401 191.66 35.6401 191.85 35.5701L194.53 34.6401C193.33 33.2101 191.43 32.4301 189.48 32.7701L185.83 33.4001C183.56 33.7901 181.88 35.5601 181.46 37.6901L184.44 37.0901V37.1101Z"
    fill="white" />
  <path
    d="M193.07 39.1201C192.9 39.1801 192.73 39.2001 192.55 39.2101C192.21 39.8701 191.59 40.3701 190.8 40.5101L187.16 41.1401C186.49 41.2601 185.84 41.1001 185.34 40.7401C185.29 40.7601 185.24 40.7801 185.18 40.7901L182.07 41.4101C183.02 43.0601 184.79 44.1201 186.74 44.1201C187.04 44.1201 187.35 44.0901 187.66 44.0401L191.3 43.4101C192.72 43.1601 193.96 42.3801 194.79 41.2001C195.42 40.3001 195.75 39.2601 195.77 38.1901L193.07 39.1201Z"
    fill="white" />
  <path
    d="M177.2 42.38C176.85 42.97 176.26 43.41 175.53 43.54L171.89 44.17C171.47 44.25 171.05 44.2 170.68 44.06L167.89 45.75C168.86 46.62 170.13 47.14 171.48 47.14C171.78 47.14 172.09 47.11 172.4 47.06L176.04 46.43C178.46 46.01 180.22 44.04 180.48 41.71L177.21 42.37L177.2 42.38Z"
    fill="white" />
  <path
    d="M168.96 40.72C169.09 40.64 169.23 40.59 169.36 40.54C169.71 39.93 170.31 39.48 171.05 39.35L174.69 38.72C174.83 38.7 174.97 38.68 175.11 38.68C175.4 38.68 175.68 38.73 175.94 38.83C176.01 38.81 176.07 38.78 176.14 38.77L179.55 38.09C178.39 36.41 176.33 35.45 174.19 35.82L170.55 36.45C167.7 36.94 165.77 39.6 166.13 42.44L168.96 40.73V40.72Z"
    fill="white" />
  <path
    d="M166.909 46.76C166.879 46.64 166.829 46.53 166.799 46.41L164.069 48.06C164.039 48.47 163.919 48.86 163.699 49.21L161.689 52.32C161.599 52.46 161.499 52.59 161.379 52.7C161.349 52.91 161.289 53.11 161.189 53.31L159.609 56.38C159.609 56.38 159.609 56.38 159.619 56.38C161.389 56.38 163.129 55.51 164.159 53.92L166.169 50.81C166.949 49.6 167.209 48.16 166.909 46.75V46.76Z"
    fill="white" />
  <path
    d="M156.1 55.03L157.54 52.23C157.09 51.46 157.06 50.47 157.58 49.67L159.59 46.56C159.94 46.01 160.49 45.64 161.13 45.5C161.18 45.49 161.23 45.5 161.28 45.48C161.4 45.34 161.54 45.21 161.71 45.11L164.58 43.37C164.58 43.37 164.58 43.37 164.57 43.36C163.36 42.58 161.92 42.32 160.51 42.62C159.1 42.92 157.9 43.75 157.12 44.96L155.11 48.07C153.64 50.34 154.12 53.3 156.1 55.03Z"
    fill="white" />
  <path
    d="M149.02 63.89C149.05 63.31 149.27 62.77 149.67 62.35L152.21 59.67C152.69 59.16 153.34 58.91 153.99 58.91C154.03 58.91 154.06 58.91 154.1 58.91L155.5 56.19C153.62 55.64 151.52 56.12 150.08 57.63L147.54 60.31C146.55 61.36 146.03 62.72 146.07 64.16C146.08 64.69 146.2 65.19 146.36 65.68L149.03 63.87L149.02 63.89Z"
    fill="white" />
  <path
    d="M158.539 58.48L157.329 60.84C157.129 61.23 156.799 61.51 156.419 61.68C156.349 62.18 156.139 62.65 155.779 63.03L153.239 65.72C152.829 66.16 152.279 66.4 151.719 66.46C151.599 66.63 151.439 66.79 151.259 66.92L148.689 68.66C149.539 69.17 150.499 69.44 151.459 69.44C152.889 69.44 154.309 68.88 155.369 67.76L157.909 65.07C158.899 64.03 159.419 62.66 159.389 61.22C159.359 60.24 159.059 59.31 158.549 58.5L158.539 58.48Z"
    fill="white" />
  <path
    d="M129.66 76.8C129.66 76.8 129.59 76.89 129.55 76.94C128.71 77.82 127.3 77.8699 126.42 77.0199C125.53 76.1799 125.5 74.7699 126.34 73.8799C126.77 73.4199 127.36 73.19 127.95 73.19C128.11 73.19 128.27 73.21 128.43 73.25L131.21 72.4499C131.13 72.3699 131.07 72.2699 130.99 72.1999C129.22 70.5199 126.41 70.6 124.73 72.37C123.05 74.14 123.13 76.9499 124.9 78.6299C125.75 79.4399 126.85 79.8399 127.94 79.8399C129.11 79.8399 130.29 79.3799 131.15 78.4599C131.81 77.7699 132.19 76.92 132.31 76.04L129.65 76.8099L129.66 76.8Z"
    fill="white" />
  <path
    d="M136.19 71.15C136.44 70.69 136.83 70.32 137.32 70.1L140.69 68.59C141.01 68.44 141.35 68.38 141.69 68.38C141.92 68.38 142.15 68.41 142.36 68.48L145.08 66.64C143.55 65.41 141.4 65.05 139.49 65.91L136.12 67.42C134.81 68.01 133.8 69.07 133.29 70.42C133.08 70.96 132.99 71.53 132.96 72.09L136.19 71.16V71.15Z"
    fill="white" />
  <path
    d="M147 69.86L144.08 71.83C144.01 71.88 143.93 71.9 143.86 71.94C143.61 72.41 143.23 72.81 142.7 73.05L139.33 74.56C138.75 74.82 138.12 74.84 137.52 74.63C137.43 74.67 137.33 74.72 137.23 74.75L134.1 75.65C134.7 76.41 135.48 77.01 136.41 77.37C137.03 77.61 137.68 77.73 138.33 77.73C139.08 77.73 139.83 77.57 140.53 77.25L143.9 75.74C146.2 74.71 147.42 72.25 146.99 69.87L147 69.86Z"
    fill="white" />
  <path d="M205.973 53L148.143 111.39L157.203 119.98L212.403 59.1L205.973 53Z" fill="white" />
</svg>