<svg width="55" height="55" viewBox="0 0 256 256" fill="none" xmlns="http://www.w3.org/2000/svg">
  <g clip-path="url(#clip0_268_3469)">
    <path
      d="M21.3149 236.105L26.0556 240.846C26.0556 240.846 23.7555 244.053 20.4268 244.213C14.6701 244.385 11.565 240.705 12.3764 235.012C12.7917 232.437 15.3729 230.163 15.3729 230.163L21.3149 236.105Z"
      fill="white" />
    <path
      d="M46.0985 201.661L54.6089 210.171C52.756 211.257 51.1204 212.088 49.1781 210.146C47.9961 208.964 46.3349 208.248 44.6226 207.929C43.5811 207.73 43.2234 207.385 43.9326 206.408C44.9293 205.041 45.434 203.411 46.0921 201.667L46.0985 201.661Z"
      fill="white" />
    <path
      d="M39.5364 211.685C40.4245 210.606 41.1273 209.813 41.7534 208.97C42.0856 208.523 42.4243 208.286 42.9865 208.35C45.4847 208.612 47.542 209.801 49.4268 211.366C49.644 211.545 49.8102 211.762 49.6888 212.088C49.4204 212.778 46.5453 214.094 45.8872 213.73C44.0088 212.695 41.977 212.12 39.5364 211.685Z"
      fill="white" />
    <path
      d="M45.6507 214.989C44.9735 216.024 43.9001 216.624 43.0248 217.436C42.635 217.8 42.2517 217.928 41.7022 217.646C40.0091 216.784 38.2009 216.215 36.265 215.902C38.5012 212.107 41.6191 211.852 45.6635 214.989L45.6507 214.989Z"
      fill="white" />
    <path
      d="M32.86 219.423C34.6809 216.643 38.4889 216.234 41.0318 218.42C41.3896 218.726 41.4726 218.937 41.1596 219.225C40.0734 220.209 39.3323 221.78 37.2941 220.739C35.9524 220.049 34.3615 219.851 32.8536 219.429L32.86 219.423Z"
      fill="white" />
    <path
      d="M29.6971 222.662C31.6266 219.902 33.7095 219.787 37.9392 222.125C37.7028 222.911 36.9169 223.237 36.4569 223.825C35.6199 224.905 34.7829 224.988 33.569 224.234C32.4125 223.512 31.0133 223.173 29.6971 222.662Z"
      fill="white" />
    <path
      d="M25.7745 226.815C28.5665 223.371 29.1352 223.173 32.3106 224.623C32.924 224.905 34.336 225.064 33.8312 225.927C33.2434 226.924 32.3937 228.463 30.7708 227.927C29.231 227.409 27.7168 226.917 25.7745 226.815Z"
      fill="white" />
    <path
      d="M30.3171 228.994C28.3875 233.683 25.3591 230.949 22.5925 230.137C24.356 227.352 27.2055 226.956 30.3171 228.994Z"
      fill="white" />
    <path
      d="M26.7519 233.07C23.8704 237.063 23.7299 236.616 20.1966 233.147C19.9602 232.846 19.7175 232.591 20.0177 232.252C20.5033 231.715 21.0464 231.313 21.8387 231.3C22.9823 231.281 25.0013 231.971 26.7455 233.076L26.7519 233.07Z"
      fill="white" />
    <path
      d="M13.4814 242.583C13.8584 242.96 14.2545 243.331 14.6187 243.721C14.9062 244.034 15.6857 244.098 15.0212 244.928C14.5867 245.478 14.0117 245.81 13.475 245.631C12.0502 245.152 11.0727 244.187 10.6446 242.724C10.4785 242.162 10.8555 241.619 11.3922 241.197C12.1014 240.641 12.2291 241.229 12.4975 241.523C12.8233 241.874 13.1364 242.251 13.4495 242.615C13.4623 242.603 13.4686 242.596 13.4814 242.583Z"
      fill="white" />
    <path
      d="M13.9866 194.914C2.70327 207.117 12.7662 231.211 12.7662 231.211L15.3475 228.578L18.4718 231.703C18.4718 231.703 13.2965 212.74 22.2222 203.916C29.7742 196.454 38.1888 194.3 38.1888 194.3L31.116 187.228C31.116 187.228 23.2253 184.921 13.9866 194.914ZM23.7684 191.738C16.2355 196.843 11.0603 205.66 11.7951 214.906C9.59719 204.197 17.1556 193.278 27.1291 189.681C25.9535 190.282 24.829 190.972 23.7684 191.738Z"
      fill="white" />
    <path
      d="M32.209 186.135L70.1352 224.061C70.1352 224.061 87.1176 203.82 69.7774 186.493C50.8079 167.523 32.209 186.135 32.209 186.135ZM65.6691 188.582C58.7049 182.142 47.6261 180.34 39.4479 185.515C48.6036 178.212 62.5448 181.905 68.5634 191.464C67.6753 190.422 66.7042 189.451 65.6691 188.569V188.582Z"
      fill="white" />
    <path
      d="M74.0314 189.01C74.0314 189.01 72.6002 186.966 70.939 185.317C69.2779 183.669 67.2461 182.225 67.2461 182.225C67.2461 182.225 246.673 5.81327 248.558 7.69808C250.443 9.58289 74.0314 189.01 74.0314 189.01Z"
      fill="white" />
  </g>
  <defs>
    <clipPath id="clip0_268_3469">
      <rect width="256" height="256" fill="white" />
    </clipPath>
  </defs>
</svg>