<svg width="55" height="55" viewBox="0 0 256 256" fill="none" xmlns="http://www.w3.org/2000/svg">
  <path
    d="M224.482 18C224.482 18 199.792 66.18 115.982 130.05L75.4717 157.72C79.3517 159.85 84.4717 163.97 85.4317 171.11L86.3317 171.74L104.862 159.15L138.302 136.42C138.302 136.42 230.112 72.54 234.762 49.29C239.422 26.05 224.482 18 224.482 18ZM227.712 44.11C220.412 75.2 159.142 113.23 133.222 133.21C123.622 140.27 113.912 147.23 104.822 154.95C102.582 156.9 100.372 158.91 98.4917 161.22C97.9417 161.96 97.2217 162.81 97.1317 163.71L96.9517 163.78C96.9117 163.16 97.2117 162.76 97.4417 162.31C98.2217 161.02 99.2217 159.89 100.252 158.8C104.382 154.47 109.082 150.74 113.722 146.99C132.392 132.12 151.932 118.35 170.742 103.69C188.142 89.52 219.012 65.22 226.822 43.9C227.842 40.13 227.892 36.05 226.552 32.31L226.732 32.24C228.382 35.91 228.532 40.16 227.712 44.11Z"
    fill="white" />
  <path fill-rule="evenodd" clip-rule="evenodd"
    d="M63.5692 165.036C60.2508 167.191 56.3877 169.838 52.3646 172.878C56.4569 174.795 58.8767 178.29 60.2878 181.426C61.0948 183.219 61.5791 184.91 61.8619 186.151C61.8983 186.311 61.9314 186.464 61.9615 186.608C66.4149 183.467 69.9914 180.983 72.863 179.021C72.8091 178.687 72.7244 178.223 72.5969 177.663C72.3247 176.468 71.859 174.844 71.0859 173.126C69.7206 170.092 67.4187 166.809 63.5692 165.036ZM40.2895 182.993C43.9243 179.578 47.7457 176.411 51.4567 173.568C55.5493 175.293 57.9637 178.698 59.3759 181.836C60.149 183.554 60.6147 185.178 60.8869 186.373C60.9604 186.696 61.0197 186.987 61.0671 187.24L60.4019 187.71C56.9397 190.693 54.0816 193.432 51.7255 195.934C51.6664 195.707 51.5937 195.446 51.5051 195.157C51.1793 194.094 50.6376 192.644 49.7724 191.093C48.0962 188.087 45.1941 184.68 40.2895 182.993ZM39.5246 183.718C36.0895 187.003 32.8426 190.507 30.0403 194.166C33.7896 195.027 37.1393 197.341 39.7593 199.72C41.6684 201.454 43.2193 203.248 44.2924 204.608C44.3896 204.731 44.4829 204.851 44.5722 204.966C46.0413 202.611 48.0848 199.9 50.907 196.816C50.8967 196.767 50.8848 196.712 50.871 196.651C50.807 196.368 50.7039 195.956 50.549 195.45C50.2389 194.439 49.7225 193.057 48.899 191.58C47.2525 188.627 44.3912 185.313 39.5029 183.787L39.5246 183.718ZM22.1419 208.4C23.654 203.818 26.2 199.332 29.3757 195.048C33.0467 195.763 36.3973 198.018 39.087 200.46C40.9441 202.147 42.4576 203.897 43.5074 205.227C43.6918 205.461 43.8617 205.681 44.0166 205.886C42.2382 208.932 41.4526 211.337 41.1599 213.144C40.9523 212.972 40.7017 212.776 40.4075 212.567C39.4035 211.855 37.8902 210.987 35.8344 210.34C32.4936 209.29 27.7528 208.837 21.482 210.55C21.68 209.851 21.8996 209.134 22.1419 208.4ZM21.1785 211.675C19.2877 219.042 19.8654 224.416 21.5474 228.323C23.173 224.923 25.1891 222.579 27.3773 221.01C30.1239 219.04 33.1033 218.32 35.8366 218.229C38.5659 218.139 41.0593 218.675 42.8592 219.229L42.8673 219.232C42.4592 218.641 42.0019 218.033 41.4919 217.41C41.4919 217.41 40.9156 216.432 41.0261 214.366C40.9808 214.322 40.9254 214.269 40.8596 214.208C40.6361 214.003 40.2939 213.713 39.8289 213.383C38.899 212.723 37.4786 211.906 35.5345 211.294C32.2942 210.276 27.5644 209.82 21.1785 211.675ZM28.6319 236.22C26.3447 234.88 23.8303 232.771 22.1083 229.498C23.7298 225.816 25.7774 223.388 27.96 221.822C30.5131 219.992 33.2893 219.314 35.8698 219.228C38.4542 219.143 40.8327 219.652 42.565 220.185C42.9965 220.318 43.3868 220.452 43.7291 220.578C46.8748 225.918 45.8789 229.858 43.5888 232.655C43.8773 231.757 43.8781 230.838 43.4727 230.014C42.8811 228.81 41.6023 228.169 40.1451 228.018C38.6798 227.866 36.9543 228.193 35.2998 229.006C33.6452 229.82 32.3326 230.986 31.5583 232.24C30.7882 233.486 30.5147 234.89 31.1064 236.093C31.4273 236.746 31.9503 237.233 32.5944 237.567C31.2164 237.393 29.8668 236.945 28.6319 236.22ZM64.5515 164.402C68.3564 166.361 70.6424 169.704 71.9979 172.716C72.8048 174.509 73.2891 176.2 73.5719 177.441C73.654 177.802 73.7192 178.125 73.7705 178.402C79.6494 174.403 82.3248 172.769 83.5319 172.13C82.9019 164.64 77.2919 160.72 73.6219 158.95H73.6119C72.5521 159.537 69.1527 161.452 64.5515 164.402ZM61.7319 172.64C62.8144 172.64 63.6919 171.762 63.6919 170.68C63.6919 169.597 62.8144 168.72 61.7319 168.72C60.6494 168.72 59.7719 169.597 59.7719 170.68C59.7719 171.762 60.6494 172.64 61.7319 172.64ZM40.5319 190.16C40.5319 191.242 39.6544 192.12 38.5719 192.12C37.4894 192.12 36.6119 191.242 36.6119 190.16C36.6119 189.077 37.4894 188.2 38.5719 188.2C39.6544 188.2 40.5319 189.077 40.5319 190.16ZM26.8319 217.69C27.9144 217.69 28.7919 216.812 28.7919 215.73C28.7919 214.648 27.9144 213.77 26.8319 213.77C25.7494 213.77 24.8719 214.648 24.8719 215.73C24.8719 216.812 25.7494 217.69 26.8319 217.69ZM32.0038 235.652C31.6183 234.868 31.7439 233.842 32.409 232.765C33.0699 231.696 34.2284 230.647 35.741 229.904C37.2535 229.16 38.7912 228.883 40.0418 229.013C41.3003 229.143 42.1898 229.671 42.5753 230.455C42.9608 231.239 42.8351 232.265 42.1701 233.342C41.5092 234.411 40.3507 235.46 38.8381 236.203C37.3256 236.947 35.7879 237.224 34.5373 237.094C33.2788 236.964 32.3893 236.436 32.0038 235.652Z"
    fill="white" />
</svg>