<svg width="55" height="55" viewBox="0 0 256 256" fill="none" xmlns="http://www.w3.org/2000/svg">
  <path
    d="M98.2388 166.912C98.6488 165.112 85.4088 177.072 86.2288 175.412C84.8088 176.252 96.9686 163.459 95.3886 163.929C89.4886 165.729 83.1688 164.302 77.8188 161.362C77.8088 161.382 73.7888 168.092 76.9988 173.622C76.9988 173.622 76.9988 173.632 76.9788 173.662C80.4288 178.092 86.4288 184.202 92.9488 187.432C97.7088 188.832 101.239 185.742 101.859 185.142C98.3588 179.822 96.7488 173.202 98.2388 166.922V166.912Z"
    fill="white" />
  <path
    d="M203.069 92.4801L121.269 177.18C104.559 178.67 106.509 162.92 106.509 162.92C106.509 162.92 196.689 68.6901 211.189 54.4801C225.689 40.2701 226.829 30.7901 226.829 30.7901C226.829 30.7901 216.999 30.6401 203.309 45.6301C189.639 60.5901 97.3494 154.85 97.3494 154.85C97.3494 154.85 82.9194 156.51 83.8194 139.76L165.639 55.0401C165.639 55.0401 171.059 48.7701 169.489 43.8801C164.749 41.8901 157.929 47.8201 157.929 47.8201L71.7394 137.07C71.7394 137.07 67.7694 143.83 70.9994 151.4C72.8294 155.69 76.7094 159.41 77.9894 160.57C85.4794 164.21 94.9194 164.67 101.739 159.41L103.859 157.87C98.9594 164.5 97.6694 173.27 100.909 180.94C101.469 182.37 102.169 183.74 102.959 185.07C104.319 186.49 108.969 191.1 113.419 192.27C118.319 193.55 124.369 189.2 124.369 189.2L210.589 99.9301C210.589 99.9301 215.799 92.9401 214.349 88.8501C210.139 86.9901 203.089 92.5001 203.089 92.5001L203.069 92.4801ZM190.509 66.8401C200.419 56.5301 210.499 45.5601 221.159 36.4001C202.729 57.3401 180.479 78.3201 160.819 98.2301L160.709 98.1301C168.119 90.3001 183.049 74.6201 190.499 66.8501L190.509 66.8401Z"
    fill="white" />
  <path
    d="M66.6694 197.962C64.8694 195.922 62.5994 194.482 60.3194 193.452C59.1694 194.352 57.9894 195.252 56.8594 196.102C59.3694 197.182 61.9094 198.762 63.9294 201.042C64.9794 202.232 65.8094 203.552 66.4394 204.982C67.2294 203.802 68.0694 202.572 68.8994 201.382C68.3294 200.142 67.5994 198.992 66.6794 197.942L66.6694 197.962Z"
    fill="white" />
  <path
    d="M63.18 201.711C61.14 199.401 58.49 197.851 55.91 196.811C54.17 198.111 52.65 199.211 51.71 199.891C54.86 201.101 58.32 203.051 60.82 206.191C61.78 207.391 62.51 208.711 63.07 210.111C63.67 209.171 64.64 207.681 65.77 205.981C65.16 204.411 64.31 202.981 63.18 201.701V201.711Z"
    fill="white" />
  <path
    d="M60.0397 206.821C57.5097 203.641 53.8497 201.731 50.6497 200.591C49.6897 200.511 39.8897 199.911 36.5997 207.941C33.1597 216.361 35.0197 228.871 35.0197 228.871C35.0197 228.871 46.2597 230.291 54.5997 226.561C62.4697 223.031 62.4297 212.331 62.4097 211.231C61.8797 209.621 61.0997 208.141 60.0397 206.811V206.821ZM39.0497 224.441L38.6597 224.401L38.6197 224.001C38.0097 217.941 38.9997 211.451 42.4597 206.351C39.8197 211.621 39.0597 217.651 39.5797 223.481C45.5597 223.951 51.8697 222.891 56.9697 219.591C52.0497 223.681 45.3197 224.991 39.0497 224.451V224.441Z"
    fill="white" />
  <path
    d="M75.8197 175.412C73.6397 178.702 68.9497 185.612 66.2797 188.382C65.1897 189.512 63.2997 191.102 61.2197 192.752C63.4397 193.812 65.6397 195.282 67.4197 197.302C68.2797 198.272 68.9797 199.332 69.5497 200.462C71.0297 198.382 72.4197 196.552 73.3697 195.562C75.7497 193.102 83.0597 187.982 86.4097 185.692C82.2097 182.582 78.4597 178.722 75.8197 175.412Z"
    fill="white" />
</svg>