<svg width="256" height="256" viewBox="0 0 256 256" fill="none" xmlns="http://www.w3.org/2000/svg">
<path d="M40.8904 222.59L31.4404 230.85C31.9404 232.01 33.3404 234.55 36.5104 236.6L46.0404 228.19C43.0904 226.29 41.5804 224 40.8904 222.59ZM34.1204 233.85L33.3404 230.41L36.3104 231.67L37.2204 234.93L34.1104 233.85H34.1204ZM36.9404 231.08L36.1604 227.64L39.1304 228.9L40.0404 232.16L36.9304 231.08H36.9404ZM40.0104 228.2L39.2304 224.76L42.2004 226.02L43.1104 229.28L40.0004 228.2H40.0104Z" fill="white"/>
<path d="M30.6502 231.55L28.7402 233.22C29.4402 234.6 30.9902 236.93 34.0902 238.75L35.7402 237.3C32.7202 235.29 31.2702 232.9 30.6502 231.56V231.55Z" fill="white"/>
<path d="M43.0804 220.69L41.6904 221.91C42.2904 223.19 43.7504 225.59 46.8304 227.51L48.2604 226.25C45.3204 224.38 43.8004 222.12 43.0804 220.69Z" fill="white"/>
<path d="M78.4902 199.58L81.2502 197.15L75.9902 191.92L73.4902 194.11C74.1002 195.39 75.5302 197.71 78.5002 199.59L78.4902 199.58Z" fill="white"/>
<path d="M55.5003 209.83L46.0703 218.07C46.5603 219.21 47.9403 221.73 51.0703 223.77L60.6903 215.29C57.8003 213.47 56.2703 211.27 55.5103 209.82L55.5003 209.83ZM56.9003 213.17L57.8103 216.43L54.7003 215.35L53.9203 211.91L56.8903 213.17H56.9003ZM48.9603 220.78L48.1803 217.34L51.1503 218.6L52.0603 221.86L48.9503 220.78H48.9603ZM51.7603 218.21L50.9803 214.77L53.9503 216.03L54.8603 219.29L51.7503 218.21H51.7603Z" fill="white"/>
<path d="M45.2704 218.76L43.8604 219.99C44.4904 221.3 45.9703 223.67 49.0303 225.55L50.2803 224.45C47.3103 222.45 45.8804 220.09 45.2704 218.75V218.76Z" fill="white"/>
<path d="M70.1602 197.01L68.2402 198.69C68.9202 200.04 70.4102 202.3 73.3702 204.1L75.0902 202.58C72.2202 200.64 70.8002 198.36 70.1602 197.01Z" fill="white"/>
<path d="M72.7002 194.8L70.9502 196.33C71.4802 197.52 72.8702 199.93 75.8702 201.9L77.7102 200.28C74.8702 198.42 73.4002 196.2 72.7002 194.8Z" fill="white"/>
<path d="M67.4603 199.38L58.3203 207.37C59.1003 208.8 60.6903 210.97 63.6603 212.67L72.5903 204.79C69.7403 202.99 68.2203 200.82 67.4603 199.38ZM69.0603 202.4L69.9703 205.66L66.8603 204.58L66.0803 201.14L69.0503 202.4H69.0603ZM61.1603 210.12L60.3803 206.68L63.3503 207.94L64.2603 211.2L61.1503 210.12H61.1603ZM64.0703 207.35L63.2903 203.91L66.2603 205.17L67.1703 208.43L64.0603 207.35H64.0703Z" fill="white"/>
<path d="M27.9599 233.9L24.3099 237.09C23.5799 237.72 23.5499 238.84 24.2499 239.51L26.3499 241.55C27.5699 242.74 29.4999 242.79 30.7799 241.66L33.2999 239.44C30.3199 237.61 28.7399 235.38 27.9599 233.9Z" fill="white"/>
<path d="M84.8996 195.23C83.7296 194.15 82.1696 192.69 81.4496 191.94C80.4496 190.9 78.2196 188.31 77.4096 187.36L76.6796 186.56C76.0996 185.93 75.1096 185.93 74.5296 186.56L74.4396 186.66C73.9096 187.23 73.8996 188.12 74.4296 188.7L76.4896 191L82.0096 196.48H82.0196L84.5696 199.02C85.1196 199.57 86.0096 199.56 86.5496 199L86.5996 198.94C87.1796 198.35 87.1596 197.39 86.5696 196.82L84.9096 195.22L84.8996 195.23Z" fill="white"/>
<path d="M57.5403 208.04L56.2803 209.14C56.9503 210.49 58.4603 212.78 61.4603 214.6L62.8703 213.36C59.9903 211.64 58.3903 209.53 57.5503 208.04H57.5403Z" fill="white"/>
<path d="M94.9003 186.66C94.9003 186.55 94.8603 186.43 94.7803 186.34L88.1003 179.37C87.9303 179.19 87.6503 179.19 87.4703 179.36C87.2903 179.53 87.2903 179.81 87.4603 179.99L94.1403 186.96C94.3103 187.14 94.5903 187.14 94.7703 186.97C94.8603 186.89 94.9003 186.77 94.9103 186.66H94.9003Z" fill="white"/>
<path d="M81.54 186.93C81.98 186.91 83.01 186.86 83.01 186.86C84.09 186.85 85.21 186.81 86.34 186.79C86.43 186.6 86.61 186.46 86.82 186.42C86.84 185.64 86.86 184.89 86.9 184.24C87 183.46 87.01 182.57 87.14 181.78C84.61 184.11 82.69 185.88 81.54 186.94V186.93Z" fill="white"/>
<path d="M86.74 190.82C86.77 189.92 86.78 188.84 86.79 187.75C86.53 187.68 86.34 187.47 86.29 187.2C85.85 187.19 83 187.12 83 187.12C82.64 187.12 81.95 187.1 81.36 187.1C80.96 187.47 80.67 187.73 80.5 187.89C81.38 188.9 82.35 189.99 82.89 190.57C83.46 191.16 84.62 192.26 85.66 193.23C85.88 193.04 86.24 192.73 86.73 192.3C86.73 191.88 86.73 190.83 86.73 190.83L86.74 190.82Z" fill="white"/>
<path d="M87.6402 187.24C87.5902 187.48 87.4201 187.67 87.2001 187.74C87.1201 188.79 87.0402 189.82 86.9902 190.83C86.9802 191.01 86.9402 191.63 86.9102 192.15C88.1702 191.06 90.1601 189.32 92.7001 187.11C91.0901 187.34 89.3502 187.3 87.6502 187.25L87.6402 187.24Z" fill="white"/>
<path d="M87.69 181.27C87.58 181.37 87.47 181.47 87.37 181.57C87.46 183.16 87.39 184.81 87.29 186.47C87.42 186.54 87.53 186.65 87.6 186.78C89.36 186.77 91.12 186.81 92.79 187.03C92.87 186.96 92.95 186.89 93.03 186.82L87.71 181.27H87.69Z" fill="white"/>
<path d="M236.33 27.6499C236.33 27.6499 222.78 45.3099 204.4 66.0399C188.95 83.4599 169.74 102.98 155.81 116.76C134.03 138.29 104.16 166.08 89.3701 179.74L94.7301 185.33C109.95 171.99 139.32 145.95 147.71 136.29C159.19 123.06 238.39 53.9699 236.33 27.6599V27.6499Z" fill="white"/>
<path d="M202.71 21.9801C198.9 26.6401 192.65 34.1801 185.83 42.0001C175.52 53.8201 163.82 66.2601 159.36 71.0501C150.1 81.0001 121.86 110.98 100.73 131.06C90.5199 140.76 49.3799 178.44 49.3799 178.44C52.2699 183.51 55.2699 185.24 55.2699 185.24C55.2699 185.24 71.9399 171.16 90.8199 153.44C112.23 133.34 136.68 108.77 146.57 98.6301C161.98 82.8401 197.28 41.9301 209 28.2901C208.39 27.2501 206.03 23.5401 202.71 21.9901V21.9801ZM194.05 38.6101L193.27 35.1701L196.24 36.4301L197.15 39.6901L194.04 38.6101H194.05ZM198.48 33.6701L197.7 30.2301L200.67 31.4901L201.58 34.7501L198.47 33.6701H198.48ZM202.35 28.8201L201.57 25.3801L204.54 26.6401L205.45 29.9001L202.34 28.8201H202.35Z" fill="white"/>
<path d="M212.319 21.9601C211.309 19.6001 209.419 18.3701 208.079 17.7701C207.229 17.3901 206.239 17.6401 205.649 18.3601C205.109 19.0301 204.319 20.0001 203.359 21.1901C206.589 22.7901 208.859 26.1101 209.689 27.4801C210.609 26.4101 211.339 25.5501 211.879 24.9301C212.589 24.1101 212.749 22.9501 212.319 21.9601Z" fill="white"/>
<path d="M52.2298 188.32C52.2298 188.32 47.1698 184.24 46.2598 180.98L48.3798 179.35C48.3798 179.35 50.7598 183.83 54.4698 186.31C54.4698 186.31 53.1098 188.19 52.2398 188.32H52.2298Z" fill="white"/>
</svg>
