<svg width="256" height="256" viewBox="0 0 256 256" fill="none" xmlns="http://www.w3.org/2000/svg">
<path d="M96.4298 176.32C96.4298 176.32 96.7698 174.25 92.4998 169.74C89.3298 166.4 87.9898 168.22 87.9898 168.22C87.9898 168.22 85.1898 165.14 83.4098 166.83C81.9098 168.26 84.1498 171.64 84.1498 171.64C84.1498 171.64 84.3298 171.94 84.8898 172.62C84.9498 172.54 85.0098 172.49 85.0598 172.45C85.6898 171.94 86.3398 171.75 86.9798 171.79C86.5998 170.98 86.4498 170.28 86.5898 169.72C86.6098 169.65 86.6298 169.61 86.6598 169.55C86.5798 169.47 86.5198 169.36 86.4398 169.28C85.7398 168.57 84.9298 167.52 83.8798 167.46C83.4698 167.48 83.2798 168 83.2098 168.43C83.2098 167.97 83.2898 167.37 83.8198 167.21C85.0798 167.03 86.0898 167.97 87.0498 168.62C87.1298 168.69 87.2198 168.75 87.3098 168.81C87.3598 168.79 87.4098 168.77 87.4598 168.76C88.5098 168.58 89.5298 169.04 90.4198 169.53C93.0098 171.35 94.8998 174.33 95.6798 177.4C97.7098 179.05 100.24 180.98 100.34 183.81C100.33 184.21 100.17 184.63 99.8398 184.85C101.32 182.77 97.1898 179.4 95.3398 178.07C94.8898 177.83 94.3998 177.58 93.9098 177.38C94.3198 177.94 94.6798 178.46 94.9298 178.88C95.5698 179.95 95.7898 180.91 95.5698 181.75C95.4598 182.17 95.2598 182.48 95.0698 182.69C96.5798 184.14 99.8498 186.75 101.21 183.62C102.59 180.45 96.4398 176.3 96.4398 176.3L96.4298 176.32Z" fill="white"/>
<path d="M93.12 176.4C93.7 176.53 94.22 176.74 94.73 176.99C93.93 174.85 92.43 173.06 91 171.3C90.16 170.46 88.92 169.66 87.7 169.7C87.7 169.7 87.59 169.79 87.55 170.01C87.5 170.3 87.55 170.94 88.3 172.14C89.15 172.53 90.01 173.19 90.83 173.88C91.41 174.36 92.29 175.36 93.11 176.4H93.12Z" fill="white"/>
<path d="M237.44 30.16L91.9004 167.96C92.2104 168.19 92.5204 168.44 92.8404 168.73C94.4804 170.22 95.4604 171.8 96.1704 172.96C96.3104 173.18 96.4304 173.39 96.5604 173.58C97.1904 174.55 97.3504 175.44 97.3904 175.86L98.6404 176.94L229.64 52.6C229.64 52.6 240.53 40.88 237.44 30.16ZM225 49.84C221.02 55.59 208.2 67.17 203.12 72.26C182.72 91.54 132.91 138.51 111.75 157.84C140.62 130.28 188.59 83.44 217.37 56.98C222.33 52.23 227.11 46.99 230.18 40.78L230.32 40.84C228.99 44.07 227.08 47.04 225 49.84Z" fill="white"/>
<path d="M90.9401 184.55C90.9401 184.55 92.9501 184.08 94.0901 182.67C94.6901 180.93 90.9701 176.84 90.9701 176.84C90.9701 176.84 87.8501 173.33 85.5001 173.34C85.5001 173.34 83.7401 174.8 83.0801 176.28C84.2401 176.46 91.1701 183.29 90.9301 184.55H90.9401Z" fill="white"/>
<path d="M54.5205 203.6C54.8005 204.4 55.0305 205.21 55.2305 206.01C56.6205 205.87 57.9205 206.18 58.7405 206.48C58.4905 204.64 58.0805 202.71 57.4505 200.81L54.5205 203.61V203.6Z" fill="white"/>
<path d="M59.0406 214.67C59.0806 213.91 59.1206 213.01 59.1106 212C58.5106 211.73 57.3406 211.33 56.1406 211.44C56.3406 213.68 56.3406 215.7 56.2706 217.28L59.0406 214.67Z" fill="white"/>
<path d="M65.9409 208.17C66.0209 207.26 66.1209 205.87 66.1109 204.2C65.5509 203.95 64.4909 203.58 63.3809 203.62C63.7209 206.07 63.8009 208.36 63.7609 210.22L65.9309 208.17H65.9409Z" fill="white"/>
<path d="M55.1998 218.29C55.3998 215.31 55.4398 209.73 53.7198 204.37L51.0898 206.88C52.7898 212.23 52.7798 217.68 52.5798 220.76L55.1998 218.29Z" fill="white"/>
<path d="M62.72 211.2C62.85 207.87 62.68 202.53 60.88 197.53L58.25 200.04C60.03 205.06 60.23 210.3 60.1 213.67L62.72 211.2Z" fill="white"/>
<path d="M61.6699 196.77C61.8499 197.25 62.0199 197.72 62.1799 198.2C63.5899 198.04 64.9199 198.36 65.7499 198.66C65.5399 197.1 65.2099 195.47 64.7299 193.85L61.6699 196.77Z" fill="white"/>
<path d="M66.1009 203.11C66.0709 202.08 66.0109 200.96 65.8809 199.8C65.3209 199.56 63.9409 199.07 62.4609 199.19C62.7909 200.35 63.0409 201.5 63.2309 202.63C64.3409 202.57 65.3809 202.84 66.0909 203.11H66.1009Z" fill="white"/>
<path d="M59.1009 210.92C59.0709 209.89 59.0109 208.77 58.8809 207.61C58.3209 207.37 56.9409 206.88 55.4609 207C55.7209 208.18 55.9009 209.34 56.0309 210.46C57.2109 210.35 58.3409 210.64 59.0909 210.93L59.1009 210.92Z" fill="white"/>
<path d="M51.4899 221.79C51.5699 220.88 51.6499 219.56 51.6499 217.97C51.0899 217.72 50.0299 217.35 48.9199 217.39C49.2599 219.79 49.3299 222.02 49.2999 223.85L51.4799 221.79H51.4899Z" fill="white"/>
<path d="M32.0703 225.05C33.0703 225.77 34.0303 226.59 34.7003 227.25C35.0003 227.55 35.4203 228 35.8803 228.52C35.8803 227.2 35.7503 224.82 35.1403 222.13L32.0803 225.05H32.0703Z" fill="white"/>
<path d="M44.5706 228.3C44.6106 227.57 44.6406 226.72 44.6406 225.77C43.9906 225.48 42.7006 225.02 41.4106 225.23L41.2506 224.24C42.5406 224.04 43.8006 224.38 44.6206 224.69C44.5906 223.66 44.5306 222.54 44.4006 221.38C43.7906 221.12 42.2406 220.56 40.6406 220.8C41.5406 224.74 41.6306 228.54 41.5206 231.17L44.5606 228.3H44.5706Z" fill="white"/>
<path d="M38.9607 218.46L35.9707 221.31C37.0707 225.63 36.8607 229.29 36.8407 229.65C37.6507 230.62 38.4507 231.64 38.9207 232.35C39.1107 232.64 39.2707 232.92 39.4007 233.17L40.4707 232.17C40.6507 229.14 40.6507 223.68 38.9707 218.46H38.9607Z" fill="white"/>
<path d="M44.2698 220.25C44.0198 218.42 43.6198 216.5 42.9898 214.61L39.7598 217.69C39.9998 218.4 40.2198 219.11 40.3998 219.82C41.9198 219.57 43.3698 219.93 44.2598 220.25H44.2698Z" fill="white"/>
<path d="M47.2102 210.58C47.3902 211.04 47.5502 211.51 47.7002 211.98C49.1102 211.82 50.4402 212.14 51.2702 212.44C51.0602 210.89 50.7402 209.27 50.2602 207.66L47.2002 210.58H47.2102Z" fill="white"/>
<path d="M48.26 224.83C48.38 221.5 48.19 216.25 46.42 211.34L43.79 213.85C45.53 218.79 45.75 223.93 45.63 227.31L48.25 224.84L48.26 224.83Z" fill="white"/>
<path d="M51.6302 216.88C51.6002 215.85 51.5402 214.73 51.4102 213.57C50.8502 213.33 49.4702 212.84 47.9902 212.96C48.3202 214.12 48.5702 215.27 48.7602 216.4C49.8702 216.34 50.9102 216.61 51.6202 216.88H51.6302Z" fill="white"/>
<path d="M77.3998 197.37C77.4598 193.82 77.1298 188.61 75.2098 183.85L72.5898 186.35C74.4798 191.16 74.8398 196.27 74.7798 199.84L77.3998 197.37Z" fill="white"/>
<path d="M38.0903 232.9C37.2103 231.54 34.9403 228.9 33.9903 227.96C33.0903 227.08 32.1703 226.33 31.3403 225.74L30.0403 226.98C28.7603 228.2 28.7103 230.23 29.9303 231.51L33.2103 234.97C34.3303 236.15 36.1903 236.2 37.3703 235.09L38.6303 233.9C38.5303 233.64 38.3603 233.32 38.0903 232.9Z" fill="white"/>
<path d="M84.4604 190.72C84.7304 187.52 84.7704 181.73 82.4504 177.02C82.4304 177.01 82.4104 177 82.3904 176.98L79.9004 179.36C81.7304 184.51 81.8904 189.9 81.7404 193.27L84.4504 190.72H84.4604Z" fill="white"/>
<path d="M90.3207 185.19C90.2907 185.05 90.1707 184.66 89.6507 183.93C89.4207 183.61 89.1107 183.22 88.7507 182.79C88.1207 182.63 86.7207 182.38 85.2207 182.74C85.6307 185.32 85.6507 187.79 85.5407 189.7L90.3207 185.2V185.19Z" fill="white"/>
<path d="M85.42 179.25C84.95 178.82 84.47 178.44 84 178.08C84.46 179.29 84.81 180.52 85.05 181.75C86.03 181.53 86.95 181.52 87.7 181.6C86.83 180.64 85.92 179.7 85.42 179.25Z" fill="white"/>
<path d="M80.77 191.35C80.21 191.1 79.16 190.73 78.04 190.77C78.33 192.81 78.43 194.74 78.43 196.4L80.68 194.28C80.73 193.47 80.77 192.48 80.77 191.35Z" fill="white"/>
<path d="M68.9805 189.79C69.3705 190.91 69.6805 192.04 69.9205 193.16C71.3005 193.03 72.5805 193.34 73.3905 193.63C73.1005 191.51 72.6005 189.27 71.8005 187.1L68.9805 189.79Z" fill="white"/>
<path d="M73.7307 200.82C73.7507 200.31 73.7607 199.75 73.7607 199.16C73.1407 198.89 71.9207 198.46 70.6807 198.61C70.8107 200.54 70.8007 202.28 70.7307 203.65L73.7307 200.82Z" fill="white"/>
<path d="M73.7501 198.08C73.7201 197.05 73.6601 195.93 73.5301 194.77C72.9701 194.53 71.6001 194.04 70.1201 194.16C70.3401 195.35 70.5001 196.51 70.6001 197.63C71.8101 197.5 72.9701 197.8 73.7401 198.09L73.7501 198.08Z" fill="white"/>
<path d="M80.7504 190.27C80.7204 189.24 80.6603 188.12 80.5303 186.96C79.9703 186.72 78.5904 186.23 77.1104 186.35C77.4404 187.51 77.6903 188.66 77.8803 189.79C78.9903 189.73 80.0303 190.01 80.7403 190.28L80.7504 190.27Z" fill="white"/>
<path d="M69.66 204.66C69.87 201.71 69.94 196.01 68.17 190.56L65.54 193.07C67.28 198.51 67.24 204.07 67.03 207.13L69.65 204.66H69.66Z" fill="white"/>
<path d="M75.9902 183.1C76.3102 183.85 76.5902 184.6 76.8302 185.36C78.2402 185.2 79.5702 185.52 80.4002 185.82C80.1502 183.97 79.7402 182.03 79.1002 180.12L75.9902 183.09V183.1Z" fill="white"/>
<path d="M170.01 26.0701C170.01 25.7001 169.68 25.3901 169.28 25.3901C168.98 25.3901 168.72 25.5601 168.61 25.8001C168.36 25.8701 168.15 26.0301 168.03 26.2401C154.49 27.6501 141.37 20.5701 141.23 20.4901L140.75 21.3701C140.87 21.4401 151.96 27.4301 164.38 27.4301C164.93 27.4301 165.48 27.4001 166.03 27.3801C153.81 30.8101 140.98 27.4201 140.84 27.3801L140.58 28.3401C140.67 28.3701 146.48 29.9001 154.04 29.9001C158.63 29.9001 163.85 29.3201 168.84 27.5001C168.86 27.5001 168.88 27.5101 168.9 27.5101C169.45 27.5101 169.89 27.1101 169.89 26.6201C169.89 26.5601 169.86 26.5001 169.85 26.4501C169.94 26.3401 170 26.2101 170 26.0601L170.01 26.0701Z" fill="white"/>
<path d="M179.3 37.8C178.21 36.26 176.97 34.67 175.58 33.12C175.6 36.42 175.33 39.39 174.98 41.78L179.3 37.8Z" fill="white"/>
<path d="M169.791 26.55C171.491 27.77 173.061 29.13 174.501 30.55C174.361 28.18 174.051 25.68 173.481 23.15L169.791 26.55Z" fill="white"/>
<path d="M170.2 28.0899C172.35 32.8099 173.43 37.7899 173.94 42.0799C174.35 39.4099 174.68 35.9199 174.57 32.0299C173.24 30.6499 171.78 29.3099 170.2 28.0899Z" fill="white"/>
<path d="M46.9609 159.98L173.091 43.5401C172.641 38.7601 171.491 32.8801 168.801 27.4701L36.7109 149.41C39.1409 150.72 43.9709 153.95 46.9609 159.98Z" fill="white"/>
<path d="M190.58 17.25C186.05 12.02 183.79 13.62 183.79 13.62L180.95 16.24C182.72 17.26 184.9 19.29 186.02 20.5C187.08 21.65 189.6 24.82 190.6 26.43C190.74 26.65 190.84 26.85 190.95 27.05L193.78 24.43C193.78 24.43 195.12 22.47 190.59 17.24L190.58 17.25Z" fill="white"/>
<path d="M189.75 26.9701C188.78 25.4101 186.32 22.3101 185.29 21.1901C183.38 19.1201 181.38 17.6101 180.19 16.9601L174.33 22.3701C175.09 25.5601 175.45 28.7001 175.56 31.6301C177.26 33.4401 178.76 35.3101 180.05 37.1301L190.2 27.7601C190.09 27.5301 189.95 27.2801 189.76 26.9701H189.75Z" fill="white"/>
<path d="M35.5204 150.41C35.2004 150.36 35.0104 150.36 35.0104 150.36L33.2704 151.97C33.0204 152.2 32.9404 152.56 33.0704 152.88C35.7904 159.38 41.2404 162.81 43.1204 163.84C43.5004 164.05 43.9804 163.99 44.3004 163.7L46.3804 161.78C46.3804 161.78 46.3904 161.73 46.3804 161.67C43.2804 154.79 37.5204 151.41 35.5304 150.41H35.5204ZM43.1304 162.89C42.7104 163.28 40.3604 161.41 37.8704 158.72C35.3904 156.03 33.7104 153.54 34.1304 153.15C34.5504 152.76 36.9004 154.63 39.3904 157.32C41.8804 160.01 43.5504 162.5 43.1304 162.89Z" fill="white"/>
</svg>
