<svg width="55" height="55" viewBox="0 0 256 256" fill="none" xmlns="http://www.w3.org/2000/svg">
  <path
    d="M184.201 43.29C180.661 60.92 161.071 91.75 137.581 118.32C112.991 146.14 85.1307 169.98 77.4707 176.39C85.2707 180.29 87.4307 186.93 87.9907 191C123.801 162.11 159.951 133.69 183.741 107.17C218.201 68.76 232.541 37.04 232.541 37.04C211.031 52.19 184.201 43.3 184.201 43.3V43.29ZM136.421 143.81C122.431 156.7 107.441 169.4 91.5107 179.43C121.721 156.2 151.531 131.71 174.901 101.37L175.001 101.44C163.601 116.81 150.461 130.82 136.421 143.81ZM182.201 75.37C179.771 79.17 177.001 83.9 174.481 87.6C172.511 90.38 168.181 96.85 166.141 99.42C159.761 108 151.941 117.55 144.751 125.52C127.621 144.46 108.551 162.99 87.6207 177.13C109.751 158.72 130.891 138.86 150.131 117.42C153.791 113.09 159.021 107.08 162.391 102.61C164.041 100.47 166.731 97.19 168.251 94.99C170.141 92.33 174.901 85.94 176.561 83.21C177.861 81.21 180.511 77.15 181.811 75.15C183.621 72.23 187.271 65.66 189.031 62.66L189.191 62.74C187.461 65.83 183.911 72.47 182.201 75.39V75.37Z"
    fill="white" />
  <path
    d="M55.7407 169.84C56.6407 169.98 58.8806 170.18 60.6606 168.96C61.3606 168.48 61.9107 167.83 62.3307 167.02L62.2106 166.94C62.9106 165.19 62.6506 163.13 61.3206 161.62C59.4406 159.49 56.1906 159.29 54.0706 161.17C51.9406 163.05 51.7406 166.3 53.6206 168.42C54.2206 169.1 54.9606 169.57 55.7506 169.85L55.7407 169.84Z"
    fill="white" />
  <path
    d="M41.0402 211.11C42.5702 212.8 43.3702 214.82 43.8002 216.62C44.2702 216.3 44.7502 215.96 45.2702 215.6C44.3402 213.55 42.6802 211.14 39.7802 209.84C39.7502 209.86 39.7302 209.88 39.7002 209.9C40.1802 210.27 40.6302 210.66 41.0402 211.12V211.11Z"
    fill="white" />
  <path
    d="M31.2006 220.55C30.5306 219.38 29.2706 218.61 27.4806 218.26C27.4806 218.26 27.4806 218.28 27.4806 218.29C26.5206 218.87 22.5706 221.53 25.1006 224.39C26.3406 225.8 29.0706 225.17 31.7606 224C31.8906 222.84 31.8006 221.59 31.2006 220.55Z"
    fill="white" />
  <path
    d="M40.2801 211.79C39.5901 211.03 38.7801 210.4 37.8701 209.91C37.8401 209.89 37.8102 209.87 37.7702 209.86C35.0501 208.63 31.8801 208.93 29.6501 210.89C27.8401 212.49 27.0601 214.84 27.3001 217.19C29.6001 217.57 31.2102 218.52 32.0802 220.05C32.8502 221.4 32.9202 222.97 32.7402 224.36C35.3902 225.43 38.3901 225.09 40.5301 223.21C42.2101 221.73 43.0001 219.59 42.9201 217.41C42.5601 215.6 41.8201 213.49 40.2801 211.79Z"
    fill="white" />
  <path
    d="M63.2202 167.5C62.7302 168.46 62.0602 169.23 61.2202 169.8C60.4202 170.35 59.5502 170.65 58.7302 170.81C57.8802 172.5 58.1102 174.42 59.5202 176.01C61.2702 178 64.2102 178.27 66.3202 176.78C67.4002 175.96 68.1302 174.71 68.4802 173.03C68.5902 171.68 68.1802 170.3 67.2202 169.21C66.1702 168.02 64.6902 167.46 63.2202 167.5Z"
    fill="white" />
  <path
    d="M75.7501 177.82C75.7501 177.82 75.7401 177.83 75.7301 177.84C74.0901 177.16 72.5101 176.93 71.1601 177.18C70.1601 177.45 69.3301 177.92 68.6801 178.6C68.5601 178.72 68.4601 178.85 68.3601 178.98C67.5601 180.2 67.3601 181.86 67.6901 183.71C74.3201 186.72 75.5901 191.91 75.7501 194.83C77.2901 195.78 78.8501 196.38 80.2801 196.57C81.3401 196.67 82.8401 196.61 84.0301 195.79C84.8901 195.19 85.4801 194.26 85.8001 193.01C85.8201 192.93 85.8401 192.85 85.8601 192.76C85.9501 192.36 86.0101 191.94 86.0401 191.49C85.6201 187.8 83.6901 181.38 75.7401 177.82H75.7501Z"
    fill="white" />
  <path
    d="M86.8011 196.25L85.9611 195.23C85.6011 195.79 85.1511 196.25 84.6111 196.62C83.8311 197.16 82.9611 197.42 82.1211 197.53L83.6111 199.43C83.8911 198.8 84.2811 198.16 84.8211 197.6C85.3711 197.02 86.0411 196.57 86.8011 196.24V196.25Z"
    fill="white" />
  <path
    d="M67.0605 177.49L67.6805 178.2C67.7705 178.1 67.8505 177.99 67.9505 177.89C68.6105 177.19 69.4305 176.68 70.3805 176.34L69.0506 174.73C68.6006 175.88 67.9305 176.8 67.0605 177.49Z"
    fill="white" />
  <path
    d="M68.0006 184.97C67.3006 185.67 66.5006 186.46 65.6006 187.34C69.9006 189.65 71.6106 192.94 72.2606 195.6L74.4906 193.95C74.5706 194.01 74.6506 194.06 74.7306 194.12C74.4406 191.51 73.1006 187.56 68.0106 184.97H68.0006Z"
    fill="white" />
  <path
    d="M94.9501 204.64C94.4501 205.64 93.7701 206.45 92.9101 207.05C92.0601 207.63 91.1401 207.94 90.2701 208.09L90.3101 208.14C89.7601 209.82 90.0701 211.73 91.3201 213.15C93.2001 215.28 96.4501 215.48 98.5701 213.6C100.7 211.72 100.9 208.47 99.0201 206.35C97.9501 205.14 96.4501 204.58 94.9601 204.64H94.9501Z"
    fill="white" />
  <path
    d="M56.1705 207.58C56.1105 206.31 55.8305 204.93 55.1205 203.65C54.3405 202.24 53.1305 201.12 51.5205 200.3C48.7305 198.94 45.3505 199.26 42.9505 201.37C40.7105 203.35 39.9505 206.38 40.6805 209.16C43.4305 210.59 45.1005 212.97 46.0805 215.03C46.1205 215 46.1605 214.98 46.2005 214.95C48.7205 215.73 51.5305 215.26 53.6005 213.43C55.3205 211.91 56.1505 209.78 56.1405 207.61C56.1505 207.61 56.1605 207.59 56.1705 207.59V207.58Z"
    fill="white" />
  <path
    d="M89.5401 206.99L89.6401 207.15C90.5101 207.06 91.4801 206.8 92.3301 206.21C92.8801 205.83 93.3501 205.33 93.7201 204.74L93.6001 204.51C94.7201 202.64 94.5801 200.2 93.0601 198.48C91.6301 196.86 89.4201 196.37 87.5101 197.05C86.7401 197.33 86.0901 197.75 85.5601 198.3C84.9201 198.98 84.5201 199.78 84.2801 200.55C83.8501 202.16 84.1801 203.94 85.3601 205.28C86.4501 206.51 88.0001 207.08 89.5301 206.99H89.5401Z"
    fill="white" />
  <path
    d="M64.8299 188.09C64.8299 188.09 64.7699 188.15 64.7299 188.19C62.4799 187.79 60.1099 188.33 58.2999 189.93C56.4299 191.58 55.6099 193.96 55.7899 196.31C57.4799 196.68 58.8399 197.44 59.8099 198.61C60.9699 200.01 61.4499 201.78 61.5799 203.52C64.0899 204.28 66.8799 203.81 68.9499 201.99C70.5399 200.58 71.3699 198.65 71.4699 196.64C71.0499 194.05 69.5499 190.49 64.8299 188.09Z"
    fill="white" />
  <path
    d="M59.0311 199.25C58.1211 198.15 56.7911 197.47 55.0811 197.2C54.1911 197.99 53.2911 198.8 52.3711 199.6C53.9711 200.5 55.2011 201.68 56.0211 203.16C56.6911 204.36 57.0111 205.63 57.1411 206.82C57.4211 206.6 57.7011 206.38 57.9911 206.16L60.6111 204.22C60.5711 202.45 60.1811 200.61 59.0411 199.24L59.0311 199.25Z"
    fill="white" />
</svg>