<svg width="256" height="256" viewBox="0 0 256 256" fill="none" xmlns="http://www.w3.org/2000/svg">
<path d="M34.0898 228.77C34.1098 229.34 34.4998 229.9 35.4198 230.42C34.7898 229.99 34.2698 229.44 34.0898 228.77Z" fill="white"/>
<path d="M229.25 27.3199C228.37 26.8699 226.78 26.3599 224.63 28.5899C224.58 29.9899 224.33 31.2899 224.07 32.3099C224.18 32.1199 224.25 32.0099 224.26 31.9999C224.26 31.9999 224.91 30.6999 226.53 29.5899C227.42 28.9899 228.45 29.1399 229.29 29.4699C228.99 28.6999 228.82 27.8399 229.24 27.3199H229.25Z" fill="white"/>
<path d="M223.27 34.9999L223.29 34.8599C223.3 34.7799 223.31 34.7199 223.32 34.6599C223.21 35.1099 223.11 35.5499 223.01 35.9699C223.12 35.7799 223.2 35.4699 223.27 34.9999Z" fill="white"/>
<path d="M139.39 166.63C138.83 166.63 138.32 166.77 138.06 166.85C137.83 166.92 137.58 166.96 137.34 166.96C137 166.96 136.67 166.88 136.36 166.74C89.6997 205.98 42.0197 223.79 42.0197 223.79H41.9697C38.3497 225.41 34.9897 227.38 35.0197 228.28C35.0597 229.47 37.3197 230.34 38.5697 230.69C39.8797 230.33 41.5297 229.46 42.3997 227.41C42.3997 227.41 92.3297 204.35 104.49 197.72C112.47 193.37 127.12 182.69 142.02 170.11C141.58 166.63 140.05 166.62 139.4 166.62L139.39 166.63Z" fill="white"/>
<path d="M232.2 20.6899C230.09 19.6099 227.9 21.7599 227.9 21.7599C227.9 21.7599 225.37 24.1699 224.77 27.1199C227.34 25.0799 229.33 26.2099 230.06 26.6299C230.06 26.6299 230.07 26.6299 230.08 26.6399C231.02 25.8199 231.59 24.9399 231.59 24.9399C231.59 24.9399 234.31 21.7599 232.2 20.6899Z" fill="white"/>
<path d="M230.11 31.0399C229.58 30.6699 228.08 29.7499 227.11 30.4199C225.71 31.3799 225.14 32.4999 225.13 32.5099C225.09 32.5799 224.7 33.1499 224.42 34.0599C224.37 34.2199 224.37 34.2699 224.36 34.4099C224.35 34.5399 224.34 34.7099 224.29 35.0099L224.27 35.1399C224.18 35.7599 223.96 37.1399 222.72 37.2299C220.11 48.3299 219.58 51.4199 213.35 64.1999C202.95 85.5199 185.47 113.78 169.27 133.92C171.2 134.49 173.93 135.6 175.21 137.55C194.34 113.8 216.69 75.8499 221.75 56.2299C226.72 36.9499 226.79 35.8599 226.79 35.8599C226.79 35.8599 232.28 32.2699 230.12 31.0399H230.11Z" fill="white"/>
<path d="M31.54 230.37C31.24 229.71 31.17 229.05 31.19 228.47C29.72 229.51 27.78 231.22 27.73 232.95C27.65 235.75 29.54 235.61 29.54 235.61C29.54 235.61 31.57 234.84 32.01 233.12C32.16 232.55 32.43 232.15 32.73 231.85C32.2 231.44 31.8 230.95 31.54 230.37Z" fill="white"/>
<path d="M147.79 153.92C148.31 154.51 148.83 155.23 149.28 156.09C150.72 156.21 152.34 156.53 154.13 157.12C154.03 155.08 153.53 153.46 152.88 152.2C150.32 152.47 148.63 153.35 147.79 153.91V153.92Z" fill="white"/>
<path d="M152.359 149.75C152.699 150.15 153.039 150.6 153.349 151.11C154.699 151.03 156.239 151.11 157.989 151.46C157.749 150.1 157.319 148.97 156.799 148.03C154.529 148.4 153.059 149.25 152.359 149.74V149.75Z" fill="white"/>
<path d="M143.88 157.66C144.63 158.51 145.37 159.62 145.91 161.05C147.06 161.21 148.33 161.48 149.71 161.88C149.67 159.94 149.28 158.36 148.72 157.1C146.74 157 145.13 157.27 143.89 157.66H143.88Z" fill="white"/>
<path d="M152.089 163.76C151.609 163.57 151.129 163.4 150.669 163.24C150.629 163.92 150.559 164.62 150.439 165.37C150.949 164.88 151.489 164.35 152.079 163.76H152.089Z" fill="white"/>
<path d="M162.289 148.16C160.609 147.85 159.129 147.8 157.859 147.91C158.389 148.96 158.819 150.22 159.049 151.71C160.099 151.98 161.219 152.35 162.399 152.83C162.609 151.03 162.539 149.49 162.289 148.17V148.16Z" fill="white"/>
<path d="M161.46 143.58C162.12 144.56 162.71 145.77 163.08 147.27C164.16 147.51 165.31 147.85 166.54 148.32C166.63 146.7 166.48 145.3 166.19 144.11C164.4 143.68 162.82 143.53 161.46 143.58Z" fill="white"/>
<path d="M162.03 147.06C161.62 145.64 161.01 144.52 160.35 143.66C158.79 143.83 157.55 144.23 156.64 144.65C156.43 144.86 156.22 145.07 156.01 145.28C156.44 145.73 156.88 146.27 157.29 146.91C158.64 146.75 160.22 146.76 162.03 147.07V147.06Z" fill="white"/>
<path d="M145.219 161.99C143.939 161.85 142.819 161.85 141.859 161.94C142.459 163.21 142.899 164.78 143.019 166.67C143.079 166.77 143.139 166.88 143.189 166.99C143.949 166.8 144.809 166.66 145.769 166.6C145.839 164.78 145.619 163.26 145.219 161.99Z" fill="white"/>
<path d="M166.439 149.36C165.339 148.93 164.299 148.61 163.319 148.38C163.509 149.53 163.559 150.82 163.449 152.27C164.549 151.19 165.559 150.21 166.439 149.36Z" fill="white"/>
<path d="M140.319 161.12C140.179 160.9 140.029 160.69 139.879 160.5C139.589 160.82 139.299 161.13 139.029 161.44C139.409 161.32 139.849 161.21 140.319 161.12Z" fill="white"/>
<path d="M150.689 162.19C151.379 162.42 152.099 162.68 152.849 162.99C153.109 162.72 153.379 162.44 153.659 162.16C153.979 160.71 154.129 159.39 154.149 158.21C152.549 157.67 151.089 157.35 149.779 157.2C150.319 158.56 150.679 160.21 150.689 162.2V162.19Z" fill="white"/>
<path d="M164 138.43C165.69 138.38 167.71 138.72 169.95 139.86C169.1 137.59 167.72 136.22 166.7 135.46C166.26 135.58 165.19 136.04 163.27 137.79C163.5 137.97 163.75 138.19 164.01 138.43H164Z" fill="white"/>
<path d="M171.5 141.98C171.61 142.66 171.68 143.4 171.69 144.18C172.01 143.8 172.34 143.36 172.66 142.88C172.27 142.55 171.88 142.25 171.5 141.97V141.98Z" fill="white"/>
<path d="M153.91 152.14C154.58 153.54 155.07 155.3 155.13 157.48C155.84 157.74 156.57 158.05 157.32 158.4C157.47 158.24 157.62 158.09 157.77 157.94C158.2 155.87 158.28 154.09 158.14 152.56C156.56 152.22 155.14 152.11 153.91 152.15V152.14Z" fill="white"/>
<path d="M144.83 160.93C144.29 159.68 143.59 158.72 142.91 158.01C142.46 158.2 142.09 158.39 141.77 158.57C141.37 158.96 140.96 159.37 140.55 159.8C140.82 160.15 141.09 160.54 141.35 160.97C142.35 160.85 143.51 160.82 144.83 160.94V160.93Z" fill="white"/>
<path d="M170.42 145.56C169.3 145.07 168.25 144.69 167.25 144.4C167.49 145.54 167.6 146.84 167.54 148.3C169.09 146.81 170.12 145.85 170.42 145.57V145.56Z" fill="white"/>
<path d="M159.16 152.8C159.25 153.97 159.21 155.26 159 156.69C160.03 155.65 161.03 154.66 161.96 153.73C160.98 153.34 160.04 153.03 159.16 152.8Z" fill="white"/>
<path d="M147.93 167.67C147.5 167.64 147.09 167.62 146.69 167.63C146.66 168 146.61 168.39 146.56 168.79C146.96 168.49 147.41 168.13 147.93 167.68V167.67Z" fill="white"/>
<path d="M145.69 167.66C144.92 167.71 144.22 167.83 143.59 167.97C143.77 168.53 143.92 169.18 144.01 169.94C144.01 169.94 144.18 170.3 145.42 169.56C145.55 168.89 145.64 168.26 145.7 167.66H145.69Z" fill="white"/>
<path d="M148.99 166.73C149.06 166.67 149.13 166.6 149.2 166.54C149.49 165.22 149.64 164.02 149.69 162.93C148.45 162.55 147.31 162.3 146.27 162.13C146.62 163.39 146.81 164.87 146.76 166.57C147.46 166.57 148.2 166.63 149 166.73H148.99Z" fill="white"/>
<path d="M171.19 140.57C171.84 140.98 172.51 141.46 173.18 142.02C173.81 140.86 174.14 139.62 173.55 138.69C172.6 137.2 170.15 136.28 168.52 135.81C169.54 136.88 170.58 138.42 171.19 140.57Z" fill="white"/>
<path d="M141.9 165.41C141.7 164.09 141.32 162.99 140.86 162.06C139.36 162.3 138.33 162.74 137.75 163.05C137.11 163.96 136.77 164.72 136.99 165.11C136.99 165.11 139.8 163.85 141.9 165.4V165.41Z" fill="white"/>
<path d="M154.92 160.86C155.48 160.28 156.04 159.71 156.58 159.15C156.09 158.93 155.6 158.73 155.13 158.55C155.11 159.28 155.04 160.04 154.92 160.86Z" fill="white"/>
<path d="M160.69 142.57C162.16 142.46 163.88 142.55 165.85 142.98C165.28 141.41 164.46 140.26 163.66 139.44C162.63 139.5 161.76 139.72 161.09 139.95C160.9 140.15 160.71 140.35 160.51 140.57C160.23 140.88 159.94 141.2 159.64 141.51C159.98 141.81 160.33 142.15 160.68 142.56L160.69 142.57Z" fill="white"/>
<path d="M162.66 138.55C162.66 138.55 162.58 138.49 162.55 138.46C162.51 138.5 162.46 138.54 162.42 138.59C162.5 138.58 162.58 138.56 162.66 138.55Z" fill="white"/>
<path d="M148.16 156.03C147.69 155.23 147.15 154.59 146.64 154.09C145.45 155.16 144.72 155.8 144.72 155.8C144.72 155.8 144.4 156.09 143.89 156.56C145.05 156.22 146.47 156 148.16 156.03Z" fill="white"/>
<path d="M166.959 143.25C168.129 143.57 169.379 144 170.709 144.58C170.719 143.32 170.589 142.21 170.359 141.23C168.349 140.03 166.509 139.54 164.939 139.44C165.719 140.4 166.459 141.65 166.959 143.25Z" fill="white"/>
<path d="M152.29 151.21C151.94 150.7 151.58 150.26 151.22 149.89C150.31 150.74 149.45 151.54 148.67 152.25C149.59 151.82 150.79 151.41 152.3 151.2L152.29 151.21Z" fill="white"/>
<path d="M156.199 147.07C155.899 146.65 155.599 146.29 155.299 145.97C154.549 146.71 153.799 147.43 153.069 148.13C153.859 147.73 154.899 147.32 156.209 147.06L156.199 147.07Z" fill="white"/>
<path d="M159.519 142.71C159.339 142.53 159.169 142.37 158.989 142.22C158.759 142.47 158.519 142.72 158.279 142.96C158.669 142.86 159.079 142.77 159.519 142.7V142.71Z" fill="white"/>
<path d="M229.55 27.5001C227.67 26.2201 225.81 27.4101 224.88 28.3401C223.95 29.2701 223.86 29.6701 222.68 31.5101C222.01 32.5701 220.72 33.9101 219.68 34.9201C219.08 34.8001 218.51 34.9701 218.26 35.4001C218.11 35.6601 218.1 35.9801 218.21 36.2901C218.15 36.3401 218.11 36.3801 218.11 36.3801L44.0397 217.19C44.2197 216.49 44.2997 215.65 44.1797 214.63L43.1897 214.74C43.4797 217.3 42.3997 218.51 41.9797 218.88C41.1497 219.06 40.5497 219.56 40.5497 220.14C40.5497 220.32 40.6097 220.49 40.7097 220.65L40.6597 220.7C40.6597 220.7 38.3197 221.66 38.6397 222.74C38.6397 222.74 33.9297 223.86 32.7597 226.44C31.5997 229.02 32.6097 230.37 32.6097 230.37C32.6097 230.37 34.7697 233.12 36.3197 230.92L35.0097 229.98C35.0097 229.98 33.5397 229.1 34.4097 227.36C35.2797 225.62 38.9997 224.14 38.9997 224.14L40.8697 223.25C40.8697 223.25 41.7497 223.13 41.7697 221.94C41.7697 221.94 42.1097 221.75 42.5197 221.47C42.5697 221.47 42.6197 221.47 42.6697 221.47C43.8497 221.47 44.7997 220.87 44.7997 220.13C44.7997 219.85 44.6597 219.59 44.4297 219.37L218.32 38.9701C218.29 39.6401 218.46 40.2901 219.06 40.7301L219.65 39.9201C219.06 39.4801 219.34 38.4101 219.7 37.5801C220.35 37.7401 220.97 37.5801 221.24 37.1201C221.42 36.8101 221.4 36.4301 221.23 36.0601C221.55 35.9901 222.41 35.8101 223.03 35.8501C223.17 35.3801 223.95 32.8701 224.19 32.3801C224.13 31.4001 226.03 29.4501 227.37 29.2201C228.9 28.9601 230.29 29.9301 230.29 29.9301C230.29 29.9301 231.43 28.7601 229.55 27.4801V27.5001Z" fill="white"/>
</svg>
