<svg width="256" height="256" viewBox="0 0 256 256" fill="none" xmlns="http://www.w3.org/2000/svg">
<path d="M45.1599 231.75L45.1799 231.73L29.8999 217.27L29.8699 217.3L27.7899 215.33C26.8699 214.45 25.4099 214.49 24.5299 215.42L24.3999 215.56C23.4799 216.54 23.5199 218.07 24.4899 219L43.5799 237.07C44.5199 237.96 46.0099 237.92 46.8999 236.98L47.1599 236.71C48.0099 235.82 47.9699 234.4 47.0699 233.56L45.1599 231.76V231.75Z" fill="white"/>
<path d="M94.2003 179.38L78.6803 164.84C77.5703 163.94 75.9303 164.03 74.9403 165.09L74.6603 165.39C73.7003 166.41 73.6903 167.97 74.5703 169.02L89.2803 182.8L89.3003 182.78L90.4703 183.85C91.5403 184.82 93.1903 184.76 94.1803 183.71L94.4903 183.38C95.4903 182.32 95.4303 180.54 94.3703 179.54L94.2103 179.39L94.2003 179.38Z" fill="white"/>
<path d="M45.8496 230.99L88.5996 183.54L75.3096 171.09L30.5996 216.56L45.8496 230.99Z" fill="white"/>
<path d="M130.51 115.22L80.5801 165.26L93.9001 177.73L140.21 124.68L130.51 115.22Z" fill="white"/>
<path d="M145.2 119.3L172.65 90.3C170.9 89.19 167.81 86.8 163.72 81.94L136.15 110.47L145.2 119.3Z" fill="white"/>
<path d="M145.8 121.29L144.49 120.05L144.51 120.03L133.72 109.51C132.68 108.91 131.33 109.06 130.47 109.97L130.38 110.07C129.4 111.1 129.43 112.7 130.4 113.72L131.04 114.34L131.22 114.51L140.87 123.92L140.9 123.89L142.57 125.47C143.55 126.4 145.29 126.3 146.22 125.32L146.28 125.26C147.24 124.25 147.21 122.67 146.24 121.69L145.82 121.28L145.8 121.29Z" fill="white"/>
<path d="M222.6 41.3399L207.93 27.4599C207.79 27.3199 207.78 27.0999 207.92 26.9599L208.64 26.1899C212.32 22.2999 218.46 22.1299 222.35 25.8099L223.47 26.8699C227.35 30.5399 227.51 36.6599 223.85 40.5299L223.1 41.3199C222.96 41.4599 222.74 41.4699 222.6 41.3299V41.3399Z" fill="white"/>
<path d="M197.13 20.38L180.74 22.41C182.07 27.35 172.55 41.04 172.55 41.04C179.25 48.73 172.96 65.1 172.96 65.1C172.96 65.1 166.88 54.81 162.31 62.87C157.74 70.93 165.14 80.48 165.14 80.48L165.11 80.51C169.45 85.7 172.59 87.96 174.05 88.84C181.97 92.9 185.98 94.07 191.61 90.75C199.75 85.95 189.46 81.36 189.46 81.36C199.03 71.77 213.5 79.55 213.5 79.55C217.03 74.52 230.73 69.64 230.73 69.64L232.18 53.59L197.11 20.4L197.13 20.38ZM180.86 50.07C182.02 48.71 183.16 47.32 184.25 45.9C187.6 41.86 189.74 37.1 191.86 32.34C195.94 31.52 200.05 30.79 204.19 30.42L204.24 30.61C200.67 31.99 197 33.07 193.3 34.06C190.88 40.31 186.71 45.64 182.14 50.47C182.67 56.41 181.22 62.33 178.75 67.69L178.57 67.61C180.73 62.09 181.78 55.93 180.86 50.06V50.07ZM168.13 75.2C167.71 76.7 167.42 78.23 167.1 79.77L166.9 79.75C167.05 75.87 167 69.32 170.69 66.98C173.06 65.85 175.52 67.91 176.22 70.03L176.06 70.15C174.89 69.48 173.52 68.56 172.26 68.66C169.55 69.32 168.87 72.8 168.12 75.19L168.13 75.2ZM169.72 82.24C169.6 82.24 169.48 82.2 169.38 82.11C169.18 81.92 169.17 81.61 169.35 81.4L210.7 36.68C210.89 36.48 211.2 36.47 211.41 36.65C211.61 36.84 211.62 37.15 211.44 37.36L170.09 82.08C169.99 82.19 169.86 82.24 169.72 82.24ZM171.96 84.36C171.84 84.36 171.71 84.32 171.62 84.22C171.42 84.03 171.41 83.71 171.6 83.51L213.47 39.28C213.66 39.08 213.98 39.07 214.18 39.26C214.38 39.45 214.39 39.77 214.2 39.97L172.33 84.2C172.23 84.3 172.1 84.36 171.97 84.36H171.96ZM187.13 82.18C185.03 85.97 178.43 86.31 174.59 86.67L174.56 86.47C176.08 86.07 177.6 85.69 179.07 85.19C181.41 84.31 184.86 83.44 185.36 80.7C185.39 79.44 184.4 78.12 183.66 76.99L183.77 76.82C185.93 77.41 188.12 79.75 187.12 82.18H187.13ZM219.5 58.92C214.87 61.29 210.23 63.69 206.38 67.26C205.03 68.43 203.69 69.64 202.4 70.87L202.11 70.84C196.28 70.34 190.3 71.7 185 74.12L184.91 73.94C188.87 71.81 193.2 70.33 197.68 69.78C199.09 69.62 200.47 69.53 201.93 69.6C204.27 67.18 206.64 64.87 209.26 62.73C211.88 60.67 214.69 58.98 217.69 57.57C218.48 53.85 219.37 50.15 220.55 46.53L220.75 46.57C220.6 50.71 220.09 54.82 219.49 58.92H219.5Z" fill="white"/>
</svg>
