<svg width="55" height="55" viewBox="0 0 256 256" fill="none" xmlns="http://www.w3.org/2000/svg">
  <g clip-path="url(#clip0_268_2374)">
    <path
      d="M70.0507 187.348L72.1023 190.382C73.9932 193.184 76.2185 195.751 78.7236 198.02L81.4367 200.482L207.423 91.2637L203.492 87.7477C201.999 86.4076 200.674 84.8947 199.535 83.2474L196.029 78.1365L70.0428 187.354L70.0507 187.348Z"
      fill="white" />
    <path
      d="M214.1 61.4362C215.29 61.425 216.32 60.7523 216.895 59.7442L222.33 61.9417C222.268 63.0158 222.494 64.1031 223.009 65.0633C225.137 68.9973 230.502 69.3799 233.167 65.7874C234.508 63.977 234.694 61.4712 233.615 59.4957C232.434 57.3061 230.243 56.2265 228.088 56.3018C228.045 56.284 228.003 56.2514 227.96 56.2336L220.931 53.3906C221.37 53.0231 221.831 52.6791 222.333 52.3677C226.66 49.7064 232.38 50.2915 236.117 53.7272C241.288 58.4987 241.054 66.5492 235.889 71.0271C234.125 72.5562 232.022 73.4553 229.874 73.7454C228.382 73.9493 227.193 75.0761 227.013 76.5703L226.813 78.233C226.704 79.1412 226.26 79.9813 225.575 80.5752L214.323 90.3297C212.787 91.6608 210.465 91.4952 209.133 89.9598L205.197 86.4213C203.649 85.0328 202.283 83.458 201.129 81.7283L198.184 77.3297C196.853 75.7942 197.019 73.4716 198.554 72.1405L209.862 62.3382C210.523 61.7648 211.366 61.4481 212.245 61.4443L214.108 61.4293L214.1 61.4362Z"
      fill="white" />
    <path
      d="M58.4134 225.612L51.5945 231.524C48.5329 229.185 45.2942 226.325 42.3317 222.907C39.3692 219.49 36.9626 215.839 35.1115 212.478L41.9305 206.567C43.811 209.929 46.1902 213.549 49.1664 216.982C52.1426 220.415 55.345 223.266 58.4134 225.612Z"
      fill="white" />
    <path
      d="M66.0356 219.005L59.2166 224.916C56.155 222.578 52.9164 219.717 49.9538 216.3C46.9913 212.882 44.5847 209.231 42.7336 205.871L49.5526 199.959C51.4331 203.322 53.8124 206.941 56.7886 210.374C59.7648 213.808 62.9671 216.658 66.0356 219.005Z"
      fill="white" />
    <path
      d="M43.0668 238.916L36.1533 244.91C33.3978 242.734 30.5472 240.129 27.9123 237.09C24.588 233.255 22.0118 229.186 20.0719 225.516L26.7885 219.694C28.7163 223.222 31.1985 227.056 34.3522 230.693C37.1372 233.906 40.1706 236.642 43.0668 238.916Z"
      fill="white" />
    <path
      d="M50.7913 232.22L43.87 238.22C40.9648 235.967 37.9315 233.231 35.1396 230.011C31.9791 226.365 29.5048 222.525 27.5917 218.997L34.3083 213.175C36.1888 216.537 38.5681 220.157 41.5443 223.59C44.5205 227.023 47.7229 229.874 50.7913 232.22Z"
      fill="white" />
    <path
      d="M27.1328 237.766C29.7608 240.797 32.6036 243.408 35.358 245.599L30.5391 249.777C29.3737 250.787 27.6433 250.812 26.4509 249.818L25.7252 249.22C21.0658 245.356 17.0725 240.75 13.9024 235.582L13.413 234.778C12.6053 233.465 12.8681 231.748 14.0335 230.737L19.2698 226.198C21.2312 229.876 23.8163 233.924 27.1338 237.751L27.1328 237.766Z"
      fill="white" />
    <path
      d="M73.6656 212.39L66.8466 218.302C63.785 215.963 60.5464 213.102 57.5839 209.685C54.6213 206.268 52.2148 202.617 50.3637 199.256L57.1826 193.345C59.0631 196.707 61.4424 200.327 64.4186 203.76C67.3948 207.193 70.5972 210.044 73.6656 212.39Z"
      fill="white" />
    <path
      d="M65.2059 203.077C62.2229 199.636 59.8368 196.009 57.9857 192.648L63.3086 188.034C64.7023 186.826 66.8354 187.059 67.9255 188.555L70.8803 192.6C72.5296 194.852 74.359 196.963 76.3548 198.915L79.9395 202.414C81.2658 203.705 81.1942 205.85 79.8005 207.058L74.4697 211.679C71.4081 209.341 68.1695 206.48 65.2069 203.062L65.2059 203.077Z"
      fill="white" />
    <path
      d="M200.376 50.6529L200.373 50.6628C199.937 52.0644 198.448 52.8476 197.047 52.4122L182.686 47.951C181.285 47.5156 180.501 46.0264 180.937 44.6249L180.94 44.6149C181.375 43.2134 182.864 42.4302 184.266 42.8656L198.627 47.3268C200.028 47.7622 200.811 49.2513 200.376 50.6529Z"
      fill="white" />
    <path
      d="M228.978 60.6434L228.974 60.6531C228.424 62.0138 226.875 62.671 225.515 62.121L209.206 55.5292C207.845 54.9792 207.188 53.4304 207.738 52.0697L207.742 52.06C208.292 50.6993 209.841 50.0421 211.201 50.5921L227.51 57.1839C228.871 57.7339 229.528 59.2828 228.978 60.6434Z"
      fill="white" />
    <path
      d="M175.794 42.6624L175.791 42.6724C175.356 44.0739 173.866 44.8571 172.465 44.4217L158.104 39.9605C156.703 39.5251 155.92 38.036 156.355 36.6344L156.358 36.6245C156.793 35.2229 158.283 34.4397 159.684 34.8751L174.045 39.3363C175.446 39.7717 176.229 41.2609 175.794 42.6624Z"
      fill="white" />
    <path
      d="M211.653 49.6413C211.036 49.3904 210.382 49.3365 209.77 49.4258L201.111 46.74C200.598 46.5779 200.077 46.5333 199.556 46.5848C199.378 46.4909 199.191 46.4184 198.996 46.3528L194.132 44.8462C196.196 42.7402 199.349 41.8273 202.355 42.7656L211.121 45.496C213.196 46.1388 214.89 47.5524 215.905 49.4864C216.283 50.193 216.54 50.9353 216.686 51.6918L211.659 49.6639L211.653 49.6413Z"
      fill="white" />
    <path
      d="M196.787 53.4128C196.975 53.4705 197.15 53.4978 197.34 53.5261C197.736 53.8721 198.205 54.1419 198.747 54.3061L207.513 57.0365C208.366 57.3041 209.234 57.2552 210.022 56.9716L214.611 58.8279C212.542 61.0075 209.348 61.9692 206.283 61.0267L197.517 58.2963C196.021 57.8277 194.753 56.9689 193.797 55.8666C192.841 54.7642 192.187 53.373 191.937 51.9072L196.801 53.4139L196.787 53.4128Z"
      fill="white" />
    <path
      d="M184.636 41.8792C184.506 41.8403 184.382 41.8241 184.265 41.801C184.252 41.7852 184.238 41.7695 184.224 41.7537C183.753 41.2104 183.141 40.79 182.41 40.568L173.644 37.8376C173.189 37.6943 172.726 37.654 172.259 37.6724L166.658 35.9359C168.721 33.8299 171.875 32.917 174.881 33.8553L183.647 36.5857C186.784 37.5628 188.896 40.2694 189.298 43.327L184.636 41.8792Z"
      fill="white" />
    <path
      d="M170.004 44.744C170.381 45.0516 170.816 45.2821 171.286 45.4264L180.052 48.1568C180.449 48.2811 180.845 48.3241 181.237 48.3152C181.594 48.5991 181.992 48.8196 182.432 48.9618L186.776 50.3131C184.71 52.2417 181.691 53.0386 178.815 52.1391L170.049 49.4087C168.553 48.9401 167.284 48.0813 166.329 46.979C165.373 45.8766 164.719 44.4854 164.461 43.0265L170.011 44.7519L170.004 44.744Z"
      fill="white" />
    <path
      d="M120.499 24.2603C122.801 19.3271 126.969 15.2583 132.492 13.2289C133.979 12.6848 135.474 12.326 136.981 12.1231L140.818 4.72847L144.53 12.4471C150.296 13.7373 155.414 17.3969 158.452 22.7479L166.207 23.611L160.859 29.2949C162.138 35.9239 160.181 42.64 155.852 47.51L157.699 55.3838L150.106 52.05C149.199 52.5467 148.266 52.9973 147.272 53.3623C143.069 54.9096 138.708 55.0493 134.666 54.0298L128.658 59.4449L127.902 50.9841C124.322 48.557 121.424 45.0556 119.815 40.6857C118.541 37.2114 118.213 33.6199 118.723 30.1989L113.628 25.61L120.499 24.2603ZM149.739 39.7901C144.028 41.0452 151.458 41.1686 153.303 40.8937C152.652 39.0301 151.934 37.1837 150.611 35.6414C150.581 36.9912 150.823 38.2717 151.191 39.5243C150.707 39.5858 150.213 39.6688 149.732 39.7823L149.739 39.7901ZM126.313 40.2107C128.227 40.7166 130.163 41.1352 132.166 40.9013C131.062 40.1208 129.865 39.6143 128.615 39.2223C128.83 38.7871 129.04 38.3293 129.213 37.8761C131.345 32.4284 127.105 38.5311 126.305 40.2175L126.313 40.2107ZM136.635 23.2905C137.61 22.3627 138.345 21.2848 138.973 20.1329C139.358 20.4336 139.759 20.7207 140.183 20.9874C145.108 24.1383 139.948 18.7913 138.447 17.6796C137.588 19.4579 136.794 21.2777 136.635 23.2905Z"
      fill="white" />
  </g>
  <defs>
    <clipPath id="clip0_268_2374">
      <rect width="256" height="256" fill="white" />
    </clipPath>
  </defs>
</svg>