<svg width="55" height="55" viewBox="0 0 256 256" fill="none" xmlns="http://www.w3.org/2000/svg">
  <path
    d="M223.313 50.3787C212.713 62.5633 109.396 164.83 95.4441 178.641C92.8543 172.158 90.1453 164.827 89.7574 162.231C105.287 147.183 225.093 30.8184 229.618 19.1791C229.618 19.1791 234.693 37.3056 223.313 50.3787Z"
    fill="white" />
  <path
    d="M48.7941 210.504C50.6703 208.274 54.5447 207.732 60.277 208.851L48.5252 219.908C48.1345 218.912 46.2268 213.552 48.7941 210.504Z"
    fill="white" />
  <path
    d="M65.4089 197.875C63.9227 200.101 59.8086 200.665 53.4365 199.574C56.9306 196.216 60.6122 192.626 64.1352 189.168C65.4517 191.624 67.0132 195.477 65.4088 197.865L65.4089 197.875Z"
    fill="white" />
  <path
    d="M73.6813 185.895C72.8318 186.874 72.5555 188.147 72.5695 189.447C72.6011 192.387 74.1644 195.481 74.2564 195.67C74.2564 195.67 74.2566 195.68 74.2667 195.689L61.1881 207.991C54.6729 206.611 50.2192 207.219 48.0073 209.843C46.7927 211.286 46.4223 213.11 46.4409 214.84C46.4718 217.71 47.5699 220.318 47.6517 220.487C47.6723 220.547 47.7128 220.586 47.7533 220.636L44.2485 223.934C43.4764 222.812 42.6437 221.631 41.7203 220.391C40.2894 218.456 38.7378 216.453 37.1866 214.489C39.4393 212.865 45.5187 207.199 52.5267 200.463C59.8418 201.825 64.4648 201.155 66.2759 198.456C68.2345 195.524 66.3664 191.054 64.918 188.42C72.548 180.937 79.2962 174.224 81.5423 171.99C83.1731 175.773 85.3768 180.759 86.7809 183.924L85.187 185.431C79.3678 183.674 75.4891 183.816 73.6914 185.905L73.6813 185.895Z"
    fill="white" />
  <path
    d="M74.4586 186.567C75.9007 184.891 79.2998 184.794 84.3155 186.231L75.0487 194.951C74.5164 193.806 72.4339 188.928 74.4586 186.567Z"
    fill="white" />
  <path
    d="M40.8863 220.999C41.8302 222.279 42.6932 223.49 43.4856 224.642L43.4858 224.652C43.4858 224.652 43.496 224.672 43.5263 224.701C43.6584 224.9 43.8006 225.098 43.9327 225.297C44.2808 226.043 44.4054 227.402 42.3749 229.234C42.3749 229.234 39.408 232.326 36.8554 234.884C34.3917 237.35 31.7444 237.609 29.3675 234.194C25.4469 228.576 23.0657 224.761 28.0647 219.987C32.7766 215.486 34.2515 213.14 36.1093 214.79C37.7415 216.843 39.3844 218.965 40.8863 220.999ZM33.1114 220.583L29.9057 223.788C29.5 224.192 29.345 224.654 29.3502 225.144C29.3591 225.974 29.8392 226.909 30.3991 227.823L32.8004 231.657C33.2047 232.053 33.8203 232.566 34.5584 232.388C35.0472 232.273 35.4132 231.899 35.8387 231.474L39.4587 227.735C40.5371 226.654 39.7411 225.172 38.9757 223.74L36.9545 220.852C36.3032 219.799 35.5904 219.546 35.1 219.512C34.3895 219.469 33.7034 219.837 33.0915 220.593L33.1114 220.583Z"
    fill="white" />
  <path
    d="M36.1001 221.401L36.1204 221.431L38.1111 224.28C38.897 225.751 39.2254 226.528 38.7406 227.013L35.18 230.702C34.8338 231.055 34.5468 231.339 34.3373 231.381C34.1677 231.423 33.9162 231.285 33.5828 230.969L31.283 227.283C30.357 225.793 30.1784 224.995 30.6433 224.52L33.8786 221.275C34.2931 220.761 34.7005 220.516 35.0508 220.542C35.5011 220.568 35.866 221.024 36.1001 221.401Z"
    fill="white" />
  <path
    d="M87.8423 157.121C87.8423 157.121 86.7599 161.553 87.9318 163.59C89.1362 168.638 93.6256 179.72 95.1967 183.534C96.4568 187.26 97.6085 192.998 93.657 194.741C87.655 197.375 89.4415 190.526 89.4415 190.526C89.4415 190.526 89.9182 187.43 88.4335 185.136C87.173 182.31 84.2624 175.751 82.3033 171.201C82.3033 171.201 75.5705 155.163 81.1846 153.652C86.7988 152.152 87.8223 157.121 87.8223 157.121L87.8423 157.121Z"
    fill="white" />
</svg>