<svg width="55" height="55" viewBox="0 0 256 256" fill="none" xmlns="http://www.w3.org/2000/svg">
  <path
    d="M166.88 174.79C159.91 173.99 152.85 170.71 147.37 167.47C145.17 169.83 142.84 172.38 140.41 175.11C146.13 178.42 153.51 181.75 160.55 182.19C162.65 179.82 164.76 177.34 166.88 174.78V174.79Z"
    fill="white" />
  <path
    d="M177.41 161.03C172.11 157.98 168.68 154.36 166.98 152.25C166.22 151.3 165.63 150.45 165.16 149.69C163.7 151.02 160.67 153.85 156.58 157.95C161.81 160.95 168.37 163.91 174.78 164.69C175.67 163.48 176.55 162.26 177.42 161.03H177.41Z"
    fill="white" />
  <path
    d="M173.76 166.04C167.23 165.08 160.69 162.04 155.51 159.01C153.37 161.17 150.98 163.63 148.38 166.39C153.96 169.62 161.11 172.85 167.99 173.42C169.93 171.03 171.86 168.56 173.76 166.04Z"
    fill="white" />
  <path
    d="M165.46 147.93C165.94 148.75 166.58 149.74 167.49 150.86C169.13 152.9 172.4 156.51 177.56 159.45C178.69 159.95 182.82 162.85 185.04 158.7C186.63 155.73 185.92 153.7 185.92 153.7C185.92 153.7 184.56 153.14 184.6 153.13C183.93 152.77 183.2 152.35 182.39 151.82C179.84 150.13 175.17 146.44 171.35 140.25C171.33 140.43 163.02 139.38 165.45 147.93H165.46Z"
    fill="white" />
  <path
    d="M124.611 194.1C123.251 195.85 121.891 197.63 120.521 199.45C123.021 205.09 126.981 207.7 129.381 208.82C130.651 209.41 131.821 209.74 132.831 209.93C134.601 208.38 138.361 205.03 143.221 200.32C136.731 199.86 130.071 197.09 124.611 194.1Z"
    fill="white" />
  <path
    d="M131.75 211.12C130.85 210.9 129.85 210.57 128.8 210.07C127.55 209.48 125.89 208.52 124.22 207C122.42 205.36 120.6 203.05 119.21 199.87C118.09 199.57 115.81 199.64 112.86 203.28C108.12 209.13 114.74 215.57 114.74 215.57C114.74 215.57 119.59 220.24 122.92 220.16C125.74 220.09 133.21 217.36 131.75 211.12Z"
    fill="white" />
  <path
    d="M152.04 191.45C145.07 191.13 137.85 188.07 132.08 184.83C129.93 187.42 127.74 190.12 125.54 192.93C131.21 195.99 138.12 198.78 144.67 198.92C146.95 196.69 149.43 194.18 152.05 191.45H152.04Z"
    fill="white" />
  <path
    d="M180.43 129.05C177.51 130.96 173.58 134.28 172.29 138.81L172.33 138.79C176.13 145.54 181.1 149.45 183.72 151.19C184.95 152 186.01 152.56 186.88 152.96C189.07 151.87 192.93 149.2 196.55 143.13C196.32 142.8 196.07 142.46 195.81 142.11C193.36 138.84 188.43 133.39 180.43 129.05Z"
    fill="white" />
  <path
    d="M159.33 183.58C152.24 182.87 145.02 179.52 139.44 176.23C137.36 178.59 135.22 181.08 133.03 183.69C138.99 186.98 146.45 190.05 153.41 190.02C155.33 187.99 157.32 185.83 159.33 183.58Z"
    fill="white" />
  <path
    d="M61.2202 192.25C61.1602 192.25 61.1102 192.26 61.0602 192.27C61.0602 192.27 61.9802 183.4 52.2702 173.44C42.5602 163.48 24.4802 168.82 24.4802 168.82C24.4802 168.82 21.3102 184.71 32.9702 195.33C39.4802 201.26 45.7802 202.73 50.0802 202.87C53.0002 202.97 55.8602 202.1 58.2602 200.43L59.8302 199.34C61.1802 198.41 61.4102 194.87 61.2302 192.24L61.2202 192.25ZM37.3202 188.95C40.8502 192.77 45.7802 194.99 50.6202 196.75C49.3402 196.45 48.0502 196.14 46.7702 195.8C42.9602 194.57 39.2602 192.72 36.3402 189.92C32.1602 185.94 29.9602 180.03 30.8902 174.22C43.0302 172.42 52.2202 180.62 54.8902 192.06C51.2002 182.32 43.3702 174.79 32.5302 175.89C32.1402 180.6 34.1002 185.47 37.3302 188.94L37.3202 188.95Z"
    fill="white" />
  <path
    d="M219.51 130.77C215.09 129.85 208.43 132.54 208.43 132.54C208.43 132.54 215.69 126.49 226.74 124.94C226.74 124.94 230.73 123.64 225.7 122.88C220.67 122.12 209.42 128.67 209.42 128.67C209.42 128.67 218.75 119.65 229.3 117.33C229.3 117.33 232.81 114.96 228.05 114.68C223.29 114.4 211.58 123.24 211.58 123.24C211.58 123.24 219.77 114.86 227.2 113.35C227.2 113.35 229.2 110.52 223.9 111.55C221.2 112.07 220.16 112.76 218.06 113.71C225.12 105.71 242.43 82.43 231.28 56.97C217.48 25.46 184.08 27.35 184.08 27.35C184.08 27.35 152.46 24.66 121.14 62.2C89.8204 99.73 95.1404 140.56 95.1404 140.56C95.1404 140.56 97.5504 186.99 62.6004 192.1C62.6804 193.25 62.7404 195.11 62.4404 196.84C64.9504 196.26 81.6104 192.05 88.9504 181.25C96.9004 169.55 99.6704 155.67 100.04 140.41C100.41 125.15 103.94 92.11 126.24 69.33C142.7 52.51 176.42 22.47 210.51 47.78C244.6 73.1 198.48 118.49 198.48 118.49C198.48 118.49 207 104.29 207.71 96.34C207.71 96.34 206.54 93.91 205.03 97.15C203.51 100.39 206.24 99.13 193.69 119.21C193.69 119.21 201.7 98.35 199.34 92.2C196.4 84.51 195.76 97.62 195.76 97.62C195.76 97.62 193.55 112.64 189.25 121.38C189.25 121.38 193.11 108.58 191.65 100.57C190.19 92.56 187.71 100.96 187.71 100.96C187.71 100.96 188.13 119.01 183.01 127.16L186.4 129.43C189.53 131.53 192.41 133.98 194.98 136.74L198.12 140.12C198.12 140.12 201.03 140.07 204.78 137.35C208.53 134.63 216.02 133.74 216.02 133.74L220.13 133.51C220.13 133.51 223.68 131.66 219.5 130.79L219.51 130.77Z"
    fill="white" />
</svg>