<svg width="55" height="55" viewBox="0 0 256 256" fill="none" xmlns="http://www.w3.org/2000/svg">
  <path
    d="M188.699 35.1601C188.439 34.8901 188.249 34.5401 188.189 34.1401C188.029 33.1201 188.729 32.1701 189.739 32.0101L200.339 30.3501C201.359 30.1901 202.309 30.8901 202.469 31.9001C202.629 32.9201 201.929 33.8701 200.919 34.0301L190.319 35.6901C189.699 35.7901 189.109 35.5701 188.699 35.1501V35.1601Z"
    fill="white" />
  <path
    d="M173.701 45.2593C173.641 45.1993 173.581 45.1293 173.531 45.0593C172.921 44.2293 173.091 43.0593 173.921 42.4493L182.551 36.0793C183.381 35.4693 184.561 35.6393 185.161 36.4693C185.771 37.2993 185.601 38.4693 184.771 39.0793L176.141 45.4493C175.381 46.0093 174.341 45.9093 173.701 45.2593Z"
    fill="white" />
  <path
    d="M212.849 88.85C212.139 88.13 212.139 86.97 212.849 86.24L220.329 78.55C221.049 77.81 222.229 77.8 222.969 78.51L222.999 78.54C223.709 79.26 223.709 80.42 222.999 81.15L215.519 88.84C214.799 89.58 213.619 89.59 212.879 88.88L212.849 88.85Z"
    fill="white" />
  <path
    d="M207.829 34.99C207.309 34.46 207.139 33.65 207.449 32.94C207.859 32 208.959 31.57 209.909 31.98L219.739 36.27C220.669 36.68 221.119 37.78 220.699 38.73C220.279 39.68 219.189 40.1 218.239 39.69L208.409 35.4C208.179 35.3 207.989 35.16 207.819 35L207.829 34.99Z"
    fill="white" />
  <path
    d="M213.929 34.77C213.999 34.44 214.059 34.13 214.069 33.8L210.079 32.02C210.359 32.63 210.419 33.3 210.299 33.97C210.149 34.67 209.759 35.26 209.209 35.71L212.779 37.3C213.329 36.55 213.719 35.7 213.929 34.77ZM208.149 36.25C207.649 36.4 207.119 36.42 206.589 36.31L202.019 35.3C201.699 35.24 201.399 35.12 201.139 34.96C201.099 34.97 201.069 34.97 201.029 34.99L196.749 35.63C196.799 35.74 196.849 35.84 196.919 35.93C197.189 36.34 197.479 36.71 197.819 37.06C198.729 37.99 199.899 38.65 201.219 38.93L205.789 39.94C207.569 40.34 209.389 40.02 210.939 39.04C211.389 38.75 211.799 38.4 212.159 38.02L208.139 36.24L208.149 36.25ZM213.019 29.63C212.059 28.09 210.529 27.03 208.749 26.63L204.179 25.62C202.399 25.22 200.569 25.53 199.029 26.52C197.719 27.36 196.749 28.59 196.259 30.07L200.199 29.48C200.289 29.47 200.379 29.46 200.479 29.44C200.769 29.42 201.049 29.46 201.309 29.54C201.929 29.19 202.659 29.11 203.369 29.27L207.939 30.28C208.399 30.38 208.809 30.58 209.159 30.86C209.539 30.86 209.949 30.92 210.329 31.1L214.079 32.77C213.999 31.67 213.629 30.6 213.019 29.63Z"
    fill="white" />
  <path
    d="M189.459 28.02C187.659 27.7 185.849 28.09 184.339 29.14L180.499 31.8C179.009 32.84 178.009 34.4 177.689 36.2C177.539 37.03 177.539 37.86 177.679 38.67L181.879 35.57C181.879 35.57 181.909 35.54 181.929 35.54H181.939C182.129 35.27 182.349 35.04 182.629 34.85L186.469 32.19C187.009 31.81 187.639 31.62 188.279 31.64C188.639 31.34 189.099 31.12 189.599 31.05L193.549 30.47C192.519 29.15 191.069 28.31 189.449 28.01L189.459 28.02ZM194.969 35.91L190.759 36.54C190.559 36.81 190.309 37.06 190.009 37.27L186.159 39.95C185.709 40.26 185.189 40.45 184.649 40.49L180.889 43.26C181.579 43.68 182.369 43.97 183.199 44.13C184.989 44.46 186.799 44.05 188.299 43.02L192.149 40.34C193.699 39.26 194.669 37.64 194.959 35.91H194.969Z"
    fill="white" />
  <path
    d="M226.869 55.5601C226.659 55.3501 226.499 55.0801 226.409 54.7701L223.439 44.4601C223.149 43.4701 223.729 42.4401 224.719 42.1501C225.709 41.8601 226.739 42.4301 227.029 43.4201L229.999 53.7301C230.289 54.7201 229.709 55.7501 228.719 56.0401C228.039 56.2401 227.329 56.0301 226.869 55.5501V55.5601Z"
    fill="white" />
  <path
    d="M223.439 74.51C222.979 74.04 222.779 73.35 222.979 72.68L226.009 62.39C226.299 61.4 227.339 60.84 228.329 61.13C229.319 61.42 229.879 62.46 229.589 63.45L226.559 73.74C226.269 74.73 225.229 75.29 224.239 75C223.919 74.91 223.649 74.74 223.439 74.52V74.51Z"
    fill="white" />
  <path
    d="M153.289 78.49C160.279 71.29 165.399 66.05 166.999 64.49C174.139 57.49 167.359 51.14 167.359 51.14C167.359 51.14 161.139 44.23 153.999 51.23C152.399 52.79 147.059 57.81 139.719 64.65L153.289 78.5V78.49Z"
    fill="white" />
  <path
    d="M194.269 120.33C201.259 113.13 206.379 107.89 207.979 106.33C215.119 99.33 208.409 92.97 208.409 92.97C208.409 92.97 202.119 86.06 194.979 93.06C193.379 94.62 188.039 99.64 180.699 106.48L194.269 120.33Z"
    fill="white" />
  <path d="M228.318 67.78L229.608 63.59L228.318 67.78Z" fill="white" />
  <path
    d="M229.969 53.7001C229.589 53.4501 229.159 53.3001 228.669 53.2501C227.719 53.1601 226.829 53.51 226.209 54.12L225.139 50.3401C226.229 49.7401 227.469 49.4401 228.769 49.5201L229.969 53.7001Z"
    fill="white" />
  <path
    d="M223.849 66.43C223.569 66.23 223.309 66.02 223.079 65.78C222.949 65.65 222.809 65.5 222.689 65.35C221.529 63.95 220.979 62.17 221.159 60.35L221.589 55.7C221.769 53.7 222.809 51.97 224.319 50.86L225.499 55.03C225.499 55.03 225.509 55.1 225.529 55.14C225.409 55.42 225.329 55.73 225.299 56.05L224.879 60.71C224.819 61.26 224.919 61.79 225.149 62.27L223.849 66.44V66.43Z"
    fill="white" />
  <path
    d="M232.308 66.24C231.428 66.97 230.408 67.42 229.328 67.65L230.528 63.76C230.668 63.37 230.658 62.96 230.608 62.56C230.838 62.18 230.988 61.75 231.028 61.29L231.468 56.63C231.528 55.92 231.348 55.23 230.958 54.65C231.018 54.28 230.988 53.89 230.878 53.5L229.778 49.66C231.278 49.97 232.638 50.77 233.618 51.98C234.788 53.39 235.338 55.15 235.158 56.97L234.728 61.65C234.568 63.45 233.688 65.09 232.298 66.25L232.308 66.24Z"
    fill="white" />
  <path
    d="M227.02 43.4C227.02 43.42 227.04 43.43 227.04 43.44L228.26 47.7L227.04 43.45C227.04 43.43 227.02 43.42 227.02 43.4Z"
    fill="white" />
  <path
    d="M218.039 39.63L214.249 37.94C214.409 36.71 214.909 35.52 215.739 34.53L219.439 36.18C219.269 36.27 219.089 36.39 218.949 36.53C218.059 37.33 217.739 38.55 218.049 39.63H218.039Z"
    fill="white" />
  <path
    d="M223.819 49.1C222.149 49.02 220.519 48.34 219.279 47.08L219.069 46.87L215.939 43.38C214.809 42.12 214.219 40.53 214.199 38.94L217.819 40.56C218.069 40.68 218.349 40.75 218.619 40.77C218.649 40.82 218.669 40.85 218.709 40.89L221.829 44.36C222.059 44.63 222.339 44.83 222.629 44.99L223.809 49.1H223.819Z"
    fill="white" />
  <path
    d="M229.04 47.02L227.94 43.18C227.8 42.72 227.55 42.31 227.2 41.97C227.14 41.35 226.9 40.73 226.44 40.21L223.31 36.75L223.21 36.64C222.68 36.09 221.95 35.76 221.18 35.71C220.98 35.69 220.78 35.71 220.61 35.74C220.47 35.62 220.3 35.53 220.11 35.45L216.39 33.79L216.44 33.74C219.22 31.22 223.57 31.45 226.07 34.25L229.2 37.74C231.61 40.42 231.48 44.46 229.03 47.02H229.04Z"
    fill="white" />
  <path
    d="M216.079 81.6L215.869 81.84C214.969 80.06 214.829 77.9 215.719 75.93L217.649 71.66C218.389 69.99 219.739 68.73 221.449 68.07C222.119 67.83 222.799 67.71 223.479 67.67L222.199 71.85C221.699 72.16 221.299 72.63 221.039 73.2L219.119 77.45C218.939 77.83 218.849 78.24 218.859 78.65L216.089 81.6H216.079Z"
    fill="white" />
  <path
    d="M224.349 85.1101C222.999 85.6201 221.569 85.6901 220.249 85.3201L223.259 82.1301L223.709 81.6301C223.979 81.3401 224.179 81.0101 224.309 80.6701C224.479 80.4701 224.619 80.2401 224.739 79.9901L226.669 75.7201C226.779 75.4801 226.809 75.2201 226.849 74.9701C227.089 74.6801 227.269 74.3501 227.369 73.9901L228.709 69.6801C229.359 70.3501 229.899 71.1301 230.229 72.0301C230.879 73.7401 230.829 75.6001 230.069 77.2501L228.149 81.5301C227.389 83.1801 226.049 84.4501 224.339 85.1001L224.349 85.1101Z"
    fill="white" />
  <path
    d="M168.63 49.8801C170.15 51.4101 171.21 53.0901 171.72 54.8301C171.8 55.1201 171.87 55.3901 171.92 55.6701L179.52 48.2201C179.52 48.2201 181.3 46.1022 180.25 43.2422L178.137 44.771C177.937 44.911 177.714 45.0574 177.52 45.2201C177.4 45.7101 177.13 46.1801 176.73 46.5701C175.56 47.7201 173.67 47.7101 172.52 46.5401C171.37 45.3701 171.39 43.4701 172.56 42.3201C172.95 41.9401 173.41 41.7001 173.9 41.5801C174.309 41.2491 174.693 40.9681 175.123 40.6581L176.738 39.4101C173.768 37.9601 170.98 39.4101 170.98 39.4101L163.6 46.6401C165.12 47.1001 166.79 48.0201 168.63 49.8701V49.8801Z"
    fill="white" />
  <path
    d="M169.929 55.3601C169.499 53.9001 168.679 52.6301 167.299 51.2001C165.269 49.1701 163.569 48.4301 162.009 48.2001L161.619 48.5901L169.789 57.7601L170.239 57.3201C170.209 56.7401 170.129 56.0701 169.919 55.3701L169.929 55.3601Z"
    fill="white" />
  <path
    d="M209.589 91.74C211.169 93.29 212.169 94.93 212.689 96.69C212.749 96.89 212.789 97.08 212.829 97.28L218.879 91.35C218.879 91.35 220.729 89.25 219.419 86.28L219.109 86.61L217.279 88.53C217.139 88.69 216.949 88.84 216.769 88.94C216.649 89.13 216.519 89.3 216.359 89.47C215.239 90.56 213.449 90.54 212.359 89.43C211.269 88.32 211.289 86.53 212.399 85.43C212.589 85.25 212.799 85.1 213.019 84.98C213.079 84.89 213.129 84.8 213.209 84.72L214.649 83.2L215.479 82.31C212.669 81.04 210.319 82.56 210.319 82.56L204.339 88.42C205.919 88.85 207.659 89.78 209.599 91.73L209.589 91.74Z"
    fill="white" />
  <path
    d="M210.899 97.22C210.469 95.76 209.619 94.49 208.269 93.06C206.129 90.9 204.339 90.22 202.709 90.02L201.419 91.28L209.609 100.44L211.199 98.88C211.159 98.37 211.079 97.81 210.899 97.21V97.22Z"
    fill="white" />
  <path d="M54.0495 144.27L49.0195 149.01L67.0795 167.45L71.9295 162.51L54.0495 144.27Z" fill="white" />
  <path d="M74.8192 159.57L57.0592 141.43L55.4092 142.99L73.2392 161.18L74.8192 159.57Z" fill="white" />
  <path d="M36.7393 160.59L55.2493 179.48L56.8393 177.87L38.3893 159.04L36.7393 160.59Z" fill="white" />
  <path d="M46.0195 151.84L64.1895 170.39L65.7695 168.78L47.6595 150.29L46.0195 151.84Z" fill="white" />
  <path d="M39.749 157.76L58.149 176.54L62.879 171.72L44.659 153.12L39.749 157.76Z" fill="white" />
  <path d="M58.4092 140.15L76.1292 158.24L81.2592 153.01L63.7392 135.13L58.4092 140.15Z" fill="white" />
  <path
    d="M78.0498 121.87L94.8098 138.98C96.6298 137.1 98.5898 135.06 100.67 132.91L84.2398 116.14C82.0498 118.17 79.9698 120.09 78.0498 121.87Z"
    fill="white" />
  <path
    d="M85.6094 114.87L101.969 131.56C102.499 131.01 103.039 130.45 103.579 129.89L87.3094 113.29C86.7394 113.82 86.1694 114.35 85.6094 114.87Z"
    fill="white" />
  <path
    d="M53.9494 180.81L35.3894 161.86L28.3894 168.46C28.3894 168.46 13.9694 180.63 24.8694 190.74C34.7494 201.84 47.2094 187.67 47.2094 187.67L53.9494 180.81Z"
    fill="white" />
  <path
    d="M68.1299 131.05L85.4299 148.7C86.8099 147.27 88.5799 145.44 90.6499 143.29L73.6499 125.94C71.4599 127.97 69.5899 129.7 68.1299 131.05Z"
    fill="white" />
  <path
    d="M75.0195 124.67L91.9395 141.94C92.4495 141.41 92.9695 140.87 93.5095 140.31L76.6795 123.13C76.1095 123.66 75.5595 124.17 75.0195 124.67Z"
    fill="white" />
  <path
    d="M65.0996 133.86L82.5596 151.68C82.8996 151.32 83.4296 150.77 84.1296 150.05L66.7596 132.32C66.0196 133 65.4596 133.52 65.0996 133.86Z"
    fill="white" />
  <path d="M115.81 201.4L98.0404 183.27L96.4004 184.82L114.22 203.01L115.81 201.4Z" fill="white" />
  <path d="M95.0398 186.1L90.0098 190.84L108.07 209.28L112.92 204.34L95.0398 186.1Z" fill="white" />
  <path d="M80.7295 199.59L99.1295 218.37L103.869 213.55L85.6495 194.96L80.7295 199.59Z" fill="white" />
  <path d="M87 193.68L105.17 212.22L106.76 210.61L88.65 192.12L87 193.68Z" fill="white" />
  <path d="M77.7295 202.42L96.2395 221.32L97.8295 219.7L79.3695 200.87L77.7295 202.42Z" fill="white" />
  <path d="M99.4004 181.99L117.11 200.07L122.25 194.85L104.73 176.96L99.4004 181.99Z" fill="white" />
  <path
    d="M109.12 172.88L126.42 190.53C127.8 189.1 129.57 187.27 131.64 185.12L114.64 167.77C112.45 169.8 110.58 171.53 109.12 172.88Z"
    fill="white" />
  <path
    d="M116.01 166.51L132.93 183.78C133.44 183.25 133.96 182.71 134.5 182.15L117.67 164.97C117.1 165.5 116.55 166.01 116.01 166.51Z"
    fill="white" />
  <path
    d="M94.9299 222.65L76.3699 203.7L69.3699 210.3C69.3699 210.3 54.9499 222.47 65.8499 232.58C75.7299 243.68 88.1899 229.51 88.1899 229.51L94.9299 222.65Z"
    fill="white" />
  <path
    d="M126.59 156.71L142.95 173.4C143.48 172.85 144.02 172.29 144.56 171.73L128.29 155.13C127.72 155.66 127.15 156.19 126.59 156.71Z"
    fill="white" />
  <path
    d="M106.09 175.69L123.55 193.51C123.89 193.15 124.42 192.6 125.12 191.88L107.75 174.15C107.01 174.83 106.45 175.35 106.09 175.69Z"
    fill="white" />
  <path
    d="M119.04 163.7L135.8 180.81C137.62 178.93 139.58 176.89 141.66 174.74L125.23 157.97C123.04 160 120.96 161.92 119.04 163.7Z"
    fill="white" />
  <path
    d="M136.99 67.1899C123.22 80.0099 103.9 97.9299 88.6797 112.03L104.87 128.56C119.28 113.63 137.59 94.6799 150.69 81.1799L136.99 67.1899Z"
    fill="white" />
  <path
    d="M177.97 109.02C164.2 121.84 144.88 139.76 129.66 153.86L145.85 170.39C160.26 155.46 178.57 136.51 191.67 123.01L177.97 109.02Z"
    fill="white" />
</svg>