<svg width="55" height="55" viewBox="0 0 256 256" fill="none" xmlns="http://www.w3.org/2000/svg">
  <path
    d="M229.871 38.84C229.871 38.84 226.221 29.73 211.551 15C211.551 15 210.201 40.08 157.921 88.54L78.1914 168.2L94.6514 186.24L204.681 95.45C204.681 95.45 243.821 69.42 229.881 38.84H229.871ZM219.481 68.12C214.331 78.63 205.791 87.07 196.681 94.19C168.861 116.39 135.351 144.16 107.681 166.94C134.101 143.36 167.77 114.85 195 92C212.83 77.98 229.371 57.79 220.331 34.44C226.081 44.73 224.701 57.84 219.471 68.11L219.481 68.12Z"
    fill="white" />
  <path
    d="M76.6509 169.74L76.3709 170.02C76.3709 170.02 74.7909 169.2 73.8809 170.19C67.8609 176.75 44.4209 200.78 25.9209 217.14C25.9209 217.14 18.1909 227.99 27.8809 237.25C37.5609 246.51 45.9009 232.56 45.9009 232.56C45.9009 232.56 61.9609 200.47 80.3109 199.12L93.0209 187.67L76.6609 169.73L76.6509 169.74ZM35.6409 231.89C34.9109 232.55 33.7909 232.49 33.1309 231.76C32.4709 231.03 32.5309 229.91 33.2609 229.25C33.9909 228.59 35.1109 228.65 35.7709 229.38C36.4309 230.11 36.3709 231.23 35.6409 231.89ZM40.1409 221.68C39.4109 222.34 38.2909 222.28 37.6309 221.55C36.9709 220.82 37.0309 219.7 37.7609 219.04C38.4909 218.38 39.6109 218.44 40.2709 219.17C40.9309 219.9 40.8709 221.02 40.1409 221.68ZM46.0509 213.08C45.5909 213.49 44.8809 213.46 44.4709 213C44.0609 212.54 44.0909 211.83 44.5509 211.42C45.0109 211.01 45.7209 211.04 46.1309 211.5C46.5409 211.96 46.5109 212.67 46.0509 213.08ZM74.4309 191.76C72.9509 193.1 70.6609 192.98 69.3309 191.49C67.9909 190.01 68.1109 187.72 69.6009 186.39C71.0809 185.05 73.3709 185.17 74.7009 186.66C76.0309 188.15 75.9209 190.43 74.4309 191.76Z"
    fill="white" />
</svg>