<svg width="55" height="55" viewBox="0 0 256 256" fill="none" xmlns="http://www.w3.org/2000/svg">
  <path
    d="M77.72 168.532C70.09 173.082 49.69 186.092 38.5 201.392C24.55 220.452 17 226.752 17 226.752C31.67 236.092 43.78 229.372 43.78 229.372C43.84 224.432 42.7 222.102 45.24 217.252C45.88 216.042 48.51 213.292 49.28 212.062C50.07 210.802 50.98 208.112 51.86 206.882C52.6 205.842 54.66 204.532 55.46 203.522C56.53 202.162 56.59 200.742 57.73 199.442C58.7 198.332 60.33 197.682 61.33 196.612C62.51 195.352 63.05 193.482 64.24 192.302C65.32 191.242 67.06 190.862 68.12 189.872C74.81 183.642 81.02 178.932 83.95 176.792L77.72 168.532ZM34.59 225.462C33.85 226.202 32.66 226.212 31.91 225.472C31.17 224.732 31.16 223.542 31.9 222.792C32.64 222.052 33.83 222.042 34.58 222.782C35.32 223.522 35.33 224.712 34.59 225.462ZM44.19 208.812C43.45 209.552 42.26 209.562 41.51 208.822C40.77 208.082 40.76 206.892 41.5 206.142C42.24 205.392 43.43 205.392 44.18 206.132C44.92 206.872 44.93 208.062 44.19 208.812ZM56.66 194.212C55.92 194.952 54.73 194.962 53.98 194.222C53.24 193.482 53.23 192.292 53.97 191.542C54.71 190.802 55.9 190.792 56.65 191.532C57.39 192.272 57.4 193.462 56.66 194.212ZM69.26 182.412C68.52 181.672 68.51 180.482 69.25 179.732C69.99 178.982 71.18 178.982 71.93 179.722C72.67 180.462 72.68 181.652 71.94 182.402C71.2 183.142 70.01 183.152 69.26 182.412Z"
    fill="white" />
  <path
    d="M211.41 33.8517C179.84 86.5417 126.52 131.842 110.58 144.952C108.07 147.022 99.9397 153.502 96.3197 155.912L80.7297 166.802C80.7297 166.802 80.2797 167.052 79.4697 167.522L85.5897 175.632C85.6797 175.572 86.7897 176.832 86.7897 176.832L96.2397 169.252L141.77 134.832C213.9 81.6917 238.72 27.2417 238.72 27.2417C218.58 19.6217 211.44 33.8717 211.44 33.8717L211.41 33.8517ZM169.61 107.292C149.29 126.002 124.87 143.182 102.96 160.042L98.1197 163.712C97.0897 164.702 95.2297 165.262 95.2197 166.892C95.2197 167.392 95.5097 167.822 95.6997 168.292C95.7397 168.352 95.6297 168.402 95.5997 168.342C94.0397 165.842 96.3497 164.962 98.0097 163.582L102.81 159.872C131.26 137.812 161.09 115.252 185.85 89.0217C202.62 71.5917 218.92 53.4817 229.76 31.6917C228.51 35.1317 226.25 39.0917 224.39 42.5917C210.25 67.2817 190.53 88.2417 169.6 107.302L169.61 107.292Z"
    fill="white" />
</svg>