<svg width="55" height="55" viewBox="0 0 256 256" fill="none" xmlns="http://www.w3.org/2000/svg">
  <path
    d="M228.909 28.2L70.1094 178.21C71.1394 179.83 72.2494 181.49 73.2094 182.7C74.6294 184.58 76.3194 186.07 78.1794 187.48L217.959 55.4399C217.959 55.4399 229.339 44.11 228.909 28.2Z"
    fill="white" />
  <path
    d="M33.1901 213.14C32.3901 214.95 31.6501 217.16 31.3301 219.61C35.2501 221.49 39.6501 222.29 43.8701 220.97C43.8701 220.97 44.0401 221.56 44.1401 221.92C44.2401 221.03 44.4301 220.19 44.7601 219.44C44.7601 219.44 44.7601 219.44 44.7601 219.43C41.4201 218.85 38.1601 217.67 35.5301 215.5C34.6701 214.78 33.8901 214 33.1701 213.14H33.1901Z"
    fill="white" />
  <path
    d="M31.2897 219.99C31.0497 222.2 31.1597 224.59 31.8697 227.05C36.1097 227.48 40.3897 226.08 44.0697 223.83C44.0597 223.28 44.0697 222.73 44.1097 222.2C39.6597 223.24 35.1897 222.16 31.2897 219.99Z"
    fill="white" />
  <path
    d="M44.8995 219.2C45.1995 218.65 45.7395 217.9 46.4895 216.99C42.1095 215.17 38.9995 211.46 37.0695 207.22L36.1095 208.13C36.1095 208.13 34.9595 209.57 33.7695 211.93C36.2795 215.81 40.4495 218.11 44.8995 219.2Z"
    fill="white" />
  <path
    d="M32.21 228.09C32.83 229.83 33.77 231.59 35.11 233.34C39.08 232.05 42.63 229.68 44.6 225.89C44.37 225.43 44.17 225.22 44.16 225.21L44.18 225.19C44.18 225.19 44.16 225.19 44.15 225.18C44.11 224.78 44.09 224.38 44.07 223.98C40.88 226.23 37.19 227.93 33.26 228.08C32.91 228.09 32.56 228.09 32.21 228.08V228.09Z"
    fill="white" />
  <path
    d="M63.0501 182.68L59.1401 186.37C61.3101 190.26 64.5401 193.55 68.8601 194.9C69.9701 193.87 70.6701 193.24 70.7701 193.15C65.8701 191.96 63.6801 188.08 62.9601 182.78C64.2801 185.1 64.9701 187.71 66.6001 189.58C68.1801 191.39 70.4701 192.5 72.7401 193.37C72.4301 191.59 72.7001 190.22 73.5601 189.27C74.4801 188.25 75.8501 188 76.8101 187.96C73.0801 186.49 70.2501 183.05 68.9601 179.19L65.9201 178.82C65.9201 178.82 60.4601 174.47 64.5801 170.39C64.5801 170.39 69.2301 171.66 68.9401 166.27C68.6501 160.88 62.6901 163.92 62.6901 163.92C62.6901 163.92 60.7701 165.54 61.1401 167.97C61.1401 167.97 56.5601 170.85 59.2901 177.3C59.2901 177.3 59.9501 180.23 63.0401 182.69L63.0501 182.68Z"
    fill="white" />
  <path
    d="M42.83 207.72C41.83 206.66 40.97 205.52 40.23 204.23L37.29 207.01C39.48 211.12 42.82 214.61 47.35 215.99C48.28 214.92 49.41 213.71 50.67 212.41C47.75 211.44 44.98 209.95 42.84 207.72H42.83Z"
    fill="white" />
  <path
    d="M72.7695 193.47C72.7695 193.47 72.7695 193.46 72.7695 193.45C72.5895 193.43 72.3995 193.42 72.2295 193.39C72.3995 193.42 72.5895 193.44 72.7795 193.47H72.7695Z"
    fill="white" />
  <path
    d="M45.1196 227.39C42.7896 230.69 39.2396 232.69 35.3896 233.7C35.6496 234.02 35.8996 234.34 36.1896 234.66C36.1896 234.66 38.8496 238.53 45.1596 232.36C45.4896 230.14 45.3797 228.52 45.1297 227.4L45.1196 227.39Z"
    fill="white" />
  <path
    d="M77.4894 189.02C76.8494 188.98 75.2394 188.97 74.3294 189.97C73.6494 190.72 73.5094 191.94 73.8694 193.56C73.9294 193.56 73.9894 193.56 74.0494 193.56C75.5894 194.63 79.2994 197.83 80.1594 204.43C80.7494 208.94 78.1694 215.26 72.4394 219.47C67.5294 223.07 60.4594 225.69 55.2794 225.97C50.2694 226.23 47.3494 225.96 45.6494 225.6C46.1594 226.7 46.6694 228.64 46.3094 231.76C47.6094 231.72 49.6894 231.69 52.9894 231.68C64.9894 231.63 77.1494 225.33 80.7794 220.92C85.7094 214.94 86.1494 210.41 85.5294 204.14C85.0194 199.04 79.5194 191.6 77.4894 189.01V189.02Z"
    fill="white" />
  <path
    d="M44.5999 200.11L41.1699 203.35C42.9999 207.58 46.6999 210.45 50.8899 212.18C51.7599 211.28 52.6899 210.34 53.6499 209.39C49.5099 207.61 46.5099 204.13 44.5999 200.12V200.11Z"
    fill="white" />
  <path
    d="M64.4898 198.96C65.7498 197.78 66.8898 196.72 67.8498 195.83C63.7598 194.04 60.7898 190.58 58.8898 186.6L56.5898 188.78C57.6798 193.15 60.7498 196.56 64.4898 198.95V198.96Z"
    fill="white" />
  <path
    d="M50.1998 199.78C49.5098 198.73 48.9198 197.64 48.4498 196.46L44.8398 199.87C47.0198 203.78 50.2698 207.08 54.6098 208.42C55.4798 207.56 56.3598 206.7 57.2498 205.84C54.4798 204.37 51.9498 202.41 50.1998 199.79V199.78Z"
    fill="white" />
  <path
    d="M57.4394 193.26C56.6994 192.14 56.0894 190.97 55.6094 189.71L52.1094 193.02C54.2994 196.89 57.5294 200.14 61.8394 201.46C62.6694 200.67 63.4794 199.91 64.2494 199.19C61.5694 197.73 59.1494 195.81 57.4394 193.27V193.26Z"
    fill="white" />
  <path
    d="M57.4702 205.62C58.6002 204.53 59.7302 203.44 60.8302 202.4C56.7302 200.64 53.7602 197.21 51.8402 193.26L49.4102 195.55C50.5802 199.89 53.6902 203.26 57.4602 205.62H57.4702Z"
    fill="white" />
</svg>