<svg width="55" height="55" viewBox="0 0 256 256" fill="none" xmlns="http://www.w3.org/2000/svg">
  <path
    d="M90.6439 170.899C89.9639 173.159 89.6039 175.489 89.8439 177.799C90.0939 179.479 90.4939 181.349 90.4539 183.119C92.5539 181.909 94.4139 179.269 94.4139 179.269C94.4139 179.269 95.1739 178.129 95.6439 175.949L90.6439 170.889V170.899Z"
    fill="white" />
  <path
    d="M90.6805 170.92L85.4005 165.58C80.0705 164.81 77.4305 166.36 77.4305 166.36C77.4305 166.36 74.0605 168.48 73.3105 170.97C73.3105 170.97 76.2505 170.82 77.3005 170.8C79.2405 170.66 81.3205 171.18 83.1705 171.47C85.4105 171.73 87.6705 171.41 89.8705 170.8C89.1005 171.25 84.4905 173.01 82.9905 172.84C79.5605 172.01 76.6305 171.92 73.2405 171.86C72.3005 171.94 71.6505 172.23 71.6505 172.23C71.6505 172.23 68.2805 174.35 67.5305 176.84C67.5305 176.84 69.9705 176.85 70.6705 176.84C72.6105 176.7 74.6905 177.22 76.5405 177.51C78.5605 177.75 80.6005 177.51 82.6005 177.02C81.9705 177.33 81.3505 177.6 81.0905 177.71C79.3805 178.19 78.1405 179.08 76.3505 178.89C73.2405 178.14 70.3705 177.86 67.3405 177.77C66.5905 178 66.2005 178.22 66.2005 178.22C66.2005 178.22 62.9705 180.25 62.2605 182.63C62.2605 182.63 64.8705 182.5 65.8305 182.48C67.7705 182.34 69.8505 182.86 71.7005 183.15C73.5605 183.37 75.4505 183.19 77.3005 182.78C76.6805 183.21 72.8505 184.67 71.5205 184.53C68.2605 183.74 65.2505 183.48 62.0405 183.41C61.6105 183.57 61.3905 183.7 61.3905 183.7C61.3905 183.7 58.1605 185.73 57.4505 188.11C57.4505 188.11 59.5905 188.24 60.0205 188.23C61.9605 188.09 64.0405 188.61 65.8905 188.9C67.4005 189.08 68.9205 188.99 70.4205 188.73C70.0805 189.03 66.8805 190.4 65.7105 190.27C62.9205 189.6 60.3205 189.31 57.6305 189.19C56.9105 189.41 56.5405 189.62 56.5405 189.62C56.5405 189.62 53.3805 191.6 52.6905 193.93C52.6905 193.93 53.9105 194.11 55.4405 194.37C55.4705 194.37 59.5505 194.51 61.4205 194.69C62.3705 194.75 63.3105 194.67 64.2505 194.55C64.0205 195.02 62.0905 196.11 61.3205 196.07C58.3505 195.53 55.6205 195.4 52.7805 195.46C52.7305 195.49 52.7005 195.5 52.7005 195.5C52.7005 195.5 49.9405 197.42 49.4105 199.55C49.4105 199.55 50.1805 199.63 51.2405 199.75C52.9805 199.44 54.8905 199.55 56.5805 199.53C57.5505 199.48 58.5005 199.32 59.4405 199.09C59.0205 199.5 57.1305 200.89 56.6305 200.91C54.2305 200.74 52.0205 200.81 49.7905 201.03C49.1205 201.33 48.7805 201.6 48.7805 201.6C48.7805 201.6 46.5905 203.54 46.3505 205.43C46.3505 205.43 46.5305 205.43 46.8205 205.43C49.0205 204.67 51.4005 204.38 53.6905 204.52C53.8805 204.52 54.0705 204.48 54.2605 204.46C54.1405 204.56 54.0205 204.66 53.9005 204.77C53.6005 205.07 52.2005 205.84 51.7505 205.84C49.9805 205.82 48.3205 205.95 46.5705 206.14C46.2305 206.46 45.6805 207.03 45.2705 207.69L52.0805 214.76C52.0805 214.76 52.1005 214.71 52.1205 214.68C51.9805 213.2 51.7705 211.73 51.4005 210.15C51.3705 209.86 51.4005 209.58 51.3905 209.3C51.8305 209.24 52.3005 209.13 52.7505 208.97C52.7505 209.31 52.7405 209.65 52.7705 209.99C53.0805 211.39 53.2305 212.86 53.2005 214.32C54.6805 213.87 56.0305 212.36 56.0305 212.36C56.0305 212.36 56.3005 212.03 56.5605 211.36C56.5005 209.64 56.3005 207.84 56.3705 206.26C56.4405 204.68 57.0105 203.9 57.4605 203.74C57.3805 204.46 57.3405 205.18 57.3905 205.9C57.4905 206.44 57.5505 207 57.6005 207.56C57.9405 209.25 58.2405 211.4 58.2405 211.4C59.4605 210.8 60.5505 209.33 61.0605 208.57C61.2105 206.24 60.8805 203.36 60.9505 201.57C61.0205 199.78 62.4505 198.09 62.9305 197.87C62.8005 198.3 62.6205 199.17 62.6205 199.17L62.4905 199.76C62.4905 199.76 62.3405 200.95 62.3405 201.55C62.5305 203.37 62.4605 205.25 62.0905 207.08C62.1205 207.72 62.1305 208.14 62.1305 208.14C64.0905 207.39 66.0105 204.66 66.0105 204.66C66.0105 204.66 66.3105 204.18 66.6305 203.28C66.6205 201.36 66.5205 199.52 66.1705 197.46C66.1305 196.31 67.5405 193.84 67.9805 193.69C67.6705 194.9 67.4905 196.13 67.5605 197.38C67.8705 199.33 67.8505 201.39 67.4505 203.36C67.4705 203.94 67.4805 204.33 67.4805 204.33C69.6605 203.5 71.7905 200.48 71.7905 200.48C71.7905 200.48 72.0005 200.15 72.2705 199.52C72.0905 198.3 71.8805 197.06 71.5605 195.79C71.2605 193.18 73.5205 187.99 73.8505 187.88C73.0505 190.39 72.6205 193.02 72.9405 195.6C72.9905 195.88 73.0405 196.17 73.0905 196.46C73.1005 196.39 73.1105 196.33 73.1205 196.26C73.1305 196.44 73.1405 196.63 73.1505 196.8C73.3105 197.65 73.4605 198.53 73.5505 199.4C75.6705 198.41 77.6605 195.59 77.6605 195.59C77.6605 195.59 77.8605 195.28 78.1105 194.69C77.9505 193.16 77.7305 191.62 77.3605 190.01C77.1005 187.38 79.8405 181.41 80.2305 180.88C79.1105 183.75 78.4105 186.82 78.7305 189.84C78.9405 191.28 79.2805 192.86 79.3405 194.4C81.3205 193.28 83.0905 190.78 83.0905 190.78C83.0905 190.78 83.5405 190.08 83.9505 188.76C83.6905 187.68 83.4005 186.59 83.0305 185.48C82.5405 183.03 83.8405 179.26 84.8605 176.63C84.1205 179.44 83.8005 182.38 84.3805 185.18C84.6805 186.39 85.0805 187.7 85.3205 189.01C87.3705 187.77 89.1605 185.23 89.1605 185.23C89.1605 185.23 89.5305 184.67 89.9205 183.58C89.7605 181.98 89.5305 180.37 89.1505 178.69C88.8805 176.01 89.4905 173.34 90.6605 170.95L90.6805 170.92Z"
    fill="white" />
  <path
    d="M53.4704 221.37C52.2104 217.77 51.6004 216.09 51.3204 215.37L43.8604 207.83C43.1504 207.54 41.4804 206.92 37.8904 205.61C28.8204 202.31 27.1904 210.89 27.1904 210.89C30.0904 213.65 28.7304 217.31 28.7304 217.31C33.4704 220.08 32.1004 226.91 32.1004 226.91C32.1004 226.91 38.9404 225.62 41.6604 230.39C41.6604 230.39 45.3404 229.07 48.0804 232.01C48.0804 232.01 56.6704 230.47 53.4704 221.36V221.37ZM33.3304 214.85C34.2204 212.35 32.4504 210.69 32.4504 210.69C36.9204 210.06 40.9704 212.9 40.9704 212.9C36.7204 211.88 33.3304 214.86 33.3304 214.86V214.85ZM38.4504 223.3C38.4504 223.3 36.8104 222.98 35.4004 223.73C35.4004 223.73 35.9604 222.2 35.5104 220.74C35.5104 220.74 38.9104 217.39 42.0804 217.15C42.0804 217.15 42.2704 219.44 38.4604 223.3H38.4504ZM48.1104 226.53C48.1104 226.53 46.4604 224.74 43.9604 225.6C43.9604 225.6 46.9804 222.24 46.0004 217.98C46.0004 217.98 48.7904 222.06 48.1104 226.52V226.53Z"
    fill="white" />
  <path
    d="M131.2 168.82C131.2 168.82 124.84 162.06 119.25 168.63C113.66 175.21 121.99 176.27 121.99 176.27L123.48 178.44C123.48 178.44 117.61 183.91 112.74 176.46C107.87 169.01 109.04 170.45 109.04 170.45C107.37 168.54 105.3 166.7 105.27 166.67L104.49 165.99L105.2 165.24C105.2 165.24 107.28 162.99 107.16 160.16C107.09 158.43 106.22 156.8 104.57 155.3C99.2401 150.45 95.4701 154.04 95.3101 154.19L94.6501 154.84L93.9501 154.24C92.1601 152.69 90.2101 151.33 89.0201 150.53C88.3001 150.09 86.7501 149.1 83.5501 146.95C76.1601 142 81.7001 136.2 81.7001 136.2L83.8601 137.71C83.8601 137.71 84.8101 146.04 91.4501 140.53C98.0901 135.01 91.4101 128.59 91.4101 128.59C91.4101 128.59 86.4501 120.56 74.9001 129.33C63.3501 138.1 72.5601 151.2 72.5601 151.2L83.5001 162.26L97.4301 176.34L108.38 187.41C108.38 187.41 121.37 196.77 130.27 185.32C139.17 173.87 131.2 168.82 131.2 168.82ZM101.21 163.11C100 164.31 98.0501 164.29 96.8501 163.09C95.6501 161.89 95.6701 159.93 96.8701 158.74C98.0801 157.54 100.03 157.56 101.23 158.76C102.43 159.97 102.41 161.92 101.21 163.11Z"
    fill="white" />
  <path
    d="M135.14 107.23C113.96 127.81 95.9804 144.68 90.9404 149.39C91.9904 150.11 93.3204 151.08 94.6504 152.18C96.3104 151.03 100.64 148.99 105.93 153.81C108 155.69 109.09 157.8 109.17 160.1C109.27 162.65 108.07 164.74 107.3 165.82C108.06 166.53 109.3 167.73 110.43 169C115.28 163.93 132.31 146.21 153.04 125.34C199.58 78.5199 228.39 46.5099 233.7 27.6899C214.84 32.7999 182.5 61.2499 135.14 107.23ZM162.8 98.7499C153.4 107.65 134.44 126.67 125 135.04C149.03 111.02 174.32 83.9899 199.52 61.3599L199.64 61.4799C187.86 74.3999 175.43 86.6599 162.8 98.7399V98.7499Z"
    fill="white" />
</svg>