<svg width="55" height="55" viewBox="0 0 256 256" fill="none" xmlns="http://www.w3.org/2000/svg">
  <g clip-path="url(#clip0_268_3425)">
    <path
      d="M190.592 61.9147C185.468 48.627 174.176 56.7864 174.176 56.7864C174.176 56.7864 184.672 61.4555 182.014 67.4513C180.539 70.7732 178.074 70.7987 175.13 70.9467C174.084 71.0029 173.293 71.8652 173.257 72.9113C173.232 73.7431 173.079 74.7738 172.65 75.8965C171.844 78.0397 170.175 79.5042 167.894 81.8668C168.323 84.2141 172.528 89.1332 176.146 90.2813C179.039 87.5717 180.09 86.3062 181.937 85.449C182.82 85.0458 184.126 84.7601 185.213 84.6733C186.06 84.6019 186.749 83.9845 186.969 83.1629C187.428 81.4381 188.561 78.8867 191.025 77.6671C194.215 76.0904 199.649 78.2489 203.869 86.4899C208.906 77.1058 202.726 72.3347 199.44 70.7732C207.931 67.8442 214.019 61.93 222.193 52.0101C230.139 42.3709 233.052 37.6814 250.596 3.50264C226.817 24.9345 210.875 41.6208 190.581 61.9147L190.592 61.9147ZM197.618 68.1045L197.409 68.3545C195.628 68.4208 193.868 68.926 192.204 69.5587C187.229 71.4009 183.3 76.8711 184.514 82.2495C181.202 80.2237 178.028 77.6416 176.35 74.0543L176.472 73.9829C177.442 75.4525 178.513 76.8609 179.835 77.9784C180.917 78.9071 182.106 79.6981 183.335 80.438C183.065 77.0446 184.795 73.7431 187.091 71.3447C189.311 68.9311 192.454 67.6758 195.597 67.0635C195.944 67.0022 196.307 66.9461 196.674 66.9155C211.86 49.6781 228.133 29.9557 243.36 13.2491C230.067 29.1546 210.799 52.5051 197.608 68.1147L197.618 68.1045Z"
      fill="white" />
    <path
      d="M18.5762 246.117L18.5507 246.142C18.219 246.474 17.7393 246.566 17.3924 246.361C16.2442 245.683 15.0859 244.831 14.0296 243.774C12.9733 242.718 12.116 241.544 11.4425 240.391C11.2434 240.049 11.3353 239.57 11.667 239.238L11.6925 239.212C12.1364 238.768 12.81 238.779 13.0907 239.233C13.7387 240.279 14.5348 241.34 15.5043 242.31C16.4738 243.279 17.5148 244.065 18.566 244.718C19.0202 244.999 19.0253 245.667 18.5813 246.111L18.5762 246.117Z"
      fill="white" />
    <path
      d="M6.72149 241.621C7.90535 240.876 9.4464 240.498 10.6405 240.723C10.666 240.799 10.6966 240.861 10.7374 240.932C11.5079 242.244 12.4009 243.412 13.396 244.407C14.391 245.402 15.5392 246.285 16.8455 247.061C16.9169 247.101 16.9884 247.132 17.0649 247.158C17.2997 248.403 16.8812 250.015 16.075 251.219C15.7841 251.653 15.2228 251.837 14.7227 251.674C12.2734 250.857 10.7833 251.796 9.84443 252.276C9.49743 252.449 9.84443 252.276 9.49743 252.449C9.0841 251.873 7.4512 252.413 6.41532 251.378C5.37945 250.342 5.92545 248.714 5.34883 248.29L5.52233 247.943C5.98669 247.03 7.00215 245.086 6.24183 243.111C6.02751 242.56 6.22142 241.937 6.72149 241.621Z"
      fill="white" />
    <path
      d="M172.833 89.7658L64.5047 198.094C64.5047 198.094 63.0096 197.619 61.591 196.201C60.1724 194.782 59.7183 193.307 59.7183 193.307L168.046 84.9793C168.046 84.9793 168.694 86.1275 170.189 87.6226C171.685 89.1177 172.833 89.7658 172.833 89.7658Z"
      fill="white" />
    <path
      d="M38.9517 211.29L37.0279 212.938C36.2829 213.581 35.5532 214.249 34.8541 214.938C34.6347 215.413 34.4102 215.892 34.2009 216.377C33.0477 219.072 32.1139 221.883 31.721 224.787C31.3842 227.236 31.4097 229.844 32.3741 232.145L37.9515 227.364C37.2269 225.986 36.8391 224.475 36.7166 222.924C36.385 218.939 37.4361 215.01 38.9466 211.285L38.9517 211.29Z"
      fill="white" />
    <path
      d="M25.8634 230.655C25.5623 232.885 25.5623 235.232 26.2869 237.375L31.8133 232.635C31.2724 231.42 30.9713 230.119 30.8591 228.792C30.507 224.572 31.701 220.408 33.3646 216.489C33.0431 216.842 32.7267 217.189 32.4154 217.551L28.2872 222.373C27.1595 225.021 26.2512 227.797 25.8583 230.66L25.8634 230.655Z"
      fill="white" />
    <path
      d="M55.2653 197.313L50.8922 201.064C50.1625 203.059 49.591 205.11 49.3103 207.207C48.9684 209.723 49.0143 212.402 50.0502 214.744L55.102 208.845C54.653 207.733 54.4029 206.544 54.306 205.345C54.0763 202.625 54.4999 199.926 55.2704 197.308L55.2653 197.313Z"
      fill="white" />
    <path
      d="M26.805 224.098L21.692 230.068C20.9112 232.155 20.2989 234.309 19.9978 236.518C19.7274 238.513 19.6968 240.616 20.2173 242.575L25.6977 237.881C25.3201 236.85 25.0905 235.763 24.9986 234.661C24.6975 231.063 25.5293 227.507 26.805 224.108L26.805 224.098Z"
      fill="white" />
    <path
      d="M48.4438 211.208C48.1835 208.09 48.7704 205.003 49.7654 202.028L45.5045 205.677C44.5452 208.055 43.79 210.524 43.4481 213.071C43.0756 215.811 43.1521 218.745 44.4891 221.225C44.6167 221.077 44.7493 220.934 44.882 220.781L49.546 215.341C48.9183 214.05 48.5714 212.642 48.454 211.208L48.4438 211.208Z"
      fill="white" />
    <path
      d="M19.1356 240.514C18.8856 237.498 19.4265 234.508 20.3552 231.619L14.0991 238.916C14.0991 238.916 14.5584 240.396 15.9719 241.81C17.3854 243.223 18.8856 243.703 18.8856 243.703L19.6102 243.08C19.3601 242.249 19.202 241.386 19.1305 240.509L19.1356 240.514Z"
      fill="white" />
    <path
      d="M56.3373 196.395C55.8118 198.012 55.3933 199.666 55.1637 201.355C54.8524 203.636 54.8626 206.044 55.6434 208.223L63.1905 199.421C63.1905 199.421 61.7821 199.033 60.2869 197.538C58.7918 196.042 58.404 194.634 58.404 194.634L56.3425 196.4L56.3373 196.395Z"
      fill="white" />
    <path
      d="M43.9076 221.684C43.1167 220.261 42.7187 218.679 42.586 217.066C42.2951 213.53 43.0912 210.029 44.3261 206.682L40.1979 210.218C40.1571 210.32 40.106 210.412 40.0652 210.514C38.912 213.208 37.9781 216.02 37.5852 218.924C37.2229 221.592 37.2944 224.44 38.5242 226.874L40.2642 225.379C41.5756 224.251 42.8207 223.047 43.9842 221.771C43.9587 221.745 43.928 221.715 43.9025 221.679L43.9076 221.684Z"
      fill="white" />
  </g>
  <defs>
    <clipPath id="clip0_268_3425">
      <rect width="256" height="256" fill="white" />
    </clipPath>
  </defs>
</svg>