<svg width="55" height="55" viewBox="0 0 256 256" fill="none" xmlns="http://www.w3.org/2000/svg">
  <g clip-path="url(#clip0_268_3426)">
    <path
      d="M193.945 56.5969C189.454 44.9436 179.55 52.1054 179.55 52.1054C179.55 52.1054 188.753 56.2029 186.42 61.4515C185.126 64.3622 182.967 64.3827 180.384 64.5208C179.468 64.5669 178.772 65.324 178.742 66.2448C178.716 66.9763 178.583 67.8766 178.215 68.8588C177.504 70.7362 176.046 72.0202 174.046 74.092C174.424 76.1485 178.107 80.466 181.279 81.4686C183.816 79.095 184.737 77.9798 186.359 77.2381C187.131 76.8851 188.282 76.6344 189.228 76.5577C189.97 76.5014 190.579 75.9541 190.768 75.2328C191.167 73.7186 192.16 71.4882 194.329 70.4139C197.127 69.0276 201.889 70.9255 205.588 78.1538C210.008 69.928 204.585 65.7434 201.705 64.3674C209.148 61.7942 214.489 56.6173 221.656 47.9158C228.623 39.4649 231.171 35.352 246.558 5.38513C225.713 24.1745 211.732 38.7999 193.94 56.5917L193.945 56.5969ZM200.104 62.0193L199.92 62.2342C198.355 62.2956 196.815 62.7304 195.362 63.2931C190.998 64.9045 187.556 69.708 188.62 74.4143C185.719 72.6392 182.931 70.373 181.463 67.227L181.571 67.1604C182.42 68.4496 183.361 69.6773 184.522 70.6646C185.469 71.478 186.512 72.1737 187.592 72.8234C187.351 69.8512 188.87 66.9507 190.886 64.8533C192.835 62.7406 195.587 61.6357 198.344 61.0985C198.646 61.0423 198.968 60.9962 199.286 60.9655C212.596 45.8542 226.869 28.5637 240.215 13.9179C228.562 27.8628 211.67 48.3353 200.104 62.0193Z"
      fill="white" />
    <path
      d="M60.8526 199.213C65.3031 210.754 75.1045 203.664 75.1045 203.664C75.1045 203.664 65.9886 199.612 68.3008 194.404C69.5797 191.519 71.7231 191.504 74.2758 191.366C75.1812 191.32 75.8718 190.568 75.9025 189.657C75.9281 188.936 76.056 188.041 76.4294 187.064C77.074 185.345 78.3631 184.127 80.1177 182.332C80.3275 182.122 80.2405 181.779 79.9642 181.667C76.9665 180.5 74.639 178.091 73.5852 175.175C73.4829 174.899 73.1401 174.802 72.9253 175.006C70.7563 177.063 69.8611 178.071 68.3622 178.761C67.6 179.114 66.4643 179.36 65.518 179.436C64.7813 179.498 64.1828 180.035 63.9935 180.746C63.5996 182.245 62.6123 184.46 60.4689 185.519C57.6963 186.89 52.9849 185.012 49.317 177.856C44.9432 186.005 50.3146 190.148 53.1639 191.504C45.7924 194.046 40.5029 199.182 33.4026 207.797C26.5017 216.171 23.9746 220.243 8.74053 249.913C29.3869 231.303 43.2295 216.816 60.8526 199.193L60.8526 199.213ZM54.7497 193.837L54.9339 193.622C56.4788 193.56 58.0083 193.126 59.4509 192.573C63.7736 190.972 67.1805 186.225 66.1318 181.554C69.0068 183.314 71.7692 185.555 73.222 188.675L73.1145 188.742C72.2705 187.468 71.3446 186.245 70.1936 185.268C69.2574 184.465 68.2292 183.774 67.1549 183.13C67.3902 186.076 65.8863 188.941 63.8912 191.028C61.9575 193.126 59.2361 194.21 56.4993 194.747C56.1974 194.803 55.8803 194.844 55.5682 194.88C42.3804 209.848 28.2512 226.975 15.0275 241.478C26.5682 227.666 43.3012 207.393 54.7497 193.837Z"
      fill="white" />
    <path
      d="M133.864 128.813L133.838 128.839C133.506 129.171 133.025 129.263 132.677 129.059C131.526 128.378 130.365 127.524 129.306 126.465C128.247 125.406 127.387 124.229 126.712 123.073C126.513 122.731 126.605 122.25 126.937 121.917L126.963 121.892C127.408 121.447 128.083 121.457 128.365 121.912C129.014 122.961 129.812 124.025 130.784 124.997C131.756 125.969 132.8 126.757 133.853 127.411C134.309 127.693 134.314 128.363 133.869 128.808L133.864 128.813Z"
      fill="white" />
    <path
      d="M127.166 135.612L127.141 135.637C126.808 135.97 126.327 136.062 125.98 135.857C124.829 135.177 123.667 134.322 122.608 133.264C121.55 132.205 120.69 131.028 120.015 129.872C119.815 129.529 119.907 129.048 120.24 128.716L120.266 128.69C120.711 128.245 121.386 128.255 121.667 128.711C122.317 129.759 123.115 130.823 124.087 131.795C125.059 132.767 126.102 133.555 127.156 134.21C127.612 134.491 127.617 135.161 127.172 135.606L127.166 135.612Z"
      fill="white" />
    <path
      d="M131.688 133.514C130.419 134.783 131.652 133.55 131.652 133.55C131.192 134.01 129.683 134.987 129.207 134.706C127.626 133.77 126.02 132.593 124.567 131.141C123.114 129.688 121.927 128.061 120.996 126.475C120.72 126.005 121.697 124.495 122.158 124.035C122.158 124.035 120.643 125.549 122.193 123.999C123.743 122.449 124.93 122.204 125.319 122.828C126.214 124.275 127.309 125.728 128.649 127.069C129.989 128.409 131.427 129.488 132.87 130.389C133.494 130.777 132.972 132.24 131.698 133.514L131.688 133.514Z"
      fill="white" />
    <path
      d="M154.289 93.9096L152.361 95.5619C151.614 96.2064 150.882 96.8766 150.181 97.5672C149.961 98.0429 149.736 98.5238 149.527 99.0098C148.37 101.711 147.434 104.529 147.04 107.44C146.703 109.896 146.728 112.51 147.695 114.817L153.286 110.024C152.56 108.642 152.171 107.128 152.049 105.573C151.716 101.578 152.77 97.6388 154.284 93.9044L154.289 93.9096Z"
      fill="white" />
    <path
      d="M141.164 113.318C140.862 115.553 140.862 117.907 141.588 120.055L147.128 115.303C146.586 114.085 146.284 112.781 146.172 111.451C145.819 107.22 147.016 103.046 148.684 99.1172C148.361 99.4702 148.044 99.818 147.732 100.181L143.594 105.015C142.463 107.67 141.553 110.453 141.159 113.323L141.164 113.318Z"
      fill="white" />
    <path
      d="M170.638 79.893L166.254 83.6529C165.523 85.6531 164.95 87.7096 164.668 89.8121C164.325 92.334 164.372 95.0197 165.41 97.3677L170.474 91.4542C170.024 90.339 169.774 89.147 169.676 87.9449C169.446 85.2183 169.871 82.5122 170.643 79.8879L170.638 79.893Z"
      fill="white" />
    <path
      d="M142.114 106.75L136.988 112.735C136.205 114.827 135.591 116.986 135.289 119.201C135.018 121.201 134.988 123.309 135.509 125.273L141.004 120.567C140.625 119.533 140.395 118.444 140.303 117.339C140.001 113.732 140.835 110.167 142.114 106.76L142.114 106.75Z"
      fill="white" />
    <path
      d="M163.803 93.8277C163.542 90.7021 164.13 87.6072 165.128 84.6248L160.856 88.2824C159.895 90.6663 159.137 93.1422 158.795 95.6949C158.421 98.4419 158.498 101.383 159.838 103.869C159.966 103.721 160.099 103.578 160.232 103.424L164.908 97.9713C164.279 96.677 163.931 95.2652 163.813 93.8277L163.803 93.8277Z"
      fill="white" />
    <path
      d="M134.431 123.201C134.18 120.178 134.723 117.18 135.654 114.285L129.382 121.6C129.382 121.6 129.842 123.083 131.259 124.5C132.676 125.917 134.18 126.398 134.18 126.398L134.907 125.774C134.656 124.94 134.498 124.076 134.426 123.196L134.431 123.201Z"
      fill="white" />
    <path
      d="M171.711 78.9721C171.184 80.5937 170.765 82.2512 170.535 83.9444C170.223 86.2311 170.233 88.6456 171.016 90.83L178.582 82.0056C178.582 82.0056 177.415 81.3406 175.916 79.8418C174.417 78.3429 173.783 77.2073 173.783 77.2073L171.716 78.9772L171.711 78.9721Z"
      fill="white" />
    <path
      d="M159.256 104.33C158.463 102.903 158.064 101.317 157.931 99.7004C157.64 96.1553 158.438 92.646 159.676 89.2902L155.537 92.8353C155.496 92.9376 155.445 93.0297 155.404 93.132C154.248 95.833 153.312 98.6517 152.918 101.562C152.555 104.238 152.626 107.092 153.859 109.532L155.604 108.034C156.918 106.903 158.167 105.696 159.333 104.417C159.307 104.391 159.277 104.361 159.251 104.325L159.256 104.33Z"
      fill="white" />
    <path
      d="M100.126 147.49L98.1975 149.142C97.4506 149.787 96.7191 150.457 96.0183 151.147C95.7983 151.623 95.5732 152.104 95.3635 152.59C94.2074 155.291 93.2712 158.11 92.8773 161.02C92.5397 163.476 92.5653 166.09 93.5321 168.397L99.1234 163.604C98.397 162.223 98.0082 160.708 97.8854 159.153C97.5529 155.158 98.6067 151.219 100.121 147.485L100.126 147.49Z"
      fill="white" />
    <path
      d="M87.0036 166.903C86.7018 169.139 86.7018 171.492 87.4282 173.64L92.9683 168.888C92.4261 167.671 92.1242 166.366 92.0117 165.036C91.6587 160.806 92.8558 156.631 94.5234 152.703C94.2012 153.055 93.884 153.403 93.5719 153.767L89.4335 158.601C88.3029 161.256 87.3924 164.039 86.9985 166.908L87.0036 166.903Z"
      fill="white" />
    <path
      d="M116.48 133.478L112.096 137.238C111.364 139.238 110.791 141.295 110.51 143.397C110.167 145.919 110.213 148.605 111.252 150.953L116.316 145.039C115.866 143.924 115.615 142.732 115.518 141.53C115.288 138.804 115.713 136.098 116.485 133.473L116.48 133.478Z"
      fill="white" />
    <path
      d="M87.9495 160.33L82.8237 166.315C82.0411 168.407 81.4272 170.566 81.1254 172.781C80.8543 174.781 80.8236 176.889 81.3453 178.853L86.8394 174.147C86.4609 173.114 86.2307 172.024 86.1386 170.919C85.8368 167.313 86.6706 163.747 87.9495 160.34L87.9495 160.33Z"
      fill="white" />
    <path
      d="M109.64 147.408C109.379 144.282 109.967 141.188 110.965 138.205L106.693 141.863C105.731 144.247 104.974 146.723 104.632 149.275C104.258 152.022 104.335 154.964 105.675 157.45C105.803 157.301 105.936 157.158 106.069 157.005L110.745 151.552C110.115 150.257 109.768 148.845 109.65 147.408L109.64 147.408Z"
      fill="white" />
    <path
      d="M80.2611 176.787C80.0104 173.763 80.5527 170.766 81.4837 167.87L75.2121 175.185C75.2121 175.185 75.6725 176.669 77.0895 178.086C78.5065 179.503 80.0104 179.984 80.0104 179.984L80.7368 179.36C80.4862 178.526 80.3276 177.661 80.256 176.781L80.2611 176.787Z"
      fill="white" />
    <path
      d="M117.555 132.558C117.028 134.179 116.609 135.837 116.379 137.53C116.066 139.817 116.077 142.231 116.859 144.415L124.425 135.591C124.425 135.591 123.259 134.926 121.76 133.427C120.261 131.928 119.627 130.793 119.627 130.793L117.56 132.563L117.555 132.558Z"
      fill="white" />
    <path
      d="M105.086 157.915C104.293 156.488 103.894 154.902 103.761 153.286C103.47 149.741 104.268 146.231 105.506 142.876L101.367 146.421C101.326 146.523 101.275 146.615 101.234 146.717C100.078 149.418 99.1419 152.237 98.748 155.148C98.3848 157.823 98.4565 160.678 99.6893 163.118L101.434 161.619C102.748 160.488 103.997 159.281 105.163 158.002C105.137 157.977 105.107 157.946 105.081 157.91L105.086 157.915Z"
      fill="white" />
  </g>
  <defs>
    <clipPath id="clip0_268_3426">
      <rect width="256" height="256" fill="white" />
    </clipPath>
  </defs>
</svg>