<svg width="55" height="55" viewBox="0 0 256 256" fill="none" xmlns="http://www.w3.org/2000/svg">
  <path
    d="M43.0901 208.83C42.9401 208.85 42.8001 208.89 42.6601 208.94C41.7701 209.31 38.4301 210.8 40.3201 211.84C40.3201 211.84 45.7601 211.38 50.1401 213.06C50.6001 213.24 51.1001 213.24 51.5401 213C52.0301 212.74 52.6801 212.24 53.3201 211.32C53.9601 210.4 53.4801 209.03 52.3701 208.74C50.8801 208.35 48.1401 208.17 43.1001 208.82L43.0901 208.83Z"
    fill="white" />
  <path
    d="M48.3108 204.29C48.1708 204.32 48.0408 204.36 47.9108 204.42C47.0608 204.81 43.8008 206.42 45.5308 207.29C45.5308 207.29 50.6208 206.54 54.6208 207.83C55.0808 207.98 55.5708 207.96 55.9908 207.72C56.4108 207.48 56.9708 207.05 57.5508 206.32C58.3808 205.28 57.7408 203.72 56.4208 203.57C54.9408 203.4 52.4608 203.5 48.3108 204.3V204.29Z"
    fill="white" />
  <path
    d="M53.1604 199.31C53.0204 199.34 52.8904 199.38 52.7604 199.44C51.9104 199.83 48.6504 201.44 50.3804 202.31C50.3804 202.31 55.4704 201.56 59.4704 202.85C59.9304 203 60.4304 202.98 60.8404 202.74C61.2504 202.5 61.8204 202.07 62.4004 201.34C63.2304 200.3 62.5904 198.74 61.2704 198.59C59.7904 198.42 57.3104 198.52 53.1604 199.32V199.31Z"
    fill="white" />
  <path
    d="M57.8606 194.38C57.7206 194.41 57.5906 194.45 57.4606 194.51C56.6106 194.9 53.3506 196.51 55.0806 197.38C55.0806 197.38 60.1706 196.63 64.1706 197.92C64.6306 198.07 65.1206 198.05 65.5406 197.81C65.9606 197.57 66.5206 197.14 67.1006 196.41C67.9306 195.37 67.2906 193.81 65.9706 193.66C64.4906 193.49 62.0106 193.59 57.8606 194.39V194.38Z"
    fill="white" />
  <path
    d="M62.72 189.04C62.58 189.07 62.45 189.11 62.32 189.17C61.47 189.56 58.21 191.17 59.94 192.04C59.94 192.04 65.03 191.29 69.03 192.58C69.49 192.73 69.99 192.71 70.4 192.47C70.81 192.23 71.38 191.8 71.96 191.07C72.79 190.03 72.15 188.47 70.83 188.32C69.35 188.15 66.87 188.25 62.72 189.05V189.04Z"
    fill="white" />
  <path
    d="M70.8005 183.56C70.0805 183.67 69.3005 183.8 68.4505 183.97C68.3105 184 68.1805 184.04 68.0505 184.1C67.2005 184.49 63.9405 186.1 65.6705 186.97C65.6705 186.97 71.2805 186.14 75.3505 187.72C75.3505 187.72 75.5405 187.68 75.8505 187.54L72.2405 184.04C71.8605 183.67 71.3205 183.5 70.8005 183.58V183.56Z"
    fill="white" />
  <path
    d="M46.9301 217.97C47.6201 217.56 48.5601 216.71 49.3701 214.95C49.3701 214.95 49.1901 213.15 42.3301 213.51L46.9201 217.97H46.9301Z"
    fill="white" />
  <path
    d="M94.5729 195.602C91.1529 193.312 88.9429 193.232 88.9429 193.232L82.5429 186.722L83.2329 186.012C81.5929 182.892 83.4429 176.202 84.3929 173.242C78.6029 176.552 72.8429 175.572 71.1929 175.192L70.8129 175.572L64.4929 169.192C64.4929 169.192 64.1929 168.102 64.0029 167.512C63.6829 166.502 63.4129 165.442 61.9329 163.312C59.5729 159.962 56.7429 160.202 55.5229 160.902C53.9329 161.812 53.8329 163.262 53.8129 164.412C53.7929 165.572 54.6129 167.402 56.1229 168.722C59.1229 171.352 61.6429 171.492 61.6429 171.492L67.2929 177.332H67.3029L81.6129 191.222L86.5329 195.772C86.5329 195.772 87.3529 198.772 90.1329 201.642C92.9029 204.492 95.1229 204.072 96.1329 203.592C97.1829 203.132 97.7729 202.092 97.8629 201.022C97.9529 199.952 97.9929 197.882 94.5829 195.582L94.5729 195.602ZM61.0129 168.242C60.2329 168.872 58.3629 168.342 57.2129 166.912C56.0629 165.482 56.0729 163.692 56.8529 163.072C57.6329 162.442 59.1929 163.092 60.3429 164.522C61.4929 165.952 61.7929 167.612 61.0129 168.242ZM79.7029 180.732C78.5829 181.852 77.1629 182.232 76.5229 181.592C75.8829 180.952 76.2629 179.522 77.3829 178.412C78.5029 177.292 79.9229 176.912 80.5629 177.552C81.2029 178.192 80.8229 179.622 79.7029 180.732ZM95.4829 201.332C94.8229 202.082 93.1729 201.692 91.8029 200.472C90.4329 199.252 89.8629 197.662 90.5229 196.912C91.1829 196.162 92.8329 196.552 94.2029 197.772C95.5729 198.992 96.1429 200.582 95.4829 201.332Z"
    fill="white" />
  <path
    d="M37.4209 210.85L47.2709 220.7L53.2809 221.72C53.5209 221.72 53.5809 222.06 53.3509 222.14L45.5109 224.78L33.9609 213.23L35.5109 204.63C35.6209 204.35 36.0309 204.4 36.0609 204.7L37.4109 210.86L37.4209 210.85Z"
    fill="white" />
  <path
    d="M33.3804 214.32L44.1904 225.12C44.1904 225.12 38.5604 226.22 37.4604 229.55C36.3204 233 27.6904 223.34 28.5504 221.91C29.4104 220.48 32.0204 221.91 33.3804 214.32Z"
    fill="white" />
  <path
    d="M217.161 32.4799L73.1211 173.1C75.3711 173.49 80.9011 173.95 86.0911 170.42L87.3711 169.55L86.8411 171.01C85.8311 173.79 83.7811 180.95 85.0311 184.01L224.531 39.4799C233.151 29.9299 233.981 22.8099 233.981 22.8099C229.511 22.0299 217.161 32.4699 217.161 32.4699V32.4799ZM94.0111 170.39C93.0511 168.45 92.2011 166.84 92.9911 163.96C90.0811 164.64 89.3811 164.93 86.5411 163.69C89.3111 164.03 89.6511 164.18 92.6611 162.81L216.961 39.8299L94.2311 164.18C93.7211 165.13 93.0611 166.67 94.0211 170.39H94.0111Z"
    fill="white" />
</svg>